<svg version="1.1" xmlns="http://www.w3.org/2000/svg" xmlns:xlink="http://www.w3.org/1999/xlink" width="91.72273" height="53.2928" viewBox="0,0,91.72273,53.2928"><g transform="translate(-194.13864,-128.62503)"><g data-paper-data="{&quot;isPaintingLayer&quot;:true}" fill-rule="nonzero" stroke-linecap="butt" stroke-miterlimit="10" stroke-dasharray="" stroke-dashoffset="0" style="mix-blend-mode: normal"><g data-paper-data="{&quot;index&quot;:null}"><g><path d="M283.29454,162.16646l-17.15459,-6.4951l4.24598,-6.53992z" fill="none" stroke="#000000" stroke-width="4" stroke-linejoin="round"/><path d="M283.29454,162.16646l-17.15459,-6.4951l4.24598,-6.53992z" fill="#b3b3b3" stroke="none" stroke-width="1" stroke-linejoin="miter"/></g><g><path d="M270.66887,150.21149l-15.03438,10.50876l-3.00872,-7.19352z" fill="none" stroke="#000000" stroke-width="4" stroke-linejoin="round"/><path d="M270.66887,150.21149l-15.03438,10.50876l-3.00872,-7.19352z" fill="#b3b3b3" stroke="none" stroke-width="1" stroke-linejoin="miter"/></g></g><g data-paper-data="{&quot;index&quot;:null}"><g><path d="M283.86136,158.43411l-18.14044,-2.71867l2.76621,-7.29021z" fill="none" stroke="#000000" stroke-width="4" stroke-linejoin="round"/><path d="M283.86136,158.43411l-18.14044,-2.71867l2.76621,-7.29021z" fill="#b3b3b3" stroke="none" stroke-width="1" stroke-linejoin="miter"/></g><g><path d="M268.99218,149.42098l-12.47072,13.45168l-4.46253,-6.39412z" fill="none" stroke="#000000" stroke-width="4" stroke-linejoin="round"/><path d="M268.99218,149.42098l-12.47072,13.45168l-4.46253,-6.39412z" fill="#b3b3b3" stroke="none" stroke-width="1" stroke-linejoin="miter"/></g></g><g data-paper-data="{&quot;index&quot;:null}"><g><path d="M276.33961,179.91783l-13.31987,-12.61141l6.44067,-4.39509z" fill="none" stroke="#000000" stroke-width="4" stroke-linejoin="round"/><path d="M276.33961,179.91783l-13.31987,-12.61141l6.44067,-4.39509z" fill="#b3b3b3" stroke="none" stroke-width="1" stroke-linejoin="miter"/></g><g><path d="M269.30467,164.01692l-17.925,3.89371v-7.79737z" fill="none" stroke="#000000" stroke-width="4" stroke-linejoin="round"/><path d="M269.30467,164.01692l-17.925,3.89371v-7.79737z" fill="#b3b3b3" stroke="none" stroke-width="1" stroke-linejoin="miter"/></g></g><g><g><path d="M217.15623,142.64657l0.25175,7.79331l-18.04137,-3.31294z" fill="none" stroke="#000000" stroke-width="4" stroke-linejoin="round"/><path d="M217.15623,142.64657l0.25175,7.79331l-18.04137,-3.31294z" fill="#b3b3b3" stroke="none" stroke-width="1" stroke-linejoin="miter"/></g><g><path d="M230.08366,155.59355l-6.29542,4.60075l-7.43273,-16.76965z" fill="none" stroke="#000000" stroke-width="4" stroke-linejoin="round"/><path d="M230.08366,155.59355l-6.29542,4.60075l-7.43273,-16.76965z" fill="#b3b3b3" stroke="none" stroke-width="1" stroke-linejoin="miter"/></g></g><g><g><path d="M205.68139,158.3958l6.44067,4.39508l-13.31987,12.61141z" fill="none" stroke="#000000" stroke-width="4" stroke-linejoin="round"/><path d="M205.68139,158.3958l6.44067,4.39508l-13.31987,12.61141z" fill="#b3b3b3" stroke="none" stroke-width="1" stroke-linejoin="miter"/></g><g><path d="M223.76212,155.59773v7.79738l-17.925,-3.89371z" fill="none" stroke="#000000" stroke-width="4" stroke-linejoin="round"/><path d="M223.76212,155.59773v7.79738l-17.925,-3.89371z" fill="#b3b3b3" stroke="none" stroke-width="1" stroke-linejoin="miter"/></g></g><g><g><path d="M210.82176,154.91915l3.2394,7.09262l-17.92252,3.90512z" fill="none" stroke="#000000" stroke-width="4" stroke-linejoin="round"/><path d="M210.82176,154.91915l3.2394,7.09262l-17.92252,3.90512z" fill="#b3b3b3" stroke="none" stroke-width="1" stroke-linejoin="miter"/></g><g><path d="M227.74377,161.87526l-4.03262,6.67361l-13.3279,-12.60293z" fill="none" stroke="#000000" stroke-width="4" stroke-linejoin="round"/><path d="M227.74377,161.87526l-4.03262,6.67361l-13.3279,-12.60293z" fill="#b3b3b3" stroke="none" stroke-width="1" stroke-linejoin="miter"/></g></g><g><path d="M247.7427,148.55003h-15.59475l7.78742,-17.925z" fill="none" stroke="#000000" stroke-width="4" stroke-linejoin="round"/><path d="M247.7427,148.55003h-15.59475l7.78742,-17.925z" fill="#b3b3b3" stroke="none" stroke-width="1" stroke-linejoin="miter"/></g><path d="M248.67879,176.43336h-15.93333c-4.39987,0 -7.96667,-3.5668 -7.96667,-7.96667v-15.93333c0,-4.39987 3.5668,-7.96667 7.96667,-7.96667h15.93333c4.39987,0 7.96667,3.5668 7.96667,7.96667v15.93333c0,4.39987 -3.5668,7.96667 -7.96667,7.96667z" fill="#fbff00" stroke="#000000" stroke-width="2" stroke-linejoin="miter"/><g data-paper-data="{&quot;index&quot;:null}"><path d="M242.94533,165.49581v-9.99156h10.08823v9.99156z" fill="#ffffff" stroke="#ffffff" stroke-width="2" stroke-linejoin="round"/><path d="M246.98062,163.49751v-5.99494h6.05294v5.99494z" fill="#000000" stroke="none" stroke-width="1" stroke-linejoin="miter"/></g><g data-paper-data="{&quot;index&quot;:null}"><g fill="none" stroke="none" stroke-width="1" stroke-linejoin="miter" font-family="sans-serif" font-weight="normal" font-size="12" text-anchor="start"/><g fill="none" stroke="none" stroke-width="1" stroke-linejoin="miter" font-family="sans-serif" font-weight="normal" font-size="12" text-anchor="start"/><g fill="none" stroke="none" stroke-width="1" stroke-linejoin="miter" font-family="sans-serif" font-weight="normal" font-size="12" text-anchor="start"/><g fill="none" stroke="none" stroke-width="1" stroke-linejoin="miter" font-family="sans-serif" font-weight="normal" font-size="12" text-anchor="start"/><g><path d="M228.21801,165.49581v-9.99156h10.08823v9.99156z" fill="#ffffff" stroke="#ffffff" stroke-width="2" stroke-linejoin="round"/><path d="M232.2533,163.49751v-5.99494h6.05294v5.99494z" fill="#000000" stroke="none" stroke-width="1" stroke-linejoin="miter"/></g></g></g></g></svg>