<svg version="1.1" xmlns="http://www.w3.org/2000/svg" xmlns:xlink="http://www.w3.org/1999/xlink" width="61.71636" height="58.17058" viewBox="0,0,61.71636,58.17058"><g transform="translate(-209.79445,-122.24013)"><g data-paper-data="{&quot;isPaintingLayer&quot;:true}" fill-rule="nonzero" stroke-linecap="butt" stroke-miterlimit="10" stroke-dasharray="" stroke-dashoffset="0" style="mix-blend-mode: normal"><g stroke-width="2"><path d="M259.75404,161.32216l-34.24177,-29.00625l5.17335,-9.07577l36.43356,28.74781z" data-paper-data="{&quot;index&quot;:null}" fill="none" stroke="#000000" stroke-linejoin="round"/><path d="M259.75404,161.32216l-34.55489,-28.96933l5.48646,-9.1127l36.43356,28.74781z" data-paper-data="{&quot;index&quot;:null}" fill="#b53838" stroke="none" stroke-linejoin="miter"/><path d="M228.59523,133.5458l-2.28646,-1.4073l4.42294,-7.18603l2.28646,1.4073z" data-paper-data="{&quot;index&quot;:null}" fill="#c43939" stroke="none" stroke-linejoin="miter"/><path d="M233.51711,137.14541l-2.28646,-1.4073l4.42294,-7.18603l2.28646,1.4073z" data-paper-data="{&quot;index&quot;:null}" fill="#c43939" stroke="none" stroke-linejoin="miter"/><path d="M237.74212,140.66848l-2.28646,-1.40731l4.42294,-7.18603l2.28646,1.4073z" data-paper-data="{&quot;index&quot;:null}" fill="#c43939" stroke="none" stroke-linejoin="miter"/><path d="M242.2128,144.48003l-2.28646,-1.40731l4.42294,-7.18603l2.28647,1.40731z" data-paper-data="{&quot;index&quot;:null}" fill="#c43939" stroke="none" stroke-linejoin="miter"/><path d="M246.91683,148.47571l-2.28646,-1.4073l4.42294,-7.18603l2.28646,1.4073z" data-paper-data="{&quot;index&quot;:null}" fill="#c43939" stroke="none" stroke-linejoin="miter"/><path d="M251.75896,152.29638l-2.28646,-1.4073l4.42294,-7.18603l2.28646,1.4073z" data-paper-data="{&quot;index&quot;:null}" fill="#c43939" stroke="none" stroke-linejoin="miter"/><path d="M263.2227,164.38917h-46.40949l1.56057,-10.32947l44.84893,-1.56056z" fill="none" stroke="#000000" stroke-linejoin="round"/><path d="M263.2227,164.38917h-46.40949l1.33763,-10.5524l45.07187,-1.33763z" fill="#b53838" stroke="none" stroke-linejoin="miter"/><path d="M261.55359,154.75911l0.1568,-2.12587l3.46834,-0.4244l-0.1568,2.12588z" fill="#c43939" stroke="#000000" stroke-linejoin="miter"/><path d="M254.22771,159.13859l3.1447,-9.5266l2.58748,0.85412l-3.1447,9.5266z" fill="#c43939" stroke="none" stroke-linejoin="miter"/><path d="M262.71318,155.79814v-1.79589h1.30047v1.79589z" fill="#c43939" stroke="none" stroke-linejoin="miter"/><path d="M258.29942,160.93449l3.1447,-9.5266l2.58747,0.85412l-3.1447,9.5266z" fill="#c43939" stroke="none" stroke-linejoin="miter"/><path d="M261.49672,162.6632h-8.43809v-8.43809z" fill="#ffffff" stroke="none" stroke-linejoin="miter"/><path d="M259.78753,160.94442h-3.26017v-3.26017c0,0 1.20521,1.20521 1.76981,1.76981c0.51812,0.51812 1.49036,1.49036 1.49036,1.49036z" fill="#000000" stroke="none" stroke-linejoin="miter"/><path d="M220.57678,163.38497l-2.66671,-0.31153l0.97909,-8.3811l2.66671,0.31153z" fill="#c43939" stroke="none" stroke-linejoin="miter"/><path d="M226.67043,163.6079l-2.66671,-0.31153l0.97909,-8.38109l2.66671,0.31153z" fill="#c43939" stroke="none" stroke-linejoin="miter"/><path d="M232.16957,163.45928l-2.66671,-0.31153l0.97909,-8.3811l2.66671,0.31153z" fill="#c43939" stroke="none" stroke-linejoin="miter"/><path d="M238.04027,163.23634l-2.66671,-0.31153l0.97909,-8.38109l2.66671,0.31153z" fill="#c43939" stroke="none" stroke-linejoin="miter"/><path d="M244.20823,163.0134l-2.66672,-0.31153l0.97909,-8.3811l2.66671,0.31153z" fill="#c43939" stroke="none" stroke-linejoin="miter"/><path d="M250.37618,163.0134l-2.66671,-0.31153l0.97908,-8.3811l2.66672,0.31153z" fill="#c43939" stroke="none" stroke-linejoin="miter"/><path d="M252.84393,153.67118l5.22688,-6.62429l6.62429,5.22688z" data-paper-data="{&quot;index&quot;:null}" fill="#ffffff" stroke="none" stroke-linejoin="miter"/><path d="M260.19544,152.81116c-0.79298,0.0935 -2.48567,0.2931 -2.48567,0.2931l2.01947,-2.55938l2.55939,2.01948c0,0 -1.3655,0.161 -2.09319,0.24681z" data-paper-data="{&quot;index&quot;:null}" fill="#000000" stroke="none" stroke-linejoin="miter"/><path d="M249.09125,153.19678v-1.05276h3.40599v1.05276z" fill="#39b54a" stroke="#000000" stroke-linejoin="miter"/><path d="M250.30664,153.709l-0.29428,-1.0108l3.27022,-0.9521l0.29428,1.0108z" fill="#39b54a" stroke="#000000" stroke-linejoin="miter"/><path d="M252.89371,153.50886l-0.55258,-0.86313l1.35547,-1.61408l0.55259,0.86313z" fill="#39b54a" stroke="#000000" stroke-linejoin="miter"/><path d="M262.7875,155.97773v-0.39014h1.18901v0.39014z" fill="#c43939" stroke="none" stroke-linejoin="miter"/><path d="M263.42091,155.36565l0.58279,0.56964l-0.88354,0.98892l-0.61994,-0.58822z" fill="#c43939" stroke="none" stroke-linejoin="miter"/><g><path d="M263.97198,157.5068l3.56977,-4.75394l2.96906,5.94674z" fill="none" stroke="#000000" stroke-linejoin="round"/><path d="M263.97198,157.5068l3.56977,-4.75394l2.96906,5.94674z" fill="#b3b3b3" stroke="none" stroke-linejoin="miter"/></g><g><path d="M264.16273,164.09632l-0.24103,-5.94013l6.06064,2.72902z" fill="none" stroke="#000000" stroke-linejoin="round"/><path d="M264.16273,164.09632l-0.24103,-5.94013l6.06064,2.72902z" fill="#b3b3b3" stroke="none" stroke-linejoin="miter"/></g><g><path d="M217.09879,155.82992l-0.83708,5.88579l-5.46726,-3.77998z" fill="none" stroke="#000000" stroke-linejoin="round"/><path d="M217.09879,155.82992l-0.83708,5.88579l-5.46726,-3.77998z" fill="#b3b3b3" stroke="none" stroke-linejoin="miter"/></g><g data-paper-data="{&quot;index&quot;:null}"><path d="M228.94473,124.54707l-3.2181,4.99871l-3.38965,-5.71747z" fill="none" stroke="#000000" stroke-linejoin="round"/><path d="M228.94473,124.54707l-3.2181,4.99871l-3.38965,-5.71747z" fill="#b3b3b3" stroke="none" stroke-linejoin="miter"/></g></g><g stroke-width="2"><path d="M268.95334,179.41072h-55.62097v-14.25h55.62097z" fill="none" stroke="#000000" stroke-linejoin="round"/><path d="M268.95334,179.41072h-55.62097v-14.25h55.62097z" fill="#b53838" stroke="none" stroke-linejoin="miter"/></g><path d="M266.88479,177.34217h-10.1129v-10.1129h10.1129z" fill="#ffffff" stroke="none" stroke-width="1" stroke-linejoin="miter"/><path d="M266.88479,174.12443h-3.90726v-3.90726h3.90726z" fill="#000000" stroke="none" stroke-width="1" stroke-linejoin="miter"/><path d="M253.09447,177.34217h-3.21774v-10.1129h3.21774z" fill="#c43939" stroke="none" stroke-width="1" stroke-linejoin="miter"/><path d="M246.19931,177.34217h-3.21774v-10.1129h3.21774z" fill="#c43939" stroke="none" stroke-width="1" stroke-linejoin="miter"/><path d="M239.30414,177.34217h-3.21774v-10.1129h3.21774z" fill="#c43939" stroke="none" stroke-width="1" stroke-linejoin="miter"/><path d="M232.40898,177.34217h-3.21774v-10.1129h3.21774z" fill="#c43939" stroke="none" stroke-width="1" stroke-linejoin="miter"/><path d="M225.51382,177.34217h-3.21774v-10.1129h3.21774z" fill="#c43939" stroke="none" stroke-width="1" stroke-linejoin="miter"/><path d="M218.61866,177.34217h-3.21774v-10.1129h3.21774z" fill="#c43939" stroke="none" stroke-width="1" stroke-linejoin="miter"/></g></g></svg>