<svg version="1.1" xmlns="http://www.w3.org/2000/svg" xmlns:xlink="http://www.w3.org/1999/xlink" width="20.68051" height="18.14736" viewBox="0,0,20.68051,18.14736"><defs><linearGradient x1="308.39318" y1="180" x2="318.86686" y2="180" gradientUnits="userSpaceOnUse" id="color-1"><stop offset="0" stop-color="#00ffff" stop-opacity="0.03137"/><stop offset="1" stop-color="#00ffff"/></linearGradient><radialGradient cx="320" cy="180" r="9.07368" gradientUnits="userSpaceOnUse" id="color-2"><stop offset="0" stop-color="#00ffff"/><stop offset="1" stop-color="#00ffff" stop-opacity="0"/></radialGradient></defs><g transform="translate(-308.39317,-170.92631)"><g data-paper-data="{&quot;isPaintingLayer&quot;:true}" fill-rule="nonzero" stroke="#000000" stroke-width="0" stroke-linecap="butt" stroke-linejoin="miter" stroke-miterlimit="10" stroke-dasharray="" stroke-dashoffset="0" style="mix-blend-mode: normal"><path d="M308.39318,183.92106v-7.84211l11.1579,-0.63158l-0.31579,8.89474z" fill="url(#color-1)"/><path d="M315.4,180c0,-2.54051 2.05949,-4.6 4.6,-4.6c2.54051,0 4.6,2.05949 4.6,4.6c0,2.54051 -2.05949,4.6 -4.6,4.6c-2.54051,0 -4.6,-2.05949 -4.6,-4.6z" fill="#00dada"/><path d="M310.92632,180c0,-5.01126 4.06243,-9.07368 9.07368,-9.07368c5.01126,0 9.07368,4.06243 9.07368,9.07368c0,5.01126 -4.06243,9.07368 -9.07368,9.07368c-5.01126,0 -9.07368,-4.06243 -9.07368,-9.07368z" fill="url(#color-2)"/></g></g></svg>