<svg version="1.1" xmlns="http://www.w3.org/2000/svg" xmlns:xlink="http://www.w3.org/1999/xlink" width="62.33334" height="62.18293" viewBox="0,0,62.33334,62.18293"><g transform="translate(-208.66667,-148.8171)"><g data-paper-data="{&quot;isPaintingLayer&quot;:true}" fill-rule="nonzero" stroke="none" stroke-linecap="butt" stroke-miterlimit="10" stroke-dasharray="" stroke-dashoffset="0" style="mix-blend-mode: normal"><path d="M209.00001,211.00003l0,-62h62l0,62z" fill="#39b54a" stroke-width="0" stroke-linejoin="round"/><path d="M218.00001,202.00003l0,-44h44v44z" fill="#3ac54d" stroke-width="1" stroke-linejoin="miter"/><g stroke-width="0" stroke-linejoin="round"><path d="M209.00001,180.9199l0,-31.91988l32.04762,-0.0325l-12.91978,5.03704l4.66412,9.47668l-8.05659,-0.14918l-4.84518,12.16317l-4.38202,-4.51004z" fill="#00ffff"/><path d="M209.00001,174.43473l0,-25.43471l24.80953,0.10138l-9.68169,4.40704l2.2742,5.57844l-6.51185,11.0253l-4.38202,-3.59373z" fill="#a3ffff"/><path d="M208.66667,169.19141v-20.19139l20.04761,0.19139l-10.09341,4.15044l5.78117,4.39077l-4.84518,8.02733l-4.38202,-2.85289z" fill="#ffffff"/></g><g stroke-width="0" stroke-linejoin="round"><path d="M238.89721,149.15045h31.91988l0.0325,32.04762l-5.03704,-12.91978l-9.47668,4.66412l0.14918,-8.05659l-12.16317,-4.84518l4.51004,-4.38202z" fill="#00ffff"/><path d="M245.38239,149.15045h25.43471l-0.10138,24.80953l-4.40704,-9.68169l-5.57844,2.2742l-11.0253,-6.51185l3.59373,-4.38202z" fill="#a3ffff"/><path d="M250.62571,148.81711l20.19139,0l-0.19139,20.04761l-4.15044,-10.09341l-4.39077,5.78117l-8.02733,-4.84518l2.85289,-4.38202z" fill="#ffffff"/></g></g></g></svg>