<svg version="1.1" xmlns="http://www.w3.org/2000/svg" xmlns:xlink="http://www.w3.org/1999/xlink" width="64.95627" height="128.46677" viewBox="0,0,64.95627,128.46677"><g transform="translate(-215.35077,-55.20374)"><g data-paper-data="{&quot;isPaintingLayer&quot;:true}" fill-rule="nonzero" stroke-linecap="butt" stroke-miterlimit="10" stroke-dasharray="" stroke-dashoffset="0" style="mix-blend-mode: normal"><path d="M250.74677,92.5696v-20.46885h14.62061v20.46885z" fill="#ff0000" stroke="#000000" stroke-width="2" stroke-linejoin="miter"/><path d="M246.8122,67.44858c0,-6.21036 5.03448,-11.24484 11.24484,-11.24484c6.21036,0 11.24484,5.03448 11.24484,11.24484c0,6.21036 -5.03448,11.24484 -11.24484,11.24484c-6.21036,0 -11.24484,-5.03448 -11.24484,-11.24484z" fill="#ff0000" stroke="#000000" stroke-width="2" stroke-linejoin="miter"/><g data-paper-data="{&quot;index&quot;:null}"><g><path d="M271.06832,119.6104l-9.95121,4.50379l-2.31135,-5.10694l-6.96583,3.15265l1.84909,4.08557l-1.99023,0.90076l-1.84909,-4.08556l-2.98537,1.35114l2.31134,5.10695l-3.98047,1.80151l-3.23588,-7.14973l15.9219,-7.20607l-2.31134,-5.10694l9.95121,-4.50379zM260.40433,114.59196l1.84908,4.08556l3.98048,-1.80151l-1.84908,-4.08556z" fill="none" stroke="#000000" stroke-width="4" stroke-linejoin="round"/><path d="M271.06832,119.6104l-9.95121,4.50379l-2.31135,-5.10694l-6.96583,3.15265l1.84909,4.08557l-1.99023,0.90076l-1.84909,-4.08556l-2.98537,1.35114l2.31134,5.10695l-3.98047,1.80151l-3.23588,-7.14973l15.9219,-7.20607l-2.31134,-5.10694l9.95121,-4.50379zM260.40433,114.59196l1.84908,4.08556l3.98048,-1.80151l-1.84908,-4.08556z" fill="#fa3c3c" stroke="none" stroke-width="1" stroke-linejoin="miter"/></g><g><path d="M251.84403,130.0528l-7.88689,7.55693l-3.87823,-4.04753l-5.52081,5.28987l3.10259,3.23804l-1.57737,1.51139l-3.10259,-3.23804l-2.36606,2.2671l3.87822,4.04754l-3.15474,3.02279l-5.42952,-5.66656l12.619,-12.09112l-3.87822,-4.04754l7.88687,-7.55695zM240.11804,128.8666l3.10259,3.23804l3.15475,-3.02278l-3.10259,-3.23803z" fill="none" stroke="#000000" stroke-width="4" stroke-linejoin="round"/><path d="M251.84403,130.0528l-7.88689,7.55693l-3.87823,-4.04753l-5.52081,5.28987l3.10259,3.23804l-1.57737,1.51139l-3.10259,-3.23804l-2.36606,2.2671l3.87822,4.04754l-3.15474,3.02279l-5.42952,-5.66656l12.619,-12.09112l-3.87822,-4.04754l7.88687,-7.55695zM240.11804,128.8666l3.10259,3.23804l3.15475,-3.02278l-3.10259,-3.23803z" fill="#fa3c3c" stroke="none" stroke-width="1" stroke-linejoin="miter"/></g><g><path d="M235.32709,146.12262l-4.11832,10.11682l-5.19193,-2.11351l-2.88282,7.08177l4.15356,1.69082l-0.82366,2.02337l-4.15356,-1.69081l-1.23549,3.03505l5.19193,2.11351l-1.64731,4.04673l-7.26872,-2.95891l6.58929,-16.1869l-5.19192,-2.11351l4.11832,-10.11681zM224.13716,149.82278l4.15356,1.69082l1.64732,-4.04673l-4.15356,-1.69081z" fill="none" stroke="#000000" stroke-width="4" stroke-linejoin="round"/><path d="M235.32709,146.12262l-4.11832,10.11682l-5.19193,-2.11351l-2.88282,7.08177l4.15356,1.69082l-0.82366,2.02337l-4.15356,-1.69081l-1.23549,3.03505l5.19193,2.11351l-1.64731,4.04673l-7.26872,-2.95891l6.58929,-16.1869l-5.19192,-2.11351l4.11832,-10.11681zM224.13716,149.82278l4.15356,1.69082l1.64732,-4.04673l-4.15356,-1.69081z" fill="#fa3c3c" stroke="none" stroke-width="1" stroke-linejoin="miter"/></g></g><path d="M243.30704,109.5696v-14h18v14z" fill="#000000" stroke="none" stroke-width="1" stroke-linejoin="miter"/><path d="M279.30704,109.5696v14h-42v-14h32v-3c0,-1.10457 0.89543,-2 2,-2h3c1.10457,0 2,0.89543 2,2v3z" fill="#b4004c" stroke="#000000" stroke-width="2" stroke-linejoin="miter"/><g><g stroke="none" stroke-linejoin="miter"><path d="M279.05704,109.5696h-42v-22c0,-3.31371 2.68629,-6 6,-6h30c3.31371,0 6,2.68629 6,6z" fill="#9500ff" stroke-width="1"/><path d="M280.05704,110.5696h-44v-23c0,-3.86599 3.13401,-7 7,-7h30c3.86599,0 7,3.13401 7,7zM238.05704,108.5696h40v-21c0,-2.76143 -2.23858,-5 -5,-5h-30c-2.76143,0 -5,2.23857 -5,5z" fill="#000000" stroke-width="1"/><path d="M238.01062,87.55103c0,-2.76143 2.24721,-5.01418 5.00864,-5.01418h30.07557c2.76142,0 5.00864,2.25275 5.00864,5.01418l-0.0045,21.04582h-40.08384z" data-paper-data="{&quot;noHover&quot;:false,&quot;origItem&quot;:[&quot;Path&quot;,{&quot;applyMatrix&quot;:true,&quot;segments&quot;:[[219.75,164],[259.75,164],[[259.75,143],[0,0],[0,-2.76143]],[[254.75,138],[2.76142,0],[0,0]],[[224.75,138],[0,0],[-2.76143,0]],[[219.75,143],[0,-2.76143],[0,0]]],&quot;closed&quot;:true,&quot;fillColor&quot;:[0,0,0,1]}]}" fill="#b4004c" stroke-width="0.5"/></g><path d="M271.05704,101.5696h-10v-10l10,2z" fill="#ffffff" stroke="#ffffff" stroke-width="2" stroke-linejoin="round"/><path d="M265.05704,100.5696v-6h6v6z" fill="#000000" stroke="none" stroke-width="1" stroke-linejoin="miter"/></g><g data-paper-data="{&quot;index&quot;:null}"><g><path d="M253.0283,111.33785l-6.24077,8.96455l-4.60059,-3.20275l-4.36853,6.27519l3.6805,2.5622l-1.24815,1.79291l-3.6805,-2.5622l-1.87224,2.68937l4.6006,3.20276l-2.4963,3.58581l-6.44085,-4.48386l9.98522,-14.34329l-4.60059,-3.20275l6.24077,-8.96455zM241.2988,112.48865l3.6805,2.56221l2.49631,-3.58581l-3.6805,-2.56221z" fill="none" stroke="#000000" stroke-width="4" stroke-linejoin="round"/><path d="M253.0283,111.33785l-6.24077,8.96455l-4.60059,-3.20275l-4.36853,6.27519l3.6805,2.5622l-1.24815,1.79291l-3.6805,-2.5622l-1.87224,2.68937l4.6006,3.20276l-2.4963,3.58581l-6.44085,-4.48386l9.98522,-14.34329l-4.60059,-3.20275l6.24077,-8.96455zM241.2988,112.48865l3.6805,2.56221l2.49631,-3.58581l-3.6805,-2.56221z" fill="#fa3c3c" stroke="none" stroke-width="1" stroke-linejoin="miter"/></g><g><path d="M241.86399,130.15207l-2.90413,10.52978l-5.40388,-1.49039l-2.03288,7.37085l4.32312,1.19231l-0.58082,2.10595l-4.32312,-1.19231l-0.87123,3.15895l5.40388,1.4904l-1.16163,4.21192l-7.56544,-2.08655l4.64658,-16.84767l-5.40388,-1.4904l2.90412,-10.52978zM231.18489,135.13832l4.32312,1.19231l1.16164,-4.21192l-4.32311,-1.1923z" fill="none" stroke="#000000" stroke-width="4" stroke-linejoin="round"/><path d="M241.86399,130.15207l-2.90413,10.52978l-5.40388,-1.49039l-2.03288,7.37085l4.32312,1.19231l-0.58082,2.10595l-4.32312,-1.19231l-0.87123,3.15895l5.40388,1.4904l-1.16163,4.21192l-7.56544,-2.08655l4.64658,-16.84767l-5.40388,-1.4904l2.90412,-10.52978zM231.18489,135.13832l4.32312,1.19231l1.16164,-4.21192l-4.32311,-1.1923z" fill="#fa3c3c" stroke="none" stroke-width="1" stroke-linejoin="miter"/></g><g><path d="M235.90698,152.4133l1.6437,10.79855l-5.54181,0.84355l1.1506,7.55898l4.43345,-0.67484l0.32874,2.15971l-4.43345,0.67484l0.49312,3.23958l5.54181,-0.84355l0.6575,4.31941l-7.75853,1.18098l-2.62995,-17.27767l-5.5418,0.84354l-1.6437,-10.79854zM228.19068,161.32199l4.43345,-0.67484l-0.65749,-4.31941l-4.43345,0.67485z" fill="none" stroke="#000000" stroke-width="4" stroke-linejoin="round"/><path d="M235.90698,152.4133l1.6437,10.79855l-5.54181,0.84355l1.1506,7.55898l4.43345,-0.67484l0.32874,2.15971l-4.43345,0.67484l0.49312,3.23958l5.54181,-0.84355l0.6575,4.31941l-7.75853,1.18098l-2.62995,-17.27767l-5.5418,0.84354l-1.6437,-10.79854zM228.19068,161.32199l4.43345,-0.67484l-0.65749,-4.31941l-4.43345,0.67485z" fill="#fa3c3c" stroke="none" stroke-width="1" stroke-linejoin="miter"/></g></g></g></g></svg>