<svg version="1.1" xmlns="http://www.w3.org/2000/svg" xmlns:xlink="http://www.w3.org/1999/xlink" width="61.71635" height="43.14903" viewBox="0,0,61.71635,43.14903"><g transform="translate(-207.6516,-151.95442)"><g data-paper-data="{&quot;isPaintingLayer&quot;:true}" fill-rule="nonzero" stroke-width="2" stroke-linecap="butt" stroke-miterlimit="10" stroke-dasharray="" stroke-dashoffset="0" style="mix-blend-mode: normal"><path d="M257.61118,191.03644l-34.24177,-29.00625l5.17335,-9.07577l36.43356,28.74781z" data-paper-data="{&quot;index&quot;:null}" fill="none" stroke="#000000" stroke-linejoin="round"/><path d="M257.61118,191.03644l-34.55489,-28.96933l5.48646,-9.1127l36.43356,28.74781z" data-paper-data="{&quot;index&quot;:null}" fill="#39b54a" stroke="none" stroke-linejoin="miter"/><path d="M226.45239,163.26008l-2.28646,-1.4073l4.42294,-7.18603l2.28646,1.4073z" data-paper-data="{&quot;index&quot;:null}" fill="#3ac54d" stroke="none" stroke-linejoin="miter"/><path d="M231.37426,166.85969l-2.28646,-1.4073l4.42294,-7.18603l2.28646,1.4073z" data-paper-data="{&quot;index&quot;:null}" fill="#3ac54d" stroke="none" stroke-linejoin="miter"/><path d="M235.59927,170.38276l-2.28646,-1.40731l4.42294,-7.18603l2.28646,1.4073z" data-paper-data="{&quot;index&quot;:null}" fill="#3ac54d" stroke="none" stroke-linejoin="miter"/><path d="M240.06996,174.19431l-2.28646,-1.40731l4.42294,-7.18603l2.28647,1.40731z" data-paper-data="{&quot;index&quot;:null}" fill="#3ac54d" stroke="none" stroke-linejoin="miter"/><path d="M244.77399,178.18999l-2.28646,-1.4073l4.42294,-7.18603l2.28646,1.4073z" data-paper-data="{&quot;index&quot;:null}" fill="#3ac54d" stroke="none" stroke-linejoin="miter"/><path d="M249.61611,182.01066l-2.28646,-1.4073l4.42294,-7.18603l2.28646,1.4073z" data-paper-data="{&quot;index&quot;:null}" fill="#3ac54d" stroke="none" stroke-linejoin="miter"/><path d="M261.07984,194.10345h-46.40949l1.56057,-10.32947l44.84893,-1.56056z" fill="none" stroke="#000000" stroke-linejoin="round"/><path d="M261.07984,194.10345h-46.40949l1.33763,-10.5524l45.07187,-1.33763z" fill="#39b54a" stroke="none" stroke-linejoin="miter"/><path d="M259.41074,184.47339l0.1568,-2.12587l3.46834,-0.4244l-0.1568,2.12588z" fill="#39b54a" stroke="#000000" stroke-linejoin="miter"/><path d="M252.08486,188.85287l3.1447,-9.5266l2.58748,0.85412l-3.1447,9.5266z" fill="#3ac54d" stroke="none" stroke-linejoin="miter"/><path d="M260.57034,185.51242v-1.79589h1.30047v1.79589z" fill="#39b54a" stroke="none" stroke-linejoin="miter"/><path d="M256.15657,190.64877l3.1447,-9.5266l2.58747,0.85412l-3.1447,9.5266z" fill="#3ac54d" stroke="none" stroke-linejoin="miter"/><path d="M259.35387,192.37748h-8.43809v-8.43809z" fill="#ffffff" stroke="none" stroke-linejoin="miter"/><path d="M257.64468,190.6587h-3.26017v-3.26017c0,0 1.20521,1.20521 1.76981,1.76981c0.51812,0.51812 1.49036,1.49036 1.49036,1.49036z" fill="#000000" stroke="none" stroke-linejoin="miter"/><path d="M218.43394,193.09925l-2.66671,-0.31153l0.97909,-8.3811l2.66671,0.31153z" fill="#3ac54d" stroke="none" stroke-linejoin="miter"/><path d="M224.52759,193.32218l-2.66671,-0.31153l0.97909,-8.38109l2.66671,0.31153z" fill="#3ac54d" stroke="none" stroke-linejoin="miter"/><path d="M230.02673,193.17356l-2.66671,-0.31153l0.97909,-8.3811l2.66671,0.31153z" fill="#3ac54d" stroke="none" stroke-linejoin="miter"/><path d="M235.89743,192.95062l-2.66671,-0.31153l0.97909,-8.38109l2.66671,0.31153z" fill="#3ac54d" stroke="none" stroke-linejoin="miter"/><path d="M242.06539,192.72768l-2.66672,-0.31153l0.97909,-8.3811l2.66671,0.31153z" fill="#3ac54d" stroke="none" stroke-linejoin="miter"/><path d="M248.23334,192.72768l-2.66671,-0.31153l0.97908,-8.3811l2.66672,0.31153z" fill="#3ac54d" stroke="none" stroke-linejoin="miter"/><path d="M250.70108,183.38546l5.22688,-6.62429l6.62429,5.22688z" data-paper-data="{&quot;index&quot;:null}" fill="#ffffff" stroke="none" stroke-linejoin="miter"/><path d="M258.0526,182.52544c-0.79298,0.0935 -2.48567,0.2931 -2.48567,0.2931l2.01947,-2.55938l2.55939,2.01948c0,0 -1.3655,0.161 -2.09319,0.24681z" data-paper-data="{&quot;index&quot;:null}" fill="#000000" stroke="none" stroke-linejoin="miter"/><path d="M246.9484,182.91106v-1.05276h3.40599v1.05276z" fill="#39b54a" stroke="#000000" stroke-linejoin="miter"/><path d="M248.1638,183.42329l-0.29428,-1.0108l3.27022,-0.9521l0.29428,1.0108z" fill="#39b54a" stroke="#000000" stroke-linejoin="miter"/><path d="M250.75086,183.22315l-0.55258,-0.86313l1.35547,-1.61408l0.55259,0.86313z" fill="#39b54a" stroke="#000000" stroke-linejoin="miter"/><path d="M260.64466,185.69201v-0.39014h1.18901v0.39014z" fill="#39b54a" stroke="none" stroke-linejoin="miter"/><path d="M261.27806,185.07993l0.58279,0.56964l-0.88354,0.98892l-0.61994,-0.58822z" fill="#39b54a" stroke="none" stroke-linejoin="miter"/><g><path d="M261.82912,187.22108l3.56977,-4.75394l2.96906,5.94674z" fill="none" stroke="#000000" stroke-linejoin="round"/><path d="M261.82912,187.22108l3.56977,-4.75394l2.96906,5.94674z" fill="#b3b3b3" stroke="none" stroke-linejoin="miter"/></g><g><path d="M262.01989,193.8106l-0.24103,-5.94013l6.06064,2.72902z" fill="none" stroke="#000000" stroke-linejoin="round"/><path d="M262.01989,193.8106l-0.24103,-5.94013l6.06064,2.72902z" fill="#b3b3b3" stroke="none" stroke-linejoin="miter"/></g><g><path d="M214.95595,185.5442l-0.83708,5.88579l-5.46726,-3.77998z" fill="none" stroke="#000000" stroke-linejoin="round"/><path d="M214.95595,185.5442l-0.83708,5.88579l-5.46726,-3.77998z" fill="#b3b3b3" stroke="none" stroke-linejoin="miter"/></g><g data-paper-data="{&quot;index&quot;:null}"><path d="M226.80189,154.26135l-3.2181,4.99871l-3.38965,-5.71747z" fill="none" stroke="#000000" stroke-linejoin="round"/><path d="M226.80189,154.26135l-3.2181,4.99871l-3.38965,-5.71747z" fill="#b3b3b3" stroke="none" stroke-linejoin="miter"/></g></g></g></svg>