<svg version="1.1" xmlns="http://www.w3.org/2000/svg" xmlns:xlink="http://www.w3.org/1999/xlink" width="66" height="304.83324" viewBox="0,0,66,304.83324"><g transform="translate(-207,-27.58341)"><g data-paper-data="{&quot;isPaintingLayer&quot;:true}" fill-rule="nonzero" stroke-linecap="butt" stroke-miterlimit="10" stroke-dasharray="" stroke-dashoffset="0" style="mix-blend-mode: normal"><g fill="#000000" stroke="none" stroke-linejoin="miter"><path d="M226.23256,153.00007v-125.41666h27.53488v125.41667z" stroke-width="NaN"/><path d="M221.5,141.50005l0,-13h37l0,13z" stroke-width="0"/><path d="M221.5,121.50005l0,-13h37v13z" stroke-width="0"/><path d="M221.5,96.50009l0,-13h37v13z" stroke-width="0"/><path d="M221.5,76.50009l0,-13l37,0l0,13z" stroke-width="0"/><path d="M221.5,51.50008l0,-13l37,0l0,13z" stroke-width="0"/></g><g fill="#000000" stroke="none" stroke-linejoin="miter"><path d="M253.76744,207l0,125.41666l-27.53488,0l0,-125.41667z" stroke-width="NaN"/><path d="M258.5,218.50005l0,13l-37,0l0,-13z" stroke-width="0"/><path d="M258.5,238.49998l0,13l-37,0v-13z" stroke-width="0"/><path d="M258.5,263.49998v13l-37,0l0,-13z" stroke-width="0"/><path d="M258.5,283.50005l0,13l-37,0l0,-13z" stroke-width="0"/><path d="M258.5,308.49999l0,13l-37,0l0,-13z" stroke-width="0"/></g><g><path d="M271,148.99999l0,62l-62,0v-62z" fill="none" stroke="#000000" stroke-width="4" stroke-linejoin="round"/><path d="M271,148.99999l0,62l-62,0v-62z" fill="#a700ff" stroke="none" stroke-width="1" stroke-linejoin="miter"/></g><path d="M262,157.99999v44l-44,0l0,-44z" fill="#be44ff" stroke="none" stroke-width="1" stroke-linejoin="miter"/><g><path d="M225.91,146.99999l-16,0l8,-16z" fill="none" stroke="#000000" stroke-width="4" stroke-linejoin="round"/><path d="M225.91,146.99999l-16,0l8,-16z" fill="#b3b3b3" stroke="none" stroke-width="1" stroke-linejoin="miter"/></g><g><path d="M269.91,147h-16l8,-16z" fill="none" stroke="#000000" stroke-width="4" stroke-linejoin="round"/><path d="M269.91,147h-16l8,-16z" fill="#b3b3b3" stroke="none" stroke-width="1" stroke-linejoin="miter"/></g><g><path d="M247.91,146.99999l-16,0l8,-16z" fill="none" stroke="#000000" stroke-width="4" stroke-linejoin="round"/><path d="M247.91,146.99999l-16,0l8,-16z" fill="#b3b3b3" stroke="none" stroke-width="1" stroke-linejoin="miter"/></g><g><g fill="none" stroke="none" stroke-width="1" stroke-linejoin="miter" font-family="sans-serif" font-weight="normal" font-size="12" text-anchor="start"/><path d="M262,202.00007l-44,0l0,-17.88055l22,7l22,-7z" fill="#ffffff" stroke="none" stroke-width="1" stroke-linejoin="miter"/><path d="M224,202.00008l0,-9h9v9z" fill="#000000" stroke="none" stroke-width="1" stroke-linejoin="miter"/><path d="M247,202.00007l0,-9l9,0l0,9z" fill="#000000" stroke="none" stroke-width="1" stroke-linejoin="miter"/><g><path d="M254.09,213.00007h16l-8,16z" fill="none" stroke="#000000" stroke-width="4" stroke-linejoin="round"/><path d="M254.09,213.00007h16l-8,16z" fill="#b3b3b3" stroke="none" stroke-width="1" stroke-linejoin="miter"/></g><g><path d="M210.09,213.00007h16l-8,16z" fill="none" stroke="#000000" stroke-width="4" stroke-linejoin="round"/><path d="M210.09,213.00007h16l-8,16z" fill="#b3b3b3" stroke="none" stroke-width="1" stroke-linejoin="miter"/></g><g><path d="M232.09,213.00007l16,0l-8,16z" fill="none" stroke="#000000" stroke-width="4" stroke-linejoin="round"/><path d="M232.09,213.00007l16,0l-8,16z" fill="#b3b3b3" stroke="none" stroke-width="1" stroke-linejoin="miter"/></g></g><path d="M219,159.00004l42,0l0,1l-21,-1l-21,1z" fill="#ffffff" stroke="#000000" stroke-width="2" stroke-linejoin="round"/></g></g></svg>