<svg version="1.1" xmlns="http://www.w3.org/2000/svg" xmlns:xlink="http://www.w3.org/1999/xlink" width="59.91358" height="60.74524" viewBox="0,0,59.91358,60.74524"><g transform="translate(-203.50308,-118.72192)"><g data-paper-data="{&quot;isPaintingLayer&quot;:true}" fill-rule="nonzero" stroke-linecap="butt" stroke-linejoin="miter" stroke-miterlimit="10" stroke-dasharray="" stroke-dashoffset="0" style="mix-blend-mode: normal"><path d="M262.41667,157.55048c0,11.55196 -10.14821,20.91667 -22.66667,20.91667c-12.51845,0 -22.66667,-9.36471 -22.66667,-20.91667c0,-11.55196 10.14821,-20.91667 22.66667,-20.91667c12.51845,0 22.66667,9.36471 22.66667,20.91667z" fill="#bd0000" stroke="#000000" stroke-width="2"/><path d="M262.41667,157.55048c0,11.55196 -45.33334,11.55196 -45.33334,0c0,-11.55196 10.14821,-20.91667 22.66667,-20.91667c12.51845,0 22.66667,9.36471 22.66667,20.91667z" fill="#ff0000" stroke="#000000" stroke-width="2"/><path d="M225.46798,150.28338c-0.31623,-0.94868 0.63246,-1.26491 0.63246,-1.26491l0.10912,0.07491c1.59545,-1.56868 2.60104,-3.29069 4.41981,-4.74367c4.76927,-3.81008 10.83451,-4.60536 16.74466,-3.87484c0,0 0.99228,0.12403 0.86824,1.11631c-0.12403,0.99228 -1.11631,0.86824 -1.11631,0.86824c-5.36974,-0.67944 -10.92012,-0.01482 -15.25534,3.4585c-1.77238,1.42001 -2.69847,3.02024 -4.24685,4.58967l-0.89088,0.40824c0,0 -0.94868,0.31623 -1.26491,-0.63246z" fill="#ff4949" stroke="none" stroke-width="0.5"/><path d="M220.41893,156.62021c-0.98639,-0.1644 -0.82199,-1.15079 -0.82199,-1.15079l0.16667,-1c1.31459,-7.59085 7.2413,-10.25029 12.69503,-14.61647c0,0 0.78087,-0.6247 1.40556,0.15617c0.6247,0.78087 -0.15617,1.40556 -0.15617,1.40556c-4.95425,3.96065 -10.87135,6.43861 -11.97163,13.38353l-0.16667,1c0,0 -0.1644,0.98639 -1.15079,0.82199z" fill="#ff4949" stroke="none" stroke-width="0.5"/><path d="M222.6953,161.7992c-0.83205,-0.5547 -0.27735,-1.38675 -0.27735,-1.38675l0.27096,-0.39251c3.0319,-6.0638 7.84035,-9.84239 13.53109,-13.40078c0,0 0.848,-0.53 1.378,0.318c0.53,0.848 -0.318,1.378 -0.318,1.378c-5.37905,3.36026 -9.93845,6.87164 -12.80224,12.59922l-0.39571,0.60749c0,0 -0.5547,0.83205 -1.38675,0.27735z" fill="#ff4949" stroke="none" stroke-width="0.5"/><path d="M236.86535,174.78338c-0.31623,0.94868 -1.26491,0.63246 -1.26491,0.63246l-0.92482,-0.3115c-5.34829,-0.89138 -11.7047,-5.38014 -14.60695,-9.94051c0,0 -0.53,-0.848 0.318,-1.378c0.848,-0.53 1.378,0.318 1.378,0.318c2.54175,4.15981 8.58843,8.25872 13.39305,9.05949l1.07518,0.35516c0,0 0.94868,0.31623 0.63246,1.26491z" fill="#de1d1d" stroke="none" stroke-width="0.5"/><path d="M247.14443,169.51994c0.44721,0.89443 -0.44721,1.34164 -0.44721,1.34164l-0.78055,0.27224c-2.1913,0 -4.39362,0.33253 -6.58248,0.16326c-4.01539,-0.31053 -8.02635,-1.67258 -12.04155,-2.17098c0,0 -0.99228,-0.12403 -0.86824,-1.11631c0.12403,-0.99228 1.11631,-0.86824 1.11631,-0.86824c3.98254,0.50105 7.97712,1.858 11.95845,2.16235c2.1311,0.16291 4.28235,-0.17007 6.41752,-0.17007l-0.11388,-0.06109c0,0 0.89443,-0.44721 1.34164,0.44721z" fill="#de1d1d" stroke="none" stroke-width="0.5"/><path d="M252.08333,170.80048c1,0 1,1 1,1l-0.05132,0.64956c-1.52515,3.6898 -7.64702,3.51711 -11.11535,3.51711c0,0 -1,0 -1,-1c0,-1 1,-1 1,-1c1.85646,0 8.86395,0.20066 9.21798,-2.14956l-0.05132,-0.01711c0,0 0,-1 1,-1z" fill="#de1d1d" stroke="none" stroke-width="0.5"/><path d="M248.37623,142.59338c0.70711,-0.70711 1.41421,0 1.41421,0l0.25092,0.25957c2.63998,2.13082 5.40419,4.19064 8.01549,6.34598c0,0 0.76822,0.64018 0.12804,1.40841c-0.64018,0.76822 -1.40841,0.12804 -1.40841,0.12804c-2.55009,-2.14948 -5.3622,-4.24526 -7.98451,-6.32069l-0.41575,-0.4071c0,0 -0.70711,-0.70711 0,-1.41421z" fill="#ff4949" stroke="none" stroke-width="0.5"/><path d="M241.60275,146.60437c0.19612,-0.98058 1.1767,-0.78446 1.1767,-0.78446l0.95344,0.19856c5.5355,1.84657 10.01803,3.91026 13.94303,8.46456c0,0 0.65079,0.75926 -0.10847,1.41005c-0.75926,0.65079 -1.41005,-0.10847 -1.41005,-0.10847c-3.6696,-4.30764 -7.8659,-6.13968 -13.05697,-7.86877l-0.71322,-0.13477c0,0 -0.98058,-0.19612 -0.78446,-1.1767z" fill="#ff4949" stroke="none" stroke-width="0.5"/><path d="M205.33658,137.93209l10.58116,2.06856l0.92909,-10.40157l8.49637,4.61149l3.07735,-13.57592l11.02859,17.20088l-22.58397,14.79745z" fill="#fff700" stroke-opacity="0.5" stroke="#000000" stroke-width="1.5"/></g></g></svg>