<svg version="1.1" xmlns="http://www.w3.org/2000/svg" xmlns:xlink="http://www.w3.org/1999/xlink" width="204.80253" height="86.77377" viewBox="0,0,204.80253,86.77377"><g transform="translate(-119.59873,-154.19968)"><g data-paper-data="{&quot;isPaintingLayer&quot;:true}" fill-rule="nonzero" stroke-linecap="butt" stroke-miterlimit="10" stroke-dasharray="" stroke-dashoffset="0" style="mix-blend-mode: normal"><g data-paper-data="{&quot;index&quot;:null}"><path d="M225.40333,178.87408l53.4585,-22.67439l-15.59808,14.73679z" fill="none" stroke="#000000" stroke-width="4" stroke-linejoin="round"/><path d="M225.40333,178.87408l53.4585,-22.67439l-15.59808,14.73679z" fill="#dcb1ff" stroke="none" stroke-width="1" stroke-linejoin="miter"/></g><g data-paper-data="{&quot;index&quot;:null}"><path d="M174.60605,173.74902l-31.0602,-6.81504l82.19081,9.32958z" fill="none" stroke="#000000" stroke-width="4" stroke-linejoin="round"/><path d="M174.60605,173.74902l-31.0602,-6.81504l82.19081,9.32958z" fill="#dcb1ff" stroke="none" stroke-width="1" stroke-linejoin="miter"/></g><g data-paper-data="{&quot;index&quot;:null}"><path d="M196.30526,172.60069l-11.71667,-13.3229l40.81475,17.93209z" fill="none" stroke="#000000" stroke-width="4" stroke-linejoin="round"/><path d="M196.30526,172.60069l-11.71667,-13.3229l40.81475,17.93209z" fill="#dcb1ff" stroke="none" stroke-width="1" stroke-linejoin="miter"/></g><g data-paper-data="{&quot;index&quot;:null}"><path d="M147.96997,219.31247l-15.44995,-5.50742l14.63943,-31.25694z" fill="none" stroke="#000000" stroke-width="4" stroke-linejoin="round"/><path d="M147.96997,219.31247l-15.44995,-5.50742l14.63943,-31.25694z" fill="#dcb1ff" stroke="none" stroke-width="1" stroke-linejoin="miter"/></g><g data-paper-data="{&quot;index&quot;:null}"><path d="M184.96997,218.31247l-15.44995,-5.50742l14.63943,-31.25694z" fill="none" stroke="#000000" stroke-width="4" stroke-linejoin="round"/><path d="M184.96997,218.31247l-15.44995,-5.50742l14.63943,-31.25694z" fill="#dcb1ff" stroke="none" stroke-width="1" stroke-linejoin="miter"/></g><g data-paper-data="{&quot;index&quot;:null}"><path d="M284.43277,177.98385l26.90406,34.41684l-13.14062,11.47603z" fill="none" stroke="#000000" stroke-width="4" stroke-linejoin="round"/><path d="M284.09943,178.31718l27.23739,34.08351l-13.14062,11.47603z" fill="#dcb1ff" stroke="none" stroke-width="1" stroke-linejoin="miter"/></g><path d="M120.59874,233.00656v-13.2996c0,-3.67258 2.97721,-6.6498 6.6498,-6.6498h13.2996c3.67258,0 6.6498,2.97722 6.6498,6.6498v13.2996c0,3.67258 -2.97721,6.6498 -6.6498,6.6498h-13.2996c-3.67259,0 -6.6498,-2.97722 -6.6498,-6.6498z" data-paper-data="{&quot;index&quot;:null}" fill="#a400b5" stroke="#000000" stroke-width="2" stroke-linejoin="miter"/><path d="M138.94539,180.33989v-13.29959c0,-3.67259 2.97721,-6.64981 6.6498,-6.64981h13.2996c3.67258,0 6.6498,2.97722 6.6498,6.64981v13.29959c0,3.67258 -2.97721,6.6498 -6.6498,6.6498h-13.2996c-3.67259,0 -6.6498,-2.97721 -6.6498,-6.6498z" data-paper-data="{&quot;index&quot;:null}" fill="#a400b5" stroke="#000000" stroke-width="2" stroke-linejoin="miter"/><path d="M159.61207,233.32366v-13.2996c0,-3.67258 2.97721,-6.6498 6.6498,-6.6498h13.2996c3.67258,0 6.6498,2.97721 6.6498,6.6498v13.2996c0,3.67258 -2.97721,6.6498 -6.6498,6.6498h-13.2996c-3.67258,0 -6.6498,-2.97721 -6.6498,-6.6498z" data-paper-data="{&quot;index&quot;:null}" fill="#a400b5" stroke="#000000" stroke-width="2" stroke-linejoin="miter"/><path d="M169.9454,175.31989v-13.29959c0,-3.67259 2.97721,-6.64981 6.6498,-6.64981h13.2996c3.67258,0 6.6498,2.97723 6.6498,6.64981v13.29959c0,3.67258 -2.97721,6.6498 -6.6498,6.6498h-13.2996c-3.67259,0 -6.6498,-2.97722 -6.6498,-6.6498z" data-paper-data="{&quot;index&quot;:null}" fill="#a400b5" stroke="#000000" stroke-width="2" stroke-linejoin="miter"/><path d="M262.27873,175.31989v-13.29959c0,-3.67258 2.97722,-6.6498 6.6498,-6.6498h13.2996c3.67258,0 6.6498,2.97722 6.6498,6.6498v13.29959c0,3.67258 -2.97722,6.6498 -6.6498,6.6498h-13.2996c-3.67258,0 -6.6498,-2.97721 -6.6498,-6.6498z" data-paper-data="{&quot;index&quot;:null}" fill="#a400b5" stroke="#000000" stroke-width="2" stroke-linejoin="miter"/><path d="M296.80207,233.32366v-13.2996c0,-3.67258 2.97722,-6.6498 6.6498,-6.6498h13.2996c3.67258,0 6.6498,2.97722 6.6498,6.6498v13.2996c0,3.67258 -2.97722,6.6498 -6.6498,6.6498h-13.2996c-3.67258,0 -6.6498,-2.97722 -6.6498,-6.6498z" data-paper-data="{&quot;index&quot;:null}" fill="#a400b5" stroke="#000000" stroke-width="2" stroke-linejoin="miter"/></g></g></svg>