<svg version="1.1" xmlns="http://www.w3.org/2000/svg" xmlns:xlink="http://www.w3.org/1999/xlink" width="38.12635" height="21.20125" viewBox="0,0,38.12635,21.20125"><g transform="translate(-217.62365,-158.75333)"><g data-paper-data="{&quot;isPaintingLayer&quot;:true}" fill-rule="nonzero" stroke-linecap="butt" stroke-miterlimit="10" stroke-dasharray="" stroke-dashoffset="0" style="mix-blend-mode: normal"><g><path d="M229.2336,166.36733l-3.4255,3.40471l-6.18444,-3.65547z" fill="none" stroke="#000000" stroke-width="4" stroke-linejoin="round"/><path d="M229.2336,166.36733l-3.4255,3.40471l-6.18444,-3.65547z" fill="#b3b3b3" stroke="none" stroke-width="1" stroke-linejoin="miter"/></g><g><path d="M239.42636,165.12885h-7.67408l3.83704,-4.37552z" fill="none" stroke="#000000" stroke-width="4" stroke-linejoin="round"/><path d="M239.42636,165.12885h-7.67408l3.83704,-4.37552z" fill="#b3b3b3" stroke="none" stroke-width="1" stroke-linejoin="miter"/></g><g><path d="M250.93748,165.12885h-7.67408l3.83704,-4.37552z" fill="none" stroke="#000000" stroke-width="4" stroke-linejoin="round"/><path d="M250.93748,165.12885h-7.67408l3.83704,-4.37552z" fill="#b3b3b3" stroke="none" stroke-width="1" stroke-linejoin="miter"/></g><path d="M233.68088,164.94762h12.64147c4.65447,0 8.42765,2.68597 8.42765,5.99927v7.99903h-29.49678v-7.99903c0,-3.3133 3.77318,-5.99927 8.42765,-5.99927z" fill="#ff7800" stroke="#000000" stroke-width="2" stroke-linejoin="miter"/><path d="M240.8795,171.6357v-3.73288h7.02304v3.73288z" fill="#ffffff" stroke="#ffffff" stroke-width="2" stroke-linejoin="round"/><path d="M243.51315,170.88912v-2.23973h4.21382v2.23973z" fill="#000000" stroke="none" stroke-width="1" stroke-linejoin="miter"/><path d="M225.24205,178.95458v-4.82163h29.49678v4.82163z" fill="#ff0000" stroke="#000000" stroke-width="2" stroke-linejoin="miter"/></g></g></svg>