<svg version="1.1" xmlns="http://www.w3.org/2000/svg" xmlns:xlink="http://www.w3.org/1999/xlink" width="62" height="62" viewBox="0,0,62,62"><g transform="translate(-209,-149.00003)"><g data-paper-data="{&quot;isPaintingLayer&quot;:true}" fill-rule="nonzero" stroke="none" stroke-linecap="butt" stroke-miterlimit="10" stroke-dasharray="" stroke-dashoffset="0" style="mix-blend-mode: normal"><path d="M209,211.00004v-62h62v62z" fill="#39b54a" stroke-width="0" stroke-linejoin="round"/><path d="M218,202.00004v-44h44v44z" fill="#3ac54d" stroke-width="1" stroke-linejoin="miter"/><path d="M270.99999,149.00004v27.1684c0,0 -2.31273,-2.3449 -5.45017,-2.11876c-3.87948,0.27963 -3.81927,8.71807 -9.96869,9.5057c-1.31633,0.16859 -3.10384,-10.37305 -4.56927,-10.35932c-2.47339,0.02318 -6.06108,2.78142 -8.7227,3.1958c-1.88674,0.29374 -6.05459,-4.01661 -7.87582,-3.74846c-1.76208,0.25944 -3.80346,5.04411 -5.61137,4.5714c-1.80091,-0.47089 -3.36943,-6.19994 -4.57937,-5.54009c-3.21769,1.75482 -4.24252,7.65238 -6.04514,7.65238c-1.68929,0 -3.72374,-2.66864 -5.23459,-3.24364c-2.41778,-0.92016 -3.94287,0.08499 -3.94287,0.08499v-27.1684z" fill="#6200c5" stroke-width="0" stroke-linejoin="round"/><path d="M209,169.69674v-20.6967h62v20.6967c0,0 -3.65359,-2.56946 -8.51529,-1.52383c-1.7735,0.38144 -3.62479,5.06099 -5.63587,5.10549c-2.3841,0.05275 -3.82498,-2.97607 -6.51063,-2.97772c-0.54021,-0.00034 -1.94375,-1.91196 -2.48662,-1.90592c-0.70097,0.00779 -1.2125,3.55008 -1.9152,3.54295c-1.12519,-0.01141 -3.29407,2.04561 -4.39007,1.95291c-1.42138,-0.12022 -2.24144,-6.18065 -3.58664,-6.31229c-1.02538,-0.10034 -2.49819,3.50868 -3.45107,3.35821c-1.08156,-0.17078 -0.5877,-4.46653 -1.56794,-4.65599c-2.32817,-0.45 -4.05397,1.83294 -5.57465,1.07147c-0.78388,-0.39252 -1.64178,-2.09799 -2.48327,-2.078c-1.47035,0.03492 -2.40608,5.71491 -3.74603,5.74481c-0.95929,0.0214 -1.1169,-2.72664 -1.99777,-2.69196c-4.90839,0.19328 -6.20501,3.95422 -7.85307,3.95422c-1.7971,0 -2.28587,-2.58435 -2.28587,-2.58435z" fill="#6f00de" stroke-width="0" stroke-linejoin="round"/><path d="M209,163.45535v-14.45531h62v14.45531c0,0 -1.92377,-5.70759 -3.62419,-4.78583c-1.32342,0.7174 -4.20432,4.49663 -8.28417,5.03068c-1.80633,0.23645 -2.90812,-6.04103 -5.1095,-7.81556c-1.19188,-0.96077 -3.5411,6.25355 -4.98693,6.29603c-2.10804,0.06193 -3.37325,-6.71695 -5.25622,-6.69156c-1.12318,0.01514 -2.48079,6.1653 -3.77979,7.42389c-1.20932,1.1717 -2.32707,-3.71486 -3.493,-4.00752c-0.98932,-0.24833 -2.04013,4.151 -2.92942,4.28642c-1.44103,0.21944 -4.86704,-5.92274 -6.24655,-5.78494c-2.48124,0.24786 -5.41923,7.4705 -7.44915,7.98648c-1.23088,0.31288 -2.35514,-2.50234 -3.37369,-2.46581c-1.20365,0.04317 -2.73826,2.39321 -3.64821,2.44861c-2.88125,0.17539 -3.81918,-1.92089 -3.81918,-1.92089z" fill="#8000ff" stroke-width="0" stroke-linejoin="round"/></g></g></svg>