<svg version="1.1" xmlns="http://www.w3.org/2000/svg" xmlns:xlink="http://www.w3.org/1999/xlink" width="62" height="57.61533" viewBox="0,0,62,57.61533"><g transform="translate(-209,-154.89999)"><g data-paper-data="{&quot;isPaintingLayer&quot;:true}" fill-rule="nonzero" stroke-linecap="butt" stroke-linejoin="miter" stroke-miterlimit="10" stroke-dasharray="" stroke-dashoffset="0" style="mix-blend-mode: normal"><path d="M259,189.51533l12,13l-23,-9l-6,19l-7,-18l-26,7l14,-12l-11,-6h54z" data-paper-data="{&quot;index&quot;:null}" fill="#ffc31b" stroke="#d09f17" stroke-width="0"/><path d="M266,183.9h-54l11,-6l-14,-12l26,7l7,-18l6,19l23,-9l-12,13z" fill="#ffc31b" stroke="#d09f17" stroke-width="0"/><path d="M230.41128,178.99511l-7.16129,-7.91894l13.72581,5.48234l3.58065,-11.57383l4.17742,10.96468l15.51613,-4.26404l-8.35484,7.30979l6.56452,3.65489h-32.22581z" fill="#fff768" stroke="none" stroke-width="1"/><path d="M226.23387,182.60001h32.22581l-6.56452,3.65489l8.35484,7.30979l-15.51613,-4.26404l-4.17742,10.96468l-3.58065,-11.57383l-13.72581,5.48234l7.16129,-7.91894z" data-paper-data="{&quot;index&quot;:null}" fill="#fff768" stroke="none" stroke-width="1"/></g></g></svg>