<svg version="1.1" xmlns="http://www.w3.org/2000/svg" xmlns:xlink="http://www.w3.org/1999/xlink" width="42.44185" height="44.63812" viewBox="0,0,42.44185,44.63812"><g transform="translate(-221.55815,-160)"><g data-paper-data="{&quot;isPaintingLayer&quot;:true}" fill-rule="nonzero" stroke-linecap="butt" stroke-linejoin="miter" stroke-miterlimit="10" stroke-dasharray="" stroke-dashoffset="0" style="mix-blend-mode: normal"><path d="M244,182v-22h12v22z" fill="#000000" stroke="none" stroke-width="1"/><g stroke="none"><path d="M253.62791,190.5814h-31.25581v-16.37209c0,-2.46601 1.9991,-4.46512 4.46511,-4.46512h22.32558c2.46601,0 4.46511,1.9991 4.46511,4.46512z" fill="#9500ff" stroke-width="1"/><path d="M254.3721,191.32558h-32.74419v-17.11628c0,-2.87701 2.33229,-5.2093 5.20931,-5.2093h22.32558c2.87702,0 5.20931,2.33229 5.20931,5.2093zM223.11628,189.83721h29.76744v-15.62791c0,-2.05502 -1.66592,-3.72093 -3.72093,-3.72093h-22.32558c-2.05502,0 -3.72093,1.66591 -3.72093,3.72093z" fill="#000000" stroke-width="1"/><path d="M223.08174,174.19549c0,-2.05502 1.67234,-3.73148 3.72736,-3.73148h22.38182c2.05501,0 3.72736,1.67646 3.72736,3.73148l-0.00335,15.66201h-29.82984z" data-paper-data="{&quot;noHover&quot;:false,&quot;origItem&quot;:[&quot;Path&quot;,{&quot;applyMatrix&quot;:true,&quot;segments&quot;:[[219.75,164],[259.75,164],[[259.75,143],[0,0],[0,-2.76143]],[[254.75,138],[2.76142,0],[0,0]],[[224.75,138],[0,0],[-2.76143,0]],[[219.75,143],[0,-2.76143],[0,0]]],&quot;closed&quot;:true,&quot;fillColor&quot;:[0,0,0,1]}]}" fill="#ff7800" stroke-width="0.5"/></g><g><path d="M252,180h6c2.20914,0 4,1.79086 4,4v4h-10z" fill="none" stroke="#000000" stroke-width="4"/><path d="M252,180h6c2.20914,0 4,1.79086 4,4v4h-10z" fill="#ff8b00" stroke="none" stroke-width="1"/></g><g stroke="none"><path d="" fill="#000000" stroke-width="1"/><path d="M223.08173,174.19753c0,-2.05502 1.67234,-3.73148 3.72736,-3.73148h22.38182c2.05501,0 3.72736,1.67646 3.72736,3.73148l-0.00335,15.662h-29.82984z" data-paper-data="{&quot;noHover&quot;:false,&quot;origItem&quot;:[&quot;Path&quot;,{&quot;applyMatrix&quot;:true,&quot;segments&quot;:[[219.75,164],[259.75,164],[[259.75,143],[0,0],[0,-2.76143]],[[254.75,138],[2.76142,0],[0,0]],[[224.75,138],[0,0],[-2.76143,0]],[[219.75,143],[0,-2.76143],[0,0]]],&quot;closed&quot;:true,&quot;fillColor&quot;:[0,0,0,1]}]}" fill="#ff7800" stroke-width="0.5"/></g><path d="M253.81396,187.97675c0,0 0,4.68162 0,6.59581c0,1.38286 -1.53161,3.8228 -3.88841,3.8228c-6.77482,0 -20.36832,0 -24,0c-1.77092,0 -3.3674,-2.95506 -3.3674,-4.5728c0,-1.82911 0,-5.84581 0,-5.84581z" fill="#ff0000" stroke="#000000" stroke-width="2"/><g><path d="M248,180v-16h6v16z" fill="none" stroke="#ff7800" stroke-width="4"/><path d="M248,180v-16h6v16z" fill="#ffffff" stroke="none" stroke-width="1"/></g><path d="M250,176v-4h4v4z" fill="#000000" stroke="none" stroke-width="1"/><path d="M250,180h7.23c2.63,0 4.77,1.78 4.77,4v4h-12z" fill="#ff8b00" stroke="none" stroke-width="1"/><path d="M237.00955,182.72383l1.30315,0.53319c0.95507,0.38575 1.71755,1.13543 2.11942,2.08383c0.40187,0.9484 0.41014,2.01766 0.02299,2.97216l-4.22726,10.32455l-1.17561,2.8727c-0.38015,0.95799 -1.12763,1.72417 -2.07594,2.12786c-0.94831,0.40369 -2.01868,0.41137 -2.97268,0.02133l-1.30315,-0.53319c-1.98759,-0.80069 -2.94979,-3.06101 -2.14918,-5.04862l5.38021,-13.23169c0.38729,-0.95864 1.14207,-1.72245 2.09604,-2.1211c0.95397,-0.39866 2.02779,-0.39902 2.98202,-0.00099z" fill="#ff7800" stroke="#000000" stroke-width="2"/></g></g></svg>