<svg version="1.1" xmlns="http://www.w3.org/2000/svg" xmlns:xlink="http://www.w3.org/1999/xlink" width="342.96688" height="111.68" viewBox="0,0,342.96688,111.68"><g transform="translate(-68.82,-118.26)"><g data-paper-data="{&quot;isPaintingLayer&quot;:true}" fill-rule="nonzero" stroke-linecap="butt" stroke-linejoin="miter" stroke-miterlimit="10" stroke-dasharray="" stroke-dashoffset="0" style="mix-blend-mode: normal"><path d="M159,120.26h15.85l15.36,40.28h-17.88l-1.39,-5.29h-9.24l-1.56,5.29h-16.47zM168.23,145.13l-1.75,-8.13h-0.11l-1.78,8.18z" fill="none" stroke="#ffffff" stroke-width="4"/><path d="M193,120.26h15.24c9.68,0 20.53,2.78 20.53,14.3c0,10.34 -8.68,14.52 -18.64,14.52h-0.55v11.46h-16.58zM210,138.84c2.84,0 4.17,-1.5 4.17,-3.39c0,-1.89 -1.39,-3.4 -4.17,-3.4h-0.44v6.79z" fill="none" stroke="#ffffff" stroke-width="4"/><path d="M232.37,120.26h15.24c9.68,0 20.53,2.78 20.53,14.3c0,10.34 -8.68,14.52 -18.64,14.52h-0.56v11.46h-16.57zM249.37,138.84c2.84,0 4.17,-1.5 4.17,-3.39c0,-1.89 -1.39,-3.4 -4.17,-3.4h-0.45v6.79z" fill="none" stroke="#ffffff" stroke-width="4"/><path d="M271.7,120.26h29v13.46h-12.42v2.17h10v9.57h-10v2.28h13.19v12.8h-29.77z" fill="none" stroke="#ffffff" stroke-width="4"/><path d="M305.59,120.26h16.58v26h12.46v14.3h-29z" fill="none" stroke="#ffffff" stroke-width="4"/><path d="M94.29,186.42c4.56,0 9.29,1 11.85,2.33v14.86c-3.09367,-1.60693 -6.51474,-2.48273 -10,-2.56c-5.68,0 -8.74,2.72 -8.74,6.45c0,3.73 3.06,6.4 8.74,6.4c3.57837,-0.03007 7.09337,-0.94747 10.23,-2.67v14.19c-2.61,1.39 -7.45,2.5 -12.24,2.5c-13.46,0 -23.31,-8.79 -23.31,-20.75c0,-11.96 9.79,-20.75 23.47,-20.75z" fill="none" stroke="#ffffff" stroke-width="4"/><path d="M132,186.42c12.63,0 22.48,9.06 22.48,20.75c0,11.69 -9.85,20.75 -22.48,20.75c-12.63,0 -22.48,-9.07 -22.48,-20.75c0,-11.68 9.81,-20.75 22.48,-20.75zM132,213.68c2.52566,0.00404 4.80469,-1.51479 5.77309,-3.84743c0.96839,-2.33264 0.43517,-5.019 -1.35075,-6.80491c-1.78591,-1.78591 -4.47227,-2.31914 -6.80491,-1.35074c-2.33263,0.96839 -3.85148,3.24742 -3.84743,5.77308c-0.00266,1.65312 0.65286,3.23928 1.82179,4.40821c1.16893,1.16893 2.75509,1.82445 4.40821,1.82179z" fill="none" stroke="#ffffff" stroke-width="4"/><path d="M158.45,187h15.46l8,10.12l7.75,-10.12h15v40.28h-16.56v-19.61h-0.1l-7.18,9.46l-7.34,-9.46h-0.11v19.64h-14.92z" fill="none" stroke="#ffffff" stroke-width="4"/><path d="M209.58,187h15.24c9.68,0 20.53,2.78 20.53,14.3c0,10.34 -8.68,14.52 -18.63,14.52h-0.56v11.46h-16.58zM226.58,205.58c2.84,0 4.18,-1.5 4.18,-3.39c0,-1.89 -1.39,-3.4 -4.18,-3.4h-0.44v6.79z" fill="none" stroke="#ffffff" stroke-width="4"/><path d="M248.92,187h16.58v26h12.5v14.3h-29z" fill="none" stroke="#ffffff" stroke-width="4"/><path d="M282.3,187h29v13.46h-12.42v2.17h10v9.57h-10v2.28h13.19v12.8h-29.77z" fill="none" stroke="#ffffff" stroke-width="4"/><path d="M326.87,200.71h-11.24v-13.71h39.06v13.68h-11.24v26.6h-16.58z" fill="none" stroke="#ffffff" stroke-width="4"/><path d="M359,187h29v13.46h-12.4v2.17h10v9.57h-10v2.28h13.18v12.8h-29.78z" fill="none" stroke="#ffffff" stroke-width="4"/><path d="M391.58,187h17.91l-3.61,26c-3.53472,-0.59998 -7.14528,-0.59998 -10.68,0zM400.58,213.93c4.28,0 7.79,3.11 7.79,6.95c0,3.84 -3.51,7.06 -7.79,7.06c-4.28,0 -7.79,-3.17 -7.79,-7.06c0,-3.89 3.46,-6.88 7.75,-6.88z" fill="none" stroke="#ffffff" stroke-width="4"/><path d="M159,120.26h15.85l15.36,40.28h-17.88l-1.39,-5.29h-9.24l-1.56,5.29h-16.47zM168.23,145.13l-1.75,-8.13h-0.11l-1.78,8.18z" fill="#000000" stroke="none" stroke-width="1"/><path d="M193,120.26h15.24c9.68,0 20.53,2.78 20.53,14.3c0,10.34 -8.68,14.52 -18.64,14.52h-0.55v11.46h-16.58zM210,138.84c2.84,0 4.17,-1.5 4.17,-3.39c0,-1.89 -1.39,-3.4 -4.17,-3.4h-0.44v6.79z" fill="#000000" stroke="none" stroke-width="1"/><path d="M232.37,120.26h15.24c9.68,0 20.53,2.78 20.53,14.3c0,10.34 -8.68,14.52 -18.64,14.52h-0.56v11.46h-16.57zM249.37,138.84c2.84,0 4.17,-1.5 4.17,-3.39c0,-1.89 -1.39,-3.4 -4.17,-3.4h-0.45v6.79z" fill="#000000" stroke="none" stroke-width="1"/><path d="M271.7,120.26h29v13.46h-12.42v2.17h10v9.57h-10v2.28h13.19v12.8h-29.77z" fill="#000000" stroke="none" stroke-width="1"/><path d="M305.59,120.26h16.58v26h12.46v14.3h-29z" fill="#000000" stroke="none" stroke-width="1"/><path d="M94.29,186.42c4.56,0 9.29,1 11.85,2.33v14.86c-3.09367,-1.60693 -6.51474,-2.48273 -10,-2.56c-5.68,0 -8.74,2.72 -8.74,6.45c0,3.73 3.06,6.4 8.74,6.4c3.57837,-0.03007 7.09337,-0.94747 10.23,-2.67v14.19c-2.61,1.39 -7.45,2.5 -12.24,2.5c-13.46,0 -23.31,-8.79 -23.31,-20.75c0,-11.96 9.79,-20.75 23.47,-20.75z" fill="#000000" stroke="none" stroke-width="1"/><path d="M132,186.42c12.63,0 22.48,9.06 22.48,20.75c0,11.69 -9.85,20.75 -22.48,20.75c-12.63,0 -22.48,-9.07 -22.48,-20.75c0,-11.68 9.81,-20.75 22.48,-20.75zM132,213.68c2.52566,0.00404 4.80469,-1.51479 5.77309,-3.84743c0.96839,-2.33264 0.43517,-5.019 -1.35075,-6.80491c-1.78591,-1.78591 -4.47227,-2.31914 -6.80491,-1.35074c-2.33263,0.96839 -3.85148,3.24742 -3.84743,5.77308c-0.00266,1.65312 0.65286,3.23928 1.82179,4.40821c1.16893,1.16893 2.75509,1.82445 4.40821,1.82179z" fill="#000000" stroke="none" stroke-width="1"/><path d="M158.45,187h15.46l8,10.12l7.75,-10.12h15v40.28h-16.56v-19.61h-0.1l-7.18,9.46l-7.34,-9.46h-0.11v19.64h-14.92z" fill="#000000" stroke="none" stroke-width="1"/><path d="M209.58,187h15.24c9.68,0 20.53,2.78 20.53,14.3c0,10.34 -8.68,14.52 -18.63,14.52h-0.56v11.46h-16.58zM226.58,205.58c2.84,0 4.18,-1.5 4.18,-3.39c0,-1.89 -1.39,-3.4 -4.18,-3.4h-0.44v6.79z" fill="#000000" stroke="none" stroke-width="1"/><path d="M248.92,187h16.58v26h12.5v14.3h-29z" fill="#000000" stroke="none" stroke-width="1"/><path d="M282.3,187h29v13.46h-12.42v2.17h10v9.57h-10v2.28h13.19v12.8h-29.77z" fill="#000000" stroke="none" stroke-width="1"/><path d="M326.87,200.71h-11.24v-13.71h39.06v13.68h-11.24v26.6h-16.58z" fill="#000000" stroke="none" stroke-width="1"/><path d="M359,187h29v13.46h-12.4v2.17h10v9.57h-10v2.28h13.18v12.8h-29.78z" fill="#000000" stroke="none" stroke-width="1"/><path d="M391.58,187h17.91l-3.61,26c-3.53472,-0.59998 -7.14528,-0.59998 -10.68,0zM400.58,213.93c4.28,0 7.79,3.11 7.79,6.95c0,3.84 -3.51,7.06 -7.79,7.06c-4.28,0 -7.79,-3.17 -7.79,-7.06c0,-3.89 3.46,-6.88 7.75,-6.88z" fill="#000000" stroke="none" stroke-width="1"/></g></g></svg>