<svg version="1.1" xmlns="http://www.w3.org/2000/svg" xmlns:xlink="http://www.w3.org/1999/xlink" width="126.61998" height="117.61608" viewBox="0,0,126.61998,117.61608"><g transform="translate(-176.85402,-119.42278)"><g data-paper-data="{&quot;isPaintingLayer&quot;:true}" fill-rule="nonzero" stroke-miterlimit="10" stroke-dasharray="" stroke-dashoffset="0" style="mix-blend-mode: normal"><path d="M286.75507,154.0882l-0.79211,-29.70397l13.06975,13.06975l2.37632,27.72371l-13.06975,15.05001l-51.88294,-7.12895l-45.54609,4.75264l-11.88159,-16.63422l6.7329,-25.34739l18.61449,-11.88159l-7.92106,32.47634l44.35793,3.56448z" fill="none" stroke="#000000" stroke-width="4" stroke-linecap="round" stroke-linejoin="miter"/><path d="M286.75507,154.0882l-0.7921,-29.70397l13.06975,13.06975l2.37632,27.7237l-13.06975,15.05002l-51.88293,-7.12896l-45.54609,4.75263l-11.88159,-16.63422l6.7329,-25.34739l18.61449,-11.88159l-7.92105,32.47634l44.35793,3.56448z" fill="#9bb39b" stroke="#000000" stroke-width="0" stroke-linecap="round" stroke-linejoin="miter"/><g stroke-linecap="butt"><path d="M253.89662,219.03887h16l-8,16z" fill="none" stroke="#000000" stroke-width="4" stroke-linejoin="round"/><path d="M253.89662,219.03887h16l-8,16z" fill="#9bb39b" stroke="none" stroke-width="1" stroke-linejoin="miter"/></g><g stroke-linecap="butt"><path d="M209.89662,219.03887h16l-8,16z" fill="none" stroke="#000000" stroke-width="4" stroke-linejoin="round"/><path d="M209.89662,219.03887h16l-8,16z" fill="#9bb39b" stroke="none" stroke-width="1" stroke-linejoin="miter"/></g><g stroke-linecap="butt"><path d="M231.89662,219.03887h16l-8,16z" fill="none" stroke="#000000" stroke-width="4" stroke-linejoin="round"/><path d="M231.89662,219.03887h16l-8,16z" fill="#9bb39b" stroke="none" stroke-width="1" stroke-linejoin="miter"/></g><g stroke-linecap="butt"><path d="M206.54766,200.10339v16l-16,-8z" fill="none" stroke="#000000" stroke-width="4" stroke-linejoin="round"/><path d="M206.54766,200.10339v16l-16,-8z" fill="#9bb39b" stroke="none" stroke-width="1" stroke-linejoin="miter"/></g><g stroke-linecap="butt"><path d="M206.54766,178.10339v16l-16,-8z" fill="none" stroke="#000000" stroke-width="4" stroke-linejoin="round"/><path d="M206.54766,178.10339v16l-16,-8z" fill="#9bb39b" stroke="none" stroke-width="1" stroke-linejoin="miter"/></g><g data-paper-data="{&quot;index&quot;:null}" stroke-linecap="butt"><path d="M289.45235,208.31013l-16,8v-16z" fill="none" stroke="#000000" stroke-width="4" stroke-linejoin="round"/><path d="M289.45235,208.31013l-16,8v-16z" fill="#9bb39b" stroke="none" stroke-width="1" stroke-linejoin="miter"/></g><g data-paper-data="{&quot;index&quot;:null}" stroke-linecap="butt"><path d="M289.45235,186.31013l-16,8v-16z" fill="none" stroke="#000000" stroke-width="4" stroke-linejoin="round"/><path d="M289.45235,186.31013l-16,8v-16z" fill="#9bb39b" stroke="none" stroke-width="1" stroke-linejoin="miter"/></g><g stroke-linecap="butt"><path d="M226.10337,152.96114h-16l8,-16z" fill="none" stroke="#000000" stroke-width="4" stroke-linejoin="round"/><path d="M226.10337,152.96114h-16l8,-16z" fill="#9bb39b" stroke="none" stroke-width="1" stroke-linejoin="miter"/></g><g stroke-linecap="butt"><path d="M270.10337,152.96114h-16l8,-16z" fill="none" stroke="#000000" stroke-width="4" stroke-linejoin="round"/><path d="M270.10337,152.96114h-16l8,-16z" fill="#9bb39b" stroke="none" stroke-width="1" stroke-linejoin="miter"/></g><g stroke-linecap="butt"><path d="M248.10337,152.96114h-16l8,-16z" fill="none" stroke="#000000" stroke-width="4" stroke-linejoin="round"/><path d="M248.10337,152.96114h-16l8,-16z" fill="#9bb39b" stroke="none" stroke-width="1" stroke-linejoin="miter"/></g><g stroke-linecap="butt"><path d="M209.00001,217.00001v-62h62v62z" fill="none" stroke="#000000" stroke-width="4" stroke-linejoin="round"/><path d="M209.00001,217.00001v-62h62v62z" fill="#03d100" stroke="none" stroke-width="1" stroke-linejoin="miter"/></g><path d="M218.00001,208.00001v-44h44v44z" fill="#04ff00" stroke="none" stroke-width="1" stroke-linecap="butt" stroke-linejoin="miter"/><path d="M262.00001,208.00001h-44v-3.67477l22,1.78044l22,-1.78044z" fill="#000000" stroke="none" stroke-width="1" stroke-linecap="butt" stroke-linejoin="miter"/></g></g></svg>