<svg version="1.1" xmlns="http://www.w3.org/2000/svg" xmlns:xlink="http://www.w3.org/1999/xlink" width="61.65099" height="23.65424" viewBox="0,0,61.65099,23.65424"><g transform="translate(-194.08784,-156.29808)"><g data-paper-data="{&quot;isPaintingLayer&quot;:true}" fill-rule="nonzero" stroke-linecap="butt" stroke-miterlimit="10" stroke-dasharray="" stroke-dashoffset="0" style="mix-blend-mode: normal"><g><path d="M227.1738,166.48988l-3.51352,5.12008l-6.34336,-5.49718z" fill="none" stroke="#000000" stroke-width="4" stroke-linejoin="round"/><path d="M227.1738,166.48988l-3.51352,5.12008l-6.34336,-5.49718z" fill="#b3b3b3" stroke="none" stroke-width="1" stroke-linejoin="miter"/></g><g><path d="M237.62847,164.87808h-7.87127l3.93564,-6.58z" fill="none" stroke="#000000" stroke-width="4" stroke-linejoin="round"/><path d="M237.62847,164.87808h-7.87127l3.93564,-6.58z" fill="#b3b3b3" stroke="none" stroke-width="1" stroke-linejoin="miter"/></g><g><path d="M249.43537,164.87808h-7.87127l3.93564,-6.58z" fill="none" stroke="#000000" stroke-width="4" stroke-linejoin="round"/><path d="M249.43537,164.87808h-7.87127l3.93564,-6.58z" fill="#b3b3b3" stroke="none" stroke-width="1" stroke-linejoin="miter"/></g><path d="M195.09728,178.94867c-0.62303,0.16863 29.82077,-5.57195 29.82077,-5.57195h29.82078v5.44237c0,0 -59.22437,0.01666 -59.64155,0.12958z" fill="#ffff00" stroke="#000000" stroke-width="2" stroke-linejoin="miter"/><path d="M233.43828,164.95402h12.78034c4.70559,0 8.52022,1.641 8.52022,3.66527v4.88702h-29.82078v-4.88702c0,-2.02427 3.81463,-3.66527 8.52022,-3.66527z" fill="#b7b700" stroke="#000000" stroke-width="2" stroke-linejoin="miter"/><path d="M242.66852,171.17386v-3.88741h7.10019v3.88741z" fill="#ffffff" stroke="#ffffff" stroke-width="2" stroke-linejoin="round"/><path d="M245.5086,170.39638v-2.33245h4.26011v2.33245z" fill="#000000" stroke="none" stroke-width="1" stroke-linejoin="miter"/></g></g></svg>