<svg version="1.1" xmlns="http://www.w3.org/2000/svg" xmlns:xlink="http://www.w3.org/1999/xlink" width="91.94" height="62.25" viewBox="0,0,91.94,62.25"><g transform="translate(-194.03,-148.875)"><g data-paper-data="{&quot;isPaintingLayer&quot;:true}" fill-rule="nonzero" stroke-linecap="butt" stroke-miterlimit="10" stroke-dasharray="" stroke-dashoffset="0" style="mix-blend-mode: normal"><g><path d="M207.03,184.97v9.56l-11,-4.78z" fill="none" stroke="#000000" stroke-width="4" stroke-linejoin="round"/><path d="M207.03,184.97v9.56l-11,-4.78z" fill="#b3b3b3" stroke="none" stroke-width="1" stroke-linejoin="miter"/></g><g><path d="M207.03,165.595v9.56l-11,-4.78z" fill="none" stroke="#000000" stroke-width="4" stroke-linejoin="round"/><path d="M207.03,165.595v9.56l-11,-4.78z" fill="#b3b3b3" stroke="none" stroke-width="1" stroke-linejoin="miter"/></g><path d="M209,196v-32h62v32z" fill="#39b54a" stroke="#000000" stroke-width="4" stroke-linejoin="round"/><path d="M209,196v-32h62v32z" fill="#3967c4" stroke="none" stroke-width="0" stroke-linejoin="round"/><path d="M218,187v-14h44v14z" fill="#4f7bd2" stroke="none" stroke-width="1" stroke-linejoin="miter"/><g><path d="M225.185,161.875h-9.56l4.78,-11z" fill="none" stroke="#000000" stroke-width="4" stroke-linejoin="round"/><path d="M225.185,161.875h-9.56l4.78,-11z" fill="#b3b3b3" stroke="none" stroke-width="1" stroke-linejoin="miter"/></g><g><path d="M244.56,161.875h-9.56l4.78,-11z" fill="none" stroke="#000000" stroke-width="4" stroke-linejoin="round"/><path d="M244.56,161.875h-9.56l4.78,-11z" fill="#b3b3b3" stroke="none" stroke-width="1" stroke-linejoin="miter"/></g><g><path d="M263.935,161.875h-9.56l4.78,-11z" fill="none" stroke="#000000" stroke-width="4" stroke-linejoin="round"/><path d="M263.935,161.875h-9.56l4.78,-11z" fill="#b3b3b3" stroke="none" stroke-width="1" stroke-linejoin="miter"/></g><g data-paper-data="{&quot;index&quot;:null}"><path d="M283.97,189.75l-11,4.78v-9.56z" fill="none" stroke="#000000" stroke-width="4" stroke-linejoin="round"/><path d="M283.97,189.75l-11,4.78v-9.56z" fill="#b3b3b3" stroke="none" stroke-width="1" stroke-linejoin="miter"/></g><g data-paper-data="{&quot;index&quot;:null}"><path d="M283.97,170.375l-11,4.78v-9.56z" fill="none" stroke="#000000" stroke-width="4" stroke-linejoin="round"/><path d="M283.97,170.375l-11,4.78v-9.56z" fill="#b3b3b3" stroke="none" stroke-width="1" stroke-linejoin="miter"/></g><g><path d="M207.03,184.97v9.56l-11,-4.78z" fill="none" stroke="#000000" stroke-width="4" stroke-linejoin="round"/><path d="M207.03,184.97v9.56l-11,-4.78z" fill="#b3b3b3" stroke="none" stroke-width="1" stroke-linejoin="miter"/></g><g><path d="M207.03,165.595v9.56l-11,-4.78z" fill="none" stroke="#000000" stroke-width="4" stroke-linejoin="round"/><path d="M207.03,165.595v9.56l-11,-4.78z" fill="#b3b3b3" stroke="none" stroke-width="1" stroke-linejoin="miter"/></g><path d="M209,196v-32h62v32z" fill="#39b54a" stroke="#000000" stroke-width="4" stroke-linejoin="round"/><path d="M209,196v-32h62v32z" fill="#3967c4" stroke="none" stroke-width="0" stroke-linejoin="round"/><path d="M218,187v-14h44v14z" fill="#4f7bd2" stroke="none" stroke-width="1" stroke-linejoin="miter"/><g><path d="M225.185,161.875h-9.56l4.78,-11z" fill="none" stroke="#000000" stroke-width="4" stroke-linejoin="round"/><path d="M225.185,161.875h-9.56l4.78,-11z" fill="#b3b3b3" stroke="none" stroke-width="1" stroke-linejoin="miter"/></g><g><path d="M244.56,161.875h-9.56l4.78,-11z" fill="none" stroke="#000000" stroke-width="4" stroke-linejoin="round"/><path d="M244.56,161.875h-9.56l4.78,-11z" fill="#b3b3b3" stroke="none" stroke-width="1" stroke-linejoin="miter"/></g><g><path d="M263.935,161.875h-9.56l4.78,-11z" fill="none" stroke="#000000" stroke-width="4" stroke-linejoin="round"/><path d="M263.935,161.875h-9.56l4.78,-11z" fill="#b3b3b3" stroke="none" stroke-width="1" stroke-linejoin="miter"/></g><g data-paper-data="{&quot;index&quot;:null}"><path d="M283.97,189.75l-11,4.78v-9.56z" fill="none" stroke="#000000" stroke-width="4" stroke-linejoin="round"/><path d="M283.97,189.75l-11,4.78v-9.56z" fill="#b3b3b3" stroke="none" stroke-width="1" stroke-linejoin="miter"/></g><g data-paper-data="{&quot;index&quot;:null}"><path d="M283.97,170.375l-11,4.78v-9.56z" fill="none" stroke="#000000" stroke-width="4" stroke-linejoin="round"/><path d="M283.97,170.375l-11,4.78v-9.56z" fill="#b3b3b3" stroke="none" stroke-width="1" stroke-linejoin="miter"/></g><g><path d="M254.815,198.125h9.56l-4.78,11z" fill="none" stroke="#000000" stroke-width="4" stroke-linejoin="round"/><path d="M254.815,198.125h9.56l-4.78,11z" fill="#b3b3b3" stroke="none" stroke-width="1" stroke-linejoin="miter"/></g><g><path d="M235.44,198.125h9.56l-4.78,11z" fill="none" stroke="#000000" stroke-width="4" stroke-linejoin="round"/><path d="M235.44,198.125h9.56l-4.78,11z" fill="#b3b3b3" stroke="none" stroke-width="1" stroke-linejoin="miter"/></g><g><path d="M216.065,198.125h9.56l-4.78,11z" fill="none" stroke="#000000" stroke-width="4" stroke-linejoin="round"/><path d="M216.065,198.125h9.56l-4.78,11z" fill="#b3b3b3" stroke="none" stroke-width="1" stroke-linejoin="miter"/></g><g><path d="M254.815,198.125h9.56l-4.78,11z" fill="none" stroke="#000000" stroke-width="4" stroke-linejoin="round"/><path d="M254.815,198.125h9.56l-4.78,11z" fill="#b3b3b3" stroke="none" stroke-width="1" stroke-linejoin="miter"/></g><g><path d="M235.44,198.125h9.56l-4.78,11z" fill="none" stroke="#000000" stroke-width="4" stroke-linejoin="round"/><path d="M235.44,198.125h9.56l-4.78,11z" fill="#b3b3b3" stroke="none" stroke-width="1" stroke-linejoin="miter"/></g><g><path d="M216.065,198.125h9.56l-4.78,11z" fill="none" stroke="#000000" stroke-width="4" stroke-linejoin="round"/><path d="M216.065,198.125h9.56l-4.78,11z" fill="#b3b3b3" stroke="none" stroke-width="1" stroke-linejoin="miter"/></g></g></g></svg>