<svg version="1.1" xmlns="http://www.w3.org/2000/svg" xmlns:xlink="http://www.w3.org/1999/xlink" width="59.58168" height="65.90581" viewBox="0,0,59.58168,65.90581"><g transform="translate(-212.49181,-119.86111)"><g data-paper-data="{&quot;isPaintingLayer&quot;:true}" fill-rule="nonzero" stroke-linecap="butt" stroke-miterlimit="10" stroke-dasharray="" stroke-dashoffset="0" style="mix-blend-mode: normal"><g><path d="M244.54904,131.90895l-8.15786,7.26359l-3.72766,-4.1866l-5.71048,5.08452l2.98215,3.34928l-1.63157,1.45271l-2.98215,-3.34928l-2.44736,2.17908l3.72766,4.18661l-3.26313,2.90544l-5.21876,-5.86125l13.05255,-11.62175l-3.72766,-4.1866l8.15786,-7.26359zM232.87426,130.29492l2.98215,3.34929l3.26314,-2.90543l-2.98215,-3.34929z" fill="none" stroke="#000000" stroke-width="4" stroke-linejoin="round"/><path d="M244.54904,131.90895l-8.15786,7.26359l-3.72766,-4.1866l-5.71048,5.08452l2.98215,3.34928l-1.63157,1.45271l-2.98215,-3.34928l-2.44736,2.17908l3.72766,4.18661l-3.26313,2.90544l-5.21876,-5.86125l13.05255,-11.62175l-3.72766,-4.1866l8.15786,-7.26359zM232.87426,130.29492l2.98215,3.34929l3.26314,-2.90543l-2.98215,-3.34929z" fill="#f97b3d" stroke="none" stroke-width="1" stroke-linejoin="miter"/></g><g><path d="M228.85507,144.63608l-0.962,10.88047l-5.58385,-0.49368l-0.67339,7.61634l4.4671,0.39495l-0.1924,2.17609l-4.4671,-0.39495l-0.28859,3.26415l5.58386,0.49369l-0.38478,4.35219l-7.81741,-0.69115l1.53916,-17.40878l-5.58386,-0.49369l0.96198,-10.88049zM219.24751,151.46253l4.4671,0.39495l0.38479,-4.35219l-4.4671,-0.39494z" fill="none" stroke="#000000" stroke-width="4" stroke-linejoin="round"/><path d="M228.85507,144.63608l-0.962,10.88047l-5.58385,-0.49368l-0.67339,7.61634l4.4671,0.39495l-0.1924,2.17609l-4.4671,-0.39495l-0.28859,3.26415l5.58386,0.49369l-0.38478,4.35219l-7.81741,-0.69115l1.53916,-17.40878l-5.58386,-0.49369l0.96198,-10.88049zM219.24751,151.46253l4.4671,0.39495l0.38479,-4.35219l-4.4671,-0.39494z" fill="#903cfa" stroke="none" stroke-width="1" stroke-linejoin="miter"/></g><g><path d="M221.86051,164.26122l9.81693,4.78941l-2.45792,5.03804l6.87185,3.35258l1.96634,-4.03044l1.96339,0.95787l-1.96634,4.03044l2.94509,1.43682l2.45792,-5.03804l3.92678,1.91575l-3.44108,7.05327l-15.70708,-7.66303l-2.45792,5.03803l-9.81691,-4.78941zM224.7997,175.67467l1.96634,-4.03044l-3.92677,-1.91576l-1.96634,4.03044z" fill="none" stroke="#000000" stroke-width="4" stroke-linejoin="round"/><path d="M221.86051,164.26122l9.81693,4.78941l-2.45792,5.03804l6.87185,3.35258l1.96634,-4.03044l1.96339,0.95787l-1.96634,4.03044l2.94509,1.43682l2.45792,-5.03804l3.92678,1.91575l-3.44108,7.05327l-15.70708,-7.66303l-2.45792,5.03803l-9.81691,-4.78941zM224.7997,175.67467l1.96634,-4.03044l-3.92677,-1.91576l-1.96634,4.03044z" fill="#903cfa" stroke="none" stroke-width="1" stroke-linejoin="miter"/></g><g><path d="M244.2007,169.06537l7.39356,-3.70212l0.56066,10.35366z" fill="none" stroke="#000000" stroke-width="4" stroke-linejoin="round"/><path d="M244.2007,169.06537l7.39356,-3.70212l0.56066,10.35366z" fill="#b3b3b3" stroke="none" stroke-width="1" stroke-linejoin="miter"/></g><g><path d="M232.7929,169.52044l8.26581,-0.21665l-3.88375,9.614z" fill="none" stroke="#000000" stroke-width="4" stroke-linejoin="round"/><path d="M232.7929,169.52044l8.26581,-0.21665l-3.88375,9.614z" fill="#b3b3b3" stroke="none" stroke-width="1" stroke-linejoin="miter"/></g><g><path d="M252.64418,163.3538l5.34458,-6.45145l4.74031,9.22184z" fill="none" stroke="#000000" stroke-width="4" stroke-linejoin="round"/><path d="M252.64418,163.3538l5.34458,-6.45145l4.74031,9.22184z" fill="#b3b3b3" stroke="none" stroke-width="1" stroke-linejoin="miter"/></g><g><path d="M260.83799,147.73928l-0.5106,-8.25286l9.7461,3.53925z" fill="none" stroke="#000000" stroke-width="4" stroke-linejoin="round"/><path d="M260.83799,147.73928l-0.5106,-8.25286l9.7461,3.53925z" fill="#b3b3b3" stroke="none" stroke-width="1" stroke-linejoin="miter"/></g><g><path d="M259.06193,156.67351l2.07843,-8.00317l8.16443,6.39178z" fill="none" stroke="#000000" stroke-width="4" stroke-linejoin="round"/><path d="M259.06193,156.67351l2.07843,-8.00317l8.16443,6.39178z" fill="#b3b3b3" stroke="none" stroke-width="1" stroke-linejoin="miter"/></g><g><path d="M260.62968,141.35982l-3.90091,-7.29063l10.3347,-0.84072z" fill="none" stroke="#000000" stroke-width="4" stroke-linejoin="round"/><path d="M260.62968,141.35982l-3.90091,-7.29063l10.3347,-0.84072z" fill="#b3b3b3" stroke="none" stroke-width="1" stroke-linejoin="miter"/></g><path d="M218.40632,157.88007c-5.17216,-10.3294 -0.29082,-23.24669 10.90279,-28.85159c11.1936,-5.60489 24.46069,-1.77493 29.63285,8.55447c5.17216,10.3294 0.29082,23.24669 -10.90279,28.85159c-11.1936,5.60489 -24.46069,1.77493 -29.63285,-8.55447z" fill="#7a1cbe" stroke="#000000" stroke-width="2" stroke-linejoin="miter"/><path d="M218.40632,157.88007c-5.17216,-10.3294 35.36348,-30.62652 40.53565,-20.29712c5.17216,10.3294 0.29082,23.24669 -10.90279,28.85159c-11.1936,5.60489 -24.46069,1.77493 -29.63285,-8.55447z" fill="#9500ff" stroke="#000000" stroke-width="2" stroke-linejoin="miter"/><path d="M254.69838,147.83502c0.70752,0.70669 0.00081,1.41421 0.00081,1.41421l-0.13111,-0.01813c-0.72426,2.117 -0.85243,4.107 -1.82817,6.22052c-2.55864,5.5422 -7.62592,8.96891 -13.23766,10.96186c0,0 -0.9428,0.33337 -1.27616,-0.60943c-0.33337,-0.9428 0.60943,-1.27616 0.60943,-1.27616c5.10566,-1.79666 9.77106,-4.87602 12.09237,-9.92276c0.94902,-2.06328 1.06063,-3.90879 1.74246,-6.00538l0.61382,-0.76391c0,0 0.70669,-0.70752 1.41421,-0.00081z" fill="#a45efa" stroke="none" stroke-width="0.5" stroke-linejoin="miter"/><path d="M256.37589,139.90821c0.95561,-0.29464 1.25024,0.66097 1.25024,0.66097l0.2987,0.96879c2.22319,7.37608 -1.88558,12.40764 -4.80726,18.75354c0,0 -0.41853,0.90821 -1.32673,0.48967c-0.90821,-0.41853 -0.48967,-1.32673 -0.48967,-1.32673c2.65663,-5.75966 6.83806,-10.62464 4.71244,-17.3272l-0.2987,-0.96879c0,0 -0.29464,-0.95561 0.66097,-1.25024z" fill="#a45efa" stroke="none" stroke-width="0.5" stroke-linejoin="miter"/><path d="M252.02164,136.29653c0.99235,0.12346 0.86889,1.11581 0.86889,1.11581l-0.06655,0.47229c0.00392,6.77953 -2.60386,12.31112 -6.09914,18.04084c0,0 -0.52096,0.85358 -1.37454,0.33263c-0.85358,-0.52096 -0.33263,-1.37454 -0.33263,-1.37454c3.30529,-5.413 5.81001,-10.59415 5.80631,-16.99778l0.08184,-0.72037c0,0 0.12346,-0.99235 1.11581,-0.86889z" fill="#a45efa" stroke="none" stroke-width="0.5" stroke-linejoin="miter"/><path d="M233.53781,131.03084c-0.14199,-0.98987 0.84787,-1.13186 0.84787,-1.13186l0.96641,-0.13554c5.18137,-1.59755 12.87483,-0.4298 17.51174,2.34851c0,0 0.85358,0.52096 0.33263,1.37454c-0.52096,0.85358 -1.37454,0.33263 -1.37454,0.33263c-4.13523,-2.58155 -11.37718,-3.53939 -16.03185,-2.10423l-1.12041,0.16382c0,0 -0.98987,0.14199 -1.13186,-0.84787z" fill="#903cfa" stroke="none" stroke-width="0.5" stroke-linejoin="miter"/><path d="M226.70318,140.3395c-0.80034,-0.59954 -0.20081,-1.39988 -0.20081,-1.39988l0.57605,-0.5929c1.95939,-0.98111 3.77975,-2.2645 5.81275,-3.09316c3.72947,-1.52015 7.92577,-2.09807 11.73919,-3.45015c0,0 0.9428,-0.33337 1.27616,0.60943c0.33337,0.9428 -0.60943,1.27616 -0.60943,1.27616c-3.7854,1.33508 -7.96477,1.91023 -11.66102,3.42066c-1.9785,0.80849 -3.753,2.06941 -5.6622,3.02539l0.12918,0.00364c0,0 -0.59954,0.80034 -1.39988,0.20081z" fill="#903cfa" stroke="none" stroke-width="0.5" stroke-linejoin="miter"/><path d="M221.71364,141.40578c-0.89417,0.44773 -1.3419,-0.44644 -1.3419,-0.44644l-0.24494,-0.60379c-0.28829,-3.98216 5.26301,-6.56869 8.36428,-8.12157c0,0 0.89417,-0.44773 1.3419,0.44644c0.44773,0.89417 -0.44644,1.3419 -0.44644,1.3419c-1.65999,0.83119 -8.01571,3.78924 -7.28,6.04924l0.05355,-0.00768c0,0 0.44773,0.89417 -0.44644,1.3419z" fill="#903cfa" stroke="none" stroke-width="0.5" stroke-linejoin="miter"/><path d="M237.65759,164.9679c-0.31568,0.94887 -1.26454,0.63318 -1.26454,0.63318l-0.34058,-0.11975c-3.31462,-0.72331 -6.70853,-1.32752 -10.00849,-2.0856c0,0 -0.97355,-0.22847 -0.74508,-1.20203c0.22847,-0.97355 1.20203,-0.74508 1.20203,-0.74508c3.2426,0.78024 6.69544,1.39516 9.96946,2.07685l0.55402,0.17787c0,0 0.94887,0.31568 0.63318,1.26454z" fill="#ffb06b" stroke="none" stroke-width="0.5" stroke-linejoin="miter"/><path d="M241.91838,158.34871c0.26367,0.96461 -0.70094,1.22828 -0.70094,1.22828l-0.94144,0.24934c-5.77644,0.82727 -10.70855,0.98895 -16.25726,-1.32602c0,0 -0.92186,-0.38753 -0.53433,-1.30939c0.38753,-0.92186 1.30939,-0.53433 1.30939,-0.53433c5.2099,2.20876 9.78236,1.96811 15.19822,1.19l0.69808,-0.19882c0,0 0.96461,-0.26367 1.22828,0.70094z" fill="#a45efa" stroke="none" stroke-width="0.5" stroke-linejoin="miter"/><g><path d="M245.54274,129.50811l-5.20026,9.60562l-4.92959,-2.66876l-3.64017,6.72393l3.9437,2.13501l-1.04006,1.92112l-3.94369,-2.135l-1.56008,2.88169l4.9296,2.66877l-2.08009,3.84224l-6.90143,-3.73627l8.32039,-15.36897l-4.92958,-2.66876l5.20026,-9.60562zM234.01521,131.96202l3.94369,2.13501l2.0801,-3.84224l-3.94369,-2.13501z" fill="none" stroke="#000000" stroke-width="4" stroke-linejoin="round"/><path d="M245.54274,129.50811l-5.20026,9.60562l-4.92959,-2.66876l-3.64017,6.72393l3.9437,2.13501l-1.04006,1.92112l-3.94369,-2.135l-1.56008,2.88169l4.9296,2.66877l-2.08009,3.84224l-6.90143,-3.73627l8.32039,-15.36897l-4.92958,-2.66876l5.20026,-9.60562zM234.01521,131.96202l3.94369,2.13501l2.0801,-3.84224l-3.94369,-2.13501z" fill="#903cfa" stroke="none" stroke-width="1" stroke-linejoin="miter"/></g><g><path d="M231.29017,147.89704l4.71361,9.85354l-5.05682,2.41903l3.29953,6.89747l4.04548,-1.93523l0.94273,1.97071l-4.04548,1.93523l1.41409,2.95606l5.05683,-2.41903l1.88546,3.94142l-7.07956,3.38665l-7.5418,-15.76565l-5.05683,2.41903l-4.71363,-9.85353zM226.49878,158.66497l4.04548,-1.93523l-1.88545,-3.94141l-4.04546,1.93524z" fill="none" stroke="#000000" stroke-width="4" stroke-linejoin="round"/><path d="M231.29017,147.89704l4.71361,9.85354l-5.05682,2.41903l3.29953,6.89747l4.04548,-1.93523l0.94273,1.97071l-4.04548,1.93523l1.41409,2.95606l5.05683,-2.41903l1.88546,3.94142l-7.07956,3.38665l-7.5418,-15.76565l-5.05683,2.41903l-4.71363,-9.85353zM226.49878,158.66497l4.04548,-1.93523l-1.88545,-3.94141l-4.04546,1.93524z" fill="#903cfa" stroke="none" stroke-width="1" stroke-linejoin="miter"/></g><g><path d="M231.1893,164.41681l10.92231,0.11623l-0.05964,5.60531l7.64562,0.08135l0.04772,-4.48426l2.18446,0.02324l-0.04771,4.48427l3.27671,0.03486l0.05964,-5.60531l4.36892,0.04647l-0.08349,7.84746l-17.4757,-0.18594l-0.05965,5.6053l-10.9223,-0.11622zM238.7395,173.46668l0.04772,-4.48426l-4.36892,-0.04648l-0.04771,4.48427z" fill="none" stroke="#000000" stroke-width="4" stroke-linejoin="round"/><path d="M231.1893,164.41681l10.92231,0.11623l-0.05964,5.60531l7.64562,0.08135l0.04772,-4.48426l2.18446,0.02324l-0.04771,4.48427l3.27671,0.03486l0.05964,-5.60531l4.36892,0.04647l-0.08349,7.84746l-17.4757,-0.18594l-0.05965,5.6053l-10.9223,-0.11622zM238.7395,173.46668l0.04772,-4.48426l-4.36892,-0.04648l-0.04771,4.48427z" fill="#903cfa" stroke="none" stroke-width="1" stroke-linejoin="miter"/></g></g></g></svg>