<svg version="1.1" xmlns="http://www.w3.org/2000/svg" xmlns:xlink="http://www.w3.org/1999/xlink" width="229.35222" height="128.49799" viewBox="0,0,229.35222,128.49799"><g transform="translate(-132.38499,-112.7213)"><g data-paper-data="{&quot;isPaintingLayer&quot;:true}" fill="none" fill-rule="nonzero" stroke-linecap="round" stroke-linejoin="round" stroke-miterlimit="10" stroke-dasharray="" stroke-dashoffset="0" style="mix-blend-mode: normal"><g data-paper-data="{&quot;index&quot;:null}"><path d="M142.49449,237.21928l74.08297,-116.35672l27.76407,53.91078" stroke="#000000" stroke-width="8"/><path d="M142.49449,237.21928l74.08297,-116.35672l27.76407,53.91078" stroke="#9bb39b" stroke-width="4"/></g><g data-paper-data="{&quot;index&quot;:null}"><path d="M165.21607,236.58923l67.98558,-106.76521l33.86146,44.51394" stroke="#000000" stroke-width="8"/><path d="M165.21607,236.58923l67.98558,-106.76521l33.86146,44.51394" stroke="#9bb39b" stroke-width="4"/></g><g data-paper-data="{&quot;index&quot;:null}"><path d="M255.89017,172.55082l27.76407,-55.82952l74.08297,120.49799" stroke="#000000" stroke-width="8"/><path d="M255.89017,172.55082l27.76407,-55.82952l74.08297,120.49799" stroke="#9bb39b" stroke-width="4"/></g><g data-paper-data="{&quot;index&quot;:null}"><path d="M136.38499,235.99685l77.8967,-98.53005l26.68135,47.34165" stroke="#000000" stroke-width="8"/><path d="M136.38499,235.99685l77.8967,-98.53005l26.68135,47.34165" stroke="#9bb39b" stroke-width="4"/></g><g data-paper-data="{&quot;index&quot;:null}"><path d="M243.68081,184.80846l26.68135,-47.34165l77.8967,98.53005" stroke="#000000" stroke-width="8"/><path d="M243.68081,184.80846l26.68135,-47.34165l77.8967,98.53005" stroke="#9bb39b" stroke-width="4"/></g></g></g></svg>