<svg version="1.1" xmlns="http://www.w3.org/2000/svg" xmlns:xlink="http://www.w3.org/1999/xlink" width="48.69865" height="23.22627" viewBox="0,0,48.69865,23.22627"><g transform="translate(-215.74108,-156.31491)"><g stroke-miterlimit="10"><g><g><path d="M250.47409,164.4294l-7.09698,-1.9579l8.41716,-2.79546z" fill="none" stroke="#000000" stroke-width="4" stroke-linejoin="round"/><path d="M250.47409,164.4294l-7.09698,-1.9579l8.41716,-2.79546z" fill="#b3b3b3" stroke="none" stroke-width="1" stroke-linejoin="miter"/><path d="M261.11955,167.36624l-7.09698,-1.9579l8.41716,-2.79546z" fill="none" stroke="#000000" stroke-width="4" stroke-linejoin="round"/><path d="M261.11955,167.36624l-7.09698,-1.9579l8.41716,-2.79546z" fill="#b3b3b3" stroke="none" stroke-width="1" stroke-linejoin="miter"/></g><g><path d="M228.38654,159.50905l8.41716,2.79546l-7.09698,1.9579z" fill="none" stroke="#000000" stroke-width="4" stroke-linejoin="round"/><path d="M228.38654,159.50905l8.41716,2.79546l-7.09698,1.9579z" fill="#b3b3b3" stroke="none" stroke-width="1" stroke-linejoin="miter"/><path d="M217.74108,162.4459l8.41716,2.79546l-7.09698,1.9579z" fill="none" stroke="#000000" stroke-width="4" stroke-linejoin="round"/><path d="M217.74108,162.4459l8.41716,2.79546l-7.09698,1.9579z" fill="#b3b3b3" stroke="none" stroke-width="1" stroke-linejoin="miter"/></g><path d="M244.08088,162.5709l-8.24499,0.25793l3.4811,-4.51392z" fill="none" stroke="#000000" stroke-width="4" stroke-linejoin="round"/><path d="M244.08088,162.5709l-8.24499,0.25793l3.4811,-4.51392z" fill="#b3b3b3" stroke="none" stroke-width="1" stroke-linejoin="miter"/></g><path d="M225.50167,178.54118l-2.79019,-4.02391l34.42991,0.17139l-2.81462,3.85251z" fill="#d87f00" stroke="#000000" stroke-width="2" stroke-linejoin="miter"/><path d="M222.72742,174.69354l-5.28992,-7.12381l22.42907,-5.71565l22.69593,5.8691l-5.28386,7.08825z" fill="#805500" stroke="#000000" stroke-width="2" stroke-linejoin="miter"/><g><path d="M247.08128,171.7321v-3.69393l6.86311,1.125v2.56893z" fill="#ffffff" stroke="#ffffff" stroke-width="2" stroke-linejoin="round"/><path d="M249.95153,171.11831v-1.84136h4.11787v1.84136z" fill="#000000" stroke="none" stroke-width="1" stroke-linejoin="miter"/></g></g></g></svg>