<svg version="1.1" xmlns="http://www.w3.org/2000/svg" xmlns:xlink="http://www.w3.org/1999/xlink" width="272.94693" height="85.10973" viewBox="0,0,272.94693,85.10973"><g transform="translate(-115.21358,-133.5778)"><g data-paper-data="{&quot;isPaintingLayer&quot;:true}" fill-rule="nonzero" stroke-linecap="butt" stroke-linejoin="miter" stroke-miterlimit="10" stroke-dasharray="" stroke-dashoffset="0" style="mix-blend-mode: normal"><path d="M360.7265,168.3878c-0.66503,0.05758 -1.33257,0.08095 -2,0.07c-9.07,0 -16.11,-6.26 -16.11,-15.33c0,-10.31 9,-17.55 20.81,-17.55c11.35,0 21.07,6.72 21.07,18.72c0,6.39 -2.74,11.74 -6.27,16.44l-9.65,12.79h-20.37zM366.7965,153.64779c0.01213,-1.31179 -0.77036,-2.50063 -1.98001,-3.00825c-1.20966,-0.50762 -2.60619,-0.23319 -3.5338,0.69443c-0.92762,0.92762 -1.20205,2.32415 -0.69443,3.5338c0.50762,1.20966 1.69645,1.99214 3.00825,1.98001c1.75506,-0.01077 3.17823,-1.42505 3.2,-3.18z" fill="none" stroke="#ffffff" stroke-width="4"/><path d="M360.7265,168.3878c-0.66503,0.05758 -1.33257,0.08095 -2,0.07c-9.07,0 -16.11,-6.26 -16.11,-15.33c0,-10.31 9,-17.55 20.81,-17.55c11.35,0 21.07,6.72 21.07,18.72c0,6.39 -2.74,11.74 -6.27,16.44l-9.65,12.79h-20.37zM366.7965,153.64779c0.01213,-1.31179 -0.77036,-2.50063 -1.98001,-3.00825c-1.20966,-0.50762 -2.60619,-0.23319 -3.5338,0.69443c-0.92762,0.92762 -1.20205,2.32415 -0.69443,3.5338c0.50762,1.20966 1.69645,1.99214 3.00825,1.98001c1.75506,-0.01077 3.17823,-1.42505 3.2,-3.18z" fill="#000000" stroke="none" stroke-width="1"/><path d="M118.72773,136.37391h19.44v30.46h14.61v16.77h-34z" fill="none" stroke="#ffffff" stroke-width="4"/><path d="M157.85772,136.37391h34v15.78h-14.56v2.55h11.74v11.22h-11.74v2.67h15.46v15h-34.9z" fill="none" stroke="#ffffff" stroke-width="4"/><path d="M195.10773,136.37391h21l7,25h0.13l7.44,-25h19l-18.07,47.23h-18.43z" fill="none" stroke="#ffffff" stroke-width="4"/><path d="M252.89772,136.37391h34v15.78h-14.56v2.55h11.74v11.22h-11.74v2.67h15.46v15h-34.9z" fill="none" stroke="#ffffff" stroke-width="4"/><path d="M292.6277,136.37391h19.44v30.46h14.61v16.77h-34.05z" fill="none" stroke="#ffffff" stroke-width="4"/><path d="M118.72773,136.37391h19.44v30.46h14.61v16.77h-34z" fill="#000000" stroke="none" stroke-width="1"/><path d="M157.85772,136.37391h34v15.78h-14.56v2.55h11.74v11.22h-11.74v2.67h15.46v15h-34.9z" fill="#000000" stroke="none" stroke-width="1"/><path d="M195.10773,136.37391h21l7,25h0.13l7.44,-25h19l-18.07,47.23h-18.43z" fill="#000000" stroke="none" stroke-width="1"/><path d="M252.89772,136.37391h34v15.78h-14.56v2.55h11.74v11.22h-11.74v2.67h15.46v15h-34.9z" fill="#000000" stroke="none" stroke-width="1"/><path d="M292.6277,136.37391h19.44v30.46h14.61v16.77h-34.05z" fill="#000000" stroke="none" stroke-width="1"/><path d="M369.59508,215.5515l0.08878,-10.35436l-6.69224,-15.69002h8.30149l2.45271,10.10342l3.7734,-10.10342h7.54681l-7.42473,16.48245l-0.12208,9.56193z" fill="#000000" stroke="#ffffff" stroke-width="4"/><path d="M127.8648,188.54673c1.83029,-0.05132 3.65145,0.44639 5.37887,1.47v9.39c-1.4391,-1.02764 -2.98236,-1.57438 -4.54453,-1.61c-2.57404,0 -3.9587,1.72 -3.9587,4.07c0,2.35 1.38465,4 3.9587,4c1.60131,-0.00764 3.18381,-0.58339 4.64511,-1.69v9c-1.77771,1.09394 -3.65879,1.62941 -5.55047,1.58c-6.11261,0.02 -10.58021,-5.48 -10.58021,-13.1c0,-7.62 4.43801,-13.11 10.65122,-13.11z" fill="none" stroke="#ffffff" stroke-width="4"/><path d="M127.8648,188.54673c1.83029,-0.05132 3.65145,0.44639 5.37887,1.47v9.39c-1.4391,-1.02764 -2.98236,-1.57438 -4.54453,-1.61c-2.57404,0 -3.9587,1.72 -3.9587,4.07c0,2.35 1.38465,4 3.9587,4c1.60131,-0.00764 3.18381,-0.58339 4.64511,-1.69v9c-1.77771,1.09394 -3.65879,1.62941 -5.55047,1.58c-6.11261,0.02 -10.58021,-5.48 -10.58021,-13.1c0,-7.62 4.43801,-13.11 10.65122,-13.11z" fill="#000000" stroke="none" stroke-width="1"/><path d="M165.26911,188.91651h7.94986l7.73075,25.47h-8.98414l-0.70121,-3.34h-4.65422l-0.7801,3.34h-8.2917zM169.91456,204.63651l-0.87651,-5.17h-0.05259l-0.87651,5.17z" fill="none" stroke="#ffffff" stroke-width="4"/><path d="M165.26911,188.91651h7.94986l7.73075,25.47h-8.98414l-0.70121,-3.34h-4.65422l-0.7801,3.34h-8.2917zM169.91456,204.63651l-0.87651,-5.17h-0.05259l-0.87651,5.17z" fill="#000000" stroke="none" stroke-width="1"/><path d="M191.99016,189.87042c6.17054,0 10.98329,5.56398 10.98329,12.73014c0,7.16617 -4.81276,12.73986 -10.98329,12.73986c-6.17054,0 -10.98967,-5.56398 -10.98967,-12.73986c0,-7.17588 4.81914,-12.73014 10.98967,-12.73014zM191.99016,206.6012c1.68287,0 3.04065,-1.709 3.04065,-3.82584c0,-2.11684 -1.35777,-3.82584 -3.04065,-3.82584c-1.68287,0 -3.04703,1.709 -3.04703,3.82584c0,2.11684 1.35777,3.82584 3.04703,3.82584z" fill="none" stroke="#ffffff" stroke-width="4"/><path d="M191.99016,189.87042c6.17054,0 10.98329,5.56398 10.98329,12.73014c0,7.16617 -4.81276,12.73986 -10.98329,12.73986c-6.17054,0 -10.98967,-5.56398 -10.98967,-12.73986c0,-7.17588 4.81914,-12.73014 10.98967,-12.73014zM191.99016,206.6012c1.68287,0 3.04065,-1.709 3.04065,-3.82584c0,-2.11684 -1.35777,-3.82584 -3.04065,-3.82584c-1.68287,0 -3.04703,1.709 -3.04703,3.82584c0,2.11684 1.35777,3.82584 3.04703,3.82584z" fill="#000000" stroke="none" stroke-width="1"/><path d="M206.2983,204.34246c2.44581,1.7116 5.17307,2.73641 7.9837,3c1.00717,0 1.24464,-0.42 1.24464,-0.84c0,-0.42 -0.30297,-0.71 -0.73696,-0.81c-1.17913,-0.32 -4.56094,-0.71 -7.04203,-3c-1.39379,-1.22505 -2.20029,-3.21362 -2.15357,-5.31c0,-5.1 3.75849,-8.58 9.8998,-8.58c2.95957,-0.0021 5.89299,0.67639 8.64696,2v8.34c-2.32771,-1.2798 -4.82292,-2.045 -7.36957,-2.26c-0.96624,0 -1.23645,0.39 -1.23645,0.78c0,0.39 0.36847,0.74 0.76972,0.88c1.00717,0.31 4.35624,0.74 6.73906,2.71c1.54889,1.1744 2.48098,3.25371 2.45652,5.48c0,4.89 -3.75849,8.3 -10.12907,8.3c-3.10969,0.0188 -6.19402,-0.68364 -9.08913,-2.07z" fill="none" stroke="#ffffff" stroke-width="4"/><path d="M206.2983,204.34246c2.44581,1.7116 5.17307,2.73641 7.9837,3c1.00717,0 1.24464,-0.42 1.24464,-0.84c0,-0.42 -0.30297,-0.71 -0.73696,-0.81c-1.17913,-0.32 -4.56094,-0.71 -7.04203,-3c-1.39379,-1.22505 -2.20029,-3.21362 -2.15357,-5.31c0,-5.1 3.75849,-8.58 9.8998,-8.58c2.95957,-0.0021 5.89299,0.67639 8.64696,2v8.34c-2.32771,-1.2798 -4.82292,-2.045 -7.36957,-2.26c-0.96624,0 -1.23645,0.39 -1.23645,0.78c0,0.39 0.36847,0.74 0.76972,0.88c1.00717,0.31 4.35624,0.74 6.73906,2.71c1.54889,1.1744 2.48098,3.25371 2.45652,5.48c0,4.89 -3.75849,8.3 -10.12907,8.3c-3.10969,0.0188 -6.19402,-0.68364 -9.08913,-2.07z" fill="#000000" stroke="none" stroke-width="1"/><path d="M136.41913,188.97715h6.50319l0.06547,8.87772l5.21289,0.06405l-0.12533,-8.94177h6.42817v25.47h-6.50318l-0.26,-7.99544l-4.89304,-0.17504v8.14048h-6.42817z" fill="none" stroke="#ffffff" stroke-width="4"/><path d="M136.41913,188.97715h6.50319l0.06548,8.87771l5.21289,0.06405l-0.12533,-8.94177h6.42817v25.47h-6.50318l-0.26,-7.99544l-4.89305,-0.17504v8.14048h-6.42817z" fill="#000000" stroke="none" stroke-width="1"/><path d="M240.49142,189.11861h8.65126l7.30084,0.01047l0.00494,5.9263l-7.24839,-0.08707l0.02971,3.02801l6.93476,0.06405l-0.11041,8.53279l-7.01126,-0.17504v8.14048h-8.55147z" fill="#000000" stroke="#ffffff" stroke-width="4"/><path d="M240.49142,189.11861h8.65126l7.30084,0.01048l0.00494,5.9263l-7.24839,-0.08707l0.02971,3.02801l6.93476,0.06405l-0.11041,8.53279l-7.01126,-0.17504v8.14048h-8.55147z" fill="#000000" stroke="none" stroke-width="1"/><path d="M263.94359,189.81459h7.94986l7.73075,25.47h-8.98414l-0.70121,-3.34h-4.65422l-0.7801,3.34h-8.2917zM268.58905,205.53459l-0.87651,-5.17h-0.05259l-0.87651,5.17z" fill="none" stroke="#ffffff" stroke-width="4"/><path d="M263.94359,189.81459h7.94986l7.73075,25.47h-8.98414l-0.70121,-3.34h-4.65422l-0.7801,3.34h-8.2917zM268.58905,205.53459l-0.87651,-5.17h-0.05259l-0.87651,5.17z" fill="#000000" stroke="none" stroke-width="1"/><path d="M332.54941,191.21754c6.17054,0 10.98329,5.56398 10.98329,12.73014c0,7.16617 -4.81276,12.73986 -10.98329,12.73986c-6.17054,0 -10.98967,-5.56398 -10.98967,-12.73986c0,-7.17588 4.81914,-12.73014 10.98967,-12.73014zM332.54941,207.94831c1.68287,0 3.04065,-1.709 3.04065,-3.82584c0,-2.11684 -1.35777,-3.82584 -3.04065,-3.82584c-1.68287,0 -3.04703,1.709 -3.04703,3.82584c0,2.11684 1.35777,3.82584 3.04703,3.82584z" fill="none" stroke="#ffffff" stroke-width="4"/><path d="M332.54941,191.21754c6.17054,0 10.98329,5.56398 10.98329,12.73014c0,7.16617 -4.81276,12.73986 -10.98329,12.73986c-6.17054,0 -10.98967,-5.56398 -10.98967,-12.73986c0,-7.17588 4.81914,-12.73014 10.98967,-12.73014zM332.54941,207.94831c1.68287,0 3.04065,-1.709 3.04065,-3.82584c0,-2.11684 -1.35777,-3.82584 -3.04065,-3.82584c-1.68287,0 -3.04703,1.709 -3.04703,3.82584c0,2.11684 1.35777,3.82584 3.04703,3.82584z" fill="#000000" stroke="none" stroke-width="1"/><path d="M289.93245,190.11838c1.83029,-0.05132 3.65145,0.44639 5.37887,1.47v9.39c-1.4391,-1.02764 -2.98236,-1.57438 -4.54453,-1.61c-2.57404,0 -3.9587,1.72 -3.9587,4.07c0,2.35 1.38465,4 3.9587,4c1.60131,-0.00764 3.18381,-0.58339 4.64511,-1.69v9c-1.77771,1.09394 -3.65879,1.62941 -5.55047,1.58c-6.11261,0.02 -10.58021,-5.48 -10.58021,-13.1c0,-7.62 4.43801,-13.11 10.65122,-13.11z" fill="none" stroke="#ffffff" stroke-width="4"/><path d="M289.93245,190.11838c1.83029,-0.05132 3.65145,0.44639 5.37887,1.47v9.39c-1.4391,-1.02764 -2.98236,-1.57438 -4.54453,-1.61c-2.57404,0 -3.9587,1.72 -3.9587,4.07c0,2.35 1.38465,4 3.9587,4c1.60131,-0.00764 3.18381,-0.58339 4.64511,-1.69v9c-1.77771,1.09394 -3.65879,1.62941 -5.55047,1.58c-6.11261,0.02 -10.58021,-5.48 -10.58021,-13.1c0,-7.62 4.43801,-13.11 10.65122,-13.11z" fill="#000000" stroke="none" stroke-width="1"/><path d="M304.50574,198.60207h-6.30772v-8.65h21.92828v8.65h-6.27721v16.82h-9.34336z" fill="none" stroke="#ffffff" stroke-width="4"/><path d="M304.50574,198.60207h-6.30772v-8.65h21.92828v8.65h-6.27721v16.82h-9.34336z" fill="#000000" stroke="none" stroke-width="1"/><path d="M344.42021,190.86094h8.38209c4.20483,0 9.93995,1.3 9.93995,8.09c-0.03721,2.5312 -1.02295,4.8315 -2.57115,6l4.68046,11.38h-8.85773l-3.04678,-8.37h-0.11718v8.37h-8.40967zM353.45026,202.12094c1.33038,0 1.92319,-0.88 1.92319,-2c0,-1.12 -0.62039,-1.94 -1.92319,-1.94h-0.62039v3.91z" fill="none" stroke="#ffffff" stroke-width="4"/><path d="M344.42021,190.86094h8.38209c4.20483,0 9.93995,1.3 9.93995,8.09c-0.03721,2.5312 -1.02295,4.8315 -2.57115,6l4.68046,11.38h-8.85773l-3.04678,-8.37h-0.11718v8.37h-8.40967zM353.45026,202.12094c1.33038,0 1.92319,-0.88 1.92319,-2c0,-1.12 -0.62039,-1.94 -1.92319,-1.94h-0.62039v3.91z" fill="#000000" stroke="none" stroke-width="1"/><path d="M369.59508,215.5515l0.08879,-10.35436l-6.69224,-15.69003h8.30149l2.45271,10.10343l3.7734,-10.10343h7.54681l-7.42473,16.48245l-0.12208,9.56194z" fill="#000000" stroke="none" stroke-width="0"/></g></g></svg>