<svg version="1.1" xmlns="http://www.w3.org/2000/svg" xmlns:xlink="http://www.w3.org/1999/xlink" width="228.23386" height="571.37312" viewBox="0,0,228.23386,571.37312"><g transform="translate(-119.88306,23.37312)"><g fill="#a3d6c1" stroke="none" stroke-miterlimit="10"><path d="M210,180h60c3.31371,0 6,2.68629 6,6v362h-72v-362c0,-3.31371 2.68629,-6 6,-6z" stroke-width="1"/><path d="M273.34357,174.00002c2.5,0 2.5,2.5 2.5,2.5v1c-0.00973,1.02518 -0.0794,2.02365 -0.20912,2.99598c0.33104,0.67978 0.5229,1.72578 -0.52311,2.77179c-0.01277,0.01277 -0.02553,0.02535 -0.0383,0.03775c-0.98523,3.6501 -2.91502,6.89837 -5.79611,9.77946c-2.16252,3.1783 -5.39081,6.51311 -9.20889,7.80776c-1.07967,0.3661 -2.29103,-0.07699 -3.419,0.08854c-2.38167,0.3495 -4.75978,0.72687 -7.14841,1.0252c-8.4292,1.05279 -17.93277,2.02104 -26.4625,0.9748c-1.36415,-0.16732 -2.63944,-0.80564 -4,-1c-2.03887,-0.29126 -4.0592,-0.70156 -6.095,-1.01355c-1.50212,-0.23021 -3.12939,0.36489 -4.55625,-0.15802c-1.18616,-0.4347 -1.87404,-1.69462 -2.81106,-2.54193c0,0 -0.09681,-0.09681 -0.22247,-0.26778c-0.00326,0.00001 -0.00651,0.00001 -0.00977,0.00001c-2.5,0 -2.5,-2.5 -2.5,-2.5c0,-1.86654 0.34033,-3.75859 0.03228,-5.59954c-0.73482,-4.39141 -3.36365,-8.45379 -4.87699,-12.53309c-0.43238,-1.1655 -0.29729,-2.51281 -0.83079,-3.63562c-0.91618,-1.9282 -3.08274,-2.95445 -4.59227,-4.46398c-1.89593,-1.89592 -3.73804,-4.14347 -5.81721,-5.83441c-1.64989,-1.34181 -3.90418,-1.71526 -5.72936,-2.80673c-0.80916,-0.48388 -1.19397,-1.51091 -2,-2c-0.78818,-0.47826 -1.79365,-0.45693 -2.64238,-0.81693c-2.96678,-1.25838 -5.83738,-2.74061 -8.82745,-3.94261c-3.96554,-2.51679 -7.44133,-5.92666 -11.47066,-8.20481c-3.5173,-1.98865 -7.1425,-3.67432 -10.33016,-6.22892c-1.47141,-1.17919 -2.52758,-2.82206 -4,-4c-1.00202,-0.80162 -2.28361,-1.25009 -3.18279,-2.16559c-2.48681,-2.53195 -2.52276,-4.5166 -4.35886,-7.45344c-1.75447,-2.80627 -4.04567,-5.35201 -5.21809,-8.44696c-0.95557,-2.52252 -0.86806,-5.38135 -1.94157,-7.85598c-0.4783,-1.10257 -1.52911,-1.89424 -2,-3c-2.04031,-4.79112 -2.95645,-10.66122 -4.19498,-15.70593c-0.0104,-5.19639 -1.11415,-10.11546 -0.96547,-15.31113c0.23124,-8.08038 0.84226,-16.37134 1.96473,-24.29365c0.56263,-3.971 1.43198,-8.01724 2.00058,-12.00475c0.32226,-2.25992 0.23027,-4.6788 1.21016,-6.74057c0.71052,-1.49498 1.88364,-2.74448 2.55827,-4.256c0.58234,-1.30474 1.71278,-6.5281 2.58638,-8.01368c0.50734,-0.86274 1.54333,-1.31471 2.09852,-2.14745c0.82693,-1.24033 1.12897,-2.79024 2,-4c1.89445,-2.63117 5.1088,-5.15565 7.44313,-7.47158c4.25656,-2.83771 7.86636,-6.71911 12.36016,-9.24606c3.75909,-2.11382 8.29125,-3.14836 12.12643,-5.06638c1.12066,-0.56045 1.96978,-1.62045 3.14167,-2.06391c1.60882,-0.60881 3.42282,-0.49488 5.05502,-1.03787c3.72028,-1.23765 7.29224,-3.5083 10.9591,-4.96793c6.66976,-2.65496 14.67752,-4.3206 21.69625,-5.17234c4.04008,-0.49028 7.17768,-1.97439 11.24634,-2.01217c5.61573,0 11.86388,-0.86067 17.40046,0.03228c1.04064,0.16784 1.95435,0.86685 3,1c3.57891,0.45574 7.42724,-0.59363 11,0c6.03066,1.00203 11.9489,3.99508 18,5c1.07442,0.17843 2.23847,-0.30016 3.26688,0.05843c1.68728,0.58834 2.9998,1.97193 4.63331,2.69628c1.59219,0.70603 3.43548,0.77152 4.98419,1.56844c0.89992,0.46307 1.33741,1.55126 2.17694,2.11647c3.40017,2.28916 7.80975,3.45783 11.64376,4.78583c3.08429,2.05748 5.69758,2.38604 8.93911,3.97099c3.92889,1.92103 7.17749,5.09309 11.05374,7.02549c3.18868,1.58963 6.39942,3.0836 9.3634,5.21768c3.19314,2.29907 5.05183,5.5214 7.47158,8.44313c0.97186,1.17347 2.35374,1.99912 3.19327,3.27064c0.65383,0.99027 0.71189,2.26852 1.18307,3.35762c1.6626,3.84299 3.0845,8.12845 4.93258,11.85118c0.54964,1.10719 1.55919,1.95708 2.04401,3.09415c1.45847,3.42059 2.30669,8.09555 3.19498,11.70593c0,10.09248 3.25599,20.3619 2.00656,30.5518c-0.66617,5.43304 -2.13298,10.84375 -3.02011,16.15411c-0.9381,5.61542 -1.20259,12.82264 -4.34109,17.91387c-2.58045,4.18597 -7.61786,4.61786 -10.8123,7.8123c-3.61938,1.27887 -6.8346,2.68901 -10.35762,4.18307c-0.84876,0.35995 -1.8542,0.33868 -2.64238,0.81693c-0.80603,0.48909 -1.17913,1.53625 -2,2c-1.20071,0.67835 -2.56002,1.07848 -3.91387,1.34109c-2.92485,0.56734 -6.05602,0.50934 -9,1c-1.03975,0.17329 -1.95602,0.85438 -3,1c-2.31096,0.32235 -4.70075,-0.39736 -7,0c-1.0387,0.17951 -1.95936,0.83216 -3,1c-2.92918,0.47242 -6.42654,0.03228 -9.40046,0.03228c-2.46685,0 -4.96698,0.37206 -7.40046,-0.03228c-3.66489,-0.60894 -7.4617,-2.60921 -10.71758,-4.23165c-5.16706,-2.59028 -10.72215,-5.94119 -14.00859,-10.92174c-1.59774,-2.42136 -2.33346,-6.7445 -3.24508,-9.52376c-0.67356,-2.05349 -0.94236,-4.23444 -1.09601,-6.39011c-0.11599,-1.62734 -1.54524,-3.56155 -0.56039,-4.86223c1.37317,-1.81351 8.81158,-1.03822 11.02811,-1.03822c6.08657,0 13.96434,-0.87527 16.71371,-7.51138c0.48387,-1.16791 0.59066,-2.45839 0.88599,-3.68759c0.1121,-0.33693 2.05582,-6.20282 2.15451,-6.39941c0.48068,-0.95747 1.51242,-1.61032 1.85306,-2.62608c0.28372,-0.84605 -0.2231,-1.79603 -0.07499,-2.676c0.19712,-1.17115 0.72045,-2.26343 1.09601,-3.39011c0.27104,-0.81311 1.43635,-3.31232 0.97898,-4.48497c-0.36799,-0.94349 -1.26113,-1.59379 -1.76955,-2.46964c-2.70785,-4.66483 -6.81917,-10.50232 -11.9361,-13.00903c-1.0193,-0.49934 -2.2418,-0.53662 -3.21595,-1.11916c-0.80916,-0.48388 -1.19707,-1.50584 -2,-2c-4.14765,-2.55269 -9.66254,-2.18438 -14.08613,-3.65891c-2.82894,0.02537 -6.40191,-0.48341 -9.19909,0c-1.0387,0.17951 -1.95936,0.83216 -3,1c-4.43376,0.71509 -8.7939,-0.1146 -13.14456,1.72808c-0.79425,0.3364 -1.0939,1.37018 -1.81332,1.84601c-3.43737,2.27352 -8.28745,4.03946 -10.19679,8.05657c-1.44235,3.03459 -3.20508,6.99447 -3.77936,10.30994c-0.17434,1.00651 0.22897,2.07168 -0.01154,3.06445c-0.395,1.63043 -1.51656,3.03376 -1.86348,4.6751c-0.83696,3.95977 0.19115,7.31044 -1.12369,11.25258c0.06964,5.60825 0.31936,10.70892 0.99991,16.24831c0.28253,2.29963 -0.32723,4.65709 0.00009,6.95078c0.45499,3.18836 1.74575,7.51223 2.87699,10.53309c0.55807,1.49027 1.64981,2.76328 2.08841,4.29298c0.26186,0.91327 -0.33409,1.94639 -0.04039,2.84992c0.31307,0.96311 1.26113,1.59379 1.76955,2.46964c1.13951,1.96304 2.37536,3.87987 3.77108,5.66984c0.62373,0.79992 0.80478,1.94897 1.58413,2.59821c0.6031,0.50241 1.52256,0.38519 2.27309,0.61506c1.88815,0.57831 3.65337,1.63641 5.60989,1.90399c2.46734,0.33744 5.02055,0.32994 7.39011,1.09601c4.28094,1.42698 9.2849,2.14287 13.30781,4.12592c3.09598,1.52613 5.35807,2.76271 8.69219,3.87408c2.66361,0.88787 7.54373,1.68371 9.72691,3.38494c1.09704,0.85486 1.53562,2.32501 2.41587,3.40179c1.91644,2.34432 4.63321,4.69569 6.19327,7.27064c0.54621,0.90154 0.45767,2.09612 1,3c0.48507,0.80845 1.52243,1.18709 2,2c0.64871,1.10423 1.15136,2.4361 1.58772,3.8258c0.09139,-0.00754 0.18656,-0.01147 0.28565,-0.01147z" stroke-width="0.5"/></g></g></svg>