<svg version="1.1" xmlns="http://www.w3.org/2000/svg" xmlns:xlink="http://www.w3.org/1999/xlink" width="69.64392" height="74.72752" viewBox="0,0,69.64392,74.72752"><g transform="translate(-205.53998,-136.56917)"><g data-paper-data="{&quot;isPaintingLayer&quot;:true}" fill-rule="nonzero" stroke-linejoin="miter" stroke-miterlimit="10" stroke-dasharray="" stroke-dashoffset="0" style="mix-blend-mode: normal"><path d="M219.31263,202.14638c-0.5696,0 -1.03136,-0.46175 -1.03136,-1.03136c0,-0.33505 1.82325,-7.35326 2.07076,-7.54166c0.10147,-0.07724 2.14406,-1.46561 2.10995,0.65465c-0.02414,1.50024 -2.11799,6.65098 -2.11799,6.88701c0,0.5696 -0.46175,1.03136 -1.03136,1.03136z" data-paper-data="{&quot;index&quot;:null}" fill="#d9b698" stroke="#b8b100" stroke-width="0" stroke-linecap="butt"/><path d="M212.45694,211.29667c-1.02392,0 -1.85398,-0.83006 -1.85398,-1.85398c0,-0.60229 3.27749,-13.21829 3.72241,-13.55694c0.1824,-0.13884 3.85417,-2.6346 3.79286,1.17681c-0.04339,2.69683 -3.80731,11.95585 -3.80731,12.38014c0,1.02392 -0.83006,1.85399 -1.85398,1.85399z" data-paper-data="{&quot;index&quot;:null}" fill="#d9b698" stroke="#b8b100" stroke-width="0" stroke-linecap="butt"/><path d="M260.37992,201.51045c0,-0.23603 -2.09385,-5.38677 -2.11799,-6.887c-0.03411,-2.12026 2.00847,-0.73189 2.10994,-0.65465c0.24751,0.18839 2.07076,7.2066 2.07076,7.54165c0,0.5696 -0.46175,1.03136 -1.03136,1.03136c-0.56961,0 -1.03136,-0.46176 -1.03136,-1.03136z" fill="#d9b698" stroke="#b8b100" stroke-width="0" stroke-linecap="butt"/><path d="M266.84099,209.32308c0,-0.42428 -3.76392,-9.6833 -3.80731,-12.38014c-0.06131,-3.81141 3.61045,-1.31564 3.79285,-1.17681c0.44492,0.33865 3.72242,12.95465 3.72242,13.55694c0,1.02392 -0.83005,1.85398 -1.85398,1.85398c-1.02393,0 -1.85399,-0.83006 -1.85399,-1.85398z" fill="#d9b698" stroke="#b8b100" stroke-width="0" stroke-linecap="butt"/><path d="M218.8767,197.06287v-9.09049h44.61518v9.09049z" fill="#f4cf76" stroke="#b8b100" stroke-width="0" stroke-linecap="butt"/><path d="M212.8961,196.46481l-5.98059,-26.5538c0,0 1.6971,-2.14192 3.75592,-3.19075c2.16238,-1.10159 8.92292,-3.26828 8.92292,-3.26828c0,0 4.44457,-0.16793 4.98182,0.68426c1.89266,3.00215 8.89314,21.3243 8.89314,21.3243z" fill="#e6c26e" stroke="#b8b100" stroke-width="0" stroke-linecap="butt"/><path d="M234.89169,147.32606c-0.0789,-0.23669 -0.02614,-0.40756 0.06216,-0.52633c-0.0924,-0.07574 -0.14289,-0.15507 -0.14289,-0.15507c-0.63727,-1.00202 -1.32557,-2.3482 -2.26513,-3.11063c-0.54952,-0.44592 -1.41313,-0.67036 -2.07433,-0.89069l-0.58949,-0.13603c-0.27141,-0.05662 -0.47529,-0.29722 -0.47529,-0.58544c0,-0.31665 0.24609,-0.57582 0.55745,-0.5967l0.61672,-0.04744l0.00045,0.00596c0.00747,-0.00247 0.01496,-0.00489 0.02247,-0.00728c0.00174,-0.00056 1.26841,-0.00046 1.31475,-0.00044c1.15759,0.00041 2.32972,0.07125 3.33654,0.71627c1.03754,0.6647 2.38201,2.50873 2.13053,3.82432c-0.15672,0.81987 -0.81957,1.35813 -1.46194,1.77709l-0.2755,0.11066c0,0 -0.56736,0.18912 -0.75649,-0.37825z" fill="#a8cab2" stroke="none" stroke-width="0.5" stroke-linecap="butt"/><path d="M236.10456,144.74994c-0.04534,-0.22448 0.02188,-0.37422 0.11564,-0.47252c-0.07568,-0.07935 -0.11279,-0.1573 -0.11279,-0.1573c-0.46824,-0.98431 -0.94438,-2.28787 -1.71487,-3.08779c-0.45064,-0.46785 -1.21225,-0.76913 -1.78992,-1.04399l-0.52179,-0.19002c-0.24091,-0.08201 -0.39968,-0.32407 -0.36737,-0.58664c0.0355,-0.28848 0.28875,-0.497 0.57475,-0.48111l0.56716,0.02591l-0.00025,0.00548c0.00708,-0.00141 0.01417,-0.00278 0.02128,-0.00411c0.00165,-0.00031 1.1556,0.14178 1.19782,0.14699c1.05454,0.13014 2.11445,0.32609 2.95937,1.0266c0.8707,0.72188 1.88882,2.55255 1.51222,3.7229c-0.23469,0.72935 -0.89891,1.1454 -1.53109,1.45507l-0.26339,0.06993c0,0 -0.53809,0.10869 -0.64678,-0.4294z" fill="#a8cab2" stroke="none" stroke-width="0.5" stroke-linecap="butt"/><path d="M242.86289,147.94353l-0.2755,-0.11065c-0.64237,-0.41896 -1.30522,-0.95722 -1.46194,-1.77709c-0.25149,-1.3156 1.09298,-3.15962 2.13052,-3.82433c1.00681,-0.64502 2.17896,-0.71587 3.33654,-0.71627c0.04635,-0.00002 1.31302,-0.00011 1.31476,0.00044c0.0075,0.00239 0.01499,0.00481 0.02246,0.00728l0.00045,-0.00597l0.61673,0.04744c0.31136,0.02088 0.55745,0.28006 0.55745,0.59671c0,0.28822 -0.20388,0.52882 -0.47529,0.58544l-0.58949,0.13603c-0.6612,0.22033 -1.52482,0.44477 -2.07434,0.89069c-0.93956,0.76243 -1.62786,2.10861 -2.26514,3.11063c0,0 -0.05048,0.07934 -0.14288,0.15508c0.0883,0.11876 0.14106,0.28963 0.06216,0.52632c-0.18912,0.56737 -0.75649,0.37824 -0.75649,0.37824z" data-paper-data="{&quot;index&quot;:null}" fill="#a8cab2" stroke="none" stroke-width="0.5" stroke-linecap="butt"/><path d="M241.75972,145.41857l-0.26339,-0.06993c-0.63218,-0.30967 -1.29639,-0.72572 -1.53109,-1.45507c-0.3766,-1.17034 0.64152,-3.00102 1.51222,-3.7229c0.84492,-0.7005 1.90483,-0.89646 2.95937,-1.0266c0.04223,-0.00521 1.19617,-0.1473 1.19782,-0.14699c0.0071,0.00133 0.0142,0.00271 0.02128,0.00412l-0.00025,-0.00549l0.56716,-0.02592c0.286,-0.01588 0.53924,0.19264 0.57475,0.48112c0.03231,0.26257 -0.12646,0.50463 -0.36737,0.58664l-0.52179,0.19002c-0.57767,0.27486 -1.33929,0.57613 -1.78992,1.04398c-0.77049,0.79993 -1.24663,2.10349 -1.71487,3.0878c0,0 -0.03711,0.07793 -0.11279,0.1573c0.09376,0.0983 0.16098,0.24804 0.11563,0.47252c-0.10869,0.53809 -0.64677,0.4294 -0.64677,0.4294z" data-paper-data="{&quot;index&quot;:null}" fill="#a8cab2" stroke="none" stroke-width="0.5" stroke-linecap="butt"/><path d="M234.71217,152.92614c0,0 -1.7825,-11.98109 2.54847,-14.84619c0.59152,-0.39131 1.23728,-1.51078 2.077,-1.51078c1.07251,0 2.01036,1.31965 2.72839,1.93382c3.96029,3.38749 3.05237,14.42314 3.05237,14.42314z" fill="#a8cab2" stroke="#b8b100" stroke-width="0" stroke-linecap="butt"/><path d="M247.25458,185.85598c0,0 7.00047,-18.32215 8.89314,-21.3243c0.53725,-0.85219 4.98182,-0.68426 4.98182,-0.68426c0,0 6.76054,2.16669 8.92292,3.26828c2.05881,1.04883 3.75592,3.19075 3.75592,3.19075l-5.98059,26.5538z" data-paper-data="{&quot;index&quot;:null}" fill="#e6c26e" stroke="#b8b100" stroke-width="0" stroke-linecap="butt"/><path d="M260.35207,197.99657l3.22951,-26.31458c0,0 1.80387,-2.17081 3.54916,-3.31776c0.49793,-0.32722 3.15488,-0.70365 4.78536,0.05881c2.12949,0.99581 3.26781,3.25895 3.26781,3.25895l-5.1433,25.71653z" data-paper-data="{&quot;index&quot;:null}" fill="#f4cf76" stroke="#b8b100" stroke-width="0" stroke-linecap="butt"/><path d="M221.25585,164.76771c0,-10.30532 8.35411,-18.65943 18.65943,-18.65943c10.30532,0 18.65943,8.35411 18.65943,18.65943c0,10.30532 -8.35411,18.65943 -18.65943,18.65943c-10.30532,0 -18.65943,-8.35411 -18.65943,-18.65943z" fill="#f7da94" stroke="#b8b100" stroke-width="0" stroke-linecap="butt"/><path d="M223.72096,174.45626l31.39808,0.29903l6.1002,9.68855l-1.19612,7.1767l-39.47187,-0.83728l-0.23923,-8.01398z" fill="#f3d692" stroke="#b8b100" stroke-width="0" stroke-linecap="round"/><path d="M210.68329,197.00307l-5.1433,-25.71652c0,0 1.13832,-2.26315 3.26781,-3.25896c1.63048,-0.76246 4.28743,-0.38603 4.78536,-0.05881c1.74529,1.14695 3.54916,3.31777 3.54916,3.31777l3.22952,26.31458z" fill="#f4cf76" stroke="#b8b100" stroke-width="0" stroke-linecap="butt"/><path d="M261.21925,184.44384l-1.19612,7.97411c0,0 -13.30728,0.51811 -19.93977,0.49813c-6.60442,-0.01989 -19.77132,-0.61774 -19.77132,-0.61774v-9.52907z" fill="#e2c787" stroke="#b8b100" stroke-width="0" stroke-linecap="round"/></g></g></svg>