<svg version="1.1" xmlns="http://www.w3.org/2000/svg" xmlns:xlink="http://www.w3.org/1999/xlink" width="66" height="65.82067" viewBox="0,0,66,65.82067"><g transform="translate(-207,-147.16851)"><g data-paper-data="{&quot;isPaintingLayer&quot;:true}" fill-rule="nonzero" stroke-linecap="butt" stroke-linejoin="miter" stroke-miterlimit="10" stroke-dasharray="" stroke-dashoffset="0" style="mix-blend-mode: normal"><path d="M238.98913,181.16851v-32h32v32z" fill="#ce7ca7" stroke="#000000" stroke-width="4"/><path d="M241.98913,163.1685v-11h11v11z" fill="#a3457d" stroke="none" stroke-width="1"/><path d="M256.98913,163.1685v-11h11v11z" fill="#bc6296" stroke="none" stroke-width="1"/><path d="M241.98913,178.16851v-11h11v11z" fill="#bc6296" stroke="none" stroke-width="1"/><path d="M256.98913,178.16851v-11h11v11z" fill="#a3457d" stroke="none" stroke-width="1"/><path d="M271,178.98918v32h-17v-15h-13v15h-17v-15h-15v-17z" fill="#ce7ca7" stroke="#000000" stroke-width="4"/><path d="M212,192.98918v-11h11v11z" fill="#a3457d" stroke="none" stroke-width="1"/><path d="M242,192.98918v-11h11v11z" fill="#a3457d" stroke="none" stroke-width="1"/><path d="M227,192.98918v-11h11v11z" fill="#bc6296" stroke="none" stroke-width="1"/><path d="M257,192.98918v-11h11v11z" fill="#bc6296" stroke="none" stroke-width="1"/><path d="M227,207.98919v-11h11v11z" fill="#a3457d" stroke="none" stroke-width="1"/><path d="M257,207.98919v-11h11v11z" fill="#a3457d" stroke="none" stroke-width="1"/></g></g></svg>