<svg version="1.1" xmlns="http://www.w3.org/2000/svg" xmlns:xlink="http://www.w3.org/1999/xlink" width="56.63978" height="61.76188" viewBox="0,0,56.63978,61.76188"><g transform="translate(-205.36023,-118.23812)"><g data-paper-data="{&quot;isPaintingLayer&quot;:true}" fill-rule="nonzero" stroke-linecap="butt" stroke-linejoin="miter" stroke-miterlimit="10" stroke-dasharray="" stroke-dashoffset="0" style="mix-blend-mode: normal"><path d="M225.00001,165v-14h18v14z" fill="#000000" stroke="none" stroke-width="1"/><path d="M261.00001,165v14h-42v-14h32v-3c0,-1.10457 0.89543,-2 2,-2h3c1.10457,0 2,0.89543 2,2v3z" fill="#ffffff" stroke="#ffffff" stroke-width="2"/><g fill="#ffffff" stroke="none" stroke-width="0.5"><g><path d="M262.00001,166h-44v-23c0,-3.86599 3.13401,-7 7,-7h30c3.86599,0 7,3.13401 7,7z"/></g></g><path d="M207.19373,137.44829l10.58116,2.06856l0.92909,-10.40157l8.49637,4.61149l3.07735,-13.57592l11.02859,17.20088l-22.58397,14.79745z" fill="#ffffff" stroke="#ffffff" stroke-width="1.5"/></g></g></svg>