<svg version="1.1" xmlns="http://www.w3.org/2000/svg" xmlns:xlink="http://www.w3.org/1999/xlink" width="699.64286" height="720.35715" viewBox="0,0,699.64286,720.35715"><g transform="translate(69.05953,193.67857)"><g data-paper-data="{&quot;isPaintingLayer&quot;:true}" fill="none" fill-rule="nonzero" stroke="#6f6f6f" stroke-width="2.5" stroke-linecap="round" stroke-linejoin="miter" stroke-miterlimit="10" stroke-dasharray="" stroke-dashoffset="0" style="mix-blend-mode: normal"><path d="M-67.80953,272.57143h25"/><path d="M-67.80953,257.57143h25"/><path d="M-67.80952,242.57143l25,0"/><path d="M-67.80953,227.57143l25,0"/><path d="M-67.80953,212.57143l25,0"/><path d="M-42.80952,197.57143l-25,0"/><path d="M-42.80952,182.57143l-25,0"/><path d="M-42.80952,167.57143l-25,0"/><path d="M-42.80952,152.57143l-25,0"/><path d="M-42.80952,137.57143l-25,0"/><path d="M-42.80952,122.57143l-25,0"/><path d="M-42.80952,107.57143h-25"/><path d="M-42.80952,92.57143l-25,0"/><path d="M-67.80952,77.57143l25,0"/><path d="M-67.80952,62.57143h25"/><path d="M-67.80952,47.57143l25,0"/><path d="M-67.80953,272.57143h25"/><path d="M-67.80953,257.57143h25"/><path d="M-67.80952,242.57143l25,0"/><path d="M-67.80953,227.57143l25,0"/><path d="M-67.80953,212.57143l25,0"/><path d="M-42.80952,197.57143l-25,0"/><path d="M-42.80952,182.57143l-25,0"/><path d="M-42.80952,167.57143l-25,0"/><path d="M-42.80952,152.57143l-25,0"/><path d="M-42.80952,137.57143l-25,0"/><path d="M-42.80952,122.57143l-25,0"/><path d="M-42.80952,107.57143h-25"/><path d="M-42.80952,92.57143l-25,0"/><path d="M-67.80952,77.57143l25,0"/><path d="M-67.80952,62.57143h25"/><path d="M-67.80952,47.57143l25,0"/><path d="M-67.80952,32.57143l25,0"/><path d="M-67.80952,17.57143l25,0"/><path d="M-67.80952,2.57143h25"/><path d="M-67.80952,-12.42857h25"/><path d="M-67.80952,-27.42857h25"/><path d="M-67.80952,-42.42857h25"/><path d="M-67.80952,-57.42857h25"/><path d="M-67.80952,-72.42857l25,0"/><path d="M-67.80952,-87.42857l25,0"/><path d="M-67.80952,-102.42857l25,0"/><path d="M-67.80952,-117.42857l25,0"/><path d="M-67.80952,-132.42857h25"/><path d="M-67.80952,-147.42857h25"/><path d="M-67.80952,-162.42857h25"/><path d="M-67.80952,-177.42857l25,0"/><path d="M-67.80952,-192.42857l25,0"/><path d="M-22.80952,272.57143l25,0"/><path d="M-22.80952,257.57143h25"/><path d="M-22.80953,242.57143l25,0"/><path d="M-22.80952,227.57143h25"/><path d="M-22.80952,212.57143l25,0"/><path d="M2.19047,197.57143h-25"/><path d="M2.19048,182.57143h-25"/><path d="M-22.80952,167.57143l25,0"/><path d="M-22.80952,152.57143h25"/><path d="M2.19048,137.57143l-25,0"/><path d="M-22.80952,122.57143l25,0"/><path d="M-22.80952,107.57143h25"/><path d="M-22.80952,92.57143h25"/><path d="M-22.80952,77.57143h25"/><path d="M-22.80952,62.57143h25"/><path d="M2.19047,47.57143h-25"/><path d="M-22.80952,272.57143l25,0"/><path d="M-22.80952,257.57143h25"/><path d="M-22.80953,242.57143l25,0"/><path d="M-22.80952,227.57143h25"/><path d="M-22.80952,212.57143l25,0"/><path d="M2.19047,197.57143h-25"/><path d="M2.19048,182.57143h-25"/><path d="M-22.80952,167.57143l25,0"/><path d="M-22.80952,152.57143h25"/><path d="M2.19048,137.57143l-25,0"/><path d="M-22.80952,122.57143l25,0"/><path d="M-22.80952,107.57143h25"/><path d="M-22.80952,92.57143h25"/><path d="M-22.80952,77.57143h25"/><path d="M-22.80952,62.57143h25"/><path d="M2.19047,47.57143h-25"/><path d="M2.19048,32.57143h-25"/><path d="M2.19048,17.57143h-25"/><path d="M2.19048,2.57143h-25"/><path d="M2.19048,-12.42857l-25,0"/><path d="M2.19048,-27.42857h-25"/><path d="M2.19048,-42.42857l-25,0"/><path d="M2.19048,-57.42857h-25"/><path d="M2.19048,-72.42857h-25"/><path d="M2.19048,-87.42857l-25,0"/><path d="M2.19048,-102.42857h-25"/><path d="M2.19048,-117.42857l-25,0"/><path d="M-22.80952,-132.42857l25,0"/><path d="M-22.80952,-147.42857h25"/><path d="M-22.80952,-162.42857l25,0"/><path d="M-22.80952,-177.42857h25"/><path d="M-22.80952,-192.42857l25,0"/><path d="M22.19047,272.57143h25"/><path d="M22.19047,257.57143h25"/><path d="M22.19047,242.57143h25"/><path d="M22.19047,227.57143h25"/><path d="M22.19047,212.57143h25"/><path d="M22.19047,197.57143h25"/><path d="M22.19048,182.57143h25"/><path d="M22.19048,167.57143l25,0"/><path d="M22.19048,152.57143h25"/><path d="M22.19048,137.57143h25"/><path d="M22.19048,122.57143l25,0"/><path d="M22.19048,107.57143l25,0"/><path d="M22.19048,92.57143h25"/><path d="M22.19047,77.57143h25"/><path d="M22.19048,62.57143h25"/><path d="M22.19048,47.57143h25"/><path d="M22.19047,272.57143h25"/><path d="M22.19047,257.57143h25"/><path d="M22.19047,242.57143h25"/><path d="M22.19047,227.57143h25"/><path d="M22.19047,212.57143h25"/><path d="M22.19047,197.57143h25"/><path d="M22.19048,182.57143h25"/><path d="M22.19048,167.57143l25,0"/><path d="M22.19048,152.57143h25"/><path d="M22.19048,137.57143h25"/><path d="M22.19048,122.57143l25,0"/><path d="M22.19048,107.57143l25,0"/><path d="M22.19048,92.57143h25"/><path d="M22.19047,77.57143h25"/><path d="M22.19048,62.57143h25"/><path d="M22.19048,47.57143h25"/><path d="M22.19048,32.57143h25"/><path d="M22.19048,17.57143h25"/><path d="M47.19048,2.57143h-25"/><path d="M47.19048,-12.42857l-25,0"/><path d="M47.19048,-27.42857h-25"/><path d="M47.19048,-42.42857l-25,0"/><path d="M47.19048,-57.42857h-25"/><path d="M47.19048,-72.42857l-25,0"/><path d="M47.19048,-87.42857l-25,0"/><path d="M47.19048,-102.42857h-25"/><path d="M47.19048,-117.42857l-25,0"/><path d="M47.19048,-132.42857h-25"/><path d="M47.19048,-147.42857l-25,0"/><path d="M47.19048,-162.42857l-25,0"/><path d="M47.19048,-177.42857l-25,0"/><path d="M47.19048,-192.42857h-25"/><path d="M67.19047,272.57143h25"/><path d="M67.19048,257.57143h25"/><path d="M67.19047,242.57143h25"/><path d="M67.19048,227.57143h25"/><path d="M67.19048,212.57143h25"/><path d="M67.19048,197.57143h25"/><path d="M67.19048,182.57143h25"/><path d="M67.19048,167.57143h25"/><path d="M67.19048,152.57143h25"/><path d="M67.19048,137.57143h25"/><path d="M67.19048,122.57143h25"/><path d="M67.19048,107.57143h25"/><path d="M67.19048,92.57143h25"/><path d="M67.19048,77.57143h25"/><path d="M67.19048,62.57143h25"/><path d="M67.19048,47.57143h25"/><path d="M67.19047,272.57143h25"/><path d="M67.19048,257.57143h25"/><path d="M67.19047,242.57143h25"/><path d="M67.19048,227.57143h25"/><path d="M67.19048,212.57143h25"/><path d="M67.19048,197.57143h25"/><path d="M67.19048,182.57143h25"/><path d="M67.19048,167.57143h25"/><path d="M67.19048,152.57143h25"/><path d="M67.19048,137.57143h25"/><path d="M67.19048,122.57143h25"/><path d="M67.19048,107.57143h25"/><path d="M67.19048,92.57143h25"/><path d="M67.19048,77.57143h25"/><path d="M67.19048,62.57143h25"/><path d="M67.19048,47.57143h25"/><path d="M67.19048,32.57143h25"/><path d="M67.19048,17.57143h25"/><path d="M92.19048,2.57143l-25,0"/><path d="M92.19048,-12.42857h-25"/><path d="M92.19048,-27.42857h-25"/><path d="M92.19048,-42.42857l-25,0"/><path d="M92.19048,-57.42857h-25"/><path d="M92.19048,-72.42857l-25,0"/><path d="M67.19048,-87.42857h25"/><path d="M67.19048,-102.42857l25,0"/><path d="M67.19048,-117.42857l25,0"/><path d="M67.19048,-132.42857h25"/><path d="M67.19048,-147.42857h25"/><path d="M67.19048,-162.42857h25"/><path d="M67.19048,-177.42857l25,0"/><path d="M67.19048,-192.42857h25"/><path d="M112.19048,272.57143h25"/><path d="M112.19048,257.57143h25"/><path d="M112.19048,242.57143l25,0"/><path d="M112.19048,227.57143h25"/><path d="M112.19048,212.57143h25"/><path d="M112.19048,197.57143l25,0"/><path d="M112.19048,182.57143h25"/><path d="M112.19048,167.57143h25"/><path d="M112.19048,152.57143l25,0"/><path d="M112.19048,137.57143h25"/><path d="M112.19048,122.57143h25"/><path d="M112.19048,107.57143h25"/><path d="M112.19048,92.57143h25"/><path d="M112.19048,77.57143h25"/><path d="M112.19048,62.57143h25"/><path d="M112.19048,47.57143h25"/><path d="M112.19048,272.57143h25"/><path d="M112.19048,257.57143h25"/><path d="M112.19048,242.57143l25,0"/><path d="M112.19048,227.57143h25"/><path d="M112.19048,212.57143h25"/><path d="M112.19048,197.57143l25,0"/><path d="M112.19048,182.57143h25"/><path d="M112.19048,167.57143h25"/><path d="M112.19048,152.57143l25,0"/><path d="M112.19048,137.57143h25"/><path d="M112.19048,122.57143h25"/><path d="M112.19048,107.57143h25"/><path d="M112.19048,92.57143h25"/><path d="M112.19048,77.57143h25"/><path d="M112.19048,62.57143h25"/><path d="M112.19048,47.57143h25"/><path d="M112.19048,32.57143h25"/><path d="M112.19048,17.57143h25"/><path d="M112.19048,2.57143h25"/><path d="M112.19048,-12.42857h25"/><path d="M112.19048,-27.42857h25"/><path d="M112.19048,-42.42857l25,0"/><path d="M112.19048,-57.42857h25"/><path d="M112.19048,-72.42857h25"/><path d="M112.19048,-87.42857h25"/><path d="M112.19048,-102.42857h25"/><path d="M112.19048,-117.42857l25,0"/><path d="M112.19048,-132.42857h25"/><path d="M112.19048,-147.42857l25,0"/><path d="M112.19048,-162.42857h25"/><path d="M137.19048,-177.42857l-25,0"/><path d="M137.19048,-192.42857h-25"/><path d="M157.19048,272.57143h25"/><path d="M157.19048,257.57143l25,0"/><path d="M157.19048,242.57143l25,0"/><path d="M157.19048,227.57143l25,0"/><path d="M157.19048,212.57143l25,0"/><path d="M157.19048,197.57143l25,0"/><path d="M157.19048,182.57143l25,0"/><path d="M157.19048,167.57143l25,0"/><path d="M157.19048,152.57143l25,0"/><path d="M157.19048,137.57143h25"/><path d="M182.19048,122.57143l-25,0"/><path d="M182.19048,107.57143h-25"/><path d="M182.19048,92.57143h-25"/><path d="M182.19048,77.57143h-25"/><path d="M182.19048,62.57143h-25"/><path d="M182.19048,47.57143h-25"/><path d="M157.19048,272.57143h25"/><path d="M157.19048,257.57143l25,0"/><path d="M157.19048,242.57143l25,0"/><path d="M157.19048,227.57143l25,0"/><path d="M157.19048,212.57143l25,0"/><path d="M157.19048,197.57143l25,0"/><path d="M157.19048,182.57143l25,0"/><path d="M157.19048,167.57143l25,0"/><path d="M157.19048,152.57143l25,0"/><path d="M157.19048,137.57143h25"/><path d="M182.19048,122.57143l-25,0"/><path d="M182.19048,107.57143h-25"/><path d="M182.19048,92.57143h-25"/><path d="M182.19048,77.57143h-25"/><path d="M182.19048,62.57143h-25"/><path d="M182.19048,47.57143h-25"/><path d="M182.19048,32.57143h-25"/><path d="M182.19048,17.57143h-25"/><path d="M182.19048,2.57143h-25"/><path d="M182.19048,-12.42857h-25"/><path d="M182.19048,-27.42857h-25"/><path d="M182.19048,-42.42857h-25"/><path d="M182.19048,-57.42857h-25"/><path d="M182.19048,-72.42857h-25"/><path d="M182.19048,-87.42857l-25,0"/><path d="M182.19048,-102.42857h-25"/><path d="M182.19048,-117.42857l-25,0"/><path d="M182.19048,-132.42857h-25"/><path d="M182.19048,-147.42857l-25,0"/><path d="M182.19048,-162.42857h-25"/><path d="M182.19048,-177.42857l-25,0"/><path d="M182.19048,-192.42857h-25"/><path d="M227.19048,272.57143h-25"/><path d="M227.19048,257.57143l-25,0"/><path d="M227.19048,242.57143l-25,0"/><path d="M227.19048,227.57143l-25,0"/><path d="M227.19048,212.57143l-25,0"/><path d="M227.19048,197.57143l-25,0"/><path d="M202.19048,182.57143h25"/><path d="M202.19048,167.57143h25"/><path d="M202.19048,152.57143l25,0"/><path d="M202.19048,137.57143h25"/><path d="M202.19048,122.57143l25,0"/><path d="M202.19048,107.57143h25"/><path d="M202.19048,92.57143l25,0"/><path d="M202.19048,77.57143l25,0"/><path d="M202.19048,62.57143h25"/><path d="M202.19048,47.57143h25"/><path d="M227.19048,272.57143h-25"/><path d="M227.19048,257.57143l-25,0"/><path d="M227.19048,242.57143l-25,0"/><path d="M227.19048,227.57143l-25,0"/><path d="M227.19048,212.57143l-25,0"/><path d="M227.19048,197.57143l-25,0"/><path d="M202.19048,182.57143h25"/><path d="M202.19048,167.57143h25"/><path d="M202.19048,152.57143l25,0"/><path d="M202.19048,137.57143h25"/><path d="M202.19048,122.57143l25,0"/><path d="M202.19048,107.57143h25"/><path d="M202.19048,92.57143l25,0"/><path d="M202.19048,77.57143l25,0"/><path d="M202.19048,62.57143h25"/><path d="M202.19048,47.57143h25"/><path d="M202.19048,32.57143l25,0"/><path d="M202.19048,17.57143l25,0"/><path d="M227.19048,2.57143l-25,0"/><path d="M227.19048,-12.42857h-25"/><path d="M227.19048,-27.42857h-25"/><path d="M227.19048,-42.42857h-25"/><path d="M227.19048,-57.42857l-25,0"/><path d="M227.19048,-72.42857h-25"/><path d="M227.19048,-87.42857l-25,0"/><path d="M227.19048,-102.42857l-25,0"/><path d="M227.19048,-117.42857h-25"/><path d="M227.19048,-132.42857h-25"/><path d="M227.19048,-147.42857l-25,0"/><path d="M227.19048,-162.42857l-25,0"/><path d="M227.19048,-177.42857l-25,0"/><path d="M227.19048,-192.42857h-25"/><path d="M272.19048,272.57143l-25,0"/><path d="M272.19048,257.57143h-25"/><path d="M272.19048,242.57143l-25,0"/><path d="M247.19048,227.57143l25,0"/><path d="M247.19048,212.57143h25"/><path d="M247.19048,197.57143l25,0"/><path d="M247.19048,182.57143l25,0"/><path d="M247.19048,167.57143l25,0"/><path d="M247.19048,152.57143l25,0"/><path d="M247.19048,137.57143l25,0"/><path d="M247.19048,122.57143l25,0"/><path d="M247.19048,107.57143h25"/><path d="M247.19048,92.57143l25,0"/><path d="M247.19048,77.57143l25,0"/><path d="M247.19048,62.57143h25"/><path d="M247.19048,47.57143h25"/><path d="M272.19048,272.57143l-25,0"/><path d="M272.19048,257.57143h-25"/><path d="M272.19048,242.57143l-25,0"/><path d="M247.19048,227.57143l25,0"/><path d="M247.19048,212.57143h25"/><path d="M247.19048,197.57143l25,0"/><path d="M247.19048,182.57143l25,0"/><path d="M247.19048,167.57143l25,0"/><path d="M247.19048,152.57143l25,0"/><path d="M247.19048,137.57143l25,0"/><path d="M247.19048,122.57143l25,0"/><path d="M247.19048,107.57143h25"/><path d="M247.19048,92.57143l25,0"/><path d="M247.19048,77.57143l25,0"/><path d="M247.19048,62.57143h25"/><path d="M247.19048,47.57143h25"/><path d="M247.19048,32.57143l25,0"/><path d="M247.19048,17.57143h25"/><path d="M272.19048,2.57143l-25,0"/><path d="M272.19048,-12.42857h-25"/><path d="M272.19048,-27.42857h-25"/><path d="M272.19048,-42.42857h-25"/><path d="M272.19048,-57.42857h-25"/><path d="M247.19048,-72.42857h25"/><path d="M272.19048,-87.42857l-25,0"/><path d="M272.19048,-102.42857l-25,0"/><path d="M272.19048,-117.42857h-25"/><path d="M272.19048,-132.42857l-25,0"/><path d="M272.19048,-147.42857l-25,0"/><path d="M272.19048,-162.42857l-25,0"/><path d="M272.19048,-177.42857l-25,0"/><path d="M272.19048,-192.42857h-25"/><path d="M-67.80952,287.33334h25"/><path d="M-67.80952,287.33334h25"/><path d="M-22.80952,287.33334h25"/><path d="M-22.80952,287.33334h25"/><path d="M22.19047,287.33334h25"/><path d="M22.19047,287.33334h25"/><path d="M92.19048,287.33334h-25"/><path d="M92.19048,287.33334h-25"/><path d="M137.19048,287.33334h-25"/><path d="M137.19048,287.33334h-25"/><path d="M157.19048,287.33334h25"/><path d="M157.19048,287.33334h25"/><path d="M202.19048,287.33334h25"/><path d="M202.19048,287.33334h25"/><path d="M247.19048,287.33334h25"/><path d="M247.19048,287.33334h25"/><path d="M-67.80953,510.66667l25,0"/><path d="M-67.80953,495.66667l25,0"/><path d="M-67.80953,480.66667l25,0"/><path d="M-67.80953,465.66667h25"/><path d="M-67.80953,450.66667h25"/><path d="M-67.80953,435.66667h25"/><path d="M-67.80953,420.66667l25,0"/><path d="M-67.80953,405.66667l25,0"/><path d="M-67.80953,390.66667h25"/><path d="M-67.80953,375.66667l25,0"/><path d="M-67.80953,360.66667h25"/><path d="M-67.80953,345.66667l25,0"/><path d="M-67.80952,330.66667h25"/><path d="M-67.80953,315.66667l25,0"/><path d="M-67.80952,300.66667h25"/><path d="M-67.80953,510.66667l25,0"/><path d="M-67.80953,495.66667l25,0"/><path d="M-67.80953,480.66667l25,0"/><path d="M-67.80953,465.66667h25"/><path d="M-67.80953,450.66667h25"/><path d="M-67.80953,435.66667h25"/><path d="M-67.80953,420.66667l25,0"/><path d="M-67.80953,405.66667l25,0"/><path d="M-67.80953,390.66667h25"/><path d="M-67.80953,375.66667l25,0"/><path d="M-67.80953,360.66667h25"/><path d="M-67.80953,345.66667l25,0"/><path d="M-67.80952,330.66667h25"/><path d="M-67.80953,315.66667l25,0"/><path d="M-67.80952,300.66667h25"/><path d="M-22.80953,510.66667h25"/><path d="M-22.80952,495.66667h25"/><path d="M2.19047,480.66667h-25"/><path d="M-22.80952,465.66667h25"/><path d="M-22.80953,450.66667l25,0"/><path d="M-22.80953,435.66667h25"/><path d="M2.19047,420.66667h-25"/><path d="M-22.80953,405.66667h25"/><path d="M-22.80953,390.66667h25"/><path d="M-22.80953,375.66667h25"/><path d="M-22.80952,360.66667h25"/><path d="M-22.80952,345.66667h25"/><path d="M-22.80952,330.66667h25"/><path d="M-22.80952,315.66667h25"/><path d="M-22.80952,300.66667h25"/><path d="M-22.80953,510.66667h25"/><path d="M-22.80952,495.66667h25"/><path d="M2.19047,480.66667h-25"/><path d="M-22.80952,465.66667h25"/><path d="M-22.80953,450.66667l25,0"/><path d="M-22.80953,435.66667h25"/><path d="M2.19047,420.66667h-25"/><path d="M-22.80953,405.66667h25"/><path d="M-22.80953,390.66667h25"/><path d="M-22.80953,375.66667h25"/><path d="M-22.80952,360.66667h25"/><path d="M-22.80952,345.66667h25"/><path d="M-22.80952,330.66667h25"/><path d="M-22.80952,315.66667h25"/><path d="M-22.80952,300.66667h25"/><path d="M22.19047,510.66667h25"/><path d="M22.19047,495.66667l25,0"/><path d="M22.19047,480.66667h25"/><path d="M22.19047,465.66667l25,0"/><path d="M47.19047,450.66667l-25,0"/><path d="M22.19047,435.66667h25"/><path d="M47.19047,420.66667h-25"/><path d="M47.19047,405.66667l-25,0"/><path d="M22.19047,390.66667h25"/><path d="M22.19047,375.66667h25"/><path d="M47.19047,360.66667h-25"/><path d="M47.19047,345.66667h-25"/><path d="M22.19047,330.66667h25"/><path d="M22.19047,315.66667l25,0"/><path d="M22.19048,300.66667h25"/><path d="M22.19047,510.66667h25"/><path d="M22.19047,495.66667l25,0"/><path d="M22.19047,480.66667h25"/><path d="M22.19047,465.66667l25,0"/><path d="M47.19047,450.66667l-25,0"/><path d="M22.19047,435.66667h25"/><path d="M47.19047,420.66667h-25"/><path d="M47.19047,405.66667l-25,0"/><path d="M22.19047,390.66667h25"/><path d="M22.19047,375.66667h25"/><path d="M47.19047,360.66667h-25"/><path d="M47.19047,345.66667h-25"/><path d="M22.19047,330.66667h25"/><path d="M22.19047,315.66667l25,0"/><path d="M22.19048,300.66667h25"/><path d="M67.19047,510.66667h25"/><path d="M67.19047,495.66667h25"/><path d="M67.19047,480.66667h25"/><path d="M67.19047,465.66667h25"/><path d="M67.19047,450.66667h25"/><path d="M67.19047,435.66667h25"/><path d="M67.19047,420.66667h25"/><path d="M67.19047,405.66667h25"/><path d="M67.19047,390.66667h25"/><path d="M67.19047,375.66667h25"/><path d="M67.19047,360.66667h25"/><path d="M67.19048,345.66667h25"/><path d="M67.19048,330.66667h25"/><path d="M67.19048,315.66667h25"/><path d="M67.19048,300.66667h25"/><path d="M67.19047,510.66667h25"/><path d="M67.19047,495.66667h25"/><path d="M67.19047,480.66667h25"/><path d="M67.19047,465.66667h25"/><path d="M67.19047,450.66667h25"/><path d="M67.19047,435.66667h25"/><path d="M67.19047,420.66667h25"/><path d="M67.19047,405.66667h25"/><path d="M67.19047,390.66667h25"/><path d="M67.19047,375.66667h25"/><path d="M67.19047,360.66667h25"/><path d="M67.19048,345.66667h25"/><path d="M67.19048,330.66667h25"/><path d="M67.19048,315.66667h25"/><path d="M67.19048,300.66667h25"/><path d="M137.19047,510.66667h-25"/><path d="M137.19048,495.66667l-25,0"/><path d="M112.19047,480.66667l25,0"/><path d="M112.19047,465.66667l25,0"/><path d="M112.19047,450.66667h25"/><path d="M112.19047,435.66667l25,0"/><path d="M137.19048,420.66667h-25"/><path d="M137.19048,405.66667h-25"/><path d="M137.19048,390.66667h-25"/><path d="M137.19048,375.66667h-25"/><path d="M137.19048,360.66667l-25,0"/><path d="M137.19048,345.66667h-25"/><path d="M112.19048,330.66667h25"/><path d="M112.19048,315.66667h25"/><path d="M112.19048,300.66667h25"/><path d="M137.19047,510.66667h-25"/><path d="M137.19048,495.66667l-25,0"/><path d="M112.19047,480.66667l25,0"/><path d="M112.19047,465.66667l25,0"/><path d="M112.19047,450.66667h25"/><path d="M112.19047,435.66667l25,0"/><path d="M137.19048,420.66667h-25"/><path d="M137.19048,405.66667h-25"/><path d="M137.19048,390.66667h-25"/><path d="M137.19048,375.66667h-25"/><path d="M137.19048,360.66667l-25,0"/><path d="M137.19048,345.66667h-25"/><path d="M112.19048,330.66667h25"/><path d="M112.19048,315.66667h25"/><path d="M112.19048,300.66667h25"/><path d="M182.19048,510.66667h-25"/><path d="M157.19048,495.66667h25"/><path d="M157.19048,480.66667h25"/><path d="M157.19048,465.66667l25,0"/><path d="M157.19047,450.66667l25,0"/><path d="M157.19048,435.66667l25,0"/><path d="M182.19048,420.66667l-25,0"/><path d="M182.19047,405.66667l-25,0"/><path d="M182.19048,390.66667h-25"/><path d="M182.19048,375.66667h-25"/><path d="M182.19048,360.66667h-25"/><path d="M182.19048,345.66667l-25,0"/><path d="M182.19048,330.66667l-25,0"/><path d="M182.19048,315.66667l-25,0"/><path d="M157.19048,300.66667h25"/><path d="M182.19048,510.66667h-25"/><path d="M157.19048,495.66667h25"/><path d="M157.19048,480.66667h25"/><path d="M157.19048,465.66667l25,0"/><path d="M157.19047,450.66667l25,0"/><path d="M157.19048,435.66667l25,0"/><path d="M182.19048,420.66667l-25,0"/><path d="M182.19047,405.66667l-25,0"/><path d="M182.19048,390.66667h-25"/><path d="M182.19048,375.66667h-25"/><path d="M182.19048,360.66667h-25"/><path d="M182.19048,345.66667l-25,0"/><path d="M182.19048,330.66667l-25,0"/><path d="M182.19048,315.66667l-25,0"/><path d="M157.19048,300.66667h25"/><path d="M202.19048,510.66667l25,0"/><path d="M202.19048,495.66667h25"/><path d="M202.19048,480.66667h25"/><path d="M202.19047,465.66667l25,0"/><path d="M227.19048,450.66667l-25,0"/><path d="M202.19047,435.66667l25,0"/><path d="M227.19048,420.66667l-25,0"/><path d="M227.19048,405.66667l-25,0"/><path d="M227.19048,390.66667h-25"/><path d="M227.19048,375.66667h-25"/><path d="M227.19048,360.66667l-25,0"/><path d="M227.19048,345.66667h-25"/><path d="M227.19048,330.66667h-25"/><path d="M227.19048,315.66667h-25"/><path d="M202.19048,300.66667l25,0"/><path d="M202.19048,510.66667l25,0"/><path d="M202.19048,495.66667h25"/><path d="M202.19048,480.66667h25"/><path d="M202.19047,465.66667l25,0"/><path d="M227.19048,450.66667l-25,0"/><path d="M202.19047,435.66667l25,0"/><path d="M227.19048,420.66667l-25,0"/><path d="M227.19048,405.66667l-25,0"/><path d="M227.19048,390.66667h-25"/><path d="M227.19048,375.66667h-25"/><path d="M227.19048,360.66667l-25,0"/><path d="M227.19048,345.66667h-25"/><path d="M227.19048,330.66667h-25"/><path d="M227.19048,315.66667h-25"/><path d="M202.19048,300.66667l25,0"/><path d="M247.19048,510.66667h25"/><path d="M247.19048,495.66667l25,0"/><path d="M272.19048,480.66667l-25,0"/><path d="M247.19048,465.66667l25,0"/><path d="M247.19048,450.66667l25,0"/><path d="M247.19048,435.66667h25"/><path d="M272.19048,420.66667l-25,0"/><path d="M272.19048,405.66667h-25"/><path d="M272.19048,390.66667h-25"/><path d="M272.19048,375.66667l-25,0"/><path d="M272.19048,360.66667l-25,0"/><path d="M272.19048,345.66667h-25"/><path d="M247.19048,330.66667h25"/><path d="M247.19048,315.66667l25,0"/><path d="M247.19048,300.66667l25,0"/><path d="M247.19048,510.66667h25"/><path d="M247.19048,495.66667l25,0"/><path d="M272.19048,480.66667l-25,0"/><path d="M247.19048,465.66667l25,0"/><path d="M247.19048,450.66667l25,0"/><path d="M247.19048,435.66667h25"/><path d="M272.19048,420.66667l-25,0"/><path d="M272.19048,405.66667h-25"/><path d="M272.19048,390.66667h-25"/><path d="M272.19048,375.66667l-25,0"/><path d="M272.19048,360.66667l-25,0"/><path d="M272.19048,345.66667h-25"/><path d="M247.19048,330.66667h25"/><path d="M247.19048,315.66667l25,0"/><path d="M247.19048,300.66667l25,0"/><path d="M-67.80953,525.42858h25"/><path d="M-67.80953,525.42858h25"/><path d="M-22.80952,525.42858h25"/><path d="M-22.80952,525.42858h25"/><path d="M22.19047,525.42858h25"/><path d="M22.19047,525.42858h25"/><path d="M67.19047,525.42858h25"/><path d="M67.19047,525.42858h25"/><path d="M112.19047,525.42858h25"/><path d="M112.19047,525.42858h25"/><path d="M157.19048,525.42858h25"/><path d="M157.19048,525.42858h25"/><path d="M202.19047,525.42858h25"/><path d="M202.19047,525.42858h25"/><path d="M247.19048,525.42858h25"/><path d="M247.19048,525.42858h25"/><path d="M289.33333,272.57143h25"/><path d="M314.33333,257.57143h-25"/><path d="M314.33334,242.57143l-25,0"/><path d="M314.33333,227.57143l-25,0"/><path d="M314.33333,212.57143l-25,0"/><path d="M314.33333,197.57143l-25,0"/><path d="M314.33334,182.57143l-25,0"/><path d="M314.33334,167.57143l-25,0"/><path d="M314.33334,152.57143l-25,0"/><path d="M314.33334,137.57143h-25"/><path d="M289.33334,122.57143l25,0"/><path d="M289.33334,107.57143l25,0"/><path d="M289.33334,92.57143l25,0"/><path d="M314.33333,77.57143h-25"/><path d="M289.33334,62.57143l25,0"/><path d="M314.33333,47.57143h-25"/><path d="M289.33333,272.57143h25"/><path d="M314.33333,257.57143h-25"/><path d="M314.33334,242.57143l-25,0"/><path d="M314.33333,227.57143l-25,0"/><path d="M314.33333,212.57143l-25,0"/><path d="M314.33333,197.57143l-25,0"/><path d="M314.33334,182.57143l-25,0"/><path d="M314.33334,167.57143l-25,0"/><path d="M314.33334,152.57143l-25,0"/><path d="M314.33334,137.57143h-25"/><path d="M289.33334,122.57143l25,0"/><path d="M289.33334,107.57143l25,0"/><path d="M289.33334,92.57143l25,0"/><path d="M314.33333,77.57143h-25"/><path d="M289.33334,62.57143l25,0"/><path d="M314.33333,47.57143h-25"/><path d="M289.33334,32.57143l25,0"/><path d="M314.33334,17.57143l-25,0"/><path d="M314.33334,2.57143h-25"/><path d="M314.33334,-12.42857l-25,0"/><path d="M289.33334,-27.42857h25"/><path d="M314.33334,-42.42857l-25,0"/><path d="M289.33334,-57.42857h25"/><path d="M314.33334,-72.42857l-25,0"/><path d="M289.33334,-87.42857l25,0"/><path d="M314.33334,-102.42857l-25,0"/><path d="M289.33334,-117.42857l25,0"/><path d="M314.33334,-132.42857l-25,0"/><path d="M289.33334,-147.42857l25,0"/><path d="M314.33333,-162.42857l-25,0"/><path d="M289.33334,-177.42857h25"/><path d="M314.33334,-192.42857l-25,0"/><path d="M334.33334,272.57143h25"/><path d="M334.33333,257.57143h25"/><path d="M334.33333,242.57143l25,0"/><path d="M334.33333,227.57143h25"/><path d="M334.33333,212.57143l25,0"/><path d="M334.33333,197.57143l25,0"/><path d="M334.33334,182.57143h25"/><path d="M334.33334,167.57143l25,0"/><path d="M334.33334,152.57143l25,0"/><path d="M334.33334,137.57143h25"/><path d="M334.33334,122.57143l25,0"/><path d="M359.33334,107.57143l-25,0"/><path d="M334.33334,92.57143l25,0"/><path d="M359.33334,77.57143h-25"/><path d="M334.33334,62.57143h25"/><path d="M334.33333,47.57143l25,0"/><path d="M334.33334,272.57143h25"/><path d="M334.33333,257.57143h25"/><path d="M334.33333,242.57143l25,0"/><path d="M334.33333,227.57143h25"/><path d="M334.33333,212.57143l25,0"/><path d="M334.33333,197.57143l25,0"/><path d="M334.33334,182.57143h25"/><path d="M334.33334,167.57143l25,0"/><path d="M334.33334,152.57143l25,0"/><path d="M334.33334,137.57143h25"/><path d="M334.33334,122.57143l25,0"/><path d="M359.33334,107.57143l-25,0"/><path d="M334.33334,92.57143l25,0"/><path d="M359.33334,77.57143h-25"/><path d="M334.33334,62.57143h25"/><path d="M334.33333,47.57143l25,0"/><path d="M359.33334,32.57143l-25,0"/><path d="M334.33334,17.57143h25"/><path d="M334.33334,2.57143h25"/><path d="M359.33334,-12.42857h-25"/><path d="M334.33334,-27.42857h25"/><path d="M359.33334,-42.42857h-25"/><path d="M334.33334,-57.42857l25,0"/><path d="M359.33334,-72.42857l-25,0"/><path d="M334.33334,-87.42857h25"/><path d="M359.33334,-102.42857l-25,0"/><path d="M334.33334,-117.42857h25"/><path d="M359.33334,-132.42857h-25"/><path d="M334.33334,-147.42857l25,0"/><path d="M359.33334,-162.42857l-25,0"/><path d="M334.33334,-177.42857h25"/><path d="M359.33334,-192.42857h-25"/><path d="M404.33334,272.57143h-25"/><path d="M379.33334,257.57143h25"/><path d="M379.33334,242.57143h25"/><path d="M404.33334,227.57143h-25"/><path d="M379.33334,212.57143h25"/><path d="M379.33334,197.57143h25"/><path d="M379.33334,182.57143l25,0"/><path d="M379.33334,167.57143h25"/><path d="M404.33334,152.57143h-25"/><path d="M379.33334,137.57143l25,0"/><path d="M404.33334,122.57143l-25,0"/><path d="M404.33334,107.57143h-25"/><path d="M379.33334,92.57143h25"/><path d="M404.33334,77.57143l-25,0"/><path d="M379.33334,62.57143h25"/><path d="M404.33334,47.57143h-25"/><path d="M404.33334,272.57143h-25"/><path d="M379.33334,257.57143h25"/><path d="M379.33334,242.57143h25"/><path d="M404.33334,227.57143h-25"/><path d="M379.33334,212.57143h25"/><path d="M379.33334,197.57143h25"/><path d="M379.33334,182.57143l25,0"/><path d="M379.33334,167.57143h25"/><path d="M404.33334,152.57143h-25"/><path d="M379.33334,137.57143l25,0"/><path d="M404.33334,122.57143l-25,0"/><path d="M404.33334,107.57143h-25"/><path d="M379.33334,92.57143h25"/><path d="M404.33334,77.57143l-25,0"/><path d="M379.33334,62.57143h25"/><path d="M404.33334,47.57143h-25"/><path d="M379.33334,32.57143h25"/><path d="M404.33334,17.57143l-25,0"/><path d="M404.33334,2.57143h-25"/><path d="M404.33334,-12.42857h-25"/><path d="M404.33334,-27.42857l-25,0"/><path d="M404.33334,-42.42857h-25"/><path d="M404.33334,-57.42857l-25,0"/><path d="M404.33334,-72.42857h-25"/><path d="M404.33334,-87.42857l-25,0"/><path d="M404.33334,-102.42857l-25,0"/><path d="M404.33334,-117.42857l-25,0"/><path d="M404.33334,-132.42857h-25"/><path d="M404.33334,-147.42857h-25"/><path d="M404.33334,-162.42857l-25,0"/><path d="M379.33334,-177.42857l25,0"/><path d="M404.33334,-192.42857h-25"/><path d="M449.33334,272.57143h-25"/><path d="M449.33334,257.57143h-25"/><path d="M424.33334,242.57143l25,0"/><path d="M424.33334,227.57143l25,0"/><path d="M424.33334,212.57143l25,0"/><path d="M449.33334,197.57143l-25,0"/><path d="M449.33334,182.57143l-25,0"/><path d="M424.33334,167.57143l25,0"/><path d="M449.33334,152.57143l-25,0"/><path d="M449.33334,137.57143h-25"/><path d="M424.33334,122.57143l25,0"/><path d="M449.33334,107.57143h-25"/><path d="M424.33334,92.57143h25"/><path d="M449.33334,77.57143l-25,0"/><path d="M424.33334,62.57143h25"/><path d="M449.33334,47.57143h-25"/><path d="M449.33334,272.57143h-25"/><path d="M449.33334,257.57143h-25"/><path d="M424.33334,242.57143l25,0"/><path d="M424.33334,227.57143l25,0"/><path d="M424.33334,212.57143l25,0"/><path d="M449.33334,197.57143l-25,0"/><path d="M449.33334,182.57143l-25,0"/><path d="M424.33334,167.57143l25,0"/><path d="M449.33334,152.57143l-25,0"/><path d="M449.33334,137.57143h-25"/><path d="M424.33334,122.57143l25,0"/><path d="M449.33334,107.57143h-25"/><path d="M424.33334,92.57143h25"/><path d="M449.33334,77.57143l-25,0"/><path d="M424.33334,62.57143h25"/><path d="M449.33334,47.57143h-25"/><path d="M424.33334,32.57143h25"/><path d="M449.33334,17.57143l-25,0"/><path d="M449.33334,2.57143h-25"/><path d="M449.33334,-12.42857l-25,0"/><path d="M449.33334,-27.42857h-25"/><path d="M424.33334,-42.42857h25"/><path d="M449.33334,-57.42857h-25"/><path d="M449.33334,-72.42857l-25,0"/><path d="M449.33334,-87.42857h-25"/><path d="M449.33334,-102.42857h-25"/><path d="M449.33334,-117.42857l-25,0"/><path d="M449.33334,-132.42857l-25,0"/><path d="M449.33334,-147.42857h-25"/><path d="M449.33334,-162.42857h-25"/><path d="M449.33334,-177.42857h-25"/><path d="M449.33334,-192.42857l-25,0"/><path d="M469.33334,272.57143l25,0"/><path d="M494.33334,257.57143l-25,0"/><path d="M494.33334,242.57143h-25"/><path d="M494.33334,227.57143l-25,0"/><path d="M469.33334,212.57143l25,0"/><path d="M494.33334,197.57143l-25,0"/><path d="M494.33334,182.57143l-25,0"/><path d="M494.33334,167.57143l-25,0"/><path d="M494.33334,152.57143l-25,0"/><path d="M469.33334,137.57143l25,0"/><path d="M494.33334,122.57143l-25,0"/><path d="M494.33334,107.57143l-25,0"/><path d="M469.33334,92.57143h25"/><path d="M494.33334,77.57143h-25"/><path d="M469.33334,62.57143l25,0"/><path d="M494.33334,47.57143h-25"/><path d="M469.33334,272.57143l25,0"/><path d="M494.33334,257.57143l-25,0"/><path d="M494.33334,242.57143h-25"/><path d="M494.33334,227.57143l-25,0"/><path d="M469.33334,212.57143l25,0"/><path d="M494.33334,197.57143l-25,0"/><path d="M494.33334,182.57143l-25,0"/><path d="M494.33334,167.57143l-25,0"/><path d="M494.33334,152.57143l-25,0"/><path d="M469.33334,137.57143l25,0"/><path d="M494.33334,122.57143l-25,0"/><path d="M494.33334,107.57143l-25,0"/><path d="M469.33334,92.57143h25"/><path d="M494.33334,77.57143h-25"/><path d="M469.33334,62.57143l25,0"/><path d="M494.33334,47.57143h-25"/><path d="M469.33334,32.57143l25,0"/><path d="M494.33334,17.57143l-25,0"/><path d="M494.33334,2.57143l-25,0"/><path d="M494.33334,-12.42857l-25,0"/><path d="M494.33334,-27.42857h-25"/><path d="M494.33334,-42.42857h-25"/><path d="M494.33334,-57.42857h-25"/><path d="M494.33334,-72.42857l-25,0"/><path d="M494.33334,-87.42857l-25,0"/><path d="M469.33334,-102.42857l25,0"/><path d="M494.33334,-117.42857l-25,0"/><path d="M494.33334,-132.42857l-25,0"/><path d="M494.33334,-147.42857l-25,0"/><path d="M494.33334,-162.42857h-25"/><path d="M494.33334,-177.42857h-25"/><path d="M494.33334,-192.42857l-25,0"/><path d="M514.33334,272.57143l25,0"/><path d="M514.33333,257.57143l25,0"/><path d="M514.33334,242.57143l25,0"/><path d="M539.33334,227.57143l-25,0"/><path d="M539.33333,212.57143l-25,0"/><path d="M514.33333,197.57143l25,0"/><path d="M539.33334,182.57143l-25,0"/><path d="M514.33334,167.57143l25,0"/><path d="M539.33334,152.57143l-25,0"/><path d="M514.33334,137.57143l25,0"/><path d="M539.33334,122.57143l-25,0"/><path d="M514.33334,107.57143l25,0"/><path d="M539.33334,92.57143l-25,0"/><path d="M539.33333,77.57143l-25,0"/><path d="M514.33334,62.57143l25,0"/><path d="M539.33334,47.57143l-25,0"/><path d="M514.33334,272.57143l25,0"/><path d="M514.33333,257.57143l25,0"/><path d="M514.33334,242.57143l25,0"/><path d="M539.33334,227.57143l-25,0"/><path d="M539.33333,212.57143l-25,0"/><path d="M514.33333,197.57143l25,0"/><path d="M539.33334,182.57143l-25,0"/><path d="M514.33334,167.57143l25,0"/><path d="M539.33334,152.57143l-25,0"/><path d="M514.33334,137.57143l25,0"/><path d="M539.33334,122.57143l-25,0"/><path d="M514.33334,107.57143l25,0"/><path d="M539.33334,92.57143l-25,0"/><path d="M539.33333,77.57143l-25,0"/><path d="M514.33334,62.57143l25,0"/><path d="M539.33334,47.57143l-25,0"/><path d="M514.33334,32.57143l25,0"/><path d="M539.33334,17.57143l-25,0"/><path d="M539.33334,2.57143l-25,0"/><path d="M539.33334,-12.42857l-25,0"/><path d="M539.33334,-27.42857h-25"/><path d="M539.33333,-42.42857h-25"/><path d="M539.33334,-57.42857l-25,0"/><path d="M539.33334,-72.42857l-25,0"/><path d="M539.33334,-87.42857h-25"/><path d="M539.33334,-102.42857l-25,0"/><path d="M539.33334,-117.42857h-25"/><path d="M539.33334,-132.42857l-25,0"/><path d="M539.33334,-147.42857l-25,0"/><path d="M539.33334,-162.42857h-25"/><path d="M514.33334,-177.42857h25"/><path d="M514.33334,-192.42857l25,0"/><path d="M559.33334,272.57143h25"/><path d="M559.33334,257.57143l25,0"/><path d="M559.33334,242.57143l25,0"/><path d="M584.33333,227.57143l-25,0"/><path d="M584.33334,212.57143l-25,0"/><path d="M559.33334,197.57143l25,0"/><path d="M584.33334,182.57143h-25"/><path d="M559.33334,167.57143l25,0"/><path d="M584.33334,152.57143l-25,0"/><path d="M559.33334,137.57143l25,0"/><path d="M584.33333,122.57143l-25,0"/><path d="M559.33334,107.57143l25,0"/><path d="M584.33334,92.57143l-25,0"/><path d="M559.33334,77.57143l25,0"/><path d="M584.33334,62.57143l-25,0"/><path d="M584.33333,47.57143l-25,0"/><path d="M559.33334,272.57143h25"/><path d="M559.33334,257.57143l25,0"/><path d="M559.33334,242.57143l25,0"/><path d="M584.33333,227.57143l-25,0"/><path d="M584.33334,212.57143l-25,0"/><path d="M559.33334,197.57143l25,0"/><path d="M584.33334,182.57143h-25"/><path d="M559.33334,167.57143l25,0"/><path d="M584.33334,152.57143l-25,0"/><path d="M559.33334,137.57143l25,0"/><path d="M584.33333,122.57143l-25,0"/><path d="M559.33334,107.57143l25,0"/><path d="M584.33334,92.57143l-25,0"/><path d="M559.33334,77.57143l25,0"/><path d="M584.33334,62.57143l-25,0"/><path d="M584.33333,47.57143l-25,0"/><path d="M559.33334,32.57143l25,0"/><path d="M584.33334,17.57143l-25,0"/><path d="M584.33333,2.57143l-25,0"/><path d="M584.33333,-12.42857h-25"/><path d="M584.33333,-27.42857h-25"/><path d="M584.33334,-42.42857l-25,0"/><path d="M584.33334,-57.42857h-25"/><path d="M584.33334,-72.42857h-25"/><path d="M584.33334,-87.42857h-25"/><path d="M584.33334,-102.42857l-25,0"/><path d="M584.33334,-117.42857l-25,0"/><path d="M559.33334,-132.42857h25"/><path d="M559.33334,-147.42857l25,0"/><path d="M584.33334,-162.42857l-25,0"/><path d="M584.33334,-177.42857l-25,0"/><path d="M559.33334,-192.42857l25,0"/><path d="M604.33334,272.57143h25"/><path d="M604.33333,257.57143h25"/><path d="M604.33333,242.57143l25,0"/><path d="M604.33333,227.57143h25"/><path d="M604.33334,212.57143h25"/><path d="M604.33333,197.57143h25"/><path d="M604.33333,182.57143l25,0"/><path d="M604.33334,167.57143l25,0"/><path d="M604.33333,152.57143h25"/><path d="M604.33334,137.57143h25"/><path d="M604.33334,122.57143l25,0"/><path d="M604.33333,107.57143l25,0"/><path d="M604.33334,92.57143h25"/><path d="M604.33333,77.57143h25"/><path d="M604.33333,62.57143l25,0"/><path d="M604.33333,47.57143l25,0"/><path d="M604.33334,272.57143h25"/><path d="M604.33333,257.57143h25"/><path d="M604.33333,242.57143l25,0"/><path d="M604.33333,227.57143h25"/><path d="M604.33334,212.57143h25"/><path d="M604.33333,197.57143h25"/><path d="M604.33333,182.57143l25,0"/><path d="M604.33334,167.57143l25,0"/><path d="M604.33333,152.57143h25"/><path d="M604.33334,137.57143h25"/><path d="M604.33334,122.57143l25,0"/><path d="M604.33333,107.57143l25,0"/><path d="M604.33334,92.57143h25"/><path d="M604.33333,77.57143h25"/><path d="M604.33333,62.57143l25,0"/><path d="M604.33333,47.57143l25,0"/><path d="M604.33334,32.57143h25"/><path d="M604.33334,17.57143h25"/><path d="M629.33333,2.57143h-25"/><path d="M629.33333,-12.42857h-25"/><path d="M604.33334,-27.42857l25,0"/><path d="M604.33334,-42.42857h25"/><path d="M604.33334,-57.42857h25"/><path d="M604.33333,-72.42857l25,0"/><path d="M629.33333,-87.42857h-25"/><path d="M604.33334,-102.42857l25,0"/><path d="M604.33334,-117.42857l25,0"/><path d="M604.33334,-132.42857l25,0"/><path d="M629.33333,-147.42857l-25,0"/><path d="M604.33334,-162.42857l25,0"/><path d="M604.33334,-177.42857l25,0"/><path d="M604.33334,-192.42857l25,0"/><path d="M289.33333,287.33334h25"/><path d="M289.33333,287.33334h25"/><path d="M334.33333,287.33334h25"/><path d="M334.33333,287.33334h25"/><path d="M404.33334,287.33334l-25,0"/><path d="M404.33334,287.33334l-25,0"/><path d="M424.33334,287.33334l25,0"/><path d="M424.33334,287.33334l25,0"/><path d="M469.33334,287.33334l25,0"/><path d="M469.33334,287.33334l25,0"/><path d="M514.33333,287.33334l25,0"/><path d="M514.33333,287.33334l25,0"/><path d="M559.33334,287.33334l25,0"/><path d="M559.33334,287.33334l25,0"/><path d="M604.33333,287.33334h25"/><path d="M604.33333,287.33334h25"/><path d="M289.33333,510.66667h25"/><path d="M289.33333,495.66667h25"/><path d="M289.33333,480.66667h25"/><path d="M289.33333,465.66667l25,0"/><path d="M314.33333,450.66667l-25,0"/><path d="M289.33333,435.66667l25,0"/><path d="M314.33333,420.66667l-25,0"/><path d="M314.33333,405.66667l-25,0"/><path d="M314.33333,390.66667h-25"/><path d="M314.33333,375.66667l-25,0"/><path d="M314.33333,360.66667h-25"/><path d="M314.33333,345.66667l-25,0"/><path d="M289.33333,330.66667l25,0"/><path d="M289.33333,315.66667l25,0"/><path d="M289.33334,300.66667h25"/><path d="M289.33333,510.66667h25"/><path d="M289.33333,495.66667h25"/><path d="M289.33333,480.66667h25"/><path d="M289.33333,465.66667l25,0"/><path d="M314.33333,450.66667l-25,0"/><path d="M289.33333,435.66667l25,0"/><path d="M314.33333,420.66667l-25,0"/><path d="M314.33333,405.66667l-25,0"/><path d="M314.33333,390.66667h-25"/><path d="M314.33333,375.66667l-25,0"/><path d="M314.33333,360.66667h-25"/><path d="M314.33333,345.66667l-25,0"/><path d="M289.33333,330.66667l25,0"/><path d="M289.33333,315.66667l25,0"/><path d="M289.33334,300.66667h25"/><path d="M334.33333,510.66667l25,0"/><path d="M334.33333,495.66667h25"/><path d="M334.33333,480.66667h25"/><path d="M334.33333,465.66667h25"/><path d="M334.33333,450.66667h25"/><path d="M334.33333,435.66667l25,0"/><path d="M359.33334,420.66667l-25,0"/><path d="M359.33334,405.66667l-25,0"/><path d="M359.33334,390.66667l-25,0"/><path d="M359.33334,375.66667l-25,0"/><path d="M334.33333,360.66667l25,0"/><path d="M334.33333,345.66667l25,0"/><path d="M334.33333,330.66667l25,0"/><path d="M334.33333,315.66667l25,0"/><path d="M334.33334,300.66667l25,0"/><path d="M334.33333,510.66667l25,0"/><path d="M334.33333,495.66667h25"/><path d="M334.33333,480.66667h25"/><path d="M334.33333,465.66667h25"/><path d="M334.33333,450.66667h25"/><path d="M334.33333,435.66667l25,0"/><path d="M359.33334,420.66667l-25,0"/><path d="M359.33334,405.66667l-25,0"/><path d="M359.33334,390.66667l-25,0"/><path d="M359.33334,375.66667l-25,0"/><path d="M334.33333,360.66667l25,0"/><path d="M334.33333,345.66667l25,0"/><path d="M334.33333,330.66667l25,0"/><path d="M334.33333,315.66667l25,0"/><path d="M334.33334,300.66667l25,0"/><path d="M379.33334,510.66667h25"/><path d="M404.33334,495.66667h-25"/><path d="M379.33334,480.66667l25,0"/><path d="M379.33334,465.66667l25,0"/><path d="M379.33334,450.66667h25"/><path d="M379.33334,435.66667h25"/><path d="M404.33334,420.66667l-25,0"/><path d="M404.33334,405.66667l-25,0"/><path d="M404.33334,390.66667h-25"/><path d="M379.33334,375.66667h25"/><path d="M404.33334,360.66667h-25"/><path d="M404.33334,345.66667h-25"/><path d="M379.33334,330.66667h25"/><path d="M379.33334,315.66667h25"/><path d="M379.33334,300.66667l25,0"/><path d="M379.33334,510.66667h25"/><path d="M404.33334,495.66667h-25"/><path d="M379.33334,480.66667l25,0"/><path d="M379.33334,465.66667l25,0"/><path d="M379.33334,450.66667h25"/><path d="M379.33334,435.66667h25"/><path d="M404.33334,420.66667l-25,0"/><path d="M404.33334,405.66667l-25,0"/><path d="M404.33334,390.66667h-25"/><path d="M379.33334,375.66667h25"/><path d="M404.33334,360.66667h-25"/><path d="M404.33334,345.66667h-25"/><path d="M379.33334,330.66667h25"/><path d="M379.33334,315.66667h25"/><path d="M379.33334,300.66667l25,0"/><path d="M424.33334,510.66667l25,0"/><path d="M449.33334,495.66667l-25,0"/><path d="M424.33334,480.66667l25,0"/><path d="M424.33334,465.66667h25"/><path d="M424.33334,450.66667h25"/><path d="M449.33334,435.66667l-25,0"/><path d="M449.33334,420.66667l-25,0"/><path d="M449.33334,405.66667h-25"/><path d="M449.33334,390.66667h-25"/><path d="M449.33334,375.66667h-25"/><path d="M449.33334,360.66667h-25"/><path d="M449.33334,345.66667h-25"/><path d="M424.33334,330.66667h25"/><path d="M424.33334,315.66667h25"/><path d="M424.33334,300.66667h25"/><path d="M424.33334,510.66667l25,0"/><path d="M449.33334,495.66667l-25,0"/><path d="M424.33334,480.66667l25,0"/><path d="M424.33334,465.66667h25"/><path d="M424.33334,450.66667h25"/><path d="M449.33334,435.66667l-25,0"/><path d="M449.33334,420.66667l-25,0"/><path d="M449.33334,405.66667h-25"/><path d="M449.33334,390.66667h-25"/><path d="M449.33334,375.66667h-25"/><path d="M449.33334,360.66667h-25"/><path d="M449.33334,345.66667h-25"/><path d="M424.33334,330.66667h25"/><path d="M424.33334,315.66667h25"/><path d="M424.33334,300.66667h25"/><path d="M469.33334,510.66667l25,0"/><path d="M494.33334,495.66667l-25,0"/><path d="M469.33334,480.66667h25"/><path d="M469.33334,465.66667l25,0"/><path d="M469.33334,450.66667h25"/><path d="M469.33334,435.66667l25,0"/><path d="M469.33334,420.66667h25"/><path d="M469.33334,405.66667h25"/><path d="M469.33334,390.66667h25"/><path d="M494.33334,375.66667h-25"/><path d="M494.33334,360.66667h-25"/><path d="M469.33334,345.66667h25"/><path d="M469.33334,330.66667h25"/><path d="M469.33334,315.66667h25"/><path d="M469.33334,300.66667h25"/><path d="M469.33334,510.66667l25,0"/><path d="M494.33334,495.66667l-25,0"/><path d="M469.33334,480.66667h25"/><path d="M469.33334,465.66667l25,0"/><path d="M469.33334,450.66667h25"/><path d="M469.33334,435.66667l25,0"/><path d="M469.33334,420.66667h25"/><path d="M469.33334,405.66667h25"/><path d="M469.33334,390.66667h25"/><path d="M494.33334,375.66667h-25"/><path d="M494.33334,360.66667h-25"/><path d="M469.33334,345.66667h25"/><path d="M469.33334,330.66667h25"/><path d="M469.33334,315.66667h25"/><path d="M469.33334,300.66667h25"/><path d="M539.33333,510.66667h-25"/><path d="M539.33334,495.66667h-25"/><path d="M514.33333,480.66667l25,0"/><path d="M514.33333,465.66667l25,0"/><path d="M514.33334,450.66667h25"/><path d="M514.33333,435.66667h25"/><path d="M539.33334,420.66667h-25"/><path d="M539.33333,405.66667l-25,0"/><path d="M539.33334,390.66667h-25"/><path d="M514.33334,375.66667h25"/><path d="M514.33333,360.66667h25"/><path d="M514.33334,345.66667h25"/><path d="M514.33333,330.66667h25"/><path d="M514.33334,315.66667h25"/><path d="M514.33334,300.66667h25"/><path d="M539.33333,510.66667h-25"/><path d="M539.33334,495.66667h-25"/><path d="M514.33333,480.66667l25,0"/><path d="M514.33333,465.66667l25,0"/><path d="M514.33334,450.66667h25"/><path d="M514.33333,435.66667h25"/><path d="M539.33334,420.66667h-25"/><path d="M539.33333,405.66667l-25,0"/><path d="M539.33334,390.66667h-25"/><path d="M514.33334,375.66667h25"/><path d="M514.33333,360.66667h25"/><path d="M514.33334,345.66667h25"/><path d="M514.33333,330.66667h25"/><path d="M514.33334,315.66667h25"/><path d="M514.33334,300.66667h25"/><path d="M584.33333,510.66667l-25,0"/><path d="M584.33333,495.66667h-25"/><path d="M559.33333,480.66667l25,0"/><path d="M559.33333,465.66667l25,0"/><path d="M584.33333,450.66667h-25"/><path d="M559.33334,435.66667l25,0"/><path d="M584.33334,420.66667h-25"/><path d="M584.33334,405.66667l-25,0"/><path d="M584.33333,390.66667l-25,0"/><path d="M584.33333,375.66667h-25"/><path d="M584.33333,360.66667h-25"/><path d="M584.33333,345.66667h-25"/><path d="M559.33334,330.66667h25"/><path d="M559.33334,315.66667h25"/><path d="M559.33334,300.66667l25,0"/><path d="M584.33333,510.66667l-25,0"/><path d="M584.33333,495.66667h-25"/><path d="M559.33333,480.66667l25,0"/><path d="M559.33333,465.66667l25,0"/><path d="M584.33333,450.66667h-25"/><path d="M559.33334,435.66667l25,0"/><path d="M584.33334,420.66667h-25"/><path d="M584.33334,405.66667l-25,0"/><path d="M584.33333,390.66667l-25,0"/><path d="M584.33333,375.66667h-25"/><path d="M584.33333,360.66667h-25"/><path d="M584.33333,345.66667h-25"/><path d="M559.33334,330.66667h25"/><path d="M559.33334,315.66667h25"/><path d="M559.33334,300.66667l25,0"/><path d="M629.33333,510.66667h-25"/><path d="M604.33334,495.66667l25,0"/><path d="M604.33334,480.66667l25,0"/><path d="M604.33334,465.66667h25"/><path d="M604.33333,450.66667h25"/><path d="M604.33333,435.66667l25,0"/><path d="M604.33333,420.66667l25,0"/><path d="M629.33333,405.66667h-25"/><path d="M629.33333,390.66667l-25,0"/><path d="M629.33333,375.66667l-25,0"/><path d="M629.33333,360.66667l-25,0"/><path d="M629.33333,345.66667h-25"/><path d="M604.33334,330.66667h25"/><path d="M604.33333,315.66667h25"/><path d="M604.33333,300.66667h25"/><path d="M629.33333,510.66667h-25"/><path d="M604.33334,495.66667l25,0"/><path d="M604.33334,480.66667l25,0"/><path d="M604.33334,465.66667h25"/><path d="M604.33333,450.66667h25"/><path d="M604.33333,435.66667l25,0"/><path d="M604.33333,420.66667l25,0"/><path d="M629.33333,405.66667h-25"/><path d="M629.33333,390.66667l-25,0"/><path d="M629.33333,375.66667l-25,0"/><path d="M629.33333,360.66667l-25,0"/><path d="M629.33333,345.66667h-25"/><path d="M604.33334,330.66667h25"/><path d="M604.33333,315.66667h25"/><path d="M604.33333,300.66667h25"/><path d="M289.33333,525.42858l25,0"/><path d="M289.33333,525.42858l25,0"/><path d="M334.33333,525.42858h25"/><path d="M334.33333,525.42858h25"/><path d="M379.33334,525.42858l25,0"/><path d="M379.33334,525.42858l25,0"/><path d="M424.33334,525.42858l25,0"/><path d="M424.33334,525.42858l25,0"/><path d="M494.33334,525.42858l-25,0"/><path d="M494.33334,525.42858l-25,0"/><path d="M539.33334,525.42858l-25,0"/><path d="M539.33334,525.42858l-25,0"/><path d="M559.33334,525.42858l25,0"/><path d="M559.33334,525.42858l25,0"/><path d="M604.33334,525.42858h25"/><path d="M604.33334,525.42858h25"/></g></g></svg>