<svg version="1.1" xmlns="http://www.w3.org/2000/svg" xmlns:xlink="http://www.w3.org/1999/xlink" width="78.95865" height="78.95865" viewBox="0,0,78.95865,78.95865"><g transform="translate(-200.52071,-140.5207)"><g data-paper-data="{&quot;isPaintingLayer&quot;:true}" fill-rule="nonzero" stroke-linecap="butt" stroke-linejoin="miter" stroke-miterlimit="10" stroke-dasharray="" stroke-dashoffset="0" style="mix-blend-mode: normal"><path d="M216.95719,206.37437v-41.08845l46.0857,-11.66023l-0.27763,38.58983zM238.75048,186.05412c4.14214,0 7.5,-3.35786 7.5,-7.5c0,-4.14214 -3.35786,-7.5 -7.5,-7.5c-4.14214,0 -7.5,3.35786 -7.5,7.5c0,4.14214 3.35786,7.5 7.5,7.5zM229.28955,196.76372c2.76142,0 5,-2.23858 5,-5c0,-2.76142 -2.23858,-5 -5,-5c-2.76142,0 -5,2.23858 -5,5c0,2.76142 2.23858,5 5,5zM250.88904,172.48661c2.76142,0 5,-2.23858 5,-5c0,-2.76142 -2.23858,-5 -5,-5c-2.76142,0 -5,2.23858 -5,5c0,2.76142 2.23858,5 5,5zM226.96895,177.30545c1.38071,0 2.5,-1.11929 2.5,-2.5c0,-1.38071 -1.11929,-2.5 -2.5,-2.5c-1.38071,0 -2.5,1.11929 -2.5,2.5c0,1.38071 1.11929,2.5 2.5,2.5zM248.21141,190.51505c1.38071,0 2.5,-1.11929 2.5,-2.5c0,-1.38071 -1.11929,-2.5 -2.5,-2.5c-1.38071,0 -2.5,1.11929 -2.5,2.5c0,1.38071 1.11929,2.5 2.5,2.5z" fill-opacity="0.53044" fill="#e0bf00" stroke="none" stroke-width="0"/><path d="M202.52072,217.47936v-74.95865h74.95865v74.95865z" fill="none" stroke="#ffff00" stroke-width="4"/><path d="M202.52072,217.47937v-74.95865h74.95865v74.95865z" fill="none" stroke="#000000" stroke-width="2"/><path d="M216.95723,165.28596l16.9351,-11.66023l28.72705,0.29982z" fill-opacity="0.44173" fill="#ffdc15" stroke="none" stroke-width="0"/></g></g></svg>