<svg version="1.1" xmlns="http://www.w3.org/2000/svg" xmlns:xlink="http://www.w3.org/1999/xlink" width="105.0502" height="84.03845" viewBox="0,0,105.0502,84.03845"><g transform="translate(-191.13934,-73.93985)"><g data-paper-data="{&quot;isPaintingLayer&quot;:true}" fill-rule="nonzero" stroke-linecap="butt" stroke-miterlimit="10" stroke-dasharray="" stroke-dashoffset="0" style="mix-blend-mode: normal"><g><path d="M253.84431,135.39399h17.88963l-8.94482,20.5843z" fill="none" stroke="#000000" stroke-width="4" stroke-linejoin="round"/><path d="M253.84431,135.39399h17.88963l-8.94482,20.5843z" fill="#b3b3b3" stroke="none" stroke-width="1" stroke-linejoin="miter"/></g><g><path d="M235.13131,135.39399h17.88963l-8.94482,20.5843z" fill="none" stroke="#000000" stroke-width="4" stroke-linejoin="round"/><path d="M235.13131,135.39399h17.88963l-8.94482,20.5843z" fill="#b3b3b3" stroke="none" stroke-width="1" stroke-linejoin="miter"/></g><g><path d="M216.3996,135.39399h17.90834l-8.94481,20.5843z" fill="none" stroke="#000000" stroke-width="4" stroke-linejoin="round"/><path d="M216.3996,135.39399h17.90834l-8.94481,20.5843z" fill="#b3b3b3" stroke="none" stroke-width="1" stroke-linejoin="miter"/></g><g><path d="M213.72364,115.63306v17.88963l-20.5843,-8.94482z" fill="none" stroke="#000000" stroke-width="4" stroke-linejoin="round"/><path d="M213.72364,115.63306v17.88963l-20.5843,-8.94482z" fill="#b3b3b3" stroke="none" stroke-width="1" stroke-linejoin="miter"/></g><g><path d="M213.72364,96.92006v17.88963l-20.5843,-8.94481z" fill="none" stroke="#000000" stroke-width="4" stroke-linejoin="round"/><path d="M213.72364,96.92006v17.88963l-20.5843,-8.94481z" fill="#b3b3b3" stroke="none" stroke-width="1" stroke-linejoin="miter"/></g><g><path d="M213.72364,78.18835v17.90834l-20.5843,-8.94481z" fill="none" stroke="#000000" stroke-width="4" stroke-linejoin="round"/><path d="M213.72364,78.18835v17.90834l-20.5843,-8.94481z" fill="#b3b3b3" stroke="none" stroke-width="1" stroke-linejoin="miter"/></g><g><path d="M273.60524,95.27332v-17.88963l20.5843,8.94482z" fill="none" stroke="#000000" stroke-width="4" stroke-linejoin="round"/><path d="M273.60524,95.27332v-17.88963l20.5843,8.94482z" fill="#b3b3b3" stroke="none" stroke-width="1" stroke-linejoin="miter"/></g><g><path d="M273.60524,113.98632v-17.88963l20.5843,8.94481z" fill="none" stroke="#000000" stroke-width="4" stroke-linejoin="round"/><path d="M273.60524,113.98632v-17.88963l20.5843,8.94481z" fill="#b3b3b3" stroke="none" stroke-width="1" stroke-linejoin="miter"/></g><g><path d="M273.60524,132.69932v-17.88963l20.5843,8.94481z" fill="none" stroke="#000000" stroke-width="4" stroke-linejoin="round"/><path d="M273.60524,132.69932v-17.88963l20.5843,8.94481z" fill="#b3b3b3" stroke="none" stroke-width="1" stroke-linejoin="miter"/></g><g><path d="M213.72364,135.82144v-59.8816h59.8816v59.8816z" fill="none" stroke="#000000" stroke-width="4" stroke-linejoin="round"/><path d="M213.72364,135.82144v-59.8816h59.8816v59.8816z" fill="#39b54a" stroke="none" stroke-width="1" stroke-linejoin="miter"/></g><path d="M230.56534,118.55229v-26.1982h26.1982v26.1982z" fill="#3ac54d" stroke="none" stroke-width="1" stroke-linejoin="miter"/><g><path d="M234.33955,113.8981h19.1685v19.1685h-19.1685z" fill="#ffffff" stroke="#ffffff" stroke-width="2" stroke-linejoin="round"/><path d="M238.17325,121.5655h11.5011v11.5011h-11.5011z" fill="#000000" stroke="none" stroke-width="1" stroke-linejoin="miter"/></g></g></g></svg>