<svg version="1.1" xmlns="http://www.w3.org/2000/svg" xmlns:xlink="http://www.w3.org/1999/xlink" width="59.59267" height="51.87412" viewBox="0,0,59.59267,51.87412"><g transform="translate(-200.71613,-138.60894)"><g data-paper-data="{&quot;isPaintingLayer&quot;:true}" fill-rule="nonzero" stroke-linecap="butt" stroke-miterlimit="10" stroke-dasharray="" stroke-dashoffset="0" style="mix-blend-mode: normal"><g><path d="M212.66436,157.89405l0.7939,7.39792l-10.74213,-2.80201z" fill="none" stroke="#000000" stroke-width="4" stroke-linejoin="round"/><path d="M212.66436,157.89405l0.7939,7.39792l-10.74213,-2.80201z" fill="#b3b3b3" stroke="none" stroke-width="1" stroke-linejoin="miter"/></g><g><path d="M216.77951,148.14201l-3.0966,7.03033l-8.20746,-6.31138z" fill="none" stroke="#000000" stroke-width="4" stroke-linejoin="round"/><path d="M216.77951,148.14201l-3.0966,7.03033l-8.20746,-6.31138z" fill="#b3b3b3" stroke="none" stroke-width="1" stroke-linejoin="miter"/></g><g><path d="M215.07816,166.81173l4.4088,6.54163l-11.26953,1.07619z" fill="none" stroke="#000000" stroke-width="4" stroke-linejoin="round"/><path d="M215.07816,166.81173l4.4088,6.54163l-11.26953,1.07619z" fill="#b3b3b3" stroke="none" stroke-width="1" stroke-linejoin="miter"/></g><g><path d="M227.65149,178.65082l8.58807,2.17982l-7.50578,7.08934z" fill="none" stroke="#000000" stroke-width="4" stroke-linejoin="round"/><path d="M227.65149,178.65082l8.58807,2.17982l-7.50578,7.08934z" fill="#b3b3b3" stroke="none" stroke-width="1" stroke-linejoin="miter"/></g><g><path d="M219.28882,174.32959l7.29558,4.28145l-9.76871,4.8551z" fill="none" stroke="#000000" stroke-width="4" stroke-linejoin="round"/><path d="M219.28882,174.32959l7.29558,4.28145l-9.76871,4.8551z" fill="#b3b3b3" stroke="none" stroke-width="1" stroke-linejoin="miter"/></g><g><path d="M234.21528,180.4928l8.97101,-0.97993l-3.29282,8.97019z" fill="none" stroke="#000000" stroke-width="4" stroke-linejoin="round"/><path d="M234.21528,180.4928l8.97101,-0.97993l-3.29282,8.97019z" fill="#b3b3b3" stroke="none" stroke-width="1" stroke-linejoin="miter"/></g><path d="M234.37636,139.70615c12.56786,-1.08967 23.73049,7.10655 24.93244,18.30677c1.20195,11.20021 -8.01194,21.16313 -20.5798,22.2528c-12.56786,1.08967 -23.73049,-7.10655 -24.93244,-18.30677c-1.20195,-11.20021 8.01194,-21.16313 20.5798,-22.2528z" fill="#7a1cbe" stroke="#000000" stroke-width="2" stroke-linejoin="miter"/><path d="M234.37636,139.70615c12.56786,-1.08967 16.92049,39.4699 4.35263,40.55957c-12.56786,1.08967 -23.73049,-7.10655 -24.93244,-18.30677c-1.20195,-11.20021 8.01194,-21.16313 20.5798,-22.2528z" fill="#9500ff" stroke="#000000" stroke-width="2" stroke-linejoin="miter"/><path d="M230.01776,173.44949c-1.00175,0.37242 -1.43687,-0.44654 -1.43687,-0.44654l0.07102,-0.1047c-1.85982,-1.27947 -3.82982,-2.01674 -5.5852,-3.50693c-4.60306,-3.90765 -6.05063,-9.25918 -5.82332,-14.61588c0,0 0.03966,-0.89949 1.13112,-0.88211c1.09145,0.01737 1.05178,0.91686 1.05178,0.91686c-0.22362,4.86838 1.03236,9.77159 5.22737,13.32266c1.71506,1.4518 3.54494,2.12942 5.40105,3.36671l0.52968,0.75856c0,0 0.43513,0.81895 -0.56663,1.19137z" fill="#d396ff" stroke="none" stroke-width="0.5" stroke-linejoin="miter"/><path d="M237.39664,177.36912c-0.08415,0.89803 -1.17307,0.84398 -1.17307,0.84398l-1.10394,-0.05479c-8.38462,-0.46013 -11.84699,-5.51188 -17.12077,-9.97946c0,0 -0.75461,-0.63972 0.03495,-1.27228c0.78956,-0.63257 1.54416,0.00714 1.54416,0.00714c4.78463,4.05895 8.04863,9.11922 15.70995,9.44854l1.10394,0.05479c0,0 1.08892,0.05404 1.00477,0.95207z" fill="#d396ff" stroke="none" stroke-width="0.5" stroke-linejoin="miter"/><path d="M242.81252,174.84394c-0.52359,0.79676 -1.48207,0.37895 -1.48207,0.37895l-0.45304,-0.2054c-6.88817,-2.14065 -11.46073,-6.08632 -15.87844,-10.84215c0,0 -0.65803,-0.70871 0.21366,-1.26289c0.87169,-0.55418 1.52972,0.15453 1.52972,0.15453c4.17223,4.49565 8.43017,8.24371 14.93641,10.26566l0.69891,0.29674c0,0 0.95848,0.4178 0.43489,1.21456z" fill="#d396ff" stroke="none" stroke-width="0.5" stroke-linejoin="miter"/><path d="M255.57803,160.94129c1.06247,0.19344 0.80953,1.07205 0.80953,1.07205l-0.2501,0.85682c-0.45626,4.86918 -4.72947,10.97965 -9.41223,14.00645c0,0 -0.87169,0.55418 -1.52972,-0.15453c-0.65803,-0.70871 0.21366,-1.26289 0.21366,-1.26289c4.28159,-2.66648 8.1604,-8.46306 8.57028,-12.83727l0.28316,-0.99546c0,0 0.25295,-0.87861 1.31542,-0.68518z" fill="#a989bf" stroke="none" stroke-width="0.5" stroke-linejoin="miter"/><path d="M248.86478,152.24112c0.93015,-0.48449 1.50256,0.27356 1.50256,0.27356l0.37112,0.67268c0.2104,1.96055 0.78362,3.89959 0.80963,5.87392c0.04769,3.62185 -1.04903,7.33892 -1.20574,10.97831c0,0 -0.03966,0.89949 -1.13112,0.88211c-1.09145,-0.01737 -1.05178,-0.91686 -1.05178,-0.91686c0.16273,-3.61043 1.25548,-7.31236 1.20433,-10.90315c-0.02738,-1.92205 -0.59619,-3.81536 -0.8012,-5.72569l-0.05553,0.10765c0,0 -0.57242,-0.75806 0.35772,-1.24254z" fill="#a989bf" stroke="none" stroke-width="0.5" stroke-linejoin="miter"/><path d="M249.78373,147.70152c-0.09601,-0.8947 0.99193,-0.98902 0.99193,-0.98902l0.71161,-0.01536c4.16072,1.0165 4.56063,6.51 4.89364,9.6131c0,0 0.09601,0.8947 -0.99193,0.98902c-1.08794,0.09433 -1.18396,-0.80037 -1.18396,-0.80037c-0.17825,-1.66097 -0.63276,-7.94947 -3.22365,-8.04453l-0.01369,0.04753c0,0 -1.08794,0.09433 -1.18396,-0.80037z" fill="#a989bf" stroke="none" stroke-width="0.5" stroke-linejoin="miter"/><path d="M219.45198,153.67895c-0.83719,-0.56595 -0.13578,-1.26529 -0.13578,-1.26529l0.25831,-0.24898c2.06473,-2.56297 4.0403,-5.2304 6.13446,-7.77003c0,0 0.62272,-0.74771 1.51997,-0.24741c0.89724,0.5003 0.27453,1.24802 0.27453,1.24802c-2.09367,2.48431 -4.10375,5.19798 -6.10992,7.73993l-0.40298,0.41037c0,0 -0.7014,0.69935 -1.53858,0.1334z" fill="#d396ff" stroke="none" stroke-width="0.5" stroke-linejoin="miter"/><path d="M224.46605,159.36081c-1.08564,-0.08297 -0.96643,-0.97879 -0.96643,-0.97879l0.12448,-0.87177c1.47748,-5.12677 3.29227,-9.33194 7.87022,-13.27322c0,0 0.76355,-0.65388 1.54447,-0.03596c0.78092,0.61792 0.01738,1.2718 0.01738,1.2718c-4.33413,3.68951 -5.92438,7.61673 -7.30711,12.42426l-0.07814,0.65083c0,0 -0.11922,0.89582 -1.20486,0.81285z" fill="#d396ff" stroke="none" stroke-width="0.5" stroke-linejoin="miter"/></g></g></svg>