<svg version="1.1" xmlns="http://www.w3.org/2000/svg" xmlns:xlink="http://www.w3.org/1999/xlink" width="52" height="44.2" viewBox="0,0,52,44.2"><g transform="translate(-214,-161.8)"><g data-paper-data="{&quot;isPaintingLayer&quot;:true}" fill-rule="nonzero" stroke-linecap="butt" stroke-miterlimit="10" stroke-dasharray="" stroke-dashoffset="0" style="mix-blend-mode: normal"><g><path d="M258.25,170.53244v-6.33244l5.75,3.16622z" fill="none" stroke="#000000" stroke-width="4" stroke-linejoin="round"/><path d="M258.25,170.53244v-6.33244l5.75,3.16622z" fill="#b3b3b3" stroke="none" stroke-width="1" stroke-linejoin="miter"/></g><g><path d="M258.25,183.36622v-6.33244l5.75,3.16622z" fill="none" stroke="#000000" stroke-width="4" stroke-linejoin="round"/><path d="M258.25,183.36622v-6.33244l5.75,3.16622z" fill="#b3b3b3" stroke="none" stroke-width="1" stroke-linejoin="miter"/></g><g><path d="M258.25,196.2v-6.33244l5.75,3.16622z" fill="none" stroke="#000000" stroke-width="4" stroke-linejoin="round"/><path d="M258.25,196.2v-6.33244l5.75,3.16622z" fill="#b3b3b3" stroke="none" stroke-width="1" stroke-linejoin="miter"/></g><g><path d="M221.75,189.46756v6.33244l-5.75,-3.16622z" fill="none" stroke="#000000" stroke-width="4" stroke-linejoin="round"/><path d="M221.75,189.46756v6.33244l-5.75,-3.16622z" fill="#b3b3b3" stroke="none" stroke-width="1" stroke-linejoin="miter"/></g><g><path d="M221.75,176.63378v6.33244l-5.75,-3.16622z" fill="none" stroke="#000000" stroke-width="4" stroke-linejoin="round"/><path d="M221.75,176.63378v6.33244l-5.75,-3.16622z" fill="#b3b3b3" stroke="none" stroke-width="1" stroke-linejoin="miter"/></g><g><path d="M221.75,163.8v6.33244l-5.75,-3.16622z" fill="none" stroke="#000000" stroke-width="4" stroke-linejoin="round"/><path d="M221.75,163.8v6.33244l-5.75,-3.16622z" fill="#b3b3b3" stroke="none" stroke-width="1" stroke-linejoin="miter"/></g><path d="M224,164h32v32h-32z" fill="#39b54a" stroke="#000000" stroke-width="4" stroke-linejoin="round"/><path d="M224,164.2h32v32h-32z" fill="#3967c4" stroke="none" stroke-width="1" stroke-linejoin="miter"/><path d="M233,173.2h14v14h-14z" fill="#4f7bd2" stroke="none" stroke-width="1" stroke-linejoin="miter"/><g><path d="M249.36756,198.25h6.33244l-3.16622,5.75z" fill="none" stroke="#000000" stroke-width="4" stroke-linejoin="round"/><path d="M249.36756,198.25h6.33244l-3.16622,5.75z" fill="#b3b3b3" stroke="none" stroke-width="1" stroke-linejoin="miter"/></g><g><path d="M236.53378,198.25h6.33244l-3.16622,5.75z" fill="none" stroke="#000000" stroke-width="4" stroke-linejoin="round"/><path d="M236.53378,198.25h6.33244l-3.16622,5.75z" fill="#b3b3b3" stroke="none" stroke-width="1" stroke-linejoin="miter"/></g><g><path d="M223.7,198.25h6.33244l-3.16622,5.75z" fill="none" stroke="#000000" stroke-width="4" stroke-linejoin="round"/><path d="M223.7,198.25h6.33244l-3.16622,5.75z" fill="#b3b3b3" stroke="none" stroke-width="1" stroke-linejoin="miter"/></g></g></g></svg>