<svg version="1.1" xmlns="http://www.w3.org/2000/svg" xmlns:xlink="http://www.w3.org/1999/xlink" width="44.00664" height="49.35826" viewBox="0,0,44.00664,49.35826"><defs><radialGradient cx="217.5" cy="177.5" r="21.00332" gradientUnits="userSpaceOnUse" id="color-1"><stop offset="0" stop-color="#ffff00"/><stop offset="1" stop-color="#0025ff"/></radialGradient><radialGradient cx="239.92857" cy="162.64286" r="10.5" gradientUnits="userSpaceOnUse" id="color-2"><stop offset="0" stop-color="#840000"/><stop offset="1" stop-color="#c8d038"/></radialGradient></defs><g transform="translate(-207.49337,-142.67143)"><g data-paper-data="{&quot;isPaintingLayer&quot;:true}" fill-rule="nonzero" stroke-linecap="butt" stroke-miterlimit="10" stroke-dasharray="" stroke-dashoffset="0" style="mix-blend-mode: normal"><path d="M237.50001,159.67143v-7h5v7z" fill="#ff0000" stroke="#000000" stroke-width="2" stroke-linejoin="miter"/><path d="M234.64286,149.02857c0,-2.95867 2.39847,-5.35714 5.35714,-5.35714c2.95867,0 5.35714,2.39847 5.35714,5.35714c0,2.95867 -2.39847,5.35714 -5.35714,5.35714c-2.95867,0 -5.35714,-2.39847 -5.35714,-5.35714z" fill="#ff0000" stroke="#000000" stroke-width="2" stroke-linejoin="miter"/><path d="M225.7204,191.38889c0,0.5 -0.5,0.5 -0.5,0.5l-0.23528,-0.00971c-1.99108,0.39004 -4.15534,-0.0562 -6.11528,-0.45148c-1.92534,-0.64726 -2.54132,-2.43419 -1.07412,-3.98566c-0.71685,-0.84221 -0.37623,-1.8595 0.41002,-2.71472c-1.62152,-0.67744 -1.69975,-2.67268 -0.18194,-3.84364c1.55614,-1.20054 5.14084,-1.4286 6.93785,-0.7368c0,0 0.46424,0.1857 0.27854,0.64993c-0.1857,0.46424 -0.64993,0.27854 -0.64993,0.27854c-1.4764,-0.62145 -4.06383,-0.22093 -5.5229,0.33546c-1.16318,0.44355 -1.72375,2.20164 -0.24214,2.48052c0.1164,0 0.2327,0.00297 0.34894,0.0084c0.38113,-0.26034 0.79417,-0.48179 1.20759,-0.64699c0.93069,-0.31023 7.08162,-1.69811 5.59498,1.06941c-0.94921,1.76705 -4.64336,0.82947 -6.61875,0.60743c-0.78023,0.55689 -1.29839,1.26352 -0.72684,1.89598c2.3025,-1.21936 7.21138,-1.32566 7.56083,1.06291c-1.84719,0.69742 -4.8587,1.2229 -6.811,0.52519c-0.33786,-0.12075 -0.62652,-0.25345 -0.87035,-0.3957c-0.70186,0.79655 -0.6794,2.01619 0.61588,2.44325c1.80047,0.35672 3.83466,0.81192 5.6625,0.4374l0.43139,-0.00971c0,0 0.5,0 0.5,0.5zM219.50159,187.38573c0.07106,0.03026 0.14599,0.06011 0.2249,0.08951c1.25112,0.46614 2.85502,-0.08125 4.22442,-0.22471c-0.0652,-0.01683 -0.11821,-0.02994 -0.15399,-0.0365c-1.2861,-0.23566 -2.76137,-0.11529 -4.03753,0.11028c-0.0886,0.01566 -0.1746,0.03629 -0.25781,0.06142zM220.97359,184.11075c0.9363,0.13918 1.8764,0.26733 2.83338,0.11793c0.02676,-0.00418 1.49036,-0.335 1.3908,-0.55023c-0.34328,-0.7421 -3.24505,0.11864 -4.22418,0.4323z" fill="#000000" stroke="none" stroke-width="0.5" stroke-linejoin="miter"/><path d="M215.57144,181.77778v-2.83016h12v2.83016z" fill="#0025ff" stroke="#000000" stroke-width="2" stroke-linejoin="miter"/><path d="M244.14897,191.38889c0,0.5 -0.5,0.5 -0.5,0.5l-0.23528,-0.00971c-1.99108,0.39004 -4.15534,-0.0562 -6.11528,-0.45148c-1.92534,-0.64726 -2.54132,-2.43419 -1.07412,-3.98566c-0.71685,-0.84221 -0.37623,-1.8595 0.41002,-2.71472c-1.62152,-0.67744 -1.69975,-2.67268 -0.18194,-3.84364c1.55614,-1.20054 5.14084,-1.4286 6.93785,-0.7368c0,0 0.46424,0.1857 0.27854,0.64993c-0.1857,0.46424 -0.64993,0.27854 -0.64993,0.27854c-1.4764,-0.62145 -4.06383,-0.22093 -5.5229,0.33546c-1.16318,0.44355 -1.72375,2.20164 -0.24214,2.48052c0.1164,0 0.2327,0.00297 0.34894,0.0084c0.38113,-0.26034 0.79417,-0.48179 1.20759,-0.64699c0.93069,-0.31023 7.08162,-1.69811 5.59498,1.06941c-0.94921,1.76705 -4.64336,0.82947 -6.61875,0.60743c-0.78023,0.55689 -1.29839,1.26352 -0.72684,1.89598c2.3025,-1.21936 7.21138,-1.32566 7.56083,1.06291c-1.84719,0.69742 -4.8587,1.2229 -6.811,0.52519c-0.33786,-0.12075 -0.62652,-0.25345 -0.87035,-0.3957c-0.70186,0.79655 -0.6794,2.01619 0.61588,2.44325c1.80047,0.35672 3.83466,0.81192 5.6625,0.4374l0.43139,-0.00971c0,0 0.5,0 0.5,0.5zM237.93016,187.38573c0.07106,0.03026 0.14599,0.06011 0.2249,0.08951c1.25112,0.46614 2.85502,-0.08125 4.22442,-0.22471c-0.0652,-0.01683 -0.11821,-0.02994 -0.15399,-0.0365c-1.2861,-0.23566 -2.76137,-0.11529 -4.03753,0.11028c-0.0886,0.01566 -0.1746,0.03629 -0.25781,0.06142zM239.40216,184.11075c0.9363,0.13918 1.8764,0.26733 2.83338,0.11793c0.02676,-0.00418 1.49036,-0.335 1.3908,-0.55023c-0.34328,-0.7421 -3.24505,0.11864 -4.22418,0.4323z" fill="#000000" stroke="none" stroke-width="0.5" stroke-linejoin="miter"/><path d="M234.00001,181.77778v-2.83016h12v2.83016z" fill="#0025ff" stroke="#000000" stroke-width="2" stroke-linejoin="miter"/><path d="M208.50001,178.94762c-0.43874,0.2169 21,-7.16667 21,-7.16667h21v7c0,0 -41.70622,0.02143 -42,0.16667z" fill="url(#color-1)" stroke="#000000" stroke-width="2" stroke-linejoin="miter"/><path d="M235.50001,160.94762h9c3.31371,0 6,2.11066 6,4.71429v6.28571h-21v-6.28571c0,-2.60363 2.68629,-4.71429 6,-4.71429z" fill="url(#color-2)" stroke="#000000" stroke-width="2" stroke-linejoin="miter"/><path d="M242.00001,168.94762v-5h5v5z" fill="#ffffff" stroke="#ffffff" stroke-width="2" stroke-linejoin="round"/><path d="M244.00001,167.94762v-3h3v3z" fill="#000000" stroke="none" stroke-width="1" stroke-linejoin="miter"/></g></g></svg>