<svg version="1.1" xmlns="http://www.w3.org/2000/svg" xmlns:xlink="http://www.w3.org/1999/xlink" width="68.74191" height="73.40169" viewBox="0,0,68.74191,73.40169"><g transform="translate(-196.54304,-107.05505)"><g data-paper-data="{&quot;isPaintingLayer&quot;:true}" fill-rule="nonzero" stroke-linecap="butt" stroke-miterlimit="10" stroke-dasharray="" stroke-dashoffset="0" style="mix-blend-mode: normal"><path d="M224.28401,166.2708v-13.4031h21.06202v13.4031z" fill="#000000" stroke="none" stroke-width="1" stroke-linejoin="miter"/><path d="M219.77569,179.45674l-3.89215,-12.55271l48.02768,0.53465l-3.92623,12.01804z" fill="#ff0000" stroke="#000000" stroke-width="2" stroke-linejoin="miter"/><g><path d="M237.47809,119.19163l-8.10696,-1.62715l5.9247,-8.50943z" fill="none" stroke="#000000" stroke-width="4" stroke-linejoin="round"/><path d="M237.47809,119.19163l-8.10696,-1.62715l5.9247,-8.50943z" fill="#b3b3b3" stroke="none" stroke-width="1" stroke-linejoin="miter"/></g><g><path d="M249.24345,121.55306l-8.10696,-1.62715l5.9247,-8.50943z" fill="none" stroke="#000000" stroke-width="4" stroke-linejoin="round"/><path d="M249.24345,121.55306l-8.10696,-1.62715l5.9247,-8.50943z" fill="#b3b3b3" stroke="none" stroke-width="1" stroke-linejoin="miter"/></g><g><path d="M260.35517,123.7833l-8.10696,-1.62715l5.9247,-8.50943z" fill="none" stroke="#000000" stroke-width="4" stroke-linejoin="round"/><path d="M260.35517,123.7833l-8.10696,-1.62715l5.9247,-8.50943z" fill="#b3b3b3" stroke="none" stroke-width="1" stroke-linejoin="miter"/></g><g data-paper-data="{&quot;index&quot;:null}"><path d="M214.1634,115.6965l9.83154,3.29447l-5.53539,6.14246z" fill="none" stroke="#000000" stroke-width="4" stroke-linejoin="round"/><path d="M214.1634,115.6965l9.83154,3.29447l-5.53539,6.14246z" fill="#b3b3b3" stroke="none" stroke-width="1" stroke-linejoin="miter"/></g><g data-paper-data="{&quot;index&quot;:null}"><path d="M206.13007,124.61085l9.83153,3.29447l-5.53539,6.14247z" fill="none" stroke="#000000" stroke-width="4" stroke-linejoin="round"/><path d="M206.13007,124.61085l9.83153,3.29447l-5.53539,6.14247z" fill="#b3b3b3" stroke="none" stroke-width="1" stroke-linejoin="miter"/></g><g data-paper-data="{&quot;index&quot;:null}"><path d="M198.54304,133.02996l9.83154,3.29447l-5.53539,6.14247z" fill="none" stroke="#000000" stroke-width="4" stroke-linejoin="round"/><path d="M198.54304,133.02996l9.83154,3.29447l-5.53539,6.14247z" fill="#b3b3b3" stroke="none" stroke-width="1" stroke-linejoin="miter"/></g><path d="M216.19032,163.19211l-13.98815,-18.77875l24.10009,-26.75798l35.80889,7.43366l-0.04945,23.30804z" fill="#ab0000" stroke="#000000" stroke-width="2" stroke-linejoin="miter"/><g><path d="M245.70462,143.69235l-3.00817,-9.08875l9.64736,-1.32044l2.44957,7.40102z" fill="#ffffff" stroke="#ffffff" stroke-width="2" stroke-linejoin="round"/><path d="M248.73848,140.67133l-1.80491,-5.45326l5.45326,-1.80491l1.8049,5.45326z" fill="#000000" stroke="none" stroke-width="1" stroke-linejoin="miter"/></g></g></g></svg>