<svg version="1.1" xmlns="http://www.w3.org/2000/svg" xmlns:xlink="http://www.w3.org/1999/xlink" width="141.60396" height="192.79735" viewBox="0,0,141.60396,192.79735"><g transform="translate(-134.11927,-40.28292)"><g data-paper-data="{&quot;isPaintingLayer&quot;:true}" fill-rule="nonzero" stroke-linecap="butt" stroke-miterlimit="10" stroke-dasharray="" stroke-dashoffset="0" style="mix-blend-mode: normal"><g data-paper-data="{&quot;index&quot;:null}"><g><path d="M273.72323,198.25086l-16.76303,10.04741l-2.02347,-15.46292z" fill="none" stroke="#000000" stroke-width="4" stroke-linejoin="round"/><path d="M273.72323,198.25086l-16.76303,10.04741l-2.02347,-15.46292z" fill="#b3b3b3" stroke="none" stroke-width="1" stroke-linejoin="miter"/></g><g><path d="M247.1062,231.08027l-10.04741,-16.76302l15.46292,-2.02346z" fill="none" stroke="#000000" stroke-width="4" stroke-linejoin="round"/><path d="M247.1062,231.08027l-10.04741,-16.76302l15.46292,-2.02346z" fill="#b3b3b3" stroke="none" stroke-width="1" stroke-linejoin="miter"/></g><g><path d="M214.27676,204.46321l16.76302,-10.04742l2.02347,15.46292z" fill="none" stroke="#000000" stroke-width="4" stroke-linejoin="round"/><path d="M214.27676,204.46321l16.76302,-10.04742l2.02347,15.46292z" fill="#b3b3b3" stroke="none" stroke-width="1" stroke-linejoin="miter"/></g><g><path d="M240.89381,171.63382l10.04742,16.76302l-15.46292,2.02347z" fill="none" stroke="#000000" stroke-width="4" stroke-linejoin="round"/><path d="M240.89381,171.63382l10.04742,16.76302l-15.46292,2.02347z" fill="#b3b3b3" stroke="none" stroke-width="1" stroke-linejoin="miter"/></g><path d="M229.23507,211.32377l-2.0674,-15.79863c-0.57089,-4.36267 2.50295,-8.36212 6.86562,-8.93302l15.79863,-2.0674c4.36267,-0.57089 8.36213,2.50294 8.93302,6.86562l2.06739,15.79863c0.57089,4.36267 -2.50294,8.36213 -6.86562,8.93302l-15.79864,2.0674c-4.36267,0.57089 -8.36212,-2.50295 -8.93302,-6.86562z" fill="#b4004c" stroke="#000000" stroke-width="2" stroke-linejoin="miter"/></g><g data-paper-data="{&quot;index&quot;:null}"><g><path d="M268.16875,174.07243l-15.48375,11.9249l-3.80429,-15.12361z" fill="none" stroke="#000000" stroke-width="4" stroke-linejoin="round"/><path d="M268.16875,174.07243l-15.48375,11.9249l-3.80429,-15.12361z" fill="#b3b3b3" stroke="none" stroke-width="1" stroke-linejoin="miter"/></g><g><path d="M245.54146,209.76896l-11.92489,-15.48374l15.12361,-3.80428z" fill="none" stroke="#000000" stroke-width="4" stroke-linejoin="round"/><path d="M245.54146,209.76896l-11.92489,-15.48374l15.12361,-3.80428z" fill="#b3b3b3" stroke="none" stroke-width="1" stroke-linejoin="miter"/></g><g><path d="M209.84489,187.14165l15.48374,-11.9249l3.80429,15.12361z" fill="none" stroke="#000000" stroke-width="4" stroke-linejoin="round"/><path d="M209.84489,187.14165l15.48374,-11.9249l3.80429,15.12361z" fill="#b3b3b3" stroke="none" stroke-width="1" stroke-linejoin="miter"/></g><g><path d="M232.4722,151.44514l11.9249,15.48374l-15.12361,3.80429z" fill="none" stroke="#000000" stroke-width="4" stroke-linejoin="round"/><path d="M232.4722,151.44514l11.9249,15.48374l-15.12361,3.80429z" fill="#b3b3b3" stroke="none" stroke-width="1" stroke-linejoin="miter"/></g><path d="M225.49831,192.21992l-3.88689,-15.45196c-1.07333,-4.26694 1.5156,-8.59609 5.78254,-9.66943l15.45196,-3.88689c4.26694,-1.07333 8.5961,1.51559 9.66943,5.78254l3.88688,15.45196c1.07333,4.26694 -1.51559,8.5961 -5.78254,9.66943l-15.45197,3.88689c-4.26694,1.07333 -8.59609,-1.5156 -9.66943,-5.78254z" fill="#b4004c" stroke="#000000" stroke-width="2" stroke-linejoin="miter"/></g><g data-paper-data="{&quot;index&quot;:null}"><g><path d="M259.89399,147.6673l-13.92694,13.71093l-5.60642,-14.55212z" fill="none" stroke="#000000" stroke-width="4" stroke-linejoin="round"/><path d="M259.89399,147.6673l-13.92694,13.71093l-5.60642,-14.55212z" fill="#b3b3b3" stroke="none" stroke-width="1" stroke-linejoin="miter"/></g><g><path d="M241.75257,185.83961l-13.71094,-13.92694l14.55212,-5.60642z" fill="none" stroke="#000000" stroke-width="4" stroke-linejoin="round"/><path d="M241.75257,185.83961l-13.71094,-13.92694l14.55212,-5.60642z" fill="#b3b3b3" stroke="none" stroke-width="1" stroke-linejoin="miter"/></g><g><path d="M203.58023,167.69819l13.92694,-13.71094l5.60643,14.55212z" fill="none" stroke="#000000" stroke-width="4" stroke-linejoin="round"/><path d="M203.58023,167.69819l13.92694,-13.71094l5.60643,14.55212z" fill="#b3b3b3" stroke="none" stroke-width="1" stroke-linejoin="miter"/></g><g><path d="M221.72166,129.52589l13.71094,13.92693l-14.55212,5.60643z" fill="none" stroke="#000000" stroke-width="4" stroke-linejoin="round"/><path d="M221.72166,129.52589l13.71094,13.92693l-14.55212,5.60643z" fill="#b3b3b3" stroke="none" stroke-width="1" stroke-linejoin="miter"/></g><path d="M219.73313,170.84494l-5.72815,-14.86807c-1.58178,-4.1057 0.46426,-8.71633 4.56996,-10.29811l14.86806,-5.72814c4.1057,-1.58178 8.71633,0.46426 10.29811,4.56996l5.72814,14.86807c1.58178,4.1057 -0.46426,8.71633 -4.56996,10.29811l-14.86807,5.72815c-4.1057,1.58178 -8.71633,-0.46426 -10.29811,-4.56996z" fill="#b4004c" stroke="#000000" stroke-width="2" stroke-linejoin="miter"/></g><g data-paper-data="{&quot;index&quot;:null}"><g><path d="M252.23695,129.89199l-12.71531,14.84151l-6.8191,-14.02484z" fill="none" stroke="#000000" stroke-width="4" stroke-linejoin="round"/><path d="M252.23695,129.89199l-12.71531,14.84151l-6.8191,-14.02484z" fill="#b3b3b3" stroke="none" stroke-width="1" stroke-linejoin="miter"/></g><g><path d="M237.39464,169.46398l-14.84151,-12.71532l14.02484,-6.8191z" fill="none" stroke="#000000" stroke-width="4" stroke-linejoin="round"/><path d="M237.39464,169.46398l-14.84151,-12.71532l14.02484,-6.8191z" fill="#b3b3b3" stroke="none" stroke-width="1" stroke-linejoin="miter"/></g><g><path d="M197.82261,154.62165l12.71531,-14.84151l6.81909,14.02484z" fill="none" stroke="#000000" stroke-width="4" stroke-linejoin="round"/><path d="M197.82261,154.62165l12.71531,-14.84151l6.81909,14.02484z" fill="#b3b3b3" stroke="none" stroke-width="1" stroke-linejoin="miter"/></g><g><path d="M212.66494,115.04968l14.84151,12.71532l-14.02484,6.81909z" fill="none" stroke="#000000" stroke-width="4" stroke-linejoin="round"/><path d="M212.66494,115.04968l14.84151,12.71532l-14.02484,6.81909z" fill="#b3b3b3" stroke="none" stroke-width="1" stroke-linejoin="miter"/></g><path d="M214.18402,156.38865l-6.96714,-14.32933c-1.92392,-3.95694 -0.27585,-8.72433 3.68109,-10.64825l14.32934,-6.96714c3.95694,-1.92392 8.72432,-0.27584 10.64824,3.6811l6.96715,14.32934c1.92392,3.95694 0.27584,8.72432 -3.6811,10.64825l-14.32934,6.96715c-3.95694,1.92392 -8.72432,0.27584 -10.64825,-3.6811z" fill="#b4004c" stroke="#000000" stroke-width="2" stroke-linejoin="miter"/></g><g data-paper-data="{&quot;index&quot;:null}"><g><path d="M238.73304,105.73942l-10.82592,16.27111l-8.46611,-13.09661z" fill="none" stroke="#000000" stroke-width="4" stroke-linejoin="round"/><path d="M238.73304,105.73942l-10.82592,16.27111l-8.46611,-13.09661z" fill="#b3b3b3" stroke="none" stroke-width="1" stroke-linejoin="miter"/></g><g><path d="M228.78836,146.81665l-16.27111,-10.82592l13.09661,-8.46611z" fill="none" stroke="#000000" stroke-width="4" stroke-linejoin="round"/><path d="M228.78836,146.81665l-16.27111,-10.82592l13.09661,-8.46611z" fill="#b3b3b3" stroke="none" stroke-width="1" stroke-linejoin="miter"/></g><g><path d="M187.71108,136.87196l10.82592,-16.27111l8.46612,13.09661z" fill="none" stroke="#000000" stroke-width="4" stroke-linejoin="round"/><path d="M187.71108,136.87196l10.82592,-16.27111l8.46612,13.09661z" fill="#b3b3b3" stroke="none" stroke-width="1" stroke-linejoin="miter"/></g><g><path d="M197.65577,95.79474l16.27111,10.82591l-13.0966,8.46612z" fill="none" stroke="#000000" stroke-width="4" stroke-linejoin="round"/><path d="M197.65577,95.79474l16.27111,10.82591l-13.0966,8.46612z" fill="#b3b3b3" stroke="none" stroke-width="1" stroke-linejoin="miter"/></g><path d="M204.16607,136.6461l-8.64992,-13.38095c-2.38861,-3.69504 -1.32953,-8.62683 2.36551,-11.01544l13.38095,-8.64993c3.69504,-2.38861 8.62684,-1.32953 11.01545,2.36552l8.64992,13.38094c2.38861,3.69504 1.32953,8.62684 -2.36551,11.01545l-13.38095,8.64992c-3.69504,2.38861 -8.62683,1.32953 -11.01544,-2.36551z" fill="#b4004c" stroke="#000000" stroke-width="2" stroke-linejoin="miter"/></g><g data-paper-data="{&quot;index&quot;:null}"><g><path d="M221.84804,82.7278l-8.71062,17.49499l-10.0344,-11.93764z" fill="none" stroke="#000000" stroke-width="4" stroke-linejoin="round"/><path d="M221.84804,82.7278l-8.71062,17.49499l-10.0344,-11.93764z" fill="#b3b3b3" stroke="none" stroke-width="1" stroke-linejoin="miter"/></g><g><path d="M217.10759,124.725l-17.49498,-8.71063l11.93764,-10.03439z" fill="none" stroke="#000000" stroke-width="4" stroke-linejoin="round"/><path d="M217.10759,124.725l-17.49498,-8.71063l11.93764,-10.03439z" fill="#b3b3b3" stroke="none" stroke-width="1" stroke-linejoin="miter"/></g><g><path d="M175.11036,119.98455l8.71062,-17.49498l10.0344,11.93764z" fill="none" stroke="#000000" stroke-width="4" stroke-linejoin="round"/><path d="M175.11036,119.98455l8.71062,-17.49498l10.0344,11.93764z" fill="#b3b3b3" stroke="none" stroke-width="1" stroke-linejoin="miter"/></g><g><path d="M179.85083,77.98737l17.49498,8.71062l-11.93763,10.0344z" fill="none" stroke="#000000" stroke-width="4" stroke-linejoin="round"/><path d="M179.85083,77.98737l17.49498,8.71062l-11.93763,10.0344z" fill="#b3b3b3" stroke="none" stroke-width="1" stroke-linejoin="miter"/></g><path d="M191.40852,117.70685l-10.25226,-12.19681c-2.83109,-3.36806 -2.39578,-8.39346 0.97228,-11.22454l12.19681,-10.25225c3.36806,-2.83109 8.39346,-2.39578 11.22454,0.97228l10.25225,12.19681c2.83109,3.36806 2.39578,8.39345 -0.97228,11.22454l-12.19682,10.25226c-3.36806,2.83109 -8.39345,2.39579 -11.22454,-0.97227z" fill="#b4004c" stroke="#000000" stroke-width="2" stroke-linejoin="miter"/></g><g data-paper-data="{&quot;index&quot;:null}"><g><path d="M202.86016,62.59915l-6.52957,18.42049l-11.40521,-10.63566z" fill="none" stroke="#000000" stroke-width="4" stroke-linejoin="round"/><path d="M202.86016,62.59915l-6.52957,18.42049l-11.40521,-10.63566z" fill="#b3b3b3" stroke="none" stroke-width="1" stroke-linejoin="miter"/></g><g><path d="M203.23658,104.86136l-18.42049,-6.52957l10.63566,-11.40521z" fill="none" stroke="#000000" stroke-width="4" stroke-linejoin="round"/><path d="M203.23658,104.86136l-18.42049,-6.52957l10.63566,-11.40521z" fill="#b3b3b3" stroke="none" stroke-width="1" stroke-linejoin="miter"/></g><g><path d="M160.97431,105.23779l6.52957,-18.42049l11.40521,10.63566z" fill="none" stroke="#000000" stroke-width="4" stroke-linejoin="round"/><path d="M160.97431,105.23779l6.52957,-18.42049l11.40521,10.63566z" fill="#b3b3b3" stroke="none" stroke-width="1" stroke-linejoin="miter"/></g><g><path d="M160.59792,62.97558l18.42049,6.52956l-10.63566,11.40521z" fill="none" stroke="#000000" stroke-width="4" stroke-linejoin="round"/><path d="M160.59792,62.97558l18.42049,6.52956l-10.63566,11.40521z" fill="#b3b3b3" stroke="none" stroke-width="1" stroke-linejoin="miter"/></g><path d="M176.87711,101.0046l-11.65284,-10.86657c-3.21784,-3.00072 -3.39385,-8.04188 -0.39313,-11.25971l10.86657,-11.65283c3.00072,-3.21784 8.04188,-3.39386 11.25972,-0.39314l11.65284,10.86657c3.21784,3.00072 3.39385,8.04187 0.39313,11.25971l-10.86657,11.65284c-3.00072,3.21784 -8.04187,3.39386 -11.2597,0.39314z" fill="#b4004c" stroke="#000000" stroke-width="2" stroke-linejoin="miter"/></g><g data-paper-data="{&quot;index&quot;:null}"><g><path d="M177.90866,42.28292l-3.87441,19.15563l-12.78747,-8.92619z" fill="none" stroke="#000000" stroke-width="4" stroke-linejoin="round"/><path d="M177.90866,42.28292l-3.87441,19.15563l-12.78747,-8.92619z" fill="#b3b3b3" stroke="none" stroke-width="1" stroke-linejoin="miter"/></g><g><path d="M184.22421,84.07227l-19.15564,-3.87441l8.92619,-12.78747z" fill="none" stroke="#000000" stroke-width="4" stroke-linejoin="round"/><path d="M184.22421,84.07227l-19.15564,-3.87441l8.92619,-12.78747z" fill="#b3b3b3" stroke="none" stroke-width="1" stroke-linejoin="miter"/></g><g><path d="M142.43481,90.38783l3.87442,-19.15564l12.78746,8.92619z" fill="none" stroke="#000000" stroke-width="4" stroke-linejoin="round"/><path d="M142.43481,90.38783l3.87442,-19.15564l12.78746,8.92619z" fill="#b3b3b3" stroke="none" stroke-width="1" stroke-linejoin="miter"/></g><g><path d="M136.11927,48.59848l19.15564,3.87442l-8.92619,12.78747z" fill="none" stroke="#000000" stroke-width="4" stroke-linejoin="round"/><path d="M136.11927,48.59848l19.15564,3.87442l-8.92619,12.78747z" fill="#b3b3b3" stroke="none" stroke-width="1" stroke-linejoin="miter"/></g><path d="M157.58431,83.96048l-13.0651,-9.11999c-3.60783,-2.51842 -4.49097,-7.48472 -1.97255,-11.09255l9.11998,-13.0651c2.51842,-3.60783 7.48472,-4.49097 11.09255,-1.97255l13.0651,9.11999c3.60783,2.51841 4.49098,7.48472 1.97256,11.09255l-9.11999,13.0651c-2.51842,3.60783 -7.48472,4.49098 -11.09255,1.97256z" fill="#b4004c" stroke="#000000" stroke-width="2" stroke-linejoin="miter"/><g><path d="M157.44539,77.62938l-8.19293,-5.71901l5.77434,-8.2722l8.19293,5.71901z" fill="#ffffff" stroke="#ffffff" stroke-width="2" stroke-linejoin="round"/><path d="M155.80682,76.48558l-4.91576,-3.43141l3.46461,-4.96332l4.91576,3.43141z" fill="#000000" stroke="none" stroke-width="1" stroke-linejoin="miter"/></g></g></g></g></svg>