<svg version="1.1" xmlns="http://www.w3.org/2000/svg" xmlns:xlink="http://www.w3.org/1999/xlink" width="88.97922" height="102.08444" viewBox="0,0,88.97922,102.08444"><g transform="translate(-184.02078,-110.91558)"><g data-paper-data="{&quot;isPaintingLayer&quot;:true}" fill-rule="nonzero" stroke-linecap="butt" stroke-miterlimit="10" stroke-dasharray="" stroke-dashoffset="0" style="mix-blend-mode: normal"><g><path d="M234.94301,184.33162l-1.30947,-6.87643l20.62929,-3.92842l1.30947,6.87643z" fill="#ff0000" stroke="#000000" stroke-width="2" stroke-linejoin="miter"/><g><path d="M236.90868,162.57992l8.84113,-1.6836c3.25522,-0.61989 6.3966,1.51647 7.01649,4.77167l1.49654,7.85878l-20.62929,3.92842l-1.49654,-7.85878c-0.61989,-3.25522 1.51647,-6.3966 4.77167,-7.01649z" fill="#ff7800" stroke="#000000" stroke-width="2" stroke-linejoin="miter"/><path d="M243.69109,171.46806l-0.93534,-4.91174l4.91174,-0.93534l0.93534,4.91174z" fill="#ffffff" stroke="#ffffff" stroke-width="2" stroke-linejoin="round"/><path d="M245.46871,170.11158l-0.5612,-2.94705l2.94705,-0.5612l0.5612,2.94705z" fill="#000000" stroke="none" stroke-width="1" stroke-linejoin="miter"/></g></g><path d="M209.00001,211.00003v-31h62v31z" fill="#39b54a" stroke="#000000" stroke-width="4" stroke-linejoin="round"/><g><path d="M209.22319,179.8788l-23.2024,-20.55841l41.11683,-46.4048l23.2024,20.55841z" fill="#39b54a" stroke="#000000" stroke-width="4" stroke-linejoin="round"/><path d="M209.22319,179.8788l-23.2024,-20.55841l41.11683,-46.4048l23.2024,20.55841z" fill="#39b54a" stroke="none" stroke-width="0" stroke-linejoin="round"/><path d="M215.19174,173.1426l-16.4662,-14.58983l29.1797,-32.93244l16.4662,14.58983z" fill="#3ac54d" stroke="none" stroke-width="1" stroke-linejoin="miter"/></g><path d="M209.00001,211.00003v-31h62v31z" fill="#39b54a" stroke="none" stroke-width="0" stroke-linejoin="round"/><path d="M218.00001,202.00001v-21.99998h44v21.99998z" fill="#3ac54d" stroke="none" stroke-width="1" stroke-linejoin="miter"/></g></g></svg>