<svg version="1.1" xmlns="http://www.w3.org/2000/svg" xmlns:xlink="http://www.w3.org/1999/xlink" width="102.44027" height="185.41655" viewBox="0,0,102.44027,185.41655"><g transform="translate(-188.99996,-27.58347)"><g data-paper-data="{&quot;isPaintingLayer&quot;:true}" fill-rule="nonzero" stroke-linecap="butt" stroke-miterlimit="10" stroke-dasharray="" stroke-dashoffset="0" style="mix-blend-mode: normal"><path d="M209,149.00002h62v62l-11.67,-1l-9.88,1l-4.7,-1l-18.91,1l-6.09,-1l-10.75,1z" fill="none" stroke="#000000" stroke-width="4" stroke-linejoin="round"/><path d="M226.23256,153.00013v-125.41666h27.53488v125.41667z" fill="#000000" stroke="none" stroke-width="NaN" stroke-linejoin="miter"/><path d="M239.58798,203.72377l31.41202,6.7763l-11.67,-1l-9.88,1l-4.7,-1l-18.91,1l-6.09,-1l-10.75,1z" fill="none" stroke="#000000" stroke-width="4" stroke-linejoin="round"/><path d="M209,149.00002h62v62l-11.67,-1l-9.88,1l-4.7,-1l-18.91,1l-6.09,-1l-10.75,1z" fill="#690000" stroke="none" stroke-width="1" stroke-linejoin="miter"/><path d="M218,157.50002h44v44l-18,-2l-9,-3l-10,4l-7,1z" fill="#7f0000" stroke="none" stroke-width="1" stroke-linejoin="miter"/><path d="M244,202.50007l2,2l-1,6" fill="none" stroke="#000000" stroke-width="2" stroke-linejoin="round"/><path d="M225,207.50007l1,4" fill="none" stroke="#000000" stroke-width="2" stroke-linejoin="round"/><path d="M236,211.50007l-2,-13l4,-6" fill="none" stroke="#000000" stroke-width="2" stroke-linejoin="round"/><path d="M259,210.50007l1,-4" fill="none" stroke="#000000" stroke-width="2" stroke-linejoin="round"/><path d="M230,196.50007l4,2" fill="none" stroke="#000000" stroke-width="2" stroke-linejoin="round"/><path d="M218.57,206.50007l-1.02,4" fill="none" stroke="#000000" stroke-width="2" stroke-linejoin="round"/><path d="M218,188.66944l22.2541,-2.71038l21.7459,2.71038v12.8306l-18,-2l-9,-3l-10,4l-7,1z" fill="#ffffff" stroke="none" stroke-width="1" stroke-linejoin="miter"/><path d="M221.5,141.50002v-13h37v13z" fill="#000000" stroke="none" stroke-width="0" stroke-linejoin="miter"/><path d="M221.5,121.50013v-13h37v13z" fill="#000000" stroke="none" stroke-width="0" stroke-linejoin="miter"/><path d="M221.5,96.50013v-13h37v13z" fill="#000000" stroke="none" stroke-width="0" stroke-linejoin="miter"/><path d="M221.5,76.50006v-13h37v13z" fill="#000000" stroke="none" stroke-width="0" stroke-linejoin="miter"/><path d="M221.5,51.50014v-13h37v13z" fill="#000000" stroke="none" stroke-width="0" stroke-linejoin="miter"/><path d="M224,202.00014v-9h9v9z" fill="#000000" stroke="none" stroke-width="1" stroke-linejoin="miter"/><path d="M247,202.00014v-9h9v9z" fill="#000000" stroke="none" stroke-width="1" stroke-linejoin="miter"/><g><path d="M225.91,147.00001h-16l8,-16z" fill="none" stroke="#000000" stroke-width="4" stroke-linejoin="round"/><path d="M225.91,147.00001h-16l8,-16z" fill="#b3b3b3" stroke="none" stroke-width="1" stroke-linejoin="miter"/></g><g><path d="M269.91,147.00001h-16l8,-16z" fill="none" stroke="#000000" stroke-width="4" stroke-linejoin="round"/><path d="M269.91,147.00001h-16l8,-16z" fill="#b3b3b3" stroke="none" stroke-width="1" stroke-linejoin="miter"/></g><g><path d="M247.91,147.00001h-16l8,-16z" fill="none" stroke="#000000" stroke-width="4" stroke-linejoin="round"/><path d="M247.91,147.00001h-16l8,-16z" fill="#b3b3b3" stroke="none" stroke-width="1" stroke-linejoin="miter"/></g><g><path d="M206.99996,194.09008v16l-16,-8z" fill="none" stroke="#000000" stroke-width="4" stroke-linejoin="round"/><path d="M206.99996,194.09008v16l-16,-8z" fill="#b3b3b3" stroke="none" stroke-width="1" stroke-linejoin="miter"/></g><g><path d="M206.99996,150.09008v16l-16,-8z" fill="none" stroke="#000000" stroke-width="4" stroke-linejoin="round"/><path d="M206.99996,150.09008v16l-16,-8z" fill="#b3b3b3" stroke="none" stroke-width="1" stroke-linejoin="miter"/></g><g><path d="M206.99996,172.09008v16l-16,-8z" fill="none" stroke="#000000" stroke-width="4" stroke-linejoin="round"/><path d="M206.99996,172.09008v16l-16,-8z" fill="#b3b3b3" stroke="none" stroke-width="1" stroke-linejoin="miter"/></g><g><path d="M273.44023,165.91003v-16l16,8z" fill="none" stroke="#000000" stroke-width="4" stroke-linejoin="round"/><path d="M273.44023,165.91003v-16l16,8z" fill="#b3b3b3" stroke="none" stroke-width="1" stroke-linejoin="miter"/></g><g><path d="M273.44023,209.91008v-16l16,8z" fill="none" stroke="#000000" stroke-width="4" stroke-linejoin="round"/><path d="M273.44023,209.91008v-16l16,8z" fill="#b3b3b3" stroke="none" stroke-width="1" stroke-linejoin="miter"/></g><g><path d="M273.44023,187.91008v-16l16,8z" fill="none" stroke="#000000" stroke-width="4" stroke-linejoin="round"/><path d="M273.44023,187.91008v-16l16,8z" fill="#b3b3b3" stroke="none" stroke-width="1" stroke-linejoin="miter"/></g><path d="M230,196.50007l4,2" fill="none" stroke="#000000" stroke-width="2" stroke-linejoin="round"/></g></g></svg>