<svg version="1.1" xmlns="http://www.w3.org/2000/svg" xmlns:xlink="http://www.w3.org/1999/xlink" width="27" height="44.41905" viewBox="0,0,27,44.41905"><defs><radialGradient cx="240.00001" cy="149.02857" r="13.5" gradientUnits="userSpaceOnUse" id="color-1"><stop offset="0" stop-color="#ff0000" stop-opacity="0.59608"/><stop offset="1" stop-color="#ff0000" stop-opacity="0"/></radialGradient></defs><g transform="translate(-226.5,-135.52857)"><g data-paper-data="{&quot;isPaintingLayer&quot;:true}" fill-rule="nonzero" stroke-linecap="butt" stroke-miterlimit="10" stroke-dasharray="" stroke-dashoffset="0" style="mix-blend-mode: normal"><path d="M237.50001,159.67143v-7h5v7z" fill="#ff0000" stroke="#000000" stroke-width="2" stroke-linejoin="miter"/><path d="M229.50001,178.94762v-7h21v7z" fill="#b4004c" stroke="#000000" stroke-width="2" stroke-linejoin="miter"/><g><path d="M235.50001,157.94762h9c3.31371,0 6,2.68629 6,6v8h-21v-8c0,-3.31371 2.68629,-6 6,-6z" fill="#b4004c" stroke="#000000" stroke-width="2" stroke-linejoin="miter"/><path d="M240.50001,167.94762v-5h5v5z" fill="#ffffff" stroke="#ffffff" stroke-width="2" stroke-linejoin="round"/><path d="M242.50001,166.94762v-3h3v3z" fill="#000000" stroke="none" stroke-width="1" stroke-linejoin="miter"/></g><path d="M234.64286,149.02857c0,-2.95867 2.39847,-5.35714 5.35714,-5.35714c2.95867,0 5.35714,2.39847 5.35714,5.35714c0,2.95867 -2.39847,5.35714 -5.35714,5.35714c-2.95867,0 -5.35714,-2.39847 -5.35714,-5.35714z" fill="#ff0000" stroke="#000000" stroke-width="2" stroke-linejoin="miter"/><path d="M226.50001,149.02857c0,-7.45584 6.04416,-13.5 13.5,-13.5c7.45584,0 13.5,6.04416 13.5,13.5c0,7.45584 -6.04416,13.5 -13.5,13.5c-7.45584,0 -13.5,-6.04416 -13.5,-13.5z" fill="url(#color-1)" stroke="#000000" stroke-width="0" stroke-linejoin="miter"/></g></g></svg>