<svg version="1.1" xmlns="http://www.w3.org/2000/svg" xmlns:xlink="http://www.w3.org/1999/xlink" width="204.80253" height="86.77377" viewBox="0,0,204.80253,86.77377"><g transform="translate(-135.3354,-151.94137)"><g data-paper-data="{&quot;isPaintingLayer&quot;:true}" fill-rule="nonzero" stroke-linecap="butt" stroke-miterlimit="10" stroke-dasharray="" stroke-dashoffset="0" style="mix-blend-mode: normal"><g data-paper-data="{&quot;index&quot;:null}"><path d="M196.47291,168.67816l-15.59808,-14.73679l53.4585,22.67439z" fill="none" stroke="#000000" stroke-width="4" stroke-linejoin="round"/><path d="M196.47291,168.67816l-15.59808,-14.73679l53.4585,22.67439z" fill="#dcb1ff" stroke="none" stroke-width="1" stroke-linejoin="miter"/></g><g data-paper-data="{&quot;index&quot;:null}"><path d="M234,174.00524l82.19082,-9.32958l-31.0602,6.81504z" fill="none" stroke="#000000" stroke-width="4" stroke-linejoin="round"/><path d="M234,174.00524l82.19082,-9.32958l-31.0602,6.81504z" fill="#dcb1ff" stroke="none" stroke-width="1" stroke-linejoin="miter"/></g><g data-paper-data="{&quot;index&quot;:null}"><path d="M234.33333,174.95156l40.81475,-17.93209l-11.71667,13.3229z" fill="none" stroke="#000000" stroke-width="4" stroke-linejoin="round"/><path d="M234.33333,174.95156l40.81475,-17.93209l-11.71667,13.3229z" fill="#dcb1ff" stroke="none" stroke-width="1" stroke-linejoin="miter"/></g><g data-paper-data="{&quot;index&quot;:null}"><path d="M312.57722,180.28979l14.63943,31.25694l-15.44995,5.50742z" fill="none" stroke="#000000" stroke-width="4" stroke-linejoin="round"/><path d="M312.57722,180.28979l14.63943,31.25694l-15.44995,5.50742z" fill="#dcb1ff" stroke="none" stroke-width="1" stroke-linejoin="miter"/></g><g data-paper-data="{&quot;index&quot;:null}"><path d="M275.57722,179.28979l14.63943,31.25694l-15.44995,5.50742z" fill="none" stroke="#000000" stroke-width="4" stroke-linejoin="round"/><path d="M275.57722,179.28979l14.63943,31.25694l-15.44995,5.50742z" fill="#dcb1ff" stroke="none" stroke-width="1" stroke-linejoin="miter"/></g><g data-paper-data="{&quot;index&quot;:null}"><path d="M161.54046,221.61841l-13.14062,-11.47603l26.90406,-34.41683z" fill="none" stroke="#000000" stroke-width="4" stroke-linejoin="round"/><path d="M161.54046,221.61841l-13.14062,-11.47603l27.23739,-34.08351z" fill="#dcb1ff" stroke="none" stroke-width="1" stroke-linejoin="miter"/></g><path d="M332.48813,237.39804h-13.2996c-3.67259,0 -6.6498,-2.97722 -6.6498,-6.6498v-13.2996c0,-3.67258 2.97722,-6.6498 6.6498,-6.6498h13.2996c3.67259,0 6.6498,2.97722 6.6498,6.6498v13.2996c0,3.67258 -2.97721,6.6498 -6.6498,6.6498z" data-paper-data="{&quot;index&quot;:null}" fill="#a400b5" stroke="#000000" stroke-width="2" stroke-linejoin="miter"/><path d="M314.14147,184.73137h-13.2996c-3.67259,0 -6.6498,-2.97722 -6.6498,-6.6498v-13.29959c0,-3.67259 2.97722,-6.64981 6.6498,-6.64981h13.2996c3.67259,0 6.6498,2.97722 6.6498,6.64981v13.29959c0,3.67259 -2.97721,6.6498 -6.6498,6.6498z" data-paper-data="{&quot;index&quot;:null}" fill="#a400b5" stroke="#000000" stroke-width="2" stroke-linejoin="miter"/><path d="M293.4748,237.71514h-13.2996c-3.67259,0 -6.6498,-2.97722 -6.6498,-6.6498v-13.2996c0,-3.67259 2.97722,-6.6498 6.6498,-6.6498h13.2996c3.67259,0 6.6498,2.97722 6.6498,6.6498v13.2996c0,3.67259 -2.97722,6.6498 -6.6498,6.6498z" data-paper-data="{&quot;index&quot;:null}" fill="#a400b5" stroke="#000000" stroke-width="2" stroke-linejoin="miter"/><path d="M283.14147,179.71137h-13.2996c-3.67259,0 -6.6498,-2.97722 -6.6498,-6.6498v-13.29959c0,-3.67258 2.97722,-6.64981 6.6498,-6.64981h13.2996c3.67259,0 6.6498,2.97722 6.6498,6.64981v13.29959c0,3.67258 -2.97721,6.6498 -6.6498,6.6498z" data-paper-data="{&quot;index&quot;:null}" fill="#a400b5" stroke="#000000" stroke-width="2" stroke-linejoin="miter"/><path d="M190.80814,179.71137h-13.2996c-3.67258,0 -6.6498,-2.97722 -6.6498,-6.6498v-13.29959c0,-3.67258 2.97722,-6.6498 6.6498,-6.6498h13.2996c3.67258,0 6.6498,2.97722 6.6498,6.6498v13.29959c0,3.67259 -2.97722,6.6498 -6.6498,6.6498z" data-paper-data="{&quot;index&quot;:null}" fill="#a400b5" stroke="#000000" stroke-width="2" stroke-linejoin="miter"/><path d="M156.2848,237.71514h-13.2996c-3.67258,0 -6.6498,-2.97722 -6.6498,-6.6498v-13.2996c0,-3.67258 2.97722,-6.6498 6.6498,-6.6498h13.2996c3.67258,0 6.6498,2.97722 6.6498,6.6498v13.2996c0,3.67258 -2.97722,6.6498 -6.6498,6.6498z" data-paper-data="{&quot;index&quot;:null}" fill="#a400b5" stroke="#000000" stroke-width="2" stroke-linejoin="miter"/></g></g></svg>