<svg version="1.1" xmlns="http://www.w3.org/2000/svg" xmlns:xlink="http://www.w3.org/1999/xlink" width="66" height="185.41657" viewBox="0,0,66,185.41657"><g transform="translate(-207,-27.58344)"><g data-paper-data="{&quot;isPaintingLayer&quot;:true}" fill-rule="nonzero" stroke-linecap="butt" stroke-miterlimit="10" stroke-dasharray="" stroke-dashoffset="0" style="mix-blend-mode: normal"><path d="M209,149.00001h62v62l-11.67,-1l-9.88,1l-4.7,-1l-18.91,1l-6.09,-1l-10.75,1z" fill="none" stroke="#000000" stroke-width="4" stroke-linejoin="round"/><path d="M226.23256,153.0001v-125.41666h27.53488v125.41667z" fill="#000000" stroke="none" stroke-width="NaN" stroke-linejoin="miter"/><path d="M239.58798,203.72375l31.41202,6.7763l-11.67,-1l-9.88,1l-4.7,-1l-18.91,1l-6.09,-1l-10.75,1z" fill="none" stroke="#000000" stroke-width="4" stroke-linejoin="round"/><path d="M209,149.00001h62v62l-11.67,-1l-9.88,1l-4.7,-1l-18.91,1l-6.09,-1l-10.75,1z" fill="#b56339" stroke="none" stroke-width="1" stroke-linejoin="miter"/><path d="M218,157.50001h44v44l-18,-2l-9,-3l-10,4l-7,1z" fill="#c5693a" stroke="none" stroke-width="1" stroke-linejoin="miter"/><path d="M244,202.50005l2,2l-1,6" fill="none" stroke="#000000" stroke-width="2" stroke-linejoin="round"/><path d="M226,211.50005l-1,-4" fill="none" stroke="#000000" stroke-width="2" stroke-linejoin="round"/><path d="M236,211.50005l-2,-13l4,-6" fill="none" stroke="#000000" stroke-width="2" stroke-linejoin="round"/><path d="M259,210.50005l1,-4" fill="none" stroke="#000000" stroke-width="2" stroke-linejoin="round"/><path d="M234,198.50005l-4,-2" fill="none" stroke="#000000" stroke-width="2" stroke-linejoin="round"/><path d="M217.55,210.50005l1.02,-4" fill="none" stroke="#000000" stroke-width="2" stroke-linejoin="round"/><path d="M218,189.41942l22.2541,4.53962l21.7459,-4.53962v12.0806l-18,-2l-9,-3l-10,4l-7,1z" fill="#ffffff" stroke="none" stroke-width="1" stroke-linejoin="miter"/><path d="M221.5,141.50001v-13h37v13z" fill="#000000" stroke="none" stroke-width="0" stroke-linejoin="miter"/><path d="M221.5,121.50011v-13h37v13z" fill="#000000" stroke="none" stroke-width="0" stroke-linejoin="miter"/><path d="M221.5,96.50011v-13h37v13z" fill="#000000" stroke="none" stroke-width="0" stroke-linejoin="miter"/><path d="M221.5,76.50003v-13h37v13z" fill="#000000" stroke="none" stroke-width="0" stroke-linejoin="miter"/><path d="M221.5,51.50012v-13h37v13z" fill="#000000" stroke="none" stroke-width="0" stroke-linejoin="miter"/><path d="M224,202.00012v-9h9v9z" fill="#000000" stroke="none" stroke-width="1" stroke-linejoin="miter"/><path d="M247,202.00012v-9h9v9z" fill="#000000" stroke="none" stroke-width="1" stroke-linejoin="miter"/><g><path d="M225.91,146.91384h-16l8,-16z" fill="none" stroke="#000000" stroke-width="4" stroke-linejoin="round"/><path d="M225.91,146.91384h-16l8,-16z" fill="#b3b3b3" stroke="none" stroke-width="1" stroke-linejoin="miter"/></g><g><path d="M269.91,146.91384h-16l8,-16z" fill="none" stroke="#000000" stroke-width="4" stroke-linejoin="round"/><path d="M269.91,146.91384h-16l8,-16z" fill="#b3b3b3" stroke="none" stroke-width="1" stroke-linejoin="miter"/></g><g><path d="M247.91,146.91384h-16l8,-16z" fill="none" stroke="#000000" stroke-width="4" stroke-linejoin="round"/><path d="M247.91,146.91384h-16l8,-16z" fill="#b3b3b3" stroke="none" stroke-width="1" stroke-linejoin="miter"/></g></g></g></svg>