<svg version="1.1" xmlns="http://www.w3.org/2000/svg" xmlns:xlink="http://www.w3.org/1999/xlink" width="56.29497" height="52.01522" viewBox="0,0,56.29497,52.01522"><g transform="translate(-205.70503,-127.98479)"><g data-paper-data="{&quot;isPaintingLayer&quot;:true}" fill-rule="nonzero" stroke-miterlimit="10" stroke-dasharray="" stroke-dashoffset="0" style="mix-blend-mode: normal"><path d="M261,165.63259v13.36742h-42v-13.36742h32v-2.86445c0,-1.05466 0.89543,-1.90964 2,-1.90964h3c1.10457,0 2,0.85496 2,1.90964v2.86445z" fill="#ff0000" stroke="#000000" stroke-width="2" stroke-linecap="butt" stroke-linejoin="miter"/><path d="M225,165.63259v-13.36742h18v13.36742z" fill="#000000" stroke="none" stroke-width="1" stroke-linecap="butt" stroke-linejoin="miter"/><g stroke-linecap="butt"><path d="M243.42072,139.83334h-8.26864l4.13432,-9.50894z" fill="none" stroke="#000000" stroke-width="4" stroke-linejoin="round"/><path d="M243.42072,139.83334h-8.26864l4.13432,-9.50894z" fill="#b3b3b3" stroke="none" stroke-width="1" stroke-linejoin="miter"/></g><g stroke-linecap="butt"><path d="M255.82369,139.83334h-8.26865l4.13432,-9.50894z" fill="none" stroke="#000000" stroke-width="4" stroke-linejoin="round"/><path d="M255.82369,139.83334h-8.26865l4.13432,-9.50894z" fill="#b3b3b3" stroke="none" stroke-width="1" stroke-linejoin="miter"/></g><g stroke-linecap="butt"><path d="M232.0661,139.49373h-8.26864l4.13432,-9.50894z" fill="none" stroke="#000000" stroke-width="4" stroke-linejoin="round"/><path d="M232.0661,139.49373h-8.26864l4.13432,-9.50894z" fill="#b3b3b3" stroke="none" stroke-width="1" stroke-linejoin="miter"/></g><g stroke-linecap="butt"><path d="M217.09858,145.13904l0.22383,8.26561l-9.61738,-3.87541z" fill="none" stroke="#000000" stroke-width="4" stroke-linejoin="round"/><path d="M217.09858,145.13904l0.22383,8.26561l-9.61738,-3.87541z" fill="#b3b3b3" stroke="none" stroke-width="1" stroke-linejoin="miter"/></g><g stroke-linecap="butt"><path d="M222.05663,139.09326l-5.44173,6.22561l-4.43858,-9.37079z" fill="none" stroke="#000000" stroke-width="4" stroke-linejoin="round"/><path d="M222.05663,139.09326l-5.44173,6.22561l-4.43858,-9.37079z" fill="#b3b3b3" stroke="none" stroke-width="1" stroke-linejoin="miter"/></g><g stroke-linecap="butt"><path d="M217.09858,154.83202l0.22383,8.26561l-9.61738,-3.87541z" fill="none" stroke="#000000" stroke-width="4" stroke-linejoin="round"/><path d="M217.09858,154.83202l0.22383,8.26561l-9.61738,-3.87541z" fill="#b3b3b3" stroke="none" stroke-width="1" stroke-linejoin="miter"/></g><g stroke="none" stroke-linecap="butt" stroke-linejoin="miter"><path d="M261,165.68953h-42v-19.75335c0,-2.9753 2.68629,-5.38729 6,-5.38729h30c3.31371,0 6,2.41196 6,5.38729z" fill="#9500ff" stroke-width="1"/><path d="M262,166.58739h-44v-20.65124c0,-3.47119 3.13401,-6.28516 7,-6.28516h30c3.86599,0 7,2.81397 7,6.28516zM220,164.79164h40v-18.85548c0,-2.47942 -2.23858,-4.48941 -5,-4.48941h-30c-2.76143,0 -5,2.00996 -5,4.48941z" fill="#000000" stroke-width="1"/><path d="M219.95268,145.91919c0,-2.47942 2.24569,-4.50369 5.00712,-4.50369h30.0804c2.76142,0 5.00712,2.02427 5.00712,4.50369l-0.0036,18.89798h-40.08745z" data-paper-data="{&quot;noHover&quot;:false,&quot;origItem&quot;:[&quot;Path&quot;,{&quot;applyMatrix&quot;:true,&quot;segments&quot;:[[220,164.29333],[260,164.29333],[[260,146.37333],[0,0],[0,-2.35642]],[[255,142.10666],[2.76142,0],[0,0]],[[225,142.10666],[0,0],[-2.76143,0]],[[220,146.37333],[0,-2.35642],[0,0]]],&quot;closed&quot;:true,&quot;fillColor&quot;:[0,0,0,1]}]}" fill="#ff7800" stroke-width="0.5"/></g><path d="M253.3,159.00617h-10.4" fill="none" stroke="#000000" stroke-width="2" stroke-linecap="round" stroke-linejoin="miter"/></g></g></svg>