<svg version="1.1" xmlns="http://www.w3.org/2000/svg" xmlns:xlink="http://www.w3.org/1999/xlink" width="66" height="203.41661" viewBox="0,0,66,203.41661"><g transform="translate(-207,-27.58344)"><g data-paper-data="{&quot;isPaintingLayer&quot;:true}" fill-rule="nonzero" stroke-linecap="butt" stroke-miterlimit="10" stroke-dasharray="" stroke-dashoffset="0" style="mix-blend-mode: normal"><path d="M209,149.00001h62v62l-11.67,-1l-9.88,1l-4.7,-1l-18.91,1l-6.09,-1l-10.75,1z" fill="none" stroke="#000000" stroke-width="4" stroke-linejoin="round"/><path d="M226.23256,153.0001v-125.41666h27.53488v125.41667z" fill="#000000" stroke="none" stroke-width="NaN" stroke-linejoin="miter"/><path d="M239.58798,203.72376l31.41202,6.7763l-11.67,-1l-9.88,1l-4.7,-1l-18.91,1l-6.09,-1l-10.75,1z" fill="none" stroke="#000000" stroke-width="4" stroke-linejoin="round"/><path d="M209,149.00001h62v62l-11.67,-1l-9.88,1l-4.7,-1l-18.91,1l-6.09,-1l-10.75,1z" fill="#cdcdcd" stroke="none" stroke-width="1" stroke-linejoin="miter"/><path d="M218,157.50001h44v44l-18,-2l-9,-3l-10,4l-7,1z" fill="#e8e8e8" stroke="none" stroke-width="1" stroke-linejoin="miter"/><path d="M244,202.50006l2,2l-1,6" fill="none" stroke="#000000" stroke-width="2" stroke-linejoin="round"/><path d="M226,211.50006l-1,-4" fill="none" stroke="#000000" stroke-width="2" stroke-linejoin="round"/><path d="M236,211.50006l-2,-13l4,-6" fill="none" stroke="#000000" stroke-width="2" stroke-linejoin="round"/><path d="M259,210.50006l1,-4" fill="none" stroke="#000000" stroke-width="2" stroke-linejoin="round"/><path d="M230,196.50006l4,2" fill="none" stroke="#000000" stroke-width="2" stroke-linejoin="round"/><path d="M217.55,210.50006l1.02,-4" fill="none" stroke="#000000" stroke-width="2" stroke-linejoin="round"/><path d="M218,188.66943l22.2541,-2.71038l21.7459,2.71038v12.8306l-18,-2l-9,-3l-10,4l-7,1z" fill="#ffffff" stroke="none" stroke-width="1" stroke-linejoin="miter"/><path d="M221.5,141.50001v-13h37v13z" fill="#000000" stroke="none" stroke-width="0" stroke-linejoin="miter"/><path d="M221.5,121.50012v-13h37v13z" fill="#000000" stroke="none" stroke-width="0" stroke-linejoin="miter"/><path d="M221.5,96.50012v-13h37v13z" fill="#000000" stroke="none" stroke-width="0" stroke-linejoin="miter"/><path d="M221.5,76.50003v-13h37v13z" fill="#000000" stroke="none" stroke-width="0" stroke-linejoin="miter"/><path d="M221.5,51.50013v-13h37v13z" fill="#000000" stroke="none" stroke-width="0" stroke-linejoin="miter"/><path d="M224,202.00013v-9h9v9z" fill="#000000" stroke="none" stroke-width="1" stroke-linejoin="miter"/><path d="M247,202.00013v-9h9v9z" fill="#000000" stroke="none" stroke-width="1" stroke-linejoin="miter"/><g><path d="M254.09,213.00005h16l-8,16z" fill="none" stroke="#000000" stroke-width="4" stroke-linejoin="round"/><path d="M254.09,213.00005h16l-8,16z" fill="#b3b3b3" stroke="none" stroke-width="1" stroke-linejoin="miter"/></g><g><path d="M210.09,213.00005h16l-8,16z" fill="none" stroke="#000000" stroke-width="4" stroke-linejoin="round"/><path d="M210.09,213.00005h16l-8,16z" fill="#b3b3b3" stroke="none" stroke-width="1" stroke-linejoin="miter"/></g><g><path d="M232.09,213.00005h16l-8,16z" fill="none" stroke="#000000" stroke-width="4" stroke-linejoin="round"/><path d="M232.09,213.00005h16l-8,16z" fill="#b3b3b3" stroke="none" stroke-width="1" stroke-linejoin="miter"/></g></g></g></svg>