<svg version="1.1" xmlns="http://www.w3.org/2000/svg" xmlns:xlink="http://www.w3.org/1999/xlink" width="53.47535" height="59.01815" viewBox="0,0,53.47535,59.01815"><g transform="translate(-213.14177,-151.98185)"><g data-paper-data="{&quot;isPaintingLayer&quot;:true}" fill-rule="nonzero" stroke-width="0" stroke-linecap="butt" stroke-miterlimit="10" stroke-dasharray="" stroke-dashoffset="0" style="mix-blend-mode: normal"><path d="M234.20424,211.00001v-28.19436h11.49852v28.19436z" data-paper-data="{&quot;index&quot;:null}" fill="#c4a639" stroke="none" stroke-linejoin="round"/><path d="M262.9708,185.54827c-0.15275,0.97576 -1.13535,1.72225 -2.19303,1.55667c-4.69617,-0.73517 -38.59162,-6.04139 -46.33002,-7.25281c-1.00623,-0.15752 -1.45466,-0.98385 -1.26245,-2.21162c0.84401,-5.39146 3.16638,-20.22645 3.67547,-23.4784c0.19239,-1.22897 0.94139,-2.32261 1.94762,-2.16509c7.7384,1.21142 41.63385,6.51765 46.33002,7.25282c1.05768,0.16558 1.70818,1.54052 1.40336,3.48766c-0.98782,6.31008 -3.13388,20.01876 -3.57095,22.81077z" data-paper-data="{&quot;index&quot;:null}" fill="#ae9332" stroke="none" stroke-linejoin="round"/><path d="M253.14867,175.8954c-3.79927,-0.59071 -23.15715,-3.60046 -23.15715,-3.60046l1.41658,-9.11101c0,0 19.08102,2.9667 22.96733,3.57094c1.32193,0.20553 2.412,1.99142 2.24422,3.07055c-0.14688,0.94465 -0.44535,2.8644 -0.67877,4.36569c-0.18213,1.17134 -1.552,1.89711 -2.7922,1.70429z" data-paper-data="{&quot;index&quot;:null}" fill="#726121" stroke="#000000" stroke-linejoin="miter"/><path d="M230.13974,180.09405c-0.20203,1.29943 -1.17923,0.84676 -1.93947,-0.25738c-1.31576,-1.91097 -5.57366,-8.09492 -7.85401,-11.4068c-0.88629,-1.28719 -0.70704,-2.73483 0.46395,-3.64235c3.20651,-2.48508 9.44364,-7.3189 11.26551,-8.73088c0.9796,-0.75921 1.80898,-0.04916 1.57595,1.44968c-0.53369,3.43247 -2.68623,17.27709 -3.51192,22.58771z" data-paper-data="{&quot;index&quot;:null}" fill="#726121" stroke="none" stroke-linejoin="miter"/></g></g></svg>