<svg version="1.1" xmlns="http://www.w3.org/2000/svg" xmlns:xlink="http://www.w3.org/1999/xlink" width="60.13979" height="71.26189" viewBox="0,0,60.13979,71.26189"><g transform="translate(-201.86022,-108.73811)"><g data-paper-data="{&quot;isPaintingLayer&quot;:true}" fill-rule="nonzero" stroke-linecap="butt" stroke-miterlimit="10" stroke-dasharray="" stroke-dashoffset="0" style="mix-blend-mode: normal"><path d="M225.00001,165v-14h18v14z" fill="#000000" stroke="none" stroke-width="1" stroke-linejoin="miter"/><path d="M261.00001,165v14h-42v-14h32v-3c0,-1.10457 0.89543,-2 2,-2h3c1.10457,0 2,0.89543 2,2v3z" fill="#bd0000" stroke="#000000" stroke-width="2" stroke-linejoin="miter"/><g><g stroke="none" stroke-linejoin="miter"><path d="M260.18651,148.81026l-40.69628,10.38329l-5.43886,-21.3171c-0.81922,-3.21084 1.11958,-6.47786 4.33043,-7.29709l29.06877,-7.41663c3.21084,-0.81922 6.47786,1.11958 7.29709,4.33043z" fill="#9500ff" stroke-width="1"/><path d="M261.40268,149.53199l-42.63421,10.87774l-5.68609,-22.28606c-0.95575,-3.74599 1.30618,-7.5575 5.05217,-8.51326l29.06877,-7.41663c3.74599,-0.95575 7.5575,1.30618 8.51326,5.05217zM220.21196,157.97737l38.75837,-9.88885l-5.19165,-20.34814c-0.68268,-2.67571 -3.40521,-4.29137 -6.0809,-3.6087l-29.06877,7.41663c-2.67571,0.68268 -4.29137,3.4052 -3.6087,6.0809z" fill="#000000" stroke-width="1"/><path d="M214.97088,137.62165c-0.68267,-2.6757 0.93797,-5.41358 3.61368,-6.09626l29.14016,-7.43583c2.67569,-0.68267 5.4106,0.94423 6.09328,3.61994l5.19991,20.39436l-38.841,9.90917z" data-paper-data="{&quot;noHover&quot;:false,&quot;origItem&quot;:[&quot;Path&quot;,{&quot;applyMatrix&quot;:true,&quot;segments&quot;:[[220.21196,157.97737],[258.97033,148.08852],[[253.77868,127.74038],[0,0],[-0.68268,-2.67571]],[[247.69778,124.13168],[2.67569,-0.68267],[0,0]],[[218.62901,131.54831],[0,0],[-2.67571,0.68268]],[[215.02031,137.62921],[-0.68267,-2.6757],[0,0]]],&quot;closed&quot;:true,&quot;fillColor&quot;:[0,0,0,1]}]}" fill="#ff0000" stroke-width="0.5"/></g><path d="M250.45706,143.03635l-9.68959,2.47221l-2.47221,-9.68959l10.18403,-0.53429z" fill="#ffffff" stroke="#ffffff" stroke-width="2" stroke-linejoin="round"/><path d="M244.3961,143.55073l-1.48332,-5.81376l5.81376,-1.48332l1.48332,5.81376z" fill="#000000" stroke="none" stroke-width="1" stroke-linejoin="miter"/></g><path d="M203.69372,127.94829l10.58116,2.06856l0.92909,-10.40157l8.49637,4.61149l3.07735,-13.57592l11.02859,17.20088l-22.58397,14.79744z" fill="#fff700" stroke-opacity="0.5" stroke="#000000" stroke-width="1.5" stroke-linejoin="miter"/></g></g></svg>