<svg version="1.1" xmlns="http://www.w3.org/2000/svg" xmlns:xlink="http://www.w3.org/1999/xlink" width="51.58937" height="46.4077" viewBox="0,0,51.58937,46.4077"><g transform="translate(-202.33033,-133.53992)"><g stroke-miterlimit="10"><g><path d="M226.99551,140.48993l14.63678,6.76061l-12.12057,10.63168" fill="none" stroke="#000000" stroke-width="8" stroke-linejoin="round"/><path d="M242.8904,155.94668l-14.63678,-6.76061l12.12057,-10.63168" fill="none" stroke="#000000" stroke-width="8" stroke-linejoin="round"/><path d="M226.99551,140.48993l14.63678,6.76061l-12.12057,10.63168" fill="none" stroke="#b5b5b5" stroke-width="4" stroke-linejoin="round"/><path d="M242.8904,155.94668l-14.63678,-6.76061l12.12057,-10.63168" fill="none" stroke="#b5b5b5" stroke-width="4" stroke-linejoin="round"/><path d="M226.1772,142.31565l15.4992,-2.24232" fill="none" stroke="#000000" stroke-width="2" stroke-linejoin="miter"/><path d="M224.8478,142.16649l-0.58066,-4.0136l18.06121,-2.61298l0.58066,4.0136z" fill="none" stroke="#000000" stroke-width="4" stroke-linejoin="round"/><path d="M224.8478,142.16649l-0.58066,-4.0136l18.06121,-2.61298l0.58066,4.0136z" fill="#00a99d" stroke="none" stroke-width="1" stroke-linejoin="miter"/><path d="M224.8478,142.16649l-0.19355,-1.33787l18.06121,-2.61298l0.19356,1.33787z" fill="#009c92" stroke="none" stroke-width="1" stroke-linejoin="miter"/></g><path d="M234.5,172.38918v-7h11v7z" fill="#000000" stroke="none" stroke-width="1" stroke-linejoin="miter"/><path d="M207.75,178.94762l19.27287,-7.36286l25.55757,0.47639l-2.08044,6.88647z" fill="#007169" stroke="#000000" stroke-width="2" stroke-linejoin="miter"/><g><g><path d="M250.94116,150.14755l-5.12136,-0.07906l2.46328,-7.31438z" fill="none" stroke="#000000" stroke-width="4" stroke-linejoin="round"/><path d="M250.94116,150.14755l-5.12136,-0.07906l2.46328,-7.31438z" fill="#b3b3b3" stroke="none" stroke-width="1" stroke-linejoin="miter"/></g><g><path d="M225.98334,168.67021l-7.52777,-12.91372l33.9502,-6.99638l-1.33951,14.81778z" fill="#00a99d" stroke="#000000" stroke-width="2" stroke-linejoin="miter"/><g><path d="M243.6481,161.63159l-1.00919,-4.8971l4.8971,-1.00919l1.00919,4.8971z" fill="#ffffff" stroke="#ffffff" stroke-width="2" stroke-linejoin="round"/><path d="M245.40511,160.2485l-0.60551,-2.93826l2.93825,-0.60551l0.60551,2.93826z" fill="#000000" stroke="none" stroke-width="1" stroke-linejoin="miter"/></g></g><path d="M230.13843,166.53767l-4.99237,-11.13892l4.41996,-1.03849l3.27634,11.82453z" fill="#008279" stroke="#000000" stroke-width="0" stroke-linejoin="miter"/></g></g></g></svg>