<svg version="1.1" xmlns="http://www.w3.org/2000/svg" xmlns:xlink="http://www.w3.org/1999/xlink" width="53.5" height="17.5" viewBox="0,0,53.5,17.5"><g transform="translate(-212.75,-177.75005)"><g data-paper-data="{&quot;isPaintingLayer&quot;:true}" fill-rule="nonzero" stroke-linecap="butt" stroke-miterlimit="10" stroke-dasharray="" stroke-dashoffset="0" style="mix-blend-mode: normal"><g data-paper-data="{&quot;index&quot;:null}" stroke="#000000" stroke-width="0.5" stroke-linejoin="miter"><path d="M266,195.00005h-53v-9c0,-4.41828 3.58172,-8 8,-8h37c4.41828,0 8,3.58172 8,8zM217,191.00005h45v-5c0,-2.20914 -1.79086,-4 -4,-4h-37c-2.20914,0 -4,1.79086 -4,4z" fill="#000000"/><path d="M264,193.00005h-49v-7c0,-3.31371 2.68629,-6 6,-6h37c3.31371,0 6,2.68629 6,6z" fill="#9a00a8"/></g><path d="M256,190.00005v-5h5v5z" data-paper-data="{&quot;index&quot;:null}" fill="#ffffff" stroke="#ffffff" stroke-width="2" stroke-linejoin="round"/><path d="M258,190.00005v-3h3v3z" data-paper-data="{&quot;index&quot;:null}" fill="#000000" stroke="none" stroke-width="1" stroke-linejoin="miter"/><path d="M246,193.00005v-13h5v13z" data-paper-data="{&quot;index&quot;:null}" fill="#710082" stroke="none" stroke-width="1" stroke-linejoin="miter"/><path d="M236,193.00005v-13h5v13z" data-paper-data="{&quot;index&quot;:null}" fill="#710082" stroke="none" stroke-width="1" stroke-linejoin="miter"/><path d="M226,193.00005v-13h5v13z" data-paper-data="{&quot;index&quot;:null}" fill="#710082" stroke="none" stroke-width="1" stroke-linejoin="miter"/></g></g></svg>