<svg version="1.1" xmlns="http://www.w3.org/2000/svg" xmlns:xlink="http://www.w3.org/1999/xlink" width="56.29497" height="55.84854" viewBox="0,0,56.29497,55.84854"><g transform="translate(-205.70503,-124.15146)"><g data-paper-data="{&quot;isPaintingLayer&quot;:true}" fill-rule="nonzero" stroke-linecap="butt" stroke-miterlimit="10" stroke-dasharray="" stroke-dashoffset="0" style="mix-blend-mode: normal"><path d="M225,165v-14h18v14z" fill="#000000" stroke="none" stroke-width="1" stroke-linejoin="miter"/><path d="M261,165v14h-42v-14h32v-3c0,-1.10457 0.89543,-2 2,-2h3c1.10457,0 2,0.89543 2,2v3z" fill="#ff0000" stroke="#000000" stroke-width="2" stroke-linejoin="miter"/><g><g stroke="none" stroke-linejoin="miter"><path d="M260.75,165h-42v-22c0,-3.31371 2.68629,-6 6,-6h30c3.31371,0 6,2.68629 6,6z" fill="#9500ff" stroke-width="1"/><path d="M261.75,166h-44v-23c0,-3.86599 3.13401,-7 7,-7h30c3.86599,0 7,3.13401 7,7zM219.75,164h40v-21c0,-2.76143 -2.23858,-5 -5,-5h-30c-2.76143,0 -5,2.23857 -5,5z" fill="#000000" stroke-width="1"/><path d="M219.70358,142.98143c0,-2.76143 2.24721,-5.01418 5.00864,-5.01418h30.07557c2.76142,0 5.00864,2.25275 5.00864,5.01418l-0.0045,21.04582h-40.08384z" data-paper-data="{&quot;noHover&quot;:false,&quot;origItem&quot;:[&quot;Path&quot;,{&quot;applyMatrix&quot;:true,&quot;segments&quot;:[[219.75,164],[259.75,164],[[259.75,143],[0,0],[0,-2.76143]],[[254.75,138],[2.76142,0],[0,0]],[[224.75,138],[0,0],[-2.76143,0]],[[219.75,143],[0,-2.76143],[0,0]]],&quot;closed&quot;:true,&quot;fillColor&quot;:[0,0,0,1]}]}" fill="#ff7800" stroke-width="0.5"/></g><path d="M252.75,157h-10v-10l10,2z" fill="#ffffff" stroke="#ffffff" stroke-width="2" stroke-linejoin="round"/><path d="M246.75,156v-6h6v6z" fill="#000000" stroke="none" stroke-width="1" stroke-linejoin="miter"/></g><g><path d="M244.36015,136h-8.26864l4.13432,-9.50894z" fill="none" stroke="#000000" stroke-width="4" stroke-linejoin="round"/><path d="M244.36015,136h-8.26864l4.13432,-9.50894z" fill="#b3b3b3" stroke="none" stroke-width="1" stroke-linejoin="miter"/></g><g><path d="M256.76312,136h-8.26865l4.13432,-9.50894z" fill="none" stroke="#000000" stroke-width="4" stroke-linejoin="round"/><path d="M256.76312,136h-8.26865l4.13432,-9.50894z" fill="#b3b3b3" stroke="none" stroke-width="1" stroke-linejoin="miter"/></g><g><path d="M233.00553,135.6604h-8.26864l4.13432,-9.50894z" fill="none" stroke="#000000" stroke-width="4" stroke-linejoin="round"/><path d="M233.00553,135.6604h-8.26864l4.13432,-9.50894z" fill="#b3b3b3" stroke="none" stroke-width="1" stroke-linejoin="miter"/></g><g><path d="M217.1307,142.63903l0.22383,8.26561l-9.61738,-3.87541z" fill="none" stroke="#000000" stroke-width="4" stroke-linejoin="round"/><path d="M217.1307,142.63903l0.22383,8.26561l-9.61738,-3.87541z" fill="#b3b3b3" stroke="none" stroke-width="1" stroke-linejoin="miter"/></g><g><path d="M222.99606,135.25992l-5.44173,6.22561l-4.43858,-9.37079z" fill="none" stroke="#000000" stroke-width="4" stroke-linejoin="round"/><path d="M222.99606,135.25992l-5.44173,6.22561l-4.43858,-9.37079z" fill="#b3b3b3" stroke="none" stroke-width="1" stroke-linejoin="miter"/></g><g><path d="M217.09858,153.99869l0.22383,8.26561l-9.61738,-3.87541z" fill="none" stroke="#000000" stroke-width="4" stroke-linejoin="round"/><path d="M217.09858,153.99869l0.22383,8.26561l-9.61738,-3.87541z" fill="#b3b3b3" stroke="none" stroke-width="1" stroke-linejoin="miter"/></g></g></g></svg>