<svg version="1.1" xmlns="http://www.w3.org/2000/svg" xmlns:xlink="http://www.w3.org/1999/xlink" width="47.54532" height="30.01282" viewBox="0,0,47.54532,30.01282"><g transform="translate(-215.97734,-149.34898)"><g data-paper-data="{&quot;isPaintingLayer&quot;:true}" fill-rule="nonzero" stroke-linecap="butt" stroke-linejoin="miter" stroke-miterlimit="10" stroke-dasharray="" stroke-dashoffset="0" style="mix-blend-mode: normal"><path d="M255.09758,174.62196c-9.29151,5.26196 -23.69511,4.93113 -32.17135,-0.73894c-8.47623,-5.67006 -7.81532,-14.53222 1.47619,-19.79418c9.29151,-5.26196 23.69511,-4.93113 32.17135,0.73894c8.47623,5.67006 7.81532,14.53222 -1.47619,19.79418z" fill="#ff0000" stroke="#000000" stroke-width="2"/><path d="M255.09758,174.62196c-9.29151,5.26196 -39.98667,-15.27115 -30.69516,-20.53312c9.29151,-5.26196 23.69511,-4.93113 32.17135,0.73894c8.47623,5.67006 7.81532,14.53222 -1.47619,19.79418z" fill="#ff7800" stroke="#000000" stroke-width="2"/><path d="M235.92476,154.57637c0.54893,-0.57536 1.44564,-0.28971 1.44564,-0.28971l0.01363,0.08355c2.342,0.0081 4.40794,-0.32082 6.80809,-0.15887c6.2938,0.42467 11.04024,2.80958 14.45442,5.81926c0,0 0.57211,0.50593 -0.30999,0.90174c-0.88209,0.39581 -1.4542,-0.11013 -1.4542,-0.11013c-3.08936,-2.74164 -7.38208,-4.95287 -13.11113,-5.33434c-2.34223,-0.15595 -4.25638,0.1535 -6.56712,0.16706l-0.93157,-0.21756c0,0 -0.8967,-0.28565 -0.34777,-0.86101z" fill="#ffb06b" stroke="none" stroke-width="0.5"/><path d="M227.40919,155.17592c-0.53565,-0.52166 0.36904,-0.8965 0.36904,-0.8965l0.91717,-0.38001c6.9956,-2.86223 13.14763,-1.3892 20.35217,-0.90782c0,0 1.03119,0.06913 0.82609,0.70776c-0.20509,0.63864 -1.23627,0.5695 -1.23627,0.5695c-6.54016,-0.43987 -12.53971,-1.99122 -18.87066,0.67386l-0.91717,0.38001c0,0 -0.90469,0.37484 -1.44035,-0.14681z" fill="#ffb06b" stroke="none" stroke-width="0.5"/><path d="M224.78494,158.56602c-0.11722,-0.62953 0.92761,-0.75729 0.92761,-0.75729l0.49917,-0.05606c6.93015,-1.38883 13.22516,-0.93207 19.94045,0.02461c0,0 1.00047,0.14267 0.67727,0.769c-0.32321,0.62632 -1.32367,0.48365 -1.32367,0.48365c-6.34489,-0.90575 -12.25633,-1.37143 -18.80223,-0.05961l-0.75655,0.09748c0,0 -1.04482,0.12776 -1.16205,-0.50178z" fill="#ffb06b" stroke="none" stroke-width="0.5"/><path d="M223.93598,170.8985c-0.97717,0.2889 -1.36517,-0.28484 -1.36517,-0.28484l-0.37565,-0.56078c-2.90436,-2.82846 -3.59786,-7.75216 -1.89497,-11.14396c0,0 0.32321,-0.62632 1.32367,-0.48365c1.00047,0.14267 0.67727,0.769 0.67727,0.769c-1.62482,3.04606 -0.82747,7.65189 1.78166,10.19283l0.44234,0.64877c0,0 0.388,0.57374 -0.58916,0.86264z" fill="#ff5a5a" stroke="none" stroke-width="0.5"/><path d="M235.12944,173.15675c-0.4166,0.60997 -1.38192,0.40856 -1.38192,0.40856l-0.74748,-0.22953c-1.48373,-0.99252 -3.24238,-1.83856 -4.5883,-2.90708c-2.46905,-1.96016 -4.08933,-4.39729 -6.40715,-6.44294c0,0 -0.57211,-0.50593 0.30999,-0.90174c0.88209,-0.39581 1.4542,0.11013 1.4542,0.11013c2.29357,2.03207 3.90687,4.45945 6.35783,6.40137c1.31193,1.03946 3.03637,1.86216 4.48209,2.82926l-0.02797,-0.07941c0,0 0.96532,0.20141 0.54872,0.81138z" fill="#ff5a5a" stroke="none" stroke-width="0.5"/><path d="M237.44359,175.97705c0.6771,0.45294 -0.12722,0.90844 -0.12722,0.90844l-0.5572,0.27263c-4.00047,0.98992 -8.00668,-1.86156 -10.35509,-3.43249c0,0 -0.6771,-0.45294 0.12722,-0.90844c0.80432,-0.4555 1.48142,-0.00257 1.48142,-0.00257c1.25701,0.84086 5.84038,4.10621 7.97043,3.19603l-0.02099,-0.03104c0,0 0.80432,-0.4555 1.48142,-0.00257z" fill="#ff5a5a" stroke="none" stroke-width="0.5"/><path d="M257.62116,161.44953c1.04753,-0.00182 0.95756,0.64055 0.95756,0.64055l-0.03888,0.23189c0.07366,2.16634 0.28854,4.3566 0.32306,6.52112c0,0 0.00525,0.63956 -1.04612,0.69953c-1.05136,0.05997 -1.05662,-0.5796 -1.05662,-0.5796c0.00221,-2.13412 -0.21618,-4.36247 -0.32242,-6.49557l0.04594,-0.37375c0,0 0.08997,-0.64237 1.13748,-0.64418z" fill="#ffb06b" stroke="none" stroke-width="0.5"/><path d="M249.80872,160.20859c0.9215,-0.35783 1.4277,0.17564 1.4277,0.17564l0.48587,0.52229c2.26284,3.34835 3.63808,6.31867 2.63257,10.17094c0,0 -0.17004,0.64061 -1.20758,0.59315c-1.03754,-0.04746 -0.8675,-0.68807 -0.8675,-0.68807c0.98005,-3.62424 -0.3877,-6.3594 -2.51182,-9.49823l-0.37452,-0.38443c0,0 -0.5062,-0.53347 0.41529,-0.8913z" fill="#ffb06b" stroke="none" stroke-width="0.5"/></g></g></svg>