<svg version="1.1" xmlns="http://www.w3.org/2000/svg" xmlns:xlink="http://www.w3.org/1999/xlink" width="98" height="44.53" viewBox="0,0,98,44.53"><g transform="translate(-191,-164.47)"><g stroke-miterlimit="10"><g><path d="M276.3,207h-72.6c-5.90945,0 -10.7,-4.79055 -10.7,-10.7v-11.64c-0.00144,-5.04951 3.53058,-9.41137 8.47,-10.46l36.3,-7.73c1.47051,-0.31002 2.98949,-0.31002 4.46,0l36.3,7.73c4.93942,1.04863 8.47145,5.41049 8.47,10.46v11.64c0,5.90945 -4.79055,10.7 -10.7,10.7z" fill="none" stroke="#000000" stroke-width="4" stroke-linejoin="round"/><path d="M276.3,207h-72.6c-5.90945,0 -10.7,-4.79055 -10.7,-10.7v-11.64c-0.00144,-5.04951 3.53058,-9.41137 8.47,-10.46l36.3,-7.73c1.47051,-0.31002 2.98949,-0.31002 4.46,0l36.3,7.73c4.93942,1.04863 8.47145,5.41049 8.47,10.46v11.64c0,5.90945 -4.79055,10.7 -10.7,10.7z" fill="#312b8a" stroke="none" stroke-width="1" stroke-linejoin="miter"/></g><path d="M280.76559,193.20141l-4.34662,-8.68932l-15.17069,-2.52605l-6.01518,-3.49254l-8.20034,0.87824l-9.73816,-0.41413l-11.82952,9.31594l-6.41822,-8.46259l-6.13388,12.3433l-11.61298,-4.95425l-8.3,9.1v-11.64c-0.00144,-5.04951 3.53058,-9.41137 8.47,-10.46l36.3,-7.73c1.47051,-0.31002 2.98949,-0.31002 4.46,0l36.3,7.73c4.93942,1.04863 8.47145,5.41049 8.47,10.46v11.64z" fill="#00ffff" stroke="none" stroke-width="1" stroke-linejoin="miter"/><path d="M276,198l-36,-5l-37,5v-17l37.09,-7l35.91,7z" fill="#4138b5" stroke="none" stroke-width="1" stroke-linejoin="miter"/><path d="M233,198v-21.6h14v21.6z" fill="#312b8a" stroke="none" stroke-width="1" stroke-linejoin="miter"/><path d="M276,198l-9.77215,-12.44894l-7.28782,4.3016l-10.92095,-7.28513l-5.00744,8.16902l-8.48049,-8.97209l-8.77146,7.43936l-6.95968,-8.60382l-5.75468,11.64217l-10.04532,-4.24216v-7l37.09,-7l35.91,7z" fill="#b8ffff" stroke="none" stroke-width="1" stroke-linejoin="miter"/><path d="M237,191v-6h6v6z" fill="#7d0000" stroke="none" stroke-width="1" stroke-linejoin="miter"/><path d="M237,199v-6h6v6z" fill="#7d0000" stroke="none" stroke-width="1" stroke-linejoin="miter"/><path d="M237,207v-6h6v6z" fill="#201c5a" stroke="none" stroke-width="1" stroke-linejoin="miter"/><path d="M232,192c0,-4.41828 3.58172,-8 8,-8c4.41828,0 8,3.58172 8,8c0,4.41828 -3.58172,8 -8,8c-4.41828,0 -8,-3.58172 -8,-8z" fill="#867dff" stroke="#000000" stroke-width="2" stroke-linejoin="round"/><path d="M268,184v11l-22,-3" fill="none" stroke="#000000" stroke-width="2" stroke-linejoin="round"/><path d="M258,198v-9" fill="none" stroke="#000000" stroke-width="2" stroke-linejoin="round"/><path d="M240,208v-9" fill="none" stroke="#000000" stroke-width="2" stroke-linejoin="round"/><path d="M234,192l-22,3v-11" fill="none" stroke="#000000" stroke-width="2" stroke-linejoin="round"/><path d="M222,198v-9" fill="none" stroke="#000000" stroke-width="2" stroke-linejoin="round"/></g></g></svg>