<svg version="1.1" xmlns="http://www.w3.org/2000/svg" xmlns:xlink="http://www.w3.org/1999/xlink" width="84.72083" height="67.07711" viewBox="0,0,84.72083,67.07711"><defs><linearGradient x1="240" y1="166.77418" x2="240" y2="189.17418" gradientUnits="userSpaceOnUse" id="color-1"><stop offset="0" stop-color="#84f5ff"/><stop offset="1" stop-color="#ffffff"/></linearGradient></defs><g transform="translate(-197.60154,-145.62798)"><g data-paper-data="{&quot;isPaintingLayer&quot;:true}" fill-rule="nonzero" stroke-linecap="butt" stroke-miterlimit="10" stroke-dasharray="" stroke-dashoffset="0" style="mix-blend-mode: normal"><path d="M208.9,189.17418l-6,-22.4h74.2l-6,22.4z" fill="url(#color-1)" stroke="none" stroke-width="0" stroke-linejoin="miter"/><path d="M232.80154,202.06284l9.10715,-23.24743l38.41368,8.64224l-9.10715,23.24744z" data-paper-data="{&quot;index&quot;:null}" fill="#39b54a" stroke="#000000" stroke-width="4" stroke-linejoin="round"/><path d="M232.80154,201.66284l9.10715,-23.24743l38.41368,8.64224l-8.98323,23.27532z" data-paper-data="{&quot;index&quot;:null}" fill="#a539c4" stroke="none" stroke-width="0" stroke-linejoin="round"/><path d="M240.93911,196.17902l3.98438,-10.17075l27.26133,6.1332l-3.86047,10.19863z" data-paper-data="{&quot;index&quot;:null}" fill="#b44fd1" stroke="none" stroke-width="1" stroke-linejoin="miter"/><g><path d="M208.70869,210.50508l-9.10715,-23.24744l38.41368,-8.64223l9.10715,23.24743z" fill="#39b54a" stroke="#000000" stroke-width="4" stroke-linejoin="round"/><path d="M208.58478,210.33296l-8.98324,-23.27532l38.41368,-8.64223l9.10715,23.24743z" fill="#a539c4" stroke="none" stroke-width="0" stroke-linejoin="round"/><path d="M211.59957,202.7401l-3.86047,-10.19863l27.26133,-6.1332l3.98438,10.17075z" fill="#b44fd1" stroke="none" stroke-width="1" stroke-linejoin="miter"/></g><path d="M277.145,145.62798v21.8h-74v-21.8z" data-paper-data="{&quot;index&quot;:null}" fill="#84f5ff" stroke="none" stroke-width="0" stroke-linejoin="miter"/><path d="M209,210.67418v-32h62v32z" fill="#39b54a" stroke="#000000" stroke-width="4" stroke-linejoin="round"/></g></g></svg>