<svg version="1.1" xmlns="http://www.w3.org/2000/svg" xmlns:xlink="http://www.w3.org/1999/xlink" width="65.33334" height="160.41664" viewBox="0,0,65.33334,160.41664"><g transform="translate(-207.83334,-119.06661)"><g data-paper-data="{&quot;isPaintingLayer&quot;:true}" fill-rule="nonzero" stroke-linecap="butt" stroke-miterlimit="10" stroke-dasharray="" stroke-dashoffset="0" style="mix-blend-mode: normal"><path d="M232.51939,244.48327v-125.41666h15.6279v125.41667z" fill="#000000" stroke="none" stroke-width="NaN" stroke-linejoin="miter"/><path d="M229.83334,232.98326v-13h21v13z" fill="#000000" stroke="none" stroke-width="0" stroke-linejoin="miter"/><path d="M229.83334,212.98326v-13h21v13z" fill="#000000" stroke="none" stroke-width="0" stroke-linejoin="miter"/><path d="M229.83334,187.98326v-13h21v13z" fill="#000000" stroke="none" stroke-width="0" stroke-linejoin="miter"/><path d="M229.83334,167.98326v-13h21v13z" fill="#000000" stroke="none" stroke-width="0" stroke-linejoin="miter"/><path d="M229.83334,142.98326v-13h21v13z" fill="#000000" stroke="none" stroke-width="0" stroke-linejoin="miter"/><g><path d="M246.67878,264.98942h10.85827l-5.42914,12.49383z" fill="none" stroke="#000000" stroke-width="4" stroke-linejoin="round"/><path d="M246.67878,264.98942h10.85827l-5.42914,12.49383z" fill="#b3b3b3" stroke="none" stroke-width="1" stroke-linejoin="miter"/></g><g><path d="M235.32076,264.98942h10.85827l-5.42914,12.49383z" fill="none" stroke="#000000" stroke-width="4" stroke-linejoin="round"/><path d="M235.32076,264.98942h10.85827l-5.42914,12.49383z" fill="#b3b3b3" stroke="none" stroke-width="1" stroke-linejoin="miter"/></g><g><path d="M223.95137,264.98942h10.86963l-5.42914,12.49383z" fill="none" stroke="#000000" stroke-width="4" stroke-linejoin="round"/><path d="M223.95137,264.98942h10.86963l-5.42914,12.49383z" fill="#b3b3b3" stroke="none" stroke-width="1" stroke-linejoin="miter"/></g><g><path d="M234.32125,228.64375h-10.85827l5.42914,-12.49383z" fill="none" stroke="#000000" stroke-width="4" stroke-linejoin="round"/><path d="M234.32125,228.64375h-10.85827l5.42914,-12.49383z" fill="#b3b3b3" stroke="none" stroke-width="1" stroke-linejoin="miter"/></g><g><path d="M245.67928,228.64375h-10.85827l5.42914,-12.49383z" fill="none" stroke="#000000" stroke-width="4" stroke-linejoin="round"/><path d="M245.67928,228.64375h-10.85827l5.42914,-12.49383z" fill="#b3b3b3" stroke="none" stroke-width="1" stroke-linejoin="miter"/></g><g><path d="M257.03729,228.64375h-10.85827l5.42914,-12.49383z" fill="none" stroke="#000000" stroke-width="4" stroke-linejoin="round"/><path d="M257.03729,228.64375h-10.85827l5.42914,-12.49383z" fill="#b3b3b3" stroke="none" stroke-width="1" stroke-linejoin="miter"/></g><g><path d="M222.32718,252.99536v10.85827l-12.49383,-5.42914z" fill="none" stroke="#000000" stroke-width="4" stroke-linejoin="round"/><path d="M222.32718,252.99536v10.85827l-12.49383,-5.42914z" fill="#b3b3b3" stroke="none" stroke-width="1" stroke-linejoin="miter"/></g><g><path d="M222.32718,241.63731v10.85827l-12.49383,-5.42914z" fill="none" stroke="#000000" stroke-width="4" stroke-linejoin="round"/><path d="M222.32718,241.63731v10.85827l-12.49383,-5.42914z" fill="#b3b3b3" stroke="none" stroke-width="1" stroke-linejoin="miter"/></g><g><path d="M222.32718,230.26794v10.86963l-12.49383,-5.42914z" fill="none" stroke="#000000" stroke-width="4" stroke-linejoin="round"/><path d="M222.32718,230.26794v10.86963l-12.49383,-5.42914z" fill="#b3b3b3" stroke="none" stroke-width="1" stroke-linejoin="miter"/></g><g><path d="M258.67286,240.63783v-10.85827l12.49383,5.42914z" fill="none" stroke="#000000" stroke-width="4" stroke-linejoin="round"/><path d="M258.67286,240.63783v-10.85827l12.49383,5.42914z" fill="#b3b3b3" stroke="none" stroke-width="1" stroke-linejoin="miter"/></g><g><path d="M258.67286,251.99583v-10.85827l12.49383,5.42914z" fill="none" stroke="#000000" stroke-width="4" stroke-linejoin="round"/><path d="M258.67286,251.99583v-10.85827l12.49383,5.42914z" fill="#b3b3b3" stroke="none" stroke-width="1" stroke-linejoin="miter"/></g><g><path d="M258.67286,263.35388v-10.85827l12.49383,5.42914z" fill="none" stroke="#000000" stroke-width="4" stroke-linejoin="round"/><path d="M258.67286,263.35388v-10.85827l12.49383,5.42914z" fill="#b3b3b3" stroke="none" stroke-width="1" stroke-linejoin="miter"/></g><g><path d="M222.32718,264.98942v-36.34568h36.34568v36.34568z" fill="none" stroke="#000000" stroke-width="4" stroke-linejoin="round"/><path d="M222.32718,264.98942v-36.34568h36.34568v36.34568z" fill="#39b54a" stroke="none" stroke-width="1" stroke-linejoin="miter"/></g><path d="M232.5494,254.7672v-15.90123h15.90123v15.90123z" fill="#3ac54d" stroke="none" stroke-width="1" stroke-linejoin="miter"/></g></g></svg>