<svg version="1.1" xmlns="http://www.w3.org/2000/svg" xmlns:xlink="http://www.w3.org/1999/xlink" width="64.95627" height="111.52966" viewBox="0,0,64.95627,111.52966"><g transform="translate(-215.35077,-80.5696)"><g data-paper-data="{&quot;isPaintingLayer&quot;:true}" fill-rule="nonzero" stroke-linecap="butt" stroke-miterlimit="10" stroke-dasharray="" stroke-dashoffset="0" style="mix-blend-mode: normal"><path d="M224.2723,181.31584c0,0.5 -0.5,0.5 -0.5,0.5l-0.23528,-0.00971c-1.99108,0.39004 -4.15534,-0.0562 -6.11528,-0.45148c-1.92534,-0.64727 -2.54133,-2.43419 -1.07412,-3.98566c-0.71685,-0.84221 -0.37623,-1.8595 0.41002,-2.71472c-1.62151,-0.67744 -1.69975,-2.67267 -0.18195,-3.84364c1.55614,-1.20054 5.14084,-1.42861 6.93785,-0.7368c0,0 0.46424,0.18569 0.27855,0.64993c-0.1857,0.46424 -0.64993,0.27854 -0.64993,0.27854c-1.4764,-0.62145 -4.06383,-0.22092 -5.5229,0.33546c-1.16318,0.44355 -1.72375,2.20164 -0.24214,2.48051c0.1164,0 0.2327,0.00297 0.34894,0.0084c0.38112,-0.26033 0.79417,-0.48179 1.20759,-0.64699c0.93069,-0.31023 7.08162,-1.69811 5.59498,1.06941c-0.94922,1.76705 -4.64336,0.82947 -6.61875,0.60743c-0.78023,0.55689 -1.29838,1.26352 -0.72683,1.89598c2.3025,-1.21936 7.21138,-1.32566 7.56083,1.06291c-1.84719,0.69742 -4.8587,1.2229 -6.811,0.52519c-0.33786,-0.12074 -0.62652,-0.25345 -0.87035,-0.3957c-0.70186,0.79655 -0.67941,2.01619 0.61588,2.44324c1.80048,0.35672 3.83467,0.81192 5.6625,0.4374l0.43139,-0.00971c0,0 0.5,0 0.5,0.5zM218.05349,177.31268c0.07107,0.03026 0.14599,0.06011 0.2249,0.08951c1.25112,0.46614 2.85502,-0.08125 4.22442,-0.22471c-0.0652,-0.01683 -0.11821,-0.02994 -0.15399,-0.0365c-1.2861,-0.23566 -2.76138,-0.11529 -4.03753,0.11028c-0.0886,0.01566 -0.1746,0.03629 -0.25781,0.06142zM219.52549,174.0377c0.9363,0.13917 1.8764,0.26734 2.83338,0.11793c0.02676,-0.00418 1.49036,-0.335 1.3908,-0.55023c-0.34328,-0.7421 -3.24505,0.11864 -4.22419,0.4323z" fill="#000000" stroke="none" stroke-width="0.5" stroke-linejoin="miter"/><path d="M240.46919,191.45845c0,0.5 -0.5,0.5 -0.5,0.5l-0.23528,-0.00971c-1.99108,0.39004 -4.15534,-0.0562 -6.11528,-0.45148c-1.92534,-0.64727 -2.54133,-2.43419 -1.07412,-3.98566c-0.71685,-0.84221 -0.37623,-1.8595 0.41002,-2.71472c-1.62151,-0.67744 -1.69975,-2.67267 -0.18195,-3.84364c1.55614,-1.20054 5.14084,-1.42861 6.93785,-0.7368c0,0 0.46424,0.18569 0.27855,0.64993c-0.1857,0.46424 -0.64993,0.27854 -0.64993,0.27854c-1.4764,-0.62145 -4.06383,-0.22092 -5.5229,0.33546c-1.16318,0.44355 -1.72375,2.20164 -0.24214,2.48051c0.1164,0 0.2327,0.00297 0.34894,0.0084c0.38112,-0.26033 0.79417,-0.48179 1.20759,-0.64699c0.93069,-0.31023 7.08162,-1.69811 5.59498,1.06941c-0.94922,1.76705 -4.64336,0.82947 -6.61875,0.60743c-0.78023,0.55689 -1.29838,1.26352 -0.72683,1.89598c2.3025,-1.21936 7.21138,-1.32566 7.56083,1.06291c-1.84719,0.69742 -4.8587,1.2229 -6.811,0.52519c-0.33786,-0.12074 -0.62652,-0.25345 -0.87035,-0.3957c-0.70186,0.79655 -0.67941,2.01619 0.61588,2.44324c1.80048,0.35672 3.83467,0.81192 5.6625,0.4374l0.43139,-0.00971c0,0 0.5,0 0.5,0.5zM234.25038,187.45529c0.07107,0.03026 0.14599,0.06011 0.2249,0.08951c1.25112,0.46614 2.85502,-0.08125 4.22442,-0.22471c-0.0652,-0.01683 -0.11821,-0.02994 -0.15399,-0.0365c-1.2861,-0.23566 -2.76138,-0.11529 -4.03753,0.11028c-0.0886,0.01566 -0.1746,0.03629 -0.25781,0.06142zM235.72238,184.18031c0.9363,0.13917 1.8764,0.26734 2.83338,0.11793c0.02676,-0.00418 1.49036,-0.335 1.3908,-0.55023c-0.34328,-0.7421 -3.24505,0.11864 -4.22419,0.4323z" fill="#000000" stroke="none" stroke-width="0.5" stroke-linejoin="miter"/><g data-paper-data="{&quot;index&quot;:null}"><g><path d="M271.06832,119.6104l-9.95121,4.50379l-2.31135,-5.10694l-6.96583,3.15265l1.84909,4.08557l-1.99023,0.90076l-1.84909,-4.08556l-2.98537,1.35114l2.31134,5.10695l-3.98047,1.80151l-3.23588,-7.14973l15.9219,-7.20607l-2.31134,-5.10694l9.95121,-4.50379zM260.40433,114.59196l1.84908,4.08556l3.98048,-1.80151l-1.84908,-4.08556z" fill="none" stroke="#000000" stroke-width="4" stroke-linejoin="round"/><path d="M271.06832,119.6104l-9.95121,4.50379l-2.31135,-5.10694l-6.96583,3.15265l1.84909,4.08557l-1.99023,0.90076l-1.84909,-4.08556l-2.98537,1.35114l2.31134,5.10695l-3.98047,1.80151l-3.23588,-7.14973l15.9219,-7.20607l-2.31134,-5.10694l9.95121,-4.50379zM260.40433,114.59196l1.84908,4.08556l3.98048,-1.80151l-1.84908,-4.08556z" fill="#3c71fa" stroke="none" stroke-width="1" stroke-linejoin="miter"/></g><g><path d="M251.84403,130.0528l-7.88689,7.55693l-3.87823,-4.04753l-5.52081,5.28987l3.10259,3.23804l-1.57737,1.51139l-3.10259,-3.23804l-2.36606,2.2671l3.87822,4.04754l-3.15474,3.02279l-5.42952,-5.66656l12.619,-12.09112l-3.87822,-4.04754l7.88687,-7.55695zM240.11804,128.8666l3.10259,3.23804l3.15475,-3.02278l-3.10259,-3.23803z" fill="none" stroke="#000000" stroke-width="4" stroke-linejoin="round"/><path d="M251.84403,130.0528l-7.88689,7.55693l-3.87823,-4.04753l-5.52081,5.28987l3.10259,3.23804l-1.57737,1.51139l-3.10259,-3.23804l-2.36606,2.2671l3.87822,4.04754l-3.15474,3.02279l-5.42952,-5.66656l12.619,-12.09112l-3.87822,-4.04754l7.88687,-7.55695zM240.11804,128.8666l3.10259,3.23804l3.15475,-3.02278l-3.10259,-3.23803z" fill="#3c71fa" stroke="none" stroke-width="1" stroke-linejoin="miter"/></g><g><path d="M235.32709,146.12262l-4.11832,10.11682l-5.19193,-2.11351l-2.88282,7.08177l4.15356,1.69082l-0.82366,2.02337l-4.15356,-1.69081l-1.23549,3.03505l5.19193,2.11351l-1.64731,4.04673l-7.26872,-2.95891l6.58929,-16.1869l-5.19192,-2.11351l4.11832,-10.11681zM224.13716,149.82278l4.15356,1.69082l1.64732,-4.04673l-4.15356,-1.69081z" fill="none" stroke="#000000" stroke-width="4" stroke-linejoin="round"/><path d="M235.32709,146.12262l-4.11832,10.11682l-5.19193,-2.11351l-2.88282,7.08177l4.15356,1.69082l-0.82366,2.02337l-4.15356,-1.69081l-1.23549,3.03505l5.19193,2.11351l-1.64731,4.04673l-7.26872,-2.95891l6.58929,-16.1869l-5.19192,-2.11351l4.11832,-10.11681zM224.13716,149.82278l4.15356,1.69082l1.64732,-4.04673l-4.15356,-1.69081z" fill="#3c71fa" stroke="none" stroke-width="1" stroke-linejoin="miter"/></g></g><path d="M243.30704,109.5696v-14h18v14z" fill="#000000" stroke="none" stroke-width="1" stroke-linejoin="miter"/><path d="M279.30704,109.5696v14h-42v-14h32v-3c0,-1.10457 0.89543,-2 2,-2h3c1.10457,0 2,0.89543 2,2v3z" fill="#0025ff" stroke="#000000" stroke-width="2" stroke-linejoin="miter"/><g><g stroke="none" stroke-linejoin="miter"><path d="M279.05704,109.5696h-42v-22c0,-3.31371 2.68629,-6 6,-6h30c3.31371,0 6,2.68629 6,6z" fill="#9500ff" stroke-width="1"/><path d="M280.05704,110.5696h-44v-23c0,-3.86599 3.13401,-7 7,-7h30c3.86599,0 7,3.13401 7,7zM238.05704,108.5696h40v-21c0,-2.76143 -2.23858,-5 -5,-5h-30c-2.76143,0 -5,2.23857 -5,5z" fill="#000000" stroke-width="1"/><path d="M238.01062,87.55103c0,-2.76143 2.24721,-5.01418 5.00864,-5.01418h30.07557c2.76142,0 5.00864,2.25275 5.00864,5.01418l-0.0045,21.04582h-40.08384z" data-paper-data="{&quot;noHover&quot;:false,&quot;origItem&quot;:[&quot;Path&quot;,{&quot;applyMatrix&quot;:true,&quot;segments&quot;:[[219.75,164],[259.75,164],[[259.75,143],[0,0],[0,-2.76143]],[[254.75,138],[2.76142,0],[0,0]],[[224.75,138],[0,0],[-2.76143,0]],[[219.75,143],[0,-2.76143],[0,0]]],&quot;closed&quot;:true,&quot;fillColor&quot;:[0,0,0,1]}]}" fill="#00a2ff" stroke-width="0.5"/></g><path d="M271.05704,101.5696h-10v-10l10,2z" fill="#ffffff" stroke="#ffffff" stroke-width="2" stroke-linejoin="round"/><path d="M265.05704,100.5696v-6h6v6z" fill="#000000" stroke="none" stroke-width="1" stroke-linejoin="miter"/></g><g data-paper-data="{&quot;index&quot;:null}"><g><path d="M253.0283,111.33785l-6.24077,8.96455l-4.60059,-3.20275l-4.36853,6.27519l3.6805,2.5622l-1.24815,1.79291l-3.6805,-2.5622l-1.87224,2.68937l4.6006,3.20276l-2.4963,3.58581l-6.44085,-4.48386l9.98522,-14.34329l-4.60059,-3.20275l6.24077,-8.96455zM241.2988,112.48865l3.6805,2.56221l2.49631,-3.58581l-3.6805,-2.56221z" fill="none" stroke="#000000" stroke-width="4" stroke-linejoin="round"/><path d="M253.0283,111.33785l-6.24077,8.96455l-4.60059,-3.20275l-4.36853,6.27519l3.6805,2.5622l-1.24815,1.79291l-3.6805,-2.5622l-1.87224,2.68937l4.6006,3.20276l-2.4963,3.58581l-6.44085,-4.48386l9.98522,-14.34329l-4.60059,-3.20275l6.24077,-8.96455zM241.2988,112.48865l3.6805,2.56221l2.49631,-3.58581l-3.6805,-2.56221z" fill="#3c71fa" stroke="none" stroke-width="1" stroke-linejoin="miter"/></g><g><path d="M241.86399,130.15207l-2.90413,10.52978l-5.40388,-1.49039l-2.03288,7.37085l4.32312,1.19231l-0.58082,2.10595l-4.32312,-1.19231l-0.87123,3.15895l5.40388,1.4904l-1.16163,4.21192l-7.56544,-2.08655l4.64658,-16.84767l-5.40388,-1.4904l2.90412,-10.52978zM231.18489,135.13832l4.32312,1.19231l1.16164,-4.21192l-4.32311,-1.1923z" fill="none" stroke="#000000" stroke-width="4" stroke-linejoin="round"/><path d="M241.86399,130.15207l-2.90413,10.52978l-5.40388,-1.49039l-2.03288,7.37085l4.32312,1.19231l-0.58082,2.10595l-4.32312,-1.19231l-0.87123,3.15895l5.40388,1.4904l-1.16163,4.21192l-7.56544,-2.08655l4.64658,-16.84767l-5.40388,-1.4904l2.90412,-10.52978zM231.18489,135.13832l4.32312,1.19231l1.16164,-4.21192l-4.32311,-1.1923z" fill="#3c71fa" stroke="none" stroke-width="1" stroke-linejoin="miter"/></g><g><path d="M235.90698,152.4133l1.6437,10.79855l-5.54181,0.84355l1.1506,7.55898l4.43345,-0.67484l0.32874,2.15971l-4.43345,0.67484l0.49312,3.23958l5.54181,-0.84355l0.6575,4.31941l-7.75853,1.18098l-2.62995,-17.27767l-5.5418,0.84354l-1.6437,-10.79854zM228.19068,161.32199l4.43345,-0.67484l-0.65749,-4.31941l-4.43345,0.67485z" fill="none" stroke="#000000" stroke-width="4" stroke-linejoin="round"/><path d="M235.90698,152.4133l1.6437,10.79855l-5.54181,0.84355l1.1506,7.55898l4.43345,-0.67484l0.32874,2.15971l-4.43345,0.67484l0.49312,3.23958l5.54181,-0.84355l0.6575,4.31941l-7.75853,1.18098l-2.62995,-17.27767l-5.5418,0.84354l-1.6437,-10.79854zM228.19068,161.32199l4.43345,-0.67484l-0.65749,-4.31941l-4.43345,0.67485z" fill="#3c71fa" stroke="none" stroke-width="1" stroke-linejoin="miter"/></g></g></g></g></svg>