<svg version="1.1" xmlns="http://www.w3.org/2000/svg" xmlns:xlink="http://www.w3.org/1999/xlink" width="24.61097" height="30.94295" viewBox="0,0,24.61097,30.94295"><g transform="translate(-226.88903,-148.92134)"><g data-paper-data="{&quot;isPaintingLayer&quot;:true}" fill-rule="nonzero" stroke-linecap="butt" stroke-miterlimit="10" stroke-dasharray="" stroke-dashoffset="0" style="mix-blend-mode: normal"><path d="M231.79205,171.65458v-7h11v7z" fill="#000000" stroke="none" stroke-width="1" stroke-linejoin="miter"/><g><g stroke="none" stroke-linejoin="miter"><path d="M250.22239,162.50618l-20.5444,4.35058l-1.65736,-7.82644c-0.6865,-3.24182 1.38499,-6.42635 4.62681,-7.11285l8.80474,-1.86453c3.24182,-0.6865 6.42635,1.38499 7.11285,4.62681z" fill="#ff7800" stroke-width="1"/><path d="M251.40787,163.27731l-22.50101,4.76492l-1.86453,-8.80474c-0.80092,-3.78212 1.61582,-7.49741 5.39794,-8.29833l8.80474,-1.86453c3.78212,-0.80092 7.49741,1.61582 8.29833,5.39794zM230.44913,165.67128l18.58779,-3.93624l-1.45019,-6.84813c-0.57209,-2.70152 -3.22586,-4.42776 -5.92738,-3.85567l-8.80474,1.86453c-2.70152,0.57209 -4.42776,3.22586 -3.85567,5.92738z" fill="#000000" stroke-width="1"/><path d="M228.94901,158.82579c-0.57209,-2.70152 1.16662,-5.39105 3.86814,-5.96314l8.85959,-1.87829c2.70152,-0.57209 5.38439,1.18264 5.95648,3.88416l1.45101,6.88267l-18.6729,3.95282z" data-paper-data="{&quot;noHover&quot;:false,&quot;origItem&quot;:[&quot;Path&quot;,{&quot;applyMatrix&quot;:true,&quot;segments&quot;:[[230.44913,165.67128],[249.03692,161.73504],[[247.58673,154.88691],[0,0],[-0.57209,-2.70152]],[[241.65935,151.03124],[2.70152,-0.57209],[0,0]],[[232.85461,152.89577],[0,0],[-2.70152,0.57209]],[[228.99894,158.82315],[-0.57209,-2.70152],[0,0]]],&quot;closed&quot;:true,&quot;fillColor&quot;:[0,0,0,1]}]}" fill="#9500ff" stroke-width="0.5"/></g><path d="M239.61066,160.66466l-1.03585,-4.89152l4.89152,-1.03585l1.03585,4.89152z" fill="#ffffff" stroke="#ffffff" stroke-width="2" stroke-linejoin="round"/><path d="M241.3601,159.27202l-0.62151,-2.93491l2.93491,-0.62151l0.62151,2.93491z" fill="#000000" stroke="none" stroke-width="1" stroke-linejoin="miter"/></g><path d="M250.5,171.86429v7h-21v-7h16v-1.5c0,-0.55229 0.44771,-1 1,-1h1.5c0.55229,0 1,0.44771 1,1v1.5z" fill="#7a1cbe" stroke="#000000" stroke-width="2" stroke-linejoin="miter"/></g></g></svg>