<svg version="1.1" xmlns="http://www.w3.org/2000/svg" xmlns:xlink="http://www.w3.org/1999/xlink" width="72.53768" height="37.49137" viewBox="0,0,72.53768,37.49137"><g transform="translate(-202.32258,-142.57059)"><g stroke-miterlimit="10"><g><path d="M233.38263,148.45683l13.39985,12.74044l-13.63367,12.22924" fill="none" stroke="#000000" stroke-width="8" stroke-linejoin="round"/><path d="M246.66558,173.68212l-13.39985,-12.74044l13.63367,-12.22924" fill="none" stroke="#000000" stroke-width="8" stroke-linejoin="round"/><path d="M233.38263,148.45683l13.39985,12.74044l-13.63367,12.22924" fill="none" stroke="#b5b5b5" stroke-width="4" stroke-linejoin="round"/><path d="M246.66558,173.68212l-13.39985,-12.74044l13.63367,-12.22924" fill="none" stroke="#b5b5b5" stroke-width="4" stroke-linejoin="round"/><path d="M247.94813,151.13362l-15.65918,-0.29611" fill="none" stroke="#000000" stroke-width="2" stroke-linejoin="miter"/><path d="M230.99922,150.33283l0.05396,-5.76223l18.24763,0.34505l-0.05396,5.76223z" fill="none" stroke="#000000" stroke-width="4" stroke-linejoin="round"/><path d="M230.99922,150.33283l0.05396,-5.76223l18.24763,0.34505l-0.05396,5.76223z" fill="#00a99d" stroke="none" stroke-width="1" stroke-linejoin="miter"/><path d="M230.99922,150.33283l0.01799,-1.92075l18.24763,0.34505l-0.01798,1.92075z" fill="#009c92" stroke="none" stroke-width="1" stroke-linejoin="miter"/></g><g><path d="M267.11141,165.87237l-1.94449,-4.73851l7.69334,-0.61678z" fill="none" stroke="#000000" stroke-width="4" stroke-linejoin="round"/><path d="M267.11141,165.87237l-1.94449,-4.73851l7.69334,-0.61678z" fill="#b3b3b3" stroke="none" stroke-width="1" stroke-linejoin="miter"/></g><g stroke="#000000" stroke-width="2" stroke-linejoin="miter"><path d="M229.36747,179.03893c-0.28489,0.04952 -5.3323,-5.72103 -5.3323,-5.72103l5.98011,-2.48393c0,0 -0.39017,8.16018 -0.64781,8.20496z" fill="#d8d8d8"/><path d="M224.13428,173.41573l-10.6376,-10.50108l16.2562,-8.20281l0.21373,15.84508z" fill="#00a99d"/></g><g stroke="#000000" stroke-width="2" stroke-linejoin="miter"><path d="M229.5,178.94763c-0.3688,-0.37237 4.15921,-7.22273 4.15921,-7.22273l12.89749,0.33626l3.9433,6.88647c0,0 -20.92163,0.07914 -21,0z" fill="#007169"/><path d="M240.41114,157.54943l6.08,14.24246l-12.83823,-0.05365z" fill="#00a99d"/></g><g><path d="M251.51618,170.97855l5.57315,2.88829c0,0 -5.56763,5.2704 -5.84659,5.19431c-0.25229,-0.0688 0.12653,-8.22952 0.12653,-8.22952z" fill="#007169" stroke="#000000" stroke-width="2" stroke-linejoin="miter"/><path d="M251.44377,170.56039l1.70262,-15.75479l15.41292,9.69495l-11.57784,9.45436z" fill="#00a99d" stroke="#000000" stroke-width="2" stroke-linejoin="miter"/><g><path d="M252.36892,167.0434l2.6622,-4.23234l4.23234,2.6622l-2.6622,4.23234z" fill="#ffffff" stroke="#ffffff" stroke-width="2" stroke-linejoin="round"/><path d="M254.59429,167.26182l1.59732,-2.5394l2.5394,1.59732l-1.59732,2.5394z" fill="#000000" stroke="none" stroke-width="1" stroke-linejoin="miter"/></g></g><path d="M207.75,178.94763l21.33044,-8.13647l-1.45544,8.13647z" fill="#007169" stroke="#000000" stroke-width="2" stroke-linejoin="miter"/><path d="M226.313,170.98847l-7.18603,-9.86714l4.11004,-1.92927l5.64868,10.89249z" fill="#008279" stroke="#000000" stroke-width="0" stroke-linejoin="miter"/></g></g></svg>