<svg version="1.1" xmlns="http://www.w3.org/2000/svg" xmlns:xlink="http://www.w3.org/1999/xlink" width="37.07343" height="36.38095" viewBox="0,0,37.07343,36.38095"><g transform="translate(-218.18944,-143.66452)"><g data-paper-data="{&quot;isPaintingLayer&quot;:true}" fill-rule="nonzero" stroke-linecap="butt" stroke-miterlimit="10" stroke-dasharray="" stroke-dashoffset="0" style="mix-blend-mode: normal"><g><path d="M233.38199,156.21603v13.42286l-13.19255,-6.70286z" fill="none" stroke="#000000" stroke-width="4" stroke-linejoin="round"/><path d="M233.38199,156.21603v13.42286l-13.19255,-6.70286z" fill="#b3b3b3" stroke="none" stroke-width="1" stroke-linejoin="miter"/></g><g><path d="M253.26287,158.85707h-13.42286l6.70286,-13.19255z" fill="none" stroke="#000000" stroke-width="4" stroke-linejoin="round"/><path d="M253.26287,158.85707h-13.42286l6.70286,-13.19255z" fill="#b3b3b3" stroke="none" stroke-width="1" stroke-linejoin="miter"/></g><g><path d="M240.88477,158.85707h-13.42286l6.70286,-13.19255z" fill="none" stroke="#000000" stroke-width="4" stroke-linejoin="round"/><path d="M240.88477,158.85707h-13.42286l6.70286,-13.19255z" fill="#b3b3b3" stroke="none" stroke-width="1" stroke-linejoin="miter"/></g><path d="M247.35715,179.04548h-13.71429c-3.7871,0 -6.85714,-2.62511 -6.85714,-5.86335v-11.72671c0,-3.23824 3.07005,-5.86335 6.85714,-5.86335h13.71429c3.7871,0 6.85714,2.62511 6.85714,5.86335v11.72671c0,3.23824 -3.07005,5.86335 -6.85714,5.86335z" fill="#b4004c" stroke="#000000" stroke-width="2" stroke-linejoin="miter"/><g fill="#000000" stroke="#000000"><path d="M240.5,167.55479v-0.47205h8.57143v0.47205z" stroke-width="2" stroke-linejoin="round"/><path d="M243.92857,167.46039v-0.28323h5.14286v0.28323z" stroke-width="1" stroke-linejoin="miter"/></g></g></g></svg>