<svg version="1.1" xmlns="http://www.w3.org/2000/svg" xmlns:xlink="http://www.w3.org/1999/xlink" width="186.98059" height="138.6731" viewBox="0,0,186.98059,138.6731"><g transform="translate(-143.18375,-101.27565)"><g data-paper-data="{&quot;isPaintingLayer&quot;:true}" fill="none" fill-rule="nonzero" stroke-linecap="round" stroke-linejoin="round" stroke-miterlimit="10" stroke-dasharray="" stroke-dashoffset="0" style="mix-blend-mode: normal"><g><path d="M185.64527,235.58002l18.18672,-120.06l43.33322,30.88" stroke="#000000" stroke-width="8"/><path d="M185.64527,235.58002l18.18672,-120.06l43.33322,30.88" stroke="#9bb39b" stroke-width="4"/></g><g data-paper-data="{&quot;index&quot;:null}"><path d="M245.22378,142.69781l41.06549,-37.42216l26.1592,130.33309" stroke="#000000" stroke-width="8"/><path d="M245.22378,142.69781l41.06549,-37.42216l26.1592,130.33309" stroke="#9bb39b" stroke-width="4"/></g><g data-paper-data="{&quot;index&quot;:null}"><path d="M250.16576,151.60875l46.42519,-33.97l29.57339,118.31" stroke="#000000" stroke-width="8"/><path d="M250.16576,151.60875l46.42519,-33.97l29.57339,118.31" stroke="#9bb39b" stroke-width="4"/></g><g data-paper-data="{&quot;index&quot;:null}"><path d="M147.18375,235.60875l43.35604,-115l42.78557,37.5" stroke="#000000" stroke-width="8"/><path d="M147.18375,235.60875l43.35604,-115l42.78557,37.5" stroke="#9bb39b" stroke-width="4"/></g><g data-paper-data="{&quot;index&quot;:null}"><path d="M208.13672,235.60875l14.78669,-130.33309l23.2126,37.42216" stroke="#000000" stroke-width="8"/><path d="M208.13672,235.60875l14.78669,-130.33309l23.2126,37.42216" stroke="#9bb39b" stroke-width="4"/></g></g></g></svg>