<svg version="1.1" xmlns="http://www.w3.org/2000/svg" xmlns:xlink="http://www.w3.org/1999/xlink" width="80.44242" height="46.39375" viewBox="0,0,80.44242,46.39375"><g transform="translate(-199.77879,-153.82288)"><g data-paper-data="{&quot;isPaintingLayer&quot;:true}" fill-rule="nonzero" stroke-linecap="butt" stroke-miterlimit="10" stroke-dasharray="" stroke-dashoffset="0" style="mix-blend-mode: normal"><g><g data-paper-data="{&quot;index&quot;:null}" stroke-linejoin="miter"><path d="M224.41005,183.27418c-0.84259,-3.89465 1.11858,-7.75162 4.38039,-8.61478c3.26181,-0.86316 6.58908,1.59436 7.43167,5.48901c0.84259,3.89466 -1.11858,7.75162 -4.38039,8.61478c-3.26181,0.86316 -6.58907,-1.59436 -7.43166,-5.48901z" fill="#ffffff" stroke="#000000" stroke-width="2"/><path d="M221.77954,174.77964c-0.06536,-0.25543 2.19529,0.79003 2.19529,0.79003c0.30628,0.26659 1.2173,0.87447 1.33437,1.33235c0.7714,3.01689 -0.80154,5.86222 -3.59477,5.77785c-0.90393,-0.0273 -1.2068,-0.30173 -2.09267,-0.53418c-2.46164,-0.64593 -4.81688,-1.60945 -7.06961,-3.03811c-0.9375,-0.59456 -1.72824,-1.56034 -2.59218,-2.29233c-1.2862,-1.771 -2.87924,-3.18743 -4.10922,-5.08786c-0.65443,-1.01115 -1.00314,-2.07438 -1.51075,-3.17356c-0.95261,-2.06278 -2.07426,-4.04 -2.43027,-6.39492c-0.24059,-1.59136 -0.01407,-3.22433 0.22508,-4.73887c0.06451,-0.40851 -0.05176,-0.8685 0.08862,-1.24652c0.01251,-0.03371 0.02552,-0.06709 0.03896,-0.10017l-0.01619,-0.00657l0.27051,-1.02732c0.09623,-0.3983 0.395,-0.69472 0.76781,-0.71543c0.37281,-0.02071 0.70993,0.24038 0.86003,0.625l0.40928,0.98955l-0.02451,0.01344l0.05675,0.07422c0.56648,2.33166 1.29242,4.41513 2.56736,6.36198c1.28053,1.59912 2.36872,3.20897 3.85017,4.58994c1.82659,1.70271 3.91294,2.87356 5.83718,4.39213c1.56474,1.23486 3.21838,2.42382 4.93875,3.40932z" fill="#ffffff" stroke="#000000" stroke-width="1"/><path d="M218.88048,178.38518c-0.08621,-0.20318 1.73329,-0.57505 1.73329,-0.57505c0.2876,0.17028 0.63358,0.24186 0.8628,0.51084c0.24538,0.28792 0.33588,0.71271 0.49037,1.07695c1.01788,2.39989 0.17736,5.21846 -2.15179,5.6377c-0.75375,0.13567 -1.03949,-0.0418 -1.80393,-0.08168c-2.12419,-0.11085 -4.19979,-0.50726 -6.24854,-1.31253c-0.8526,-0.33513 -1.62986,-1.00797 -2.4386,-1.4715c-1.28929,-1.26257 -2.7889,-2.17335 -4.04771,-3.55455c-0.66978,-0.73489 -1.09229,-1.56718 -1.65121,-2.40183c-1.04889,-1.56632 -2.22741,-3.03107 -2.81764,-4.94758c-0.39886,-1.29509 -0.4152,-2.70713 -0.40623,-4.02184c0.00241,-0.35461 -0.15167,-0.72079 -0.08245,-1.06308c0.00617,-0.03052 0.01279,-0.06086 0.01981,-0.091l-0.01427,-0.00268l0.09598,-0.91078c0.03003,-0.3516 0.24094,-0.65313 0.5478,-0.73595c0.30686,-0.08283 0.61937,0.07743 0.79211,0.3743l0.46357,0.75977l-0.01867,0.01559l0.05639,0.0524c0.76202,1.86003 1.62537,3.48351 2.92732,4.89584c1.26306,1.11913 2.36782,2.28102 3.77036,3.18158c1.72931,1.11037 3.60766,1.72819 5.39499,2.66668c1.4534,0.76316 2.97485,1.47213 4.52623,1.99841z" fill="#ffffff" stroke="#000000" stroke-width="1"/><path d="M216.12412,181.09385c-0.09573,-0.13703 1.21667,-0.80893 1.21667,-0.80893c0.24224,0.06897 0.51341,0.05005 0.72672,0.20694c0.22833,0.16795 0.36095,0.47355 0.53249,0.71922c1.13031,1.6187 0.92608,3.9534 -0.76256,4.77008c-0.54647,0.2643 -0.7884,0.18941 -1.36957,0.32171c-1.61494,0.36761 -3.23673,0.50646 -4.90038,0.32689c-0.69235,-0.07473 -1.37931,-0.42379 -2.05815,-0.60607c-1.16177,-0.69105 -2.42831,-1.06826 -3.58517,-1.85654c-0.61552,-0.41942 -1.05981,-0.96599 -1.60708,-1.4853c-1.02704,-0.97457 -2.13614,-1.84384 -2.87131,-3.1839c-0.49678,-0.90556 -0.72356,-1.98202 -0.91649,-2.98945c-0.05203,-0.27173 -0.22358,-0.51898 -0.2235,-0.7955c0,-0.02467 0.00038,-0.04926 0.00108,-0.07382l-0.01114,0.00099l-0.06613,-0.71702c-0.03082,-0.27531 0.08207,-0.55084 0.30036,-0.67953c0.21829,-0.12869 0.47774,-0.07269 0.65279,0.11758l0.46416,0.48236l-0.01168,0.0159l0.0504,0.02808c0.85582,1.26029 1.75194,2.31807 2.94596,3.12097c1.12023,0.58694 2.12786,1.24029 3.31983,1.63035c1.46969,0.48093 2.97669,0.55344 4.46391,0.89055c1.20937,0.27412 2.4617,0.49233 3.7088,0.56445z" fill="#ffffff" stroke="#000000" stroke-width="1"/><path d="M219.22023,183.54144c-0.12807,-0.09233 0.90037,-1.25744 0.90037,-1.25744c0.24486,-0.0311 0.49154,-0.15759 0.73458,-0.09334c0.26015,0.06876 0.47058,0.307 0.70011,0.47255c1.51236,1.09077 1.98826,3.39749 0.65135,4.85102c-0.43264,0.47039 -0.6789,0.49576 -1.18145,0.85422c-1.39646,0.99607 -2.86451,1.77687 -4.46229,2.27093c-0.66494,0.2056 -1.4031,0.14759 -2.08616,0.24531c-1.27707,-0.1941 -2.56205,-0.04717 -3.86227,-0.33588c-0.6918,-0.15362 -1.26069,-0.49688 -1.91754,-0.77299c-1.23266,-0.51817 -2.51162,-0.90315 -3.57718,-1.88637c-0.72006,-0.66441 -1.23784,-1.59966 -1.70448,-2.48264c-0.12586,-0.23816 -0.35584,-0.4052 -0.43462,-0.66879c-0.00703,-0.02351 -0.01369,-0.04711 -0.02005,-0.07079l-0.01008,0.00539l-0.26594,-0.65691c-0.10715,-0.25007 -0.08079,-0.5578 0.08544,-0.76773c0.16623,-0.20992 0.42339,-0.26029 0.64038,-0.14894l0.56905,0.27411l-0.00632,0.01983l0.05484,0.00661c1.15499,0.85893 2.28968,1.50876 3.62864,1.79654c1.20878,0.11148 2.33182,0.33126 3.55113,0.2264c1.50339,-0.12928 2.92502,-0.66275 4.40371,-0.93612c1.20244,-0.22228 2.42885,-0.51504 3.60876,-0.94495z" fill="#ffffff" stroke="#000000" stroke-width="1"/><path d="M209.93484,174.3611c-0.01567,-0.22771 0.12718,-0.42093 0.31905,-0.43159c0.19187,-0.01066 0.36011,0.16529 0.37577,0.393c0.01567,0.22771 -0.12718,0.42093 -0.31905,0.43159c-0.19187,0.01066 -0.36011,-0.16529 -0.37577,-0.393z" fill="#000000" stroke="none" stroke-width="0.5"/><path d="M209.55735,180.27968c-0.19187,0.01066 -0.3601,-0.16529 -0.37577,-0.393c-0.01567,-0.2277 0.12717,-0.42092 0.31905,-0.43158c0.19187,-0.01066 0.36011,0.16528 0.37578,0.39299c0.01567,0.22771 -0.12718,0.42094 -0.31905,0.4316z" fill="#000000" stroke="none" stroke-width="0.5"/><path d="M211.85103,185.7395c-0.19187,0.01066 -0.36012,-0.1653 -0.37579,-0.393c-0.01567,-0.22771 0.12718,-0.42093 0.31905,-0.43159c0.19187,-0.01066 0.3601,0.16528 0.37577,0.39299c0.01567,0.2277 -0.12717,0.42093 -0.31904,0.43159z" fill="#000000" stroke="none" stroke-width="0.5"/><path d="M228.78968,174.0039c-0.10082,-0.24 2.26399,0.33969 2.26399,0.33969c0.33839,0.20238 1.31825,0.62094 1.49889,1.05118c1.19017,2.83474 0.0595,5.97299 -2.68847,6.4536c-0.88929,0.15553 -1.22546,-0.05533 -2.12661,-0.1068c-2.50409,-0.14304 -4.94972,-0.62239 -7.36196,-1.58352c-1.00389,-0.39999 -1.91751,-1.19761 -2.86914,-1.74869c-1.51492,-1.49572 -3.27926,-2.578 -4.75774,-4.21339c-0.78665,-0.87013 -1.28137,-1.85365 -1.9369,-2.8407c-1.23021,-1.85236 -2.61365,-3.58576 -3.30161,-5.84821c-0.4649,-1.52888 -0.47831,-3.19337 -0.46226,-4.743c0.00432,-0.41797 -0.17582,-0.85047 -0.09279,-1.25355c0.00741,-0.03595 0.01532,-0.07166 0.02373,-0.10716l-0.01682,-0.00324l0.11696,-1.073c0.03687,-0.41427 0.28678,-0.76845 0.64894,-0.86428c0.36216,-0.09583 0.72997,0.09488 0.93239,0.44583l0.54343,0.89825l-0.02207,0.01826l0.06628,0.06211c0.89075,2.1969 1.90192,4.11554 3.43114,5.78787c1.48458,1.3265 2.78233,2.70247 4.43227,3.77214c2.03436,1.31888 4.24649,2.05808 6.34995,3.1747c1.71048,0.90799 3.50141,1.75254 5.32839,2.38193z" fill="#ffffff" stroke="#000000" stroke-width="1"/><path d="M226.46963,178.16365c-0.11373,-0.184 1.6148,-0.92016 1.6148,-0.92016c0.30622,0.11069 0.6554,0.11178 0.91866,0.3321c0.2818,0.23585 0.43164,0.63864 0.63543,0.96849c1.3427,2.17334 0.92554,5.13711 -1.29534,6.02319c-0.71872,0.28676 -1.02415,0.16855 -1.77862,0.28343c-2.09647,0.31922 -4.18653,0.34553 -6.30917,-0.03886c-0.88337,-0.15997 -1.74156,-0.66994 -2.60046,-0.96606c-1.44468,-0.99112 -3.04468,-1.591 -4.4766,-2.70588c-0.76188,-0.59318 -1.29561,-1.33287 -1.96329,-2.04733c-1.25299,-1.34078 -2.61829,-2.55468 -3.4725,-4.33524c-0.57723,-1.20323 -0.79667,-2.59964 -0.97729,-3.9047c-0.04872,-0.352 -0.25239,-0.68385 -0.23391,-1.03715c0.00164,-0.03151 0.00375,-0.06291 0.00628,-0.09421l-0.01436,0.00021l-0.03719,-0.92222c-0.02124,-0.3546 0.14189,-0.6961 0.43052,-0.84019c0.28863,-0.14409 0.61781,-0.04836 0.82975,0.21104l0.5635,0.65949l-0.01603,0.01923l0.06278,0.04056c1.01433,1.68988 2.09382,3.12479 3.57247,4.26181c1.39833,0.85422 2.64776,1.7828 4.15121,2.39219c1.85373,0.75136 3.78248,0.98435 5.66827,1.55361c1.53347,0.4629 3.12577,0.85835 4.72107,1.06667z" fill="#ffffff" stroke="#000000" stroke-width="1"/><path d="M224.02175,181.41947c-0.11351,-0.1165 1.07512,-1.04766 1.07512,-1.04766c0.2472,0.01944 0.51005,-0.05409 0.74158,0.05835c0.24784,0.12035 0.42176,0.39651 0.62517,0.60538c1.34028,1.37625 1.4766,3.73183 -0.05967,4.88251c-0.49716,0.37238 -0.74491,0.34701 -1.29508,0.59555c-1.52878,0.69062 -3.09722,1.15589 -4.75254,1.31395c-0.68889,0.06579 -1.41201,-0.14147 -2.10316,-0.18503c-1.23744,-0.45034 -2.53229,-0.5684 -3.77893,-1.11612c-0.66329,-0.29142 -1.17719,-0.74347 -1.78803,-1.14771c-1.14633,-0.7586 -2.35787,-1.39623 -3.27098,-2.57611c-0.61704,-0.79731 -0.99423,-1.81857 -1.32834,-2.77824c-0.09013,-0.25884 -0.29375,-0.46928 -0.33351,-0.74341c-0.00354,-0.02444 -0.00673,-0.04891 -0.00958,-0.0734l-0.01077,0.00323l-0.16807,-0.69741c-0.06984,-0.26668 0.00103,-0.5626 0.19629,-0.73428c0.19527,-0.17167 0.45745,-0.16856 0.65631,-0.01531l0.52411,0.38438l-0.00914,0.01812l0.05339,0.01765c1.01979,1.07643 2.04988,1.94397 3.33503,2.49866c1.18176,0.35553 2.26281,0.79963 3.48647,0.9455c1.50875,0.17986 2.99521,-0.05269 4.50043,-0.01895c1.224,0.02744 2.48201,-0.00922 3.71387,-0.18965z" fill="#ffffff" stroke="#000000" stroke-width="1"/><path d="M227.40683,183.22027c-0.13873,-0.06565 0.70071,-1.42835 0.70071,-1.42835c0.23534,-0.0803 0.45873,-0.25549 0.70603,-0.24091c0.26471,0.0156 0.50515,0.20926 0.75382,0.327c1.63842,0.77575 2.43686,2.96622 1.33684,4.67713c-0.35599,0.55368 -0.59354,0.62857 -1.03411,1.08543c-1.22425,1.26946 -2.54963,2.34 -4.0434,3.1525c-0.62165,0.33813 -1.35298,0.42975 -2.00792,0.66458c-1.27877,0.06557 -2.51617,0.4708 -3.83125,0.44725c-0.69971,-0.01253 -1.30636,-0.2379 -1.98948,-0.37891c-1.28197,-0.26465 -2.5901,-0.38791 -3.7754,-1.14731c-0.80099,-0.51316 -1.44286,-1.33566 -2.02711,-2.11668c-0.15759,-0.21066 -0.4069,-0.32979 -0.52204,-0.57516c-0.01027,-0.02188 -0.02021,-0.04394 -0.02984,-0.06612l-0.00909,0.00738l-0.35512,-0.59746c-0.14097,-0.22623 -0.15948,-0.53659 -0.02692,-0.77828c0.13256,-0.24168 0.37719,-0.34355 0.60575,-0.27701l0.59684,0.15678l-0.00333,0.02092l0.05466,-0.00453c1.25498,0.61812 2.45996,1.03307 3.81286,1.04788c1.19997,-0.13368 2.33159,-0.14266 3.51074,-0.49291c1.45387,-0.43184 2.76941,-1.24783 4.17832,-1.81751c1.14569,-0.46325 2.30472,-1.00118 3.39843,-1.66569z" fill="#ffffff" stroke="#000000" stroke-width="1"/><path d="M217.23929,175.40601c0.79384,-1.54726 9.92849,-0.31721 11.55115,-0.74661c3.26181,-0.86316 6.58908,1.59436 7.43167,5.48901c0.84259,3.89466 -1.11858,7.75162 -4.38039,8.61478c-1.86079,0.49241 -10.38433,-1.10762 -11.81428,-2.42692c-0.28677,-0.26458 -2.20708,-2.55445 -2.83335,-5.04021c-0.68758,-2.72915 -0.06686,-5.67162 0.0452,-5.89005z" fill="#ffffff" stroke="#000000" stroke-width="0"/><path d="M216.86266,176.05839c-0.04814,-0.22255 0.06392,-0.44295 0.25031,-0.49227c0.18638,-0.04932 0.37653,0.09111 0.42467,0.31367c0.04814,0.22255 -0.06392,0.44295 -0.25032,0.49227c-0.18638,0.04932 -0.37652,-0.0911 -0.42467,-0.31366z" fill="#000000" stroke="none" stroke-width="0.5"/><path d="M216.92095,181.68793c-0.04815,-0.22257 0.06391,-0.44295 0.25031,-0.49227c0.1864,-0.04932 0.37653,0.0911 0.42467,0.31366c0.04815,0.22257 -0.06392,0.44296 -0.25031,0.49228c-0.1864,0.04932 -0.37652,-0.09111 -0.42467,-0.31367z" fill="#000000" stroke="none" stroke-width="0.5"/><path d="M219.95405,186.63677c-0.04814,-0.22254 0.06392,-0.44295 0.25031,-0.49227c0.1864,-0.04932 0.37653,0.0911 0.42467,0.31366c0.04814,0.22254 -0.06392,0.44295 -0.25031,0.49227c-0.1864,0.04932 -0.37653,-0.0911 -0.42467,-0.31366z" fill="#000000" stroke="none" stroke-width="0.5"/></g><g stroke-linejoin="miter"><path d="M248.1583,188.76318c-3.2618,-0.86315 -5.22297,-4.72013 -4.38039,-8.61478c0.84259,-3.89465 4.16986,-6.35217 7.43167,-5.48902c3.2618,0.86315 5.22297,4.72013 4.38039,8.61478c-0.84259,3.89465 -4.16986,6.35217 -7.43167,5.48902z" fill="#ffffff" stroke="#000000" stroke-width="2"/><path d="M258.22047,174.77961c1.72038,-0.9855 3.37401,-2.17446 4.93875,-3.40932c1.92425,-1.51857 4.01059,-2.68943 5.83719,-4.39213c1.48145,-1.38098 2.56964,-2.99082 3.85017,-4.58994c1.27495,-1.94686 2.00089,-4.03032 2.56736,-6.36199l0.05675,-0.07421l-0.0245,-0.01344l0.40928,-0.98955c0.1501,-0.38462 0.48722,-0.64572 0.86003,-0.625c0.37281,0.02071 0.67157,0.31713 0.76781,0.71543l0.27051,1.02732l-0.01619,0.00657c0.01344,0.03307 0.02645,0.06646 0.03896,0.10016c0.14037,0.37802 0.02411,0.83801 0.08862,1.24652c0.23915,1.51453 0.46567,3.1475 0.22509,4.73886c-0.356,2.35492 -1.47767,4.33214 -2.43027,6.39492c-0.50761,1.09918 -0.85632,2.16242 -1.51074,3.17357c-1.22999,1.90042 -2.82302,3.31686 -4.10923,5.08786c-0.86393,0.73199 -1.65468,1.69777 -2.59218,2.29232c-2.25273,1.42865 -4.60796,2.39218 -7.0696,3.03811c-0.88587,0.23245 -1.18874,0.50688 -2.09267,0.53418c-2.79323,0.08438 -4.36617,-2.76096 -3.59478,-5.77784c0.11708,-0.45787 1.02809,-1.06575 1.33437,-1.33234c0,0 2.26066,-1.04547 2.1953,-0.79004z" fill="#ffffff" stroke="#000000" stroke-width="1"/><path d="M261.11955,178.38517c1.55137,-0.52628 3.07282,-1.23526 4.52623,-1.99841c1.78732,-0.93849 3.66568,-1.55632 5.39499,-2.66668c1.40254,-0.90055 2.5073,-2.06245 3.77036,-3.18157c1.30195,-1.41233 2.1653,-3.03581 2.92732,-4.89583l0.05639,-0.05241l-0.01867,-0.01559l0.46357,-0.75977c0.17273,-0.29687 0.48525,-0.45713 0.79211,-0.3743c0.30687,0.08282 0.51777,0.38435 0.5478,0.73595l0.09598,0.91078l-0.01427,0.00268c0.00702,0.03015 0.01364,0.06048 0.01981,0.091c0.06922,0.34229 -0.08487,0.70847 -0.08245,1.06308c0.00897,1.31471 -0.00737,2.72675 -0.40623,4.02184c-0.59023,1.91651 -1.76875,3.38126 -2.81764,4.94758c-0.55892,0.83464 -0.98143,1.66693 -1.65121,2.40182c-1.25882,1.3812 -2.75842,2.29198 -4.04772,3.55455c-0.80874,0.46353 -1.58598,1.13637 -2.43859,1.47149c-2.04874,0.80527 -4.12435,1.20169 -6.24854,1.31254c-0.76444,0.03989 -1.05018,0.21736 -1.80393,0.08168c-2.32916,-0.41924 -3.16967,-3.23781 -2.15179,-5.6377c0.15448,-0.36425 0.24499,-0.78904 0.49037,-1.07695c0.22922,-0.26898 0.5752,-0.34056 0.8628,-0.51084c0,0 1.81951,0.37186 1.73329,0.57505z" fill="#ffffff" stroke="#000000" stroke-width="1"/><path d="M263.8759,181.09383c1.2471,-0.07211 2.49942,-0.29033 3.70879,-0.56445c1.48722,-0.33711 2.99423,-0.40961 4.46391,-0.89054c1.19197,-0.39006 2.1996,-1.04341 3.31983,-1.63035c1.19403,-0.8029 2.09014,-1.86069 2.94596,-3.12098l0.05039,-0.02807l-0.01168,-0.01589l0.46417,-0.48236c0.17504,-0.19026 0.4345,-0.24628 0.65279,-0.11758c0.21829,0.1287 0.33117,0.40422 0.30036,0.67953l-0.06613,0.71702l-0.01114,-0.00099c0.0007,0.02456 0.00108,0.04916 0.00108,0.07382c0.00008,0.27653 -0.17146,0.52378 -0.2235,0.7955c-0.19294,1.00743 -0.41971,2.08389 -0.91649,2.98945c-0.73516,1.34007 -1.84427,2.20934 -2.87131,3.18391c-0.54727,0.5193 -0.99156,1.06588 -1.60708,1.4853c-1.15685,0.78828 -2.4234,1.16548 -3.58516,1.85653c-0.67885,0.18228 -1.36581,0.53135 -2.05816,0.60607c-1.66365,0.17957 -3.28544,0.04071 -4.90038,-0.3269c-0.58117,-0.1323 -0.82311,-0.05742 -1.36958,-0.32171c-1.68865,-0.81668 -1.89287,-3.15138 -0.76256,-4.77008c0.17154,-0.24567 0.30416,-0.55128 0.53249,-0.71922c0.2133,-0.1569 0.48447,-0.13797 0.72671,-0.20694c0,0 1.3124,0.67191 1.21667,0.80894z" fill="#ffffff" stroke="#000000" stroke-width="1"/><path d="M260.77977,183.54145c1.17991,0.42991 2.40632,0.72267 3.60876,0.94495c1.47869,0.27336 2.90032,0.80683 4.40371,0.93611c1.21931,0.10486 2.34235,-0.11493 3.55113,-0.2264c1.33896,-0.28778 2.47365,-0.93761 3.62863,-1.79654l0.05484,-0.00661l-0.00631,-0.01982l0.56905,-0.27412c0.21699,-0.11135 0.47415,-0.06098 0.64038,0.14895c0.16623,0.20993 0.1926,0.51766 0.08544,0.76772l-0.26594,0.65691l-0.01007,-0.00539c-0.00636,0.02368 -0.01302,0.04728 -0.02005,0.07079c-0.07878,0.26359 -0.30876,0.43063 -0.43462,0.66879c-0.46664,0.88298 -0.98442,1.81823 -1.70448,2.48264c-1.06555,0.98321 -2.34451,1.3682 -3.57717,1.88636c-0.65685,0.27611 -1.22573,0.61937 -1.91754,0.77299c-1.30022,0.28871 -2.5852,0.14178 -3.86227,0.33588c-0.68306,-0.09771 -1.42121,-0.0397 -2.08615,-0.24531c-1.59779,-0.49406 -3.06584,-1.27485 -4.4623,-2.27092c-0.50255,-0.35847 -0.74881,-0.38383 -1.18145,-0.85422c-1.33692,-1.45352 -0.86101,-3.76026 0.65135,-4.85102c0.22953,-0.16555 0.43998,-0.40379 0.70012,-0.47255c0.24304,-0.06424 0.48972,0.06224 0.73458,0.09334c0,0 1.02844,1.16511 0.90037,1.25744z" fill="#ffffff" stroke="#000000" stroke-width="1"/><path d="M269.6894,174.75408c-0.19187,-0.01066 -0.33471,-0.20388 -0.31905,-0.43159c0.01566,-0.22771 0.1839,-0.40365 0.37577,-0.393c0.19187,0.01066 0.33471,0.20388 0.31905,0.43159c-0.01566,0.22771 -0.1839,0.40365 -0.37577,0.393z" fill="#000000" stroke="none" stroke-width="0.5"/><path d="M270.44265,180.27968c-0.19188,-0.01066 -0.33471,-0.20388 -0.31905,-0.43159c0.01566,-0.22771 0.1839,-0.40365 0.37578,-0.39299c0.19188,0.01066 0.33471,0.20388 0.31904,0.43158c-0.01566,0.22771 -0.1839,0.40365 -0.37577,0.393z" fill="#000000" stroke="none" stroke-width="0.5"/><path d="M268.14898,185.73947c-0.19187,-0.01066 -0.33471,-0.20389 -0.31904,-0.43159c0.01566,-0.22771 0.1839,-0.40365 0.37577,-0.393c0.19187,0.01066 0.33471,0.20388 0.31905,0.43159c-0.01567,0.2277 -0.18392,0.40366 -0.37578,0.393z" fill="#000000" stroke="none" stroke-width="0.5"/><path d="M251.21035,174.0039c1.82698,-0.62939 3.61791,-1.47393 5.32839,-2.38193c2.10347,-1.11662 4.31559,-1.85581 6.34995,-3.17469c1.64994,-1.06967 2.94769,-2.44564 4.43226,-3.77215c1.52922,-1.67233 2.5404,-3.59098 3.43115,-5.78788l0.06628,-0.06211l-0.02207,-0.01827l0.54343,-0.89825c0.20242,-0.35095 0.57024,-0.54166 0.93239,-0.44583c0.36216,0.09584 0.61208,0.45002 0.64895,0.86429l0.11695,1.073l-0.01682,0.00324c0.00841,0.0355 0.01633,0.07121 0.02374,0.10716c0.08303,0.40307 -0.09712,0.83558 -0.0928,1.25354c0.01605,1.54963 0.00265,3.21411 -0.46226,4.743c-0.68796,2.26246 -2.07141,3.99585 -3.30161,5.84821c-0.65553,0.98705 -1.15025,1.97058 -1.9369,2.8407c-1.47849,1.63539 -3.24283,2.71767 -4.75775,4.21339c-0.95162,0.55108 -1.86526,1.3487 -2.86914,1.74869c-2.41224,0.96113 -4.85787,1.44048 -7.36196,1.58352c-0.90116,0.05147 -1.23733,0.26233 -2.12661,0.10679c-2.74797,-0.48061 -3.87864,-3.61885 -2.68847,-6.4536c0.18064,-0.43023 1.16049,-0.84879 1.49888,-1.05117c0,0 2.36481,-0.57969 2.26399,-0.33968z" fill="#ffffff" stroke="#000000" stroke-width="1"/><path d="M253.53039,178.16364c1.59531,-0.20831 3.1876,-0.60376 4.72107,-1.06666c1.88579,-0.56925 3.81453,-0.80225 5.66827,-1.55361c1.50346,-0.60939 2.75288,-1.53797 4.15122,-2.39219c1.47865,-1.13702 2.55814,-2.57193 3.57247,-4.2618l0.06278,-0.04056l-0.01603,-0.01922l0.5635,-0.6595c0.21195,-0.25939 0.54113,-0.35513 0.82975,-0.21104c0.28862,0.14409 0.45176,0.48558 0.43052,0.84019l-0.0372,0.92222l-0.01437,-0.00022c0.00254,0.0313 0.00465,0.06271 0.00629,0.09422c0.01848,0.35329 -0.18519,0.68514 -0.23391,1.03715c-0.18062,1.30506 -0.40006,2.70147 -0.97729,3.9047c-0.85421,1.78056 -2.21951,2.99446 -3.4725,4.33524c-0.66768,0.71446 -1.20141,1.45415 -1.96329,2.04733c-1.43192,1.11488 -3.03192,1.71477 -4.4766,2.70588c-0.85889,0.29612 -1.7171,0.80608 -2.60046,0.96605c-2.12263,0.38439 -4.21269,0.35808 -6.30917,0.03887c-0.75447,-0.11488 -1.05991,0.00332 -1.77862,-0.28343c-2.22088,-0.88608 -2.63804,-3.84985 -1.29534,-6.02319c0.20379,-0.32985 0.35363,-0.73266 0.63543,-0.9685c0.26326,-0.22032 0.61244,-0.2214 0.91866,-0.33209c0,0 1.72853,0.73617 1.6148,0.92016z" fill="#ffffff" stroke="#000000" stroke-width="1"/><path d="M255.97827,181.41945c1.23185,0.18044 2.48987,0.21709 3.71387,0.18965c1.50522,-0.03375 2.99168,0.1988 4.50043,0.01895c1.22366,-0.14587 2.30472,-0.58997 3.48647,-0.9455c1.28516,-0.55469 2.31523,-1.42224 3.33503,-2.49867l0.05339,-0.01766l-0.00914,-0.01812l0.52411,-0.38438c0.19886,-0.15325 0.46105,-0.15636 0.65631,0.01531c0.19526,0.17168 0.26612,0.4676 0.19628,0.73428l-0.16807,0.69741l-0.01077,-0.00323c-0.00285,0.02449 -0.00604,0.04895 -0.00958,0.0734c-0.03976,0.27414 -0.24339,0.48457 -0.33351,0.74341c-0.33411,0.95967 -0.7113,1.98093 -1.32834,2.77824c-0.91311,1.17988 -2.12465,1.81752 -3.27097,2.57611c-0.61083,0.40423 -1.12473,0.85629 -1.78802,1.1477c-1.24664,0.54772 -2.54149,0.66577 -3.77893,1.11612c-0.69115,0.04357 -1.41428,0.25082 -2.10317,0.18504c-1.65532,-0.15806 -3.22376,-0.62333 -4.75254,-1.31394c-0.55017,-0.24854 -0.79792,-0.22318 -1.29508,-0.59556c-1.53627,-1.15068 -1.39995,-3.50625 -0.05967,-4.88251c0.20341,-0.20888 0.37733,-0.48503 0.62517,-0.60538c0.23152,-0.11244 0.49439,-0.0389 0.74158,-0.05835c0,0 1.18863,0.93116 1.07512,1.04767z" fill="#ffffff" stroke="#000000" stroke-width="1"/><path d="M252.59318,183.22028c1.09371,0.66451 2.25274,1.20245 3.39843,1.66569c1.40892,0.56968 2.72445,1.38567 4.17832,1.81751c1.17915,0.35025 2.31076,0.35924 3.51074,0.49291c1.35289,-0.0148 2.55788,-0.42975 3.81286,-1.04788l0.05467,0.00453l-0.00333,-0.02092l0.59684,-0.15678c0.22857,-0.06655 0.47319,0.03533 0.60575,0.27701c0.13256,0.24168 0.11405,0.55204 -0.02692,0.77827l-0.35512,0.59747l-0.00909,-0.00738c-0.00963,0.02219 -0.01957,0.04424 -0.02984,0.06612c-0.11514,0.24537 -0.36445,0.3645 -0.52204,0.57516c-0.58425,0.78102 -1.22613,1.60352 -2.02712,2.11668c-1.1853,0.75939 -2.49343,0.88267 -3.7754,1.14731c-0.68312,0.14101 -1.28977,0.36637 -1.98948,0.3789c-1.31509,0.02355 -2.55248,-0.38167 -3.83125,-0.44725c-0.65494,-0.23483 -1.38627,-0.32644 -2.00792,-0.66458c-1.49376,-0.8125 -2.81914,-1.88304 -4.0434,-3.1525c-0.44057,-0.45686 -0.67812,-0.53175 -1.03411,-1.08543c-1.10003,-1.71092 -0.30158,-3.90139 1.33684,-4.67713c0.24866,-0.11774 0.4891,-0.31139 0.75381,-0.327c0.2473,-0.01458 0.47069,0.16061 0.70603,0.24091c0,0 0.83944,1.3627 0.70071,1.42835z" fill="#ffffff" stroke="#000000" stroke-width="1"/><path d="M262.76072,175.40601c0.11206,0.21843 0.73278,3.1609 0.0452,5.89005c-0.62626,2.48575 -2.54658,4.77563 -2.83335,5.04021c-1.42994,1.3193 -9.95348,2.91933 -11.81427,2.42692c-3.2618,-0.86315 -5.22297,-4.72013 -4.38039,-8.61478c0.84259,-3.89465 4.16986,-6.35217 7.43167,-5.48902c1.62265,0.4294 10.75731,-0.80065 11.55115,0.74661z" fill="#ffffff" stroke="#000000" stroke-width="0"/><path d="M262.71268,176.37204c-0.18639,-0.04932 -0.29846,-0.26971 -0.25031,-0.49227c0.04815,-0.22255 0.23828,-0.36298 0.42467,-0.31366c0.18639,0.04932 0.29846,0.26971 0.25031,0.49227c-0.04815,0.22255 -0.23828,0.36298 -0.42467,0.31366z" fill="#000000" stroke="none" stroke-width="0.5"/><path d="M262.65439,182.00158c-0.18639,-0.04932 -0.29846,-0.26971 -0.25031,-0.49228c0.04815,-0.22255 0.23827,-0.36298 0.42467,-0.31366c0.18639,0.04932 0.29846,0.26971 0.25031,0.49228c-0.04815,0.22255 -0.23827,0.36298 -0.42467,0.31366z" fill="#000000" stroke="none" stroke-width="0.5"/><path d="M259.62129,186.95042c-0.18639,-0.04932 -0.29846,-0.26972 -0.25031,-0.49227c0.04815,-0.22255 0.23827,-0.36298 0.42467,-0.31366c0.18639,0.04932 0.29846,0.26972 0.25031,0.49227c-0.04815,0.22255 -0.23827,0.36298 -0.42467,0.31366z" fill="#000000" stroke="none" stroke-width="0.5"/></g><path d="M220.75343,179.97005c0,-10.62959 8.61699,-19.24657 19.24658,-19.24657c10.62959,0 19.24657,8.61698 19.24657,19.24657c0,10.62959 -8.61698,19.24658 -19.24657,19.24658c-10.62959,0 -19.24658,-8.61698 -19.24658,-19.24658z" fill="#00ffff" stroke="#000000" stroke-width="2" stroke-linejoin="miter"/><path d="M220.75343,179.97005h38.49315c0,0 -0.01482,0.87807 -0.04398,1.31144c-0.6741,10.01796 -9.01376,17.93514 -19.20259,17.93514c-10.28032,0 -18.67812,-8.06001 -19.2189,-18.20552c-0.01837,-0.34469 -0.02768,-1.04105 -0.02768,-1.04105z" fill="#0090ff" stroke="#000000" stroke-width="2" stroke-linejoin="miter"/><g><path d="M230.30512,178.1628v-6.84382l6.84382,1.66666v5.17715z" data-paper-data="{&quot;index&quot;:null}" fill="#ffffff" stroke="#ffffff" stroke-width="2" stroke-linejoin="round"/><path d="M231.6739,176.79404v-4.10629h4.10629v4.10629z" data-paper-data="{&quot;index&quot;:null}" fill="#000000" stroke="none" stroke-width="1" stroke-linejoin="miter"/></g><g><path d="M243.51771,178.1628v-5.17715l6.84382,-1.66666v6.84382z" fill="#ffffff" stroke="#ffffff" stroke-width="2" stroke-linejoin="round"/><path d="M244.88649,176.79404v-4.10629h4.10629v4.10629z" fill="#000000" stroke="none" stroke-width="1" stroke-linejoin="miter"/></g></g></g></g></svg>