<svg version="1.1" xmlns="http://www.w3.org/2000/svg" xmlns:xlink="http://www.w3.org/1999/xlink" width="102" height="84" viewBox="0,0,102,84"><g transform="translate(-189,-153)"><g data-paper-data="{&quot;isPaintingLayer&quot;:true}" fill-rule="nonzero" stroke-linecap="butt" stroke-miterlimit="10" stroke-dasharray="" stroke-dashoffset="0" style="mix-blend-mode: normal"><g><path d="M209,217v-62h62v62z" fill="none" stroke="#000000" stroke-width="4" stroke-linejoin="round"/><path d="M209,217v-62h62v62z" fill="#b78239" stroke="none" stroke-width="1" stroke-linejoin="miter"/></g><path d="M218,208v-44h44v44z" fill="#ffb64f" stroke="none" stroke-width="1" stroke-linejoin="miter"/><g><path d="M254.09,219h16l-8,16z" fill="none" stroke="#000000" stroke-width="4" stroke-linejoin="round"/><path d="M254.09,219h16l-8,16z" fill="#e3c9a4" stroke="none" stroke-width="1" stroke-linejoin="miter"/></g><g><path d="M210.09,219h16l-8,16z" fill="none" stroke="#000000" stroke-width="4" stroke-linejoin="round"/><path d="M210.09,219h16l-8,16z" fill="#e3c9a4" stroke="none" stroke-width="1" stroke-linejoin="miter"/></g><g><path d="M232.09,219h16l-8,16z" fill="none" stroke="#000000" stroke-width="4" stroke-linejoin="round"/><path d="M232.09,219h16l-8,16z" fill="#e3c9a4" stroke="none" stroke-width="1" stroke-linejoin="miter"/></g><g><path d="M207,200.09v16l-16,-8z" fill="none" stroke="#000000" stroke-width="4" stroke-linejoin="round"/><path d="M207,200.09v16l-16,-8z" fill="#e3c9a4" stroke="none" stroke-width="1" stroke-linejoin="miter"/></g><g><path d="M207,156.09v16l-16,-8z" fill="none" stroke="#000000" stroke-width="4" stroke-linejoin="round"/><path d="M207,156.09v16l-16,-8z" fill="#e3c9a4" stroke="none" stroke-width="1" stroke-linejoin="miter"/></g><g><path d="M207,178.09v16l-16,-8z" fill="none" stroke="#000000" stroke-width="4" stroke-linejoin="round"/><path d="M207,178.09v16l-16,-8z" fill="#e3c9a4" stroke="none" stroke-width="1" stroke-linejoin="miter"/></g><g><path d="M273,171.91v-16l16,8z" fill="none" stroke="#000000" stroke-width="4" stroke-linejoin="round"/><path d="M273,171.91v-16l16,8z" fill="#e3c9a4" stroke="none" stroke-width="1" stroke-linejoin="miter"/></g><g><path d="M273,215.91v-16l16,8z" fill="none" stroke="#000000" stroke-width="4" stroke-linejoin="round"/><path d="M273,215.91v-16l16,8z" fill="#e3c9a4" stroke="none" stroke-width="1" stroke-linejoin="miter"/></g><g><path d="M273,193.91v-16l16,8z" fill="none" stroke="#000000" stroke-width="4" stroke-linejoin="round"/><path d="M273,193.91v-16l16,8z" fill="#e3c9a4" stroke="none" stroke-width="1" stroke-linejoin="miter"/></g><path d="M262,208h-44v-15l22,-6l22,6z" fill="#ffffff" stroke="none" stroke-width="1" stroke-linejoin="miter"/><path d="M224,208v-9h9v9z" fill="#000000" stroke="none" stroke-width="1" stroke-linejoin="miter"/><path d="M247,208v-9h9v9z" fill="#000000" stroke="none" stroke-width="1" stroke-linejoin="miter"/></g></g></svg>