<svg version="1.1" xmlns="http://www.w3.org/2000/svg" xmlns:xlink="http://www.w3.org/1999/xlink" width="28.71921" height="48.08244" viewBox="0,0,28.71921,48.08244"><g transform="translate(-222.85088,-131.87214)"><g data-paper-data="{&quot;isPaintingLayer&quot;:true}" fill-rule="nonzero" stroke-linecap="butt" stroke-miterlimit="10" stroke-dasharray="" stroke-dashoffset="0" style="mix-blend-mode: normal"><path d="M231.79205,171.65458v-7h11v7z" fill="#000000" stroke="none" stroke-width="1" stroke-linejoin="miter"/><path d="M229.49205,178.95458v-7h21v7z" fill="#d68815" stroke="#000000" stroke-width="2" stroke-linejoin="miter"/><g><path d="M227.71984,139.76981l15.03032,5.83356l-11.43312,11.36768" fill="none" stroke="#000000" stroke-width="8" stroke-linejoin="round"/><path d="M244.54877,154.204l-15.03032,-5.83357l11.43313,-11.36769" fill="none" stroke="#000000" stroke-width="8" stroke-linejoin="round"/><path d="M227.71984,139.76981l15.03032,5.83356l-11.43312,11.36768" fill="none" stroke="#b5b5b5" stroke-width="4" stroke-linejoin="round"/><path d="M244.54877,154.204l-15.03032,-5.83357l11.43313,-11.36769" fill="none" stroke="#b5b5b5" stroke-width="4" stroke-linejoin="round"/><path d="M227.01712,141.64307l15.32897,-3.20565" fill="none" stroke="#000000" stroke-width="2" stroke-linejoin="miter"/><path d="M225.681,141.5772l-0.83012,-3.96952l17.86283,-3.73554l0.83012,3.96952z" fill="none" stroke="#000000" stroke-width="4" stroke-linejoin="round"/><path d="M225.681,141.5772l-0.83012,-3.96952l17.86283,-3.73554l0.83012,3.96952z" fill="#f59c18" stroke="none" stroke-width="1" stroke-linejoin="miter"/><path d="M225.681,141.5772l-0.27671,-1.32318l17.86283,-3.73553l0.27671,1.32317z" fill="#d68815" stroke="none" stroke-width="1" stroke-linejoin="miter"/><path d="M232.68832,151.74462l8.78413,-1.95931c3.23423,-0.7214 6.44091,1.31566 7.16231,4.54989l1.74161,7.80812l-20.49633,4.57173l-1.74161,-7.80812c-0.7214,-3.23423 1.31566,-6.44091 4.54989,-7.16231z" fill="#f59c18" stroke="#000000" stroke-width="2" stroke-linejoin="miter"/><path d="M239.74541,160.41626l-1.08851,-4.88008l4.88008,-1.0885l1.0885,4.88008z" fill="#ffffff" stroke="#ffffff" stroke-width="2" stroke-linejoin="round"/><path d="M241.47974,159.00484l-0.6531,-2.92805l2.92804,-0.6531l0.6531,2.92804z" fill="#000000" stroke="none" stroke-width="1" stroke-linejoin="miter"/></g></g></g></svg>