<svg version="1.1" xmlns="http://www.w3.org/2000/svg" xmlns:xlink="http://www.w3.org/1999/xlink" width="302.22919" height="41.39386" viewBox="0,0,302.22919,41.39386"><g transform="translate(-89.90574,-158.81844)"><g data-paper-data="{&quot;isPaintingLayer&quot;:true}" fill-rule="nonzero" stroke-linecap="butt" stroke-linejoin="miter" stroke-miterlimit="10" stroke-dasharray="" stroke-dashoffset="0" style="mix-blend-mode: normal"><path d="M91.92946,163.33443h11.77763c4.42221,0 13.75923,0.50989 13.75923,8.45888c0,2.81091 -1.18672,5.38649 -4.47818,6.66774v0.09152c4.26546,1.80422 5.23947,4.92891 5.23947,7.90978c0,8.78572 -8.28465,10.17157 -14.00552,10.17157h-12.31501zM104.46837,176.866c1.54497,0 2.2391,-0.91518 2.2391,-2.06569c0,-1.1505 -0.76129,-2.06569 -2.2391,-2.06569h-0.43661v4.13137zM104.55795,187.71743c1.90323,0 2.79887,-1.15052 2.79887,-2.6148c0,-1.46428 -0.94042,-2.6148 -2.79887,-2.6148h-0.52619v5.15115z" fill="none" stroke="#ffffff" stroke-width="4"/><path d="M91.92946,163.33443h11.77763c4.42221,0 13.75923,0.50989 13.75923,8.45888c0,2.81091 -1.18672,5.38649 -4.47818,6.66774v0.09152c4.26546,1.80422 5.23947,4.92891 5.23947,7.90978c0,8.78572 -8.28465,10.17157 -14.00552,10.17157h-12.31501zM104.46837,176.866c1.54497,0 2.2391,-0.91518 2.2391,-2.06569c0,-1.1505 -0.76129,-2.06569 -2.2391,-2.06569h-0.43661v4.13137zM104.55795,187.71743c1.90323,0 2.79887,-1.15052 2.79887,-2.6148c0,-1.46428 -0.94042,-2.6148 -2.79887,-2.6148h-0.52619v5.15115z" fill="#000000" stroke="none" stroke-width="1"/><path d="M134.99103,164.03255c8.42158,0 14.99005,7.27435 14.99005,16.64339c0,9.36905 -6.56847,16.6561 -14.99005,16.6561c-8.42158,0 -14.99875,-7.27435 -14.99875,-16.6561c0,-9.38174 6.57717,-16.64338 14.99875,-16.64338zM134.99103,185.90638c2.29679,0 4.14989,-2.23435 4.14989,-5.00191c0,-2.76756 -1.8531,-5.0019 -4.14989,-5.0019c-2.29679,0 -4.15859,2.23435 -4.15859,5.0019c0,2.76756 1.85309,5.00191 4.15859,5.00191z" fill="none" stroke="#ffffff" stroke-width="4"/><path d="M134.99103,164.03255c8.42158,0 14.99005,7.27435 14.99005,16.64339c0,9.36905 -6.56847,16.6561 -14.99005,16.6561c-8.42158,0 -14.99875,-7.27435 -14.99875,-16.6561c0,-9.38174 6.57717,-16.64338 14.99875,-16.64338zM134.99103,185.90638c2.29679,0 4.14989,-2.23435 4.14989,-5.00191c0,-2.76756 -1.8531,-5.0019 -4.14989,-5.0019c-2.29679,0 -4.15859,2.23435 -4.15859,5.0019c0,2.76756 1.85309,5.00191 4.15859,5.00191z" fill="#000000" stroke="none" stroke-width="1"/><path d="M154.51885,182.9533c3.33805,2.23775 7.06023,3.57759 10.8962,3.9222c1.37459,0 1.69868,-0.54912 1.69868,-1.09822c0,-0.5491 -0.41349,-0.92824 -1.00581,-1.05899c-1.6093,-0.41837 -6.22479,-0.92826 -9.61098,-3.9222c-1.90225,-1.60164 -3.00296,-4.20148 -2.9392,-6.94229c0,-6.66774 5.12959,-11.21749 13.51127,-11.21749c4.03925,-0.00274 8.04278,0.88431 11.80141,2.6148v10.90372c-3.17687,-1.67321 -6.58234,-2.67362 -10.05802,-2.95472c-1.31873,0 -1.68751,0.50989 -1.68751,1.01978c0,0.50988 0.50288,0.96748 1.05052,1.1505c1.37459,0.40529 5.94543,0.96748 9.1975,3.54304c2.11393,1.5354 3.38605,4.2539 3.35267,7.16455c0,6.39319 -5.12959,10.85142 -13.8242,10.85142c-4.24412,0.02458 -8.45362,-0.8938 -12.40488,-2.70631z" fill="none" stroke="#ffffff" stroke-width="4"/><path d="M154.51885,182.9533c3.33805,2.23775 7.06023,3.57759 10.8962,3.9222c1.37459,0 1.69868,-0.54912 1.69868,-1.09822c0,-0.5491 -0.41349,-0.92824 -1.00581,-1.05899c-1.6093,-0.41837 -6.22479,-0.92826 -9.61098,-3.9222c-1.90225,-1.60164 -3.00296,-4.20148 -2.9392,-6.94229c0,-6.66774 5.12959,-11.21749 13.51127,-11.21749c4.03925,-0.00274 8.04278,0.88431 11.80141,2.6148v10.90372c-3.17687,-1.67321 -6.58234,-2.67362 -10.05802,-2.95472c-1.31873,0 -1.68751,0.50989 -1.68751,1.01978c0,0.50988 0.50288,0.96748 1.05052,1.1505c1.37459,0.40529 5.94543,0.96748 9.1975,3.54304c2.11393,1.5354 3.38605,4.2539 3.35267,7.16455c0,6.39319 -5.12959,10.85142 -13.8242,10.85142c-4.24412,0.02458 -8.45362,-0.8938 -12.40488,-2.70631z" fill="#000000" stroke="none" stroke-width="1"/><path d="M183.48896,182.1047c3.33805,2.23775 7.06023,3.57759 10.8962,3.9222c1.37459,0 1.69868,-0.54912 1.69868,-1.09822c0,-0.5491 -0.41349,-0.92824 -1.00581,-1.05899c-1.6093,-0.41837 -6.22479,-0.92826 -9.61098,-3.9222c-1.90225,-1.60164 -3.00296,-4.20148 -2.9392,-6.94229c0,-6.66774 5.12959,-11.21749 13.51127,-11.21749c4.03925,-0.00274 8.04278,0.8843 11.80141,2.61479v10.90372c-3.17687,-1.67321 -6.58234,-2.67362 -10.05802,-2.95472c-1.31873,0 -1.68751,0.50989 -1.68751,1.01978c0,0.50988 0.50288,0.96748 1.05052,1.15052c1.37459,0.40529 5.94543,0.96748 9.1975,3.54304c2.11393,1.5354 3.38605,4.25389 3.35267,7.16454c0,6.39319 -5.12959,10.85142 -13.8242,10.85142c-4.24412,0.02458 -8.45362,-0.8938 -12.40488,-2.70631z" fill="none" stroke="#ffffff" stroke-width="4"/><path d="M183.48896,182.1047c3.33805,2.23775 7.06023,3.57759 10.8962,3.9222c1.37459,0 1.69868,-0.54912 1.69868,-1.09822c0,-0.5491 -0.41349,-0.92824 -1.00581,-1.05899c-1.6093,-0.41837 -6.22479,-0.92826 -9.61098,-3.9222c-1.90225,-1.60164 -3.00296,-4.20148 -2.9392,-6.94229c0,-6.66774 5.12959,-11.21749 13.51127,-11.21749c4.03925,-0.00274 8.04278,0.8843 11.80141,2.61479v10.90372c-3.17687,-1.67321 -6.58234,-2.67362 -10.05802,-2.95472c-1.31873,0 -1.68751,0.50989 -1.68751,1.01978c0,0.50988 0.50288,0.96748 1.05052,1.15052c1.37459,0.40529 5.94543,0.96748 9.1975,3.54304c2.11393,1.5354 3.38605,4.25389 3.35267,7.16454c0,6.39319 -5.12959,10.85142 -13.8242,10.85142c-4.24412,0.02458 -8.45362,-0.8938 -12.40488,-2.70631z" fill="#000000" stroke="none" stroke-width="1"/><path d="M228.66737,162.91013h13.61369c6.82923,0 16.14386,1.69962 16.14386,10.57686c-0.06043,3.30928 -1.66142,6.31671 -4.1759,7.8444l7.60171,14.87822h-14.38618l-4.9484,-10.94294h-0.19032v10.94294h-13.65847zM243.33342,177.63145c2.16072,0 3.12353,-1.15052 3.12353,-2.6148c0,-1.46428 -1.00759,-2.53635 -3.12353,-2.53635h-1.00759v5.11193z" fill="none" stroke="#ffffff" stroke-width="4"/><path d="M228.66737,162.91013h13.61369c6.82923,0 16.14386,1.69962 16.14386,10.57686c-0.06043,3.30928 -1.66142,6.31671 -4.1759,7.8444l7.60171,14.87822h-14.38618l-4.9484,-10.94294h-0.19032v10.94294h-13.65847zM243.33342,177.63145c2.16072,0 3.12353,-1.15052 3.12353,-2.6148c0,-1.46428 -1.00759,-2.53635 -3.12353,-2.53635h-1.00759v5.11193z" fill="#000000" stroke="none" stroke-width="1"/><path d="M264.67417,182.56276v-18.15978h11.60434v17.2446c0,3.12469 0.85583,5.33419 3.54296,5.33419c2.68712,0 3.46935,-1.93495 3.46935,-5.2296v-17.3492h10.43562v17.97673c0,5.11193 -1.08589,8.32814 -2.56748,10.4592c-2.56748,3.67379 -7.24235,5.37341 -12.03685,5.37341c-4.95094,0 -9.31292,-1.83037 -11.80678,-5.2296c-1.39877,-1.97418 -2.64111,-4.99425 -2.64111,-10.41997z" fill="none" stroke="#ffffff" stroke-width="4"/><path d="M264.67417,182.56276v-18.15978h11.60434v17.2446c0,3.12469 0.85583,5.33419 3.54296,5.33419c2.68712,0 3.46935,-1.93495 3.46935,-5.2296v-17.3492h10.43562v17.97673c0,5.11193 -1.08589,8.32814 -2.56748,10.4592c-2.56748,3.67379 -7.24235,5.37341 -12.03685,5.37341c-4.95094,0 -9.31292,-1.83037 -11.80678,-5.2296c-1.39877,-1.97418 -2.64111,-4.99425 -2.64111,-10.41997z" fill="#000000" stroke="none" stroke-width="1"/><path d="M298.90304,182.73003c3.05382,2.24441 6.43246,3.58208 9.90644,3.9222c1.24929,0 1.54208,-0.5491 1.54208,-1.09822c0,-0.5491 -0.37089,-0.92826 -0.91743,-1.05899c-1.45425,-0.41837 -5.66083,-0.92824 -8.73524,-3.92219c-1.71204,-1.55616 -2.71589,-4.17167 -2.66449,-6.94231c0,-6.66774 4.65554,-11.21749 12.27813,-11.21749c3.66727,-0.00489 7.30479,0.88104 10.73607,2.6148v10.90372c-2.8912,-1.67164 -5.97399,-2.67084 -9.11588,-2.95472c-1.21024,0 -1.54209,0.50989 -1.54209,1.01977c0,0.50988 0.45872,0.96748 0.97601,1.1505c1.24929,0.40529 5.41683,0.96748 8.37412,3.54306c1.8962,1.48824 3.05387,4.22072 3.03538,7.16455c0,6.39319 -4.66531,10.85142 -12.57094,10.85142c-3.85258,0.02665 -7.67633,-0.89053 -11.28262,-2.70631z" fill="none" stroke="#ffffff" stroke-width="4"/><path d="M298.90304,182.73003c3.05382,2.24441 6.43246,3.58208 9.90644,3.9222c1.24929,0 1.54208,-0.5491 1.54208,-1.09822c0,-0.5491 -0.37089,-0.92826 -0.91743,-1.05899c-1.45425,-0.41837 -5.66083,-0.92824 -8.73524,-3.92219c-1.71204,-1.55616 -2.71589,-4.17167 -2.66449,-6.94231c0,-6.66774 4.65554,-11.21749 12.27813,-11.21749c3.66727,-0.00489 7.30479,0.88104 10.73607,2.6148v10.90372c-2.8912,-1.67164 -5.97399,-2.67084 -9.11588,-2.95472c-1.21024,0 -1.54209,0.50989 -1.54209,1.01977c0,0.50988 0.45872,0.96748 0.97601,1.1505c1.24929,0.40529 5.41683,0.96748 8.37412,3.54306c1.8962,1.48824 3.05387,4.22072 3.03538,7.16455c0,6.39319 -4.66531,10.85142 -12.57094,10.85142c-3.85258,0.02665 -7.67633,-0.89053 -11.28262,-2.70631z" fill="#000000" stroke="none" stroke-width="1"/><path d="M327.91386,162.76385h9.77078l0.09836,11.60673l7.83215,0.08373l-0.1883,-11.69046h9.65809v33.29947h-9.77077l-0.39065,-10.45323l-7.35161,-0.22885v10.64286h-9.65808z" fill="none" stroke="#ffffff" stroke-width="4"/><path d="M327.91386,162.76385h9.77078l0.09838,11.60672l7.83213,0.08373l-0.18832,-11.69046h9.65808v33.29947h-9.77077l-0.39065,-10.45323l-7.35161,-0.22885v10.64286h-9.65808z" fill="#000000" stroke="none" stroke-width="1"/><path d="M364.91401,184.84284c2.45433,0.77643 4.99766,1.23665 7.56844,1.36953c2.21287,0 2.88322,-0.61268 2.88322,-1.65064c0,-1.03796 -0.7208,-1.64343 -2.81834,-1.64343h-3.45986v-8.18113h3.43102c2.11196,0 2.81835,-0.56223 2.81835,-1.64343c0,-1.08121 -0.7208,-1.65064 -2.88322,-1.65064c-2.24629,0.10258 -4.47125,0.48269 -6.62419,1.13166v-9.68761c2.58048,-1.36232 6.76835,-2.0687 10.19937,-2.0687c7.76306,0 13.73132,3.71214 13.73132,9.5939c0,3.80585 -2.49399,6.24937 -6.11242,6.95576v0.0937c3.80584,0.9875 6.48723,3.48148 6.48723,7.85676c0,6.91251 -6.7251,10.5742 -15.32429,10.5742c-3.37502,0.03746 -6.73169,-0.50126 -9.92548,-1.59297z" fill="none" stroke="#ffffff" stroke-width="4"/><path d="M364.91401,184.84284c2.45433,0.77643 4.99766,1.23665 7.56844,1.36953c2.21287,0 2.88322,-0.61268 2.88322,-1.65064c0,-1.03796 -0.7208,-1.64343 -2.81834,-1.64343h-3.45986v-8.18113h3.43102c2.11196,0 2.81835,-0.56223 2.81835,-1.64343c0,-1.08121 -0.7208,-1.65064 -2.88322,-1.65064c-2.24629,0.10258 -4.47125,0.48269 -6.62419,1.13166v-9.68761c2.58048,-1.36232 6.76835,-2.0687 10.19937,-2.0687c7.76306,0 13.73132,3.71214 13.73132,9.5939c0,3.80585 -2.49399,6.24937 -6.11242,6.95576v0.0937c3.80584,0.9875 6.48723,3.48148 6.48723,7.85676c0,6.91251 -6.7251,10.5742 -15.32429,10.5742c-3.37502,0.03746 -6.73169,-0.50126 -9.92548,-1.59297z" fill="#000000" stroke="none" stroke-width="1"/></g></g></svg>