<svg version="1.1" xmlns="http://www.w3.org/2000/svg" xmlns:xlink="http://www.w3.org/1999/xlink" width="30.6868" height="35.11427" viewBox="0,0,30.6868,35.11427"><g transform="translate(-224.6566,-162.94286)"><g data-paper-data="{&quot;isPaintingLayer&quot;:true}" fill-rule="nonzero" stroke-linecap="butt" stroke-miterlimit="10" stroke-dasharray="" stroke-dashoffset="0" style="mix-blend-mode: normal"><g><path d="M251.69961,174.05287c0,6.89 -4,9.89 -9,9.89c-5,0 -9,-3 -9,-9.89c0,-6.11 6,-8.11 9,-6.11c3,-2 9,0 9,6.11z" fill="#ffff24" stroke="#000000" stroke-width="2" stroke-linejoin="round"/><path d="M244.19961,162.94286c0,1.25 -1.5,5 -1.5,5" fill="none" stroke="#000000" stroke-width="2" stroke-linejoin="round"/><path d="M235.69961,171.94287c0,-1.65685 1.34315,-3 3,-3c1.65685,0 3,1.34315 3,3c0,1.65685 -1.34315,3 -3,3c-1.65685,0 -3,-1.34315 -3,-3z" fill="#ffffff" stroke="none" stroke-width="1" stroke-linejoin="miter"/></g><g><path d="M233.82171,177.88799l-2.55403,5.12008l-4.61108,-5.49718z" fill="none" stroke="#000000" stroke-width="4" stroke-linejoin="round"/><path d="M233.82171,177.88799l-2.55403,5.12008l-4.61108,-5.49718z" fill="#b3b3b3" stroke="none" stroke-width="1" stroke-linejoin="miter"/></g><g><path d="M236.54596,176.18295l-5.00405,2.7745l-0.68865,-7.1419z" fill="none" stroke="#000000" stroke-width="4" stroke-linejoin="round"/><path d="M236.54596,176.18295l-5.00405,2.7745l-0.68865,-7.1419z" fill="#b3b3b3" stroke="none" stroke-width="1" stroke-linejoin="miter"/></g><g><path d="M252.07295,179.58797l-4.76037,-3.17446l6.03082,-3.88719z" fill="none" stroke="#000000" stroke-width="4" stroke-linejoin="round"/><path d="M252.07295,179.58797l-4.76037,-3.17446l6.03082,-3.88719z" fill="#b3b3b3" stroke="none" stroke-width="1" stroke-linejoin="miter"/></g><path d="M232.03294,197.05714v-7h21v7z" fill="#828212" stroke="#000000" stroke-width="2" stroke-linejoin="miter"/><g><path d="M238.03294,176.05714h9c3.31371,0 6,2.68629 6,6v8h-21v-8c0,-3.31371 2.68629,-6 6,-6z" fill="#ffff24" stroke="#000000" stroke-width="2" stroke-linejoin="miter"/><path d="M243.03294,186.05714v-5h5v5z" fill="#ffffff" stroke="#ffffff" stroke-width="2" stroke-linejoin="round"/><path d="M245.03294,185.05714v-3h3v3z" fill="#000000" stroke="none" stroke-width="1" stroke-linejoin="miter"/></g></g></g></svg>