<svg version="1.1" xmlns="http://www.w3.org/2000/svg" xmlns:xlink="http://www.w3.org/1999/xlink" width="66" height="304.83324" viewBox="0,0,66,304.83324"><g transform="translate(-207,-27.58339)"><g data-paper-data="{&quot;isPaintingLayer&quot;:true}" fill-rule="nonzero" stroke-linecap="butt" stroke-miterlimit="10" stroke-dasharray="" stroke-dashoffset="0" style="mix-blend-mode: normal"><g fill="#000000" stroke="none" stroke-linejoin="miter"><path d="M253.76744,206.99998v125.41666h-27.53488v-125.41667z" stroke-width="NaN"/><path d="M258.5,218.5v13h-37v-13z" stroke-width="0"/><path d="M258.5,238.49999v13h-37v-13z" stroke-width="0"/><path d="M258.5,263.49998v13h-37v-13z" stroke-width="0"/><path d="M258.5,283.49998v13h-37v-13z" stroke-width="0"/><path d="M258.5,308.49998v13h-37v-13z" stroke-width="0"/></g><g fill="#000000" stroke="none" stroke-linejoin="miter"><path d="M226.23256,153.00006v-125.41666h27.53488v125.41667z" stroke-width="NaN"/><path d="M221.5,141.50001v-13h37v13z" stroke-width="0"/><path d="M221.5,121.50006v-13h37v13z" stroke-width="0"/><path d="M221.5,96.50006v-13h37v13z" stroke-width="0"/><path d="M221.5,76.50002v-13h37v13z" stroke-width="0"/><path d="M221.5,51.50005v-13h37v13z" stroke-width="0"/></g><g><g><path d="M209,211.00006v-62h62v62z" fill="none" stroke="#000000" stroke-width="4" stroke-linejoin="round"/><path d="M209,211.00006v-62h62v62z" fill="#a700ff" stroke="none" stroke-width="1" stroke-linejoin="miter"/></g><path d="M218,202.00006v-44h44v44z" fill="#be44ff" stroke="none" stroke-width="1" stroke-linejoin="miter"/><path d="M262,202.00006h-44v-17.19795l21.6587,7l22,-7z" fill="#ffffff" stroke="none" stroke-width="1" stroke-linejoin="miter"/><path d="M224,202.00006v-9h9v9z" fill="#000000" stroke="none" stroke-width="1" stroke-linejoin="miter"/><path d="M247,202.00006v-9h9v9z" fill="#000000" stroke="none" stroke-width="1" stroke-linejoin="miter"/><g><path d="M254.09,213.00006h16l-8,16z" fill="none" stroke="#000000" stroke-width="4" stroke-linejoin="round"/><path d="M254.09,213.00006h16l-8,16z" fill="#b3b3b3" stroke="none" stroke-width="1" stroke-linejoin="miter"/></g><g><path d="M210.09,213.00006h16l-8,16z" fill="none" stroke="#000000" stroke-width="4" stroke-linejoin="round"/><path d="M210.09,213.00006h16l-8,16z" fill="#b3b3b3" stroke="none" stroke-width="1" stroke-linejoin="miter"/></g><g><path d="M232.09,213.00006h16l-8,16z" fill="none" stroke="#000000" stroke-width="4" stroke-linejoin="round"/><path d="M232.09,213.00006h16l-8,16z" fill="#b3b3b3" stroke="none" stroke-width="1" stroke-linejoin="miter"/></g></g><g><g fill="none" stroke="none" stroke-width="1" stroke-linejoin="miter" font-family="sans-serif" font-weight="normal" font-size="12" text-anchor="start"/><path d="M218,157.99998h44v17.88055l-22,-7l-22,7z" fill="#ffffff" stroke="none" stroke-width="1" stroke-linejoin="miter"/><path d="M256,157.99998v9h-9v-9z" fill="#000000" stroke="none" stroke-width="1" stroke-linejoin="miter"/><path d="M233,157.99998v9h-9v-9z" fill="#000000" stroke="none" stroke-width="1" stroke-linejoin="miter"/><g><path d="M225.91,146.99998h-16l8,-16z" fill="none" stroke="#000000" stroke-width="4" stroke-linejoin="round"/><path d="M225.91,146.99998h-16l8,-16z" fill="#b3b3b3" stroke="none" stroke-width="1" stroke-linejoin="miter"/></g><g><path d="M269.91,146.99998h-16l8,-16z" fill="none" stroke="#000000" stroke-width="4" stroke-linejoin="round"/><path d="M269.91,146.99998h-16l8,-16z" fill="#b3b3b3" stroke="none" stroke-width="1" stroke-linejoin="miter"/></g><g><path d="M247.91,146.99998h-16l8,-16z" fill="none" stroke="#000000" stroke-width="4" stroke-linejoin="round"/><path d="M247.91,146.99998h-16l8,-16z" fill="#b3b3b3" stroke="none" stroke-width="1" stroke-linejoin="miter"/></g></g></g></g></svg>