<svg version="1.1" xmlns="http://www.w3.org/2000/svg" xmlns:xlink="http://www.w3.org/1999/xlink" width="42.87201" height="48.46421" viewBox="0,0,42.87201,48.46421"><g transform="translate(-213.04938,-131.09533)"><g data-paper-data="{&quot;isPaintingLayer&quot;:true}" fill-rule="nonzero" stroke-linecap="butt" stroke-miterlimit="10" stroke-dasharray="" stroke-dashoffset="0" style="mix-blend-mode: normal"><path d="M228.83902,168.65209v-9.51844h14.95755v9.51844z" fill="#000000" stroke="none" stroke-width="1" stroke-linejoin="miter"/><path d="M225.62799,178.55954v-9.58134h28.74403v9.58134z" fill="#00006a" stroke="#000000" stroke-width="2" stroke-linejoin="miter"/><g><path d="M223.22308,134.71632c4.42649,-0.98926 10.85184,6.30636 10.85184,6.30636c0,0 4.96568,-8.93809 9.39218,-9.92735c4.42649,-0.98926 10.44617,5.0461 11.43543,9.47259l-2.73658,16.04708l-28.05202,6.26923l-10.08862,-13.48191c-0.98926,-4.42649 4.77129,-13.69674 9.19777,-14.68599z" fill="#000090" stroke="#000000" stroke-width="2" stroke-linejoin="miter"/><path d="M237.6137,154.2571l-1.49267,-6.67906l6.67906,-1.49267l1.49267,6.67906z" fill="#ffffff" stroke="#ffffff" stroke-width="2" stroke-linejoin="round"/><path d="M239.98678,152.32423l-0.89561,-4.00744l4.00744,-0.8956l0.8956,4.00743z" fill="#000000" stroke="none" stroke-width="1" stroke-linejoin="miter"/></g></g></g></svg>