<svg version="1.1" xmlns="http://www.w3.org/2000/svg" xmlns:xlink="http://www.w3.org/1999/xlink" width="64.93256" height="127.44517" viewBox="0,0,64.93256,127.44517"><g transform="translate(-215.12448,-55.20374)"><g data-paper-data="{&quot;isPaintingLayer&quot;:true}" fill-rule="nonzero" stroke-linecap="butt" stroke-miterlimit="10" stroke-dasharray="" stroke-dashoffset="0" style="mix-blend-mode: normal"><path d="M250.74677,92.5696v-20.46885h14.62061v20.46885z" fill="#ff0000" stroke="#000000" stroke-width="2" stroke-linejoin="miter"/><path d="M246.8122,67.44858c0,-6.21036 5.03448,-11.24484 11.24484,-11.24484c6.21036,0 11.24484,5.03448 11.24484,11.24484c0,6.21036 -5.03448,11.24484 -11.24484,11.24484c-6.21036,0 -11.24484,-5.03448 -11.24484,-11.24484z" fill="#ff0000" stroke="#000000" stroke-width="2" stroke-linejoin="miter"/><g data-paper-data="{&quot;index&quot;:null}"><g><path d="M273.98214,114.85802l-9.22238,5.85306l-3.00379,-4.73291l-6.45565,4.09714l2.40305,3.78634l-1.84447,1.17061l-2.40305,-3.78633l-2.76672,1.75592l3.00379,4.73292l-3.68894,2.34122l-4.2053,-6.62608l14.75578,-9.3649l-3.00378,-4.73291l9.22238,-5.85306zM262.72042,111.38252l2.40304,3.78633l3.68895,-2.34122l-2.40304,-3.78633z" fill="none" stroke="#000000" stroke-width="4" stroke-linejoin="round"/><path d="M273.98214,114.85802l-9.22238,5.85306l-3.00379,-4.73291l-6.45565,4.09714l2.40305,3.78634l-1.84447,1.17061l-2.40305,-3.78633l-2.76672,1.75592l3.00379,4.73292l-3.68894,2.34122l-4.2053,-6.62608l14.75578,-9.3649l-3.00378,-4.73291l9.22238,-5.85306zM262.72042,111.38252l2.40304,3.78633l3.68895,-2.34122l-2.40304,-3.78633z" fill="#ff0000" stroke="none" stroke-width="1" stroke-linejoin="miter"/></g><g><path d="M256.40977,127.88985l-6.75082,8.58701l-4.40686,-3.4645l-4.72556,6.01092l3.5255,2.77161l-1.35016,1.7174l-3.5255,-2.77161l-2.02524,2.57612l4.40685,3.46451l-2.70031,3.43482l-6.16961,-4.85031l10.80128,-13.73924l-4.40685,-3.46451l6.7508,-8.58702zM244.63322,128.35756l3.5255,2.77161l2.70032,-3.43481l-3.5255,-2.7716z" fill="none" stroke="#000000" stroke-width="4" stroke-linejoin="round"/><path d="M256.40977,127.88985l-6.75082,8.58701l-4.40686,-3.4645l-4.72556,6.01092l3.5255,2.77161l-1.35016,1.7174l-3.5255,-2.77161l-2.02524,2.57612l4.40685,3.46451l-2.70031,3.43482l-6.16961,-4.85031l10.80128,-13.73924l-4.40685,-3.46451l6.7508,-8.58702zM244.63322,128.35756l3.5255,2.77161l2.70032,-3.43481l-3.5255,-2.7716z" fill="#fa3c3c" stroke="none" stroke-width="1" stroke-linejoin="miter"/></g><g><path d="M242.30618,146.11448l-2.66088,10.59388l-5.43676,-1.36555l-1.86261,7.41571l4.34942,1.09245l-0.53217,2.11878l-4.34942,-1.09244l-0.79826,3.17817l5.43676,1.36555l-1.06433,4.23755l-7.61148,-1.91177l4.25738,-16.9502l-5.43675,-1.36556l2.66088,-10.59387zM231.74473,151.34532l4.34942,1.09245l1.06434,-4.23755l-4.34942,-1.09244z" fill="none" stroke="#000000" stroke-width="4" stroke-linejoin="round"/><path d="M242.30618,146.11448l-2.66088,10.59388l-5.43676,-1.36555l-1.86261,7.41571l4.34942,1.09245l-0.53217,2.11878l-4.34942,-1.09244l-0.79826,3.17817l5.43676,1.36555l-1.06433,4.23755l-7.61148,-1.91177l4.25738,-16.9502l-5.43675,-1.36556l2.66088,-10.59387zM231.74473,151.34532l4.34942,1.09245l1.06434,-4.23755l-4.34942,-1.09244z" fill="#fa3c3c" stroke="none" stroke-width="1" stroke-linejoin="miter"/></g></g><path d="M243.30704,109.5696v-14h18v14z" fill="#000000" stroke="none" stroke-width="1" stroke-linejoin="miter"/><path d="M279.05704,109.5696v14h-42v-14h32v-3c0,-1.10457 0.89543,-2 2,-2h3c1.10457,0 2,0.89543 2,2v3z" fill="#b4004c" stroke="#000000" stroke-width="2" stroke-linejoin="miter"/><g><g stroke="none" stroke-linejoin="miter"><path d="M279.05704,109.5696h-42v-22c0,-3.31371 2.68629,-6 6,-6h30c3.31371,0 6,2.68629 6,6z" fill="#9500ff" stroke-width="1"/><path d="M280.05704,110.5696h-44v-23c0,-3.86599 3.13401,-7 7,-7h30c3.86599,0 7,3.13401 7,7zM238.05704,108.5696h40v-21c0,-2.76143 -2.23858,-5 -5,-5h-30c-2.76143,0 -5,2.23857 -5,5z" fill="#000000" stroke-width="1"/><path d="M238.01062,87.55103c0,-2.76143 2.24721,-5.01418 5.00864,-5.01418h30.07557c2.76142,0 5.00864,2.25275 5.00864,5.01418l-0.0045,21.04582h-40.08384z" data-paper-data="{&quot;noHover&quot;:false,&quot;origItem&quot;:[&quot;Path&quot;,{&quot;applyMatrix&quot;:true,&quot;segments&quot;:[[219.75,164],[259.75,164],[[259.75,143],[0,0],[0,-2.76143]],[[254.75,138],[2.76142,0],[0,0]],[[224.75,138],[0,0],[-2.76143,0]],[[219.75,143],[0,-2.76143],[0,0]]],&quot;closed&quot;:true,&quot;fillColor&quot;:[0,0,0,1]}]}" fill="#b4004c" stroke-width="0.5"/></g><path d="M271.05704,101.5696h-10v-10l10,2z" fill="#ffffff" stroke="#ffffff" stroke-width="2" stroke-linejoin="round"/><path d="M265.05704,100.5696v-6h6v6z" fill="#000000" stroke="none" stroke-width="1" stroke-linejoin="miter"/></g><g data-paper-data="{&quot;index&quot;:null}"><g><path d="M252.34476,113.18459l-7.23945,8.17929l-4.1976,-3.71527l-5.0676,5.72551l3.3581,2.97222l-1.44789,1.63586l-3.3581,-2.97222l-2.17184,2.45379l4.1976,3.71528l-2.89577,3.27171l-5.87666,-5.20139l11.5831,-13.08687l-4.1976,-3.71527l7.23945,-8.17929zM240.56098,112.96567l3.3581,2.97223l2.89578,-3.27171l-3.3581,-2.97223z" fill="none" stroke="#000000" stroke-width="4" stroke-linejoin="round"/><path d="M252.34476,113.18459l-7.23945,8.17929l-4.1976,-3.71527l-5.0676,5.72551l3.3581,2.97222l-1.44789,1.63586l-3.3581,-2.97222l-2.17184,2.45379l4.1976,3.71528l-2.89577,3.27171l-5.87666,-5.20139l11.5831,-13.08687l-4.1976,-3.71527l7.23945,-8.17929zM240.56098,112.96567l3.3581,2.97223l2.89578,-3.27171l-3.3581,-2.97223z" fill="#fa3c3c" stroke="none" stroke-width="1" stroke-linejoin="miter"/></g><g><path d="M239.07142,130.57525l-4.10712,10.12135l-5.19428,-2.10776l-2.87497,7.08495l4.15544,1.68621l-0.82142,2.02427l-4.15544,-1.68621l-1.23213,3.03642l5.19428,2.10777l-1.64283,4.04855l-7.272,-2.95087l6.57136,-16.19419l-5.19428,-2.10777l4.10711,-10.12136zM227.88559,134.2878l4.15544,1.68621l1.64284,-4.04855l-4.15543,-1.6862z" fill="none" stroke="#000000" stroke-width="4" stroke-linejoin="round"/><path d="M239.07142,130.57525l-4.10712,10.12135l-5.19428,-2.10776l-2.87497,7.08495l4.15544,1.68621l-0.82142,2.02427l-4.15544,-1.68621l-1.23213,3.03642l5.19428,2.10777l-1.64283,4.04855l-7.272,-2.95087l6.57136,-16.19419l-5.19428,-2.10777l4.10711,-10.12136zM227.88559,134.2878l4.15544,1.68621l1.64284,-4.04855l-4.15543,-1.6862z" fill="#fa3c3c" stroke="none" stroke-width="1" stroke-linejoin="miter"/></g><g><path d="M230.56991,151.99423l0.37875,10.91636l-5.60227,0.19438l0.26513,7.64145l4.48182,-0.1555l0.07575,2.18327l-4.48182,0.1555l0.11363,3.27492l5.60227,-0.19438l0.15152,4.36654l-7.84318,0.27214l-0.60602,-17.46617l-5.60226,0.19437l-0.37875,-10.91635zM221.8714,159.94671l4.48182,-0.1555l-0.15151,-4.36654l-4.48182,0.15551z" fill="none" stroke="#000000" stroke-width="4" stroke-linejoin="round"/><path d="M230.56991,151.99423l0.37875,10.91636l-5.60227,0.19438l0.26513,7.64145l4.48182,-0.1555l0.07575,2.18327l-4.48182,0.1555l0.11363,3.27492l5.60227,-0.19438l0.15152,4.36654l-7.84318,0.27214l-0.60602,-17.46617l-5.60226,0.19437l-0.37875,-10.91635zM221.8714,159.94671l4.48182,-0.1555l-0.15151,-4.36654l-4.48182,0.15551z" fill="#fa3c3c" stroke="none" stroke-width="1" stroke-linejoin="miter"/></g></g></g></g></svg>