<svg version="1.1" xmlns="http://www.w3.org/2000/svg" xmlns:xlink="http://www.w3.org/1999/xlink" width="65.33334" height="160.41664" viewBox="0,0,65.33334,160.41664"><g transform="translate(-207.83333,-179.58336)"><g data-paper-data="{&quot;isPaintingLayer&quot;:true}" fill-rule="nonzero" stroke-linecap="butt" stroke-miterlimit="10" stroke-dasharray="" stroke-dashoffset="0" style="mix-blend-mode: normal"><g><path d="M232.51937,305.00002v-125.41666h15.6279v125.41667z" fill="#000000" stroke="none" stroke-width="NaN" stroke-linejoin="miter"/><path d="M229.83332,293.50001v-13h21v13z" fill="#000000" stroke="none" stroke-width="0" stroke-linejoin="miter"/><path d="M229.83332,273.50001v-13h21v13z" fill="#000000" stroke="none" stroke-width="0" stroke-linejoin="miter"/><path d="M229.83332,248.50001v-13h21v13z" fill="#000000" stroke="none" stroke-width="0" stroke-linejoin="miter"/><path d="M229.83332,228.50001v-13h21v13z" fill="#000000" stroke="none" stroke-width="0" stroke-linejoin="miter"/><path d="M229.83332,203.50001v-13h21v13z" fill="#000000" stroke="none" stroke-width="0" stroke-linejoin="miter"/><g><path d="M246.67876,325.50617h10.85827l-5.42914,12.49383z" fill="none" stroke="#000000" stroke-width="4" stroke-linejoin="round"/><path d="M246.67876,325.50617h10.85827l-5.42914,12.49383z" fill="#b3b3b3" stroke="none" stroke-width="1" stroke-linejoin="miter"/></g><g><path d="M235.32074,325.50617h10.85827l-5.42914,12.49383z" fill="none" stroke="#000000" stroke-width="4" stroke-linejoin="round"/><path d="M235.32074,325.50617h10.85827l-5.42914,12.49383z" fill="#b3b3b3" stroke="none" stroke-width="1" stroke-linejoin="miter"/></g><g><path d="M223.95135,325.50617h10.86963l-5.42914,12.49383z" fill="none" stroke="#000000" stroke-width="4" stroke-linejoin="round"/><path d="M223.95135,325.50617h10.86963l-5.42914,12.49383z" fill="#b3b3b3" stroke="none" stroke-width="1" stroke-linejoin="miter"/></g><g><path d="M234.32123,289.1605h-10.85827l5.42914,-12.49383z" fill="none" stroke="#000000" stroke-width="4" stroke-linejoin="round"/><path d="M234.32123,289.1605h-10.85827l5.42914,-12.49383z" fill="#b3b3b3" stroke="none" stroke-width="1" stroke-linejoin="miter"/></g><g><path d="M245.67926,289.1605h-10.85827l5.42914,-12.49383z" fill="none" stroke="#000000" stroke-width="4" stroke-linejoin="round"/><path d="M245.67926,289.1605h-10.85827l5.42914,-12.49383z" fill="#b3b3b3" stroke="none" stroke-width="1" stroke-linejoin="miter"/></g><g><path d="M257.03728,289.1605h-10.85827l5.42914,-12.49383z" fill="none" stroke="#000000" stroke-width="4" stroke-linejoin="round"/><path d="M257.03728,289.1605h-10.85827l5.42914,-12.49383z" fill="#b3b3b3" stroke="none" stroke-width="1" stroke-linejoin="miter"/></g><g><path d="M222.32716,313.51211v10.85827l-12.49383,-5.42914z" fill="none" stroke="#000000" stroke-width="4" stroke-linejoin="round"/><path d="M222.32716,313.51211v10.85827l-12.49383,-5.42914z" fill="#b3b3b3" stroke="none" stroke-width="1" stroke-linejoin="miter"/></g><g><path d="M222.32716,302.15406v10.85827l-12.49383,-5.42914z" fill="none" stroke="#000000" stroke-width="4" stroke-linejoin="round"/><path d="M222.32716,302.15406v10.85827l-12.49383,-5.42914z" fill="#b3b3b3" stroke="none" stroke-width="1" stroke-linejoin="miter"/></g><g><path d="M222.32716,290.78469v10.86963l-12.49383,-5.42914z" fill="none" stroke="#000000" stroke-width="4" stroke-linejoin="round"/><path d="M222.32716,290.78469v10.86963l-12.49383,-5.42914z" fill="#b3b3b3" stroke="none" stroke-width="1" stroke-linejoin="miter"/></g><g><path d="M258.67284,301.15458v-10.85827l12.49383,5.42914z" fill="none" stroke="#000000" stroke-width="4" stroke-linejoin="round"/><path d="M258.67284,301.15458v-10.85827l12.49383,5.42914z" fill="#b3b3b3" stroke="none" stroke-width="1" stroke-linejoin="miter"/></g><g><path d="M258.67284,312.51258v-10.85827l12.49383,5.42914z" fill="none" stroke="#000000" stroke-width="4" stroke-linejoin="round"/><path d="M258.67284,312.51258v-10.85827l12.49383,5.42914z" fill="#b3b3b3" stroke="none" stroke-width="1" stroke-linejoin="miter"/></g><g><path d="M258.67284,323.87063v-10.85827l12.49383,5.42914z" fill="none" stroke="#000000" stroke-width="4" stroke-linejoin="round"/><path d="M258.67284,323.87063v-10.85827l12.49383,5.42914z" fill="#b3b3b3" stroke="none" stroke-width="1" stroke-linejoin="miter"/></g><g><path d="M222.32716,325.50617v-36.34568h36.34568v36.34568z" fill="none" stroke="#000000" stroke-width="4" stroke-linejoin="round"/><path d="M222.32716,325.50617v-36.34568h36.34568v36.34568z" fill="#39b54a" stroke="none" stroke-width="1" stroke-linejoin="miter"/></g><path d="M232.54938,315.28395v-15.90123h15.90123v15.90123z" fill="#3ac54d" stroke="none" stroke-width="1" stroke-linejoin="miter"/></g></g></g></svg>