<svg version="1.1" xmlns="http://www.w3.org/2000/svg" xmlns:xlink="http://www.w3.org/1999/xlink" width="44.00664" height="28.49239" viewBox="0,0,44.00664,28.49239"><g transform="translate(-207.49335,-151.45992)"><g data-paper-data="{&quot;isPaintingLayer&quot;:true}" fill-rule="nonzero" stroke-linecap="butt" stroke-miterlimit="10" stroke-dasharray="" stroke-dashoffset="0" style="mix-blend-mode: normal"><g><path d="M248.5,161.2377l-5,-1.11111l3.88889,-6.66667z" fill="none" stroke="#000000" stroke-width="4" stroke-linejoin="round"/><path d="M248.5,161.2377l-5,-1.11111l3.88889,-6.66667z" fill="#b3b3b3" stroke="none" stroke-width="1" stroke-linejoin="miter"/></g><g><path d="M235.33333,160.43532h9c3.31371,0 6,2.14264 6,4.78571v6.38095h-21v-6.38095c0,-2.64308 2.68629,-4.78571 6,-4.78571z" fill="#00a99d" stroke="#000000" stroke-width="2" stroke-linejoin="miter"/><path d="M240.33333,168.41151v-3.9881h5v3.9881z" fill="#ffffff" stroke="#ffffff" stroke-width="2" stroke-linejoin="round"/><path d="M242.33333,167.61389v-2.39286h3v2.39286z" fill="#000000" stroke="none" stroke-width="1" stroke-linejoin="miter"/></g><path d="M232.33333,170.80437c0,0 0,-7.31532 0,-8.67773c0,-0.14368 0.51409,-0.45962 1.27108,-0.66146c0.30091,-0.08023 0.6803,-0.11045 1.01991,-0.15341c1.30141,-0.16463 2.70901,-0.00857 2.70901,-0.00857v9.50116z" fill="#008279" stroke="none" stroke-width="1" stroke-linejoin="miter"/><path d="M208.5,178.94762c-0.43874,0.2169 21,-7.16667 21,-7.16667h21v7c0,0 -41.70622,0.02143 -42,0.16667z" fill="#007169" stroke="#000000" stroke-width="2" stroke-linejoin="miter"/></g></g></svg>