<svg version="1.1" xmlns="http://www.w3.org/2000/svg" xmlns:xlink="http://www.w3.org/1999/xlink" width="171.64026" height="138.33309" viewBox="0,0,171.64026,138.33309"><g transform="translate(-161.92974,-100.68692)"><g data-paper-data="{&quot;isPaintingLayer&quot;:true}" fill="none" fill-rule="nonzero" stroke-linecap="round" stroke-linejoin="round" stroke-miterlimit="10" stroke-dasharray="" stroke-dashoffset="0" style="mix-blend-mode: normal"><g data-paper-data="{&quot;index&quot;:null}"><path d="M184.72146,235.02001l22.92758,-130.33309l35.99242,37.42216" stroke="#000000" stroke-width="8"/><path d="M184.72146,235.02001l22.92758,-130.33309l35.99242,37.42216" stroke="#9bb39b" stroke-width="4"/></g><g data-paper-data="{&quot;index&quot;:null}"><path d="M242.84194,142.10908l40.69,-37.42216l25.92,130.33309" stroke="#000000" stroke-width="8"/><path d="M242.84194,142.10908l40.69,-37.42216l25.92,130.33309" stroke="#9bb39b" stroke-width="4"/></g><g><path d="M165.92974,235.02l25.92,-130.33308l40.69,37.42215" stroke="#000000" stroke-width="8"/><path d="M165.92974,235.02l25.92,-130.33308l40.69,37.42215" stroke="#9bb39b" stroke-width="4"/></g><g><path d="M254.07,157.52001l37.5,-37.5l38,115" stroke="#000000" stroke-width="8"/><path d="M254.07,157.52001l37.5,-37.5l38,115" stroke="#9bb39b" stroke-width="4"/></g><g data-paper-data="{&quot;index&quot;:null}"><path d="M242.84194,142.10908l20.345,-37.42216l12.96,130.33309" stroke="#000000" stroke-width="8"/><path d="M242.84194,142.10908l20.345,-37.42216l12.96,130.33309" stroke="#9bb39b" stroke-width="4"/></g></g></g></svg>