<svg version="1.1" xmlns="http://www.w3.org/2000/svg" xmlns:xlink="http://www.w3.org/1999/xlink" width="55.41003" height="72.34167" viewBox="0,0,55.41003,72.34167"><g transform="translate(-212.14393,-138.65834)"><g data-paper-data="{&quot;isPaintingLayer&quot;:true}" fill-rule="nonzero" stroke-width="0" stroke-linecap="butt" stroke-miterlimit="10" stroke-dasharray="" stroke-dashoffset="0" style="mix-blend-mode: normal"><path d="M234.20424,211.00001v-28.19436h11.49852v28.19436z" data-paper-data="{&quot;index&quot;:null}" fill="#c4a639" stroke="none" stroke-linejoin="round"/><path d="M261.82146,185.02505c-0.23778,1.41198 -1.29361,2.5307 -2.3471,2.3393c-4.67755,-0.84983 -38.43857,-6.98361 -46.14628,-8.38396c-1.00224,-0.18209 -1.38412,-1.35213 -1.08491,-3.12879c1.31385,-7.80175 4.92903,-29.26883 5.72152,-33.97459c0.29949,-1.77839 1.14925,-3.38665 2.15149,-3.20456c7.70771,1.40035 41.46874,7.53415 46.14628,8.38397c1.05349,0.1914 1.59234,2.14251 1.11784,4.96014c-1.53772,9.13105 -4.87844,28.96829 -5.55882,33.00849z" data-paper-data="{&quot;index&quot;:null}" fill="#ae9332" stroke="none" stroke-linejoin="round"/><path d="M234.30221,177.14145c0.59071,-3.79927 3.60046,-23.15715 3.60046,-23.15715l9.11101,1.41658c0,0 -2.9667,19.08102 -3.57094,22.96733c-0.20553,1.32193 -1.99142,2.412 -3.07055,2.24422c-0.94465,-0.14688 -2.8644,-0.44535 -4.36569,-0.67877c-1.17134,-0.18213 -1.89711,-1.552 -1.70429,-2.7922z" data-paper-data="{&quot;index&quot;:null}" fill="#726121" stroke="#000000" stroke-linejoin="miter"/><path d="M230.10356,154.13252c-1.29943,-0.20203 -0.84676,-1.17923 0.25738,-1.93947c1.91097,-1.31576 8.09492,-5.57366 11.4068,-7.85401c1.28719,-0.88629 2.73483,-0.70704 3.64235,0.46395c2.48508,3.20651 7.3189,9.44364 8.73088,11.26551c0.75921,0.9796 0.04916,1.80898 -1.44968,1.57595c-3.43247,-0.53369 -17.27709,-2.68623 -22.58771,-3.51192z" data-paper-data="{&quot;index&quot;:null}" fill="#726121" stroke="none" stroke-linejoin="miter"/></g></g></svg>