<svg version="1.1" xmlns="http://www.w3.org/2000/svg" xmlns:xlink="http://www.w3.org/1999/xlink" width="66" height="185.41657" viewBox="0,0,66,185.41657"><g transform="translate(-207,-27.58343)"><g data-paper-data="{&quot;isPaintingLayer&quot;:true}" fill-rule="nonzero" stroke-linecap="butt" stroke-miterlimit="10" stroke-dasharray="" stroke-dashoffset="0" style="mix-blend-mode: normal"><path d="M209.00001,149h62v62l-11.67,-1l-9.88,1l-4.7,-1l-18.91,1l-6.09,-1l-10.75,1z" fill="none" stroke="#000000" stroke-width="4" stroke-linejoin="round"/><path d="M226.23257,153.00009v-125.41666h27.53488v125.41667z" fill="#000000" stroke="none" stroke-width="NaN" stroke-linejoin="miter"/><path d="M239.58799,203.72375l31.41202,6.7763l-11.67,-1l-9.88,1l-4.7,-1l-18.91,1l-6.09,-1l-10.75,1z" fill="none" stroke="#000000" stroke-width="4" stroke-linejoin="round"/><path d="M209.00001,149h62v62l-11.67,-1l-9.88,1l-4.7,-1l-18.91,1l-6.09,-1l-10.75,1z" fill="#343434" stroke="none" stroke-width="1" stroke-linejoin="miter"/><path d="M218.00001,157.5h44v44l-18,-2l-9,-3l-10,4l-7,1z" fill="#737373" stroke="none" stroke-width="1" stroke-linejoin="miter"/><path d="M236.00001,211.50005l-2,-13l4,-6" fill="none" stroke="#000000" stroke-width="2" stroke-linejoin="round"/><path d="M262.00001,202.0001h-44l-0.19117,-25.51744l22.19117,13.57391l21.80883,-13.57391z" fill="#ffffff" stroke="none" stroke-width="1" stroke-linejoin="miter"/><path d="M224.00001,201.12706v-9h9v9z" fill="#000000" stroke="none" stroke-width="1" stroke-linejoin="miter"/><path d="M247.00001,201.12706v-9h9v9z" fill="#000000" stroke="none" stroke-width="1" stroke-linejoin="miter"/><path d="M244.00001,202.50005l2,2l-1,6" fill="none" stroke="#000000" stroke-width="2" stroke-linejoin="round"/><path d="M226.00001,211.50005l-1,-4" fill="none" stroke="#000000" stroke-width="2" stroke-linejoin="round"/><path d="M260.00001,206.50005l-1,4" fill="none" stroke="#000000" stroke-width="2" stroke-linejoin="round"/><path d="M217.55001,210.50005l1.02,-4" fill="none" stroke="#000000" stroke-width="2" stroke-linejoin="round"/><path d="M221.50001,141.5v-13h37v13z" fill="#000000" stroke="none" stroke-width="0" stroke-linejoin="miter"/><path d="M221.50001,121.50011v-13h37v13z" fill="#000000" stroke="none" stroke-width="0" stroke-linejoin="miter"/><path d="M221.50001,96.50011v-13h37v13z" fill="#000000" stroke="none" stroke-width="0" stroke-linejoin="miter"/><path d="M221.50001,76.50002v-13h37v13z" fill="#000000" stroke="none" stroke-width="0" stroke-linejoin="miter"/><path d="M221.50001,51.50012v-13h37v13z" fill="#000000" stroke="none" stroke-width="0" stroke-linejoin="miter"/></g></g></svg>