<svg version="1.1" xmlns="http://www.w3.org/2000/svg" xmlns:xlink="http://www.w3.org/1999/xlink" width="269.07286" height="95.40061" viewBox="0,0,269.07286,95.40061"><g transform="translate(-105.91162,-134.35)"><g data-paper-data="{&quot;isPaintingLayer&quot;:true}" fill-rule="nonzero" stroke-linecap="butt" stroke-linejoin="miter" stroke-miterlimit="10" stroke-dasharray="" stroke-dashoffset="0" style="mix-blend-mode: normal"><text transform="translate(108.57105,217.89251) scale(0.88648,0.79054)" font-size="40" xml:space="preserve" fill="#000000" fill-rule="nonzero" stroke="#ffffff" stroke-width="6" stroke-linecap="butt" stroke-linejoin="miter" stroke-miterlimit="10" stroke-dasharray="" stroke-dashoffset="0" font-family="Sans Serif" font-weight="normal" text-anchor="start" style="mix-blend-mode: normal"><tspan x="0" dy="0">I SAW AND EGG</tspan></text><path d="M337.61,169.68c3.40499,1.07717 6.93346,1.71566 10.5,1.9c3.07,0 4,-0.85 4,-2.29c0,-1.44 -1,-2.28 -3.91,-2.28h-4.8v-11.35h4.76c2.93,0 3.91,-0.78 3.91,-2.28c0,-1.5 -1,-2.29 -4,-2.29c-3.11636,0.14231 -6.20314,0.66965 -9.19,1.57v-13.44c3.58,-1.89 9.39,-2.87 14.15,-2.87c10.77,0 19.05,5.15 19.05,13.31c0,5.28 -3.46,8.67 -8.48,9.65v0.13c5.28,1.37 9,4.83 9,10.9c0,9.59 -9.33,14.67 -21.26,14.67c-4.68229,0.05197 -9.33913,-0.69542 -13.77,-2.21z" fill="none" stroke="#ffffff" stroke-width="4"/><path d="M337.61,169.68c3.40499,1.07717 6.93346,1.71566 10.5,1.9c3.07,0 4,-0.85 4,-2.29c0,-1.44 -1,-2.28 -3.91,-2.28h-4.8v-11.35h4.76c2.93,0 3.91,-0.78 3.91,-2.28c0,-1.5 -1,-2.29 -4,-2.29c-3.11636,0.14231 -6.20314,0.66965 -9.19,1.57v-13.44c3.58,-1.89 9.39,-2.87 14.15,-2.87c10.77,0 19.05,5.15 19.05,13.31c0,5.28 -3.46,8.67 -8.48,9.65v0.13c5.28,1.37 9,4.83 9,10.9c0,9.59 -9.33,14.67 -21.26,14.67c-4.68229,0.05197 -9.33913,-0.69542 -13.77,-2.21z" fill="#000000" stroke="none" stroke-width="1"/><path d="M109.39,137.09956h19.44v30.46h14.61v16.77h-34z" fill="none" stroke="#ffffff" stroke-width="4"/><path d="M148.52,137.09956h34v15.78h-14.56v2.55h11.74v11.22h-11.74v2.67h15.46v15h-34.9z" fill="none" stroke="#ffffff" stroke-width="4"/><path d="M185.77,137.09956h21l7,25h0.13l7.44,-25h19l-18.07,47.23h-18.43z" fill="none" stroke="#ffffff" stroke-width="4"/><path d="M243.56,137.09956h34v15.78h-14.56v2.55h11.74v11.22h-11.74v2.67h15.46v15h-34.9z" fill="none" stroke="#ffffff" stroke-width="4"/><path d="M283.28999,137.09956h19.44v30.46h14.61v16.77h-34.05z" fill="none" stroke="#ffffff" stroke-width="4"/><path d="M109.39,137.09956h19.44v30.46h14.61v16.77h-34z" fill="#000000" stroke="none" stroke-width="1"/><path d="M148.52,137.09956h34v15.78h-14.56v2.55h11.74v11.22h-11.74v2.67h15.46v15h-34.9z" fill="#000000" stroke="none" stroke-width="1"/><path d="M185.77,137.09956h21l7,25h0.13l7.44,-25h19l-18.07,47.23h-18.43z" fill="#000000" stroke="none" stroke-width="1"/><path d="M243.56,137.09956h34v15.78h-14.56v2.55h11.74v11.22h-11.74v2.67h15.46v15h-34.9z" fill="#000000" stroke="none" stroke-width="1"/><path d="M283.28999,137.09956h19.44v30.46h14.61v16.77h-34.05z" fill="#000000" stroke="none" stroke-width="1"/><text transform="translate(108.57105,217.89251) scale(0.88648,0.79054)" font-size="40" xml:space="preserve" fill="#000000" fill-rule="nonzero" stroke="#000000" stroke-width="3" stroke-linecap="butt" stroke-linejoin="miter" stroke-miterlimit="10" stroke-dasharray="" stroke-dashoffset="0" font-family="Sans Serif" font-weight="normal" text-anchor="start" style="mix-blend-mode: normal"><tspan x="0" dy="0">I SAW AND EGG</tspan></text></g></g></svg>