<svg version="1.1" xmlns="http://www.w3.org/2000/svg" xmlns:xlink="http://www.w3.org/1999/xlink" width="74.56223" height="83.05227" viewBox="0,0,74.56223,83.05227"><g transform="translate(-190.72275,-97.40451)"><g data-paper-data="{&quot;isPaintingLayer&quot;:true}" fill-rule="nonzero" stroke-linecap="butt" stroke-miterlimit="10" stroke-dasharray="" stroke-dashoffset="0" style="mix-blend-mode: normal"><path d="M224.28404,166.27083v-27.04554h21.06202v27.04554z" fill="#000000" stroke="none" stroke-width="1" stroke-linejoin="miter"/><path d="M219.77572,179.45678l-3.89215,-12.55271l48.02768,0.53465l-3.92623,12.01804z" fill="#ff0000" stroke="#000000" stroke-width="2" stroke-linejoin="miter"/><g><path d="M227.95351,109.11003l-8.2682,0.08488l4.03649,-9.55088z" fill="none" stroke="#000000" stroke-width="4" stroke-linejoin="round"/><path d="M227.95351,109.11003l-8.2682,0.08488l4.03649,-9.55088z" fill="#b3b3b3" stroke="none" stroke-width="1" stroke-linejoin="miter"/></g><g><path d="M239.95287,108.98685l-8.2682,0.08488l4.03649,-9.55088z" fill="none" stroke="#000000" stroke-width="4" stroke-linejoin="round"/><path d="M239.95287,108.98685l-8.2682,0.08488l4.03649,-9.55088z" fill="#b3b3b3" stroke="none" stroke-width="1" stroke-linejoin="miter"/></g><g><path d="M251.28561,108.87052l-8.2682,0.08488l4.03649,-9.55088z" fill="none" stroke="#000000" stroke-width="4" stroke-linejoin="round"/><path d="M251.28561,108.87052l-8.2682,0.08488l4.03649,-9.55088z" fill="#b3b3b3" stroke="none" stroke-width="1" stroke-linejoin="miter"/></g><g data-paper-data="{&quot;index&quot;:null}"><path d="M204.42007,110.51289l10.30035,1.18968l-4.14518,7.15457z" fill="none" stroke="#000000" stroke-width="4" stroke-linejoin="round"/><path d="M204.42007,110.51289l10.30035,1.18968l-4.14518,7.15457z" fill="#b3b3b3" stroke="none" stroke-width="1" stroke-linejoin="miter"/></g><g data-paper-data="{&quot;index&quot;:null}"><path d="M198.40431,120.89608l10.30035,1.18968l-4.14518,7.15457z" fill="none" stroke="#000000" stroke-width="4" stroke-linejoin="round"/><path d="M198.40431,120.89608l10.30035,1.18968l-4.14518,7.15457z" fill="#b3b3b3" stroke="none" stroke-width="1" stroke-linejoin="miter"/></g><g data-paper-data="{&quot;index&quot;:null}"><path d="M192.72275,130.70242l10.30035,1.18968l-4.14518,7.15458z" fill="none" stroke="#000000" stroke-width="4" stroke-linejoin="round"/><path d="M192.72275,130.70242l10.30035,1.18968l-4.14518,7.15458z" fill="#b3b3b3" stroke="none" stroke-width="1" stroke-linejoin="miter"/></g><path d="M216.22713,156.56215l-17.56985,-15.47936l18.04432,-31.16419l36.57209,-0.13379l4.77265,22.81423z" fill="#ab0000" stroke="#000000" stroke-width="2" stroke-linejoin="miter"/><g><path d="M241.06986,131.37935l-4.82304,-8.27l9.16562,-3.28734l3.92742,6.7343z" fill="#ffffff" stroke="#ffffff" stroke-width="2" stroke-linejoin="round"/><path d="M243.41325,127.79614l-2.89383,-4.96201l4.96201,-2.89382l2.89382,4.962z" fill="#000000" stroke="none" stroke-width="1" stroke-linejoin="miter"/></g></g></g></svg>