<svg version="1.1" xmlns="http://www.w3.org/2000/svg" xmlns:xlink="http://www.w3.org/1999/xlink" width="272.4666" height="86.14163" viewBox="0,0,272.4666,86.14163"><g transform="translate(-104.9734,-134.7099)"><g data-paper-data="{&quot;isPaintingLayer&quot;:true}" fill-rule="nonzero" stroke-linecap="butt" stroke-linejoin="miter" stroke-miterlimit="10" stroke-dasharray="" stroke-dashoffset="0" style="mix-blend-mode: normal"><path d="M339.82,149.48991l9.65,-12.78h20.36l-12.59,15.2c0.72,-0.07 1.43,-0.13 2.09,-0.13c9.06,0 16.11,6.26 16.11,15.33c0,10.3 -9,17.54 -20.81,17.54c-11.35,0 -21.07,-6.72 -21.07,-18.72c0.02,-6.39 2.74,-11.74 6.26,-16.44zM354.43,169.97991c1.2205,0.06726 2.37821,-0.54564 3.00871,-1.59283c0.6305,-1.0472 0.6305,-2.35713 0,-3.40433c-0.6305,-1.0472 -1.78821,-1.6601 -3.00871,-1.59283c-1.74933,0.09641 -3.11841,1.54301 -3.11841,3.295c0,1.75199 1.36908,3.19859 3.11841,3.295z" fill="none" stroke="#ffffff" stroke-width="4"/><path d="M339.82,149.48991l9.65,-12.78h20.36l-12.59,15.2c0.72,-0.07 1.43,-0.13 2.09,-0.13c9.06,0 16.11,6.26 16.11,15.33c0,10.3 -9,17.54 -20.81,17.54c-11.35,0 -21.07,-6.72 -21.07,-18.72c0.02,-6.39 2.74,-11.74 6.26,-16.44zM354.43,169.97991c1.2205,0.06726 2.37821,-0.54564 3.00871,-1.59283c0.6305,-1.0472 0.6305,-2.35713 0,-3.40433c-0.6305,-1.0472 -1.78821,-1.6601 -3.00871,-1.59283c-1.74933,0.09641 -3.11841,1.54301 -3.11841,3.295c0,1.75199 1.36908,3.19859 3.11841,3.295z" fill="#000000" stroke="none" stroke-width="1"/><path d="M110.39,137.09956h19.44v30.46h14.61v16.77h-34z" fill="none" stroke="#ffffff" stroke-width="4"/><path d="M149.52,137.09956h34v15.78h-14.56v2.55h11.74v11.22h-11.74v2.67h15.46v15h-34.9z" fill="none" stroke="#ffffff" stroke-width="4"/><path d="M186.77,137.09956h21l7,25h0.13l7.44,-25h19l-18.07,47.23h-18.43z" fill="none" stroke="#ffffff" stroke-width="4"/><path d="M244.56,137.09956h34v15.78h-14.56v2.55h11.74v11.22h-11.74v2.67h15.46v15h-34.9z" fill="none" stroke="#ffffff" stroke-width="4"/><path d="M284.28999,137.09956h19.44v30.46h14.61v16.77h-34.05z" fill="none" stroke="#ffffff" stroke-width="4"/><path d="M110.39,137.09956h19.44v30.46h14.61v16.77h-34z" fill="#000000" stroke="none" stroke-width="1"/><path d="M149.52,137.09956h34v15.78h-14.56v2.55h11.74v11.22h-11.74v2.67h15.46v15h-34.9z" fill="#000000" stroke="none" stroke-width="1"/><path d="M186.77,137.09956h21l7,25h0.13l7.44,-25h19l-18.07,47.23h-18.43z" fill="#000000" stroke="none" stroke-width="1"/><path d="M244.56,137.09956h34v15.78h-14.56v2.55h11.74v11.22h-11.74v2.67h15.46v15h-34.9z" fill="#000000" stroke="none" stroke-width="1"/><path d="M284.28999,137.09956h19.44v30.46h14.61v16.77h-34.05z" fill="#000000" stroke="none" stroke-width="1"/><path d="M252.29408,200.41832h-5.70799v-8.65h19.82776v8.65h-5.69916v16.82h-8.42061z" fill="none" stroke="#ffffff" stroke-width="4"/><path d="M252.29408,200.41832h-5.70799v-8.65h19.82776v8.65h-5.69916v16.82h-8.42061z" fill="#000000" stroke="none" stroke-width="1"/><path d="M329.02378,191.50155h19.66871v8.51h-8.40294v1.38h6.78597v6h-6.78597v1.46h8.93309v8.09h-20.19886z" fill="none" stroke="#ffffff" stroke-width="4"/><path d="M329.02378,191.50155h19.66871v8.51h-8.40294v1.38h6.78597v6h-6.78597v1.46h8.93309v8.09h-20.19886z" fill="#000000" stroke="none" stroke-width="1"/><path d="M352.52851,191.26832h8.25273c4.23239,0 9.94038,1.37 9.94038,8c0.11415,2.35841 -0.76397,4.63898 -2.36802,6.15c0.22593,1.52476 1.45977,2.58848 2.81865,2.43c1.56452,-0.04614 3.069,-0.69126 4.26774,-1.83v9.28c-1.60791,1.20573 -3.49644,1.84275 -5.42524,1.83c-4.8244,0 -8.19088,-3.76 -9.01262,-8.83h-0.05302v8.45h-8.42061zM361.56763,202.52832c0.70547,0.17229 1.43261,-0.15823 1.8368,-0.83491c0.40419,-0.67667 0.40419,-1.56351 0,-2.24019c-0.40419,-0.67667 -1.13134,-1.00719 -1.8368,-0.83491h-0.61851v3.91z" fill="none" stroke="#ffffff" stroke-width="4"/><path d="M352.52851,191.26832h8.25273c4.23239,0 9.94038,1.37 9.94038,8c0.11415,2.35841 -0.76397,4.63898 -2.36802,6.15c0.22593,1.52476 1.45977,2.58848 2.81865,2.43c1.56452,-0.04614 3.069,-0.69126 4.26774,-1.83v9.28c-1.60791,1.20573 -3.49644,1.84275 -5.42524,1.83c-4.8244,0 -8.19088,-3.76 -9.01262,-8.83h-0.05302v8.45h-8.42061zM361.56763,202.52832c0.70547,0.17229 1.43261,-0.15823 1.8368,-0.83491c0.40419,-0.67667 0.40419,-1.56351 0,-2.24019c-0.40419,-0.67667 -1.13134,-1.00719 -1.8368,-0.83491h-0.61851v3.91z" fill="#000000" stroke="none" stroke-width="1"/><path d="M280.48013,192.62154c7.34304,0 13.0703,5.73 13.0703,13.11c0,7.38 -5.72726,13.12 -13.0703,13.12c-7.34304,0 -13.07789,-5.73 -13.07789,-13.12c0,-7.39 5.73485,-13.11 13.07789,-13.11zM280.48013,209.85155c2.00264,0 3.61842,-1.76 3.61842,-3.94c0,-2.18 -1.61577,-3.94 -3.61842,-3.94c-2.00264,0 -3.62601,1.76 -3.62601,3.94c0,2.18 1.61577,3.94 3.62601,3.94z" fill="none" stroke="#ffffff" stroke-width="4"/><path d="M280.48013,192.62154c7.34304,0 13.0703,5.73 13.0703,13.11c0,7.38 -5.72726,13.12 -13.0703,13.12c-7.34304,0 -13.07789,-5.73 -13.07789,-13.12c0,-7.39 5.73485,-13.11 13.07789,-13.11zM280.48013,209.85155c2.00264,0 3.61842,-1.76 3.61842,-3.94c0,-2.18 -1.61577,-3.94 -3.61842,-3.94c-2.00264,0 -3.62601,1.76 -3.62601,3.94c0,2.18 1.61577,3.94 3.62601,3.94z" fill="#000000" stroke="none" stroke-width="1"/><path d="M291.82754,191.62842h10.21047l2.27574,11.82h0.06069l1.95713,-11.82h6.45551l2.00264,11.82v0l2.34401,-11.82h9.24707l-6.82721,25.47h-8.42781l-1.99506,-9.92h-0.06069l-1.95713,9.92h-8.48091z" fill="none" stroke="#ffffff" stroke-width="4"/><path d="M291.82754,191.62842h10.21047l2.27574,11.82h0.06069l1.95713,-11.82h6.45551l2.00264,11.82v0l2.34401,-11.82h9.24707l-6.82721,25.47h-8.42781l-1.99506,-9.92h-0.06069l-1.95713,9.92h-8.48091z" fill="#000000" stroke="none" stroke-width="1"/><path d="M118.30235,191.92315h10.73773l10.40578,26.21698h-12.11298l-0.94167,-3.44309h-6.25973l-1.05684,3.44309h-11.15776zM124.5553,208.11025l-1.18555,-5.29156h-0.07452l-1.20588,5.3241z" fill="none" stroke="#ffffff" stroke-width="4"/><path d="M141.33596,191.92315h10.32448c6.55781,0 13.90824,1.80941 13.90824,9.30742c0,6.72998 -5.88035,9.45061 -12.62785,9.45061h-0.3726v7.45895h-11.23228zM152.85278,204.01629c1.92399,0 2.82501,-0.9763 2.82501,-2.20644c0,-1.23014 -0.94167,-2.21295 -2.82501,-2.21295h-0.29808v4.4194z" fill="none" stroke="#ffffff" stroke-width="4"/><path d="M168.00755,191.92315h10.32448c6.55781,0 13.90824,1.80941 13.90824,9.30742c0,6.72998 -5.88035,9.45061 -12.62785,9.45061h-0.37938v7.45895h-11.2255zM179.52436,204.01629c1.92399,0 2.82501,-0.9763 2.82501,-2.20644c0,-1.23014 -0.94167,-2.21295 -2.82501,-2.21295h-0.30486v4.4194z" fill="none" stroke="#ffffff" stroke-width="4"/><path d="M194.65204,191.92315h19.64633v8.76069h-8.41405v1.41238h6.7746v6.22881h-6.7746v1.48398h8.93569v8.33112h-20.16797z" fill="none" stroke="#ffffff" stroke-width="4"/><path d="M217.61114,191.92315h11.23228v16.92258h8.44115v9.30742h-19.64633z" fill="none" stroke="#ffffff" stroke-width="4"/><path d="M118.30235,191.92315h10.73773l10.40578,26.21698h-12.11298l-0.94167,-3.44309h-6.25973l-1.05684,3.44309h-11.15776zM124.5553,208.11025l-1.18555,-5.29156h-0.07452l-1.20588,5.3241z" fill="#000000" stroke="none" stroke-width="1"/><path d="M141.33596,191.92315h10.32448c6.55781,0 13.90824,1.80941 13.90824,9.30742c0,6.72998 -5.88035,9.45061 -12.62785,9.45061h-0.3726v7.45895h-11.23228zM152.85278,204.01629c1.92399,0 2.82501,-0.9763 2.82501,-2.20644c0,-1.23014 -0.94167,-2.21295 -2.82501,-2.21295h-0.29808v4.4194z" fill="#000000" stroke="none" stroke-width="1"/><path d="M168.00755,191.92315h10.32448c6.55781,0 13.90824,1.80941 13.90824,9.30742c0,6.72998 -5.88035,9.45061 -12.62785,9.45061h-0.37938v7.45895h-11.2255zM179.52436,204.01629c1.92399,0 2.82501,-0.9763 2.82501,-2.20644c0,-1.23014 -0.94167,-2.21295 -2.82501,-2.21295h-0.30486v4.4194z" fill="#000000" stroke="none" stroke-width="1"/><path d="M194.65204,191.92315h19.64633v8.76069h-8.41405v1.41238h6.7746v6.22881h-6.7746v1.48398h8.93569v8.33112h-20.16797z" fill="#000000" stroke="none" stroke-width="1"/><path d="M217.61114,191.92315h11.23228v16.92258h8.44115v9.30742h-19.64633z" fill="#000000" stroke="none" stroke-width="1"/></g></g></svg>