<svg version="1.1" xmlns="http://www.w3.org/2000/svg" xmlns:xlink="http://www.w3.org/1999/xlink" width="89.00798" height="53.27726" viewBox="0,0,89.00798,53.27726"><g transform="translate(-195.49601,-128.62504)"><g data-paper-data="{&quot;isPaintingLayer&quot;:true}" fill-rule="nonzero" stroke-linecap="butt" stroke-miterlimit="10" stroke-dasharray="" stroke-dashoffset="0" style="mix-blend-mode: normal"><g data-paper-data="{&quot;index&quot;:null}"><g><path d="M279.83701,147.98445l-18.15854,2.59498l0.56056,-7.7772z" fill="none" stroke="#000000" stroke-width="4" stroke-linejoin="round"/><path d="M279.83701,147.98445l-18.15854,2.59498l0.56056,-7.7772z" fill="#b3b3b3" stroke="none" stroke-width="1" stroke-linejoin="miter"/></g><g><path d="M263.00829,143.61144l-8.09181,16.46175l-6.10804,-4.84674z" fill="none" stroke="#000000" stroke-width="4" stroke-linejoin="round"/><path d="M263.00829,143.61144l-8.09181,16.46175l-6.10804,-4.84674z" fill="#b3b3b3" stroke="none" stroke-width="1" stroke-linejoin="miter"/></g></g><g data-paper-data="{&quot;index&quot;:null}"><g><path d="M282.50399,175.41784l-13.31987,-12.61141l6.44067,-4.39508z" fill="none" stroke="#000000" stroke-width="4" stroke-linejoin="round"/><path d="M282.50399,175.41784l-13.31987,-12.61141l6.44067,-4.39508z" fill="#b3b3b3" stroke="none" stroke-width="1" stroke-linejoin="miter"/></g><g><path d="M275.46905,159.51692l-17.925,3.89371v-7.79738z" fill="none" stroke="#000000" stroke-width="4" stroke-linejoin="round"/><path d="M275.46905,159.51692l-17.925,3.89371v-7.79738z" fill="#b3b3b3" stroke="none" stroke-width="1" stroke-linejoin="miter"/></g></g><g data-paper-data="{&quot;index&quot;:null}"><g><path d="M282.31743,166.88762l-17.75358,-4.61269l3.51808,-6.9586z" fill="none" stroke="#000000" stroke-width="4" stroke-linejoin="round"/><path d="M282.31743,166.88762l-17.75358,-4.61269l3.51808,-6.9586z" fill="#b3b3b3" stroke="none" stroke-width="1" stroke-linejoin="miter"/></g><g><path d="M268.47936,156.35971l-13.81713,12.06456l-3.76484,-6.82826z" fill="none" stroke="#000000" stroke-width="4" stroke-linejoin="round"/><path d="M268.47936,156.35971l-13.81713,12.06456l-3.76484,-6.82826z" fill="#b3b3b3" stroke="none" stroke-width="1" stroke-linejoin="miter"/></g></g><g><g><path d="M210.92024,149.11591l4.24598,6.53993l-17.1546,6.49509z" fill="none" stroke="#000000" stroke-width="4" stroke-linejoin="round"/><path d="M210.92024,149.11591l4.24598,6.53993l-17.1546,6.49509z" fill="#b3b3b3" stroke="none" stroke-width="1" stroke-linejoin="miter"/></g><g><path d="M228.6804,153.51122l-3.00872,7.19352l-15.03438,-10.50876z" fill="none" stroke="#000000" stroke-width="4" stroke-linejoin="round"/><path d="M228.6804,153.51122l-3.00872,7.19352l-15.03438,-10.50876z" fill="#b3b3b3" stroke="none" stroke-width="1" stroke-linejoin="miter"/></g></g><g><g><path d="M212.46162,148.65239l3.05287,7.17489l-18.01848,3.43524z" fill="none" stroke="#000000" stroke-width="4" stroke-linejoin="round"/><path d="M212.46162,148.65239l3.05287,7.17489l-18.01848,3.43524z" fill="#b3b3b3" stroke="none" stroke-width="1" stroke-linejoin="miter"/></g><g><path d="M229.196,156.04852l-4.2057,6.5659l-12.99386,-12.94705z" fill="none" stroke="#000000" stroke-width="4" stroke-linejoin="round"/><path d="M229.196,156.04852l-4.2057,6.5659l-12.99386,-12.94705z" fill="#b3b3b3" stroke="none" stroke-width="1" stroke-linejoin="miter"/></g></g><g><g><path d="M211.84577,162.89581l6.44067,4.39508l-13.31987,12.61141z" fill="none" stroke="#000000" stroke-width="4" stroke-linejoin="round"/><path d="M211.84577,162.89581l6.44067,4.39508l-13.31987,12.61141z" fill="#b3b3b3" stroke="none" stroke-width="1" stroke-linejoin="miter"/></g><g><path d="M229.9265,160.09774v7.79738l-17.925,-3.89371z" fill="none" stroke="#000000" stroke-width="4" stroke-linejoin="round"/><path d="M229.9265,160.09774v7.79738l-17.925,-3.89371z" fill="#b3b3b3" stroke="none" stroke-width="1" stroke-linejoin="miter"/></g></g><g><path d="M247.90709,148.55004h-15.59475l7.78742,-17.925z" fill="none" stroke="#000000" stroke-width="4" stroke-linejoin="round"/><path d="M247.90709,148.55004h-15.59475l7.78742,-17.925z" fill="#b3b3b3" stroke="none" stroke-width="1" stroke-linejoin="miter"/></g><path d="M248.84317,176.43338h-15.93333c-4.39987,0 -7.96667,-3.5668 -7.96667,-7.96667v-15.93333c0,-4.39987 3.5668,-7.96667 7.96667,-7.96667h15.93333c4.39987,0 7.96667,3.5668 7.96667,7.96667v15.93333c0,4.39987 -3.5668,7.96667 -7.96667,7.96667z" fill="#fbff00" stroke="#000000" stroke-width="2" stroke-linejoin="miter"/><g data-paper-data="{&quot;index&quot;:null}"><path d="M243.10971,165.49582v-9.99156h10.08823v9.99156z" fill="#ffffff" stroke="#ffffff" stroke-width="2" stroke-linejoin="round"/><path d="M247.145,163.49752v-5.99494h6.05294v5.99494z" fill="#000000" stroke="none" stroke-width="1" stroke-linejoin="miter"/></g><g data-paper-data="{&quot;index&quot;:null}"><g fill="none" stroke="none" stroke-width="1" stroke-linejoin="miter" font-family="sans-serif" font-weight="normal" font-size="12" text-anchor="start"/><g fill="none" stroke="none" stroke-width="1" stroke-linejoin="miter" font-family="sans-serif" font-weight="normal" font-size="12" text-anchor="start"/><g fill="none" stroke="none" stroke-width="1" stroke-linejoin="miter" font-family="sans-serif" font-weight="normal" font-size="12" text-anchor="start"/><g fill="none" stroke="none" stroke-width="1" stroke-linejoin="miter" font-family="sans-serif" font-weight="normal" font-size="12" text-anchor="start"/><g><path d="M228.38239,165.49582v-9.99156h10.08823v9.99156z" fill="#ffffff" stroke="#ffffff" stroke-width="2" stroke-linejoin="round"/><path d="M232.41768,163.49752v-5.99494h6.05294v5.99494z" fill="#000000" stroke="none" stroke-width="1" stroke-linejoin="miter"/></g></g></g></g></svg>