<svg version="1.1" xmlns="http://www.w3.org/2000/svg" xmlns:xlink="http://www.w3.org/1999/xlink" width="257.53867" height="108.84502" viewBox="0,0,257.53867,108.84502"><g transform="translate(-111.23065,-101.34584)"><g data-paper-data="{&quot;isPaintingLayer&quot;:true}" fill-rule="nonzero" stroke-miterlimit="10" stroke-dasharray="" stroke-dashoffset="0" style="mix-blend-mode: normal"><g><g data-paper-data="{&quot;index&quot;:null}" fill="none" stroke-linecap="round" stroke-linejoin="round"><path d="M225.02892,184.73576l-61.42076,-22.27782l-3.75145,-27.16332" stroke="#000000" stroke-width="8"/><path d="M225.02892,184.73576l-61.42076,-22.27782l-3.75145,-27.16332" stroke="#9bb39b" stroke-width="4"/></g><g stroke-linecap="butt"><g><path d="M146.94968,111.25444v6.66889l-6.66888,-3.33444z" fill="none" stroke="#000000" stroke-width="4" stroke-linejoin="round"/><path d="M146.94968,111.25444v6.66889l-6.66888,-3.33444z" fill="#9bb39b" stroke="none" stroke-width="1" stroke-linejoin="miter"/></g><g data-paper-data="{&quot;index&quot;:null}"><path d="M181.50476,114.67506l-6.66888,3.33444v-6.66888z" fill="none" stroke="#000000" stroke-width="4" stroke-linejoin="round"/><path d="M181.50476,114.67506l-6.66888,3.33444v-6.66888z" fill="#9bb39b" stroke="none" stroke-width="1" stroke-linejoin="miter"/></g><g><path d="M166.51988,137.55625h6.66888l-3.33444,6.66888z" fill="none" stroke="#000000" stroke-width="4" stroke-linejoin="round"/><path d="M166.51988,137.55625h6.66888l-3.33444,6.66888z" fill="#9bb39b" stroke="none" stroke-width="1" stroke-linejoin="miter"/></g><g><path d="M148.18047,137.55625h6.66888l-3.33444,6.66888z" fill="none" stroke="#000000" stroke-width="4" stroke-linejoin="round"/><path d="M148.18047,137.55625h6.66888l-3.33444,6.66888z" fill="#9bb39b" stroke="none" stroke-width="1" stroke-linejoin="miter"/></g><g><path d="M157.35018,137.55625h6.66888l-3.33444,6.66888z" fill="none" stroke="#000000" stroke-width="4" stroke-linejoin="round"/><path d="M157.35018,137.55625h6.66888l-3.33444,6.66888z" fill="#9bb39b" stroke="none" stroke-width="1" stroke-linejoin="miter"/></g><g><path d="M146.7846,129.66385v6.66888l-6.66888,-3.33444z" fill="none" stroke="#000000" stroke-width="4" stroke-linejoin="round"/><path d="M146.7846,129.66385v6.66888l-6.66888,-3.33444z" fill="#9bb39b" stroke="none" stroke-width="1" stroke-linejoin="miter"/></g><g><path d="M146.7846,120.49413v6.66889l-6.66888,-3.33444z" fill="none" stroke="#000000" stroke-width="4" stroke-linejoin="round"/><path d="M146.7846,120.49413v6.66889l-6.66888,-3.33444z" fill="#9bb39b" stroke="none" stroke-width="1" stroke-linejoin="miter"/></g><g data-paper-data="{&quot;index&quot;:null}"><path d="M181.33968,133.08446l-6.66888,3.33444v-6.66888z" fill="none" stroke="#000000" stroke-width="4" stroke-linejoin="round"/><path d="M181.33968,133.08446l-6.66888,3.33444v-6.66888z" fill="#9bb39b" stroke="none" stroke-width="1" stroke-linejoin="miter"/></g><g data-paper-data="{&quot;index&quot;:null}"><path d="M181.33968,123.91475l-6.66888,3.33444v-6.66889z" fill="none" stroke="#000000" stroke-width="4" stroke-linejoin="round"/><path d="M181.33968,123.91475l-6.66888,3.33444v-6.66889z" fill="#9bb39b" stroke="none" stroke-width="1" stroke-linejoin="miter"/></g><g><path d="M154.93552,110.01472h-6.66888l3.33444,-6.66888z" fill="none" stroke="#000000" stroke-width="4" stroke-linejoin="round"/><path d="M154.93552,110.01472h-6.66888l3.33444,-6.66888z" fill="#9bb39b" stroke="none" stroke-width="1" stroke-linejoin="miter"/></g><g><path d="M173.27493,110.01472h-6.66888l3.33444,-6.66888z" fill="none" stroke="#000000" stroke-width="4" stroke-linejoin="round"/><path d="M173.27493,110.01472h-6.66888l3.33444,-6.66888z" fill="#9bb39b" stroke="none" stroke-width="1" stroke-linejoin="miter"/></g><g><path d="M164.10522,110.01472h-6.66888l3.33444,-6.66888z" fill="none" stroke="#000000" stroke-width="4" stroke-linejoin="round"/><path d="M164.10522,110.01472h-6.66888l3.33444,-6.66888z" fill="#9bb39b" stroke="none" stroke-width="1" stroke-linejoin="miter"/></g><g><path d="M147.72615,136.72264v-25.84191h25.84192v25.84192z" fill="none" stroke="#000000" stroke-width="4" stroke-linejoin="round"/><path d="M147.72615,136.72264v-25.84191h25.84192v25.84192z" fill="#03d100" stroke="none" stroke-width="1" stroke-linejoin="miter"/></g><path d="M153.64711,130.80168v-14h14v14z" fill="#04ff00" stroke="none" stroke-width="1" stroke-linejoin="miter"/></g><g data-paper-data="{&quot;index&quot;:null}" fill="none" stroke-linecap="round" stroke-linejoin="round"><path d="M320.14329,135.29462l-3.75145,27.16332l-61.42076,22.27782" stroke="#000000" stroke-width="8"/><path d="M320.14329,135.29462l-3.75145,27.16332l-61.42076,22.27782" stroke="#9bb39b" stroke-width="4"/></g><g data-paper-data="{&quot;index&quot;:null}" stroke-linecap="butt"><g><path d="M339.7192,114.58889l-6.66888,3.33444v-6.66889z" fill="none" stroke="#000000" stroke-width="4" stroke-linejoin="round"/><path d="M339.7192,114.58889l-6.66888,3.33444v-6.66889z" fill="#9bb39b" stroke="none" stroke-width="1" stroke-linejoin="miter"/></g><g data-paper-data="{&quot;index&quot;:null}"><path d="M305.16411,111.34062v6.66888l-6.66888,-3.33444z" fill="none" stroke="#000000" stroke-width="4" stroke-linejoin="round"/><path d="M305.16411,111.34062v6.66888l-6.66888,-3.33444z" fill="#9bb39b" stroke="none" stroke-width="1" stroke-linejoin="miter"/></g><g><path d="M310.14567,144.22513l-3.33445,-6.66888h6.66889z" fill="none" stroke="#000000" stroke-width="4" stroke-linejoin="round"/><path d="M310.14567,144.22513l-3.33445,-6.66888h6.66889z" fill="#9bb39b" stroke="none" stroke-width="1" stroke-linejoin="miter"/></g><g><path d="M328.48509,144.22513l-3.33444,-6.66888h6.66888z" fill="none" stroke="#000000" stroke-width="4" stroke-linejoin="round"/><path d="M328.48509,144.22513l-3.33444,-6.66888h6.66888z" fill="#9bb39b" stroke="none" stroke-width="1" stroke-linejoin="miter"/></g><g><path d="M319.31538,144.22513l-3.33444,-6.66888h6.66888z" fill="none" stroke="#000000" stroke-width="4" stroke-linejoin="round"/><path d="M319.31538,144.22513l-3.33444,-6.66888h6.66888z" fill="#9bb39b" stroke="none" stroke-width="1" stroke-linejoin="miter"/></g><g><path d="M339.88428,132.99829l-6.66888,3.33444v-6.66888z" fill="none" stroke="#000000" stroke-width="4" stroke-linejoin="round"/><path d="M339.88428,132.99829l-6.66888,3.33444v-6.66888z" fill="#9bb39b" stroke="none" stroke-width="1" stroke-linejoin="miter"/></g><g><path d="M339.88428,123.82858l-6.66888,3.33444v-6.66889z" fill="none" stroke="#000000" stroke-width="4" stroke-linejoin="round"/><path d="M339.88428,123.82858l-6.66888,3.33444v-6.66889z" fill="#9bb39b" stroke="none" stroke-width="1" stroke-linejoin="miter"/></g><g data-paper-data="{&quot;index&quot;:null}"><path d="M305.3292,129.75002v6.66888l-6.66888,-3.33444z" fill="none" stroke="#000000" stroke-width="4" stroke-linejoin="round"/><path d="M305.3292,129.75002v6.66888l-6.66888,-3.33444z" fill="#9bb39b" stroke="none" stroke-width="1" stroke-linejoin="miter"/></g><g data-paper-data="{&quot;index&quot;:null}"><path d="M305.3292,120.5803v6.66889l-6.66888,-3.33444z" fill="none" stroke="#000000" stroke-width="4" stroke-linejoin="round"/><path d="M305.3292,120.5803v6.66889l-6.66888,-3.33444z" fill="#9bb39b" stroke="none" stroke-width="1" stroke-linejoin="miter"/></g><g><path d="M328.39892,103.34584l3.33445,6.66888h-6.66888z" fill="none" stroke="#000000" stroke-width="4" stroke-linejoin="round"/><path d="M328.39892,103.34584l3.33445,6.66888h-6.66888z" fill="#9bb39b" stroke="none" stroke-width="1" stroke-linejoin="miter"/></g><g><path d="M310.05951,103.34584l3.33444,6.66888h-6.66888z" fill="none" stroke="#000000" stroke-width="4" stroke-linejoin="round"/><path d="M310.05951,103.34584l3.33444,6.66888h-6.66888z" fill="#9bb39b" stroke="none" stroke-width="1" stroke-linejoin="miter"/></g><g><path d="M319.2292,103.34584l3.33444,6.66888h-6.66888z" fill="none" stroke="#000000" stroke-width="4" stroke-linejoin="round"/><path d="M319.2292,103.34584l3.33444,6.66888h-6.66888z" fill="#9bb39b" stroke="none" stroke-width="1" stroke-linejoin="miter"/></g><g><path d="M306.43192,136.72264v-25.84191h25.84192v25.84192z" fill="none" stroke="#000000" stroke-width="4" stroke-linejoin="round"/><path d="M306.43192,136.72264v-25.84191h25.84192v25.84192z" fill="#03d100" stroke="none" stroke-width="1" stroke-linejoin="miter"/></g><path d="M312.35289,130.80168v-14h14v14z" fill="#04ff00" stroke="none" stroke-width="1" stroke-linejoin="miter"/></g></g><g><g data-paper-data="{&quot;index&quot;:null}" fill="none" stroke-linecap="round" stroke-linejoin="round"><path d="M343.37078,185.56208l-18.0658,20.62877l-63.55448,-15.15387" stroke="#000000" stroke-width="8"/><path d="M343.37078,185.56208l-18.0658,20.62877l-63.55448,-15.15387" stroke="#9bb39b" stroke-width="4"/></g><g data-paper-data="{&quot;index&quot;:null}" stroke-linecap="butt"><g><path d="M366.60426,165.05219l-6.66888,3.33444v-6.66888z" fill="none" stroke="#000000" stroke-width="4" stroke-linejoin="round"/><path d="M366.60426,165.05219l-6.66888,3.33444v-6.66888z" fill="#9bb39b" stroke="none" stroke-width="1" stroke-linejoin="miter"/></g><g data-paper-data="{&quot;index&quot;:null}"><path d="M332.04918,161.80392v6.66888l-6.66888,-3.33444z" fill="none" stroke="#000000" stroke-width="4" stroke-linejoin="round"/><path d="M332.04918,161.80392v6.66888l-6.66888,-3.33444z" fill="#9bb39b" stroke="none" stroke-width="1" stroke-linejoin="miter"/></g><g><path d="M337.03072,194.68843l-3.33445,-6.66888h6.66888z" fill="none" stroke="#000000" stroke-width="4" stroke-linejoin="round"/><path d="M337.03072,194.68843l-3.33445,-6.66888h6.66888z" fill="#9bb39b" stroke="none" stroke-width="1" stroke-linejoin="miter"/></g><g><path d="M355.37014,194.68843l-3.33444,-6.66888h6.66888z" fill="none" stroke="#000000" stroke-width="4" stroke-linejoin="round"/><path d="M355.37014,194.68843l-3.33444,-6.66888h6.66888z" fill="#9bb39b" stroke="none" stroke-width="1" stroke-linejoin="miter"/></g><g><path d="M346.20043,194.68843l-3.33444,-6.66888h6.66888z" fill="none" stroke="#000000" stroke-width="4" stroke-linejoin="round"/><path d="M346.20043,194.68843l-3.33444,-6.66888h6.66888z" fill="#9bb39b" stroke="none" stroke-width="1" stroke-linejoin="miter"/></g><g><path d="M366.76933,183.46159l-6.66888,3.33444v-6.66888z" fill="none" stroke="#000000" stroke-width="4" stroke-linejoin="round"/><path d="M366.76933,183.46159l-6.66888,3.33444v-6.66888z" fill="#9bb39b" stroke="none" stroke-width="1" stroke-linejoin="miter"/></g><g><path d="M366.76933,174.29188l-6.66888,3.33444v-6.66889z" fill="none" stroke="#000000" stroke-width="4" stroke-linejoin="round"/><path d="M366.76933,174.29188l-6.66888,3.33444v-6.66889z" fill="#9bb39b" stroke="none" stroke-width="1" stroke-linejoin="miter"/></g><g data-paper-data="{&quot;index&quot;:null}"><path d="M332.21425,180.21332v6.66888l-6.66888,-3.33444z" fill="none" stroke="#000000" stroke-width="4" stroke-linejoin="round"/><path d="M332.21425,180.21332v6.66888l-6.66888,-3.33444z" fill="#9bb39b" stroke="none" stroke-width="1" stroke-linejoin="miter"/></g><g data-paper-data="{&quot;index&quot;:null}"><path d="M332.21425,171.0436v6.66889l-6.66888,-3.33444z" fill="none" stroke="#000000" stroke-width="4" stroke-linejoin="round"/><path d="M332.21425,171.0436v6.66889l-6.66888,-3.33444z" fill="#9bb39b" stroke="none" stroke-width="1" stroke-linejoin="miter"/></g><g><path d="M355.28397,153.80914l3.33445,6.66888h-6.66888z" fill="none" stroke="#000000" stroke-width="4" stroke-linejoin="round"/><path d="M355.28397,153.80914l3.33445,6.66888h-6.66888z" fill="#9bb39b" stroke="none" stroke-width="1" stroke-linejoin="miter"/></g><g><path d="M336.94456,153.80914l3.33444,6.66888h-6.66888z" fill="none" stroke="#000000" stroke-width="4" stroke-linejoin="round"/><path d="M336.94456,153.80914l3.33444,6.66888h-6.66888z" fill="#9bb39b" stroke="none" stroke-width="1" stroke-linejoin="miter"/></g><g><path d="M346.11426,153.80914l3.33444,6.66888h-6.66888z" fill="none" stroke="#000000" stroke-width="4" stroke-linejoin="round"/><path d="M346.11426,153.80914l3.33444,6.66888h-6.66888z" fill="#9bb39b" stroke="none" stroke-width="1" stroke-linejoin="miter"/></g><g><path d="M333.31699,187.18594v-25.84191h25.84191v25.84192z" fill="none" stroke="#000000" stroke-width="4" stroke-linejoin="round"/><path d="M333.31699,187.18594v-25.84191h25.84191v25.84192z" fill="#03d100" stroke="none" stroke-width="1" stroke-linejoin="miter"/></g><path d="M339.23795,181.26498v-14h14v14z" fill="#04ff00" stroke="none" stroke-width="1" stroke-linejoin="miter"/></g><g data-paper-data="{&quot;index&quot;:null}" fill="none" stroke-linecap="round" stroke-linejoin="round"><path d="M215.08105,191.03699l-63.55448,15.15387l-18.06579,-20.62877" stroke="#000000" stroke-width="8"/><path d="M215.08105,191.03699l-63.55448,15.15387l-18.06579,-20.62877" stroke="#9bb39b" stroke-width="4"/></g><g data-paper-data="{&quot;index&quot;:null}" stroke-linecap="butt"><g><path d="M120.06461,161.71774v6.66888l-6.66888,-3.33444z" fill="none" stroke="#000000" stroke-width="4" stroke-linejoin="round"/><path d="M120.06461,161.71774v6.66888l-6.66888,-3.33444z" fill="#9bb39b" stroke="none" stroke-width="1" stroke-linejoin="miter"/></g><g data-paper-data="{&quot;index&quot;:null}"><path d="M154.61969,165.13836l-6.66888,3.33444v-6.66888z" fill="none" stroke="#000000" stroke-width="4" stroke-linejoin="round"/><path d="M154.61969,165.13836l-6.66888,3.33444v-6.66888z" fill="#9bb39b" stroke="none" stroke-width="1" stroke-linejoin="miter"/></g><g><path d="M139.63483,188.01955h6.66889l-3.33445,6.66888z" fill="none" stroke="#000000" stroke-width="4" stroke-linejoin="round"/><path d="M139.63483,188.01955h6.66889l-3.33445,6.66888z" fill="#9bb39b" stroke="none" stroke-width="1" stroke-linejoin="miter"/></g><g><path d="M121.2954,188.01955h6.66888l-3.33444,6.66888z" fill="none" stroke="#000000" stroke-width="4" stroke-linejoin="round"/><path d="M121.2954,188.01955h6.66888l-3.33444,6.66888z" fill="#9bb39b" stroke="none" stroke-width="1" stroke-linejoin="miter"/></g><g><path d="M130.46512,188.01955h6.66888l-3.33444,6.66888z" fill="none" stroke="#000000" stroke-width="4" stroke-linejoin="round"/><path d="M130.46512,188.01955h6.66888l-3.33444,6.66888z" fill="#9bb39b" stroke="none" stroke-width="1" stroke-linejoin="miter"/></g><g><path d="M119.89954,180.12715v6.66888l-6.66888,-3.33444z" fill="none" stroke="#000000" stroke-width="4" stroke-linejoin="round"/><path d="M119.89954,180.12715v6.66888l-6.66888,-3.33444z" fill="#9bb39b" stroke="none" stroke-width="1" stroke-linejoin="miter"/></g><g><path d="M119.89954,170.95743v6.66889l-6.66888,-3.33444z" fill="none" stroke="#000000" stroke-width="4" stroke-linejoin="round"/><path d="M119.89954,170.95743v6.66889l-6.66888,-3.33444z" fill="#9bb39b" stroke="none" stroke-width="1" stroke-linejoin="miter"/></g><g data-paper-data="{&quot;index&quot;:null}"><path d="M154.45461,183.54776l-6.66888,3.33444v-6.66888z" fill="none" stroke="#000000" stroke-width="4" stroke-linejoin="round"/><path d="M154.45461,183.54776l-6.66888,3.33444v-6.66888z" fill="#9bb39b" stroke="none" stroke-width="1" stroke-linejoin="miter"/></g><g data-paper-data="{&quot;index&quot;:null}"><path d="M154.45461,174.37805l-6.66888,3.33444v-6.66888z" fill="none" stroke="#000000" stroke-width="4" stroke-linejoin="round"/><path d="M154.45461,174.37805l-6.66888,3.33444v-6.66888z" fill="#9bb39b" stroke="none" stroke-width="1" stroke-linejoin="miter"/></g><g><path d="M128.05046,160.47802h-6.66888l3.33445,-6.66888z" fill="none" stroke="#000000" stroke-width="4" stroke-linejoin="round"/><path d="M128.05046,160.47802h-6.66888l3.33445,-6.66888z" fill="#9bb39b" stroke="none" stroke-width="1" stroke-linejoin="miter"/></g><g><path d="M146.38986,160.47802h-6.66888l3.33444,-6.66888z" fill="none" stroke="#000000" stroke-width="4" stroke-linejoin="round"/><path d="M146.38986,160.47802h-6.66888l3.33444,-6.66888z" fill="#9bb39b" stroke="none" stroke-width="1" stroke-linejoin="miter"/></g><g><path d="M137.22017,160.47802h-6.66888l3.33444,-6.66888z" fill="none" stroke="#000000" stroke-width="4" stroke-linejoin="round"/><path d="M137.22017,160.47802h-6.66888l3.33444,-6.66888z" fill="#9bb39b" stroke="none" stroke-width="1" stroke-linejoin="miter"/></g><g><path d="M120.84109,187.18594v-25.84191h25.84191v25.84192z" fill="none" stroke="#000000" stroke-width="4" stroke-linejoin="round"/><path d="M120.84109,187.18594v-25.84191h25.84191v25.84192z" fill="#03d100" stroke="none" stroke-width="1" stroke-linejoin="miter"/></g><path d="M126.76204,181.26498v-14h14v14z" fill="#04ff00" stroke="none" stroke-width="1" stroke-linejoin="miter"/></g></g><g stroke-linecap="butt"><path d="M276.3,207h-72.6c-5.90945,0 -10.7,-4.79055 -10.7,-10.7v-11.64c-0.00144,-5.04951 3.53058,-9.41137 8.47,-10.46l36.3,-7.73c1.47051,-0.31002 2.98949,-0.31002 4.46,0l36.3,7.73c4.93942,1.04863 8.47145,5.41049 8.47,10.46v11.64c0,5.90945 -4.79055,10.7 -10.7,10.7z" fill="none" stroke="#000000" stroke-width="4" stroke-linejoin="round"/><path d="M276.3,207h-72.6c-5.90945,0 -10.7,-4.79055 -10.7,-10.7v-11.64c-0.00144,-5.04951 3.53058,-9.41137 8.47,-10.46l36.3,-7.73c1.47051,-0.31002 2.98949,-0.31002 4.46,0l36.3,7.73c4.93942,1.04863 8.47145,5.41049 8.47,10.46v11.64c0,5.90945 -4.79055,10.7 -10.7,10.7z" fill="#03d100" stroke="none" stroke-width="1" stroke-linejoin="miter"/></g><path d="M276,198l-36,-5l-37,5v-17l37.09,-7l35.91,7z" fill="#04ff00" stroke="none" stroke-width="1" stroke-linecap="butt" stroke-linejoin="miter"/><path d="M233,198v-25h14v25z" fill="#03ab00" stroke="none" stroke-width="1" stroke-linecap="butt" stroke-linejoin="miter"/><path d="M237,183v-6h6v6z" fill="#028000" stroke="none" stroke-width="1" stroke-linecap="butt" stroke-linejoin="miter"/><path d="M237,175v-6h6v6z" fill="#028000" stroke="none" stroke-width="1" stroke-linecap="butt" stroke-linejoin="miter"/><path d="M237,191v-6h6v6z" fill="#7d0000" stroke="none" stroke-width="1" stroke-linecap="butt" stroke-linejoin="miter"/><path d="M237,199v-6h6v6z" fill="#7d0000" stroke="none" stroke-width="1" stroke-linecap="butt" stroke-linejoin="miter"/><path d="M237,207v-6h6v6z" fill="#028000" stroke="none" stroke-width="1" stroke-linecap="butt" stroke-linejoin="miter"/><path d="M232,192c0,-4.41828 3.58172,-8 8,-8c4.41828,0 8,3.58172 8,8c0,4.41828 -3.58172,8 -8,8c-4.41828,0 -8,-3.58172 -8,-8z" fill="#98ff00" stroke="#000000" stroke-width="2" stroke-linecap="butt" stroke-linejoin="round"/><path d="M268,184v11l-22,-3" fill="none" stroke="#000000" stroke-width="2" stroke-linecap="butt" stroke-linejoin="round"/><path d="M258,198v-9" fill="none" stroke="#000000" stroke-width="2" stroke-linecap="butt" stroke-linejoin="round"/><path d="M240,208v-9" fill="none" stroke="#000000" stroke-width="2" stroke-linecap="butt" stroke-linejoin="round"/><path d="M234,192l-22,3v-11" fill="none" stroke="#000000" stroke-width="2" stroke-linecap="butt" stroke-linejoin="round"/><path d="M222,198v-9" fill="none" stroke="#000000" stroke-width="2" stroke-linecap="butt" stroke-linejoin="round"/></g></g></svg>