<svg version="1.1" xmlns="http://www.w3.org/2000/svg" xmlns:xlink="http://www.w3.org/1999/xlink" width="46.64554" height="70.19018" viewBox="0,0,46.64554,70.19018"><g transform="translate(-215.49516,-126.94285)"><g data-paper-data="{&quot;isPaintingLayer&quot;:true}" fill-rule="nonzero" stroke-linecap="butt" stroke-miterlimit="10" stroke-dasharray="" stroke-dashoffset="0" style="mix-blend-mode: normal"><path d="M225,165v-14h18v14z" fill="#000000" stroke="none" stroke-width="1" stroke-linejoin="miter"/><path d="M261,165v14h-42v-14h32v-3c0,-1.10457 0.89543,-2 2,-2h3c1.10457,0 2,0.89543 2,2v3z" fill="#0025ff" stroke="#000000" stroke-width="2" stroke-linejoin="miter"/><g><g stroke="none" stroke-linejoin="miter"><path d="M261.02069,154.99217l-41.65299,5.3878l-2.82218,-21.81823c-0.42509,-3.28633 1.89441,-6.29503 5.18074,-6.72012l29.75214,-3.84843c3.28633,-0.42509 6.29503,1.89441 6.72012,5.18074z" fill="#9500ff" stroke-width="1"/><path d="M262.1407,155.85563l-43.63647,5.64436l-2.95046,-22.80997c-0.49594,-3.83405 2.21015,-7.3442 6.0442,-7.84013l29.75214,-3.84843c3.83405,-0.49594 7.3442,2.21015 7.84013,6.0442zM220.23115,159.25996l39.66952,-5.13124l-2.6939,-20.8265c-0.35424,-2.73862 -2.86149,-4.67152 -5.60009,-4.31729l-29.75214,3.84843c-2.73862,0.35424 -4.67152,2.86148 -4.31729,5.60009z" fill="#000000" stroke-width="1"/><path d="M217.48895,138.42051c-0.35423,-2.73861 1.58541,-5.26072 4.32403,-5.61496l29.82617,-3.85865c2.7386,-0.35423 5.25657,1.59149 5.61081,4.33011l2.69591,20.87307l-39.75337,5.14159z" data-paper-data="{&quot;noHover&quot;:false,&quot;origItem&quot;:[&quot;Path&quot;,{&quot;applyMatrix&quot;:true,&quot;segments&quot;:[[220.23115,159.25996],[259.90067,154.12872],[[257.20677,133.30222],[0,0],[-0.35424,-2.73862]],[[251.60668,128.98493],[2.7386,-0.35423],[0,0]],[[221.85454,132.83336],[0,0],[-2.73862,0.35424]],[[217.53725,138.43345],[-0.35423,-2.73861],[0,0]]],&quot;closed&quot;:true,&quot;fillColor&quot;:[0,0,0,1]}]}" fill="#00a2ff" stroke-width="0.5"/></g><path d="M252.06054,148.08452l-9.91738,1.28281l-1.28281,-9.91738l10.17394,0.70067z" fill="#ffffff" stroke="#ffffff" stroke-width="2" stroke-linejoin="round"/><path d="M245.98183,147.86247l-0.76969,-5.95043l5.95043,-0.76969l0.76969,5.95043z" fill="#000000" stroke="none" stroke-width="1" stroke-linejoin="miter"/></g><path d="M247.72168,196.32085c0,0.63372 -0.93056,0.63372 -0.93056,0.63372l-0.43788,-0.01231c-3.70562,0.49435 -7.73355,-0.07122 -11.38122,-0.57221c-3.58327,-0.82036 -4.72968,-3.08518 -1.99906,-5.05157c-1.33414,-1.06745 -0.70021,-2.35681 0.76309,-3.44074c-3.01783,-0.85861 -3.16342,-3.38745 -0.33861,-4.87157c2.89615,-1.52161 9.56767,-1.81066 12.91211,-0.93385c0,0 0.864,0.23537 0.51839,0.82375c-0.34561,0.58839 -1.20959,0.35303 -1.20959,0.35303c-2.74774,-0.78765 -7.56324,-0.28002 -10.27873,0.42517c-2.16481,0.56217 -3.20809,2.79044 -0.45065,3.1439c0.21663,0 0.43308,0.00377 0.64942,0.01065c0.70933,-0.32996 1.47804,-0.61064 2.24746,-0.82002c1.73212,-0.39319 13.17968,-2.15224 10.41288,1.35541c-1.76659,2.23962 -8.64181,1.0513 -12.31823,0.76987c-1.45209,0.70582 -2.41645,1.60143 -1.35273,2.40304c4.28521,-1.54546 13.42118,-1.68019 14.07154,1.34717c-3.43783,0.88394 -9.04258,1.54995 -12.67603,0.66565c-0.6288,-0.15304 -1.16602,-0.32124 -1.61982,-0.50153c-1.30624,1.00958 -1.26444,2.55539 1.14622,3.09667c3.35087,0.45212 7.13673,1.02906 10.53854,0.55438l0.80286,-0.01231c0,0 0.93056,0 0.93056,0.63372zM236.14778,191.24711c0.13225,0.03835 0.2717,0.07619 0.41856,0.11345c2.32847,0.5908 5.31351,-0.10298 7.86211,-0.28481c-0.12134,-0.02133 -0.22,-0.03795 -0.28659,-0.04627c-2.39357,-0.29869 -5.13922,-0.14613 -7.51429,0.13977c-0.16489,0.01985 -0.32495,0.046 -0.47981,0.07785zM238.88733,187.09628c1.74256,0.1764 3.49219,0.33883 5.27323,0.14947c0.0498,-0.0053 2.77373,-0.4246 2.58843,-0.69738c-0.63888,-0.94056 -6.0394,0.15037 -7.86167,0.54791z" fill="#000000" stroke="none" stroke-width="0.5" stroke-linejoin="miter"/><path d="M228.83333,184.21486v-5.26724h22.33333v5.26724z" fill="#0025ff" stroke="#000000" stroke-width="2" stroke-linejoin="miter"/></g></g></svg>