<svg version="1.1" xmlns="http://www.w3.org/2000/svg" xmlns:xlink="http://www.w3.org/1999/xlink" width="78.66667" height="96.03881" viewBox="0,0,78.66667,96.03881"><g transform="translate(-201.26667,-114.8)"><g data-paper-data="{&quot;isPaintingLayer&quot;:true}" fill-rule="nonzero" stroke-linecap="butt" stroke-miterlimit="10" stroke-dasharray="" stroke-dashoffset="0" style="mix-blend-mode: normal"><g><path d="M207.50943,210.47171l17.49057,-93.67171l17.77087,92.80741" fill="none" stroke="#000000" stroke-width="4" stroke-linejoin="round"/><path d="M225,116.8l17.77078,92.80741c-7.88815,0.14457 -15.75017,0.63957 -23.7238,0.88105c-2.38324,0.07217 -5.8961,-0.40867 -9.14386,-0.24414c-0.08289,-0.00203 -0.16602,-0.00305 -0.2494,-0.00305c-0.73604,0 -1.45351,0.07952 -2.14429,0.23044z" fill="#b3b3b3" stroke="none" stroke-width="1" stroke-linejoin="miter"/></g><g><path d="M237.64519,209.74461l17.3548,-92.94461l17.86755,93.31228" fill="none" stroke="#000000" stroke-width="4" stroke-linejoin="round"/><path d="M255,116.8l17.86745,93.31228c-3.76227,-0.16086 -7.90361,0.44427 -11.05643,0.12899c-8.14782,-0.81478 -16.15491,-0.76908 -24.16582,-0.49666z" fill="#b3b3b3" stroke="none" stroke-width="1" stroke-linejoin="miter"/></g><g><g><path d="M203.26667,207h38.26667z" fill="none" stroke="#000000" stroke-width="4" stroke-linejoin="round"/><path d="M203.26667,207h38.26667z" fill="#b3b3b3" stroke="none" stroke-width="1" stroke-linejoin="miter"/></g><g><path d="M277.93334,207h-41.06667z" fill="none" stroke="#000000" stroke-width="4" stroke-linejoin="round"/><path d="M277.93334,207h-41.06667z" fill="#b3b3b3" stroke="none" stroke-width="1" stroke-linejoin="miter"/></g></g></g></g></svg>