<svg version="1.1" xmlns="http://www.w3.org/2000/svg" xmlns:xlink="http://www.w3.org/1999/xlink" width="66" height="50.96436" viewBox="0,0,66,50.96436"><g transform="translate(-207,-147.00006)"><g data-paper-data="{&quot;isPaintingLayer&quot;:true}" fill-rule="nonzero" stroke-linecap="butt" stroke-linejoin="miter" stroke-miterlimit="10" stroke-dasharray="" stroke-dashoffset="0" style="mix-blend-mode: normal"><path d="M209,181.00007v-32h62v32z" fill="#ce7ca7" stroke="#000000" stroke-width="4"/><path d="M212,163v-11h11v11z" fill="#a3457d" stroke="none" stroke-width="1"/><path d="M242,163v-11h11v11z" fill="#a3457d" stroke="none" stroke-width="1"/><path d="M227,163v-11h11v11z" fill="#bc6296" stroke="none" stroke-width="1"/><path d="M257,163v-11h11v11z" fill="#bc6296" stroke="none" stroke-width="1"/><path d="M212,178.00007v-11h11v11z" fill="#bc6296" stroke="none" stroke-width="1"/><path d="M242,178.00007v-11h11v11z" fill="#bc6296" stroke="none" stroke-width="1"/><path d="M227,178.00007v-11h11v11z" fill="#a3457d" stroke="none" stroke-width="1"/><path d="M257,178.00007v-11h11v11z" fill="#a3457d" stroke="none" stroke-width="1"/><path d="M256,195.96443h-2h-3h-6h-4h-2v-17h17z" fill="#ce7ca7" stroke="#000000" stroke-width="4"/><path d="M242,192.96443v-11h11v11z" fill="#a3457d" stroke="none" stroke-width="1"/></g></g></svg>