<svg version="1.1" xmlns="http://www.w3.org/2000/svg" xmlns:xlink="http://www.w3.org/1999/xlink" width="30.9522" height="37.06043" viewBox="0,0,30.9522,37.06043"><g transform="translate(-220.61064,-142.89414)"><g data-paper-data="{&quot;isPaintingLayer&quot;:true}" fill-rule="nonzero" stroke-linecap="butt" stroke-miterlimit="10" stroke-dasharray="" stroke-dashoffset="0" style="mix-blend-mode: normal"><g><path d="M246.63886,152.73288c1.17503,6.78907 -2.25475,10.42728 -7.1815,11.27999c-4.92675,0.85271 -9.37978,-1.42118 -10.55481,-8.21024c-1.04201,-6.02049 4.52901,-9.01444 7.82615,-7.55536c2.61497,-2.48233 8.86815,-1.53487 9.91016,4.48562z" fill="#ffff24" stroke="#000000" stroke-width="2" stroke-linejoin="round"/><path d="M237.35401,143.06469c0.21318,1.23169 -0.62532,5.18256 -0.62532,5.18256" fill="none" stroke="#000000" stroke-width="2" stroke-linejoin="round"/><path d="M230.51341,153.38244c-0.28256,-1.63258 0.81185,-3.18511 2.44443,-3.46768c1.63258,-0.28256 3.18511,0.81185 3.46768,2.44443c0.28256,1.63258 -0.81185,3.18511 -2.44443,3.46768c-1.63258,0.28256 -3.18511,-0.81185 -3.46768,-2.44443z" fill="#ffffff" stroke="none" stroke-width="1" stroke-linejoin="miter"/></g><g><path d="M229.72498,157.79771l-1.58109,5.49895l-5.53325,-4.56773z" fill="none" stroke="#000000" stroke-width="4" stroke-linejoin="round"/><path d="M229.72498,157.79771l-1.58109,5.49895l-5.53325,-4.56773z" fill="#b3b3b3" stroke="none" stroke-width="1" stroke-linejoin="miter"/></g><g><path d="M233.30765,154.50794l-5.04866,2.69246l-0.572,-7.15219z" fill="none" stroke="#000000" stroke-width="4" stroke-linejoin="round"/><path d="M233.30765,154.50794l-5.04866,2.69246l-0.572,-7.15219z" fill="#b3b3b3" stroke="none" stroke-width="1" stroke-linejoin="miter"/></g><g><path d="M249.56284,155.27152l-5.38438,-1.93566l4.91819,-5.22421z" fill="none" stroke="#000000" stroke-width="4" stroke-linejoin="round"/><path d="M249.56284,155.27152l-5.38438,-1.93566l4.91819,-5.22421z" fill="#b3b3b3" stroke="none" stroke-width="1" stroke-linejoin="miter"/></g><path d="M231.79205,171.65458v-7h11v7z" fill="#000000" stroke="none" stroke-width="1" stroke-linejoin="miter"/><path d="M229.49205,178.95458v-7h21v7z" fill="#828212" stroke="#000000" stroke-width="2" stroke-linejoin="miter"/><g><g stroke="none" stroke-linejoin="miter"><path d="M250.34368,166.31236l-20.89583,2.08907l-0.79583,-7.96032c-0.32964,-3.29727 2.07609,-6.23747 5.37336,-6.56711l8.95535,-0.89531c3.29727,-0.32964 6.23747,2.07609 6.56711,5.37336z" fill="#ff7800" stroke-width="1"/><path d="M251.4382,167.20792l-22.88591,2.28803l-0.89531,-8.95535c-0.38459,-3.84682 2.4221,-7.27705 6.26892,-7.66164l8.95535,-0.89531c3.84682,-0.38459 7.27705,2.4221 7.66164,6.26892zM230.34342,167.30691l18.90575,-1.89011l-0.69635,-6.96527c-0.27471,-2.74773 -2.72487,-4.75251 -5.4726,-4.4778l-8.95535,0.89531c-2.74773,0.27471 -4.75251,2.72487 -4.4778,5.4726z" fill="#000000" stroke-width="1"/><path d="M229.59709,160.34017c-0.27471,-2.74773 1.74615,-5.23319 4.49388,-5.5079l9.01327,-0.90241c2.74773,-0.27471 5.2225,1.76231 5.49721,4.51004l0.69265,6.99881l-18.99098,1.89778z" data-paper-data="{&quot;noHover&quot;:false,&quot;origItem&quot;:[&quot;Path&quot;,{&quot;applyMatrix&quot;:true,&quot;segments&quot;:[[230.34342,167.30691],[249.24917,165.4168],[[248.55282,158.45153],[0,0],[-0.27471,-2.74773]],[[243.08022,153.97373],[2.74773,-0.27471],[0,0]],[[234.12487,154.86904],[0,0],[-2.74773,0.27471]],[[229.64707,160.34164],[-0.27471,-2.74773],[0,0]]],&quot;closed&quot;:true,&quot;fillColor&quot;:[0,0,0,1]}]}" fill="#ffff24" stroke-width="0.5"/></g><path d="M239.99537,163.32699l-0.4974,-4.97519l4.97519,-0.4974l0.4974,4.97519z" fill="#ffffff" stroke="#ffffff" stroke-width="2" stroke-linejoin="round"/><path d="M241.88597,162.133l-0.29844,-2.98511l2.98511,-0.29844l0.29844,2.98511z" fill="#000000" stroke="none" stroke-width="1" stroke-linejoin="miter"/></g></g></g></svg>