<svg version="1.1" xmlns="http://www.w3.org/2000/svg" xmlns:xlink="http://www.w3.org/1999/xlink" width="480" height="301.5" viewBox="0,0,480,301.5"><g transform="translate(0,-59)"><g data-paper-data="{&quot;isPaintingLayer&quot;:true}" fill="#ffffff" fill-rule="nonzero" stroke="none" stroke-width="1" stroke-linecap="butt" stroke-linejoin="miter" stroke-miterlimit="10" stroke-dasharray="" stroke-dashoffset="0" style="mix-blend-mode: normal"><path d="M0,307.41196l0,45.07475c0,4.42562 4.77563,8.01329 10.66667,8.01329l469.33333,0v-61.10133l-469.33333,0c-5.89104,0 -10.66667,3.58767 -10.66667,8.01329zM10.66667,179.19934l469.33333,0v61.10133l-469.33333,0c-5.89104,0 -10.66667,-3.58767 -10.66666,-8.01329l0,-45.07475c0,-4.42562 4.77563,-8.01329 10.66667,-8.01329zM10.66667,59l469.33333,0v61.10133l-469.33333,0c-5.89104,0 -10.66667,-3.58767 -10.66667,-8.01329l0,-45.07475c0,-4.42562 4.77563,-8.01329 10.66667,-8.01329z"/></g></g></svg>