<svg version="1.1" xmlns="http://www.w3.org/2000/svg" xmlns:xlink="http://www.w3.org/1999/xlink" width="86.40525" height="36.56311" viewBox="0,0,86.40525,36.56311"><g transform="translate(-196.77081,-143.64364)"><g data-paper-data="{&quot;isPaintingLayer&quot;:true}" fill-rule="nonzero" stroke-linecap="butt" stroke-miterlimit="10" stroke-dasharray="" stroke-dashoffset="0" style="mix-blend-mode: normal"><g><path d="M253.06511,151.83184l-9.44316,-2.37905l10.90638,-3.61435z" fill="none" stroke="#000000" stroke-width="4" stroke-linejoin="round"/><path d="M253.06511,151.83184l-9.44316,-2.37905l10.90638,-3.61435z" fill="#b3b3b3" stroke="none" stroke-width="1" stroke-linejoin="miter"/></g><g><path d="M266.76966,155.28448l-9.44316,-2.37905l10.90638,-3.61435z" fill="none" stroke="#000000" stroke-width="4" stroke-linejoin="round"/><path d="M266.76966,155.28448l-9.44316,-2.37905l10.90638,-3.61435z" fill="#b3b3b3" stroke="none" stroke-width="1" stroke-linejoin="miter"/></g><g><path d="M279.71285,158.54531l-9.44316,-2.37905l10.90638,-3.61435z" fill="none" stroke="#000000" stroke-width="4" stroke-linejoin="round"/><path d="M279.71285,158.54531l-9.44316,-2.37905l10.90638,-3.61435z" fill="#b3b3b3" stroke="none" stroke-width="1" stroke-linejoin="miter"/></g><g data-paper-data="{&quot;index&quot;:null}"><path d="M225.41855,145.64365l10.90638,3.61436l-9.44317,2.37905z" fill="none" stroke="#000000" stroke-width="4" stroke-linejoin="round"/><path d="M225.41855,145.64365l10.90638,3.61436l-9.44317,2.37905z" fill="#b3b3b3" stroke="none" stroke-width="1" stroke-linejoin="miter"/></g><g data-paper-data="{&quot;index&quot;:null}"><path d="M211.71399,149.09629l10.90638,3.61435l-9.44317,2.37905z" fill="none" stroke="#000000" stroke-width="4" stroke-linejoin="round"/><path d="M211.71399,149.09629l10.90638,3.61435l-9.44317,2.37905z" fill="#b3b3b3" stroke="none" stroke-width="1" stroke-linejoin="miter"/></g><g data-paper-data="{&quot;index&quot;:null}"><path d="M198.77082,152.35712l10.90638,3.61435l-9.44318,2.37905z" fill="none" stroke="#000000" stroke-width="4" stroke-linejoin="round"/><path d="M198.77082,152.35712l10.90638,3.61435l-9.44318,2.37905z" fill="#b3b3b3" stroke="none" stroke-width="1" stroke-linejoin="miter"/></g><path d="M213.41972,179.20675l-5.11535,-7.29793l63.12151,0.31083l-5.16014,6.98709z" fill="#ff0000" stroke="#000000" stroke-width="2" stroke-linejoin="miter"/><path d="M208.33359,172.22851l-9.69818,-12.92004l41.11997,-10.36613l41.60921,10.64444l-9.68707,12.85554z" fill="#ab0000" stroke="#000000" stroke-width="2" stroke-linejoin="miter"/><g><path d="M253.21152,166.85752v-5.56595l12.58238,1.03357v4.53238z" fill="#ffffff" stroke="#ffffff" stroke-width="2" stroke-linejoin="round"/><path d="M258.24447,165.74432v-3.33957h7.54944v3.33957z" fill="#000000" stroke="none" stroke-width="1" stroke-linejoin="miter"/></g></g></g></svg>