<svg version="1.1" xmlns="http://www.w3.org/2000/svg" xmlns:xlink="http://www.w3.org/1999/xlink" width="52.38925" height="60.51021" viewBox="0,0,52.38925,60.51021"><g transform="translate(-213.80537,-153.80537)"><g data-paper-data="{&quot;isPaintingLayer&quot;:true}" fill-rule="nonzero" stroke-linejoin="miter" stroke-miterlimit="10" stroke-dasharray="" stroke-dashoffset="0" style="mix-blend-mode: normal"><path d="M221.04146,167.41033l-5.24958,-11.15398l11.95178,4.78511z" fill="#ff0000" stroke="#000000" stroke-width="2" stroke-linecap="butt"/><path d="M252.58968,161.04146l11.15398,-5.24958l-4.78511,11.95178z" fill="#ff0000" stroke="#000000" stroke-width="2" stroke-linecap="butt"/><path d="M258.95854,192.58968l5.24958,11.15398l-11.95178,-4.78511z" fill="#ff0000" stroke="#000000" stroke-width="2" stroke-linecap="butt"/><path d="M227.41033,198.95855l-11.15398,5.24958l4.78511,-11.95178z" fill="#ff0000" stroke="#000000" stroke-width="2" stroke-linecap="butt"/><g stroke-linecap="butt"><path d="M254.9,198h-29.8c-1.71208,0 -3.1,-1.38792 -3.1,-3.1v-29.8c0,-1.71208 1.38792,-3.1 3.1,-3.1h29.8c1.71208,0 3.1,1.38792 3.1,3.1v29.8c0,1.71208 -1.38792,3.1 -3.1,3.1z" fill="none" stroke="#000000" stroke-width="4"/><path d="M254.9,198h-29.8c-1.71208,0 -3.1,-1.38792 -3.1,-3.1v-29.8c0,-1.71208 1.38792,-3.1 3.1,-3.1h29.8c1.71208,0 3.1,1.38792 3.1,3.1v29.8c0,1.71208 -1.38792,3.1 -3.1,3.1z" fill="#ff0000" stroke="none" stroke-width="1"/></g><path d="M235.709,186.2c-1.49614,0 -2.709,0 -2.709,0v-14c0,0 1.21286,0 2.709,0h8.582c1.49614,0 2.709,0 2.709,0v14c0,0 -1.21286,0 -2.709,0z" fill="#000000" stroke="none" stroke-width="1" stroke-linecap="butt"/><g data-paper-data="{&quot;index&quot;:null}" stroke="#000000"><path d="M239.962,209.9351v-18" fill="none" stroke-width="2" stroke-linecap="round"/><path d="M240.04811,213.43254l-4.49042,-6.27506l8.76548,-0.21536z" fill="#000000" stroke-width="1" stroke-linecap="butt"/></g></g></g></svg>