<svg version="1.1" xmlns="http://www.w3.org/2000/svg" xmlns:xlink="http://www.w3.org/1999/xlink" width="272.71388" height="96.57606" viewBox="0,0,272.71388,96.57606"><g transform="translate(-102.26042,-134.33617)"><g data-paper-data="{&quot;isPaintingLayer&quot;:true}" fill-rule="nonzero" stroke-linecap="butt" stroke-linejoin="miter" stroke-miterlimit="10" stroke-dasharray="" stroke-dashoffset="0" style="mix-blend-mode: normal"><text transform="translate(108.22,219.05413) scale(0.79703,0.79054)" font-size="40" xml:space="preserve" fill="#000000" fill-rule="nonzero" stroke="#ffffff" stroke-width="6" stroke-linecap="butt" stroke-linejoin="miter" stroke-miterlimit="10" stroke-dasharray="" stroke-dashoffset="0" font-family="Sans Serif" font-weight="normal" text-anchor="start" style="mix-blend-mode: normal"><tspan x="0" dy="0">SLIPPERY SLOPES</tspan></text><path d="M342.80254,165.36617c3.66,-5.28 5.16,-7.63 5.16,-9.72c0,-2.61 -2.16,-3.65 -5,-3.65c-3.26,0 -7.37,1.37 -10.17,2.61v-14.62c5.06165,-2.37455 10.57913,-3.61999 16.17,-3.65c13.7,0 18.86,7.76 18.86,14.94c0,7.43 -5.61,13 -11.22,17.87l0.06,0.13h10.5v15h-37.21l-0.06,-0.13z" fill="none" stroke="#ffffff" stroke-width="4"/><path d="M342.80254,165.36617c3.66,-5.28 5.16,-7.63 5.16,-9.72c0,-2.61 -2.16,-3.65 -5,-3.65c-3.26,0 -7.37,1.37 -10.17,2.61v-14.62c5.06165,-2.37455 10.57913,-3.61999 16.17,-3.65c13.7,0 18.86,7.76 18.86,14.94c0,7.43 -5.61,13 -11.22,17.87l0.06,0.13h10.5v15h-37.21l-0.06,-0.13z" fill="#000000" stroke="none" stroke-width="1"/><path d="M104.26254,137.08573h19.44v30.46h14.61v16.77h-34z" fill="none" stroke="#ffffff" stroke-width="4"/><path d="M143.39254,137.08573h34v15.78h-14.56v2.55h11.74v11.22h-11.74v2.67h15.46v15h-34.9z" fill="none" stroke="#ffffff" stroke-width="4"/><path d="M180.64254,137.08573h21l7,25h0.13l7.44,-25h19l-18.07,47.23h-18.43z" fill="none" stroke="#ffffff" stroke-width="4"/><path d="M238.43254,137.08573h34v15.78h-14.56v2.55h11.74v11.22h-11.74v2.67h15.46v15h-34.9z" fill="none" stroke="#ffffff" stroke-width="4"/><path d="M278.16254,137.08573h19.44v30.46h14.61v16.77h-34.05z" fill="none" stroke="#ffffff" stroke-width="4"/><path d="M104.26254,137.08573h19.44v30.46h14.61v16.77h-34z" fill="#000000" stroke="none" stroke-width="1"/><path d="M143.39254,137.08573h34v15.78h-14.56v2.55h11.74v11.22h-11.74v2.67h15.46v15h-34.9z" fill="#000000" stroke="none" stroke-width="1"/><path d="M180.64254,137.08573h21l7,25h0.13l7.44,-25h19l-18.07,47.23h-18.43z" fill="#000000" stroke="none" stroke-width="1"/><path d="M238.43254,137.08573h34v15.78h-14.56v2.55h11.74v11.22h-11.74v2.67h15.46v15h-34.9z" fill="#000000" stroke="none" stroke-width="1"/><path d="M278.16254,137.08573h19.44v30.46h14.61v16.77h-34.05z" fill="#000000" stroke="none" stroke-width="1"/><text transform="translate(108.22,219.05413) scale(0.79702,0.79054)" font-size="40" xml:space="preserve" fill="#000000" fill-rule="nonzero" stroke="#000000" stroke-width="3" stroke-linecap="butt" stroke-linejoin="miter" stroke-miterlimit="10" stroke-dasharray="" stroke-dashoffset="0" font-family="Sans Serif" font-weight="normal" text-anchor="start" style="mix-blend-mode: normal"><tspan x="0" dy="0">SLIPPERY SLOPES</tspan></text></g></g></svg>