<svg version="1.1" xmlns="http://www.w3.org/2000/svg" xmlns:xlink="http://www.w3.org/1999/xlink" width="61.24276" height="61.16663" viewBox="0,0,61.24276,61.16663"><g transform="translate(-209.38086,-149.41668)"><g data-paper-data="{&quot;isPaintingLayer&quot;:true}" fill-rule="nonzero" stroke-linecap="butt" stroke-miterlimit="10" stroke-dasharray="" stroke-dashoffset="0" style="mix-blend-mode: normal"><path d="M211.41668,180c0,-15.78615 12.79721,-28.58332 28.58332,-28.58332c15.78615,0 28.58334,12.79721 28.58334,28.58332c0,15.78615 -12.79718,28.58332 -28.58334,28.58332c-15.78615,0 -28.58332,-12.79721 -28.58332,-28.58332z" fill="#ff0000" stroke="#000000" stroke-width="4" stroke-linejoin="miter"/><path d="M211.41668,180h57.16665c0,0 -0.03069,1.53861 -0.09088,2.296c-1.16938,14.71256 -13.4792,26.28731 -28.49245,26.28731c-15.09806,0 -27.4621,-11.70593 -28.5112,-26.53698c-0.04781,-0.67589 -0.07213,-2.04633 -0.07213,-2.04633z" fill="#00ff15" stroke="#000000" stroke-width="4" stroke-linejoin="miter"/><g><path d="M248.04442,176.46928v-10.26946h10.26946v10.26946z" fill="#ffffff" stroke="#ffffff" stroke-width="4" stroke-linejoin="round"/><path d="M252.1522,174.41539v-6.16168h6.16168v6.16168z" fill="#000000" stroke="none" stroke-width="1" stroke-linejoin="miter"/></g><g><path d="M222.37076,189.15691h10.26946v10.26946h-10.26946z" fill="#ffffff" stroke="#ffffff" stroke-width="4" stroke-linejoin="round"/><path d="M221.68614,192.92239h6.16168v6.16168h-6.16168z" fill="#000000" stroke="none" stroke-width="1" stroke-linejoin="miter"/></g></g></g></svg>