<svg version="1.1" xmlns="http://www.w3.org/2000/svg" xmlns:xlink="http://www.w3.org/1999/xlink" width="37.5" height="38.5" viewBox="0,0,37.5,38.5"><g transform="translate(-204.75,-156.75)"><g data-paper-data="{&quot;isPaintingLayer&quot;:true}" fill-rule="nonzero" stroke-linecap="butt" stroke-miterlimit="10" stroke-dasharray="" stroke-dashoffset="0" style="mix-blend-mode: normal"><g data-paper-data="{&quot;index&quot;:null}" stroke="#000000" stroke-width="0.5" stroke-linejoin="miter"><path d="M222,178h20v9c0,4.41828 -3.58172,8 -8,8h-21c-4.41828,0 -8,-3.58172 -8,-8v-22c0,-4.41828 3.58172,-8 8,-8h9zM234,191c2.20914,0 4,-1.79086 4,-4v-5h-20v-21h-5c-2.20914,0 -4,1.79086 -4,4v22c0,2.20914 1.79086,4 4,4z" fill="#000000"/><path d="M240,187c0,3.31371 -2.68629,6 -6,6h-21c-3.31371,0 -6,-2.68629 -6,-6v-22c0,-3.31371 2.68629,-6 6,-6h7v21h20z" fill="#9a00a8"/></g><path d="M237,183v5h-5v-5z" data-paper-data="{&quot;index&quot;:null}" fill="#ffffff" stroke="#ffffff" stroke-width="2" stroke-linejoin="round"/><path d="M237,183v3h-3v-3z" data-paper-data="{&quot;index&quot;:null}" fill="#000000" stroke="none" stroke-width="1" stroke-linejoin="miter"/><path d="M227,180v13h-5v-13z" data-paper-data="{&quot;index&quot;:null}" fill="#710082" stroke="none" stroke-width="1" stroke-linejoin="miter"/><path d="M217,193h-5l3,-13h5z" data-paper-data="{&quot;index&quot;:null}" fill="#710082" stroke="none" stroke-width="1" stroke-linejoin="miter"/><path d="M220,175h-13v-5h13z" data-paper-data="{&quot;index&quot;:null}" fill="#710082" stroke="none" stroke-width="1" stroke-linejoin="miter"/></g></g></svg>