<svg version="1.1" xmlns="http://www.w3.org/2000/svg" xmlns:xlink="http://www.w3.org/1999/xlink" width="331.92632" height="270.61868" viewBox="0,0,331.92632,270.61868"><g transform="translate(-76.79675,-33.43501)"><g data-paper-data="{&quot;isPaintingLayer&quot;:true}" fill-rule="nonzero" stroke-linecap="butt" stroke-linejoin="miter" stroke-miterlimit="10" stroke-dasharray="" stroke-dashoffset="0" style="mix-blend-mode: normal"><path d="M213.18903,254.35779l-70.92655,49.69591l44.9114,-91.12714l-110.37711,-18.24197l100.94911,-31.68779l-47.45214,-98.56427l72.62484,50.94083l29.57226,-79.02677l17.01058,243.4816z" fill="#ff9400" stroke="#d09f17" stroke-width="0"/><path d="M236.73766,86.44887l9.91357,164.30026l-22.77596,-24.39668l-39.42282,34.14901l19.96044,-61.00742l-63.90131,-13.28719l65.17185,-16.82203l-35.2706,-51.57068l47.33324,25.59597z" fill="#ffa959" stroke="none" stroke-width="1"/><path d="M248.62304,278.8709c0,0 -9.80367,-145.22086 -12.80487,-189.67739c-1.62721,-24.10367 -3.76418,-55.75849 -3.76418,-55.75849l38.49286,77.90576l65.05009,-57.10334l-32.69437,102.15608l105.82051,22.43937l-107.75668,28.00198l58.6526,86.49969l-78.47091,-43.01536z" fill="#ff9400" stroke="#d09f17" stroke-width="0"/><path d="M256.80933,140.65548l43.5391,-29.66304l-27.56045,54.38492l67.77056,10.87555l-61.97463,18.91945l29.1488,58.81428l-44.59688,-30.3923l-19.13512,26.27324l-10.26236,-167.21345z" fill="#ffa959" stroke="none" stroke-width="1"/><path d="M255.40836,218.3423l-18.48645,45.90819l-6.88661,-57.64632l-58.55571,25.66042l38.4794,-46.63863l-53.44655,-32.42419l50.66274,1.76762l-10.46306,-47.06989l84.0276,111.32662z" fill="#ff0000" stroke="#d09f17" stroke-width="0"/><path d="M214.36041,130.57502l55.95175,75.61044l-18.51277,-4.58804l-8.24124,28.64327l-9.45151,-35.44314l-34.74964,13.54987l25.97489,-28.36816l-32.96633,-13.71053l30.64948,-2.49061z" fill="#ff5a5a" stroke="none" stroke-width="1"/><path d="M280.02064,219.04131c0,0 -49.95314,-66.50565 -65.24532,-86.86504c-8.29119,-11.03857 -19.17983,-25.53527 -19.17983,-25.53527l42.71695,25.32085l13.36315,-47.62499l16.17568,59.12184l57.68118,-22.22983l-42.88888,46.99466l55.05172,23.1547l-50.99309,3.85058z" fill="#ff0000" stroke="#d09f17" stroke-width="0"/><path d="M240.86791,150.28482l11.61096,-27.77731l3.74724,34.63946l35.85145,-15.91088l-23.78976,28.37644l32.29139,19.08804l-30.83351,-0.6596l-0.97784,18.54825l-57.0267,-76.89716z" fill="#ff5a5a" stroke="none" stroke-width="1"/></g></g></svg>