<svg version="1.1" xmlns="http://www.w3.org/2000/svg" xmlns:xlink="http://www.w3.org/1999/xlink" width="46.36842" height="48.01694" viewBox="0,0,46.36842,48.01694"><defs><radialGradient cx="239.95639" cy="153.93068" r="22" gradientUnits="userSpaceOnUse" id="color-1"><stop offset="0" stop-color="#ff0000" stop-opacity="0.59608"/><stop offset="1" stop-color="#ff0000" stop-opacity="0"/></radialGradient></defs><g transform="translate(-215.58798,-131.93068)"><g data-paper-data="{&quot;isPaintingLayer&quot;:true}" fill-rule="nonzero" stroke-linecap="butt" stroke-miterlimit="10" stroke-dasharray="" stroke-dashoffset="0" style="mix-blend-mode: normal"><path d="M236.43411,166.38479v-4.56209h7.04458v4.56209z" fill="#ff0000" stroke="#000000" stroke-width="2" stroke-linejoin="miter"/><path d="M230.40864,153.93067c0,-4.85546 4.27468,-8.79154 9.54776,-8.79154c5.27309,0 9.54775,3.9361 9.54775,8.79154c0,4.85546 -4.27467,8.79155 -9.54775,8.79155c-5.27309,0 -9.54776,-3.9361 -9.54776,-8.79155z" fill="#ff0000" stroke="#000000" stroke-width="2" stroke-linejoin="miter"/><g><path d="M227.68301,166.45455l-3.59841,3.3369l-6.49662,-3.58266z" fill="none" stroke="#000000" stroke-width="4" stroke-linejoin="round"/><path d="M227.68301,166.45455l-3.59841,3.3369l-6.49662,-3.58266z" fill="#b3b3b3" stroke="none" stroke-width="1" stroke-linejoin="miter"/></g><g><path d="M236.38595,164.60201l-7.95467,0.60494l2.47338,-4.53404z" fill="none" stroke="#000000" stroke-width="4" stroke-linejoin="round"/><path d="M236.38595,164.60201l-7.95467,0.60494l2.47338,-4.53404z" fill="#b3b3b3" stroke="none" stroke-width="1" stroke-linejoin="miter"/></g><g><path d="M251.47393,165.21319l-7.93959,-0.64594l5.57566,-3.90057z" fill="none" stroke="#000000" stroke-width="4" stroke-linejoin="round"/><path d="M251.47393,165.21319l-7.93959,-0.64594l5.57566,-3.90057z" fill="#b3b3b3" stroke="none" stroke-width="1" stroke-linejoin="miter"/></g><path d="M225.16278,178.94762v-4.56209h29.58722v4.56209z" fill="#b4004c" stroke="#000000" stroke-width="2" stroke-linejoin="miter"/><g><path d="M233.61627,165.26134h12.68024c4.66873,0 8.45349,1.75073 8.45349,3.91036v5.21383h-29.58722v-5.21383c0,-2.15964 3.78475,-3.91036 8.45349,-3.91036z" fill="#b4004c" stroke="#000000" stroke-width="2" stroke-linejoin="miter"/><path d="M240.66085,171.77862v-3.25864h7.04457v3.25864z" fill="#ffffff" stroke="#ffffff" stroke-width="2" stroke-linejoin="round"/><path d="M243.47868,171.12689v-1.95519h4.22674v1.95519z" fill="#000000" stroke="none" stroke-width="1" stroke-linejoin="miter"/></g><path d="M217.95639,153.93068c0,-12.15026 9.84974,-22 22,-22c12.15026,0 22,9.84974 22,22c0,12.15026 -9.84974,22 -22,22c-12.15026,0 -22,-9.84974 -22,-22z" fill="url(#color-1)" stroke="#000000" stroke-width="0" stroke-linejoin="miter"/></g></g></svg>