<svg version="1.1" xmlns="http://www.w3.org/2000/svg" xmlns:xlink="http://www.w3.org/1999/xlink" width="163.23585" height="163.50944" viewBox="0,0,163.23585,163.50944"><g transform="translate(-218.38215,-38.24528)"><g data-paper-data="{&quot;isPaintingLayer&quot;:true}" fill-rule="nonzero" stroke-linecap="butt" stroke-miterlimit="10" stroke-dasharray="" stroke-dashoffset="0" style="mix-blend-mode: normal"><g data-paper-data="{&quot;index&quot;:null}"><path d="M344.03309,183.75472h16l-8,16z" fill="none" stroke="#000000" stroke-width="4" stroke-linejoin="round"/><path d="M344.03309,183.75472h16l-8,16z" fill="#b3b3b3" stroke="none" stroke-width="1" stroke-linejoin="miter"/></g><g data-paper-data="{&quot;index&quot;:null}"><path d="M301.2029,183.75472h16l-8,16z" fill="none" stroke="#000000" stroke-width="4" stroke-linejoin="round"/><path d="M301.2029,183.75472h16l-8,16z" fill="#b3b3b3" stroke="none" stroke-width="1" stroke-linejoin="miter"/></g><g data-paper-data="{&quot;index&quot;:null}"><path d="M322.03309,183.75472h16l-8,16z" fill="none" stroke="#000000" stroke-width="4" stroke-linejoin="round"/><path d="M322.03309,183.75472h16l-8,16z" fill="#b3b3b3" stroke="none" stroke-width="1" stroke-linejoin="miter"/></g><g data-paper-data="{&quot;index&quot;:null}"><path d="M236.38215,164.18868v16l-16,-8z" fill="none" stroke="#000000" stroke-width="4" stroke-linejoin="round"/><path d="M236.38215,164.18868v16l-16,-8z" fill="#b3b3b3" stroke="none" stroke-width="1" stroke-linejoin="miter"/></g><g data-paper-data="{&quot;index&quot;:null}"><path d="M236.38215,121.35849v16l-16,-8z" fill="none" stroke="#000000" stroke-width="4" stroke-linejoin="round"/><path d="M236.38215,121.35849v16l-16,-8z" fill="#b3b3b3" stroke="none" stroke-width="1" stroke-linejoin="miter"/></g><g data-paper-data="{&quot;index&quot;:null}"><path d="M236.38215,142.18868v16l-16,-8z" fill="none" stroke="#000000" stroke-width="4" stroke-linejoin="round"/><path d="M236.38215,142.18868v16l-16,-8z" fill="#b3b3b3" stroke="none" stroke-width="1" stroke-linejoin="miter"/></g><g data-paper-data="{&quot;index&quot;:null}"><path d="M256.03309,56.24528h-16l8,-16z" fill="none" stroke="#000000" stroke-width="4" stroke-linejoin="round"/><path d="M256.03309,56.24528h-16l8,-16z" fill="#b3b3b3" stroke="none" stroke-width="1" stroke-linejoin="miter"/></g><g data-paper-data="{&quot;index&quot;:null}"><path d="M298.86328,56.24528h-16l8,-16z" fill="none" stroke="#000000" stroke-width="4" stroke-linejoin="round"/><path d="M298.86328,56.24528h-16l8,-16z" fill="#b3b3b3" stroke="none" stroke-width="1" stroke-linejoin="miter"/></g><g data-paper-data="{&quot;index&quot;:null}"><path d="M278.03309,56.24528h-16l8,-16z" fill="none" stroke="#000000" stroke-width="4" stroke-linejoin="round"/><path d="M278.03309,56.24528h-16l8,-16z" fill="#b3b3b3" stroke="none" stroke-width="1" stroke-linejoin="miter"/></g><g data-paper-data="{&quot;index&quot;:null}"><path d="M379.618,109.26415l-16,8v-16z" fill="none" stroke="#000000" stroke-width="4" stroke-linejoin="round"/><path d="M379.618,109.26415l-16,8v-16z" fill="#b3b3b3" stroke="none" stroke-width="1" stroke-linejoin="miter"/></g><g data-paper-data="{&quot;index&quot;:null}"><path d="M379.618,68.18868l-16,8v-16z" fill="none" stroke="#000000" stroke-width="4" stroke-linejoin="round"/><path d="M379.618,68.18868l-16,8v-16z" fill="#b3b3b3" stroke="none" stroke-width="1" stroke-linejoin="miter"/></g><g data-paper-data="{&quot;index&quot;:null}"><path d="M379.618,90.18868l-16,8v-16z" fill="none" stroke="#000000" stroke-width="4" stroke-linejoin="round"/><path d="M379.618,90.18868l-16,8v-16z" fill="#b3b3b3" stroke="none" stroke-width="1" stroke-linejoin="miter"/></g><g data-paper-data="{&quot;index&quot;:null}"><path d="M239.00007,181v-122h122v122z" fill="none" stroke="#000000" stroke-width="4" stroke-linejoin="round"/><path d="M239.00007,181v-122h122v122z" fill="#3941b5" stroke="none" stroke-width="1" stroke-linejoin="miter"/></g><path d="M308.00001,172.00005v-14h44v14z" data-paper-data="{&quot;index&quot;:null}" fill="#3a43c5" stroke="none" stroke-width="1" stroke-linejoin="miter"/><path d="M248.00001,172.00005v-14h44v14z" data-paper-data="{&quot;index&quot;:null}" fill="#3a43c5" stroke="none" stroke-width="1" stroke-linejoin="miter"/><path d="M308.00001,82.00001v-14h44v14z" data-paper-data="{&quot;index&quot;:null}" fill="#3a43c5" stroke="none" stroke-width="1" stroke-linejoin="miter"/><path d="M248.00001,82.00001v-14h44v14z" data-paper-data="{&quot;index&quot;:null}" fill="#3a43c5" stroke="none" stroke-width="1" stroke-linejoin="miter"/><path d="M338.00001,142.00005v-14h14v14z" data-paper-data="{&quot;index&quot;:null}" fill="#3a43c5" stroke="none" stroke-width="1" stroke-linejoin="miter"/><path d="M248.00005,142.00005v-14h14v14z" data-paper-data="{&quot;index&quot;:null}" fill="#3a43c5" stroke="none" stroke-width="1" stroke-linejoin="miter"/><path d="M338.00001,112.00005v-14h14v14z" data-paper-data="{&quot;index&quot;:null}" fill="#3a43c5" stroke="none" stroke-width="1" stroke-linejoin="miter"/><path d="M248.00005,112.00005v-14h14v14z" data-paper-data="{&quot;index&quot;:null}" fill="#3a43c5" stroke="none" stroke-width="1" stroke-linejoin="miter"/><path d="M278.00007,142v-44h44v44z" data-paper-data="{&quot;index&quot;:null}" fill="#ffffff" stroke="none" stroke-width="1" stroke-linejoin="miter"/><path d="M293.00007,127v-14h14v14z" data-paper-data="{&quot;index&quot;:null}" fill="#000000" stroke="none" stroke-width="1" stroke-linejoin="miter"/></g></g></svg>