<svg version="1.1" xmlns="http://www.w3.org/2000/svg" xmlns:xlink="http://www.w3.org/1999/xlink" width="274.05819" height="95.88292" viewBox="0,0,274.05819,95.88292"><g transform="translate(-105.49461,-134.70991)"><g data-paper-data="{&quot;isPaintingLayer&quot;:true}" fill-rule="nonzero" stroke-linecap="butt" stroke-linejoin="miter" stroke-miterlimit="10" stroke-dasharray="" stroke-dashoffset="0" style="mix-blend-mode: normal"><text transform="translate(108.57104,218.73458) scale(1.02547,0.79055)" font-size="40" xml:space="preserve" fill="#000000" fill-rule="nonzero" stroke="#ffffff" stroke-width="6" stroke-linecap="butt" stroke-linejoin="miter" stroke-miterlimit="10" stroke-dasharray="" stroke-dashoffset="0" font-family="Sans Serif" font-weight="normal" text-anchor="start" style="mix-blend-mode: normal"><tspan x="0" dy="0">THE CAVERNS</tspan></text><path d="M339.82,149.48991l9.65,-12.78h20.36l-12.59,15.2c0.72,-0.07 1.43,-0.13 2.09,-0.13c9.06,0 16.11,6.26 16.11,15.33c0,10.3 -9,17.54 -20.81,17.54c-11.35,0 -21.07,-6.72 -21.07,-18.72c0.02,-6.39 2.74,-11.74 6.26,-16.44zM354.43,169.97991c1.2205,0.06726 2.37821,-0.54564 3.00871,-1.59283c0.6305,-1.0472 0.6305,-2.35713 0,-3.40433c-0.6305,-1.0472 -1.78821,-1.6601 -3.00871,-1.59283c-1.74933,0.09641 -3.11841,1.54301 -3.11841,3.295c0,1.75199 1.36908,3.19859 3.11841,3.295z" fill="none" stroke="#ffffff" stroke-width="4"/><path d="M339.82,149.48991l9.65,-12.78h20.36l-12.59,15.2c0.72,-0.07 1.43,-0.13 2.09,-0.13c9.06,0 16.11,6.26 16.11,15.33c0,10.3 -9,17.54 -20.81,17.54c-11.35,0 -21.07,-6.72 -21.07,-18.72c0.02,-6.39 2.74,-11.74 6.26,-16.44zM354.43,169.97991c1.2205,0.06726 2.37821,-0.54564 3.00871,-1.59283c0.6305,-1.0472 0.6305,-2.35713 0,-3.40433c-0.6305,-1.0472 -1.78821,-1.6601 -3.00871,-1.59283c-1.74933,0.09641 -3.11841,1.54301 -3.11841,3.295c0,1.75199 1.36908,3.19859 3.11841,3.295z" fill="#000000" stroke="none" stroke-width="1"/><path d="M110.39,137.09956h19.44v30.46h14.61v16.77h-34z" fill="none" stroke="#ffffff" stroke-width="4"/><path d="M149.52,137.09956h34v15.78h-14.56v2.55h11.74v11.22h-11.74v2.67h15.46v15h-34.9z" fill="none" stroke="#ffffff" stroke-width="4"/><path d="M186.77,137.09956h21l7,25h0.13l7.44,-25h19l-18.07,47.23h-18.43z" fill="none" stroke="#ffffff" stroke-width="4"/><path d="M244.56,137.09956h34v15.78h-14.56v2.55h11.74v11.22h-11.74v2.67h15.46v15h-34.9z" fill="none" stroke="#ffffff" stroke-width="4"/><path d="M284.29,137.09956h19.44v30.46h14.61v16.77h-34.05z" fill="none" stroke="#ffffff" stroke-width="4"/><path d="M110.39,137.09956h19.44v30.46h14.61v16.77h-34z" fill="#000000" stroke="none" stroke-width="1"/><path d="M149.52,137.09956h34v15.78h-14.56v2.55h11.74v11.22h-11.74v2.67h15.46v15h-34.9z" fill="#000000" stroke="none" stroke-width="1"/><path d="M186.77,137.09956h21l7,25h0.13l7.44,-25h19l-18.07,47.23h-18.43z" fill="#000000" stroke="none" stroke-width="1"/><path d="M244.56,137.09956h34v15.78h-14.56v2.55h11.74v11.22h-11.74v2.67h15.46v15h-34.9z" fill="#000000" stroke="none" stroke-width="1"/><path d="M284.29,137.09956h19.44v30.46h14.61v16.77h-34.05z" fill="#000000" stroke="none" stroke-width="1"/><text transform="translate(108.57104,218.73458) scale(1.02547,0.79055)" font-size="40" xml:space="preserve" fill="#000000" fill-rule="nonzero" stroke="#000000" stroke-width="3" stroke-linecap="butt" stroke-linejoin="miter" stroke-miterlimit="10" stroke-dasharray="" stroke-dashoffset="0" font-family="Sans Serif" font-weight="normal" text-anchor="start" style="mix-blend-mode: normal"><tspan x="0" dy="0">THE CAVERNS</tspan></text></g></g></svg>