<svg version="1.1" xmlns="http://www.w3.org/2000/svg" xmlns:xlink="http://www.w3.org/1999/xlink" width="45.25" height="45.25" viewBox="0,0,45.25,45.25"><g transform="translate(-217.375,-157.375)"><g data-paper-data="{&quot;isPaintingLayer&quot;:true}" fill-rule="nonzero" stroke-linecap="butt" stroke-linejoin="miter" stroke-miterlimit="10" stroke-dasharray="" stroke-dashoffset="0" style="mix-blend-mode: normal"><path d="M233.375,180c0,-3.65889 2.96611,-6.625 6.625,-6.625c3.65889,0 6.625,2.96611 6.625,6.625c0,3.65889 -2.96611,6.625 -6.625,6.625c-3.65889,0 -6.625,-2.96611 -6.625,-6.625z" fill="#efff00" stroke="none" stroke-width="0"/><path d="M228.625,180c0,-6.28224 5.09276,-11.375 11.375,-11.375c6.28224,0 11.375,5.09276 11.375,11.375c0,6.28224 -5.09276,11.375 -11.375,11.375c-6.28224,0 -11.375,-5.09276 -11.375,-11.375z" fill="none" stroke="#f5ff6f" stroke-width="5"/><path d="M219.875,180c0,-11.11472 9.01028,-20.125 20.125,-20.125c11.11472,0 20.125,9.01028 20.125,20.125c0,11.11472 -9.01028,20.125 -20.125,20.125c-11.11472,0 -20.125,-9.01028 -20.125,-20.125z" fill="none" stroke="#faffb4" stroke-width="5"/></g></g></svg>