<svg version="1.1" xmlns="http://www.w3.org/2000/svg" xmlns:xlink="http://www.w3.org/1999/xlink" width="35.47278" height="203.41661" viewBox="0,0,35.47278,203.41661"><g transform="translate(-222.85518,-27.58344)"><g data-paper-data="{&quot;isPaintingLayer&quot;:true}" fill-rule="nonzero" stroke-linecap="butt" stroke-miterlimit="10" stroke-dasharray="" stroke-dashoffset="0" style="mix-blend-mode: normal"><path d="M229.75908,153.0001v-125.41666h21.66498v125.41667z" fill="#000000" stroke="none" stroke-width="NaN" stroke-linejoin="miter"/><path d="M243.73884,202.50006l1.57364,2l-0.78682,6" fill="none" stroke="#000000" stroke-width="2" stroke-linejoin="round"/><path d="M228.78927,207.50006l0.78682,4" fill="none" stroke="#000000" stroke-width="2" stroke-linejoin="round"/><path d="M255.54114,210.50006l0.78682,-4" fill="none" stroke="#000000" stroke-width="2" stroke-linejoin="round"/><path d="M226.0354,141.50001v-13h29.11232v13z" fill="#000000" stroke="none" stroke-width="0" stroke-linejoin="miter"/><path d="M226.0354,121.50012v-13h29.11232v13z" fill="#000000" stroke="none" stroke-width="0" stroke-linejoin="miter"/><path d="M226.0354,96.50012v-13h29.11232v13z" fill="#000000" stroke="none" stroke-width="0" stroke-linejoin="miter"/><path d="M226.0354,76.50003v-13h29.11232v13z" fill="#000000" stroke="none" stroke-width="0" stroke-linejoin="miter"/><path d="M226.0354,51.50013v-13h29.11232v13z" fill="#000000" stroke="none" stroke-width="0" stroke-linejoin="miter"/><g><path d="M242.82613,213.00005h12.58911l-6.29456,16z" fill="none" stroke="#000000" stroke-width="4" stroke-linejoin="round"/><path d="M242.82613,213.00005h12.58911l-6.29456,16z" fill="#b3b3b3" stroke="none" stroke-width="1" stroke-linejoin="miter"/></g><g><path d="M225.5161,213.00005h12.58911l-6.29456,16z" fill="none" stroke="#000000" stroke-width="4" stroke-linejoin="round"/><path d="M225.5161,213.00005h12.58911l-6.29456,16z" fill="#b3b3b3" stroke="none" stroke-width="1" stroke-linejoin="miter"/></g><g><path d="M224.85518,211v-62h31.47278v62z" fill="none" stroke="#000000" stroke-width="4" stroke-linejoin="round"/><path d="M224.85518,211v-62h31.47278v62z" fill="#39b54a" stroke="none" stroke-width="1" stroke-linejoin="miter"/></g><path d="M229.30959,202v-44h21.77713v44z" fill="#3ac54d" stroke="none" stroke-width="1" stroke-linejoin="miter"/><path d="M233.11678,202.19372v-18h14.94957v18z" fill="#ffffff" stroke="none" stroke-width="0" stroke-linejoin="miter"/><path d="M236.65747,202v-9h7.08138v9z" fill="#000000" stroke="none" stroke-width="1" stroke-linejoin="miter"/></g></g></svg>