<svg version="1.1" xmlns="http://www.w3.org/2000/svg" xmlns:xlink="http://www.w3.org/1999/xlink" width="342.96688" height="103.58858" viewBox="0,0,342.96688,103.58858"><g transform="translate(-68.665,-128.2057)"><g data-paper-data="{&quot;isPaintingLayer&quot;:true}" fill-rule="nonzero" stroke-linecap="butt" stroke-linejoin="miter" stroke-miterlimit="10" stroke-dasharray="" stroke-dashoffset="0" style="mix-blend-mode: normal"><path d="M70.78087,132.1956h15.15213c5.68925,0 17.70149,0.65598 17.70149,10.8825c0,3.61628 -1.52674,6.92981 -5.76126,8.57816v0.11774c5.48759,2.32116 6.74067,6.34113 6.74067,10.17607c0,11.30298 -10.65835,13.0859 -18.01835,13.0859h-15.84348zM86.91239,149.6042c1.98763,0 2.88064,-1.1774 2.88064,-2.65755c0,-1.48014 -0.97941,-2.65755 -2.88064,-2.65755h-0.56171v5.31508zM87.02764,163.56476c2.44854,0 3.6008,-1.48016 3.6008,-3.36399c0,-1.88382 -1.20987,-3.36399 -3.6008,-3.36399h-0.67695v6.62704z" fill="none" stroke="#ffffff" stroke-width="4"/><path d="M70.78087,132.1956h15.15213c5.68925,0 17.70149,0.65598 17.70149,10.8825c0,3.61628 -1.52674,6.92981 -5.76126,8.57816v0.11774c5.48759,2.32116 6.74067,6.34113 6.74067,10.17607c0,11.30298 -10.65835,13.0859 -18.01835,13.0859h-15.84348zM86.91239,149.6042c1.98763,0 2.88064,-1.1774 2.88064,-2.65755c0,-1.48014 -0.97941,-2.65755 -2.88064,-2.65755h-0.56171v5.31508zM87.02764,163.56476c2.44854,0 3.6008,-1.48016 3.6008,-3.36399c0,-1.88382 -1.20987,-3.36399 -3.6008,-3.36399h-0.67695v6.62704z" fill="#000000" stroke="none" stroke-width="1"/><path d="M126.18033,133.09374c10.83451,0 19.28496,9.35858 19.28496,21.41201c0,12.05345 -8.45045,21.42836 -19.28496,21.42836c-10.83451,0 -19.29615,-9.35858 -19.29615,-21.42836c0,-12.06977 8.46164,-21.412 19.29615,-21.412zM126.18033,161.23481c2.95486,0 5.33891,-2.87453 5.33891,-6.43504c0,-3.56051 -2.38405,-6.43503 -5.33891,-6.43503c-2.95486,0 -5.3501,2.87453 -5.3501,6.43503c0,3.56051 2.38403,6.43504 5.3501,6.43504z" fill="none" stroke="#ffffff" stroke-width="4"/><path d="M126.18033,133.09374c10.83451,0 19.28496,9.35858 19.28496,21.41201c0,12.05345 -8.45045,21.42836 -19.28496,21.42836c-10.83451,0 -19.29615,-9.35858 -19.29615,-21.42836c0,-12.06977 8.46164,-21.412 19.29615,-21.412zM126.18033,161.23481c2.95486,0 5.33891,-2.87453 5.33891,-6.43504c0,-3.56051 -2.38405,-6.43503 -5.33891,-6.43503c-2.95486,0 -5.3501,2.87453 -5.3501,6.43503c0,3.56051 2.38403,6.43504 5.3501,6.43504z" fill="#000000" stroke="none" stroke-width="1"/><path d="M151.30321,157.43562c4.29446,2.8789 9.08311,4.60263 14.01815,5.04598c1.76843,0 2.18538,-0.70645 2.18538,-1.41288c0,-0.70643 -0.53196,-1.1942 -1.29399,-1.36241c-2.07039,-0.53824 -8.0083,-1.19422 -12.36469,-5.04598c-2.44728,-2.06054 -3.86336,-5.40528 -3.78133,-8.93138c0,-8.57816 6.59931,-14.4315 17.38249,-14.4315c5.19657,-0.00353 10.34718,1.13768 15.18272,3.36399v14.02783c-4.0871,-2.15261 -8.4683,-3.43966 -12.93982,-3.8013c-1.69657,0 -2.17101,0.65598 -2.17101,1.31196c0,0.65597 0.64696,1.24468 1.35151,1.48014c1.76843,0.52141 7.6489,1.24468 11.83274,4.55818c2.71961,1.97532 4.35621,5.47272 4.31327,9.21732c0,8.22495 -6.59931,13.96054 -17.78508,13.96054c-5.46013,0.03162 -10.87573,-1.14989 -15.9591,-3.48172z" fill="none" stroke="#ffffff" stroke-width="4"/><path d="M151.30321,157.43562c4.29446,2.8789 9.08311,4.60263 14.01815,5.04598c1.76843,0 2.18538,-0.70645 2.18538,-1.41288c0,-0.70643 -0.53196,-1.1942 -1.29399,-1.36241c-2.07039,-0.53824 -8.0083,-1.19422 -12.36469,-5.04598c-2.44728,-2.06054 -3.86336,-5.40528 -3.78133,-8.93138c0,-8.57816 6.59931,-14.4315 17.38249,-14.4315c5.19657,-0.00353 10.34718,1.13768 15.18272,3.36399v14.02783c-4.0871,-2.15261 -8.4683,-3.43966 -12.93982,-3.8013c-1.69657,0 -2.17101,0.65598 -2.17101,1.31196c0,0.65597 0.64696,1.24468 1.35151,1.48014c1.76843,0.52141 7.6489,1.24468 11.83274,4.55818c2.71961,1.97532 4.35621,5.47272 4.31327,9.21732c0,8.22495 -6.59931,13.96054 -17.78508,13.96054c-5.46013,0.03162 -10.87573,-1.14989 -15.9591,-3.48172z" fill="#000000" stroke="none" stroke-width="1"/><path d="M188.57377,156.34388c4.29446,2.8789 9.08311,4.60263 14.01815,5.04598c1.76843,0 2.18538,-0.70645 2.18538,-1.41288c0,-0.70643 -0.53196,-1.1942 -1.29399,-1.36241c-2.07039,-0.53824 -8.0083,-1.19422 -12.36469,-5.04598c-2.44728,-2.06054 -3.86336,-5.40528 -3.78133,-8.93138c0,-8.57816 6.59931,-14.4315 17.38249,-14.4315c5.19657,-0.00353 10.34718,1.13767 15.18272,3.36397v14.02783c-4.0871,-2.15261 -8.4683,-3.43966 -12.93982,-3.8013c-1.69657,0 -2.17101,0.65598 -2.17101,1.31196c0,0.65597 0.64696,1.24468 1.35151,1.48016c1.76843,0.52141 7.6489,1.24468 11.83274,4.55818c2.71961,1.97532 4.35621,5.4727 4.31327,9.21731c0,8.22495 -6.59931,13.96054 -17.78508,13.96054c-5.46013,0.03162 -10.87573,-1.14989 -15.9591,-3.48172z" fill="none" stroke="#ffffff" stroke-width="4"/><path d="M188.57377,156.34388c4.29446,2.8789 9.08311,4.60263 14.01815,5.04598c1.76843,0 2.18538,-0.70645 2.18538,-1.41288c0,-0.70643 -0.53196,-1.1942 -1.29399,-1.36241c-2.07039,-0.53824 -8.0083,-1.19422 -12.36469,-5.04598c-2.44728,-2.06054 -3.86336,-5.40528 -3.78133,-8.93138c0,-8.57816 6.59931,-14.4315 17.38249,-14.4315c5.19657,-0.00353 10.34718,1.13767 15.18272,3.36397v14.02783c-4.0871,-2.15261 -8.4683,-3.43966 -12.93982,-3.8013c-1.69657,0 -2.17101,0.65598 -2.17101,1.31196c0,0.65597 0.64696,1.24468 1.35151,1.48016c1.76843,0.52141 7.6489,1.24468 11.83274,4.55818c2.71961,1.97532 4.35621,5.4727 4.31327,9.21731c0,8.22495 -6.59931,13.96054 -17.78508,13.96054c-5.46013,0.03162 -10.87573,-1.14989 -15.9591,-3.48172z" fill="#000000" stroke="none" stroke-width="1"/><path d="M246.69658,131.64972h17.51425c8.78592,0 20.76936,2.18659 20.76936,13.60732c-0.07774,4.25745 -2.13745,8.12656 -5.37237,10.09196l9.77973,19.14109h-18.50807l-6.3662,-14.07828h-0.24485v14.07828h-17.57186zM265.56471,150.58897c2.7798,0 4.01848,-1.48016 4.01848,-3.36399c0,-1.88382 -1.29628,-3.26306 -4.01848,-3.26306h-1.29628v6.57659z" fill="none" stroke="#ffffff" stroke-width="4"/><path d="M246.69658,131.64972h17.51425c8.78592,0 20.76936,2.18659 20.76936,13.60732c-0.07774,4.25745 -2.13745,8.12656 -5.37237,10.09196l9.77973,19.14109h-18.50807l-6.3662,-14.07828h-0.24485v14.07828h-17.57186zM265.56471,150.58897c2.7798,0 4.01848,-1.48016 4.01848,-3.36399c0,-1.88382 -1.29628,-3.26306 -4.01848,-3.26306h-1.29628v6.57659z" fill="#000000" stroke="none" stroke-width="1"/><path d="M293.01996,156.93318v-23.36287h14.92919v22.18548c0,4.01997 1.10104,6.86253 4.55808,6.86253c3.45703,0 4.46338,-2.48935 4.46338,-6.72797v-22.32005h13.42561v23.12738c0,6.57659 -1.39702,10.7143 -3.30311,13.45594c-3.30311,4.7264 -9.31741,6.91299 -15.48562,6.91299c-6.36947,0 -11.98123,-2.3548 -15.18963,-6.72797c-1.79954,-2.53982 -3.39783,-6.42519 -3.39783,-13.40547z" fill="none" stroke="#ffffff" stroke-width="4"/><path d="M293.01996,156.93318v-23.36287h14.92919v22.18548c0,4.01997 1.10104,6.86253 4.55808,6.86253c3.45703,0 4.46338,-2.48935 4.46338,-6.72797v-22.32005h13.42561v23.12738c0,6.57659 -1.39702,10.7143 -3.30311,13.45594c-3.30311,4.7264 -9.31741,6.91299 -15.48562,6.91299c-6.36947,0 -11.98123,-2.3548 -15.18963,-6.72797c-1.79954,-2.53982 -3.39783,-6.42519 -3.39783,-13.40547z" fill="#000000" stroke="none" stroke-width="1"/><path d="M337.056,157.14837c3.92879,2.88747 8.27547,4.60841 12.74481,5.04598c1.60723,0 1.98391,-0.70643 1.98391,-1.41288c0,-0.70643 -0.47716,-1.19422 -1.18029,-1.36241c-1.87092,-0.53824 -7.28276,-1.1942 -11.23804,-5.04597c-2.20257,-2.00203 -3.49404,-5.36693 -3.42791,-8.9314c0,-8.57816 5.98943,-14.4315 15.79603,-14.4315c4.71801,-0.00629 9.39774,1.13347 13.81214,3.36399v14.02783c-3.71958,-2.15059 -7.68564,-3.43608 -11.72774,-3.8013c-1.55699,0 -1.98393,0.65598 -1.98393,1.31195c0,0.65597 0.59015,1.24468 1.25565,1.48014c1.60723,0.52141 6.96885,1.24468 10.77345,4.55821c2.43949,1.91465 3.92886,5.43003 3.90507,9.21732c0,8.22495 -6.002,13.96054 -16.17273,13.96054c-4.95641,0.03429 -9.87573,-1.14568 -14.51529,-3.48172z" fill="none" stroke="#ffffff" stroke-width="4"/><path d="M337.056,157.14837c3.92879,2.88747 8.27547,4.60841 12.74481,5.04598c1.60723,0 1.98391,-0.70643 1.98391,-1.41288c0,-0.70643 -0.47716,-1.19422 -1.18029,-1.36241c-1.87092,-0.53824 -7.28276,-1.1942 -11.23804,-5.04597c-2.20257,-2.00203 -3.49404,-5.36693 -3.42791,-8.9314c0,-8.57816 5.98943,-14.4315 15.79603,-14.4315c4.71801,-0.00629 9.39774,1.13347 13.81214,3.36399v14.02783c-3.71958,-2.15059 -7.68564,-3.43608 -11.72774,-3.8013c-1.55699,0 -1.98393,0.65598 -1.98393,1.31195c0,0.65597 0.59015,1.24468 1.25565,1.48014c1.60723,0.52141 6.96885,1.24468 10.77345,4.55821c2.43949,1.91465 3.92886,5.43003 3.90507,9.21732c0,8.22495 -6.002,13.96054 -16.17273,13.96054c-4.95641,0.03429 -9.87573,-1.14568 -14.51529,-3.48172z" fill="#000000" stroke="none" stroke-width="1"/><path d="M374.37893,131.46154h12.57028l0.12654,14.93226l10.0762,0.10772l-0.24225,-15.03998h12.4253v42.84035h-12.57027l-0.50258,-13.44826l-9.45797,-0.29442v13.69223h-12.42529z" fill="none" stroke="#ffffff" stroke-width="4"/><path d="M374.37893,131.46154h12.57028l0.12657,14.93225l10.07617,0.10772l-0.24228,-15.03998h12.42529v42.84035h-12.57027l-0.50258,-13.44826l-9.45797,-0.29442v13.69223h-12.42529z" fill="#000000" stroke="none" stroke-width="1"/><path d="M94.135,188.27429c4.56,0 9.29,1 11.85,2.33v14.86c-3.09367,-1.60693 -6.51474,-2.48273 -10,-2.56c-5.68,0 -8.74,2.72 -8.74,6.45c0,3.73 3.06,6.4 8.74,6.4c3.57837,-0.03007 7.09337,-0.94747 10.23,-2.67v14.19c-2.61,1.39 -7.45,2.5 -12.24,2.5c-13.46,0 -23.31,-8.79 -23.31,-20.75c0,-11.96 9.79,-20.75 23.47,-20.75z" fill="none" stroke="#ffffff" stroke-width="4"/><path d="M131.845,188.27429c12.63,0 22.48,9.06 22.48,20.75c0,11.69 -9.85,20.75 -22.48,20.75c-12.63,0 -22.48,-9.07 -22.48,-20.75c0,-11.68 9.81,-20.75 22.48,-20.75zM131.845,215.53429c2.52566,0.00404 4.80469,-1.51479 5.77309,-3.84743c0.96839,-2.33264 0.43517,-5.019 -1.35075,-6.80491c-1.78591,-1.78591 -4.47227,-2.31914 -6.80491,-1.35074c-2.33263,0.96839 -3.85148,3.24742 -3.84743,5.77308c-0.00266,1.65312 0.65286,3.23928 1.82179,4.40821c1.16893,1.16893 2.75509,1.82445 4.40821,1.82179z" fill="none" stroke="#ffffff" stroke-width="4"/><path d="M158.295,188.85429h15.46l8,10.12l7.75,-10.12h15v40.28h-16.56v-19.61h-0.1l-7.18,9.46l-7.34,-9.46h-0.11v19.64h-14.92z" fill="none" stroke="#ffffff" stroke-width="4"/><path d="M209.425,188.85429h15.24c9.68,0 20.53,2.78 20.53,14.3c0,10.34 -8.68,14.52 -18.63,14.52h-0.56v11.46h-16.58zM226.425,207.43429c2.84,0 4.18,-1.5 4.18,-3.39c0,-1.89 -1.39,-3.4 -4.18,-3.4h-0.44v6.79z" fill="none" stroke="#ffffff" stroke-width="4"/><path d="M248.765,188.85429h16.58v26h12.5v14.3h-29z" fill="none" stroke="#ffffff" stroke-width="4"/><path d="M282.145,188.85429h29v13.46h-12.42v2.17h10v9.57h-10v2.28h13.19v12.8h-29.77z" fill="none" stroke="#ffffff" stroke-width="4"/><path d="M326.715,202.56429h-11.24v-13.71h39.06v13.68h-11.24v26.6h-16.58z" fill="none" stroke="#ffffff" stroke-width="4"/><path d="M358.845,188.85429h29v13.46h-12.4v2.17h10v9.57h-10v2.28h13.18v12.8h-29.78z" fill="none" stroke="#ffffff" stroke-width="4"/><path d="M391.425,188.85429h17.91l-3.61,26c-3.53472,-0.59998 -7.14528,-0.59998 -10.68,0zM400.425,215.78429c4.28,0 7.79,3.11 7.79,6.95c0,3.84 -3.51,7.06 -7.79,7.06c-4.28,0 -7.79,-3.17 -7.79,-7.06c0,-3.89 3.46,-6.88 7.75,-6.88z" fill="none" stroke="#ffffff" stroke-width="4"/><path d="M94.135,188.27429c4.56,0 9.29,1 11.85,2.33v14.86c-3.09367,-1.60693 -6.51474,-2.48273 -10,-2.56c-5.68,0 -8.74,2.72 -8.74,6.45c0,3.73 3.06,6.4 8.74,6.4c3.57837,-0.03007 7.09337,-0.94747 10.23,-2.67v14.19c-2.61,1.39 -7.45,2.5 -12.24,2.5c-13.46,0 -23.31,-8.79 -23.31,-20.75c0,-11.96 9.79,-20.75 23.47,-20.75z" fill="#000000" stroke="none" stroke-width="1"/><path d="M131.845,188.27429c12.63,0 22.48,9.06 22.48,20.75c0,11.69 -9.85,20.75 -22.48,20.75c-12.63,0 -22.48,-9.07 -22.48,-20.75c0,-11.68 9.81,-20.75 22.48,-20.75zM131.845,215.53429c2.52566,0.00404 4.80469,-1.51479 5.77309,-3.84743c0.96839,-2.33264 0.43517,-5.019 -1.35075,-6.80491c-1.78591,-1.78591 -4.47227,-2.31914 -6.80491,-1.35074c-2.33263,0.96839 -3.85148,3.24742 -3.84743,5.77308c-0.00266,1.65312 0.65286,3.23928 1.82179,4.40821c1.16893,1.16893 2.75509,1.82445 4.40821,1.82179z" fill="#000000" stroke="none" stroke-width="1"/><path d="M158.295,188.85429h15.46l8,10.12l7.75,-10.12h15v40.28h-16.56v-19.61h-0.1l-7.18,9.46l-7.34,-9.46h-0.11v19.64h-14.92z" fill="#000000" stroke="none" stroke-width="1"/><path d="M209.425,188.85429h15.24c9.68,0 20.53,2.78 20.53,14.3c0,10.34 -8.68,14.52 -18.63,14.52h-0.56v11.46h-16.58zM226.425,207.43429c2.84,0 4.18,-1.5 4.18,-3.39c0,-1.89 -1.39,-3.4 -4.18,-3.4h-0.44v6.79z" fill="#000000" stroke="none" stroke-width="1"/><path d="M248.765,188.85429h16.58v26h12.5v14.3h-29z" fill="#000000" stroke="none" stroke-width="1"/><path d="M282.145,188.85429h29v13.46h-12.42v2.17h10v9.57h-10v2.28h13.19v12.8h-29.77z" fill="#000000" stroke="none" stroke-width="1"/><path d="M326.715,202.56429h-11.24v-13.71h39.06v13.68h-11.24v26.6h-16.58z" fill="#000000" stroke="none" stroke-width="1"/><path d="M358.845,188.85429h29v13.46h-12.4v2.17h10v9.57h-10v2.28h13.18v12.8h-29.78z" fill="#000000" stroke="none" stroke-width="1"/><path d="M391.425,188.85429h17.91l-3.61,26c-3.53472,-0.59998 -7.14528,-0.59998 -10.68,0zM400.425,215.78429c4.28,0 7.79,3.11 7.79,6.95c0,3.84 -3.51,7.06 -7.79,7.06c-4.28,0 -7.79,-3.17 -7.79,-7.06c0,-3.89 3.46,-6.88 7.75,-6.88z" fill="#000000" stroke="none" stroke-width="1"/></g></g></svg>