<svg version="1.1" xmlns="http://www.w3.org/2000/svg" xmlns:xlink="http://www.w3.org/1999/xlink" width="49.21989" height="76.62236" viewBox="0,0,49.21989,76.62236"><g transform="translate(-212.78012,-103.37764)"><g data-paper-data="{&quot;isPaintingLayer&quot;:true}" fill-rule="nonzero" stroke-linecap="butt" stroke-miterlimit="10" stroke-dasharray="" stroke-dashoffset="0" style="mix-blend-mode: normal"><path d="M225.00001,165v-14h18v14z" fill="#000000" stroke="none" stroke-width="1" stroke-linejoin="miter"/><path d="M261.00001,165v14h-42v-14h32v-3c0,-1.10457 0.89543,-2 2,-2h3c1.10457,0 2,0.89543 2,2v3z" fill="#b4004c" stroke="#000000" stroke-width="2" stroke-linejoin="miter"/><path d="M229.75779,131.73714l-3.05451,-11.35639l8.11171,-2.1818l3.05452,11.3564z" fill="#ff0000" stroke="#000000" stroke-width="2" stroke-linejoin="miter"/><path d="M226.83189,104.68877c4.79997,-1.29104 9.73771,1.5535 11.02875,6.35347c1.29104,4.79998 -1.5535,9.73771 -6.35348,11.02875c-4.79997,1.29104 -9.73771,-1.5535 -11.02875,-6.35348c-1.29104,-4.79998 1.5535,-9.73769 6.35348,-11.02874z" fill="#ff0000" stroke="#000000" stroke-width="2" stroke-linejoin="miter"/><g><g stroke="none" stroke-linejoin="miter"><path d="M260.26054,148.12249l-40.55853,10.90897l-5.71423,-21.24494c-0.86069,-3.19998 1.03567,-6.4918 4.23565,-7.3525l28.97038,-7.79212c3.19998,-0.8607 6.4918,1.03567 7.3525,4.23565z" fill="#9500ff" stroke-width="1"/><path d="M261.48596,148.82843l-42.48989,11.42845l-5.97396,-22.21062c-1.00414,-3.73331 1.20829,-7.57377 4.9416,-8.57791l28.97037,-7.79213c3.73331,-1.00414 7.57378,1.20829 8.57792,4.9416zM220.40796,157.80605l38.62717,-10.3895l-5.45449,-20.27926c-0.71724,-2.66666 -3.46044,-4.24696 -6.12709,-3.52971l-28.97037,7.79212c-2.66665,0.71724 -4.24695,3.46043 -3.52971,6.12708z" fill="#000000" stroke-width="1"/><path d="M214.90382,137.52091c-0.71724,-2.66665 0.86772,-5.42578 3.53437,-6.14302l29.04336,-7.81175c2.66664,-0.71725 5.42186,0.8745 6.13911,3.54116l5.46204,20.32468l-38.70813,10.41127z" data-paper-data="{&quot;noHover&quot;:false,&quot;origItem&quot;:[&quot;Path&quot;,{&quot;applyMatrix&quot;:true,&quot;segments&quot;:[[220,164],[260,164],[[260,143],[0,0],[0,-2.76143]],[[255,138],[2.76142,0],[0,0]],[[225,138],[0,0],[-2.76143,0]],[[220,143],[0,-2.76143],[0,0]]],&quot;closed&quot;:true,&quot;fillColor&quot;:[0,0,0,1]}]}" fill="#b4004c" stroke-width="0.5"/></g><path d="M250.45721,142.47496l-9.65679,2.59737l-2.59737,-9.65679l10.17627,-0.66602z" fill="#ffffff" stroke="#ffffff" stroke-width="2" stroke-linejoin="round"/><path d="M244.4034,143.0677l-1.55842,-5.79407l5.79407,-1.55842l1.55842,5.79407z" fill="#000000" stroke="none" stroke-width="1" stroke-linejoin="miter"/></g></g></g></svg>