<svg version="1.1" xmlns="http://www.w3.org/2000/svg" xmlns:xlink="http://www.w3.org/1999/xlink" width="23" height="33.39207" viewBox="0,0,23,33.39207"><g transform="translate(-228.5,-146.66666)"><g data-paper-data="{&quot;isPaintingLayer&quot;:true}" fill-rule="nonzero" stroke-miterlimit="10" stroke-dasharray="" stroke-dashoffset="0" style="mix-blend-mode: normal"><path d="M234.35626,157.72222v-8h11.28748v8z" fill="#929292" stroke="#000000" stroke-width="2" stroke-linecap="butt" stroke-linejoin="miter"/><path d="M231.66667,152.3889v-4.72223h16.66667v4.72223z" fill="#929292" stroke="#000000" stroke-width="2" stroke-linecap="butt" stroke-linejoin="miter"/><g stroke-linecap="butt"><path d="M235.5,155.6143h9c3.31371,0 6,2.68629 6,6v8h-21v-8c0,-3.31371 2.68629,-6 6,-6z" fill="#929292" stroke="#000000" stroke-width="2" stroke-linejoin="miter"/><path d="M240.5,165.6143v-5h5v5z" fill="#cacaca" stroke="#cacaca" stroke-width="2" stroke-linejoin="round"/><path d="M242.5,164.6143v-3h3v3z" fill="#000000" stroke="none" stroke-width="1" stroke-linejoin="miter"/></g><path d="M229.5,174.33652v-4.72223h21v4.72223z" fill="#818181" stroke="#000000" stroke-width="2" stroke-linecap="butt" stroke-linejoin="miter"/><path d="M250.5,174.33652v4.72222h-21v-4.72222z" fill="#606060" stroke="#000000" stroke-width="2" stroke-linecap="butt" stroke-linejoin="miter"/><path d="M234.58333,169.25001c0,0 -0.13658,-5.84916 -0.07345,-8.20177c0.08895,-3.31486 1.57345,-4.79823 1.57345,-4.79823" fill="none" stroke="#000000" stroke-width="1" stroke-linecap="round" stroke-linejoin="miter"/><path d="M236.78333,158.95c0,-0.27614 0.22386,-0.5 0.5,-0.5c0.27614,0 0.5,0.22386 0.5,0.5c0,0.27614 -0.22386,0.5 -0.5,0.5c-0.27614,0 -0.5,-0.22386 -0.5,-0.5z" fill="#000000" stroke="none" stroke-width="0.5" stroke-linecap="butt" stroke-linejoin="miter"/><path d="M236.68333,162.55001c0,-0.27614 0.22386,-0.5 0.5,-0.5c0.27614,0 0.5,0.22386 0.5,0.5c0,0.27614 -0.22386,0.5 -0.5,0.5c-0.27614,0 -0.5,-0.22386 -0.5,-0.5z" fill="#000000" stroke="none" stroke-width="0.5" stroke-linecap="butt" stroke-linejoin="miter"/></g></g></svg>