<svg version="1.1" xmlns="http://www.w3.org/2000/svg" xmlns:xlink="http://www.w3.org/1999/xlink" width="61.71636" height="58.17058" viewBox="0,0,61.71636,58.17058"><g transform="translate(-209.14182,-150.91472)"><g data-paper-data="{&quot;isPaintingLayer&quot;:true}" fill-rule="nonzero" stroke-linecap="butt" stroke-miterlimit="10" stroke-dasharray="" stroke-dashoffset="0" style="mix-blend-mode: normal"><g stroke-width="2"><path d="M259.10141,189.99674l-34.24177,-29.00625l5.17335,-9.07577l36.43356,28.74781z" data-paper-data="{&quot;index&quot;:null}" fill="none" stroke="#000000" stroke-linejoin="round"/><path d="M259.10141,189.99674l-34.55489,-28.96933l5.48646,-9.1127l36.43356,28.74781z" data-paper-data="{&quot;index&quot;:null}" fill="#39b54a" stroke="none" stroke-linejoin="miter"/><path d="M227.9426,162.22037l-2.28646,-1.4073l4.42294,-7.18603l2.28646,1.4073z" data-paper-data="{&quot;index&quot;:null}" fill="#3ac54d" stroke="none" stroke-linejoin="miter"/><path d="M232.86448,165.81999l-2.28646,-1.4073l4.42294,-7.18603l2.28646,1.4073z" data-paper-data="{&quot;index&quot;:null}" fill="#3ac54d" stroke="none" stroke-linejoin="miter"/><path d="M237.08949,169.34307l-2.28646,-1.40731l4.42294,-7.18603l2.28646,1.4073z" data-paper-data="{&quot;index&quot;:null}" fill="#3ac54d" stroke="none" stroke-linejoin="miter"/><path d="M241.56017,173.15461l-2.28646,-1.40731l4.42294,-7.18603l2.28647,1.40731z" data-paper-data="{&quot;index&quot;:null}" fill="#3ac54d" stroke="none" stroke-linejoin="miter"/><path d="M246.2642,177.1503l-2.28646,-1.4073l4.42294,-7.18603l2.28646,1.4073z" data-paper-data="{&quot;index&quot;:null}" fill="#3ac54d" stroke="none" stroke-linejoin="miter"/><path d="M251.10633,180.97096l-2.28646,-1.4073l4.42294,-7.18603l2.28646,1.4073z" data-paper-data="{&quot;index&quot;:null}" fill="#3ac54d" stroke="none" stroke-linejoin="miter"/><path d="M262.57007,193.06376h-46.40949l1.56057,-10.32947l44.84893,-1.56056z" fill="none" stroke="#000000" stroke-linejoin="round"/><path d="M262.57007,193.06376h-46.40949l1.33763,-10.5524l45.07187,-1.33763z" fill="#39b54a" stroke="none" stroke-linejoin="miter"/><path d="M260.90096,183.4337l0.1568,-2.12587l3.46834,-0.4244l-0.1568,2.12588z" fill="#39b54a" stroke="#000000" stroke-linejoin="miter"/><path d="M253.57508,187.81318l3.1447,-9.5266l2.58748,0.85412l-3.1447,9.5266z" fill="#3ac54d" stroke="none" stroke-linejoin="miter"/><path d="M262.06055,184.47273v-1.79589h1.30047v1.79589z" fill="#39b54a" stroke="none" stroke-linejoin="miter"/><path d="M257.64679,189.60908l3.1447,-9.5266l2.58747,0.85412l-3.1447,9.5266z" fill="#3ac54d" stroke="none" stroke-linejoin="miter"/><path d="M260.84409,191.33779h-8.43809v-8.43809z" fill="#ffffff" stroke="none" stroke-linejoin="miter"/><path d="M259.1349,189.61901h-3.26017v-3.26017c0,0 1.20521,1.20521 1.76981,1.76981c0.51812,0.51812 1.49036,1.49036 1.49036,1.49036z" fill="#000000" stroke="none" stroke-linejoin="miter"/><path d="M219.92415,192.05956l-2.66671,-0.31153l0.97909,-8.3811l2.66671,0.31153z" fill="#3ac54d" stroke="none" stroke-linejoin="miter"/><path d="M226.0178,192.28248l-2.66671,-0.31153l0.97909,-8.38109l2.66671,0.31153z" fill="#3ac54d" stroke="none" stroke-linejoin="miter"/><path d="M231.51694,192.13387l-2.66671,-0.31153l0.97909,-8.3811l2.66671,0.31153z" fill="#3ac54d" stroke="none" stroke-linejoin="miter"/><path d="M237.38764,191.91093l-2.66671,-0.31153l0.97909,-8.38109l2.66671,0.31153z" fill="#3ac54d" stroke="none" stroke-linejoin="miter"/><path d="M243.5556,191.68799l-2.66672,-0.31153l0.97909,-8.3811l2.66671,0.31153z" fill="#3ac54d" stroke="none" stroke-linejoin="miter"/><path d="M249.72355,191.68799l-2.66671,-0.31153l0.97908,-8.3811l2.66672,0.31153z" fill="#3ac54d" stroke="none" stroke-linejoin="miter"/><path d="M252.1913,182.34577l5.22688,-6.62429l6.62429,5.22688z" data-paper-data="{&quot;index&quot;:null}" fill="#ffffff" stroke="none" stroke-linejoin="miter"/><path d="M259.54281,181.48574c-0.79298,0.0935 -2.48567,0.2931 -2.48567,0.2931l2.01947,-2.55938l2.55939,2.01948c0,0 -1.3655,0.161 -2.09319,0.24681z" data-paper-data="{&quot;index&quot;:null}" fill="#000000" stroke="none" stroke-linejoin="miter"/><path d="M248.43862,181.87137v-1.05276h3.40599v1.05276z" fill="#39b54a" stroke="#000000" stroke-linejoin="miter"/><path d="M249.65401,182.3836l-0.29428,-1.0108l3.27022,-0.9521l0.29428,1.0108z" fill="#39b54a" stroke="#000000" stroke-linejoin="miter"/><path d="M252.24108,182.18345l-0.55258,-0.86313l1.35547,-1.61408l0.55259,0.86313z" fill="#39b54a" stroke="#000000" stroke-linejoin="miter"/><path d="M262.13487,184.65232v-0.39014h1.18901v0.39014z" fill="#39b54a" stroke="none" stroke-linejoin="miter"/><path d="M262.76828,184.04024l0.58279,0.56964l-0.88354,0.98892l-0.61994,-0.58822z" fill="#39b54a" stroke="none" stroke-linejoin="miter"/><g><path d="M263.31935,186.18138l3.56977,-4.75394l2.96906,5.94674z" fill="none" stroke="#000000" stroke-linejoin="round"/><path d="M263.31935,186.18138l3.56977,-4.75394l2.96906,5.94674z" fill="#b3b3b3" stroke="none" stroke-linejoin="miter"/></g><g><path d="M263.5101,192.77091l-0.24103,-5.94013l6.06064,2.72902z" fill="none" stroke="#000000" stroke-linejoin="round"/><path d="M263.5101,192.77091l-0.24103,-5.94013l6.06064,2.72902z" fill="#b3b3b3" stroke="none" stroke-linejoin="miter"/></g><g><path d="M216.44616,184.50451l-0.83708,5.88579l-5.46726,-3.77998z" fill="none" stroke="#000000" stroke-linejoin="round"/><path d="M216.44616,184.50451l-0.83708,5.88579l-5.46726,-3.77998z" fill="#b3b3b3" stroke="none" stroke-linejoin="miter"/></g><g data-paper-data="{&quot;index&quot;:null}"><path d="M228.2921,153.22166l-3.2181,4.99871l-3.38965,-5.71747z" fill="none" stroke="#000000" stroke-linejoin="round"/><path d="M228.2921,153.22166l-3.2181,4.99871l-3.38965,-5.71747z" fill="#b3b3b3" stroke="none" stroke-linejoin="miter"/></g></g><g stroke-width="2"><path d="M268.30071,208.0853h-55.62097v-14.25h55.62097z" fill="none" stroke="#000000" stroke-linejoin="round"/><path d="M268.30071,208.0853h-55.62097v-14.25h55.62097z" fill="#39b54a" stroke="none" stroke-linejoin="miter"/></g><path d="M266.23216,206.01676h-10.1129v-10.1129h10.1129z" fill="#ffffff" stroke="none" stroke-width="1" stroke-linejoin="miter"/><path d="M266.23216,202.79902h-3.90726v-3.90726h3.90726z" fill="#000000" stroke="none" stroke-width="1" stroke-linejoin="miter"/><path d="M252.44184,206.01676h-3.21774v-10.1129h3.21774z" fill="#3ac54d" stroke="none" stroke-width="1" stroke-linejoin="miter"/><path d="M245.54668,206.01676h-3.21774v-10.1129h3.21774z" fill="#3ac54d" stroke="none" stroke-width="1" stroke-linejoin="miter"/><path d="M238.65151,206.01676h-3.21774v-10.1129h3.21774z" fill="#3ac54d" stroke="none" stroke-width="1" stroke-linejoin="miter"/><path d="M231.75635,206.01676h-3.21774v-10.1129h3.21774z" fill="#3ac54d" stroke="none" stroke-width="1" stroke-linejoin="miter"/><path d="M224.86119,206.01676h-3.21774v-10.1129h3.21774z" fill="#3ac54d" stroke="none" stroke-width="1" stroke-linejoin="miter"/><path d="M217.96603,206.01676h-3.21774v-10.1129h3.21774z" fill="#3ac54d" stroke="none" stroke-width="1" stroke-linejoin="miter"/></g></g></svg>