<svg version="1.1" xmlns="http://www.w3.org/2000/svg" xmlns:xlink="http://www.w3.org/1999/xlink" width="78.5" height="55.00103" viewBox="0,0,78.5,55.00103"><g transform="translate(-201.55,-136.67161)"><g data-paper-data="{&quot;isPaintingLayer&quot;:true}" fill-rule="nonzero" stroke-linecap="butt" stroke-miterlimit="10" stroke-dasharray="" stroke-dashoffset="0" style="mix-blend-mode: normal"><path d="M243.05,175.17366v-7h21v7z" fill="#d68815" stroke="#000000" stroke-width="2" stroke-linejoin="miter"/><g><path d="M246.80762,141.40646l13.39985,8.96577l-13.63367,8.60603" fill="none" stroke="#000000" stroke-width="8" stroke-linejoin="round"/><path d="M260.09057,159.15813l-13.39985,-8.96577l13.63367,-8.60603" fill="none" stroke="#000000" stroke-width="8" stroke-linejoin="round"/><path d="M246.80762,141.40646l13.39985,8.96577l-13.63367,8.60603" fill="none" stroke="#b5b5b5" stroke-width="4" stroke-linejoin="round"/><path d="M260.09057,159.15813l-13.39985,-8.96577l13.63367,-8.60603" fill="none" stroke="#b5b5b5" stroke-width="4" stroke-linejoin="round"/><path d="M245.71394,143.08181l15.65918,0.20838" fill="none" stroke="#000000" stroke-width="2" stroke-linejoin="miter"/><path d="M244.42421,142.72664l0.05396,-4.05503l18.24763,0.24282l-0.05396,4.05503z" fill="none" stroke="#000000" stroke-width="4" stroke-linejoin="round"/><path d="M244.42421,142.72664l0.05396,-4.05503l18.24763,0.24282l-0.05396,4.05503z" fill="#f59c18" stroke="none" stroke-width="1" stroke-linejoin="miter"/><path d="M244.42421,142.72664l0.01799,-1.35168l18.24763,0.24282l-0.01798,1.35168z" fill="#d68815" stroke="none" stroke-width="1" stroke-linejoin="miter"/><path d="M249.05,154.17571h9c3.31371,0 6,2.68629 6,6v8h-21v-8c0,-3.31371 2.68629,-6 6,-6z" fill="#f59c18" stroke="#000000" stroke-width="2" stroke-linejoin="miter"/><path d="M254.05,164.1757v-5h5v5z" fill="#ffffff" stroke="#ffffff" stroke-width="2" stroke-linejoin="round"/><path d="M256.05,163.1757v-3h3v3z" fill="#000000" stroke="none" stroke-width="1" stroke-linejoin="miter"/></g><path d="M213.05,178.67264v-7h21v7z" fill="#d68815" stroke="#000000" stroke-width="2" stroke-linejoin="miter"/><g><path d="M216.80762,144.90544l13.39985,8.96577l-13.63367,8.60603" fill="none" stroke="#000000" stroke-width="8" stroke-linejoin="round"/><path d="M230.09057,162.65711l-13.39985,-8.96577l13.63367,-8.60603" fill="none" stroke="#000000" stroke-width="8" stroke-linejoin="round"/><path d="M216.80762,144.90544l13.39985,8.96577l-13.63367,8.60603" fill="none" stroke="#b5b5b5" stroke-width="4" stroke-linejoin="round"/><path d="M230.09057,162.65711l-13.39985,-8.96577l13.63367,-8.60603" fill="none" stroke="#b5b5b5" stroke-width="4" stroke-linejoin="round"/><path d="M215.71394,146.58079l15.65918,0.20838" fill="none" stroke="#000000" stroke-width="2" stroke-linejoin="miter"/><path d="M214.42421,146.22562l0.05396,-4.05503l18.24763,0.24282l-0.05396,4.05503z" fill="none" stroke="#000000" stroke-width="4" stroke-linejoin="round"/><path d="M214.42421,146.22562l0.05396,-4.05503l18.24763,0.24282l-0.05396,4.05503z" fill="#f59c18" stroke="none" stroke-width="1" stroke-linejoin="miter"/><path d="M214.42421,146.22562l0.01799,-1.35168l18.24763,0.24282l-0.01798,1.35168z" fill="#d68815" stroke="none" stroke-width="1" stroke-linejoin="miter"/><path d="M219.05,157.67469h9c3.31371,0 6,2.68629 6,6v8h-21v-8c0,-3.31371 2.68629,-6 6,-6z" fill="#f59c18" stroke="#000000" stroke-width="2" stroke-linejoin="miter"/><path d="M224.05,167.67468v-5h5v5z" fill="#ffffff" stroke="#ffffff" stroke-width="2" stroke-linejoin="round"/><path d="M226.05,166.67468v-3h3v3z" fill="#000000" stroke="none" stroke-width="1" stroke-linejoin="miter"/></g><path d="M229.25,190.07264v-7h21v7z" fill="#d68815" stroke="#000000" stroke-width="2" stroke-linejoin="miter"/><g><path d="M233.00762,156.30543l13.39985,8.96577l-13.63367,8.60603" fill="none" stroke="#000000" stroke-width="8" stroke-linejoin="round"/><path d="M246.29057,174.05711l-13.39985,-8.96577l13.63367,-8.60603" fill="none" stroke="#000000" stroke-width="8" stroke-linejoin="round"/><path d="M233.00762,156.30543l13.39985,8.96577l-13.63367,8.60603" fill="none" stroke="#b5b5b5" stroke-width="4" stroke-linejoin="round"/><path d="M246.29057,174.05711l-13.39985,-8.96577l13.63367,-8.60603" fill="none" stroke="#b5b5b5" stroke-width="4" stroke-linejoin="round"/><path d="M231.91394,157.98079l15.65918,0.20838" fill="none" stroke="#000000" stroke-width="2" stroke-linejoin="miter"/><path d="M230.62421,157.62562l0.05396,-4.05503l18.24763,0.24282l-0.05396,4.05503z" fill="none" stroke="#000000" stroke-width="4" stroke-linejoin="round"/><path d="M230.62421,157.62562l0.05396,-4.05503l18.24763,0.24282l-0.05396,4.05503z" fill="#f59c18" stroke="none" stroke-width="1" stroke-linejoin="miter"/><path d="M230.62421,157.62562l0.01799,-1.35168l18.24763,0.24282l-0.01798,1.35168z" fill="#d68815" stroke="none" stroke-width="1" stroke-linejoin="miter"/><path d="M235.25,169.07469h9c3.31371,0 6,2.68629 6,6v8h-21v-8c0,-3.31371 2.68629,-6 6,-6z" fill="#f59c18" stroke="#000000" stroke-width="2" stroke-linejoin="miter"/><path d="M240.25,179.07468v-5h5v5z" fill="#ffffff" stroke="#ffffff" stroke-width="2" stroke-linejoin="round"/><path d="M242.25,178.07468v-3h3v3z" fill="#000000" stroke="none" stroke-width="1" stroke-linejoin="miter"/></g><path d="M202.55,190.67264v-7h21v7z" fill="#d68815" stroke="#000000" stroke-width="2" stroke-linejoin="miter"/><g><path d="M206.30762,156.90544l13.39985,8.96577l-13.63367,8.60603" fill="none" stroke="#000000" stroke-width="8" stroke-linejoin="round"/><path d="M219.59057,174.65711l-13.39985,-8.96577l13.63367,-8.60603" fill="none" stroke="#000000" stroke-width="8" stroke-linejoin="round"/><path d="M206.30762,156.90544l13.39985,8.96577l-13.63367,8.60603" fill="none" stroke="#b5b5b5" stroke-width="4" stroke-linejoin="round"/><path d="M219.59057,174.65711l-13.39985,-8.96577l13.63367,-8.60603" fill="none" stroke="#b5b5b5" stroke-width="4" stroke-linejoin="round"/><path d="M205.21394,158.58079l15.65918,0.20838" fill="none" stroke="#000000" stroke-width="2" stroke-linejoin="miter"/><path d="M203.92421,158.22562l0.05396,-4.05503l18.24763,0.24282l-0.05396,4.05503z" fill="none" stroke="#000000" stroke-width="4" stroke-linejoin="round"/><path d="M203.92421,158.22562l0.05396,-4.05503l18.24763,0.24282l-0.05396,4.05503z" fill="#f59c18" stroke="none" stroke-width="1" stroke-linejoin="miter"/><path d="M203.92421,158.22562l0.01799,-1.35168l18.24763,0.24282l-0.01798,1.35168z" fill="#d68815" stroke="none" stroke-width="1" stroke-linejoin="miter"/><path d="M208.55,169.67469h9c3.31371,0 6,2.68629 6,6v8h-21v-8c0,-3.31371 2.68629,-6 6,-6z" fill="#f59c18" stroke="#000000" stroke-width="2" stroke-linejoin="miter"/><path d="M213.55,179.67468v-5h5v5z" fill="#ffffff" stroke="#ffffff" stroke-width="2" stroke-linejoin="round"/><path d="M215.55,178.67468v-3h3v3z" fill="#000000" stroke="none" stroke-width="1" stroke-linejoin="miter"/></g><path d="M258.05,190.37264v-7h21v7z" fill="#d68815" stroke="#000000" stroke-width="2" stroke-linejoin="miter"/><g><path d="M261.80762,156.60544l13.39985,8.96577l-13.63367,8.60603" fill="none" stroke="#000000" stroke-width="8" stroke-linejoin="round"/><path d="M275.09057,174.35711l-13.39985,-8.96577l13.63367,-8.60603" fill="none" stroke="#000000" stroke-width="8" stroke-linejoin="round"/><path d="M261.80762,156.60544l13.39985,8.96577l-13.63367,8.60603" fill="none" stroke="#b5b5b5" stroke-width="4" stroke-linejoin="round"/><path d="M275.09057,174.35711l-13.39985,-8.96577l13.63367,-8.60603" fill="none" stroke="#b5b5b5" stroke-width="4" stroke-linejoin="round"/><path d="M260.71394,158.28079l15.65918,0.20838" fill="none" stroke="#000000" stroke-width="2" stroke-linejoin="miter"/><path d="M259.42421,157.92562l0.05396,-4.05503l18.24763,0.24282l-0.05396,4.05503z" fill="none" stroke="#000000" stroke-width="4" stroke-linejoin="round"/><path d="M259.42421,157.92562l0.05396,-4.05503l18.24763,0.24282l-0.05396,4.05503z" fill="#f59c18" stroke="none" stroke-width="1" stroke-linejoin="miter"/><path d="M259.42421,157.92562l0.01799,-1.35168l18.24763,0.24282l-0.01798,1.35168z" fill="#d68815" stroke="none" stroke-width="1" stroke-linejoin="miter"/><path d="M264.05,169.37469h9c3.31371,0 6,2.68629 6,6v8h-21v-8c0,-3.31371 2.68629,-6 6,-6z" fill="#f59c18" stroke="#000000" stroke-width="2" stroke-linejoin="miter"/><path d="M269.05,179.37468v-5h5v5z" fill="#ffffff" stroke="#ffffff" stroke-width="2" stroke-linejoin="round"/><path d="M271.05,178.37468v-3h3v3z" fill="#000000" stroke="none" stroke-width="1" stroke-linejoin="miter"/></g></g></g></svg>