<svg version="1.1" xmlns="http://www.w3.org/2000/svg" xmlns:xlink="http://www.w3.org/1999/xlink" width="120.23386" height="536.37311" viewBox="0,0,120.23386,536.37311"><g transform="translate(-184.88309,-11.62689)"><g stroke="none" stroke-miterlimit="10"><path d="M226.56196,135h31.60807c1.74567,0 3.16081,2.68629 3.16081,6v362h-37.92968v-362c0,-3.31371 1.41514,-6 3.16081,-6z" fill="#a3d6c1" stroke-width="1"/><path d="M224.27375,139.38117c0.0522,0 0.10234,0.00254 0.15048,0.00742c0.22987,-0.89952 0.49467,-1.7616 0.83641,-2.47634c0.25158,-0.52617 0.79807,-0.77126 1.0536,-1.29455c0.2857,-0.58506 0.23906,-1.35828 0.5268,-1.94182c0.82184,-1.6667 2.25304,-3.18867 3.26262,-4.70609c0.46372,-0.69697 0.69476,-1.64856 1.27268,-2.20189c1.1501,-1.10116 3.72095,-1.61629 5.12415,-2.19098c1.75642,-0.71936 2.94809,-1.51976 4.57906,-2.50759c2.11927,-1.28357 4.75537,-1.74695 7.01057,-2.6706c1.24829,-0.49586 2.59332,-0.491 3.89312,-0.70942c1.0307,-0.1732 1.96062,-0.85808 2.9553,-1.2324c0.39538,-0.14879 0.87975,-0.07292 1.19747,-0.39811c0.41056,-0.42024 0.50594,-1.16398 0.83452,-1.68175c0.73527,-1.1586 1.38631,-2.39931 1.98661,-3.66993c0.26784,-0.56691 0.76728,-0.97514 0.9322,-1.59853c0.15472,-0.58483 -0.15923,-1.25354 -0.02128,-1.84468c0.23105,-0.99013 0.80618,-1.81412 1.10018,-2.77873c0.59594,-1.95532 1.27591,-4.75405 1.5156,-6.81778c0.17243,-1.48464 -0.14879,-3.01056 0.00005,-4.49905c0.35851,-3.5855 0.49007,-6.88702 0.52675,-10.51709c-0.69266,-2.55164 -0.15105,-4.72044 -0.59196,-7.28349c-0.18276,-1.0624 -0.7736,-1.97073 -0.98168,-3.02607c-0.1267,-0.64259 0.08576,-1.33205 -0.00608,-1.98354c-0.30253,-2.14601 -1.23114,-4.70914 -1.99097,-6.67335c-1.00584,-2.60017 -3.56087,-3.74321 -5.37168,-5.2148c-0.37899,-0.30799 -0.53685,-0.97713 -0.95526,-1.19487c-2.29193,-1.19272 -4.58886,-0.65568 -6.92457,-1.11854c-0.54821,-0.10864 -1.03322,-0.53108 -1.5804,-0.64727c-1.47356,-0.3129 -3.3558,0.01642 -4.84609,0c-2.33035,0.95442 -5.2356,0.71603 -7.42059,2.36831c-0.42298,0.31986 -0.62734,0.98134 -1.0536,1.29455c-0.51318,0.37706 -1.1572,0.40119 -1.69417,0.7244c-2.6956,1.62253 -4.86145,5.40098 -6.28795,8.42039c-0.26784,0.56691 -0.73834,0.98784 -0.9322,1.59853c-0.24094,0.75902 0.37294,2.3767 0.51573,2.903c0.19785,0.72927 0.47354,1.43627 0.57738,2.19433c0.07802,0.56958 -0.18897,1.18448 -0.0395,1.7321c0.17945,0.65747 0.72297,1.08005 0.97619,1.69979c0.05199,0.12725 1.07594,3.92408 1.135,4.14217c0.15558,0.79563 0.21184,1.63092 0.46674,2.38688c1.44837,4.29537 5.59839,4.86191 8.8048,4.86191c1.16767,0 5.08623,-0.50182 5.80962,0.67201c0.51882,0.8419 -0.23411,2.09386 -0.29521,3.14719c-0.08094,1.39531 -0.22255,2.80698 -0.57738,4.13615c-0.48024,1.79894 -0.86782,4.59719 -1.70951,6.16447c-1.7313,3.22378 -4.65773,5.39273 -7.37974,7.06935c-1.7152,1.05016 -3.71537,2.34488 -5.64603,2.73903c-1.28196,0.26172 -2.59903,0.02089 -3.89857,0.02089c-1.56666,0 -3.40908,0.28489 -4.95217,-0.02089c-0.54821,-0.10864 -1.03322,-0.53108 -1.5804,-0.64727c-1.21125,-0.2572 -2.47019,0.20865 -3.68761,0c-0.54997,-0.09426 -1.03266,-0.53511 -1.5804,-0.64727c-1.55089,-0.31759 -3.2004,-0.28005 -4.74121,-0.64727c-0.71321,-0.16998 -1.4293,-0.42897 -2.06183,-0.86805c-0.43244,-0.30017 -0.62898,-0.97797 -1.0536,-1.29455c-0.41521,-0.30956 -0.94488,-0.29579 -1.39201,-0.52878c-1.85593,-0.96706 -3.54971,-1.87981 -5.45641,-2.70759c-1.68283,-2.06767 -4.33655,-2.34723 -5.69593,-5.05669c-1.65337,-3.29542 -1.7927,-7.96045 -2.28689,-11.59516c-0.46734,-3.43725 -1.24006,-6.93946 -1.591,-10.45612c-0.6582,-6.59565 1.05706,-13.24277 1.05706,-19.77535c0.46795,-2.3369 0.9148,-5.36288 1.68312,-7.57693c0.2554,-0.73599 0.78724,-1.28611 1.07679,-2.00276c0.97357,-2.40962 1.72263,-5.18349 2.59849,-7.67095c0.24822,-0.70495 0.2788,-1.53232 0.62324,-2.1733c0.44227,-0.82302 1.17024,-1.35744 1.68222,-2.117c1.27473,-1.89116 2.25389,-3.97688 3.93604,-5.46501c1.56143,-1.38133 3.25285,-2.34834 4.93265,-3.37726c2.04201,-1.25079 3.75338,-3.30398 5.82312,-4.54741c1.70764,-1.0259 3.08433,-1.23856 4.70913,-2.57031c2.01976,-0.85958 4.34273,-1.61603 6.13395,-3.09774c0.44227,-0.36585 0.67274,-1.0702 1.14681,-1.36993c0.81586,-0.51582 1.78691,-0.55821 2.62568,-1.01521c0.86053,-0.46885 1.55197,-1.36441 2.44083,-1.74523c0.54177,-0.23211 1.15499,0.07767 1.721,-0.03782c3.18773,-0.65046 6.30546,-2.58778 9.48242,-3.23636c1.88213,-0.38424 3.90944,0.29499 5.79481,0c0.55085,-0.08618 1.03219,-0.53863 1.5804,-0.64727c2.91668,-0.57798 6.20821,-0.02089 9.16658,-0.02089c2.14337,0.02445 3.79627,0.98508 5.92458,1.30242c3.69748,0.55131 7.91597,1.62943 11.42961,3.34792c1.93171,0.94478 3.81342,2.41451 5.77327,3.21561c0.85984,0.35146 1.81546,0.27772 2.66299,0.67179c0.61735,0.28704 1.06467,0.97315 1.65504,1.33591c2.02038,1.24148 4.40792,1.91111 6.38822,3.27933c2.36734,1.63563 4.26899,4.14795 6.51135,5.98472c1.22973,1.49904 2.92305,3.13307 3.92105,4.83615c0.45886,0.78304 0.61797,1.78626 1.0536,2.58909c0.29247,0.53901 0.83824,0.83156 1.1055,1.38999c0.46021,0.96158 1.05573,4.34252 1.36251,5.18704c0.3554,0.97837 0.9734,1.78713 1.3477,2.75479c0.51621,1.33453 0.46775,2.9002 0.63751,4.36299c0.29954,2.58101 0.75751,5.20003 1.05391,7.77035c0.59132,5.1279 0.9132,10.49441 1.03502,15.72462c0.07832,3.36302 -0.50313,6.547 -0.50861,9.91048c-0.65246,3.2653 -1.13508,7.06486 -2.20992,10.16602c-0.24807,0.71573 -0.80163,1.22816 -1.0536,1.94182c-0.56553,1.60176 -0.51943,3.4522 -1.02282,5.08496c-0.61763,2.00328 -1.82464,3.65107 -2.7489,5.46749c-0.96726,1.90094 -0.9862,3.18555 -2.29625,4.82441c-0.47369,0.59258 -1.14883,0.88286 -1.6767,1.40173c-0.77567,0.76245 -1.33206,1.82583 -2.1072,2.58909c-1.67926,1.65352 -3.58902,2.74461 -5.44194,4.03181c-2.12266,1.47458 -3.95371,3.6817 -6.04276,5.31075c-1.57517,0.77802 -3.08741,1.73743 -4.65031,2.55194c-0.44711,0.23302 -0.97679,0.21921 -1.39201,0.52878c-0.42462,0.31657 -0.62734,0.98134 -1.0536,1.29455c-0.96151,0.70648 -2.14907,0.9482 -3.01823,1.81672c-1.09531,1.0945 -2.06573,2.54928 -3.06451,3.77646c-0.79522,0.97708 -1.93657,1.64134 -2.41921,2.88941c-0.28105,0.72676 -0.20988,1.59884 -0.43766,2.35324c-0.79723,2.64042 -2.1821,5.26989 -2.5692,8.11233c-0.16228,1.1916 0.01701,2.41627 0.01701,3.62443c0,0 0,1.61818 -1.317,1.61818c-0.00172,0 -0.00343,0 -0.00515,-0.00001c-0.0662,0.11066 -0.1172,0.17333 -0.1172,0.17333c-0.49362,0.54844 -0.856,1.36395 -1.48087,1.64532c-0.75167,0.33847 -1.60892,-0.04673 -2.40024,0.10228c-1.07246,0.20194 -2.13677,0.46752 -3.21085,0.65604c-0.71674,0.1258 -1.38857,0.53897 -2.1072,0.64727c-4.49347,0.6772 -9.49996,0.05048 -13.94048,-0.63096c-1.25833,-0.1931 -2.51112,-0.43736 -3.76579,-0.66358c-0.59422,-0.10714 -1.23236,0.17966 -1.80113,-0.05731c-2.01137,-0.83799 -3.71204,-2.99652 -4.85125,-5.05375c-1.51776,-1.86485 -2.53438,-3.96737 -3.0534,-6.32998c-0.00673,-0.00803 -0.01345,-0.01617 -0.02018,-0.02443c-0.55104,-0.67705 -0.44997,-1.3541 -0.27557,-1.7941c-0.06834,-0.62936 -0.10504,-1.27565 -0.11016,-1.93922v-0.64727c0,0 0,-1.61818 1.317,-1.61818z" fill="#a3d6c1" stroke-width="0.5"/><path d="M210,180.00001h60c3.31371,0 6,2.68629 6,6v362h-72v-362c0,-3.31371 2.68629,-6 6,-6z" fill="#a3d6c1" stroke-width="1"/></g></g></svg>