<svg version="1.1" xmlns="http://www.w3.org/2000/svg" xmlns:xlink="http://www.w3.org/1999/xlink" width="538.94879" height="53.81494" viewBox="0,0,538.94879,53.81494"><g transform="translate(29.4744,-153.09253)"><g data-paper-data="{&quot;isPaintingLayer&quot;:true}" fill-rule="nonzero" stroke-linecap="butt" stroke-linejoin="miter" stroke-miterlimit="10" stroke-dasharray="" stroke-dashoffset="0" style="mix-blend-mode: normal"><path d="M299.52439,156.69768h19.44v30.46h14.61v16.77h-34z" fill="none" stroke="#ffffff" stroke-width="4"/><path d="M338.65439,156.69768h34v15.78h-14.56v2.55h11.74v11.22h-11.74v2.67h15.46v15h-34.9z" fill="none" stroke="#ffffff" stroke-width="4"/><path d="M375.90439,156.69768h21l7,25h0.13l7.44,-25h19l-18.07,47.23h-18.43z" fill="none" stroke="#ffffff" stroke-width="4"/><path d="M433.69439,156.69768h34v15.78h-14.56v2.55h11.74v11.22h-11.74v2.67h15.46v15h-34.9z" fill="none" stroke="#ffffff" stroke-width="4"/><path d="M473.42439,156.69768h19.44v30.46h14.61v16.77h-34.05z" fill="none" stroke="#ffffff" stroke-width="4"/><path d="M299.52439,156.69768h19.44v30.46h14.61v16.77h-34z" fill="#000000" stroke="none" stroke-width="1"/><path d="M338.65439,156.69768h34v15.78h-14.56v2.55h11.74v11.22h-11.74v2.67h15.46v15h-34.9z" fill="#000000" stroke="none" stroke-width="1"/><path d="M375.90439,156.69768h21l7,25h0.13l7.44,-25h19l-18.07,47.23h-18.43z" fill="#000000" stroke="none" stroke-width="1"/><path d="M433.69439,156.69768h34v15.78h-14.56v2.55h11.74v11.22h-11.74v2.67h15.46v15h-34.9z" fill="#000000" stroke="none" stroke-width="1"/><path d="M473.42439,156.69768h19.44v30.46h14.61v16.77h-34.05z" fill="#000000" stroke="none" stroke-width="1"/><path d="M0.68605,155.09253c5.47364,0 11.15134,1.20036 14.22426,2.79684v17.83735c-3.71366,-1.9285 -7.82009,-2.97975 -12.0036,-3.07292c-6.80604,0 -10.47914,3.26498 -10.47914,7.74232c0,4.47734 3.6731,7.6823 10.47914,7.6823c4.29933,-0.03461 8.52284,-1.13585 12.29168,-3.20496v17.03311c-3.13294,1.6685 -8.94268,3.0009 -14.6924,3.0009c-16.15684,0 -27.98039,-10.55116 -27.98039,-24.90747c0,-14.3563 11.72752,-24.90747 28.16044,-24.90747z" fill="none" stroke="#ffffff" stroke-width="4"/><path d="M20.58802,182.19666v-26.40792h19.90197v25.03951c0,4.53736 1.46444,7.74232 6.07382,7.74232c4.40532,0 6.0018,-2.79684 6.0018,-7.6703v-25.07552h17.84935v26.09582c0,7.41822 -1.86056,12.08762 -4.40532,15.16054c-4.40532,5.3416 -12.42372,7.81434 -20.63419,7.81434c-8.47454,0 -15.95278,-2.6768 -20.22606,-7.6823c-2.42473,-2.78483 -4.56137,-7.13014 -4.56137,-15.0165z" fill="none" stroke="#ffffff" stroke-width="4"/><path d="M76.41675,184.53736c6.48194,4.21326 13.0239,5.73772 15.89276,5.73772c2.0046,0 2.47274,-0.79224 2.47274,-1.59648c0,-0.80424 -0.60018,-1.3324 -1.46444,-1.53646c-2.3407,-0.60018 -9.08672,-1.3324 -14.03221,-5.6777c-2.86906,-2.54678 -4.43862,-6.25023 -4.27328,-10.08302c0,-9.6869 7.47824,-16.28888 19.6979,-16.28888c5.95246,0.01446 11.8318,1.31235 17.23717,3.80514v15.82074c-4.54214,-2.38977 -9.518,-3.84294 -14.63239,-4.27328c-1.93258,0 -2.46074,0.73222 -2.46074,1.47644c0,0.9963 0.73222,1.39242 1.52446,1.6685c2.0046,0.60018 8.69061,1.40442 13.43203,5.13754c3.19122,2.49863 5.00114,6.36811 4.87346,10.41912c0,9.27878 -7.47824,15.76072 -20.16604,15.76072c-6.08582,0 -13.36,-1.47644 -18.10143,-3.93718z" fill="none" stroke="#ffffff" stroke-width="4"/><path d="M129.44865,172.24568h-13.42002v-16.42092h46.81403v16.42092h-13.49204v31.92957h-19.90197z" fill="none" stroke="#ffffff" stroke-width="4"/><path d="M192.63559,155.09253c15.16054,0 26.97209,10.87526 26.97209,24.90747c0,14.03221 -11.81154,24.90747 -26.97209,24.90747c-15.16054,0 -26.98409,-10.88726 -26.98409,-24.90747c0,-14.0202 11.82354,-24.90747 26.98409,-24.90747zM192.63559,187.81434c4.13012,0 7.47824,-3.34812 7.47824,-7.47824c0,-4.13012 -3.34812,-7.47824 -7.47824,-7.47824c-4.13012,0 -7.47824,3.34812 -7.47824,7.47824c-0.00319,1.98433 0.78367,3.8883 2.1868,5.29144c1.40314,1.40314 3.30711,2.19 5.29144,2.1868z" fill="none" stroke="#ffffff" stroke-width="4"/><path d="M224.43312,155.82475h18.55756l9.60288,12.14764l9.29078,-12.14764h18.0054v48.35049h-19.81794v-23.57507h-0.13204l-8.61858,11.3554l-8.81064,-11.3554h-0.13204v23.57507h-17.94538z" fill="none" stroke="#ffffff" stroke-width="4"/><path d="M0.68605,155.09253c5.47364,0 11.15134,1.20036 14.22426,2.79684v17.83735c-3.71366,-1.9285 -7.82009,-2.97975 -12.0036,-3.07292c-6.80604,0 -10.47914,3.26498 -10.47914,7.74232c0,4.47734 3.6731,7.6823 10.47914,7.6823c4.29933,-0.03461 8.52284,-1.13585 12.29168,-3.20496v17.03311c-3.13294,1.6685 -8.94268,3.0009 -14.6924,3.0009c-16.15684,0 -27.98039,-10.55116 -27.98039,-24.90747c0,-14.3563 11.72752,-24.90747 28.16044,-24.90747z" fill="#000000" stroke="none" stroke-width="1"/><path d="M20.58802,182.19666v-26.40792h19.90197v25.03951c0,4.53736 1.46444,7.74232 6.07382,7.74232c4.40532,0 6.0018,-2.79684 6.0018,-7.6703v-25.07552h17.84935v26.09582c0,7.41822 -1.86056,12.08762 -4.40532,15.16054c-4.40532,5.3416 -12.42372,7.81434 -20.63419,7.81434c-8.47454,0 -15.95278,-2.6768 -20.22606,-7.6823c-2.42473,-2.78483 -4.56137,-7.13014 -4.56137,-15.0165z" fill="#000000" stroke="none" stroke-width="1"/><path d="M76.41675,184.53736c6.48194,4.21326 13.0239,5.73772 15.89276,5.73772c2.0046,0 2.47274,-0.79224 2.47274,-1.59648c0,-0.80424 -0.60018,-1.3324 -1.46444,-1.53646c-2.3407,-0.60018 -9.08672,-1.3324 -14.03221,-5.6777c-2.86906,-2.54678 -4.43862,-6.25023 -4.27328,-10.08302c0,-9.6869 7.47824,-16.28888 19.6979,-16.28888c5.95246,0.01446 11.8318,1.31235 17.23717,3.80514v15.82074c-4.54214,-2.38977 -9.518,-3.84294 -14.63239,-4.27328c-1.93258,0 -2.46074,0.73222 -2.46074,1.47644c0,0.9963 0.73222,1.39242 1.52446,1.6685c2.0046,0.60018 8.69061,1.40442 13.43203,5.13754c3.19122,2.49863 5.00114,6.36811 4.87346,10.41912c0,9.27878 -7.47824,15.76072 -20.16604,15.76072c-6.08582,0 -13.36,-1.47644 -18.10143,-3.93718z" fill="#000000" stroke="none" stroke-width="1"/><path d="M129.44865,172.24568h-13.42002v-16.42092h46.81403v16.42092h-13.49204v31.92957h-19.90197z" fill="#000000" stroke="none" stroke-width="1"/><path d="M192.63559,155.09253c15.16054,0 26.97209,10.87526 26.97209,24.90747c0,14.03221 -11.81154,24.90747 -26.97209,24.90747c-15.16054,0 -26.98409,-10.88726 -26.98409,-24.90747c0,-14.0202 11.82354,-24.90747 26.98409,-24.90747zM192.63559,187.81434c4.13012,0 7.47824,-3.34812 7.47824,-7.47824c0,-4.13012 -3.34812,-7.47824 -7.47824,-7.47824c-4.13012,0 -7.47824,3.34812 -7.47824,7.47824c-0.00319,1.98433 0.78367,3.8883 2.1868,5.29144c1.40314,1.40314 3.30711,2.19 5.29144,2.1868z" fill="#000000" stroke="none" stroke-width="1"/><path d="M224.43312,155.82475h18.55756l9.60288,12.14764l9.29078,-12.14764h18.0054v48.35049h-19.81794v-23.57507h-0.13204l-8.61858,11.3554l-8.81064,-11.3554h-0.13204v23.57507h-17.94538z" fill="#000000" stroke="none" stroke-width="1"/></g></g></svg>