<svg version="1.1" xmlns="http://www.w3.org/2000/svg" xmlns:xlink="http://www.w3.org/1999/xlink" width="61.71634" height="43.14903" viewBox="0,0,61.71634,43.14903"><g transform="translate(-207.65161,-151.95442)"><g data-paper-data="{&quot;isPaintingLayer&quot;:true}" fill-rule="nonzero" stroke-width="2" stroke-linecap="butt" stroke-miterlimit="10" stroke-dasharray="" stroke-dashoffset="0" style="mix-blend-mode: normal"><path d="M212.04325,181.70223l36.43356,-28.74781l5.17335,9.07577l-34.24177,29.00625z" data-paper-data="{&quot;index&quot;:null}" fill="none" stroke="#000000" stroke-linejoin="round"/><path d="M212.04326,181.70222l36.43356,-28.74781l5.48646,9.1127l-34.55489,28.96933z" data-paper-data="{&quot;index&quot;:null}" fill="#39b54a" stroke="none" stroke-linejoin="miter"/><path d="M246.14423,156.07405l2.28646,-1.4073l4.42294,7.18603l-2.28646,1.4073z" data-paper-data="{&quot;index&quot;:null}" fill="#3ac54d" stroke="none" stroke-linejoin="miter"/><path d="M241.22237,159.67366l2.28646,-1.4073l4.42294,7.18603l-2.28646,1.4073z" data-paper-data="{&quot;index&quot;:null}" fill="#3ac54d" stroke="none" stroke-linejoin="miter"/><path d="M236.99736,163.19672l2.28646,-1.4073l4.42294,7.18603l-2.28646,1.40731z" data-paper-data="{&quot;index&quot;:null}" fill="#3ac54d" stroke="none" stroke-linejoin="miter"/><path d="M232.52665,167.00828l2.28647,-1.40731l4.42294,7.18603l-2.28646,1.40731z" data-paper-data="{&quot;index&quot;:null}" fill="#3ac54d" stroke="none" stroke-linejoin="miter"/><path d="M227.82264,171.00396l2.28646,-1.4073l4.42294,7.18603l-2.28646,1.4073z" data-paper-data="{&quot;index&quot;:null}" fill="#3ac54d" stroke="none" stroke-linejoin="miter"/><path d="M222.98052,174.82463l2.28646,-1.4073l4.42294,7.18603l-2.28646,1.4073z" data-paper-data="{&quot;index&quot;:null}" fill="#3ac54d" stroke="none" stroke-linejoin="miter"/><path d="M215.93971,182.21342l44.84893,1.56056l1.56057,10.32947h-46.40949z" data-paper-data="{&quot;index&quot;:null}" fill="none" stroke="#000000" stroke-linejoin="round"/><path d="M215.93971,182.21342l45.07187,1.33763l1.33763,10.5524h-46.40949z" data-paper-data="{&quot;index&quot;:null}" fill="#39b54a" stroke="none" stroke-linejoin="miter"/><path d="M214.14049,184.049l-0.1568,-2.12588l3.46834,0.4244l0.1568,2.12587z" data-paper-data="{&quot;index&quot;:null}" fill="#39b54a" stroke="#000000" stroke-linejoin="miter"/><path d="M222.34722,189.70699l-3.1447,-9.5266l2.58748,-0.85412l3.1447,9.5266z" data-paper-data="{&quot;index&quot;:null}" fill="#3ac54d" stroke="none" stroke-linejoin="miter"/><path d="M215.14876,185.51242v-1.79589h1.30047v1.79589z" data-paper-data="{&quot;index&quot;:null}" fill="#39b54a" stroke="none" stroke-linejoin="miter"/><path d="M218.27552,191.50289l-3.1447,-9.5266l2.58747,-0.85412l3.1447,9.5266z" data-paper-data="{&quot;index&quot;:null}" fill="#3ac54d" stroke="none" stroke-linejoin="miter"/><path d="M226.10379,183.93939v8.43809h-8.43809z" data-paper-data="{&quot;index&quot;:null}" fill="#ffffff" stroke="none" stroke-linejoin="miter"/><path d="M220.86525,189.16834c0.5646,-0.5646 1.76981,-1.76981 1.76981,-1.76981v3.26017h-3.26017c0,0 0.97224,-0.97224 1.49036,-1.49036z" data-paper-data="{&quot;index&quot;:null}" fill="#000000" stroke="none" stroke-linejoin="miter"/><path d="M257.60654,184.71815l2.66671,-0.31153l0.97909,8.3811l-2.66671,0.31153z" data-paper-data="{&quot;index&quot;:null}" fill="#3ac54d" stroke="none" stroke-linejoin="miter"/><path d="M251.51289,184.94109l2.66671,-0.31153l0.97909,8.38109l-2.66671,0.31153z" data-paper-data="{&quot;index&quot;:null}" fill="#3ac54d" stroke="none" stroke-linejoin="miter"/><path d="M246.01375,184.79246l2.66671,-0.31153l0.97909,8.3811l-2.66671,0.31153z" data-paper-data="{&quot;index&quot;:null}" fill="#3ac54d" stroke="none" stroke-linejoin="miter"/><path d="M240.14305,184.56953l2.66671,-0.31153l0.97909,8.38109l-2.66671,0.31153z" data-paper-data="{&quot;index&quot;:null}" fill="#3ac54d" stroke="none" stroke-linejoin="miter"/><path d="M233.9751,184.34658l2.66671,-0.31153l0.97909,8.3811l-2.66672,0.31153z" data-paper-data="{&quot;index&quot;:null}" fill="#3ac54d" stroke="none" stroke-linejoin="miter"/><path d="M227.80714,184.34658l2.66672,-0.31153l0.97908,8.3811l-2.66671,0.31153z" data-paper-data="{&quot;index&quot;:null}" fill="#3ac54d" stroke="none" stroke-linejoin="miter"/><path d="M214.46732,181.98805l6.62429,-5.22688l5.22688,6.62429z" data-paper-data="{&quot;index&quot;:null}" fill="#ffffff" stroke="none" stroke-linejoin="miter"/><path d="M218.96696,182.52545c-0.72769,-0.08581 -2.09319,-0.24681 -2.09319,-0.24681l2.55939,-2.01948l2.01947,2.55938c0,0 -1.69269,-0.1996 -2.48567,-0.2931z" data-paper-data="{&quot;index&quot;:null}" fill="#000000" stroke="none" stroke-linejoin="miter"/><path d="M226.66517,182.91106v-1.05276h3.40599v1.05276z" data-paper-data="{&quot;index&quot;:null}" fill="#39b54a" stroke="#000000" stroke-linejoin="miter"/><path d="M225.58555,182.47119l0.29428,-1.0108l3.27022,0.9521l-0.29428,1.0108z" data-paper-data="{&quot;index&quot;:null}" fill="#39b54a" stroke="#000000" stroke-linejoin="miter"/><path d="M224.91323,181.60907l0.55259,-0.86313l1.35547,1.61408l-0.55258,0.86313z" data-paper-data="{&quot;index&quot;:null}" fill="#39b54a" stroke="#000000" stroke-linejoin="miter"/><path d="M215.18589,185.69201v-0.39014h1.18901v0.39014z" data-paper-data="{&quot;index&quot;:null}" fill="#39b54a" stroke="none" stroke-linejoin="miter"/><path d="M216.6622,186.05027l-0.61994,0.58822l-0.88354,-0.98892l0.58279,-0.56964z" data-paper-data="{&quot;index&quot;:null}" fill="#39b54a" stroke="none" stroke-linejoin="miter"/><g data-paper-data="{&quot;index&quot;:null}"><path d="M208.65162,188.41388l2.96906,-5.94674l3.56977,4.75394z" fill="none" stroke="#000000" stroke-linejoin="round"/><path d="M208.65162,188.41388l2.96906,-5.94674l3.56977,4.75394z" fill="#b3b3b3" stroke="none" stroke-linejoin="miter"/></g><g data-paper-data="{&quot;index&quot;:null}"><path d="M209.18007,190.59949l6.06064,-2.72902l-0.24103,5.94013z" fill="none" stroke="#000000" stroke-linejoin="round"/><path d="M209.18007,190.59949l6.06064,-2.72902l-0.24103,5.94013z" fill="#b3b3b3" stroke="none" stroke-linejoin="miter"/></g><g data-paper-data="{&quot;index&quot;:null}"><path d="M268.36796,187.65001l-5.46726,3.77998l-0.83708,-5.88579z" fill="none" stroke="#000000" stroke-linejoin="round"/><path d="M268.36796,187.65001l-5.46726,3.77998l-0.83708,-5.88579z" fill="#b3b3b3" stroke="none" stroke-linejoin="miter"/></g><g data-paper-data="{&quot;index&quot;:null}"><path d="M256.82543,153.54259l-3.38965,5.71747l-3.2181,-4.99871z" fill="none" stroke="#000000" stroke-linejoin="round"/><path d="M256.82543,153.54259l-3.38965,5.71747l-3.2181,-4.99871z" fill="#b3b3b3" stroke="none" stroke-linejoin="miter"/></g></g></g></svg>