<svg version="1.1" xmlns="http://www.w3.org/2000/svg" xmlns:xlink="http://www.w3.org/1999/xlink" width="57.85641" height="64.53614" viewBox="0,0,57.85641,64.53614"><g transform="translate(-204.14359,-115.46386)"><g data-paper-data="{&quot;isPaintingLayer&quot;:true}" fill-rule="nonzero" stroke-linecap="butt" stroke-miterlimit="10" stroke-dasharray="" stroke-dashoffset="0" style="mix-blend-mode: normal"><path d="M225,165v-14h18v14z" fill="#000000" stroke="none" stroke-width="1" stroke-linejoin="miter"/><path d="M261,165v14h-42v-14h32v-3c0,-1.10457 0.89543,-2 2,-2h3c1.10457,0 2,0.89543 2,2v3z" fill="#ff0000" stroke="#000000" stroke-width="2" stroke-linejoin="miter"/><g><g><path d="M240.72262,128.0953l-8.17696,1.22793l2.67636,-10.01747z" fill="none" stroke="#000000" stroke-width="4" stroke-linejoin="round"/><path d="M240.72262,128.0953l-8.17696,1.22793l2.67636,-10.01747z" fill="#b3b3b3" stroke="none" stroke-width="1" stroke-linejoin="miter"/></g><g><path d="M252.98806,126.2534l-8.17696,1.22793l2.67636,-10.01747z" fill="none" stroke="#000000" stroke-width="4" stroke-linejoin="round"/><path d="M252.98806,126.2534l-8.17696,1.22793l2.67636,-10.01747z" fill="#b3b3b3" stroke="none" stroke-width="1" stroke-linejoin="miter"/></g><g><path d="M229.44346,129.44567l-8.17696,1.22793l2.67636,-10.01747z" fill="none" stroke="#000000" stroke-width="4" stroke-linejoin="round"/><path d="M229.44346,129.44567l-8.17696,1.22793l2.67636,-10.01747z" fill="#b3b3b3" stroke="none" stroke-width="1" stroke-linejoin="miter"/></g><g><path d="M214.78101,138.7044l1.44882,8.14072l-10.08625,-2.40421z" fill="none" stroke="#000000" stroke-width="4" stroke-linejoin="round"/><path d="M214.78101,138.7044l1.44882,8.14072l-10.08625,-2.40421z" fill="#b3b3b3" stroke="none" stroke-width="1" stroke-linejoin="miter"/></g><g><path d="M219.48551,130.53608l-4.45687,6.96469l-5.78096,-8.60774z" fill="none" stroke="#000000" stroke-width="4" stroke-linejoin="round"/><path d="M219.48551,130.53608l-4.45687,6.96469l-5.78096,-8.60774z" fill="#b3b3b3" stroke="none" stroke-width="1" stroke-linejoin="miter"/></g><g><path d="M216.43621,149.94286l1.44883,8.14073l-10.08625,-2.40422z" fill="none" stroke="#000000" stroke-width="4" stroke-linejoin="round"/><path d="M216.43621,149.94286l1.44883,8.14073l-10.08625,-2.40422z" fill="#b3b3b3" stroke="none" stroke-width="1" stroke-linejoin="miter"/></g><g><g stroke="none" stroke-linejoin="miter"><path d="M260.719,154.41762l-41.53429,6.23718l-3.2671,-21.75606c-0.4921,-3.27696 1.76548,-6.33239 5.04245,-6.82449l29.66735,-4.45513c3.27696,-0.4921 6.33239,1.76548 6.82449,5.04245z" fill="#9500ff" stroke-width="1"/><path d="M261.85642,155.25803l-43.51212,6.53419l-3.41559,-22.74497c-0.57411,-3.82312 2.05973,-7.3878 5.88285,-7.96191l29.66735,-4.45513c3.82312,-0.57411 7.3878,2.05973 7.96191,5.88285zM220.02511,159.51738l39.55647,-5.94017l-3.11859,-20.76715c-0.41008,-2.73081 -2.95628,-4.61212 -5.68708,-4.20204l-29.66735,4.45512c-2.73081,0.41008 -4.61212,2.95627 -4.20204,5.68708z" fill="#000000" stroke-width="1"/><path d="M216.85786,138.73876c-0.41008,-2.73081 1.47766,-5.2923 4.20847,-5.70238l29.74209,-4.46635c2.7308,-0.41008 5.28764,1.48397 5.69773,4.21478l3.12094,20.81313l-39.63938,5.95262z" data-paper-data="{&quot;noHover&quot;:false,&quot;origItem&quot;:[&quot;Path&quot;,{&quot;applyMatrix&quot;:true,&quot;segments&quot;:[[219.75,164],[259.75,164],[[259.75,143],[0,0],[0,-2.76143]],[[254.75,138],[2.76142,0],[0,0]],[[224.75,138],[0,0],[-2.76143,0]],[[219.75,143],[0,-2.76143],[0,0]]],&quot;closed&quot;:true,&quot;fillColor&quot;:[0,0,0,1]}]}" fill="#ff7800" stroke-width="0.5"/></g><path d="M251.61967,147.69436l-9.88912,1.48504l-1.48504,-9.88912l10.18613,0.49278z" fill="#ffffff" stroke="#ffffff" stroke-width="2" stroke-linejoin="round"/><path d="M245.5377,147.59647l-0.89103,-5.93347l5.93347,-0.89103l0.89103,5.93347z" fill="#000000" stroke="none" stroke-width="1" stroke-linejoin="miter"/></g></g></g></g></svg>