<svg version="1.1" xmlns="http://www.w3.org/2000/svg" xmlns:xlink="http://www.w3.org/1999/xlink" width="31.03303" height="32.15026" viewBox="0,0,31.03303,32.15026"><g transform="translate(-224.45275,-157.84976)"><g data-paper-data="{&quot;isPaintingLayer&quot;:true}" fill-rule="nonzero" stroke-linecap="butt" stroke-miterlimit="10" stroke-dasharray="" stroke-dashoffset="0" style="mix-blend-mode: normal"><g data-paper-data="{&quot;index&quot;:null}" stroke-linejoin="miter"><path d="M247.2842,185.07437c-1.27344,0.96753 -3.18642,0.11162 -4.27277,-1.91173c-1.08634,-2.02336 -0.93469,-4.44795 0.33875,-5.41548c1.27344,-0.96754 3.18642,-0.11163 4.27277,1.91173c1.08634,2.02336 0.93469,4.44795 -0.33875,5.41548z" fill="#ffffff" stroke="#000000" stroke-width="2"/><path d="M245.49093,174.92028c0.17643,-1.13082 0.26295,-2.32187 0.30707,-3.4962c0.05426,-1.44412 0.27657,-2.80503 0.2383,-4.28838c-0.03105,-1.20306 -0.25852,-2.34321 -0.42471,-3.55771c-0.28738,-1.36198 -0.78612,-2.55738 -1.41793,-3.7942l-0.00851,-0.05526l-0.01196,0.00428l-0.21757,-0.59423c-0.08726,-0.22728 -0.07605,-0.47816 0.0427,-0.62232c0.11876,-0.14416 0.3101,-0.13916 0.47583,-0.00713l0.43411,0.33139l-0.00259,0.00948c0.01539,0.00872 0.03076,0.01777 0.0461,0.02715c0.17197,0.10517 0.29525,0.35102 0.45498,0.50048c0.59219,0.55409 1.22129,1.1644 1.69624,1.94857c0.70282,1.16042 1.04654,2.47254 1.4703,3.75209c0.22581,0.68184 0.48684,1.28294 0.63842,1.98713c0.28489,1.32352 0.29471,2.58766 0.51827,3.87852c-0.00711,0.66998 0.08806,1.41062 0.01168,2.05162c-0.18354,1.54027 -0.55763,2.92229 -1.07276,4.21123c-0.18538,0.46385 -0.18175,0.7064 -0.44305,1.08931c-0.80744,1.18323 -2.25645,0.60361 -3.06241,-1.01247c-0.12232,-0.24526 -0.05846,-0.88113 -0.05837,-1.12171c0,0 0.31761,-1.3785 0.38583,-1.24165z" fill="#ffffff" stroke="#000000" stroke-width="1"/><path d="M247.59835,175.28281c0.28366,-0.86365 0.49557,-1.79371 0.66849,-2.71914c0.21264,-1.13807 0.56277,-2.1754 0.69896,-3.36368c0.11046,-0.96374 0.04191,-1.91775 0.03547,-2.91837c-0.09557,-1.14285 -0.39505,-2.19655 -0.80619,-3.31054l-0.00114,-0.04573l-0.01094,0.00095l-0.12233,-0.51757c-0.05032,-0.19879 -0.01182,-0.39612 0.10855,-0.48645c0.12036,-0.09034 0.28715,-0.04706 0.417,0.09204l0.34179,0.35286l-0.00335,0.00701c0.01246,0.0101 0.02487,0.02045 0.03721,0.03106c0.13838,0.119 0.2181,0.33998 0.34071,0.49171c0.45458,0.56256 0.93503,1.17741 1.26074,1.89897c0.48199,1.06778 0.63255,2.18251 0.85682,3.28778c0.11952,0.58896 0.27906,1.12091 0.3311,1.71243c0.09778,1.11174 -0.03822,2.11973 0.00966,3.19288c-0.08285,0.5317 -0.08434,1.14063 -0.22446,1.63504c-0.3367,1.18803 -0.822,2.21099 -1.41999,3.13092c-0.2152,0.33105 -0.23977,0.52481 -0.51212,0.77587c-0.84158,0.77579 -2.06205,-0.09303 -2.58214,-1.54459c-0.07894,-0.22031 -0.19783,-0.44043 -0.22332,-0.66518c-0.02382,-0.20996 0.05519,-0.38284 0.08278,-0.57427c0,0 0.67266,-0.58692 0.71669,-0.46401z" fill="#ffffff" stroke="#000000" stroke-width="1"/><path d="M249.35476,175.31766c0.34866,-0.54312 0.64866,-1.15131 0.91658,-1.76593c0.32948,-0.75583 0.75583,-1.40582 1.03063,-2.21641c0.22287,-0.65741 0.30003,-1.35253 0.43375,-2.06528c0.08158,-0.83607 -0.01365,-1.65959 -0.19056,-2.55379l0.00545,-0.03278l-0.00897,-0.00205l-0.0268,-0.39832c-0.01298,-0.15383 0.04546,-0.28448 0.15506,-0.31868c0.1096,-0.0342 0.2381,0.03812 0.32351,0.16935l0.22665,0.33596l-0.00368,0.00415c0.00865,0.01029 0.01722,0.02073 0.0257,0.03135c0.09507,0.11907 0.12868,0.296 0.2065,0.43438c0.2885,0.51311 0.59059,1.06984 0.75308,1.66384c0.24045,0.87901 0.20712,1.7088 0.23456,2.55023c0.01461,0.44837 0.06944,0.8662 0.02927,1.29957c-0.07548,0.8145 -0.32509,1.49699 -0.43545,2.27164c-0.14063,0.35725 -0.22635,0.78965 -0.408,1.10611c-0.43646,0.76043 -0.96984,1.36652 -1.57979,1.87129c-0.21951,0.18165 -0.26622,0.31324 -0.5207,0.42378c-0.78637,0.3416 -1.65002,-0.58006 -1.86792,-1.74132c-0.03307,-0.17624 -0.0984,-0.36231 -0.08775,-0.5284c0.00995,-0.15516 0.09765,-0.25834 0.14648,-0.38752c0,0 0.62395,-0.24949 0.64238,-0.15115z" fill="#ffffff" stroke="#000000" stroke-width="1"/><path d="M249.26892,177.64311c0.5011,-0.29931 0.96898,-0.67678 1.40545,-1.07476c0.53675,-0.48942 1.14583,-0.84337 1.64045,-1.40498c0.40117,-0.45549 0.66192,-1.01126 0.98558,-1.55559c0.30203,-0.67372 0.41846,-1.41949 0.46909,-2.26365l0.01415,-0.02536l-0.0087,-0.00595l0.07618,-0.35171c0.0267,-0.13706 0.12103,-0.22096 0.24296,-0.19879c0.12194,0.02216 0.2356,0.14388 0.28946,0.29557l0.14616,0.39212l-0.00487,0.00181c0.00624,0.01281 0.01235,0.02572 0.01833,0.03872c0.067,0.14587 0.05555,0.31223 0.09973,0.46649c0.16377,0.57189 0.33016,1.18729 0.34292,1.7691c0.01887,0.86097 -0.23179,1.55192 -0.42281,2.28121c-0.1018,0.38861 -0.15417,0.77005 -0.30853,1.12025c-0.29012,0.65822 -0.72541,1.12254 -1.04111,1.7305c-0.23812,0.23838 -0.43923,0.56644 -0.70901,0.75091c-0.64828,0.44325 -1.35626,0.70976 -2.11679,0.85414c-0.27371,0.05196 -0.35617,0.14215 -0.6474,0.1172c-0.89995,-0.07709 -1.55031,-1.26599 -1.47234,-2.35674c0.01182,-0.16554 -0.00705,-0.35455 0.04722,-0.49098c0.0507,-0.12745 0.16804,-0.17427 0.25206,-0.26142c0,0 0.70844,0.07952 0.70182,0.17188z" fill="#ffffff" stroke="#000000" stroke-width="1"/><path d="M248.89399,169.87664c0.07358,0.10451 0.08366,0.24936 0.02255,0.32355c-0.06113,0.0742 -0.17031,0.04962 -0.24388,-0.05488c-0.07358,-0.10449 -0.08367,-0.24936 -0.02255,-0.32354c0.06113,-0.0742 0.17031,-0.04963 0.24388,0.05488z" fill="#000000" stroke="none" stroke-width="0.5"/><path d="M251.04134,172.27073c-0.06113,0.0742 -0.17031,0.04962 -0.24388,-0.05488c-0.07358,-0.1045 -0.08368,-0.24936 -0.02256,-0.32355c0.06113,-0.0742 0.17031,-0.04962 0.24388,0.05489c0.07358,0.1045 0.08368,0.24936 0.02256,0.32355z" fill="#000000" stroke="none" stroke-width="0.5"/><path d="M252.20858,175.24042c0.07357,0.1045 0.08367,0.24936 0.02256,0.32356c-0.06113,0.0742 -0.17032,0.04962 -0.24389,-0.05488c-0.07357,-0.1045 -0.08368,-0.24936 -0.02256,-0.32355c0.06113,-0.0742 0.17031,-0.04961 0.24389,0.05489z" fill="#000000" stroke="none" stroke-width="0.5"/><path d="M243.12511,177.46451c0.33077,-1.02122 0.57677,-2.12031 0.77688,-3.2137c0.24608,-1.34459 0.65444,-2.57124 0.8103,-3.97457c0.12641,-1.13816 0.04208,-2.26363 0.03069,-3.4445c-0.11688,-1.34814 -0.47355,-2.58969 -0.96193,-3.9016l-0.0015,-0.05396l-0.01289,0.00119l-0.14602,-0.60999c-0.06001,-0.23426 -0.01542,-0.46743 0.12597,-0.57485c0.14139,-0.10743 0.33796,-0.0575 0.4914,0.10578l0.40384,0.41411l-0.00392,0.0083c0.01472,0.01184 0.02936,0.02396 0.04394,0.03641c0.1634,0.13951 0.25812,0.39975 0.40308,0.57799c0.53743,0.66082 1.10555,1.38321 1.49183,2.23256c0.57163,1.25689 0.75315,2.57149 1.02146,3.8744c0.14298,0.69428 0.33289,1.321 0.3964,2.01875c0.11937,1.31141 -0.03696,2.50197 0.02351,3.76818c-0.09554,0.62809 -0.09498,1.34674 -0.25811,1.9312c-0.39199,1.40441 -0.95958,2.61503 -1.66027,3.7048c-0.25215,0.39218 -0.28036,0.62101 -0.60011,0.91917c-0.98808,0.92131 -2.40533,0.03395 -3.02327,-1.67562c-0.09379,-0.25947 0.05576,-0.84206 0.08754,-1.06816c0,0 0.50889,-1.22065 0.5612,-1.07589z" fill="#ffffff" stroke="#000000" stroke-width="1"/><path d="M245.24962,178.30351c0.40613,-0.74474 0.74702,-1.56886 1.0471,-2.39787c0.36904,-1.01947 0.86653,-1.91177 1.16337,-2.9965c0.24075,-0.87977 0.29573,-1.79271 0.42085,-2.73476c0.05197,-1.09683 -0.11798,-2.15807 -0.39508,-3.30236l0.00486,-0.04324l-0.01141,-0.00171l-0.05794,-0.51541c-0.02569,-0.19875 0.03998,-0.37513 0.17593,-0.43159c0.13595,-0.05645 0.30218,0.02365 0.41771,0.1851l0.30584,0.41248l-0.00438,0.0058c0.01153,0.01244 0.02295,0.02509 0.03427,0.03799c0.12697,0.14457 0.18004,0.37112 0.28644,0.54274c0.39449,0.63623 0.80874,1.32775 1.04946,2.08299c0.35621,1.11759 0.36462,2.20101 0.45025,3.29294c0.04564,0.58185 0.14004,1.11959 0.11579,1.68788c-0.04559,1.0681 -0.31851,1.98342 -0.41046,3.00347c-0.15542,0.4802 -0.23713,1.05221 -0.44666,1.48381c-0.5035,1.0371 -1.13841,1.88393 -1.87593,2.60726c-0.26541,0.26031 -0.31626,0.43664 -0.63003,0.60822c-0.96961,0.53025 -2.11322,-0.57492 -2.45817,-2.06227c-0.05236,-0.22574 -0.14594,-0.46075 -0.14261,-0.67803c0.00311,-0.20298 0.1073,-0.34682 0.16095,-0.52023c0,0 0.77065,-0.39267 0.79984,-0.26673z" fill="#ffffff" stroke="#000000" stroke-width="1"/><path d="M247.10173,178.70065c0.4309,-0.42808 0.82021,-0.92883 1.17731,-1.44322c0.43914,-0.63258 0.96419,-1.14276 1.35417,-1.8397c0.31628,-0.56526 0.48736,-1.2004 0.71904,-1.83875c0.19419,-0.76658 0.20446,-1.56318 0.13986,-2.44551l0.00991,-0.02952l-0.00896,-0.00405l0.02482,-0.38075c0.00688,-0.14765 0.08432,-0.25664 0.2018,-0.26288c0.11748,-0.00624 0.24041,0.09212 0.31117,0.23566l0.18938,0.36938l-0.00433,0.00303c0.00756,0.01172 0.01502,0.02357 0.02236,0.03555c0.08232,0.1344 0.09367,0.30863 0.15565,0.45711c0.2298,0.5505 0.46788,1.14523 0.55716,1.74197c0.13212,0.88307 -0.0115,1.65517 -0.09404,2.45256c-0.04397,0.4249 -0.04248,0.83061 -0.14094,1.22846c-0.18505,0.74776 -0.53221,1.33026 -0.74797,2.03231c-0.19199,0.30255 -0.3373,0.68872 -0.56619,0.94324c-0.55002,0.61159 -1.17961,1.05521 -1.87478,1.38548c-0.25018,0.11884 -0.31565,0.23149 -0.59252,0.27524c-0.85555,0.1352 -1.62438,-0.93529 -1.69608,-2.07835c-0.01088,-0.17348 -0.05372,-0.36383 -0.02087,-0.51744c0.03068,-0.14349 0.13467,-0.21974 0.20201,-0.32962c0,0 0.676,-0.087 0.68205,0.00978z" fill="#ffffff" stroke="#000000" stroke-width="1"/><path d="M246.70703,180.86614c0.55591,-0.16287 1.08789,-0.40708 1.59018,-0.67798c0.61771,-0.33315 1.29211,-0.52185 1.87591,-0.93282c0.47349,-0.3333 0.81544,-0.79407 1.22072,-1.2292c0.40004,-0.56187 0.61825,-1.23534 0.78159,-2.01685l0.01792,-0.0205l-0.00818,-0.00764l0.12483,-0.31259c0.04557,-0.1225 0.15385,-0.17908 0.27661,-0.12941c0.12277,0.04967 0.2239,0.19094 0.25945,0.34626l0.09902,0.40312l-0.00526,0.00056c0.00475,0.01351 0.00935,0.02708 0.0138,0.04072c0.04986,0.15295 0.01615,0.30663 0.04137,0.46206c0.09349,0.57628 0.18399,1.19407 0.12052,1.74396c-0.09392,0.81374 -0.44327,1.40394 -0.7362,2.0443c-0.15608,0.34122 -0.26029,0.68736 -0.46551,0.98006c-0.38572,0.55011 -0.89553,0.88366 -1.301,1.38048c-0.27685,0.16778 -0.52733,0.4286 -0.8297,0.53821c-0.72658,0.2634 -1.49142,0.34653 -2.29438,0.30246c-0.28896,-0.01586 -0.38584,0.04942 -0.68275,-0.04288c-0.91747,-0.2852 -1.43127,-1.55648 -1.20729,-2.5633c0.034,-0.15281 0.03942,-0.33494 0.11334,-0.45036c0.06904,-0.10782 0.19616,-0.12409 0.29423,-0.18613c0,0 0.71976,0.24222 0.70077,0.32747z" fill="#ffffff" stroke="#000000" stroke-width="1"/><path d="M247.06581,173.32586c0.10863,0.04806 1.30589,1.06049 2.03805,2.51824c0.66687,1.32774 0.87891,3.10244 0.88396,3.33414c0.02527,1.15534 -1.97716,5.34419 -2.70363,5.89615c-1.27344,0.96753 -3.18641,0.11162 -4.27276,-1.91174c-1.08635,-2.02336 -0.93469,-4.44795 0.33875,-5.41548c0.6335,-0.48132 2.94609,-4.76175 3.71563,-4.42131z" fill="#ffffff" stroke="#000000" stroke-width="0"/><path d="M247.38347,173.76164c-0.07277,0.05528 -0.18209,0.00638 -0.24416,-0.10924c-0.06208,-0.11562 -0.05341,-0.25417 0.01936,-0.30946c0.07277,-0.05529 0.18208,-0.00637 0.24416,0.10924c0.06208,0.11562 0.05341,0.25417 -0.01936,0.30946z" fill="#000000" stroke="none" stroke-width="0.5"/><path d="M249.30099,176.21017c-0.07278,0.05529 -0.18208,0.00637 -0.24416,-0.10924c-0.06208,-0.11562 -0.05342,-0.25417 0.01935,-0.30946c0.07277,-0.05529 0.18209,-0.00637 0.24416,0.10924c0.06208,0.11562 0.05341,0.25417 -0.01936,0.30946z" fill="#000000" stroke="none" stroke-width="0.5"/><path d="M250.11308,179.27751c0.06207,0.11562 0.05341,0.25418 -0.01935,0.30946c-0.07277,0.05528 -0.18208,0.00638 -0.24415,-0.10924c-0.06208,-0.11562 -0.05341,-0.25418 0.01936,-0.30946c0.07278,-0.05529 0.18209,-0.00637 0.24416,0.10924z" fill="#000000" stroke="none" stroke-width="0.5"/></g><g data-paper-data="{&quot;index&quot;:null}" stroke-linejoin="miter"><path d="M232.3151,179.75265c1.00363,-2.07703 2.88008,-3.03027 4.19117,-2.12912c1.31109,0.90115 1.56033,3.31545 0.5567,5.39248c-1.00363,2.07703 -2.88008,3.03027 -4.19117,2.12912c-1.31109,-0.90115 -1.56033,-3.31545 -0.5567,-5.39248z" fill="#ffffff" stroke="#000000" stroke-width="2"/><path d="M234.25385,174.9095c0.06264,-0.14022 0.43548,1.22055 0.43548,1.22055c0.00978,0.24032 0.09921,0.87224 -0.0131,1.12354c-0.73997,1.65578 -2.16406,2.3092 -3.01834,1.16865c-0.27645,-0.3691 -0.2826,-0.61159 -0.48649,-1.06544c-0.56654,-1.26116 -0.99596,-2.62255 -1.24138,-4.15179c-0.10214,-0.63642 -0.03693,-1.38118 -0.07104,-2.0501c0.17129,-1.30101 0.13014,-2.56433 0.36137,-3.90112c0.12303,-0.71125 0.35956,-1.32513 0.55763,-2.01785c0.37172,-1.29999 0.66219,-2.6284 1.31749,-3.8237c0.44283,-0.80774 1.04667,-1.4497 1.61589,-2.03363c0.15354,-0.1575 0.26679,-0.40943 0.43434,-0.52332c0.01495,-0.01015 0.02992,-0.01998 0.04495,-0.02948l-0.00297,-0.00934l0.4203,-0.35333c0.16022,-0.1404 0.35117,-0.15521 0.47561,-0.0173c0.12444,0.13791 0.14575,0.38795 0.06775,0.61947l-0.19339,0.60479l-0.01212,-0.00367l-0.00627,0.05564c-0.58128,1.26798 -1.0313,2.48775 -1.26347,3.86307c-0.11705,1.22178 -0.29832,2.37243 -0.28083,3.57582c0.02156,1.48377 0.2985,2.83187 0.41091,4.2717c0.09142,1.17084 0.22585,2.35622 0.44769,3.47681z" fill="#ffffff" stroke="#000000" stroke-width="1"/><path d="M232.16326,175.37984c0.03902,-0.12505 0.73463,0.42674 0.73463,0.42674c0.03528,0.18981 0.12117,0.35846 0.10585,0.56943c-0.0164,0.22583 -0.12631,0.45183 -0.19628,0.67596c-0.46102,1.47676 -1.64518,2.40733 -2.51713,1.67556c-0.28217,-0.23682 -0.31453,-0.42911 -0.54284,-0.74877c-0.63444,-0.88827 -1.16046,-1.88527 -1.5447,-3.05478c-0.15991,-0.48672 -0.18594,-1.09492 -0.29013,-1.62183c0.00457,-1.0745 -0.17192,-2.07448 -0.11905,-3.19009c0.02813,-0.59357 0.16606,-1.13316 0.26171,-1.72764c0.17948,-1.11564 0.28493,-2.23695 0.72338,-3.32837c0.29628,-0.73752 0.75144,-1.37642 1.18285,-1.96173c0.11636,-0.15787 0.18709,-0.38271 0.32052,-0.5087c0.0119,-0.01123 0.02387,-0.02221 0.03592,-0.03294l-0.00362,-0.00683l0.3272,-0.37004c0.1241,-0.14562 0.28897,-0.19741 0.41284,-0.11335c0.12387,0.08406 0.1703,0.2792 0.12804,0.48037l-0.10133,0.52331l-0.01098,-0.00038l0.00071,0.04573c-0.36579,1.13394 -0.62248,2.20192 -0.67188,3.3485c0.0339,0.99991 0.00389,1.95646 0.15308,2.91353c0.18395,1.18005 0.57552,2.19835 0.83382,3.32431c0.21004,0.9156 0.45922,1.83381 0.7774,2.68201z" fill="#ffffff" stroke="#000000" stroke-width="1"/><path d="M230.41011,175.50484c0.01445,-0.09918 0.6478,0.11802 0.6478,0.11802c0.05399,0.12653 0.14576,0.22511 0.16195,0.37959c0.01734,0.16537 -0.04043,0.3546 -0.06637,0.53236c-0.17085,1.17124 -0.99641,2.1363 -1.79573,1.83542c-0.25867,-0.09737 -0.31064,-0.22642 -0.53724,-0.39661c-0.62966,-0.47293 -1.18689,-1.051 -1.65355,-1.78823c-0.19421,-0.3068 -0.29727,-0.73436 -0.45216,-1.08402c-0.14148,-0.76818 -0.41834,-1.43715 -0.52657,-2.24694c-0.05759,-0.43086 -0.01967,-0.85107 -0.02314,-1.29972c-0.00653,-0.84197 -0.07327,-1.66919 0.1315,-2.55963c0.13838,-0.60172 0.4177,-1.17339 0.6852,-1.70078c0.07216,-0.14225 0.0986,-0.32071 0.18877,-0.44454c0.00804,-0.01104 0.01619,-0.02192 0.02442,-0.03263l-0.00384,-0.00395l0.21287,-0.34726c0.08003,-0.13547 0.20548,-0.21432 0.31634,-0.18578c0.11086,0.02853 0.17451,0.15605 0.16774,0.31038l-0.01072,0.39929l-0.00888,0.00251l0.00676,0.03247c-0.14067,0.90236 -0.20262,1.72991 -0.08742,2.56092c0.16231,0.70515 0.26741,1.3956 0.51655,2.04089c0.30719,0.79563 0.7593,1.42306 1.11889,2.16119c0.29242,0.60023 0.61662,1.19239 0.98681,1.71704z" fill="#ffffff" stroke="#000000" stroke-width="1"/><path d="M230.58962,177.82343c-0.01033,-0.09191 0.69415,-0.20773 0.69415,-0.20773c0.08745,0.08274 0.20655,0.12349 0.26233,0.24821c0.05971,0.13351 0.04848,0.32329 0.06697,0.48806c0.12186,1.08562 -0.47988,2.30668 -1.37578,2.42989c-0.28992,0.03987 -0.37593,-0.04599 -0.65143,-0.08383c-0.76555,-0.10519 -1.48353,-0.33506 -2.14899,-0.74458c-0.27695,-0.17042 -0.49106,-0.48782 -0.73855,-0.71373c-0.33988,-0.59112 -0.79342,-1.03261 -1.10977,-1.67524c-0.16832,-0.34193 -0.236,-0.72028 -0.35335,-1.10326c-0.22022,-0.71874 -0.49847,-1.39609 -0.51433,-2.25714c-0.01072,-0.58186 0.13071,-1.20517 0.27124,-1.78488c0.03791,-0.15637 0.01977,-0.32197 0.08081,-0.47113c0.00544,-0.01329 0.01103,-0.02651 0.01674,-0.03962l-0.00494,-0.00155l0.13019,-0.39922c0.04769,-0.1543 0.15633,-0.28173 0.27724,-0.31013c0.12091,-0.0284 0.21852,0.05057 0.25072,0.18611l0.09028,0.34743l-0.00845,0.00638l0.01515,0.02461c0.08461,0.8407 0.23098,1.57973 0.55984,2.23724c0.34526,0.52715 0.62814,1.06895 1.04724,1.50337c0.51675,0.53563 1.13944,0.85794 1.69536,1.3193c0.45205,0.37516 0.93465,0.72822 1.44727,1.00149z" fill="#ffffff" stroke="#000000" stroke-width="1"/><path d="M230.65107,170.04578c0.06928,-0.10817 0.17736,-0.13832 0.24141,-0.06734c0.06404,0.07097 0.0598,0.2162 -0.00948,0.32437c-0.06928,0.10817 -0.17737,0.13832 -0.24142,0.06734c-0.06404,-0.07097 -0.0598,-0.21619 0.00949,-0.32438z" fill="#000000" stroke="none" stroke-width="0.5"/><path d="M228.61198,172.22326c0.06928,-0.10817 0.17736,-0.13832 0.24141,-0.06734c0.06405,0.07098 0.0598,0.21619 -0.00949,0.32437c-0.06928,0.10817 -0.17736,0.13833 -0.24141,0.06735c-0.06405,-0.07098 -0.0598,-0.21621 0.00949,-0.32438z" fill="#000000" stroke="none" stroke-width="0.5"/><path d="M227.5562,175.5742c0.06928,-0.10817 0.17736,-0.13832 0.24141,-0.06735c0.06405,0.07098 0.0598,0.2162 -0.00949,0.32437c-0.06928,0.10817 -0.17736,0.13833 -0.24141,0.06735c-0.06404,-0.07097 -0.0598,-0.21621 0.00949,-0.32438z" fill="#000000" stroke="none" stroke-width="0.5"/><path d="M236.71972,177.32963c0.04642,-0.1473 0.60397,1.04595 0.60397,1.04595c0.04084,0.22424 0.21373,0.79855 0.1305,1.06257c-0.54838,1.73953 -1.92835,2.69875 -2.95253,1.82911c-0.33142,-0.28142 -0.36882,-0.50859 -0.63653,-0.88742c-0.74388,-1.05266 -1.35966,-2.2329 -1.80785,-3.61572c-0.18652,-0.57549 -0.21493,-1.29342 -0.33569,-1.91595c0.00935,-1.26801 -0.19481,-2.44931 -0.12843,-3.76549c0.03532,-0.7003 0.19976,-1.33611 0.3146,-2.03701c0.2155,-1.31534 0.34383,-2.63789 0.8642,-3.92283c0.35164,-0.86831 0.89002,-1.61912 1.40025,-2.30685c0.13762,-0.1855 0.22174,-0.45033 0.37935,-0.59808c0.01406,-0.01317 0.0282,-0.02604 0.04243,-0.03862l-0.00425,-0.00809l0.38671,-0.43442c0.14668,-0.171 0.34105,-0.23096 0.48662,-0.13091c0.14557,0.10005 0.19951,0.33068 0.14901,0.56779l-0.12126,0.61685l-0.01293,-0.00053l0.00068,0.05399c-0.43498,1.33563 -0.74122,2.5942 -0.80363,3.94695c0.03624,1.18024 -0.00264,2.30887 0.16951,3.43936c0.21228,1.39388 0.66965,2.59829 0.96966,3.92886c0.24398,1.08199 0.53403,2.1673 0.90561,3.17049z" fill="#ffffff" stroke="#000000" stroke-width="1"/><path d="M234.63128,178.27678c0.02408,-0.12731 0.80973,0.22539 0.80973,0.22539c0.06058,0.17048 0.17047,0.30881 0.18175,0.51142c0.01208,0.21689 -0.07193,0.45646 -0.11513,0.68465c-0.28463,1.50352 -1.38247,2.66627 -2.37243,2.18634c-0.32037,-0.15531 -0.37825,-0.32883 -0.65388,-0.57525c-0.7659,-0.68472 -1.43427,-1.49807 -1.97904,-2.50825c-0.22672,-0.4204 -0.3314,-0.98763 -0.50601,-1.45934c-0.13297,-1.01427 -0.4425,-1.91462 -0.5311,-2.97929c-0.04714,-0.56647 0.02551,-1.10849 0.04763,-1.69208c0.04153,-1.0952 0.00625,-2.17792 0.31703,-3.31265c0.21003,-0.76681 0.59597,-1.47888 0.96438,-2.1347c0.09938,-0.17689 0.14326,-0.40594 0.26426,-0.55688c0.01079,-0.01346 0.02169,-0.02669 0.0327,-0.0397l-0.0046,-0.00557l0.28889,-0.42774c0.10889,-0.16721 0.27172,-0.25576 0.40981,-0.20634c0.13809,0.04942 0.21079,0.22225 0.19314,0.42211l-0.0371,0.51785l-0.01132,0.00229l0.0066,0.04295c-0.23067,1.15733 -0.35767,2.2262 -0.26154,3.31923c0.16297,0.93466 0.25468,1.84382 0.53064,2.71032c0.34026,1.06837 0.87318,1.9342 1.28293,2.93366c0.33319,0.81274 0.70694,1.6185 1.14266,2.34162z" fill="#ffffff" stroke="#000000" stroke-width="1"/><path d="M232.79714,178.76863c0.00215,-0.09699 0.68093,-0.04478 0.68093,-0.04478c0.0717,0.10631 0.17865,0.17715 0.21508,0.31891c0.03901,0.15176 0.00388,0.3441 0.00001,0.51796c-0.02554,1.14554 -0.75041,2.25441 -1.61049,2.16328c-0.27834,-0.02949 -0.34828,-0.13866 -0.60298,-0.24454c-0.70775,-0.29424 -1.35456,-0.70507 -1.92865,-1.28778c-0.23891,-0.24251 -0.39963,-0.62083 -0.60361,-0.9132c-0.24383,-0.69024 -0.61411,-1.25433 -0.82911,-1.99181c-0.11439,-0.39239 -0.12926,-0.79775 -0.19031,-1.21995c-0.11458,-0.79233 -0.28919,-1.55625 -0.19281,-2.4452c0.06512,-0.60072 0.27898,-1.20704 0.48636,-1.76877c0.05594,-0.15151 0.06024,-0.32615 0.13706,-0.46463c0.00684,-0.01235 0.01382,-0.02457 0.02091,-0.03666l-0.00445,-0.00281l0.1743,-0.3787c0.06489,-0.14702 0.18372,-0.25159 0.30132,-0.25139c0.1176,0.0002 0.19936,0.10509 0.21218,0.25225l0.04014,0.37908l-0.0088,0.0045l0.01111,0.02899c-0.02897,0.88474 0.0134,1.67997 0.23828,2.43579c0.25716,0.62579 0.45367,1.25149 0.7924,1.79993c0.41766,0.67621 0.96273,1.1589 1.4269,1.76827c0.37745,0.49552 0.78653,0.97576 1.23424,1.38128z" fill="#ffffff" stroke="#000000" stroke-width="1"/><path d="M233.27872,180.91162c-0.0224,-0.08417 0.68684,-0.36311 0.68684,-0.36311c0.10047,0.05695 0.2281,0.06668 0.30141,0.17084c0.07847,0.1115 0.09125,0.29316 0.13137,0.44406c0.26434,0.99429 -0.19768,2.29062 -1.10269,2.62263c-0.29287,0.10745 -0.39227,0.04721 -0.6803,0.07789c-0.80032,0.08526 -1.56771,0.04147 -2.30414,-0.18434c-0.30647,-0.09398 -0.56721,-0.34168 -0.85052,-0.49507c-0.42507,-0.47548 -0.9478,-0.78251 -1.35529,-1.31225c-0.2168,-0.28186 -0.33485,-0.62229 -0.50453,-0.95514c-0.31842,-0.62465 -0.6912,-1.19631 -0.81782,-2.00438c-0.08558,-0.54606 -0.02008,-1.16787 0.05009,-1.74835c0.01892,-0.15657 -0.02095,-0.30836 0.02269,-0.46371c0.00389,-0.01386 0.00795,-0.02765 0.01215,-0.04139l-0.00528,-0.00028l0.08267,-0.4078c0.02925,-0.15697 0.12457,-0.30331 0.24521,-0.35922c0.12063,-0.05591 0.23107,-0.00496 0.28153,0.11508l0.1373,0.30585l-0.00787,0.00806l0.01873,0.01955c0.19467,0.77232 0.43982,1.4339 0.86208,1.97464c0.4224,0.41387 0.78256,0.85661 1.26898,1.16526c0.59974,0.38056 1.28105,0.53446 1.91152,0.83554c0.51269,0.24483 1.05394,0.46147 1.61584,0.59564z" fill="#ffffff" stroke="#000000" stroke-width="1"/><path d="M232.61635,173.39756c0.755,-0.37959 3.2377,3.77766 3.88993,4.22597c1.31109,0.90115 1.56033,3.31544 0.5567,5.39248c-1.00363,2.07703 -2.88008,3.03027 -4.19117,2.12912c-0.74795,-0.51409 -2.91711,-4.5958 -2.93845,-5.75123c-0.00429,-0.23172 0.13598,-2.01547 0.74862,-3.37607c0.67263,-1.49382 1.8278,-2.56668 1.93438,-2.62026z" fill="#ffffff" stroke="#000000" stroke-width="0"/><path d="M232.28478,173.54107c0.05736,-0.11869 0.16457,-0.17316 0.2395,-0.12166c0.07492,0.05149 0.08917,0.18946 0.03181,0.30814c-0.05736,0.11869 -0.16458,0.17315 -0.2395,0.12166c-0.07492,-0.05149 -0.08916,-0.18946 -0.03181,-0.30814z" fill="#000000" stroke="none" stroke-width="0.5"/><path d="M230.468,176.0855c0.05736,-0.11869 0.16458,-0.17317 0.2395,-0.12167c0.07492,0.05149 0.08916,0.18946 0.03181,0.30815c-0.05736,0.11869 -0.16457,0.17316 -0.23949,0.12166c-0.07492,-0.05149 -0.08916,-0.18946 -0.03181,-0.30814z" fill="#000000" stroke="none" stroke-width="0.5"/><path d="M229.81222,179.49952c0.05736,-0.11869 0.16457,-0.17317 0.2395,-0.12167c0.07492,0.05149 0.08916,0.18946 0.03181,0.30814c-0.05736,0.11869 -0.16458,0.17316 -0.2395,0.12166c-0.07492,-0.05149 -0.08916,-0.18945 -0.03181,-0.30815z" fill="#000000" stroke="none" stroke-width="0.5"/></g><path d="M249,179.11001c0,6.89 -4,9.89 -9,9.89c-5,0 -9,-3 -9,-9.89c0,-6.11 6,-8.11 9,-6.11c3,-2 9,0 9,6.11z" fill="#00ffff" stroke="#000000" stroke-width="2" stroke-linejoin="round"/><path d="M241.5,168.00005c0,1.25 -1.5,5 -1.5,5" fill="none" stroke="#000000" stroke-width="2" stroke-linejoin="round"/><path d="M233,177.00005c0,-1.65685 1.34315,-3 3,-3c1.65685,0 3,1.34315 3,3c0,1.65685 -1.34315,3 -3,3c-1.65685,0 -3,-1.34315 -3,-3z" fill="#ffffff" stroke="none" stroke-width="1" stroke-linejoin="miter"/></g></g></svg>