<svg version="1.1" xmlns="http://www.w3.org/2000/svg" xmlns:xlink="http://www.w3.org/1999/xlink" width="163.23585" height="163.50944" viewBox="0,0,163.23585,163.50944"><g transform="translate(-158.34908,-98.05662)"><g data-paper-data="{&quot;isPaintingLayer&quot;:true}" fill-rule="nonzero" stroke-linecap="butt" stroke-miterlimit="10" stroke-dasharray="" stroke-dashoffset="0" style="mix-blend-mode: normal"><g data-paper-data="{&quot;index&quot;:null}"><path d="M284.00001,243.56606h16l-8,16z" fill="none" stroke="#000000" stroke-width="4" stroke-linejoin="round"/><path d="M284.00001,243.56606h16l-8,16z" fill="#b3b3b3" stroke="none" stroke-width="1" stroke-linejoin="miter"/></g><g data-paper-data="{&quot;index&quot;:null}"><path d="M241.16982,243.56606h16l-8,16z" fill="none" stroke="#000000" stroke-width="4" stroke-linejoin="round"/><path d="M241.16982,243.56606h16l-8,16z" fill="#b3b3b3" stroke="none" stroke-width="1" stroke-linejoin="miter"/></g><g data-paper-data="{&quot;index&quot;:null}"><path d="M262.00001,243.56606h16l-8,16z" fill="none" stroke="#000000" stroke-width="4" stroke-linejoin="round"/><path d="M262.00001,243.56606h16l-8,16z" fill="#b3b3b3" stroke="none" stroke-width="1" stroke-linejoin="miter"/></g><g data-paper-data="{&quot;index&quot;:null}"><path d="M176.34908,224.00005v16l-16,-8z" fill="none" stroke="#000000" stroke-width="4" stroke-linejoin="round"/><path d="M176.34908,224.00005v16l-16,-8z" fill="#b3b3b3" stroke="none" stroke-width="1" stroke-linejoin="miter"/></g><g data-paper-data="{&quot;index&quot;:null}"><path d="M176.34908,181.16983v16l-16,-8z" fill="none" stroke="#000000" stroke-width="4" stroke-linejoin="round"/><path d="M176.34908,181.16983v16l-16,-8z" fill="#b3b3b3" stroke="none" stroke-width="1" stroke-linejoin="miter"/></g><g data-paper-data="{&quot;index&quot;:null}"><path d="M176.34908,202.00005v16l-16,-8z" fill="none" stroke="#000000" stroke-width="4" stroke-linejoin="round"/><path d="M176.34908,202.00005v16l-16,-8z" fill="#b3b3b3" stroke="none" stroke-width="1" stroke-linejoin="miter"/></g><g data-paper-data="{&quot;index&quot;:null}"><path d="M196.00005,116.05662h-16l8,-16z" fill="none" stroke="#000000" stroke-width="4" stroke-linejoin="round"/><path d="M196.00005,116.05662h-16l8,-16z" fill="#b3b3b3" stroke="none" stroke-width="1" stroke-linejoin="miter"/></g><g data-paper-data="{&quot;index&quot;:null}"><path d="M238.8302,116.05662h-16l8,-16z" fill="none" stroke="#000000" stroke-width="4" stroke-linejoin="round"/><path d="M238.8302,116.05662h-16l8,-16z" fill="#b3b3b3" stroke="none" stroke-width="1" stroke-linejoin="miter"/></g><g data-paper-data="{&quot;index&quot;:null}"><path d="M218.00005,116.05662h-16l8,-16z" fill="none" stroke="#000000" stroke-width="4" stroke-linejoin="round"/><path d="M218.00005,116.05662h-16l8,-16z" fill="#b3b3b3" stroke="none" stroke-width="1" stroke-linejoin="miter"/></g><g data-paper-data="{&quot;index&quot;:null}"><path d="M319.58493,169.07553l-16,8v-16z" fill="none" stroke="#000000" stroke-width="4" stroke-linejoin="round"/><path d="M319.58493,169.07553l-16,8v-16z" fill="#b3b3b3" stroke="none" stroke-width="1" stroke-linejoin="miter"/></g><g data-paper-data="{&quot;index&quot;:null}"><path d="M319.58493,128.00001l-16,8v-16z" fill="none" stroke="#000000" stroke-width="4" stroke-linejoin="round"/><path d="M319.58493,128.00001l-16,8v-16z" fill="#b3b3b3" stroke="none" stroke-width="1" stroke-linejoin="miter"/></g><g data-paper-data="{&quot;index&quot;:null}"><path d="M319.58493,150l-16,8v-16z" fill="none" stroke="#000000" stroke-width="4" stroke-linejoin="round"/><path d="M319.58493,150l-16,8v-16z" fill="#b3b3b3" stroke="none" stroke-width="1" stroke-linejoin="miter"/></g><g data-paper-data="{&quot;index&quot;:null}"><path d="M178.93398,241.00005v-122h122v122z" fill="none" stroke="#000000" stroke-width="4" stroke-linejoin="round"/><path d="M178.93398,241.00005v-122h122v122z" fill="#3941b5" stroke="none" stroke-width="1" stroke-linejoin="miter"/></g><path d="M247.93396,232.00007v-14h44v14z" data-paper-data="{&quot;index&quot;:null}" fill="#3a43c5" stroke="none" stroke-width="1" stroke-linejoin="miter"/><path d="M187.93396,232.00007v-14h44v14z" data-paper-data="{&quot;index&quot;:null}" fill="#3a43c5" stroke="none" stroke-width="1" stroke-linejoin="miter"/><path d="M247.93396,142v-14h44v14z" data-paper-data="{&quot;index&quot;:null}" fill="#3a43c5" stroke="none" stroke-width="1" stroke-linejoin="miter"/><path d="M187.93396,142v-14h44v14z" data-paper-data="{&quot;index&quot;:null}" fill="#3a43c5" stroke="none" stroke-width="1" stroke-linejoin="miter"/><path d="M277.93393,202.00006v-14h14v14z" data-paper-data="{&quot;index&quot;:null}" fill="#3a43c5" stroke="none" stroke-width="1" stroke-linejoin="miter"/><path d="M187.93397,202.00006v-14h14v14z" data-paper-data="{&quot;index&quot;:null}" fill="#3a43c5" stroke="none" stroke-width="1" stroke-linejoin="miter"/><path d="M277.93393,172.00006v-14h14v14z" data-paper-data="{&quot;index&quot;:null}" fill="#3a43c5" stroke="none" stroke-width="1" stroke-linejoin="miter"/><path d="M187.93397,172.00006v-14h14v14z" data-paper-data="{&quot;index&quot;:null}" fill="#3a43c5" stroke="none" stroke-width="1" stroke-linejoin="miter"/><path d="M217.93398,202.00005v-44h44v44z" data-paper-data="{&quot;index&quot;:null}" fill="#ffffff" stroke="none" stroke-width="1" stroke-linejoin="miter"/><path d="M232.93398,187.00005v-14h14v14z" data-paper-data="{&quot;index&quot;:null}" fill="#000000" stroke="none" stroke-width="1" stroke-linejoin="miter"/></g></g></svg>