<svg version="1.1" xmlns="http://www.w3.org/2000/svg" xmlns:xlink="http://www.w3.org/1999/xlink" width="31.4634" height="44.13001" viewBox="0,0,31.4634,44.13001"><g transform="translate(-220.02865,-135.82456)"><g data-paper-data="{&quot;isPaintingLayer&quot;:true}" fill-rule="nonzero" stroke-linecap="butt" stroke-miterlimit="10" stroke-dasharray="" stroke-dashoffset="0" style="mix-blend-mode: normal"><path d="M231.79205,171.65458v-7h11v7z" fill="#000000" stroke="none" stroke-width="1" stroke-linejoin="miter"/><path d="M229.49205,178.95458v-7h21v7z" fill="#b4004c" stroke="#000000" stroke-width="2" stroke-linejoin="miter"/><path d="M235.23372,153.01295l-1.26452,-6.88483l4.91774,-0.90323l1.26451,6.88484z" fill="#ff0000" stroke="#000000" stroke-width="2" stroke-linejoin="miter"/><path d="M230.501,143.06132c-0.53447,-2.91 1.39127,-5.70228 4.30126,-6.23675c2.91,-0.53447 5.70228,1.39127 6.23675,4.30127c0.53447,2.91 -1.39127,5.70228 -4.30127,6.23675c-2.91,0.53447 -5.70228,-1.39127 -6.23675,-4.30127z" fill="#ff0000" stroke="#000000" stroke-width="2" stroke-linejoin="miter"/><g><path d="M229.14401,154.24025l-1.5871,5.49722l-5.52826,-4.57377z" fill="none" stroke="#000000" stroke-width="4" stroke-linejoin="round"/><path d="M229.14401,154.24025l-1.5871,5.49722l-5.52826,-4.57377z" fill="#b3b3b3" stroke="none" stroke-width="1" stroke-linejoin="miter"/></g><g><path d="M234.70596,150.32867l-5.38539,1.93286l0.4699,-7.15962z" fill="none" stroke="#000000" stroke-width="4" stroke-linejoin="round"/><path d="M234.70596,150.32867l-5.38539,1.93286l0.4699,-7.15962z" fill="#b3b3b3" stroke="none" stroke-width="1" stroke-linejoin="miter"/></g><g><path d="M245.40812,149.31651l-5.72158,0.04317l2.81114,-6.6014z" fill="none" stroke="#000000" stroke-width="4" stroke-linejoin="round"/><path d="M245.40812,149.31651l-5.72158,0.04317l2.81114,-6.6014z" fill="#b3b3b3" stroke="none" stroke-width="1" stroke-linejoin="miter"/></g><g><path d="M232.95523,151.67879l8.85193,-1.62581c3.2592,-0.5986 6.38655,1.55822 6.98516,4.81742l1.44517,7.86839l-20.65452,3.79355l-1.44517,-7.86838c-0.5986,-3.2592 1.55823,-6.38656 4.81742,-6.98516z" fill="#b4004c" stroke="#000000" stroke-width="2" stroke-linejoin="miter"/><path d="M239.67942,160.61104l-0.90323,-4.91774l4.91774,-0.90322l0.90322,4.91774z" fill="#ffffff" stroke="#ffffff" stroke-width="2" stroke-linejoin="round"/><path d="M241.46587,159.26621l-0.54193,-2.95065l2.95065,-0.54193l0.54193,2.95064z" fill="#000000" stroke="none" stroke-width="1" stroke-linejoin="miter"/></g></g></g></svg>