<svg version="1.1" xmlns="http://www.w3.org/2000/svg" xmlns:xlink="http://www.w3.org/1999/xlink" width="46.4" height="39.6" viewBox="0,0,46.4,39.6"><g transform="translate(-216.8,-140.4)"><g data-paper-data="{&quot;isPaintingLayer&quot;:true}" fill-rule="nonzero" stroke-linecap="butt" stroke-miterlimit="10" stroke-dasharray="" stroke-dashoffset="0" style="mix-blend-mode: normal"><path d="M217.8,163.6c0,-12.26072 9.93928,-22.2 22.2,-22.2c12.26072,0 22.2,9.93928 22.2,22.2c0,12.26072 -9.93928,15.4 -22.2,15.4c-12.26072,0 -22.2,-3.13928 -22.2,-15.4z" fill="#8000ff" stroke="#000000" stroke-width="0" stroke-linejoin="miter"/><path d="M217.8,163.6c0,-12.26072 9.93928,-22.2 22.2,-22.2c12.26072,0 22.2,9.93928 22.2,22.2c0,1.8909 -0.37926,3.56485 -0.82414,5.04379c-1.75306,5.8279 -1.43246,1.62036 -4.96042,-1.20964c-1.38183,-1.10845 -3.06836,1.56586 -5.98687,1.56586c-0.92962,0 -2.65885,-4.20916 -3.73659,-4.07705c-0.68125,0.08351 -1.95465,-3.47021 -3.2127,-3.37299c-1.04578,0.08082 0.63334,4.601 -0.04225,5.23671c-0.69873,0.65748 -2.39069,2.78029 -3.04458,2.99687c-0.89826,0.29752 -3.0888,-2.55247 -3.9924,-2.27091c-1.51532,0.47217 -5.98403,-1.69625 -7.38513,-1.14671c-1.5416,0.60464 -2.96148,3.80762 -4.03615,4.5769c-0.81547,0.58374 -1.64846,-3.2713 -2.24482,-2.99546c-1.80223,0.83361 -2.60523,4.53892 -3.56622,2.49605c-0.88461,-1.8805 -1.36774,-4.14027 -1.36774,-6.84341z" fill="#6f00de" stroke="#000000" stroke-width="0" stroke-linejoin="miter"/><path d="M217.8,163.6c0,-12.26072 9.93928,-22.2 22.2,-22.2c12.26072,0 22.2,9.93928 22.2,22.2c0,1.89091 -3.52212,-6.00657 -3.96699,-4.52764c-1.75306,5.8279 0.85325,6.19179 -2.67471,3.36178c-1.38182,-1.10845 -1.63979,1.28014 -4.5583,1.28014c-0.92962,0 -2.37313,-5.92344 -3.45087,-5.79134c-0.68125,0.08351 -1.24037,1.5298 -2.49841,1.62702c-1.04577,0.08082 -4.14722,0.30271 -4.80112,0.51929c-0.89826,0.29752 -3.94594,3.73324 -4.84954,4.0148c-1.51532,0.47217 -3.26975,0.44661 -4.67084,0.99615c-1.5416,0.60465 -1.53291,-6.90667 -2.60758,-6.13739c-0.81547,0.58374 -1.93417,4.7287 -2.53053,5.00454c-1.80223,0.83361 -2.46237,-0.74679 -3.42336,-2.78966c-0.88461,-1.8805 -4.36774,5.14544 -4.36774,2.4423z" fill="#6200c5" stroke="#000000" stroke-width="0" stroke-linejoin="miter"/><g><path d="M248.18438,163.62191v-6.84382l6.84382,1.6v5.24382z" fill="#ffffff" stroke="#ffffff" stroke-width="2" stroke-linejoin="round"/><path d="M250.9219,162.25315v-4.10629h4.10629v4.10629z" fill="#000000" stroke="none" stroke-width="1" stroke-linejoin="miter"/></g><path d="M217.8,163.6c0,-12.26072 9.93928,-22.2 22.2,-22.2c12.26072,0 22.2,9.93928 22.2,22.2c0,12.26072 -9.93928,15.4 -22.2,15.4c-12.26072,0 -22.2,-3.13928 -22.2,-15.4z" fill="none" stroke="#000000" stroke-width="2" stroke-linejoin="miter"/></g></g></svg>