<svg version="1.1" xmlns="http://www.w3.org/2000/svg" xmlns:xlink="http://www.w3.org/1999/xlink" width="187" height="133.26813" viewBox="0,0,187,133.26813"><g transform="translate(-146.5,-77.22298)"><g data-paper-data="{&quot;isPaintingLayer&quot;:true}" fill-rule="nonzero" stroke-miterlimit="10" stroke-dasharray="" stroke-dashoffset="0" style="mix-blend-mode: normal"><g fill="none" stroke-linecap="round" stroke-linejoin="round"><path d="M228.9,117.31111l42.98,-30.88l15.94,120.06" stroke="#000000" stroke-width="8"/><path d="M228.9,117.31111l42.98,-30.88l15.94,120.06" stroke="#440092" stroke-width="4"/></g><g fill="none" stroke-linecap="round" stroke-linejoin="round"><path d="M172.63,206.27111l25.92,-118.31l40.69,33.97" stroke="#000000" stroke-width="8"/><path d="M172.63,206.27111l25.92,-118.31l40.69,33.97" stroke="#440092" stroke-width="4"/></g><g fill="none" stroke-linecap="round" stroke-linejoin="round"><path d="M254,128.43111l37.5,-37.5l38,115" stroke="#000000" stroke-width="8"/><path d="M254,128.43111l37.5,-37.5l38,115" stroke="#440092" stroke-width="4"/></g><g fill="none" stroke-linecap="round" stroke-linejoin="round"><path d="M191.82,206.49111l15.94,-120.06l37.98,30.88" stroke="#000000" stroke-width="8"/><path d="M191.82,206.49111l15.94,-120.06l37.98,30.88" stroke="#440092" stroke-width="4"/></g><g fill="none" stroke-linecap="round" stroke-linejoin="round"><path d="M150.5,205.93111l38,-115l37.5,37.5" stroke="#000000" stroke-width="8"/><path d="M150.5,205.93111l38,-115l37.5,37.5" stroke="#440092" stroke-width="4"/></g><g fill="none" stroke-linecap="round" stroke-linejoin="round"><path d="M244.77,121.93111l36.94,-33.97l25.92,118.31" stroke="#000000" stroke-width="8"/><path d="M244.77,121.93111l36.94,-33.97l25.92,118.31" stroke="#440092" stroke-width="4"/></g><g stroke-linecap="butt"><path d="M276.23,139.60423h-72.6c-5.90945,0 -10.7,-4.79055 -10.7,-10.7v-11.64c-0.00144,-5.04951 3.53058,-9.41137 8.47,-10.46l36.3,-7.73c1.47051,-0.31002 2.98949,-0.31002 4.46,0l36.3,7.73c4.93942,1.04863 8.47145,5.41049 8.47,10.46v11.64c0,5.90945 -4.79055,10.7 -10.7,10.7z" fill="none" stroke="#000000" stroke-width="4" stroke-linejoin="round"/><path d="M276.23,139.60423h-72.6c-5.90945,0 -10.7,-4.79055 -10.7,-10.7v-11.64c-0.00144,-5.04951 3.53058,-9.41137 8.47,-10.46l36.3,-7.73c1.47051,-0.31002 2.98949,-0.31002 4.46,0l36.3,7.73c4.93942,1.04863 8.47145,5.41049 8.47,10.46v11.64c0,5.90945 -4.79055,10.7 -10.7,10.7z" fill="#7100e2" stroke="none" stroke-width="1" stroke-linejoin="miter"/></g><path d="M275.93,130.60423l-36,-5l-37,5v-17l37.09,-7l35.91,7z" fill="#6300c6" stroke="none" stroke-width="1" stroke-linecap="butt" stroke-linejoin="miter"/><path d="M232.93,130.60423v-25h14v25z" fill="#792bc7" stroke="none" stroke-width="1" stroke-linecap="butt" stroke-linejoin="miter"/><path d="M236.93,115.60423v-6h6v6z" fill="#5200a4" stroke="none" stroke-width="1" stroke-linecap="butt" stroke-linejoin="miter"/><path d="M236.93,107.60423v-6h6v6z" fill="#5200a4" stroke="none" stroke-width="1" stroke-linecap="butt" stroke-linejoin="miter"/><path d="M236.93,123.60423v-6h6v6z" fill="#7d0000" stroke="none" stroke-width="1" stroke-linecap="butt" stroke-linejoin="miter"/><path d="M236.93,131.60423v-6h6v6z" fill="#7d0000" stroke="none" stroke-width="1" stroke-linecap="butt" stroke-linejoin="miter"/><path d="M236.93,139.60423v-6h6v6z" fill="#5200a4" stroke="none" stroke-width="1" stroke-linecap="butt" stroke-linejoin="miter"/><path d="M231.93,124.60423c0,-4.41828 3.58172,-8 8,-8c4.41828,0 8,3.58172 8,8c0,4.41828 -3.58172,8 -8,8c-4.41828,0 -8,-3.58172 -8,-8z" fill="#001ca3" stroke="#000000" stroke-width="2" stroke-linecap="butt" stroke-linejoin="round"/><path d="M267.93,116.60423v11l-22,-3" fill="none" stroke="#000000" stroke-width="2" stroke-linecap="butt" stroke-linejoin="round"/><path d="M257.93,121.60423v9" fill="none" stroke="#000000" stroke-width="2" stroke-linecap="butt" stroke-linejoin="round"/><path d="M239.93,140.60423v-9" fill="none" stroke="#000000" stroke-width="2" stroke-linecap="butt" stroke-linejoin="round"/><path d="M233.93,124.60423l-22,3v-11" fill="none" stroke="#000000" stroke-width="2" stroke-linecap="butt" stroke-linejoin="round"/><path d="M221.93,121.60423v9" fill="none" stroke="#000000" stroke-width="2" stroke-linecap="butt" stroke-linejoin="round"/><g stroke-linecap="butt"><path d="M208.93,141.22298v-62h62v62z" fill="#ff00f7" stroke="#000000" stroke-width="4" stroke-linejoin="round"/><path d="M208.93,141.22298v-62h62v62z" fill="#8c00ff" stroke="none" stroke-width="1" stroke-linejoin="miter"/></g><path d="M217.93,132.22298v-44h44v44z" fill="#7100e2" stroke="none" stroke-width="1" stroke-linecap="butt" stroke-linejoin="miter"/><path d="M261.93,132.22298h-44v-23l22,7l22,-7z" fill="#ffffff" stroke="none" stroke-width="1" stroke-linecap="butt" stroke-linejoin="miter"/><path d="M223.93,132.22298v-9h9v9z" fill="#000000" stroke="none" stroke-width="1" stroke-linecap="butt" stroke-linejoin="miter"/><path d="M246.93,132.22298v-9h9v9z" fill="#000000" stroke="none" stroke-width="1" stroke-linecap="butt" stroke-linejoin="miter"/><g stroke-linecap="butt"><path d="M254.02,143.22298h16l-8,16z" fill="none" stroke="#000000" stroke-width="4" stroke-linejoin="round"/><path d="M254.02,143.22298h16l-8,16z" fill="#b3b3b3" stroke="none" stroke-width="1" stroke-linejoin="miter"/></g><g stroke-linecap="butt"><path d="M210.02,143.22298h16l-8,16z" fill="none" stroke="#000000" stroke-width="4" stroke-linejoin="round"/><path d="M210.02,143.22298h16l-8,16z" fill="#b3b3b3" stroke="none" stroke-width="1" stroke-linejoin="miter"/></g><g stroke-linecap="butt"><path d="M232.02,143.22298h16l-8,16z" fill="none" stroke="#000000" stroke-width="4" stroke-linejoin="round"/><path d="M232.02,143.22298h16l-8,16z" fill="#b3b3b3" stroke="none" stroke-width="1" stroke-linejoin="miter"/></g></g></g></svg>