<svg version="1.1" xmlns="http://www.w3.org/2000/svg" xmlns:xlink="http://www.w3.org/1999/xlink" width="62" height="62.00004" viewBox="0,0,62,62.00004"><g transform="translate(-209,-149)"><g data-paper-data="{&quot;isPaintingLayer&quot;:true}" fill-rule="nonzero" stroke="none" stroke-linecap="butt" stroke-miterlimit="10" stroke-dasharray="" stroke-dashoffset="0" style="mix-blend-mode: normal"><path d="M209,211.00004v-62h62v62z" fill="#39b54a" stroke-width="0" stroke-linejoin="round"/><path d="M218,202.00004v-44h44v44z" fill="#ffffff" stroke-width="1" stroke-linejoin="miter"/><path d="M209,180.91988v-31.91988h62v31.91988l-16.71247,-11.88213l-7.93777,9.33262l-9.22192,-20.36584l-3.66921,15.47668l-8.72326,-10.14918l-4.84518,12.16317l-4.38202,-4.51004z" fill="#00ffff" stroke-width="0" stroke-linejoin="round"/><path d="M209,174.43471v-25.43471h62v25.43471l-16.71247,-9.46804l-7.93777,7.43652l-9.22192,-16.22811l-3.66921,12.33228l-8.72326,-8.08717l-4.84518,9.69197l-4.38202,-3.59373z" fill="#a3ffff" stroke-width="0" stroke-linejoin="round"/><path d="M218,173.57567v-15.85163h44v16.95549l-7.57605,-5.23073l-7.85727,10.42843l-9.04288,-18.89686l-2.43264,11.51231l-2.95861,2.70863l-6.44782,-9.56087l-3.96322,11.98941z" fill="#b8ffff" stroke-width="1" stroke-linejoin="miter"/><path d="M209,169.19139v-20.19139h62v20.19139l-16.71247,-7.51622l-7.93777,5.90349l-8.53201,-8.74325l-4.35912,5.65054l-8.72326,-6.42001l-4.84518,7.69399l-4.38202,-2.85289z" fill="#ffffff" stroke-width="0" stroke-linejoin="round"/></g></g></svg>