<svg version="1.1" xmlns="http://www.w3.org/2000/svg" xmlns:xlink="http://www.w3.org/1999/xlink" width="77.25838" height="95.46316" viewBox="0,0,77.25838,95.46316"><g transform="translate(-201.3708,-141.37082)"><g data-paper-data="{&quot;isPaintingLayer&quot;:true}" fill-rule="nonzero" stroke-miterlimit="10" stroke-dasharray="" stroke-dashoffset="0" style="mix-blend-mode: normal"><g stroke-linecap="butt"><path d="M253.99999,213.98824h16l-8,16z" fill="none" stroke="#000000" stroke-width="4" stroke-linejoin="round"/><path d="M253.99999,213.98824h16l-8,16z" fill="#dcb1ff" stroke="none" stroke-width="1" stroke-linejoin="miter"/></g><g stroke-linecap="butt"><path d="M209.99999,213.98824h16l-8,16z" fill="none" stroke="#000000" stroke-width="4" stroke-linejoin="round"/><path d="M209.99999,213.98824h16l-8,16z" fill="#dcb1ff" stroke="none" stroke-width="1" stroke-linejoin="miter"/></g><path d="M258.81458,217.62921h-37.62918c-10.39102,0 -18.8146,-8.42358 -18.8146,-18.8146v-37.62918c0,-10.39102 8.42358,-18.8146 18.8146,-18.8146h37.62918c10.39102,0 18.8146,8.42358 18.8146,18.8146v37.62918c0,10.39102 -8.42358,18.8146 -18.8146,18.8146z" fill="#a400b5" stroke="#000000" stroke-width="2" stroke-linecap="butt" stroke-linejoin="miter"/><g stroke-linecap="butt"><path d="M232,218.83399h16l-8,16z" fill="none" stroke="#000000" stroke-width="4" stroke-linejoin="round"/><path d="M232,218.83399h16l-8,16z" fill="#dcb1ff" stroke="none" stroke-width="1" stroke-linejoin="miter"/></g><path d="M216.43129,210.74705l15.37669,2.56278" fill="none" stroke="#000000" stroke-width="2" stroke-linecap="round" stroke-linejoin="miter"/><path d="M247.89655,213.02507l15.80381,-3.41704" fill="none" stroke="#000000" stroke-width="2" stroke-linecap="round" stroke-linejoin="miter"/><path d="M227.82143,191.95332l11.95964,3.84417l12.2444,-4.41367" fill="none" stroke="#000000" stroke-width="2" stroke-linecap="round" stroke-linejoin="miter"/></g></g></svg>