<svg version="1.1" xmlns="http://www.w3.org/2000/svg" xmlns:xlink="http://www.w3.org/1999/xlink" width="269.38868" height="87.09816" viewBox="0,0,269.38868,87.09816"><g transform="translate(-107.76352,-134.715)"><g data-paper-data="{&quot;isPaintingLayer&quot;:true}" fill-rule="nonzero" stroke-linecap="butt" stroke-linejoin="miter" stroke-miterlimit="10" stroke-dasharray="" stroke-dashoffset="0" style="mix-blend-mode: normal"><path d="M349.37676,152.495h-13.85v-15.78h39.4l0.06,0.13l-17.61,47.1h-20.52z" fill="none" stroke="#ffffff" stroke-width="4"/><path d="M349.37676,152.495h-13.85v-15.78h39.4l0.06,0.13l-17.61,47.1h-20.52z" fill="#000000" stroke="none" stroke-width="1"/><path d="M109.76564,137.09956h19.44v30.46h14.61v16.77h-34z" fill="none" stroke="#ffffff" stroke-width="4"/><path d="M148.89564,137.09956h34v15.78h-14.56v2.55h11.74v11.22h-11.74v2.67h15.46v15h-34.9z" fill="none" stroke="#ffffff" stroke-width="4"/><path d="M186.14564,137.09956h21l7,25h0.13l7.44,-25h19l-18.07,47.23h-18.43z" fill="none" stroke="#ffffff" stroke-width="4"/><path d="M243.93564,137.09956h34v15.78h-14.56v2.55h11.74v11.22h-11.74v2.67h15.46v15h-34.9z" fill="none" stroke="#ffffff" stroke-width="4"/><path d="M283.66564,137.09956h19.44v30.46h14.61v16.77h-34.05z" fill="none" stroke="#ffffff" stroke-width="4"/><path d="M109.76564,137.09956h19.44v30.46h14.61v16.77h-34z" fill="#000000" stroke="none" stroke-width="1"/><path d="M148.89564,137.09956h34v15.78h-14.56v2.55h11.74v11.22h-11.74v2.67h15.46v15h-34.9z" fill="#000000" stroke="none" stroke-width="1"/><path d="M186.14564,137.09956h21l7,25h0.13l7.44,-25h19l-18.07,47.23h-18.43z" fill="#000000" stroke="none" stroke-width="1"/><path d="M243.93564,137.09956h34v15.78h-14.56v2.55h11.74v11.22h-11.74v2.67h15.46v15h-34.9z" fill="#000000" stroke="none" stroke-width="1"/><path d="M283.66564,137.09956h19.44v30.46h14.61v16.77h-34.05z" fill="#000000" stroke="none" stroke-width="1"/><path d="M303.34781,194.34316h18.80877v16.43226h14.13495v9.03774h-32.89834z" fill="none" stroke="#ffffff" stroke-width="4"/><path d="M341.21493,194.34316h32.89834v8.50686h-14.08957v1.37146h11.34426v6.04834h-11.34426v1.44098h14.96306v8.08973h-33.77184z" fill="none" stroke="#ffffff" stroke-width="4"/><path d="M303.34781,194.34316h18.80877v16.43226h14.13495v9.03774h-32.89834z" fill="#000000" stroke="none" stroke-width="1"/><path d="M341.21493,194.34316h32.89834v8.50686h-14.08957v1.37146h11.34426v6.04834h-11.34426v1.44098h14.96306v8.08973h-33.77184z" fill="#000000" stroke="none" stroke-width="1"/><path d="M137.93864,192.74529c4.58252,-0.05132 9.14218,0.44639 13.46715,1.47v9.39c-3.60309,-1.02764 -7.46699,-1.57438 -11.3782,-1.61c-6.44466,0 -9.91146,1.72 -9.91146,4.07c0,2.35 3.46678,4 9.91146,4c4.00924,-0.00764 7.97136,-0.58339 11.63004,-1.69v9c-4.45089,1.09394 -9.16057,1.62941 -13.8968,1.58c-15.30425,0.02 -26.48983,-5.48 -26.48983,-13.1c0,-7.62 11.11153,-13.11 26.66763,-13.11z" fill="none" stroke="#ffffff" stroke-width="4"/><path d="M137.93864,192.74529c4.58252,-0.05132 9.14218,0.44639 13.46715,1.47v9.39c-3.60309,-1.02764 -7.46699,-1.57438 -11.3782,-1.61c-6.44466,0 -9.91146,1.72 -9.91146,4.07c0,2.35 3.46678,4 9.91146,4c4.00924,-0.00764 7.97136,-0.58339 11.63004,-1.69v9c-4.45089,1.09394 -9.16057,1.62941 -13.8968,1.58c-15.30425,0.02 -26.48983,-5.48 -26.48983,-13.1c0,-7.62 11.11153,-13.11 26.66763,-13.11z" fill="#000000" stroke="none" stroke-width="1"/><path d="M171.56449,192.93462h17.0333l16.56381,25.47h-19.24931l-1.5024,-3.34h-9.97208l-1.67143,3.34h-17.7657zM181.5178,208.65462l-1.87801,-5.17h-0.11267l-1.87799,5.17z" fill="none" stroke="#ffffff" stroke-width="4"/><path d="M171.56449,192.93462h17.0333l16.56381,25.47h-19.24931l-1.5024,-3.34h-9.97208l-1.67143,3.34h-17.7657zM181.5178,208.65462l-1.87801,-5.17h-0.11267l-1.87799,5.17z" fill="#000000" stroke="none" stroke-width="1"/><path d="M214.08473,208.28226c4.60048,1.7116 9.73039,2.73641 15.01709,3c1.89446,0 2.34112,-0.42 2.34112,-0.84c0,-0.42 -0.56988,-0.71 -1.3862,-0.81c-2.21792,-0.32 -8.57899,-0.71 -13.24584,-3c-2.62167,-1.22505 -4.13868,-3.21362 -4.05078,-5.31c0,-5.1 7.06959,-8.58 18.6212,-8.58c5.56686,-0.0021 11.08453,0.67639 16.26467,2v8.34c-4.37834,-1.2798 -9.07175,-2.045 -13.86194,-2.26c-1.81747,0 -2.32573,0.39 -2.32573,0.78c0,0.39 0.69308,0.74 1.44781,0.88c1.89446,0.31 8.19395,0.74 12.67596,2.71c2.91342,1.1744 4.66665,3.25371 4.62065,5.48c0,4.89 -7.06959,8.3 -19.05246,8.3c-5.84923,0.0188 -11.65075,-0.68364 -17.09639,-2.07z" fill="none" stroke="#ffffff" stroke-width="4"/><path d="M264.23413,201.80226h-12.73758v-8.65h44.28118v8.65h-12.67596v16.82h-18.86764z" fill="none" stroke="#ffffff" stroke-width="4"/><path d="M214.08473,208.28226c4.60048,1.7116 9.73039,2.73641 15.01709,3c1.89446,0 2.34112,-0.42 2.34112,-0.84c0,-0.42 -0.56988,-0.71 -1.3862,-0.81c-2.21792,-0.32 -8.57899,-0.71 -13.24584,-3c-2.62167,-1.22505 -4.13868,-3.21362 -4.05078,-5.31c0,-5.1 7.06959,-8.58 18.6212,-8.58c5.56686,-0.0021 11.08453,0.67639 16.26467,2v8.34c-4.37834,-1.2798 -9.07175,-2.045 -13.86194,-2.26c-1.81747,0 -2.32573,0.39 -2.32573,0.78c0,0.39 0.69308,0.74 1.44781,0.88c1.89446,0.31 8.19395,0.74 12.67596,2.71c2.91342,1.1744 4.66665,3.25371 4.62065,5.48c0,4.89 -7.06959,8.3 -19.05246,8.3c-5.84923,0.0188 -11.65075,-0.68364 -17.09639,-2.07z" fill="#000000" stroke="none" stroke-width="1"/><path d="M264.23413,201.80226h-12.73758v-8.65h44.28118v8.65h-12.67596v16.82h-18.86764z" fill="#000000" stroke="none" stroke-width="1"/></g></g></svg>