<svg version="1.1" xmlns="http://www.w3.org/2000/svg" xmlns:xlink="http://www.w3.org/1999/xlink" width="102.1724" height="84.00002" viewBox="0,0,102.1724,84.00002"><g transform="translate(-188.9138,-154.50003)"><g data-paper-data="{&quot;isPaintingLayer&quot;:true}" fill-rule="nonzero" stroke-linecap="butt" stroke-miterlimit="10" stroke-dasharray="" stroke-dashoffset="0" style="mix-blend-mode: normal"><path d="M209,218.50004v-62h62v62z" fill="none" stroke="#000000" stroke-width="4" stroke-linejoin="round"/><g><path d="M254.09,220.50005h16l-8,16z" fill="none" stroke="#000000" stroke-width="4" stroke-linejoin="round"/><path d="M254.09,220.50005h16l-8,16z" fill="#9f9cca" stroke="none" stroke-width="1" stroke-linejoin="miter"/></g><g><path d="M210.09,220.50005h16l-8,16z" fill="none" stroke="#000000" stroke-width="4" stroke-linejoin="round"/><path d="M210.09,220.50005h16l-8,16z" fill="#9f9cca" stroke="none" stroke-width="1" stroke-linejoin="miter"/></g><g><path d="M232.09,220.50005h16l-8,16z" fill="none" stroke="#000000" stroke-width="4" stroke-linejoin="round"/><path d="M232.09,220.50005h16l-8,16z" fill="#9f9cca" stroke="none" stroke-width="1" stroke-linejoin="miter"/></g><g><path d="M206.9138,201.59004v16l-16,-8z" fill="none" stroke="#000000" stroke-width="4" stroke-linejoin="round"/><path d="M206.9138,201.59004v16l-16,-8z" fill="#9f9cca" stroke="none" stroke-width="1" stroke-linejoin="miter"/></g><g><path d="M206.9138,157.59004v16.00001l-16,-8.00001z" fill="none" stroke="#000000" stroke-width="4" stroke-linejoin="round"/><path d="M206.9138,157.59004v16.00001l-16,-8.00001z" fill="#9f9cca" stroke="none" stroke-width="1" stroke-linejoin="miter"/></g><g><path d="M206.9138,179.59004v16l-16,-8z" fill="none" stroke="#000000" stroke-width="4" stroke-linejoin="round"/><path d="M206.9138,179.59004v16l-16,-8z" fill="#9f9cca" stroke="none" stroke-width="1" stroke-linejoin="miter"/></g><g><path d="M273.0862,173.40999v-16l16,8z" fill="none" stroke="#000000" stroke-width="4" stroke-linejoin="round"/><path d="M273.0862,173.40999v-16l16,8z" fill="#9f9cca" stroke="none" stroke-width="1" stroke-linejoin="miter"/></g><g><path d="M273.0862,217.41006v-16l16,8z" fill="none" stroke="#000000" stroke-width="4" stroke-linejoin="round"/><path d="M273.0862,217.41006v-16l16,8z" fill="#9f9cca" stroke="none" stroke-width="1" stroke-linejoin="miter"/></g><g><path d="M273.0862,195.41006v-16l16,8z" fill="none" stroke="#000000" stroke-width="4" stroke-linejoin="round"/><path d="M273.0862,195.41006v-16l16,8z" fill="#9f9cca" stroke="none" stroke-width="1" stroke-linejoin="miter"/></g><path d="M209,218.49997v-62h62v62z" fill="#4138b5" stroke="none" stroke-width="1" stroke-linejoin="miter"/><path d="M218,209.50002v-44.00001h44v44.00001z" fill="#4239c4" stroke="none" stroke-width="1" stroke-linejoin="miter"/><path d="M262,209.50004h-44v-12.75207h44z" fill="#ffffff" stroke="none" stroke-width="1" stroke-linejoin="miter"/><path d="M224,209.50004v-9h9v9z" fill="#000000" stroke="none" stroke-width="1" stroke-linejoin="miter"/><path d="M247,209.50004v-9h9v9z" fill="#000000" stroke="none" stroke-width="1" stroke-linejoin="miter"/><path d="M209,218.49997v-62h62v62z" fill="#4138b5" stroke="none" stroke-width="1" stroke-linejoin="miter"/><path d="M218,209.50002v-44.00001h44v44.00001z" fill="#4239c4" stroke="none" stroke-width="1" stroke-linejoin="miter"/><path d="M262,209.50004h-44v-21.35207l21.3,8.6l22.7,-8.6z" fill="#ffffff" stroke="none" stroke-width="1" stroke-linejoin="miter"/><path d="M224,209.50004v-9h9v9z" fill="#000000" stroke="none" stroke-width="1" stroke-linejoin="miter"/><path d="M247,209.50004v-9h9v9z" fill="#000000" stroke="none" stroke-width="1" stroke-linejoin="miter"/><g stroke="none"><path d="M209,188.51989v-31.91988h62v31.91988l-16.71247,-11.88213l-7.93777,9.33262l-9.22192,-20.36584l-3.66921,15.47668l-8.72326,-10.14918l-4.84518,12.16317l-4.38202,-4.51004z" fill="#00ffff" stroke-width="0" stroke-linejoin="round"/><path d="M209,182.03471v-25.43471h62v25.43471l-16.71247,-9.46804l-7.93777,7.43652l-9.22192,-16.22811l-3.66921,12.33228l-8.72326,-8.08717l-4.84518,9.69197l-4.38202,-3.59373z" fill="#a3ffff" stroke-width="0" stroke-linejoin="round"/><path d="M218,181.17568v-15.85163h44v16.95549l-7.57605,-5.23073l-7.85727,10.42843l-9.04288,-18.89686l-2.43264,11.51231l-2.95861,2.70863l-6.44782,-9.56087l-3.96322,11.98941z" fill="#b8ffff" stroke-width="1" stroke-linejoin="miter"/><path d="M209,176.7914v-20.19139h62v20.19139l-16.71247,-7.51622l-7.93777,5.90349l-8.53201,-8.74325l-4.35912,5.65054l-8.72326,-6.42001l-4.84518,7.69399l-4.38202,-2.85289z" fill="#ffffff" stroke-width="0" stroke-linejoin="round"/></g></g></g></svg>