<svg version="1.1" xmlns="http://www.w3.org/2000/svg" xmlns:xlink="http://www.w3.org/1999/xlink" width="29.6" height="52.0141" viewBox="0,0,29.6,52.0141"><g transform="translate(-225.2,-156.98594)"><g data-paper-data="{&quot;isPaintingLayer&quot;:true}" fill-rule="nonzero" stroke-linecap="butt" stroke-miterlimit="10" stroke-dasharray="" stroke-dashoffset="0" style="mix-blend-mode: normal"><g><path d="M227.2,187.00004v-18h25.6v18z" fill="none" stroke="#000000" stroke-width="4" stroke-linejoin="round"/><path d="M227.2,187.00004v-18h25.6v18z" fill="#ffff00" stroke="none" stroke-width="1" stroke-linejoin="miter"/></g><g><path d="M245,202.00004v5h-10v-5h3v-35.55c-1.56787,-0.90521 -2.33228,-2.75064 -1.8637,-4.49938c0.46857,-1.74873 2.05328,-2.96472 3.8637,-2.96472c1.81042,0 3.39513,1.21599 3.8637,2.96472c0.46857,1.74873 -0.29583,3.59417 -1.8637,4.49938v35.55z" fill="none" stroke="#000000" stroke-width="4" stroke-linejoin="round"/><path d="M245,202.00004v5h-10v-5h3v-35.55c-1.56787,-0.90521 -2.33228,-2.75064 -1.8637,-4.49938c0.46857,-1.74873 2.05328,-2.96472 3.8637,-2.96472c1.81042,0 3.39513,1.21599 3.8637,2.96472c0.46857,1.74873 -0.29583,3.59417 -1.8637,4.49938v35.55z" fill="#3ac54d" stroke="none" stroke-width="1" stroke-linejoin="miter"/></g><path d="M227.2,187.00004v-18h25.6v18z" fill="#ffff00" stroke="none" stroke-width="1" stroke-linejoin="miter"/><g stroke="none" stroke-width="0.5" stroke-linejoin="miter"><path d="M226.38673,192.15041c-0.41529,-0.05356 -0.33702,-0.33773 -0.33702,-0.33773l0.19498,-0.43599c0.10751,-0.07254 0.21394,-0.14646 0.3193,-0.22161c-0.76691,-1.38725 -0.18351,-3.74821 -0.18351,-4.95673c0,-2.91364 0.33808,-5.75373 0.33808,-8.67534v-0.57836v0c0,-0.15971 0.1892,-0.28918 0.4226,-0.28918c0.13417,0 0.25374,0.04279 0.33115,0.10951c0.17501,0.0014 0.30575,0.09087 0.30575,0.09087c3.42797,2.35578 8.26881,2.22872 12.54817,2.22872c3.23806,0 8.13424,-3.18419 10.91147,-2.52617c1.75523,0.41587 1.7907,2.10389 2.67483,2.95588c0.15591,4.03693 -0.02239,7.44944 -1.94422,11.34524c-0.14336,0.21685 -0.30544,0.41716 -0.48455,0.60205c0.00433,0.00443 0.00854,0.00874 0.01262,0.01292c0,0 0.23442,0.24061 -0.11721,0.40102c-0.15964,0.07283 -0.29513,0.063 -0.39548,0.03055c-1.60411,1.23199 -4.14234,1.59896 -6.83666,1.62653c-0.38593,0.51851 -0.88957,0.95417 -1.42799,0.9357c-0.07593,-0.00261 -1.00292,-0.71179 -1.32786,-1.00379c-1.90128,-0.09947 -3.74997,-0.27848 -5.2777,-0.35573c-0.13,-0.00235 -0.2683,-0.00474 -0.41385,-0.00736c-0.26919,0.201 -0.58305,0.28351 -0.94439,0.18871c-0.20972,-0.05503 -0.40941,-0.13169 -0.60048,-0.22618c-2.4527,-0.08186 -5.64359,-0.32227 -6.97395,-1.22428c-0.06971,-0.04726 -0.13493,-0.09815 -0.19592,-0.15235c-0.04895,0.03367 -0.09654,0.06647 -0.14257,0.09835l0.03795,0.13415c0,0 -0.07827,0.28418 -0.49355,0.23062zM229.71215,188.35309c1.72457,0.4684 3.35723,2.5033 4.53705,3.58128c0.02289,0.02091 0.21875,0.32493 0.45992,0.56994c0.33886,0.008 0.65693,0.01354 0.94493,0.01833c0.60866,-0.78527 0.42446,-2.55443 0.84467,-3.70103l-0.26934,-0.09215l0.33398,-0.45708c0.06776,-0.09781 0.21338,-0.16546 0.38208,-0.16546c0.16858,0 0.3141,0.06755 0.38193,0.16524l0.31889,0.43555c1.22804,0.99385 2.58938,1.94787 3.69896,2.98943c0.11617,0.10905 0.42701,0.70423 0.72058,1.24718c0.51767,0.02255 1.03711,0.03715 1.55186,0.03991c0.23922,-0.41673 0.41095,-0.86816 0.44601,-1.09648c0.46486,-0.71788 0.71254,-4.3897 1.44965,-4.66302c1.07957,-0.40031 4.12738,2.41924 5.45017,3.71673c0.07783,-0.0939 0.15073,-0.19183 0.21843,-0.29393c1.87342,-3.80862 1.70474,-7.06496 1.92816,-10.95165c-0.40663,-0.355 -0.59523,-0.98508 -0.9023,-1.54219c-0.0751,0.62968 -0.27711,1.23477 -0.68505,1.81206c-0.76807,1.05116 -1.58443,3.46403 -2.76336,4.22431c-1.6375,1.05601 -3.84139,-3.30823 -4.03799,-4.8639c-0.32482,0.44454 -0.64964,0.88908 -0.97446,1.33362c-0.59608,0.81576 -2.40216,4.69248 -4.16454,4.55163c-1.43627,-0.1148 -2.97086,-5.94964 -3.82808,-5.10194c-1.04953,0.47321 -3.90372,3.30901 -5.366,3.00875c-0.74916,-0.15383 -2.17825,-2.71179 -2.84112,-4.42517c-0.06793,2.51396 -0.32151,4.98206 -0.32151,7.5053c0,0.97177 -0.53153,3.17983 -0.02423,4.47775c0.9195,-0.72565 1.75283,-1.53223 2.5107,-2.32299zM242.66653,193.89104c0.19193,-0.01406 0.38757,-0.15614 0.56946,-0.36124c-0.28503,-0.00439 -0.57082,-0.01187 -0.85647,-0.02182c0.13516,0.23043 0.24195,0.38636 0.28701,0.38306zM247.67279,189.16746c-0.62459,-0.45192 -1.83915,-2.06694 -1.71512,-1.45075c0.26137,1.29854 -0.2563,3.0913 -1.07762,4.32079c-0.02791,0.19525 -0.16374,0.55495 -0.37616,0.9389c2.39402,-0.05771 4.60098,-0.42951 5.94384,-1.52555c-0.84064,-0.81401 -1.80257,-1.57983 -2.77494,-2.28339zM237.00212,189.07631c0.04439,0.85022 -0.20168,2.48041 -0.80678,3.45695c1.34703,0.07406 3.02672,0.24394 4.78034,0.35289c-1.00133,-1.42387 -2.39176,-2.51638 -3.97356,-3.80984zM229.97943,188.90177c-0.23074,0.782 -1.40434,1.67814 -2.39597,2.37221c0.05924,0.05749 0.12384,0.10972 0.19419,0.15615c1.03424,0.68249 3.38622,0.9267 5.48043,1.02466c-1.24606,-1.07769 -2.1401,-2.79855 -3.27866,-3.55302zM251.63666,177.43239c-0.18281,-0.14701 -0.40304,-0.26188 -0.67693,-0.32782c-0.87102,-0.20969 -2.60969,0.65689 -3.34484,0.90842c-0.83584,0.28598 -1.58588,0.56163 -2.32153,0.80304l0.14397,0.19704l-0.16321,0.05584c0.93181,1.53306 0.97334,3.99751 2.62349,4.88868c0.07095,0.03832 0.97558,-1.56079 1.04729,-1.68422c0.51122,-0.87988 1.20363,-1.72016 1.82187,-2.56627c0.50594,-0.6637 0.63154,-1.43093 0.63154,-2.1841zM243.83821,179.2416c-1.04258,0.25926 -2.14869,0.42131 -3.51198,0.42131c-1.18034,0 -2.38983,0.0045 -3.59704,-0.03192c1.16404,0.69048 1.72714,3.00847 2.28525,3.77843c0.28611,0.39472 0.06409,1.28399 0.70333,1.23108c1.12421,-0.09305 2.79131,-3.57989 3.27319,-4.23939c0.28242,-0.38651 0.56484,-0.77302 0.84725,-1.15953zM235.40703,179.57239c-2.6228,-0.15811 -5.18,-0.5904 -7.34469,-1.76944c0.71869,0.98995 1.25951,2.11305 1.83682,3.08119c0.13781,0.23112 0.44814,1.5855 0.75643,1.68538c0.45878,0.14863 4.02973,-2.65811 4.56887,-2.91068c0.06197,-0.03257 0.12281,-0.06134 0.18257,-0.08647z" fill="#000000"/><path d="M227.12837,190.70515c-0.5073,-1.29793 0.013,-3.5309 0.013,-4.50267c0,-2.52323 0.27201,-5.03172 0.33994,-7.54568c0.66287,1.71338 2.07859,4.28747 2.82775,4.4413c1.46228,0.30026 4.35567,-2.56636 5.4052,-3.03958c0.85721,-0.8477 2.37574,4.99482 3.81202,5.10961c1.76238,0.14086 3.58582,-3.6412 4.1819,-4.45697c0.32482,-0.44454 0.72693,-0.99195 1.05175,-1.43649c0.19661,1.55566 2.44429,5.95835 4.08179,4.90234c1.17893,-0.76028 1.84414,-3.12653 2.61221,-4.17769c0.40794,-0.57729 0.74186,-1.25445 0.81696,-1.88412c0.30707,0.55711 0.50321,1.19391 0.90983,1.54891c-0.22342,3.88669 -0.05505,7.20685 -1.92847,11.01548c-0.0677,0.1021 -0.27955,0.13418 -0.35738,0.22809c-1.32279,-1.29749 -4.22469,-4.05987 -5.30427,-3.65956c-0.73711,0.27332 -1.02835,3.97476 -1.49322,4.69265c-0.03506,0.22832 -0.21405,0.68164 -0.45327,1.09837c-0.51476,-0.00276 -1.04508,-0.01544 -1.56275,-0.03799c-0.29357,-0.54295 -0.60785,-1.13774 -0.72402,-1.24679c-1.10958,-1.04156 -2.52223,-2.00157 -3.75027,-2.99543l-0.32763,-0.43915c-0.06783,-0.0977 -0.21964,-0.16851 -0.38822,-0.16851c-0.1687,0 -0.20422,-0.02011 -0.27198,0.0777l-0.33604,0.45588l0.26605,0.09039c-0.42021,1.1466 -0.25303,2.90902 -0.86169,3.69429c-0.288,-0.00479 -0.67898,0.09394 -1.01785,0.08594c-0.24117,-0.24502 -0.44236,-0.55112 -0.46524,-0.57204c-1.17982,-1.07798 -2.84642,-3.14077 -4.57099,-3.60917c-0.75788,0.79076 -1.58564,1.6052 -2.50514,2.33086z" data-paper-data="{&quot;noHover&quot;:false,&quot;origItem&quot;:[&quot;Path&quot;,{&quot;applyMatrix&quot;:true,&quot;segments&quot;:[[[229.71215,193.83624],[-0.75788,1.1556],[1.72457,0.68451]],[[234.2492,199.06985],[-1.17982,-1.57534],[0.02289,0.03056]],[[234.70912,199.90275],[-0.24117,-0.35806],[0.33886,0.01169]],[[235.65406,199.92953],[-0.288,-0.007],[0.60866,-1.14758]],[[236.49873,194.52091],[-0.42021,1.67562],[0,0]],[236.22938,194.38624],[[236.56337,193.71827],[0,0],[0.06776,-0.14294]],[[236.94545,193.47648],[-0.1687,0],[0.16858,0]],[[237.32738,193.71796],[-0.06783,-0.14277],[0,0]],[[237.64627,194.35447],[0,0],[1.22804,1.45239]],[[241.34522,198.72316],[-1.10958,-1.52211],[0.11617,0.15936]],[[242.06581,200.54576],[-0.29357,-0.79345],[0.51767,0.03295]],[[243.61767,200.60408],[-0.51476,-0.00403],[0.23922,-0.609]],[[244.06368,199.00172],[-0.03506,0.33366],[0.46486,-1.0491]],[[245.51332,192.18728],[-0.73711,0.39943],[1.07957,-0.58501]],[[250.9635,197.61883],[-1.32279,-1.89612],[0.07783,-0.13722]],[[251.18193,197.18929],[-0.0677,0.14921],[1.87342,-5.56584]],[[253.11009,181.18478],[-0.22342,5.67992],[-0.40663,-0.51879]],[[252.20779,178.93105],[0.30707,0.81415],[-0.0751,0.9202]],[[251.52274,181.57915],[0.40794,-0.84364],[-0.76807,1.53614]],[[248.75938,187.75247],[1.17893,-1.11106],[-1.6375,1.54323]],[[244.72139,180.64447],[0.19661,2.27341],[-0.32482,0.64964]],[[243.74693,182.59339],[0.32482,-0.64964],[-0.59608,1.19214]],[[239.58238,189.24504],[1.76238,0.20585],[-1.43627,-0.16776]],[[235.75431,181.78917],[0.85721,-1.23881],[-1.04953,0.69154]],[[230.38831,186.1861],[1.46228,0.43879],[-0.74916,-0.2248]],[[227.54719,179.71924],[0.66287,2.5039],[-0.06793,3.67384]],[[227.22568,190.68733],[0,-3.6874],[0,1.42012]],[[227.20145,197.23101],[-0.5073,-1.89676],[0.9195,-1.06045]]],&quot;closed&quot;:true}]}" fill="#610000"/><path d="M241.03074,192.93003c-1.75363,-0.10895 -3.54968,-0.2829 -4.89671,-0.35696c0.6051,-0.97654 0.87069,-2.69681 0.8263,-3.54703c1.58181,1.29346 3.06908,2.48012 4.07041,3.90399z" data-paper-data="{&quot;noHover&quot;:false,&quot;origItem&quot;:[&quot;Path&quot;,{&quot;applyMatrix&quot;:true,&quot;segments&quot;:[[[237.00212,194.89313],[1.58181,1.89023],[0.04439,1.2425]],[[236.19534,199.94504],[0.6051,-1.4271],[1.34703,0.10823]],[[240.97568,200.46075],[-1.75363,-0.15922],[-1.00133,-2.08082]]],&quot;closed&quot;:true}]}" fill="#ffffff"/><path d="M250.52094,191.47976c-1.34286,1.09605 -3.67389,1.48512 -6.06791,1.54284c0.21242,-0.38395 0.33907,-0.74914 0.36698,-0.94438c0.82131,-1.22949 1.36725,-3.11655 1.10588,-4.41509c-0.12403,-0.61619 1.1325,0.99501 1.75709,1.44693c0.97237,0.70356 1.99731,1.5557 2.83795,2.36971z" data-paper-data="{&quot;noHover&quot;:false,&quot;origItem&quot;:[&quot;Path&quot;,{&quot;applyMatrix&quot;:true,&quot;segments&quot;:[[[247.67279,195.02634],[0.97237,1.02817],[-0.62459,-0.66043]],[[245.95767,192.90624],[-0.12403,-0.90049],[0.26137,1.89766]],[[244.88005,199.22055],[0.82131,-1.79675],[-0.02791,0.28533]],[[244.50389,200.59264],[0.21242,-0.5611],[2.39402,-0.08434]],[[250.44773,198.36324],[-1.34286,1.60174],[-0.84064,-1.18958]]],&quot;closed&quot;:true}]}" fill="#ffffff"/><path d="M251.44551,177.47502c0,0.75317 -0.09753,1.54207 -0.60347,2.20577c-0.61825,0.84611 -1.3701,1.76951 -1.88132,2.6494c-0.07172,0.12344 -1.00147,1.72322 -1.07243,1.6849c-1.65015,-0.89117 -1.75277,-3.44511 -2.68457,-4.97817l0.16525,-0.05786l-0.14209,-0.19874c0.73566,-0.24141 1.53323,-0.53771 2.36907,-0.82369c0.73516,-0.25153 2.53071,-1.11341 3.40172,-0.90373c0.2739,0.06594 0.50493,0.18525 0.68774,0.33225z" data-paper-data="{&quot;noHover&quot;:false,&quot;origItem&quot;:[&quot;Path&quot;,{&quot;applyMatrix&quot;:true,&quot;segments&quot;:[[[251.63666,177.87696],[0,0],[-0.18281,-0.21483]],[[250.95973,177.39789],[0.2739,0.09636],[-0.87102,-0.30643]],[[247.61488,178.72543],[0.73516,-0.36758],[-0.83584,0.41792]],[[245.29335,179.89898],[0.73566,-0.35279],[0,0]],[245.43732,180.18693],[[245.27412,180.26853],[0,0],[0.93181,2.24038]],[[247.89761,187.41274],[-1.65015,-1.30234],[0.07095,0.056]],[[248.9449,184.95146],[-0.07172,0.18039],[0.51122,-1.28584]],[[250.76678,181.20117],[-0.61825,1.23649],[0.50594,-0.96991]],[[251.39832,178.00937],[0,1.10067],[0,0]]],&quot;closed&quot;:true}]}" fill="#ffffff"/><path d="M243.05594,180.36414c-0.48188,0.65949 -2.22596,4.24057 -3.35017,4.33362c-0.63923,0.05291 -0.44826,-0.84385 -0.73437,-1.23856c-0.55811,-0.76996 -1.13943,-3.17756 -2.30347,-3.86804c1.20722,0.03642 2.47905,0.01393 3.65939,0.01393c1.36329,0 2.52488,-0.1472 3.56746,-0.40646c-0.28242,0.38651 -0.55642,0.779 -0.83884,1.16552z" data-paper-data="{&quot;noHover&quot;:false,&quot;origItem&quot;:[&quot;Path&quot;,{&quot;applyMatrix&quot;:true,&quot;segments&quot;:[[[243.83821,180.5209],[-0.28242,0.56484],[-1.04258,0.37888]],[[240.32624,181.1366],[1.36329,0],[-1.18034,0]],[[236.72919,181.08995],[1.20722,0.05322],[1.16404,1.00905]],[[239.01444,186.61167],[-0.55811,-1.12521],[0.28611,0.57683]],[[239.71777,188.41075],[-0.63923,0.07732],[1.12421,-0.13598]],[[242.99096,182.2154],[-0.48188,0.96377],[0.28242,-0.56484]]],&quot;closed&quot;:true}]}" fill="#ffffff"/><path d="M235.30697,179.64633c-0.53914,0.25257 -4.21764,3.12707 -4.67642,2.97845c-0.3083,-0.09988 -0.66753,-1.48151 -0.80535,-1.71262c-0.57731,-0.96815 -1.10547,-2.15907 -1.82416,-3.14902c2.16469,1.17903 4.86527,1.63736 7.48807,1.79548c-0.05976,0.02513 -0.12018,0.05514 -0.18214,0.08772z" data-paper-data="{&quot;noHover&quot;:false,&quot;origItem&quot;:[&quot;Path&quot;,{&quot;applyMatrix&quot;:true,&quot;segments&quot;:[[[235.40703,181.00431],[-0.05976,0.03672],[-2.6228,-0.23106]],[[228.06233,178.4185],[2.16469,1.72301],[0.71869,1.44669]],[[229.89915,182.92129],[-0.57731,-1.41483],[0.13781,0.33775]],[[230.65559,185.38427],[-0.3083,-0.14596],[0.45878,0.2172]],[[235.22446,181.13068],[-0.53914,0.3691],[0.06197,-0.0476]]],&quot;closed&quot;:true}]}" fill="#ffffff"/><path d="M233.32044,192.49383c-2.09422,-0.09796 -4.5866,-0.35902 -5.62083,-1.04151c-0.07036,-0.04643 -0.13771,-0.1039 -0.19695,-0.16138c0.99163,-0.69406 2.23187,-1.66419 2.46261,-2.44619c1.13855,0.75447 2.10912,2.57138 3.35518,3.64908z" data-paper-data="{&quot;noHover&quot;:false,&quot;origItem&quot;:[&quot;Path&quot;,{&quot;applyMatrix&quot;:true,&quot;segments&quot;:[[[229.97943,194.63807],[1.13855,1.10257],[-0.23074,1.1428]],[[227.58346,198.10476],[0.99163,-1.01429],[0.05924,0.08401]],[[227.77765,198.33295],[-0.07036,-0.06785],[1.03424,0.99737]],[[233.25808,199.83037],[-2.09422,-0.14316],[-1.24606,-1.57492]]],&quot;closed&quot;:true}]}" fill="#ffffff"/></g></g></g></svg>