<svg version="1.1" xmlns="http://www.w3.org/2000/svg" xmlns:xlink="http://www.w3.org/1999/xlink" width="64.01012" height="29.62104" viewBox="0,0,64.01012,29.62104"><g transform="translate(-196.11335,-155.93593)"><g data-paper-data="{&quot;isPaintingLayer&quot;:true}" fill-rule="nonzero" stroke-linecap="butt" stroke-miterlimit="10" stroke-dasharray="" stroke-dashoffset="0" style="mix-blend-mode: normal"><path d="M220.60652,170.74646c0,-7.62734 8.61699,-13.81052 19.24658,-13.81052c10.62959,0 19.24657,6.18318 19.24657,13.81052c0,7.62734 -8.61698,13.81052 -19.24657,13.81052c-10.62959,0 -19.24658,-6.18318 -19.24658,-13.81052z" fill="#4effff" stroke="#000000" stroke-width="2" stroke-linejoin="miter"/><path d="M220.60652,170.74646h38.49315c0,0 -0.01482,0.63007 -0.04398,0.94103c-0.6741,7.18846 -9.01376,12.86949 -19.20259,12.86949c-10.28032,0 -18.67812,-5.78352 -19.2189,-13.0635c-0.01837,-0.24733 -0.02768,-0.74701 -0.02768,-0.74701z" fill="#52b4ff" stroke="#000000" stroke-width="2" stroke-linejoin="miter"/><path d="M246.41429,168.87308v-1.63694h6.84382v1.63694z" fill="#ffffff" stroke="#ffffff" stroke-width="2" stroke-linejoin="round"/><path d="M249.15181,168.15121v-2.94649h4.10629v2.94649z" fill="#000000" stroke="none" stroke-width="1" stroke-linejoin="miter"/><g data-paper-data="{&quot;index&quot;:null}" stroke-linejoin="miter"><path d="M225.70121,175.40881c-1.8339,-2.52893 -1.11347,-5.369 1.60912,-6.34346c2.72258,-0.97446 6.41636,0.28569 8.25025,2.81462c1.83391,2.52894 1.11346,5.369 -1.60912,6.34346c-2.72258,0.97446 -6.41634,-0.28569 -8.25023,-2.81462z" fill="#ffffff" stroke="#000000" stroke-width="2"/><path d="M220.98203,169.98819c-0.12944,-0.16465 2.2088,0.26997 2.2088,0.26997c0.3511,0.14326 1.34463,0.44441 1.57656,0.73956c1.52829,1.94472 0.88236,4.05501 -1.67524,4.33335c-0.82768,0.09008 -1.17783,-0.05889 -2.04545,-0.10952c-2.41092,-0.14069 -4.8125,-0.50863 -7.24878,-1.20298c-1.01388,-0.28897 -1.99655,-0.84623 -2.98143,-1.23683c-1.6533,-1.04156 -3.48764,-1.80686 -5.12548,-2.94257c-0.87143,-0.60427 -1.47977,-1.28042 -2.24215,-1.96176c-1.43074,-1.27865 -2.99137,-2.47923 -3.96099,-4.02679c-0.65525,-1.04577 -0.89809,-2.17571 -1.09695,-3.2272c-0.05363,-0.28361 -0.28543,-0.58029 -0.26186,-0.85242c0.00209,-0.02427 0.00473,-0.04837 0.00785,-0.07233l-0.01649,-0.00249l-0.03664,-0.72623c-0.02205,-0.28053 0.16765,-0.51657 0.50023,-0.57531c0.33259,-0.05874 0.71016,0.0771 0.95195,0.31883l0.64307,0.61911l-0.01855,0.01202l0.07187,0.04331c1.15421,1.50658 2.38496,2.82641 4.07632,3.98808c1.60096,0.92618 3.03036,1.88268 4.75373,2.63741c2.12488,0.93058 4.3394,1.4708 6.50231,2.2653c1.75882,0.64606 3.5857,1.25046 5.41726,1.70945z" fill="#ffffff" stroke="#000000" stroke-width="1"/><path d="M219.34157,172.77105c-0.13401,-0.12686 1.4148,-0.59641 1.4148,-0.59641c0.30771,0.08047 0.64129,0.08727 0.92312,0.2414c0.3017,0.16497 0.50045,0.44098 0.74065,0.66841c1.58251,1.49847 1.59378,3.50276 -0.40445,4.06548c-0.64666,0.1821 -0.95466,0.09655 -1.65921,0.16139c-1.95781,0.18015 -3.94994,0.16161 -6.02998,-0.13625c-0.86563,-0.12396 -1.7556,-0.48504 -2.61668,-0.70097c-1.5165,-0.69785 -3.12725,-1.13287 -4.64867,-1.91449c-0.80951,-0.41586 -1.42139,-0.9272 -2.1577,-1.42375c-1.38178,-0.93183 -2.85329,-1.77951 -3.91507,-3.00287c-0.7175,-0.8267 -1.12005,-1.7783 -1.47289,-2.6672c-0.09518,-0.23976 -0.33552,-0.46855 -0.36671,-0.70801c-0.00277,-0.02135 -0.0051,-0.04264 -0.007,-0.06383l-0.01368,-0.00009l-0.16299,-0.62659c-0.06929,-0.24104 0.03927,-0.46998 0.29497,-0.56275c0.25569,-0.09277 0.58324,-0.02206 0.82149,0.15768l0.62923,0.45743l-0.01266,0.01278l0.06556,0.02862c1.20214,1.16461 2.43126,2.15731 4.00037,2.95477c1.45332,0.60413 2.77475,1.25614 4.29461,1.69592c1.87397,0.54224 3.74791,0.73398 5.62732,1.15318c1.52828,0.34089 3.10344,0.63702 4.65558,0.80618z" fill="#ffffff" stroke="#000000" stroke-width="1"/><path d="M217.58434,174.93111c-0.12448,-0.08104 0.88183,-0.69233 0.88183,-0.69233c0.23873,0.0175 0.47958,-0.02784 0.71621,0.05251c0.2533,0.08601 0.45754,0.27646 0.68064,0.42177c1.47004,0.95743 1.92578,2.55857 0.61784,3.3128c-0.42326,0.24409 -0.66334,0.22255 -1.15434,0.38166c-1.36436,0.44212 -2.79777,0.73057 -4.35658,0.80902c-0.64872,0.03265 -1.36788,-0.12061 -2.03387,-0.16221c-1.24387,-0.3272 -2.49664,-0.4299 -3.76274,-0.82335c-0.67365,-0.20934 -1.22686,-0.52511 -1.86601,-0.8101c-1.19948,-0.53484 -2.44449,-0.98872 -3.47949,-1.80542c-0.6994,-0.55189 -1.20074,-1.25161 -1.65241,-1.90877c-0.12182,-0.17725 -0.34536,-0.32363 -0.42121,-0.51038c-0.00678,-0.01666 -0.01318,-0.03331 -0.01929,-0.04998l-0.00984,0.002l-0.25689,-0.47628c-0.10356,-0.18222 -0.07677,-0.38183 0.08595,-0.49494c0.16272,-0.11311 0.41352,-0.10645 0.6246,0.00103l0.5536,0.27002l-0.00624,0.01214l0.05345,0.01291c1.12256,0.74835 2.2261,1.35509 3.52994,1.75395c1.17759,0.26189 2.27125,0.58214 3.45988,0.70245c1.46557,0.14835 2.85285,0.0164 4.29483,0.06552c1.17258,0.03993 2.3688,0.03695 3.52015,-0.06405z" fill="#ffffff" stroke="#000000" stroke-width="1"/><path d="M221.06563,176.21231c-0.14156,-0.04698 0.47168,-0.95724 0.47168,-0.95724c0.21363,-0.0504 0.40274,-0.16543 0.6409,-0.15121c0.25493,0.01521 0.51127,0.15083 0.76499,0.23507c1.67174,0.55505 2.73691,2.05566 1.92298,3.19773c-0.2634,0.36959 -0.47987,0.41628 -0.83743,0.71868c-0.99357,0.84029 -2.11122,1.5438 -3.42531,2.06925c-0.54689,0.21866 -1.23258,0.26811 -1.82551,0.41609c-1.21205,0.02223 -2.33761,0.27571 -3.59664,0.23683c-0.66988,-0.02069 -1.28031,-0.1842 -1.95211,-0.29181c-1.26072,-0.20195 -2.52689,-0.30839 -3.76369,-0.84445c-0.83577,-0.36224 -1.56237,-0.93166 -2.22823,-1.47192c-0.17959,-0.14572 -0.43412,-0.23092 -0.57799,-0.39946c-0.01284,-0.01504 -0.02535,-0.03017 -0.03763,-0.0454l-0.00767,0.00485l-0.42167,-0.41169c-0.16589,-0.15601 -0.22646,-0.36699 -0.13327,-0.52871c0.09319,-0.16171 0.3127,-0.2266 0.54015,-0.17745l0.59159,0.11679l-0.00028,0.01415l0.05157,-0.00212c1.28381,0.44138 2.4918,0.74401 3.78572,0.77761c1.12739,-0.06983 2.20672,-0.05623 3.28427,-0.27341c1.3286,-0.26778 2.47203,-0.7987 3.73865,-1.16082c1.03,-0.29445 2.06239,-0.63938 3.01493,-1.07134z" fill="#ffffff" stroke="#000000" stroke-width="1"/><path d="M210.11987,171.12745c-0.07674,-0.15189 -0.00019,-0.29952 0.17098,-0.32975c0.17116,-0.03023 0.37214,0.06839 0.44886,0.22029c0.07674,0.15189 0.00018,0.29952 -0.17099,0.32976c-0.17116,0.03023 -0.37213,-0.06839 -0.44885,-0.22028z" fill="#000000" stroke="none" stroke-width="0.5"/><path d="M211.40245,175.16962c-0.17116,0.03023 -0.37213,-0.06839 -0.44886,-0.22028c-0.07673,-0.15188 -0.00019,-0.29952 0.17099,-0.32975c0.17116,-0.03023 0.37212,0.06839 0.44887,0.22028c0.07674,0.15189 0.00018,0.29952 -0.17098,0.32976z" fill="#000000" stroke="none" stroke-width="0.5"/><path d="M214.98275,178.58132c-0.17116,0.03023 -0.37215,-0.0684 -0.44888,-0.22028c-0.07674,-0.15189 -0.00018,-0.29952 0.17099,-0.32976c0.17116,-0.03023 0.37213,0.06838 0.44886,0.22027c0.07673,0.15188 0.00019,0.29953 -0.17098,0.32976z" fill="#000000" stroke="none" stroke-width="0.5"/><path d="M227.12965,168.62279c-0.15737,-0.14997 2.1475,-0.04239 2.1475,-0.04239c0.36261,0.09605 1.3666,0.26107 1.64865,0.52993c1.85825,1.77144 1.69403,4.02645 -0.66737,4.68089c-0.76419,0.21179 -1.12711,0.10975 -1.95889,0.18317c-2.31135,0.20401 -4.662,0.17389 -7.11464,-0.18559c-1.0207,-0.14961 -2.06867,-0.57856 -3.08345,-0.83648c-1.78524,-0.82822 -3.68329,-1.34727 -5.47382,-2.27418c-0.95268,-0.49317 -1.67161,-1.09795 -2.53741,-1.68582c-1.62485,-1.10323 -3.35605,-2.10772 -4.60148,-3.55298c-0.84162,-0.97665 -1.31081,-2.09908 -1.72174,-3.14748c-0.11084,-0.28277 -0.39305,-0.55322 -0.4284,-0.83539c-0.00316,-0.02516 -0.00577,-0.05023 -0.00789,-0.07521l-0.01616,-0.00017l-0.18849,-0.73864c-0.08029,-0.28418 0.04921,-0.55337 0.3515,-0.66155c0.3023,-0.10819 0.68838,-0.02355 0.9684,0.18914l0.73973,0.54136l-0.01501,0.01498l0.0772,0.03399c1.41143,1.37664 2.85573,2.55093 4.70244,3.49669c1.71125,0.71758 3.26657,1.49099 5.05735,2.01527c2.20801,0.64643 4.41814,0.88005 6.6333,1.38161c1.80131,0.40784 3.6582,0.76317 5.48871,0.96889z" fill="#ffffff" stroke="#000000" stroke-width="1"/><path d="M226.16673,171.71039c-0.15372,-0.1106 1.21253,-0.81524 1.21253,-0.81524c0.30824,0.03799 0.62537,-0.0032 0.92473,0.11398c0.32045,0.12545 0.567,0.37947 0.84249,0.57775c1.81504,1.30649 2.25031,3.35801 0.4785,4.22299c-0.5734,0.27993 -0.88298,0.23677 -1.536,0.40492c-1.81457,0.46724 -3.70375,0.73591 -5.73527,0.73114c-0.84544,-0.00198 -1.76414,-0.24335 -2.62477,-0.34021c-1.58297,-0.49588 -3.19944,-0.70891 -4.8048,-1.2899c-0.85416,-0.30911 -1.54155,-0.74456 -2.34353,-1.14689c-1.50504,-0.75502 -3.07715,-1.41089 -4.34112,-2.51076c-0.85412,-0.74326 -1.43665,-1.65991 -1.95887,-2.51954c-0.14085,-0.23186 -0.41678,-0.43151 -0.49701,-0.67231c-0.00717,-0.02148 -0.01386,-0.04293 -0.02016,-0.06438l-0.01297,0.00186l-0.28697,-0.61831c-0.11664,-0.23692 -0.06239,-0.48711 0.15993,-0.61907c0.22233,-0.13196 0.54729,-0.10682 0.81082,0.04291l0.69236,0.37771l-0.00926,0.01491l0.0681,0.01986c1.38435,1.01942 2.75781,1.85883 4.41165,2.44916c1.50332,0.40899 2.89195,0.88609 4.42342,1.11713c1.88829,0.28486 3.70229,0.21066 5.56966,0.3687c1.51849,0.12851 3.07184,0.20441 4.57653,0.15358z" fill="#ffffff" stroke="#000000" stroke-width="1"/><path d="M224.83963,174.20293c-0.13498,-0.06505 0.68784,-0.83656 0.68784,-0.83656c0.22963,-0.01655 0.44794,-0.09775 0.68889,-0.04961c0.25792,0.05152 0.49155,0.21714 0.73347,0.33376c1.59398,0.7685 2.36445,2.34287 1.28647,3.30435c-0.34885,0.31116 -0.5806,0.32376 -1.01156,0.55764c-1.1975,0.6499 -2.49287,1.15239 -3.95142,1.45784c-0.60699,0.12713 -1.32002,0.07397 -1.9591,0.12752c-1.24643,-0.15557 -2.45373,-0.07985 -3.73526,-0.30007c-0.68185,-0.11717 -1.27226,-0.36076 -1.93749,-0.56041c-1.24841,-0.37467 -2.52277,-0.65982 -3.67525,-1.34699c-0.77878,-0.46436 -1.40144,-1.10874 -1.96809,-1.71671c-0.15285,-0.16397 -0.3954,-0.28164 -0.50673,-0.46199c-0.00992,-0.01608 -0.01954,-0.03223 -0.02885,-0.04842l-0.00889,0.00348l-0.34399,-0.45079c-0.13659,-0.17171 -0.15354,-0.38005 -0.02352,-0.51943c0.13004,-0.13938 0.36878,-0.16874 0.5913,-0.08912l0.5811,0.19665l-0.00331,0.01334l0.05328,0.0055c1.22086,0.6045 2.39372,1.06669 3.7121,1.287c1.16988,0.09823 2.27271,0.26836 3.42304,0.21997c1.41835,-0.05965 2.70323,-0.39514 4.07825,-0.55306c1.11813,-0.1284 2.24951,-0.30418 3.3177,-0.57391z" fill="#ffffff" stroke="#000000" stroke-width="1"/><path d="M228.40552,175.01266c-0.14391,-0.02768 0.2436,-1.04869 0.2436,-1.04869c0.19149,-0.08248 0.34606,-0.2276 0.57446,-0.24745c0.24446,-0.02124 0.51581,0.08067 0.77377,0.13033c1.69962,0.32718 3.02553,1.71057 2.4972,2.99801c-0.17098,0.41664 -0.36596,0.49573 -0.64026,0.85713c-0.76226,1.00424 -1.67088,1.88629 -2.80316,2.61429c-0.47121,0.30297 -1.10962,0.45263 -1.6394,0.68984c-1.14227,0.19779 -2.15377,0.61999 -3.35347,0.76196c-0.63832,0.07554 -1.25064,-0.00383 -1.90919,-0.01705c-1.23586,-0.02482 -2.45663,0.04897 -3.74062,-0.32157c-0.86767,-0.25039 -1.67591,-0.72877 -2.42048,-1.18606c-0.20083,-0.12334 -0.45975,-0.17385 -0.6316,-0.32573c-0.01533,-0.01354 -0.0304,-0.02725 -0.04523,-0.04107l-0.00623,0.00608l-0.48626,-0.36084c-0.19003,-0.13585 -0.29203,-0.34321 -0.23812,-0.52234c0.05392,-0.17912 0.24791,-0.27728 0.47357,-0.25979l0.58458,0.03423l0.00272,0.01453l0.04835,-0.00962c1.30842,0.26676 2.51568,0.40233 3.7473,0.24992c1.05208,-0.23433 2.07639,-0.37624 3.05012,-0.75432c1.20059,-0.46615 2.17018,-1.17511 3.29213,-1.72896c0.91234,-0.45037 1.81628,-0.95278 2.6262,-1.53283z" fill="#ffffff" stroke="#000000" stroke-width="1"/><path d="M217.03445,170.95621c0.29545,-1.14017 8.92147,-1.40608 10.27588,-1.89086c2.72258,-0.97446 6.41636,0.28569 8.25025,2.81462c1.83391,2.52894 1.11346,5.369 -1.60912,6.34346c-1.55318,0.55591 -9.7263,0.49862 -11.38601,-0.22065c-0.33286,-0.14425 -2.70397,-1.46009 -3.95474,-3.06356c-1.37323,-1.76047 -1.61795,-3.82205 -1.57625,-3.983z" fill="#ffffff" stroke="#000000" stroke-width="0"/><path d="M216.87184,171.44199c-0.10479,-0.14452 -0.06363,-0.3068 0.09196,-0.36248c0.15556,-0.05568 0.36665,0.01632 0.47144,0.16084c0.10479,0.14452 0.06363,0.3068 -0.09196,0.36249c-0.15556,0.05568 -0.36664,-0.01632 -0.47144,-0.16084z" fill="#000000" stroke="none" stroke-width="0.5"/><path d="M218.47045,175.23665c-0.1048,-0.14452 -0.06364,-0.3068 0.09196,-0.36249c0.15558,-0.05568 0.36664,0.01632 0.47144,0.16084c0.1048,0.14452 0.06363,0.30681 -0.09194,0.36249c-0.15558,0.05568 -0.36665,-0.01632 -0.47145,-0.16084z" fill="#000000" stroke="none" stroke-width="0.5"/><path d="M222.58137,178.2145c-0.10479,-0.14451 -0.06363,-0.3068 0.09194,-0.36248c0.15558,-0.05568 0.36666,0.01631 0.47145,0.16083c0.10479,0.14451 0.06362,0.3068 -0.09195,0.36248c-0.15558,0.05568 -0.36665,-0.01632 -0.47144,-0.16084z" fill="#000000" stroke="none" stroke-width="0.5"/></g><g data-paper-data="{&quot;index&quot;:null}" stroke-linejoin="miter"><path d="M226.83107,175.56473c-2.32249,-2.32158 -2.21638,-5.20264 0.23698,-6.43502c2.45336,-1.23238 6.32494,-0.3494 8.64742,1.97219c2.32249,2.32158 2.21638,5.20264 -0.23698,6.43502c-2.45336,1.23238 -6.32493,0.3494 -8.64741,-1.97219z" fill="#ffffff" stroke="#000000" stroke-width="2"/><path d="M221.08325,170.66619c-0.16101,-0.15016 2.21343,0.04954 2.21343,0.04954c0.37294,0.10717 1.40634,0.30725 1.69488,0.57645c1.90122,1.77364 1.71437,3.92529 -0.7243,4.45264c-0.78919,0.17066 -1.16241,0.05776 -2.02019,0.09313c-2.38359,0.09829 -4.80584,-0.02918 -7.33064,-0.4762c-1.05072,-0.18604 -2.12739,-0.64063 -3.17116,-0.93009c-1.83333,-0.86771 -3.78532,-1.44422 -5.62335,-2.40661c-0.97795,-0.51205 -1.71413,-1.12113 -2.60181,-1.72018c-1.66588,-1.12422 -3.44217,-2.15839 -4.71438,-3.5941c-0.85973,-0.97018 -1.33448,-2.06429 -1.74979,-3.08509c-0.11202,-0.27534 -0.40073,-0.54605 -0.43495,-0.81763c-0.00306,-0.02421 -0.00556,-0.04832 -0.00755,-0.07233l-0.01662,-0.00084l-0.18851,-0.71496c-0.08053,-0.27539 0.05504,-0.52763 0.36742,-0.61851c0.31238,-0.09088 0.7096,0.00633 0.99652,0.22168l0.7581,0.54923l-0.01558,0.01372l0.07928,0.03577c1.44382,1.37697 2.92309,2.56164 4.81885,3.54443c1.75796,0.75869 3.35478,1.5643 5.19619,2.14129c2.27043,0.71143 4.54628,1.02781 6.82522,1.60085c1.85318,0.46598 3.76404,0.88405 5.64889,1.15776z" fill="#ffffff" stroke="#000000" stroke-width="1"/><path d="M220.06681,173.58128c-0.15753,-0.11232 1.25596,-0.72949 1.25596,-0.72949c0.31737,0.04931 0.6445,0.02318 0.9521,0.14792c0.32928,0.13351 0.58138,0.38702 0.86374,0.58838c1.86031,1.32676 2.29286,3.30879 0.46015,4.06242c-0.59309,0.24389 -0.91181,0.18959 -1.5861,0.32315c-1.87369,0.3711 -3.82269,0.54901 -5.91626,0.4592c-0.87126,-0.03738 -1.81617,-0.30696 -2.70233,-0.4358c-1.62747,-0.54109 -3.29168,-0.81287 -4.94156,-1.43636c-0.87786,-0.33174 -1.58284,-0.77739 -2.40619,-1.19617c-1.54513,-0.78588 -3.16019,-1.47965 -4.4542,-2.58552c-0.87444,-0.7473 -1.46761,-1.64919 -1.99908,-2.49396c-0.14336,-0.22786 -0.42615,-0.43055 -0.50696,-0.66441c-0.0072,-0.02086 -0.01395,-0.04169 -0.02026,-0.06247l-0.01338,0.00126l-0.29092,-0.6039c-0.11835,-0.23167 -0.0605,-0.4689 0.16965,-0.58587c0.23014,-0.11698 0.56482,-0.07928 0.83525,0.07509l0.71058,0.39062l-0.00967,0.01388l0.07003,0.02186c1.4187,1.0339 2.82759,1.89504 4.52737,2.52952c1.54607,0.45459 2.97342,0.96955 4.54989,1.25496c1.94377,0.35191 3.81379,0.35702 5.73699,0.58666c1.56389,0.18675 3.16414,0.32458 4.71521,0.33906z" fill="#ffffff" stroke="#000000" stroke-width="1"/><path d="M218.80537,175.89166c-0.13859,-0.06793 0.7154,-0.77189 0.7154,-0.77189c0.23677,-0.0062 0.4624,-0.07479 0.71034,-0.01861c0.2654,0.06015 0.50488,0.22847 0.75328,0.35027c1.63669,0.80251 2.41843,2.34186 1.29999,3.21697c-0.36194,0.28321 -0.60087,0.28555 -1.04681,0.49135c-1.23917,0.57185 -2.57806,0.99847 -4.08357,1.22965c-0.62654,0.09621 -1.36095,0.01541 -2.01997,0.03986c-1.28332,-0.20122 -2.5281,-0.17942 -3.84707,-0.444c-0.70178,-0.14078 -1.30833,-0.39871 -1.99233,-0.61774c-1.28364,-0.41103 -2.59472,-0.73748 -3.77705,-1.44361c-0.79896,-0.47717 -1.43562,-1.12011 -2.01485,-1.72585c-0.15623,-0.16339 -0.40527,-0.2862 -0.51861,-0.4635c-0.01012,-0.01582 -0.01988,-0.03166 -0.02935,-0.04755l-0.00919,0.00295l-0.35099,-0.44593c-0.13944,-0.1701 -0.15527,-0.37024 -0.02018,-0.49819c0.13509,-0.12795 0.38137,-0.14605 0.61007,-0.06051l0.59732,0.21264l-0.00354,0.01263l0.0549,0.00751c1.25345,0.62986 2.45854,1.12151 3.81549,1.38772c1.20487,0.14311 2.34006,0.35225 3.52593,0.3542c1.46216,0.00241 2.78894,-0.2648 4.20721,-0.35825c1.1533,-0.076 2.32064,-0.19679 3.42357,-0.41014z" fill="#ffffff" stroke="#000000" stroke-width="1"/><path d="M222.47393,176.81639c-0.1481,-0.03253 0.25921,-0.9936 0.25921,-0.9936c0.19799,-0.07092 0.35844,-0.20336 0.59396,-0.21275c0.2521,-0.01007 0.53093,0.09887 0.79637,0.15723c1.74901,0.38451 3.10464,1.76436 2.55012,2.97455c-0.17944,0.39164 -0.38098,0.45917 -0.66651,0.7936c-0.79338,0.92929 -1.73668,1.73548 -2.90923,2.38483c-0.48798,0.27023 -1.14709,0.3867 -1.69489,0.59154c-1.17875,0.14139 -2.22443,0.50307 -3.46191,0.58863c-0.65841,0.04551 -1.28882,-0.05614 -1.96739,-0.09643c-1.27343,-0.07563 -2.53209,-0.05622 -3.85243,-0.46478c-0.89223,-0.27608 -1.72143,-0.76792 -2.48519,-1.23689c-0.206,-0.12649 -0.47244,-0.18572 -0.64836,-0.33831c-0.0157,-0.01361 -0.0311,-0.02735 -0.04629,-0.04121l-0.00646,0.00555l-0.4983,-0.3658c-0.19478,-0.13802 -0.2983,-0.34081 -0.24132,-0.51001c0.05697,-0.16919 0.25765,-0.25501 0.49008,-0.22879l0.60219,0.05729l0.0027,0.01403l0.04991,-0.00718c1.34633,0.31026 2.58945,0.4907 3.85988,0.39648c1.08608,-0.18015 2.14279,-0.27301 3.14922,-0.59405c1.24091,-0.39583 2.24568,-1.03379 3.40624,-1.51685c0.94375,-0.39282 1.87922,-0.8358 2.71842,-1.35704z" fill="#ffffff" stroke="#000000" stroke-width="1"/><path d="M210.71716,172.86346c-0.10687,-0.14273 -0.06318,-0.29635 0.09758,-0.34312c0.16077,-0.04677 0.37774,0.03101 0.4846,0.17374c0.10687,0.14273 0.06317,0.29634 -0.09759,0.34312c-0.16077,0.04677 -0.37773,-0.03101 -0.48459,-0.17374z" fill="#000000" stroke="none" stroke-width="0.5"/><path d="M212.8196,176.73662c-0.16077,0.04677 -0.37773,-0.03101 -0.4846,-0.17374c-0.10687,-0.14272 -0.06318,-0.29633 0.0976,-0.34311c0.16077,-0.04677 0.37772,0.031 0.4846,0.17373c0.10687,0.14273 0.06318,0.29634 -0.09759,0.34312z" fill="#000000" stroke="none" stroke-width="0.5"/><path d="M217.03291,179.75962c-0.16077,0.04677 -0.37774,-0.03101 -0.48461,-0.17373c-0.10687,-0.14273 -0.06317,-0.29634 0.09759,-0.34312c0.16077,-0.04677 0.37772,0.031 0.48459,0.17373c0.10687,0.14272 0.06318,0.29635 -0.09758,0.34312z" fill="#000000" stroke="none" stroke-width="0.5"/><path d="M226.79855,168.70959c-0.1852,-0.13288 2.08788,-0.25349 2.08788,-0.25349c0.37425,0.05931 1.38924,0.1237 1.72118,0.36193c2.18694,1.56969 2.50087,3.81708 0.33287,4.69724c-0.7016,0.28483 -1.07741,0.21963 -1.87412,0.37421c-2.21387,0.42954 -4.51536,0.6313 -6.9857,0.51723c-1.02807,-0.04747 -2.14152,-0.36867 -3.18657,-0.52389c-1.91728,-0.64361 -3.87968,-0.97022 -5.82288,-1.71096c-1.03391,-0.39411 -1.86306,-0.9217 -2.83207,-1.41807c-1.81851,-0.93152 -3.72011,-1.75488 -5.24009,-3.0622c-1.02716,-0.88344 -1.72134,-1.9478 -2.34307,-2.94466c-0.1677,-0.26888 -0.50012,-0.50866 -0.59398,-0.78437c-0.00837,-0.02459 -0.0162,-0.04913 -0.02352,-0.07364l-0.01581,0.00142l-0.33939,-0.71228c-0.13816,-0.27328 -0.06834,-0.55238 0.20406,-0.6892c0.27241,-0.13683 0.66718,-0.09112 0.98532,0.09176l0.83612,0.46277l-0.01151,0.0163l0.08253,0.02602c1.66764,1.22308 3.32481,2.2427 5.32683,2.99656c1.82177,0.54143 3.50303,1.15346 5.36179,1.49581c2.29183,0.4221 4.49891,0.43554 6.76726,0.71358c1.84455,0.22609 3.73233,0.39476 5.56289,0.41797z" fill="#ffffff" stroke="#000000" stroke-width="1"/><path d="M226.50775,171.85948c-0.17335,-0.09429 1.01244,-0.92608 1.01244,-0.92608c0.30895,0.00722 0.60993,-0.06476 0.92687,0.02169c0.33926,0.09256 0.63343,0.3196 0.9441,0.48865c2.04697,1.1139 2.90343,3.1009 1.35537,4.13129c-0.50098,0.33346 -0.81233,0.32125 -1.41457,0.55195c-1.67346,0.64106 -3.46153,1.09301 -5.44609,1.28841c-0.8259,0.08132 -1.77367,-0.06699 -2.63435,-0.07806c-1.64988,-0.33471 -3.27299,-0.38626 -4.96265,-0.80297c-0.89901,-0.22171 -1.66174,-0.58485 -2.52941,-0.90392c-1.6283,-0.59879 -3.30123,-1.09286 -4.76668,-2.05661c-0.99028,-0.65127 -1.75185,-1.50087 -2.44253,-2.29999c-0.18629,-0.21553 -0.49769,-0.3859 -0.62668,-0.61626c-0.01152,-0.02054 -0.02257,-0.04111 -0.03323,-0.0617l-0.01227,0.00312l-0.41023,-0.58353c-0.16371,-0.22292 -0.16337,-0.47582 0.02596,-0.62828c0.18932,-0.15247 0.5119,-0.15961 0.8007,-0.03742l0.75545,0.30553l-0.00591,0.01567l0.07067,0.01294c1.56607,0.87229 3.08365,1.56754 4.8226,1.98873c1.55385,0.25659 3.01003,0.59185 4.55393,0.66959c1.90361,0.09584 3.65918,-0.15627 5.5157,-0.18385c1.50967,-0.02243 3.0423,-0.10035 4.50078,-0.29887z" fill="#ffffff" stroke="#000000" stroke-width="1"/><path d="M225.73621,174.45644c-0.14547,-0.05106 0.49566,-0.89548 0.49566,-0.89548c0.22073,-0.03899 0.4168,-0.14085 0.66218,-0.11695c0.26267,0.02557 0.52562,0.16643 0.78635,0.25799c1.71798,0.60336 2.80138,2.08521 1.95107,3.14274c-0.27517,0.34223 -0.4988,0.37754 -0.87039,0.65141c-1.03254,0.76101 -2.19164,1.3858 -3.55151,1.8317c-0.56593,0.18558 -1.2733,0.20323 -1.88603,0.31917c-1.24973,-0.03114 -2.41259,0.1627 -3.71018,0.07105c-0.69039,-0.04877 -1.31809,-0.23162 -2.00961,-0.36364c-1.29774,-0.24774 -2.60198,-0.40435 -3.87177,-0.97073c-0.85806,-0.38273 -1.60154,-0.95898 -2.28268,-1.50471c-0.18373,-0.14719 -0.44529,-0.23972 -0.59193,-0.4072c-0.01307,-0.01494 -0.02586,-0.02996 -0.03835,-0.04507l-0.00794,0.00432l-0.43067,-0.41215c-0.16948,-0.15644 -0.22985,-0.36092 -0.13221,-0.51163c0.09765,-0.1507 0.32458,-0.20329 0.55859,-0.14643l0.60874,0.13734l-0.00043,0.01352l0.05319,0.00019c1.31917,0.47785 2.56155,0.81964 3.89513,0.90775c1.16292,-0.01806 2.27549,0.04165 3.38848,-0.11955c1.37232,-0.19876 2.5563,-0.65727 3.86564,-0.94897c1.06472,-0.2372 2.13243,-0.52257 3.11866,-0.89467z" fill="#ffffff" stroke="#000000" stroke-width="1"/><path d="M229.38821,174.90635c-0.14633,-0.01322 0.01729,-1.06162 0.01729,-1.06162c0.16962,-0.10047 0.29003,-0.25929 0.50886,-0.30142c0.23422,-0.0451 0.5206,0.02901 0.78291,0.05273c1.7283,0.1563 3.31386,1.39448 3.06878,2.72037c-0.07931,0.42908 -0.25306,0.52655 -0.44487,0.91116c-0.53305,1.06873 -1.23471,2.03098 -2.18714,2.86284c-0.39636,0.34618 -0.98822,0.55716 -1.45561,0.84405c-1.07371,0.30822 -1.97252,0.82562 -3.11404,1.08427c-0.60736,0.13762 -1.22192,0.11941 -1.8677,0.1712c-1.2119,0.09718 -2.38833,0.29046 -3.71993,0.05031c-0.89985,-0.16226 -1.78961,-0.55598 -2.61278,-0.9351c-0.22203,-0.10226 -0.48547,-0.12673 -0.6852,-0.26008c-0.01782,-0.01189 -0.03541,-0.02397 -0.0528,-0.03619l-0.0048,0.00663l-0.55067,-0.30913c-0.21412,-0.11569 -0.35733,-0.31084 -0.34236,-0.49338c0.01497,-0.18254 0.18374,-0.29877 0.40775,-0.30369l0.57797,-0.02372l0.00571,0.0141l0.04519,-0.01428c1.33364,0.13506 2.5409,0.15026 3.71139,-0.12186c0.97796,-0.3355 1.94824,-0.57682 2.81945,-1.04683c1.0742,-0.57951 1.8718,-1.3765 2.85077,-2.03502c0.79608,-0.53549 1.573,-1.12164 2.24181,-1.77534z" fill="#ffffff" stroke="#000000" stroke-width="1"/><path d="M217.43246,172.01287c0.04867,-1.15724 8.41511,-2.27009 9.63558,-2.88317c2.45336,-1.23238 6.32494,-0.34939 8.64742,1.97219c2.32249,2.32158 2.21638,5.20264 -0.23698,6.43502c-1.39959,0.70305 -9.39179,1.45148 -11.16359,0.9033c-0.35533,-0.10994 -2.94722,-1.1783 -4.5057,-2.64164c-1.71107,-1.60662 -2.38361,-3.62233 -2.37674,-3.7857z" fill="#ffffff" stroke="#000000" stroke-width="0"/><path d="M217.37586,172.50954c-0.13271,-0.13267 -0.12665,-0.29729 0.01355,-0.36772c0.14018,-0.07041 0.36143,-0.01996 0.49414,0.11271c0.13271,0.13267 0.12665,0.29729 -0.01356,0.36772c-0.14018,0.07041 -0.36142,0.01997 -0.49414,-0.1127z" fill="#000000" stroke="none" stroke-width="0.5"/><path d="M219.73483,176.10668c-0.13273,-0.13267 -0.12666,-0.29729 0.01355,-0.36772c0.1402,-0.07043 0.36143,-0.01997 0.49414,0.1127c0.13273,0.13267 0.12666,0.2973 -0.01353,0.36772c-0.1402,0.07043 -0.36143,0.01997 -0.49414,-0.1127z" fill="#000000" stroke="none" stroke-width="0.5"/><path d="M224.37498,178.64815c-0.1327,-0.13265 -0.12665,-0.2973 0.01354,-0.36771c0.1402,-0.07043 0.36144,-0.01997 0.49415,0.1127c0.1327,0.13265 0.12664,0.2973 -0.01355,0.36771c-0.1402,0.07043 -0.36143,0.01997 -0.49414,-0.1127z" fill="#000000" stroke="none" stroke-width="0.5"/></g></g></g></svg>