<svg version="1.1" xmlns="http://www.w3.org/2000/svg" xmlns:xlink="http://www.w3.org/1999/xlink" width="79.275" height="79.075" viewBox="0,0,79.275,79.075"><g transform="translate(-206.85,-133.875)"><g data-paper-data="{&quot;isPaintingLayer&quot;:true}" fill-rule="nonzero" stroke-linecap="butt" stroke-miterlimit="10" stroke-dasharray="" stroke-dashoffset="0" style="mix-blend-mode: normal"><g><path d="M225.355,146.875h-9.56l4.78,-11z" fill="none" stroke="#000000" stroke-width="4" stroke-linejoin="round"/><path d="M225.355,146.875h-9.56l4.78,-11z" fill="#b3b3b3" stroke="none" stroke-width="1" stroke-linejoin="miter"/></g><g><path d="M244.73,146.875h-9.56l4.78,-11z" fill="none" stroke="#000000" stroke-width="4" stroke-linejoin="round"/><path d="M244.73,146.875h-9.56l4.78,-11z" fill="#b3b3b3" stroke="none" stroke-width="1" stroke-linejoin="miter"/></g><g><path d="M264.105,146.875h-9.56l4.78,-11z" fill="none" stroke="#000000" stroke-width="4" stroke-linejoin="round"/><path d="M264.105,146.875h-9.56l4.78,-11z" fill="#b3b3b3" stroke="none" stroke-width="1" stroke-linejoin="miter"/></g><g><path d="M225.355,146.875h-9.56l4.78,-11z" fill="none" stroke="#000000" stroke-width="4" stroke-linejoin="round"/><path d="M225.355,146.875h-9.56l4.78,-11z" fill="#b3b3b3" stroke="none" stroke-width="1" stroke-linejoin="miter"/></g><g><path d="M244.73,146.875h-9.56l4.78,-11z" fill="none" stroke="#000000" stroke-width="4" stroke-linejoin="round"/><path d="M244.73,146.875h-9.56l4.78,-11z" fill="#b3b3b3" stroke="none" stroke-width="1" stroke-linejoin="miter"/></g><g><path d="M264.105,146.875h-9.56l4.78,-11z" fill="none" stroke="#000000" stroke-width="4" stroke-linejoin="round"/><path d="M264.105,146.875h-9.56l4.78,-11z" fill="#b3b3b3" stroke="none" stroke-width="1" stroke-linejoin="miter"/></g><path d="M208.85,148.95h62v62h-62z" fill="#39b54a" stroke="#000000" stroke-width="4" stroke-linejoin="round"/><path d="M209.15,149.05h62v62h-62z" fill="#3967c4" stroke="none" stroke-width="0" stroke-linejoin="round"/><path d="M218.15,158.05h44v44h-44z" fill="#4f7bd2" stroke="none" stroke-width="1" stroke-linejoin="miter"/><g><path d="M273.125,165.355v-9.56l11,4.78z" fill="none" stroke="#000000" stroke-width="4" stroke-linejoin="round"/><path d="M273.125,165.355v-9.56l11,4.78z" fill="#b3b3b3" stroke="none" stroke-width="1" stroke-linejoin="miter"/></g><g><path d="M273.125,184.73v-9.56l11,4.78z" fill="none" stroke="#000000" stroke-width="4" stroke-linejoin="round"/><path d="M273.125,184.73v-9.56l11,4.78z" fill="#b3b3b3" stroke="none" stroke-width="1" stroke-linejoin="miter"/></g><g><path d="M273.125,204.105v-9.56l11,4.78z" fill="none" stroke="#000000" stroke-width="4" stroke-linejoin="round"/><path d="M273.125,204.105v-9.56l11,4.78z" fill="#b3b3b3" stroke="none" stroke-width="1" stroke-linejoin="miter"/></g><g><path d="M273.125,165.355v-9.56l11,4.78z" fill="none" stroke="#000000" stroke-width="4" stroke-linejoin="round"/><path d="M273.125,165.355v-9.56l11,4.78z" fill="#b3b3b3" stroke="none" stroke-width="1" stroke-linejoin="miter"/></g><g><path d="M273.125,184.73v-9.56l11,4.78z" fill="none" stroke="#000000" stroke-width="4" stroke-linejoin="round"/><path d="M273.125,184.73v-9.56l11,4.78z" fill="#b3b3b3" stroke="none" stroke-width="1" stroke-linejoin="miter"/></g><g><path d="M273.125,204.105v-9.56l11,4.78z" fill="none" stroke="#000000" stroke-width="4" stroke-linejoin="round"/><path d="M273.125,204.105v-9.56l11,4.78z" fill="#b3b3b3" stroke="none" stroke-width="1" stroke-linejoin="miter"/></g></g></g></svg>