<svg version="1.1" xmlns="http://www.w3.org/2000/svg" xmlns:xlink="http://www.w3.org/1999/xlink" width="187" height="134.28595" viewBox="0,0,187,134.28595"><g transform="translate(-145.53257,-85.00673)"><g data-paper-data="{&quot;isPaintingLayer&quot;:true}" fill-rule="nonzero" stroke-miterlimit="10" stroke-dasharray="" stroke-dashoffset="0" style="mix-blend-mode: normal"><g stroke-linecap="butt"><path d="M233.61566,195.18314v-84.02752h10.47049v84.02753z" fill="#000000" stroke="none" stroke-width="NaN" stroke-linejoin="miter"/><path d="M231.81604,187.47828v-8.70983h14.06973v8.70983z" fill="#000000" stroke="none" stroke-width="0" stroke-linejoin="miter"/><path d="M231.81604,174.07855v-8.70983h14.06973v8.70983z" fill="#000000" stroke="none" stroke-width="0" stroke-linejoin="miter"/><path d="M231.81604,157.32887v-8.70983h14.06973v8.70983z" fill="#000000" stroke="none" stroke-width="0" stroke-linejoin="miter"/><path d="M231.81604,143.92913v-8.70983h14.06973v8.70983z" fill="#000000" stroke="none" stroke-width="0" stroke-linejoin="miter"/><path d="M231.81604,127.17946v-8.70983h14.06973v8.70983z" fill="#000000" stroke="none" stroke-width="0" stroke-linejoin="miter"/><g><path d="M243.10227,208.92199h7.2749l-3.63745,8.3707z" fill="none" stroke="#000000" stroke-width="4" stroke-linejoin="round"/><path d="M243.10227,208.92199h7.2749l-3.63745,8.3707z" fill="#b3b3b3" stroke="none" stroke-width="1" stroke-linejoin="miter"/></g><g><path d="M235.49254,208.92199h7.2749l-3.63745,8.3707z" fill="none" stroke="#000000" stroke-width="4" stroke-linejoin="round"/><path d="M235.49254,208.92199h7.2749l-3.63745,8.3707z" fill="#b3b3b3" stroke="none" stroke-width="1" stroke-linejoin="miter"/></g><g><path d="M227.8752,208.92199h7.28251l-3.63745,8.3707z" fill="none" stroke="#000000" stroke-width="4" stroke-linejoin="round"/><path d="M227.8752,208.92199h7.28251l-3.63745,8.3707z" fill="#b3b3b3" stroke="none" stroke-width="1" stroke-linejoin="miter"/></g><g><path d="M234.82288,184.57087h-7.2749l3.63745,-8.3707z" fill="none" stroke="#000000" stroke-width="4" stroke-linejoin="round"/><path d="M234.82288,184.57087h-7.2749l3.63745,-8.3707z" fill="#b3b3b3" stroke="none" stroke-width="1" stroke-linejoin="miter"/></g><g><path d="M242.43262,184.57087h-7.2749l3.63745,-8.3707z" fill="none" stroke="#000000" stroke-width="4" stroke-linejoin="round"/><path d="M242.43262,184.57087h-7.2749l3.63745,-8.3707z" fill="#b3b3b3" stroke="none" stroke-width="1" stroke-linejoin="miter"/></g><g><path d="M250.04233,184.57087h-7.2749l3.63745,-8.3707z" fill="none" stroke="#000000" stroke-width="4" stroke-linejoin="round"/><path d="M250.04233,184.57087h-7.2749l3.63745,-8.3707z" fill="#b3b3b3" stroke="none" stroke-width="1" stroke-linejoin="miter"/></g><g><path d="M226.78701,200.88613v7.2749l-8.3707,-3.63745z" fill="none" stroke="#000000" stroke-width="4" stroke-linejoin="round"/><path d="M226.78701,200.88613v7.2749l-8.3707,-3.63745z" fill="#b3b3b3" stroke="none" stroke-width="1" stroke-linejoin="miter"/></g><g><path d="M226.78701,193.27638v7.2749l-8.3707,-3.63745z" fill="none" stroke="#000000" stroke-width="4" stroke-linejoin="round"/><path d="M226.78701,193.27638v7.2749l-8.3707,-3.63745z" fill="#b3b3b3" stroke="none" stroke-width="1" stroke-linejoin="miter"/></g><g><path d="M226.78701,185.65905v7.28251l-8.3707,-3.63745z" fill="none" stroke="#000000" stroke-width="4" stroke-linejoin="round"/><path d="M226.78701,185.65905v7.28251l-8.3707,-3.63745z" fill="#b3b3b3" stroke="none" stroke-width="1" stroke-linejoin="miter"/></g><g><path d="M251.13815,192.60675v-7.2749l8.3707,3.63745z" fill="none" stroke="#000000" stroke-width="4" stroke-linejoin="round"/><path d="M251.13815,192.60675v-7.2749l8.3707,3.63745z" fill="#b3b3b3" stroke="none" stroke-width="1" stroke-linejoin="miter"/></g><g><path d="M251.13815,200.21646v-7.2749l8.3707,3.63745z" fill="none" stroke="#000000" stroke-width="4" stroke-linejoin="round"/><path d="M251.13815,200.21646v-7.2749l8.3707,3.63745z" fill="#b3b3b3" stroke="none" stroke-width="1" stroke-linejoin="miter"/></g><g><path d="M251.13815,207.8262v-7.2749l8.3707,3.63745z" fill="none" stroke="#000000" stroke-width="4" stroke-linejoin="round"/><path d="M251.13815,207.8262v-7.2749l8.3707,3.63745z" fill="#b3b3b3" stroke="none" stroke-width="1" stroke-linejoin="miter"/></g><g><path d="M226.55864,208.92199v-24.35113h24.35113v24.35113z" fill="none" stroke="#000000" stroke-width="2" stroke-linejoin="round"/><path d="M226.78701,208.92199v-24.35113h24.35113v24.35113z" fill="#b78239" stroke="none" stroke-width="1" stroke-linejoin="miter"/></g><path d="M233.63577,202.07324v-10.65362h10.65362v10.65362z" fill="#ffb64f" stroke="none" stroke-width="1" stroke-linejoin="miter"/></g><g fill="none" stroke-linecap="round" stroke-linejoin="round"><g><path d="M227.93258,119.88674l42.98,-30.88l15.94,120.06" stroke="#000000" stroke-width="8"/><path d="M227.93258,119.88674l42.98,-30.88l15.94,120.06" stroke="#e3c9a4" stroke-width="4"/></g><g><path d="M171.66258,208.84674l25.92,-118.31l40.69,33.97" stroke="#000000" stroke-width="8"/><path d="M171.66258,208.84674l25.92,-118.31l40.69,33.97" stroke="#e3c9a4" stroke-width="4"/></g><g><path d="M253.03258,131.00674l37.5,-37.5l38,115" stroke="#000000" stroke-width="8"/><path d="M253.03258,131.00674l37.5,-37.5l38,115" stroke="#e3c9a4" stroke-width="4"/></g></g><g fill="none" stroke-linecap="round" stroke-linejoin="round"><g><path d="M190.85258,209.06674l15.94,-120.06l37.98,30.88" stroke="#000000" stroke-width="8"/><path d="M190.85258,209.06674l15.94,-120.06l37.98,30.88" stroke="#e3c9a4" stroke-width="4"/></g><g><path d="M149.53258,208.50674l38,-115l37.5,37.5" stroke="#000000" stroke-width="8"/><path d="M149.53258,208.50674l38,-115l37.5,37.5" stroke="#e3c9a4" stroke-width="4"/></g><g><path d="M243.80258,124.50674l36.94,-33.97l25.92,118.31" stroke="#000000" stroke-width="8"/><path d="M243.80258,124.50674l36.94,-33.97l25.92,118.31" stroke="#e3c9a4" stroke-width="4"/></g></g><g stroke-linecap="butt"><g><path d="M275.26258,139.92317h-72.6c-5.90945,0 -10.7,-4.79055 -10.7,-10.7v-11.64c-0.00144,-5.04951 3.53058,-9.41137 8.47,-10.46l36.3,-7.73c1.47051,-0.31002 2.98949,-0.31002 4.46,0l36.3,7.73c4.93942,1.04863 8.47145,5.41049 8.47,10.46v11.64c0,5.90945 -4.79055,10.7 -10.7,10.7z" fill="none" stroke="#000000" stroke-width="4" stroke-linejoin="round"/><path d="M275.26258,139.92317h-72.6c-5.90945,0 -10.7,-4.79055 -10.7,-10.7v-11.64c-0.00144,-5.04951 3.53058,-9.41137 8.47,-10.46l36.3,-7.73c1.47051,-0.31002 2.98949,-0.31002 4.46,0l36.3,7.73c4.93942,1.04863 8.47145,5.41049 8.47,10.46v11.64c0,5.90945 -4.79055,10.7 -10.7,10.7z" fill="#8a632b" stroke="none" stroke-width="1" stroke-linejoin="miter"/></g><path d="M274.96258,130.92317l-36,-5l-37,5v-17l37.09,-7l35.91,7z" fill="#b78239" stroke="none" stroke-width="1" stroke-linejoin="miter"/><path d="M231.96258,130.92317v-25h14v25z" fill="#8a632b" stroke="none" stroke-width="1" stroke-linejoin="miter"/><path d="M235.96258,115.92317v-6h6v6z" fill="#694b20" stroke="none" stroke-width="1" stroke-linejoin="miter"/><path d="M235.96258,107.92317v-6h6v6z" fill="#694b20" stroke="none" stroke-width="1" stroke-linejoin="miter"/><path d="M235.96258,123.92317v-6h6v6z" fill="#7d0000" stroke="none" stroke-width="1" stroke-linejoin="miter"/><path d="M235.96258,131.92317v-6h6v6z" fill="#7d0000" stroke="none" stroke-width="1" stroke-linejoin="miter"/><path d="M235.96258,139.92317v-6h6v6z" fill="#694b20" stroke="none" stroke-width="1" stroke-linejoin="miter"/><path d="M230.96258,124.92317c0,-4.41828 3.58172,-8 8,-8c4.41828,0 8,3.58172 8,8c0,4.41828 -3.58172,8 -8,8c-4.41828,0 -8,-3.58172 -8,-8z" fill="#fffe6d" stroke="#000000" stroke-width="2" stroke-linejoin="round"/><path d="M266.96258,116.92317v11l-22,-3" fill="none" stroke="#000000" stroke-width="2" stroke-linejoin="round"/><path d="M256.96258,130.92317v-9" fill="none" stroke="#000000" stroke-width="2" stroke-linejoin="round"/><path d="M238.96258,140.92317v-9" fill="none" stroke="#000000" stroke-width="2" stroke-linejoin="round"/><path d="M232.96258,124.92317l-22,3v-11" fill="none" stroke="#000000" stroke-width="2" stroke-linejoin="round"/><path d="M220.96258,130.92317v-9" fill="none" stroke="#000000" stroke-width="2" stroke-linejoin="round"/></g><g stroke-linecap="butt"><g><path d="M207.96258,151.62751v-62h62v62z" fill="none" stroke="#000000" stroke-width="4" stroke-linejoin="round"/><path d="M207.96258,151.62751v-62h62v62z" fill="#b78239" stroke="none" stroke-width="1" stroke-linejoin="miter"/></g><path d="M216.96258,142.62751v-44h44v44z" fill="#ffb64f" stroke="none" stroke-width="1" stroke-linejoin="miter"/><path d="M260.96258,142.62751h-44v-23l22,7l22,-7z" fill="#ffffff" stroke="none" stroke-width="1" stroke-linejoin="miter"/><path d="M222.96258,142.62751v-9h9v9z" fill="#000000" stroke="none" stroke-width="1" stroke-linejoin="miter"/><path d="M245.96258,142.62751v-9h9v9z" fill="#000000" stroke="none" stroke-width="1" stroke-linejoin="miter"/><g><path d="M253.05258,153.62751h16l-8,16z" fill="none" stroke="#000000" stroke-width="4" stroke-linejoin="round"/><path d="M253.05258,153.62751h16l-8,16z" fill="#e3c9a4" stroke="none" stroke-width="1" stroke-linejoin="miter"/></g><g><path d="M209.05258,153.62751h16l-8,16z" fill="none" stroke="#000000" stroke-width="4" stroke-linejoin="round"/><path d="M209.05258,153.62751h16l-8,16z" fill="#e3c9a4" stroke="none" stroke-width="1" stroke-linejoin="miter"/></g><g><path d="M231.05258,153.62751h16l-8,16z" fill="none" stroke="#000000" stroke-width="4" stroke-linejoin="round"/><path d="M231.05258,153.62751h16l-8,16z" fill="#e3c9a4" stroke="none" stroke-width="1" stroke-linejoin="miter"/></g><g><path d="M205.96258,134.71752v16l-16,-8z" fill="none" stroke="#000000" stroke-width="4" stroke-linejoin="round"/><path d="M205.96258,134.71752v16l-16,-8z" fill="#e3c9a4" stroke="none" stroke-width="1" stroke-linejoin="miter"/></g><g><path d="M205.96258,90.71752v16l-16,-8z" fill="none" stroke="#000000" stroke-width="4" stroke-linejoin="round"/><path d="M205.96258,90.71752v16l-16,-8z" fill="#e3c9a4" stroke="none" stroke-width="1" stroke-linejoin="miter"/></g><g><path d="M205.96258,112.71752v16l-16,-8z" fill="none" stroke="#000000" stroke-width="4" stroke-linejoin="round"/><path d="M205.96258,112.71752v16l-16,-8z" fill="#e3c9a4" stroke="none" stroke-width="1" stroke-linejoin="miter"/></g><g><path d="M271.96258,106.53752v-16l16,8z" fill="none" stroke="#000000" stroke-width="4" stroke-linejoin="round"/><path d="M271.96258,106.53752v-16l16,8z" fill="#e3c9a4" stroke="none" stroke-width="1" stroke-linejoin="miter"/></g><g><path d="M271.96258,150.53752v-16l16,8z" fill="none" stroke="#000000" stroke-width="4" stroke-linejoin="round"/><path d="M271.96258,150.53752v-16l16,8z" fill="#e3c9a4" stroke="none" stroke-width="1" stroke-linejoin="miter"/></g><g><path d="M271.96258,128.53752v-16l16,8z" fill="none" stroke="#000000" stroke-width="4" stroke-linejoin="round"/><path d="M271.96258,128.53752v-16l16,8z" fill="#e3c9a4" stroke="none" stroke-width="1" stroke-linejoin="miter"/></g></g></g></g></svg>