<svg version="1.1" xmlns="http://www.w3.org/2000/svg" xmlns:xlink="http://www.w3.org/1999/xlink" width="62" height="62" viewBox="0,0,62,62"><g transform="translate(-209,-149.00004)"><g data-paper-data="{&quot;isPaintingLayer&quot;:true}" fill-rule="nonzero" stroke="none" stroke-linecap="butt" stroke-miterlimit="10" stroke-dasharray="" stroke-dashoffset="0" style="mix-blend-mode: normal"><path d="M209,211.00005v-62h62v62z" fill="#39b54a" stroke-width="0" stroke-linejoin="round"/><path d="M218,202.00005v-44h44v44z" fill="#3ac54d" stroke-width="1" stroke-linejoin="miter"/><path d="M234.61334,172.84341c-0.30704,0.04521 -4.00346,4.84411 -5.81137,4.3714c-1.80091,-0.47089 -3.36943,-6.19994 -4.57937,-5.54009c-3.21769,1.75482 -4.24252,7.65238 -6.04514,7.65238c-1.68929,0 -3.72374,-2.66864 -5.23459,-3.24364c-2.41778,-0.92016 -3.94287,0.08499 -3.94287,0.08499v-27.1684h27.2c0,0 -3.32479,2.12491 -1.16236,6.57601c1.11672,2.29863 8.68333,6.68425 8.44043,8.63369c-0.3592,2.88282 -9.34492,2.27409 -9.69279,4.15046c-0.2106,1.13601 1.1351,4.43799 0.82806,4.4832z" fill="#6200c5" stroke-width="0" stroke-linejoin="round"/><path d="M209,170.60001v-21.59996h20.6967c0,0 -2.56946,3.65359 -1.52383,8.51529c0.38144,1.7735 5.06099,3.62479 5.10549,5.63587c0.02815,1.27212 -0.82107,2.2757 -1.61962,3.34312c-0.1876,0.25076 -1.31097,0.86328 -3.73109,1.33251c-2.5891,0.50199 -0.06839,-2.56205 -3.33756,-2.09643c-1.76937,0.252 -0.61512,3.52616 -3.04523,4.29538c-1.68338,0.53285 -1.46321,-1.05264 -3.53235,-0.99286c-1.69421,0.04895 -4.48928,3.02546 -6.28891,3.39713c-1.87684,0.38761 -2.7236,-1.83005 -2.7236,-1.83005z" fill="#6f00de" stroke-width="0" stroke-linejoin="round"/><path d="M209,164.2v-15.19996h14.45531c0,0 -5.70759,1.92377 -4.78583,3.62419c0.7174,1.32342 4.49663,4.20432 5.03068,8.28417c0.05009,0.38264 -2.44096,3.33281 -4.26558,3.72817c-1.58272,0.34294 -2.41642,-1.88012 -3.71297,-1.41849c-2.02677,0.72161 -1.32269,1.93379 -3.17423,2.17079c-2.04463,0.26171 -3.54737,-1.18886 -3.54737,-1.18886z" fill="#8000ff" stroke-width="0" stroke-linejoin="round"/></g></g></svg>