<svg version="1.1" xmlns="http://www.w3.org/2000/svg" xmlns:xlink="http://www.w3.org/1999/xlink" width="46.64554" height="53.05715" viewBox="0,0,46.64554,53.05715"><g transform="translate(-215.49516,-126.94285)"><g data-paper-data="{&quot;isPaintingLayer&quot;:true}" fill-rule="nonzero" stroke-linecap="butt" stroke-miterlimit="10" stroke-dasharray="" stroke-dashoffset="0" style="mix-blend-mode: normal"><path d="M225,165v-14h18v14z" fill="#000000" stroke="none" stroke-width="1" stroke-linejoin="miter"/><path d="M261,165v14h-42v-14h32v-3c0,-1.10457 0.89543,-2 2,-2h3c1.10457,0 2,0.89543 2,2v3z" fill="#ff0000" stroke="#000000" stroke-width="2" stroke-linejoin="miter"/><g><g stroke="none" stroke-linejoin="miter"><path d="M261.02069,154.99217l-41.65299,5.3878l-2.82218,-21.81823c-0.42509,-3.28633 1.89441,-6.29503 5.18074,-6.72012l29.75214,-3.84843c3.28633,-0.42509 6.29503,1.89441 6.72012,5.18074z" fill="#9500ff" stroke-width="1"/><path d="M262.1407,155.85563l-43.63647,5.64436l-2.95046,-22.80997c-0.49594,-3.83405 2.21015,-7.3442 6.0442,-7.84013l29.75214,-3.84843c3.83405,-0.49594 7.3442,2.21015 7.84013,6.0442zM220.23115,159.25996l39.66952,-5.13124l-2.6939,-20.8265c-0.35424,-2.73862 -2.86149,-4.67152 -5.60009,-4.31729l-29.75214,3.84843c-2.73862,0.35424 -4.67152,2.86148 -4.31729,5.60009z" fill="#000000" stroke-width="1"/><path d="M217.48895,138.42051c-0.35423,-2.73861 1.58541,-5.26072 4.32403,-5.61496l29.82617,-3.85865c2.7386,-0.35423 5.25657,1.59149 5.61081,4.33011l2.69591,20.87307l-39.75337,5.14159z" data-paper-data="{&quot;noHover&quot;:false,&quot;origItem&quot;:[&quot;Path&quot;,{&quot;applyMatrix&quot;:true,&quot;segments&quot;:[[220.23115,159.25996],[259.90067,154.12872],[[257.20677,133.30222],[0,0],[-0.35424,-2.73862]],[[251.60668,128.98493],[2.7386,-0.35423],[0,0]],[[221.85454,132.83336],[0,0],[-2.73862,0.35424]],[[217.53725,138.43345],[-0.35423,-2.73861],[0,0]]],&quot;closed&quot;:true,&quot;fillColor&quot;:[0,0,0,1]}]}" fill="#ff7800" stroke-width="0.5"/></g><path d="M252.06054,148.08452l-9.91738,1.28281l-1.28281,-9.91738l10.17394,0.70067z" fill="#ffffff" stroke="#ffffff" stroke-width="2" stroke-linejoin="round"/><path d="M245.98183,147.86247l-0.76969,-5.95043l5.95043,-0.76969l0.76969,5.95043z" fill="#000000" stroke="none" stroke-width="1" stroke-linejoin="miter"/></g></g></g></svg>