<svg version="1.1" xmlns="http://www.w3.org/2000/svg" xmlns:xlink="http://www.w3.org/1999/xlink" width="36" height="58" viewBox="0,0,36,58"><defs><linearGradient x1="225.1" y1="153" x2="225.1" y2="168" gradientUnits="userSpaceOnUse" id="color-1"><stop offset="0" stop-color="#d93636"/><stop offset="1" stop-color="#d86736"/></linearGradient><linearGradient x1="225.025" y1="183" x2="225.025" y2="168" gradientUnits="userSpaceOnUse" id="color-2"><stop offset="0" stop-color="#d9cc36"/><stop offset="1" stop-color="#d86736"/></linearGradient><linearGradient x1="225.1" y1="195" x2="225.1" y2="207" gradientUnits="userSpaceOnUse" id="color-3"><stop offset="0" stop-color="#36d93d"/><stop offset="1" stop-color="#364cd9"/></linearGradient><linearGradient x1="225.1" y1="183" x2="225.1" y2="195" gradientUnits="userSpaceOnUse" id="color-4"><stop offset="0" stop-color="#d9cc36"/><stop offset="1" stop-color="#36d93d"/></linearGradient><linearGradient x1="225" y1="158" x2="225" y2="170.22222" gradientUnits="userSpaceOnUse" id="color-5"><stop offset="0" stop-color="#fa3e3e"/><stop offset="1" stop-color="#fa773e"/></linearGradient><linearGradient x1="225" y1="182.44444" x2="225" y2="170.22222" gradientUnits="userSpaceOnUse" id="color-6"><stop offset="0" stop-color="#faea3e"/><stop offset="1" stop-color="#fa773e"/></linearGradient><linearGradient x1="225" y1="192.22222" x2="225" y2="202" gradientUnits="userSpaceOnUse" id="color-7"><stop offset="0" stop-color="#3efa48"/><stop offset="1" stop-color="#3e57fa"/></linearGradient><linearGradient x1="225" y1="182.44444" x2="225" y2="192.22222" gradientUnits="userSpaceOnUse" id="color-8"><stop offset="0" stop-color="#faea3e"/><stop offset="1" stop-color="#3efa48"/></linearGradient></defs><g transform="translate(-207,-151)"><g data-paper-data="{&quot;isPaintingLayer&quot;:true}" fill-rule="nonzero" stroke-linecap="butt" stroke-miterlimit="10" stroke-dasharray="" stroke-dashoffset="0" style="mix-blend-mode: normal"><path d="M209,207v-54h32v54z" fill="none" stroke="#000000" stroke-width="4" stroke-linejoin="round"/><path d="M209,207v-54h32v54z" fill="#000000" stroke="none" stroke-width="1" stroke-linejoin="miter"/><g stroke="none" stroke-width="1" stroke-linejoin="miter"><path d="M209.1,168v-15h32v15z" fill="url(#color-1)"/><path d="M241.025,168v15h-32v-15z" fill="url(#color-2)"/><path d="M241.1,195v12h-32v-12z" fill="url(#color-3)"/><path d="M209.1,195v-12h32v12z" fill="url(#color-4)"/></g><g stroke="none" stroke-width="1" stroke-linejoin="miter"><g><path d="M218,170.22222v-12.22222h14v12.22222z" fill="url(#color-5)"/><path d="M232,170.22222v12.22222h-14v-12.22222z" fill="url(#color-6)"/><path d="M232,192.22222v9.77778h-14v-9.77778z" fill="url(#color-7)"/><path d="M218,192.22222v-9.77778h14v9.77778z" fill="url(#color-8)"/></g><g fill="#000000"><path d="M221,176c0,-2.20914 1.79086,-4 4,-4c2.20914,0 4,1.79086 4,4c0,2.20914 -1.79086,4 -4,4c-2.20914,0 -4,-1.79086 -4,-4z"/><path d="M225.93,177l1.07,9.86c-0.66287,0.09052 -1.33098,0.13728 -2,0.14c-0.66932,-0.00394 -1.33758,-0.05406 -2,-0.15l1.1,-9.85z"/></g></g></g></g></svg>