<svg version="1.1" xmlns="http://www.w3.org/2000/svg" xmlns:xlink="http://www.w3.org/1999/xlink" width="66" height="33.49207" viewBox="0,0,66,33.49207"><g transform="translate(-207,-177.50796)"><g data-paper-data="{&quot;isPaintingLayer&quot;:true}" fill-rule="nonzero" stroke-linecap="butt" stroke-miterlimit="10" stroke-dasharray="" stroke-dashoffset="0" style="mix-blend-mode: normal"><path d="M240.41202,182.94989l-31.41202,-3.44193l11.67,0.50794l9.88,-0.50794l4.7,0.50794l18.91,-0.50794l6.09,0.50794l10.75,-0.50794z" fill="none" stroke="#000000" stroke-width="4" stroke-linejoin="round"/><path d="M271,211.00003h-62v-31.49205l11.67,0.50794l9.88,-0.50794l4.7,0.50794l18.91,-0.50794l6.09,0.50794l10.75,-0.50794z" fill="#39b54a" stroke="none" stroke-width="1" stroke-linejoin="miter"/><path d="M262,206.4286h-44v-22.3492l18,1.01587l9,1.52381l10,-2.03175l7,-0.50794z" fill="#3ac54d" stroke="none" stroke-width="1" stroke-linejoin="miter"/><path d="M236,183.57145l-2,-1.01587l1,-3.04762" fill="none" stroke="#000000" stroke-width="2" stroke-linejoin="round"/><path d="M254,179.00003l1,2.03175" fill="none" stroke="#000000" stroke-width="2" stroke-linejoin="round"/><path d="M244,179.00003l2,6.60317l-4,3.04762" fill="none" stroke="#000000" stroke-width="2" stroke-linejoin="round"/><path d="M220,181.53971l1,-2.03175" fill="none" stroke="#000000" stroke-width="2" stroke-linejoin="round"/><path d="M250,186.61907l-4,-1.01587" fill="none" stroke="#000000" stroke-width="2" stroke-linejoin="round"/><path d="M262.45,179.50796l-1.02,2.03175" fill="none" stroke="#000000" stroke-width="2" stroke-linejoin="round"/></g></g></svg>