<svg version="1.1" xmlns="http://www.w3.org/2000/svg" xmlns:xlink="http://www.w3.org/1999/xlink" width="61.59861" height="39.79968" viewBox="0,0,61.59861,39.79968"><g transform="translate(-214.04912,-141.89528)"><g data-paper-data="{&quot;isPaintingLayer&quot;:true}" fill-rule="nonzero" stroke-linecap="butt" stroke-miterlimit="10" stroke-dasharray="" stroke-dashoffset="0" style="mix-blend-mode: normal"><g><path d="M220.80401,167.37447l10.52847,1.9723l-1.49283,3.66352l7.36993,1.3806l1.19425,-2.93083l2.10569,0.39446l-1.19425,2.93083l3.15855,0.59169l1.49283,-3.66353l4.21139,0.78891l-2.08996,5.12895l-16.84555,-3.15566l-1.49283,3.66352l-10.52848,-1.9723zM225.78541,174.61672l1.19427,-2.93083l-4.21139,-0.78892l-1.19427,2.93083z" fill="none" stroke="#000000" stroke-width="4" stroke-linejoin="round"/><path d="M220.80401,167.37447l10.52847,1.9723l-1.49283,3.66352l7.36993,1.3806l1.19425,-2.93083l2.10569,0.39446l-1.19425,2.93083l3.15855,0.59169l1.49283,-3.66353l4.21139,0.78891l-2.08996,5.12895l-16.84555,-3.15566l-1.49283,3.66352l-10.52848,-1.9723zM225.78541,174.61672l1.19427,-2.93083l-4.21139,-0.78892l-1.19427,2.93083z" fill="#f97b3d" stroke="none" stroke-width="1" stroke-linejoin="miter"/></g><g><path d="M240.01168,171.62751l9.66031,-3.45652l2.61625,3.36143l6.76222,-2.41957l-2.09301,-2.68916l1.93206,-0.69131l2.09301,2.68916l2.8981,-1.03697l-2.61625,-3.36143l3.86411,-1.38262l3.66276,4.70601l-15.45649,5.53047l2.61625,3.36143l-9.66031,3.45654zM250.95989,174.58622l-2.09301,-2.68916l-3.86412,1.38261l2.09301,2.68915z" fill="none" stroke="#000000" stroke-width="4" stroke-linejoin="round"/><path d="M240.01168,171.62751l9.66031,-3.45652l2.61625,3.36143l6.76222,-2.41957l-2.09301,-2.68916l1.93206,-0.69131l2.09301,2.68916l2.8981,-1.03697l-2.61625,-3.36143l3.86411,-1.38262l3.66276,4.70601l-15.45649,5.53047l2.61625,3.36143l-9.66031,3.45654zM250.95989,174.58622l-2.09301,-2.68916l-3.86412,1.38261l2.09301,2.68915z" fill="#903cfa" stroke="none" stroke-width="1" stroke-linejoin="miter"/></g><g><path d="M260.29076,168.38794l-1.3061,-7.35292l5.56542,-0.45448l-0.91428,-5.14705l-4.45235,0.36358l-0.26123,-1.47058l4.45235,-0.36358l-0.39184,-2.20589l-5.56542,0.45448l-0.52246,-2.94117l7.7916,-0.63627l2.08978,11.76466l5.56541,-0.45447l1.30609,7.35292zM268.28115,162.51371l-4.45234,0.36358l0.52244,2.94117l4.45234,-0.36358z" fill="none" stroke="#000000" stroke-width="4" stroke-linejoin="round"/><path d="M260.29076,168.38794l-1.3061,-7.35292l5.56542,-0.45448l-0.91428,-5.14705l-4.45235,0.36358l-0.26123,-1.47058l4.45235,-0.36358l-0.39184,-2.20589l-5.56542,0.45448l-0.52246,-2.94117l7.7916,-0.63627l2.08978,11.76466l5.56541,-0.45447l1.30609,7.35292zM268.28115,162.51371l-4.45234,0.36358l0.52244,2.94117l4.45234,-0.36358z" fill="#903cfa" stroke="none" stroke-width="1" stroke-linejoin="miter"/></g><g><path d="M258.77375,160.2269l-4.66859,-4.62726l10.18255,-1.32662z" fill="none" stroke="#000000" stroke-width="4" stroke-linejoin="round"/><path d="M258.77375,160.2269l-4.66859,-4.62726l10.18255,-1.32662z" fill="#b3b3b3" stroke="none" stroke-width="1" stroke-linejoin="miter"/></g><path d="M256.80635,172.7034c-5.8679,6.74683 -19.36625,8.72108 -30.14944,4.40961c-10.78318,-4.31147 -14.76781,-13.27599 -8.89992,-20.02282c5.8679,-6.74683 19.36625,-8.72108 30.14944,-4.40961c10.78318,4.31147 14.76781,13.27599 8.89991,20.02282z" fill="#7a1cbe" stroke="#000000" stroke-width="2" stroke-linejoin="miter"/><path d="M256.80635,172.7034c-5.8679,6.74683 -44.91725,-8.86639 -39.04935,-15.61321c5.8679,-6.74683 19.36625,-8.72108 30.14944,-4.40961c10.78318,4.31147 14.76781,13.27599 8.89991,20.02282z" fill="#9500ff" stroke="#000000" stroke-width="2" stroke-linejoin="miter"/><path d="M228.67076,155.73362c0.20949,-0.66298 1.18731,-0.52094 1.18731,-0.52094l0.05594,0.08133c2.17111,-0.36669 3.91202,-1.02608 6.21672,-1.24828c6.04352,-0.58267 11.67199,1.04178 16.39181,3.50394c0,0 0.79173,0.41419 0.18085,0.951c-0.61087,0.53682 -1.4026,0.12262 -1.4026,0.12262c-4.28027,-2.24621 -9.39887,-3.76964 -14.89745,-3.23417c-2.248,0.21892 -3.85856,0.83457 -5.98951,1.21791l-0.97476,-0.0684c0,0 -0.97781,-0.14204 -0.76831,-0.80503z" fill="#a45efa" stroke="none" stroke-width="0.5" stroke-linejoin="miter"/><path d="M221.10275,157.69568c-0.76615,-0.43574 -0.1235,-0.95521 -0.1235,-0.95521l0.65152,-0.52664c4.98819,-3.98062 11.44423,-3.49263 18.35981,-4.16435c0,0 0.98995,-0.09591 1.1314,0.5753c0.14146,0.67121 -0.84849,0.76712 -0.84849,0.76712c-6.27934,0.6069 -12.63492,0.01623 -17.1104,3.69341l-0.65153,0.52664c0,0 -0.64265,0.51947 -1.4088,0.08373z" fill="#a45efa" stroke="none" stroke-width="0.5" stroke-linejoin="miter"/><path d="M220.4329,161.50444c-0.43495,-0.61053 0.4655,-0.90544 0.4655,-0.90544l0.43278,-0.13592c5.69177,-2.4973 11.75305,-3.04808 18.46246,-3.16639c0,0 0.99967,-0.01748 1.02546,0.66032c0.02579,0.6778 -0.97389,0.69529 -0.97389,0.69529c-6.34029,0.10994 -12.0513,0.59043 -17.42748,2.94926l-0.64943,0.21851c0,0 -0.90046,0.29491 -1.3354,-0.31563z" fill="#a45efa" stroke="none" stroke-width="0.5" stroke-linejoin="miter"/><path d="M226.04334,173.96804c-0.75428,0.44516 -1.41083,-0.06626 -1.41083,-0.06626l-0.63839,-0.50045c-4.15414,-2.3626 -7.34935,-7.17343 -7.53282,-10.83644c0,0 -0.02579,-0.6778 0.97388,-0.69529c0.99967,-0.01748 1.02546,0.66032 1.02546,0.66032c0.07642,3.30491 3.20285,7.78137 6.93471,9.90381l0.74574,0.57773c0,0 0.65654,0.51142 -0.09773,0.95659z" fill="#903cfa" stroke="none" stroke-width="0.5" stroke-linejoin="miter"/><path d="M237.57116,174.43418c-0.06911,0.67641 -1.06671,0.62955 -1.06671,0.62955l-0.81064,-0.10983c-1.88755,-0.7547 -3.9535,-1.31899 -5.75297,-2.17171c-3.30105,-1.5643 -6.06416,-3.7412 -9.26962,-5.41516c0,0 -0.79173,-0.41419 -0.18085,-0.951c0.61087,-0.53682 1.4026,-0.12262 1.4026,-0.12262c3.17598,1.66426 5.92757,3.83254 9.20242,5.3815c1.75294,0.82912 3.77513,1.37555 5.61433,2.11093l-0.06707,-0.0749c0,0 0.99761,0.04686 0.9285,0.72326z" fill="#903cfa" stroke="none" stroke-width="0.5" stroke-linejoin="miter"/><path d="M241.17496,176.88306c0.86138,0.34441 0.35342,0.92845 0.35342,0.92845l-0.37415,0.3617c-3.188,1.62972 -8.37355,-0.57957 -11.36111,-1.77409c0,0 -0.86138,-0.34441 -0.35342,-0.92845c0.50796,-0.58404 1.36934,-0.23963 1.36934,-0.23963c1.59912,0.63938 7.53333,3.17002 9.03209,1.91932l-0.03552,-0.02767c0,0 0.50796,-0.58404 1.36934,-0.23963z" fill="#903cfa" stroke="none" stroke-width="0.5" stroke-linejoin="miter"/><path d="M252.30971,159.13216c0.96827,-0.16945 1.21817,0.48707 1.21817,0.48707l0.08429,0.23802c1.19167,2.15372 2.52642,4.30876 3.68092,6.46693c0,0 0.33654,0.63847 -0.60512,0.86667c-0.94166,0.22819 -1.27822,-0.41029 -1.27822,-0.41029c-1.10476,-2.13366 -2.4625,-4.3262 -3.66709,-6.44149l-0.15133,-0.38095c0,0 -0.24992,-0.65651 0.71836,-0.82596z" fill="#ffb06b" stroke="none" stroke-width="0.5" stroke-linejoin="miter"/><path d="M244.43774,159.1419c0.66703,-0.50515 1.41206,-0.05289 1.41206,-0.05289l0.72042,0.44434c3.83021,2.98495 6.64312,5.73405 7.71066,9.74576c0,0 0.17491,0.66758 -0.80968,0.78617c-0.98459,0.11859 -1.1595,-0.54898 -1.1595,-0.54898c-0.97284,-3.77969 -3.65686,-6.29492 -7.25006,-9.09263l-0.5459,-0.32435c0,0 -0.74504,-0.45226 -0.07801,-0.95742z" fill="#a45efa" stroke="none" stroke-width="0.5" stroke-linejoin="miter"/><g><path d="M218.24824,167.6922l10.89011,-0.57384l0.43435,3.78935l7.62305,-0.4017l-0.34749,-3.0315l2.17802,-0.11476l0.3475,3.03149l3.26703,-0.17215l-0.43434,-3.78936l4.35602,-0.22954l0.60809,5.3051l-17.42414,0.91816l0.43434,3.78935l-10.8901,0.57385zM226.56628,173.35347l-0.34749,-3.03149l-4.35603,0.22954l0.34748,3.03149z" fill="none" stroke="#000000" stroke-width="4" stroke-linejoin="round"/><path d="M218.24824,167.6922l10.89011,-0.57384l0.43435,3.78935l7.62305,-0.4017l-0.34749,-3.0315l2.17802,-0.11476l0.3475,3.03149l3.26703,-0.17215l-0.43434,-3.78936l4.35602,-0.22954l0.60809,5.3051l-17.42414,0.91816l0.43434,3.78935l-10.8901,0.57385zM226.56628,173.35347l-0.34749,-3.03149l-4.35603,0.22954l0.34748,3.03149z" fill="#903cfa" stroke="none" stroke-width="1" stroke-linejoin="miter"/></g><g><path d="M241.42866,169.0407l5.71714,-6.31057l4.77647,1.98935l4.00199,-4.4174l-3.82119,-1.59149l1.14342,-1.26212l3.8212,1.59149l1.71513,-1.89318l-4.77647,-1.98935l2.28684,-2.52424l6.68707,2.78509l-9.14739,10.09693l4.77647,1.98935l-5.71712,6.31058zM253.07305,167.80626l-3.82119,-1.59149l-2.28685,2.52423l3.82119,1.59148z" fill="none" stroke="#000000" stroke-width="4" stroke-linejoin="round"/><path d="M241.42866,169.0407l5.71714,-6.31057l4.77647,1.98935l4.00199,-4.4174l-3.82119,-1.59149l1.14342,-1.26212l3.8212,1.59149l1.71513,-1.89318l-4.77647,-1.98935l2.28684,-2.52424l6.68707,2.78509l-9.14739,10.09693l4.77647,1.98935l-5.71712,6.31058zM253.07305,167.80626l-3.82119,-1.59149l-2.28685,2.52423l3.82119,1.59148z" fill="#903cfa" stroke="none" stroke-width="1" stroke-linejoin="miter"/></g><g><path d="M255.35784,163.01836l-5.83095,-6.26252l4.74009,-2.02895l-4.08167,-4.38376l-3.79209,1.62317l-1.16619,-1.2525l3.79208,-1.62317l-1.7493,-1.87876l-4.74009,2.02896l-2.3324,-2.505l6.63613,-2.84055l9.32953,10.02003l4.74008,-2.02895l5.83095,6.26251zM258.86029,155.38825l-3.79208,1.62317l2.33239,2.505l3.79207,-1.62318z" fill="none" stroke="#000000" stroke-width="4" stroke-linejoin="round"/><path d="M255.35784,163.01836l-5.83095,-6.26252l4.74009,-2.02895l-4.08167,-4.38376l-3.79209,1.62317l-1.16619,-1.2525l3.79208,-1.62317l-1.7493,-1.87876l-4.74009,2.02896l-2.3324,-2.505l6.63613,-2.84055l9.32953,10.02003l4.74008,-2.02895l5.83095,6.26251zM258.86029,155.38825l-3.79208,1.62317l2.33239,2.505l3.79207,-1.62318z" fill="#903cfa" stroke="none" stroke-width="1" stroke-linejoin="miter"/></g></g></g></svg>