<svg version="1.1" xmlns="http://www.w3.org/2000/svg" xmlns:xlink="http://www.w3.org/1999/xlink" width="42.44185" height="40.00315" viewBox="0,0,42.44185,40.00315"><g transform="translate(-221.55815,-159.3922)"><g data-paper-data="{&quot;isPaintingLayer&quot;:true}" fill-rule="nonzero" stroke-linecap="butt" stroke-linejoin="miter" stroke-miterlimit="10" stroke-dasharray="" stroke-dashoffset="0" style="mix-blend-mode: normal"><path d="M244,182v-22h12v22z" fill="#000000" stroke="none" stroke-width="1"/><g stroke="none"><path d="M253.62791,190.5814h-31.25581v-16.37209c0,-2.46601 1.9991,-4.46512 4.46511,-4.46512h22.32558c2.46601,0 4.46511,1.9991 4.46511,4.46512z" fill="#9500ff" stroke-width="1"/><path d="M254.3721,191.32558h-32.74419v-17.11628c0,-2.87701 2.33229,-5.2093 5.20931,-5.2093h22.32558c2.87702,0 5.20931,2.33229 5.20931,5.2093zM223.11628,189.83721h29.76744v-15.62791c0,-2.05502 -1.66592,-3.72093 -3.72093,-3.72093h-22.32558c-2.05502,0 -3.72093,1.66591 -3.72093,3.72093z" fill="#000000" stroke-width="1"/><path d="M223.08174,174.19549c0,-2.05502 1.67234,-3.73148 3.72736,-3.73148h22.38182c2.05501,0 3.72736,1.67646 3.72736,3.73148l-0.00335,15.66201h-29.82984z" data-paper-data="{&quot;noHover&quot;:false,&quot;origItem&quot;:[&quot;Path&quot;,{&quot;applyMatrix&quot;:true,&quot;segments&quot;:[[219.75,164],[259.75,164],[[259.75,143],[0,0],[0,-2.76143]],[[254.75,138],[2.76142,0],[0,0]],[[224.75,138],[0,0],[-2.76143,0]],[[219.75,143],[0,-2.76143],[0,0]]],&quot;closed&quot;:true,&quot;fillColor&quot;:[0,0,0,1]}]}" fill="#ff7800" stroke-width="0.5"/></g><path d="M253.81396,187.97674c0,0 0,4.68162 0,6.59581c0,1.38286 -1.53161,3.8228 -3.88841,3.8228c-6.77482,0 -20.36832,0 -24,0c-1.77092,0 -3.3674,-2.95506 -3.3674,-4.5728c0,-1.82911 0,-5.84581 0,-5.84581z" fill="#ff0000" stroke="#000000" stroke-width="2"/><g><path d="M252,180h6c2.20914,0 4,1.79086 4,4v4h-10z" fill="none" stroke="#000000" stroke-width="4"/><path d="M252,180h6c2.20914,0 4,1.79086 4,4v4h-10z" fill="#ff8b00" stroke="none" stroke-width="1"/></g><g><path d="M248,180v-16h6v16z" fill="none" stroke="#ff7800" stroke-width="4"/><path d="M248,180v-16h6v16z" fill="#ffffff" stroke="none" stroke-width="1"/></g><path d="M250,176v-4h4v4z" fill="#000000" stroke="none" stroke-width="1"/><path d="M250,180h7.23c2.63,0 4.77,1.78 4.77,4v4h-12z" fill="#ff8b00" stroke="none" stroke-width="1"/><path d="M237.84,180.54219l-1.32,0.49c-0.96401,0.36281 -2.03272,0.32741 -2.97062,-0.09839c-0.93789,-0.4258 -1.66799,-1.20706 -2.02938,-2.1716l-3.88,-10.46l-1.08,-2.91c-0.36891,-0.96238 -0.33763,-2.03232 0.08688,-2.97149c0.42451,-0.93918 1.20698,-1.66958 2.17312,-2.02851l1.32,-0.49c2.00479,-0.75659 4.24334,0.25524 5,2.26l5,13.38c0.3641,0.96768 0.32584,2.04083 -0.10624,2.98013c-0.43208,0.9393 -1.22205,1.66665 -2.19376,2.01987z" fill="#ff7800" stroke="#000000" stroke-width="2"/></g></g></svg>