<svg version="1.1" xmlns="http://www.w3.org/2000/svg" xmlns:xlink="http://www.w3.org/1999/xlink" width="93.4231" height="175.62143" viewBox="0,0,93.4231,175.62143"><g transform="translate(-193.28845,-31.06917)"><g data-paper-data="{&quot;isPaintingLayer&quot;:true}" fill="#8cc2bb" fill-rule="nonzero" stroke="#000000" stroke-width="2" stroke-linecap="butt" stroke-linejoin="miter" stroke-miterlimit="10" stroke-dasharray="" stroke-dashoffset="0" style="mix-blend-mode: normal"><path d="M240.26577,73.52848c0,6.16467 -6.86158,11.16212 -15.32577,11.16212c-8.46419,0 -15.32577,-4.99745 -15.32577,-11.16212c0,-6.16467 6.86158,-11.16212 15.32577,-11.16212c8.46419,0 15.32577,4.99745 15.32577,11.16212z"/><path d="M270.56295,73.52848c0,6.16467 -6.86158,11.16212 -15.32577,11.16212c-8.46419,0 -15.32577,-4.99745 -15.32577,-11.16212c0,-6.16467 6.86158,-11.16212 15.32577,-11.16212c8.46419,0 15.32577,4.99745 15.32577,11.16212z"/><path d="M224.93999,59.17718c0,6.16467 -6.86158,11.16212 -15.32577,11.16212c-8.46419,0 -15.32577,-4.99745 -15.32577,-11.16212c0,-6.16467 6.86158,-11.16212 15.32577,-11.16212c8.46419,0 15.32577,4.99745 15.32577,11.16212z"/><path d="M255.23718,59.17718c0,6.16467 -6.86158,11.16212 -15.32577,11.16212c-8.46419,0 -15.32577,-4.99745 -15.32577,-11.16212c0,-6.16467 6.86158,-11.16212 15.32577,-11.16212c8.46419,0 15.32577,4.99745 15.32577,11.16212z"/><path d="M285.71155,58.82282c0,6.16467 -6.86158,11.16212 -15.32577,11.16212c-8.46419,0 -15.32577,-4.99745 -15.32577,-11.16212c0,-6.16467 6.86158,-11.16212 15.32577,-11.16212c8.46419,0 15.32577,4.99745 15.32577,11.16212z"/><path d="M240.17718,43.23129c0,6.16467 -6.86158,11.16212 -15.32577,11.16212c-8.46419,0 -15.32577,-4.99745 -15.32577,-11.16212c0,-6.16467 6.86158,-11.16212 15.32577,-11.16212c8.46419,0 15.32577,4.99745 15.32577,11.16212z"/><path d="M270.47436,43.23129c0,6.16467 -6.86158,11.16212 -15.32577,11.16212c-8.46419,0 -15.32577,-4.99745 -15.32577,-11.16212c0,-6.16467 6.86158,-11.16212 15.32577,-11.16212c8.46419,0 15.32577,4.99745 15.32577,11.16212z"/><path d="M240.26577,131.52848c0,6.16467 -6.86158,11.16212 -15.32577,11.16212c-8.46419,0 -15.32577,-4.99745 -15.32577,-11.16212c0,-6.16467 6.86158,-11.16212 15.32577,-11.16212c8.46419,0 15.32577,4.99745 15.32577,11.16212z"/><path d="M270.56295,131.52848c0,6.16467 -6.86158,11.16212 -15.32577,11.16212c-8.46419,0 -15.32577,-4.99745 -15.32577,-11.16212c0,-6.16467 6.86158,-11.16212 15.32577,-11.16212c8.46419,0 15.32577,4.99745 15.32577,11.16212z"/><path d="M224.93999,117.17718c0,6.16467 -6.86158,11.16212 -15.32577,11.16212c-8.46419,0 -15.32577,-4.99745 -15.32577,-11.16212c0,-6.16467 6.86158,-11.16212 15.32577,-11.16212c8.46419,0 15.32577,4.99745 15.32577,11.16212z"/><path d="M255.23718,117.17718c0,6.16467 -6.86158,11.16212 -15.32577,11.16212c-8.46419,0 -15.32577,-4.99745 -15.32577,-11.16212c0,-6.16467 6.86158,-11.16212 15.32577,-11.16212c8.46419,0 15.32577,4.99745 15.32577,11.16212z"/><path d="M285.71155,116.82282c0,6.16467 -6.86158,11.16212 -15.32577,11.16212c-8.46419,0 -15.32577,-4.99745 -15.32577,-11.16212c0,-6.16467 6.86158,-11.16212 15.32577,-11.16212c8.46419,0 15.32577,4.99745 15.32577,11.16212z"/><path d="M240.17718,101.23129c0,6.16467 -6.86158,11.16212 -15.32577,11.16212c-8.46419,0 -15.32577,-4.99745 -15.32577,-11.16212c0,-6.16467 6.86158,-11.16212 15.32577,-11.16212c8.46419,0 15.32577,4.99745 15.32577,11.16212z"/><path d="M270.47436,101.23129c0,6.16467 -6.86158,11.16212 -15.32577,11.16212c-8.46419,0 -15.32577,-4.99745 -15.32577,-11.16212c0,-6.16467 6.86158,-11.16212 15.32577,-11.16212c8.46419,0 15.32577,4.99745 15.32577,11.16212z"/><path d="M224.93999,86.87999c0,6.16467 -6.86158,11.16212 -15.32577,11.16212c-8.46419,0 -15.32577,-4.99745 -15.32577,-11.16212c0,-6.16467 6.86158,-11.16212 15.32577,-11.16212c8.46419,0 15.32577,4.99745 15.32577,11.16212z"/><path d="M255.23718,86.87999c0,6.16467 -6.86158,11.16212 -15.32577,11.16212c-8.46419,0 -15.32577,-4.99745 -15.32577,-11.16212c0,-6.16467 6.86158,-11.16212 15.32577,-11.16212c8.46419,0 15.32577,4.99745 15.32577,11.16212z"/><path d="M285.71155,86.52563c0,6.16467 -6.86158,11.16212 -15.32577,11.16212c-8.46419,0 -15.32577,-4.99745 -15.32577,-11.16212c0,-6.16467 6.86158,-11.16212 15.32577,-11.16212c8.46419,0 15.32577,4.99745 15.32577,11.16212z"/><path d="M240.26577,194.52848c0,6.16467 -6.86158,11.16212 -15.32577,11.16212c-8.46419,0 -15.32577,-4.99745 -15.32577,-11.16212c0,-6.16467 6.86158,-11.16212 15.32577,-11.16212c8.46419,0 15.32577,4.99745 15.32577,11.16212z"/><path d="M270.56295,194.52848c0,6.16467 -6.86158,11.16212 -15.32577,11.16212c-8.46419,0 -15.32577,-4.99745 -15.32577,-11.16212c0,-6.16467 6.86158,-11.16212 15.32577,-11.16212c8.46419,0 15.32577,4.99745 15.32577,11.16212z"/><path d="M224.93999,180.17718c0,6.16467 -6.86158,11.16212 -15.32577,11.16212c-8.46419,0 -15.32577,-4.99745 -15.32577,-11.16212c0,-6.16467 6.86158,-11.16212 15.32577,-11.16212c8.46419,0 15.32577,4.99745 15.32577,11.16212z"/><path d="M255.23718,180.17718c0,6.16467 -6.86158,11.16212 -15.32577,11.16212c-8.46419,0 -15.32577,-4.99745 -15.32577,-11.16212c0,-6.16467 6.86158,-11.16212 15.32577,-11.16212c8.46419,0 15.32577,4.99745 15.32577,11.16212z"/><path d="M285.71155,179.82282c0,6.16467 -6.86158,11.16212 -15.32577,11.16212c-8.46419,0 -15.32577,-4.99745 -15.32577,-11.16212c0,-6.16467 6.86158,-11.16212 15.32577,-11.16212c8.46419,0 15.32577,4.99745 15.32577,11.16212z"/><path d="M240.17718,164.23129c0,6.16467 -6.86158,11.16212 -15.32577,11.16212c-8.46419,0 -15.32577,-4.99745 -15.32577,-11.16212c0,-6.16467 6.86158,-11.16212 15.32577,-11.16212c8.46419,0 15.32577,4.99745 15.32577,11.16212z"/><path d="M270.47436,164.23129c0,6.16467 -6.86158,11.16212 -15.32577,11.16212c-8.46419,0 -15.32577,-4.99745 -15.32577,-11.16212c0,-6.16467 6.86158,-11.16212 15.32577,-11.16212c8.46419,0 15.32577,4.99745 15.32577,11.16212z"/><path d="M224.93999,149.87999c0,6.16467 -6.86158,11.16212 -15.32577,11.16212c-8.46419,0 -15.32577,-4.99745 -15.32577,-11.16212c0,-6.16467 6.86158,-11.16212 15.32577,-11.16212c8.46419,0 15.32577,4.99745 15.32577,11.16212z"/><path d="M255.23718,149.87999c0,6.16467 -6.86158,11.16212 -15.32577,11.16212c-8.46419,0 -15.32577,-4.99745 -15.32577,-11.16212c0,-6.16467 6.86158,-11.16212 15.32577,-11.16212c8.46419,0 15.32577,4.99745 15.32577,11.16212z"/><path d="M285.71155,149.52563c0,6.16467 -6.86158,11.16212 -15.32577,11.16212c-8.46419,0 -15.32577,-4.99745 -15.32577,-11.16212c0,-6.16467 6.86158,-11.16212 15.32577,-11.16212c8.46419,0 15.32577,4.99745 15.32577,11.16212z"/></g></g></svg>