<svg version="1.1" xmlns="http://www.w3.org/2000/svg" xmlns:xlink="http://www.w3.org/1999/xlink" width="62.2" height="62.1" viewBox="0,0,62.2,62.1"><g transform="translate(-208.80001,-148.90002)"><g data-paper-data="{&quot;isPaintingLayer&quot;:true}" fill-rule="nonzero" stroke="none" stroke-linecap="butt" stroke-miterlimit="10" stroke-dasharray="" stroke-dashoffset="0" style="mix-blend-mode: normal"><path d="M209.00002,211.00003v-62h62v62z" fill="#39b54a" stroke-width="0" stroke-linejoin="round"/><path d="M240.81989,210.90003h-31.91988v-62h31.91988l-11.88213,16.71247l9.33262,7.93777l-20.36584,9.22192l15.47668,3.66921l-10.14918,8.72326l12.16317,4.84518l-4.51004,4.38202z" fill="#00ffff" stroke-width="0" stroke-linejoin="round"/><path d="M240.81989,210.90003h-31.91988v-62h31.91988l-11.88213,16.71247l9.33262,7.93777l-20.36584,9.22192l15.47668,3.66921l-10.14918,8.72326l12.16317,4.84518l-4.51004,4.38202z" fill="#00ffff" stroke-width="0" stroke-linejoin="round"/><path d="M218.00002,202.00003v-44h44v44z" fill="#3ac54d" stroke-width="1" stroke-linejoin="miter"/><path d="M209.00002,180.9199v-31.91988h62v31.91988l-16.71247,-11.88213l-7.93777,9.33262l-9.22192,-20.36584l-3.66921,15.47668l-8.72326,-10.14918l-4.84518,12.16317l-4.38202,-4.51004z" fill="#00ffff" stroke-width="0" stroke-linejoin="round"/><path d="M209.00002,174.43473v-25.43471h62v25.43471l-16.71247,-9.46804l-7.93777,7.43652l-9.22192,-16.22811l-3.66921,12.33228l-8.72326,-8.08717l-4.84518,9.69197l-4.38202,-3.59373z" fill="#a3ffff" stroke-width="0" stroke-linejoin="round"/><path d="M228.20001,158.01481l33.8,0.2v16.95549l-7.57605,-5.23073l-7.85727,10.42843l-9.04288,-18.89686l-1.63264,11.31231l-2.64229,2.19424z" fill="#b8ffff" stroke-width="1" stroke-linejoin="miter"/><path d="M234.23473,211.00003h-25.43471v-62l23.22854,13.34213l1.81424,8.85025l-1.63959,2.45785l-16.22811,9.22192l12.33228,3.66921l-8.08717,8.72326l9.69197,4.84518l-3.59373,4.38202z" fill="#a3ffff" stroke-width="0" stroke-linejoin="round"/><path d="M209.00002,169.1914v-20.19139h62v20.19139l-16.71247,-7.51622l-7.93777,5.90349l-8.53201,-8.74325l-4.35912,5.65054l-8.72326,-6.42001l-4.84518,7.69399l-4.38202,-2.85289z" fill="#ffffff" stroke-width="0" stroke-linejoin="round"/><path d="M234.17066,174.42394l-3.47861,1.55861l-6.00364,3.00262l13.58819,7.6729l-10.42843,7.85727l5.23073,7.57605h-16.95549l-0.2,-33.8l19.08382,0.69511z" data-paper-data="{&quot;index&quot;:null}" fill="#b8ffff" stroke-width="1" stroke-linejoin="miter"/><path d="M229.1914,211.00003h-20.19139v-62h20.19139l-7.51622,16.71247l5.90349,7.93777l-8.74325,8.53201l5.65054,4.35912l-6.42001,8.72326l7.69399,4.84518l-2.85289,4.38202z" fill="#ffffff" stroke-width="0" stroke-linejoin="round"/></g></g></svg>