<svg version="1.1" xmlns="http://www.w3.org/2000/svg" xmlns:xlink="http://www.w3.org/1999/xlink" width="62" height="62" viewBox="0,0,62,62"><g transform="translate(-209,-149)"><g stroke-miterlimit="10"><path d="M218,194.74726c0,-8.6504 0,-23.1596 0,-28.68865c0,-3.64598 4.10671,-8.05861 7.57509,-8.05861c4.84008,0 18.27152,0 27.39927,0c5.21532,0 9.02564,4.61864 9.02564,8.38095c0,5.41728 0,18.70906 0,27.39927c0,3.752 -4.00559,8.21978 -7.41392,8.21978c-5.08962,0 -19.86901,0 -29.01099,0c-4.45774,0 -7.57509,-3.85645 -7.57509,-7.25275z" fill="#ffffff" stroke="#ffffff" stroke-width="18"/><path d="M225.93111,196.5774c-1.46336,-4.55951 2.34024,-9.85722 8.49558,-11.83275c6.15534,-1.97554 12.33152,0.11919 13.79488,4.6787c1.46336,4.55951 -2.34024,9.85722 -8.49558,11.83275c-6.15534,1.97554 -12.33152,-0.11919 -13.79488,-4.6787z" fill="#000000" stroke="#000000" stroke-width="2"/><path d="M241.15148,191.89488c0,0 0,-31.54716 0,-33.88c0,-0.07052 7.22542,0.13017 7.22542,0.17341c0,2.19681 0.0578,33.70659 0.0578,33.70659z" fill="#000000" stroke="#000000" stroke-width="2"/></g></g></svg>