<svg version="1.1" xmlns="http://www.w3.org/2000/svg" xmlns:xlink="http://www.w3.org/1999/xlink" width="57.54494" height="54.97609" viewBox="0,0,57.54494,54.97609"><g transform="translate(-205.87174,-124.49106)"><g data-paper-data="{&quot;isPaintingLayer&quot;:true}" fill-rule="nonzero" stroke-linecap="butt" stroke-miterlimit="10" stroke-dasharray="" stroke-dashoffset="0" style="mix-blend-mode: normal"><g><path d="M244.3602,136h-8.26864l4.13432,-9.50894z" fill="none" stroke="#000000" stroke-width="4" stroke-linejoin="round"/><path d="M244.3602,136h-8.26864l4.13432,-9.50894z" fill="#b3b3b3" stroke="none" stroke-width="1" stroke-linejoin="miter"/></g><g><path d="M254.76445,140.70071l-7.48803,-3.50713l7.77721,-6.85766z" fill="none" stroke="#000000" stroke-width="4" stroke-linejoin="round"/><path d="M254.76445,140.70071l-7.48803,-3.50713l7.77721,-6.85766z" fill="#b3b3b3" stroke="none" stroke-width="1" stroke-linejoin="miter"/></g><g><path d="M234.25307,137.3267l-7.66747,3.37575l-0.10974,-10.36826z" fill="none" stroke="#000000" stroke-width="4" stroke-linejoin="round"/><path d="M234.25307,137.3267l-7.66747,3.37575l-0.10974,-10.36826z" fill="#b3b3b3" stroke="none" stroke-width="1" stroke-linejoin="miter"/></g><g><path d="M219.93531,147.6201l-3.23849,7.60806l-7.13003,-7.52831z" fill="none" stroke="#000000" stroke-width="4" stroke-linejoin="round"/><path d="M219.93531,147.6201l-3.23849,7.60806l-7.13003,-7.52831z" fill="#b3b3b3" stroke="none" stroke-width="1" stroke-linejoin="miter"/></g><g><path d="M225.52353,140.42659l-5.44173,6.22561l-4.43858,-9.37079z" fill="none" stroke="#000000" stroke-width="4" stroke-linejoin="round"/><path d="M225.52353,140.42659l-5.44173,6.22561l-4.43858,-9.37079z" fill="#b3b3b3" stroke="none" stroke-width="1" stroke-linejoin="miter"/></g><g><path d="M217.26529,153.41768l0.22383,8.26561l-9.61738,-3.87541z" fill="none" stroke="#000000" stroke-width="4" stroke-linejoin="round"/><path d="M217.26529,153.41768l0.22383,8.26561l-9.61738,-3.87541z" fill="#b3b3b3" stroke="none" stroke-width="1" stroke-linejoin="miter"/></g><path d="M262.41668,157.55048c0,11.55196 -10.14821,20.91667 -22.66667,20.91667c-12.51845,0 -22.66667,-9.36471 -22.66667,-20.91667c0,-11.55196 10.14821,-20.91667 22.66667,-20.91667c12.51845,0 22.66667,9.36471 22.66667,20.91667z" fill="#ff0000" stroke="#000000" stroke-width="2" stroke-linejoin="miter"/><path d="M262.41668,157.55048c0,11.55196 -45.33334,11.55196 -45.33334,0c0,-11.55196 10.14821,-20.91667 22.66667,-20.91667c12.51845,0 22.66667,9.36471 22.66667,20.91667z" fill="#ab0000" stroke="#000000" stroke-width="2" stroke-linejoin="miter"/><path d="M225.46801,150.28338c-0.31623,-0.94868 0.63246,-1.26491 0.63246,-1.26491l0.10912,0.07491c1.59545,-1.56868 2.60104,-3.29069 4.41981,-4.74367c4.76927,-3.81008 10.83451,-4.60536 16.74466,-3.87484c0,0 0.99228,0.12403 0.86824,1.11631c-0.12403,0.99228 -1.11631,0.86824 -1.11631,0.86824c-5.36974,-0.67944 -10.92012,-0.01482 -15.25534,3.4585c-1.77238,1.42001 -2.69847,3.02024 -4.24685,4.58967l-0.89088,0.40824c0,0 -0.94868,0.31623 -1.26491,-0.63246z" fill="#ab3c3c" stroke="none" stroke-width="0.5" stroke-linejoin="miter"/><path d="M220.41899,156.62021c-0.98639,-0.1644 -0.82199,-1.15079 -0.82199,-1.15079l0.16667,-1c1.31459,-7.59085 7.2413,-10.25029 12.69503,-14.61647c0,0 0.78087,-0.6247 1.40556,0.15617c0.6247,0.78087 -0.15617,1.40556 -0.15617,1.40556c-4.95425,3.96065 -10.87135,6.43861 -11.97163,13.38353l-0.16667,1c0,0 -0.1644,0.98639 -1.15079,0.82199z" fill="#ab3c3c" stroke="none" stroke-width="0.5" stroke-linejoin="miter"/><path d="M222.69535,161.7992c-0.83205,-0.5547 -0.27735,-1.38675 -0.27735,-1.38675l0.27096,-0.39251c3.0319,-6.0638 7.84035,-9.84239 13.53109,-13.40078c0,0 0.848,-0.53 1.378,0.318c0.53,0.848 -0.318,1.378 -0.318,1.378c-5.37905,3.36026 -9.93845,6.87164 -12.80224,12.59922l-0.39571,0.60749c0,0 -0.5547,0.83205 -1.38675,0.27735z" fill="#ab3c3c" stroke="none" stroke-width="0.5" stroke-linejoin="miter"/><path d="M236.8654,174.78338c-0.31623,0.94868 -1.26491,0.63246 -1.26491,0.63246l-0.92482,-0.3115c-5.34829,-0.89138 -11.7047,-5.38014 -14.60695,-9.94051c0,0 -0.53,-0.848 0.318,-1.378c0.848,-0.53 1.378,0.318 1.378,0.318c2.54175,4.15981 8.58843,8.25872 13.39305,9.05949l1.07518,0.35516c0,0 0.94868,0.31623 0.63246,1.26491z" fill="#ff5050" stroke="none" stroke-width="0.5" stroke-linejoin="miter"/><path d="M247.14448,169.51994c0.44721,0.89443 -0.44721,1.34164 -0.44721,1.34164l-0.78055,0.27224c-2.1913,0 -4.39362,0.33253 -6.58248,0.16326c-4.01539,-0.31053 -8.02635,-1.67258 -12.04155,-2.17098c0,0 -0.99228,-0.12403 -0.86824,-1.11631c0.12403,-0.99228 1.11631,-0.86824 1.11631,-0.86824c3.98254,0.50105 7.97712,1.858 11.95845,2.16235c2.1311,0.16291 4.28235,-0.17007 6.41752,-0.17007l-0.11388,-0.06109c0,0 0.89443,-0.44721 1.34164,0.44721z" fill="#ff5050" stroke="none" stroke-width="0.5" stroke-linejoin="miter"/><path d="M252.08339,170.80048c1,0 1,1 1,1l-0.05132,0.64956c-1.52515,3.6898 -7.64702,3.51711 -11.11535,3.51711c0,0 -1,0 -1,-1c0,-1 1,-1 1,-1c1.85646,0 8.86395,0.20066 9.21798,-2.14956l-0.05132,-0.01711c0,0 0,-1 1,-1z" fill="#ff5050" stroke="none" stroke-width="0.5" stroke-linejoin="miter"/><path d="M248.37629,142.59338c0.70711,-0.70711 1.41421,0 1.41421,0l0.25092,0.25957c2.63998,2.13082 5.40419,4.19064 8.01549,6.34598c0,0 0.76822,0.64018 0.12804,1.40841c-0.64018,0.76822 -1.40841,0.12804 -1.40841,0.12804c-2.55009,-2.14948 -5.3622,-4.24526 -7.98451,-6.32069l-0.41575,-0.4071c0,0 -0.70711,-0.70711 0,-1.41421z" fill="#ab3c3c" stroke="none" stroke-width="0.5" stroke-linejoin="miter"/><path d="M241.60277,146.60437c0.19612,-0.98058 1.1767,-0.78446 1.1767,-0.78446l0.95344,0.19856c5.5355,1.84657 10.01803,3.91026 13.94303,8.46456c0,0 0.65079,0.75926 -0.10847,1.41005c-0.75926,0.65079 -1.41005,-0.10847 -1.41005,-0.10847c-3.6696,-4.30764 -7.8659,-6.13968 -13.05697,-7.86877l-0.71322,-0.13477c0,0 -0.98058,-0.19612 -0.78446,-1.1767z" fill="#ab3c3c" stroke="none" stroke-width="0.5" stroke-linejoin="miter"/></g></g></svg>