<svg version="1.1" xmlns="http://www.w3.org/2000/svg" xmlns:xlink="http://www.w3.org/1999/xlink" width="163.82073" height="163.50944" viewBox="0,0,163.82073,163.50944"><g transform="translate(-188.08963,-68.24528)"><g data-paper-data="{&quot;isPaintingLayer&quot;:true}" fill-rule="nonzero" stroke-linecap="butt" stroke-miterlimit="10" stroke-dasharray="" stroke-dashoffset="0" style="mix-blend-mode: normal"><path d="M209.00001,211v-122h122v122z" fill="none" stroke="#000000" stroke-width="4" stroke-linejoin="round"/><path d="M209.00001,211v-122h122v122z" fill="#8938b5" stroke="none" stroke-width="1" stroke-linejoin="miter"/><path d="M218.00001,202v-14h44v14z" fill="#a242d6" stroke="none" stroke-width="1" stroke-linejoin="miter"/><path d="M278,202v-14h44v14z" fill="#a242d6" stroke="none" stroke-width="1" stroke-linejoin="miter"/><path d="M218.00001,112v-14h44v14z" fill="#a242d6" stroke="none" stroke-width="1" stroke-linejoin="miter"/><path d="M278,112v-14h44v14z" fill="#a242d6" stroke="none" stroke-width="1" stroke-linejoin="miter"/><path d="M248,172v-44h44v44z" fill="#ffffff" stroke="none" stroke-width="1" stroke-linejoin="miter"/><path d="M218.00001,172v-14h14v14z" fill="#a242d6" stroke="none" stroke-width="1" stroke-linejoin="miter"/><path d="M308,172v-14h14v14z" fill="#a242d6" stroke="none" stroke-width="1" stroke-linejoin="miter"/><path d="M218.00001,142v-14h14v14z" fill="#a242d6" stroke="none" stroke-width="1" stroke-linejoin="miter"/><path d="M263,157v-14h14v14z" fill="#000000" stroke="none" stroke-width="1" stroke-linejoin="miter"/><path d="M308,142v-14h14v14z" fill="#a242d6" stroke="none" stroke-width="1" stroke-linejoin="miter"/><g><path d="M250.81603,213.16981h16l-8,16z" fill="none" stroke="#000000" stroke-width="4" stroke-linejoin="round"/><path d="M250.81603,213.16981h16l-8,16z" fill="#b3b3b3" stroke="none" stroke-width="1" stroke-linejoin="miter"/></g><g><path d="M209.74056,213.16981h16l-8,16z" fill="none" stroke="#000000" stroke-width="4" stroke-linejoin="round"/><path d="M209.74056,213.16981h16l-8,16z" fill="#b3b3b3" stroke="none" stroke-width="1" stroke-linejoin="miter"/></g><g><path d="M231.74056,213.16981h16l-8,16z" fill="none" stroke="#000000" stroke-width="4" stroke-linejoin="round"/><path d="M231.74056,213.16981h16l-8,16z" fill="#b3b3b3" stroke="none" stroke-width="1" stroke-linejoin="miter"/></g><g><path d="M313.74057,213.75472h16l-8,16z" fill="none" stroke="#000000" stroke-width="4" stroke-linejoin="round"/><path d="M313.74057,213.75472h16l-8,16z" fill="#b3b3b3" stroke="none" stroke-width="1" stroke-linejoin="miter"/></g><g><path d="M270.91037,213.75472h16l-8,16z" fill="none" stroke="#000000" stroke-width="4" stroke-linejoin="round"/><path d="M270.91037,213.75472h16l-8,16z" fill="#b3b3b3" stroke="none" stroke-width="1" stroke-linejoin="miter"/></g><g><path d="M291.74055,213.75472h16l-8,16z" fill="none" stroke="#000000" stroke-width="4" stroke-linejoin="round"/><path d="M291.74055,213.75472h16l-8,16z" fill="#b3b3b3" stroke="none" stroke-width="1" stroke-linejoin="miter"/></g><g><path d="M206.67454,131.26415v16l-16,-8z" fill="none" stroke="#000000" stroke-width="4" stroke-linejoin="round"/><path d="M206.67454,131.26415v16l-16,-8z" fill="#b3b3b3" stroke="none" stroke-width="1" stroke-linejoin="miter"/></g><g><path d="M206.67454,90.18868v16l-16,-8z" fill="none" stroke="#000000" stroke-width="4" stroke-linejoin="round"/><path d="M206.67454,90.18868v16l-16,-8z" fill="#b3b3b3" stroke="none" stroke-width="1" stroke-linejoin="miter"/></g><g><path d="M206.67454,112.18868v16l-16,-8z" fill="none" stroke="#000000" stroke-width="4" stroke-linejoin="round"/><path d="M206.67454,112.18868v16l-16,-8z" fill="#b3b3b3" stroke="none" stroke-width="1" stroke-linejoin="miter"/></g><g><path d="M206.08964,194.18868v16l-16,-8z" fill="none" stroke="#000000" stroke-width="4" stroke-linejoin="round"/><path d="M206.08964,194.18868v16l-16,-8z" fill="#b3b3b3" stroke="none" stroke-width="1" stroke-linejoin="miter"/></g><g><path d="M206.08964,151.35849v16l-16,-8z" fill="none" stroke="#000000" stroke-width="4" stroke-linejoin="round"/><path d="M206.08964,151.35849v16l-16,-8z" fill="#b3b3b3" stroke="none" stroke-width="1" stroke-linejoin="miter"/></g><g><path d="M206.08964,172.18868v16l-16,-8z" fill="none" stroke="#000000" stroke-width="4" stroke-linejoin="round"/><path d="M206.08964,172.18868v16l-16,-8z" fill="#b3b3b3" stroke="none" stroke-width="1" stroke-linejoin="miter"/></g><g><path d="M288.66511,86.83019h-16l8,-16z" fill="none" stroke="#000000" stroke-width="4" stroke-linejoin="round"/><path d="M288.66511,86.83019h-16l8,-16z" fill="#b3b3b3" stroke="none" stroke-width="1" stroke-linejoin="miter"/></g><g><path d="M329.74057,86.83019h-16l8,-16z" fill="none" stroke="#000000" stroke-width="4" stroke-linejoin="round"/><path d="M329.74057,86.83019h-16l8,-16z" fill="#b3b3b3" stroke="none" stroke-width="1" stroke-linejoin="miter"/></g><g><path d="M307.74057,86.83019h-16l8,-16z" fill="none" stroke="#000000" stroke-width="4" stroke-linejoin="round"/><path d="M307.74057,86.83019h-16l8,-16z" fill="#b3b3b3" stroke="none" stroke-width="1" stroke-linejoin="miter"/></g><g><path d="M225.74056,86.24528h-16l8,-16z" fill="none" stroke="#000000" stroke-width="4" stroke-linejoin="round"/><path d="M225.74056,86.24528h-16l8,-16z" fill="#b3b3b3" stroke="none" stroke-width="1" stroke-linejoin="miter"/></g><g><path d="M268.57074,86.24528h-16l8,-16z" fill="none" stroke="#000000" stroke-width="4" stroke-linejoin="round"/><path d="M268.57074,86.24528h-16l8,-16z" fill="#b3b3b3" stroke="none" stroke-width="1" stroke-linejoin="miter"/></g><g><path d="M247.74056,86.24528h-16l8,-16z" fill="none" stroke="#000000" stroke-width="4" stroke-linejoin="round"/><path d="M247.74056,86.24528h-16l8,-16z" fill="#b3b3b3" stroke="none" stroke-width="1" stroke-linejoin="miter"/></g><g data-paper-data="{&quot;index&quot;:null}"><path d="M349.32549,139.26415l-16,8v-16z" fill="none" stroke="#000000" stroke-width="4" stroke-linejoin="round"/><path d="M349.32549,139.26415l-16,8v-16z" fill="#b3b3b3" stroke="none" stroke-width="1" stroke-linejoin="miter"/></g><g data-paper-data="{&quot;index&quot;:null}"><path d="M349.32549,98.18868l-16,8v-16z" fill="none" stroke="#000000" stroke-width="4" stroke-linejoin="round"/><path d="M349.32549,98.18868l-16,8v-16z" fill="#b3b3b3" stroke="none" stroke-width="1" stroke-linejoin="miter"/></g><g data-paper-data="{&quot;index&quot;:null}"><path d="M349.32549,120.18868l-16,8v-16z" fill="none" stroke="#000000" stroke-width="4" stroke-linejoin="round"/><path d="M349.32549,120.18868l-16,8v-16z" fill="#b3b3b3" stroke="none" stroke-width="1" stroke-linejoin="miter"/></g><g data-paper-data="{&quot;index&quot;:null}"><path d="M349.91037,202.18868l-16,8v-16z" fill="none" stroke="#000000" stroke-width="4" stroke-linejoin="round"/><path d="M349.91037,202.18868l-16,8v-16z" fill="#b3b3b3" stroke="none" stroke-width="1" stroke-linejoin="miter"/></g><g data-paper-data="{&quot;index&quot;:null}"><path d="M349.91037,159.35849l-16,8v-16z" fill="none" stroke="#000000" stroke-width="4" stroke-linejoin="round"/><path d="M349.91037,159.35849l-16,8v-16z" fill="#b3b3b3" stroke="none" stroke-width="1" stroke-linejoin="miter"/></g><g data-paper-data="{&quot;index&quot;:null}"><path d="M349.91037,180.18868l-16,8v-16z" fill="none" stroke="#000000" stroke-width="4" stroke-linejoin="round"/><path d="M349.91037,180.18868l-16,8v-16z" fill="#b3b3b3" stroke="none" stroke-width="1" stroke-linejoin="miter"/></g></g></g></svg>