<svg version="1.1" xmlns="http://www.w3.org/2000/svg" xmlns:xlink="http://www.w3.org/1999/xlink" width="40.52361" height="44.60833" viewBox="0,0,40.52361,44.60833"><g transform="translate(-219.73997,-140.94863)"><g data-paper-data="{&quot;isPaintingLayer&quot;:true}" fill-rule="nonzero" stroke-linecap="butt" stroke-miterlimit="10" stroke-dasharray="" stroke-dashoffset="0" style="mix-blend-mode: normal"><path d="M220.75343,165.31039c0,-10.62959 8.61699,-19.24657 19.24658,-19.24657c10.62959,0 19.24657,8.61698 19.24657,19.24657c0,10.62959 -8.61698,19.24658 -19.24657,19.24658c-10.62959,0 -19.24658,-8.61698 -19.24658,-19.24658z" fill="#00ffff" stroke="#000000" stroke-width="2" stroke-linejoin="miter"/><path d="M220.75343,165.31039h38.49315c0,0 -0.01482,0.87807 -0.04398,1.31144c-0.6741,10.01796 -9.01376,17.93514 -19.20259,17.93514c-10.28032,0 -18.67812,-8.06001 -19.2189,-18.20552c-0.01837,-0.34469 -0.02768,-1.04105 -0.02768,-1.04105z" fill="#0090ff" stroke="#000000" stroke-width="2" stroke-linejoin="miter"/><g><path d="M230.30512,163.50313v-6.84382l6.84382,1.66666v5.17715z" data-paper-data="{&quot;index&quot;:null}" fill="#ffffff" stroke="#ffffff" stroke-width="2" stroke-linejoin="round"/><path d="M231.67391,162.13438v-4.10629h4.10629v4.10629z" data-paper-data="{&quot;index&quot;:null}" fill="#000000" stroke="none" stroke-width="1" stroke-linejoin="miter"/></g><g><path d="M243.51773,163.50313v-5.17715l6.84382,-1.66666v6.84382z" fill="#ffffff" stroke="#ffffff" stroke-width="2" stroke-linejoin="round"/><path d="M244.8865,162.13438v-4.10629h4.10629v4.10629z" fill="#000000" stroke="none" stroke-width="1" stroke-linejoin="miter"/></g><g data-paper-data="{&quot;index&quot;:null}" stroke-linejoin="miter"><path d="M252.02805,168.33311c-0.69738,-3.80024 0.23171,-7.82178 2.0752,-8.98236c1.84349,-1.16058 3.90326,0.97929 4.60065,4.77953c0.69738,3.80024 -0.23171,7.82178 -2.07519,8.98237c-1.84349,1.16058 -3.90327,-0.9793 -4.60065,-4.77954z" fill="#ffffff" stroke="#000000" stroke-width="2"/><path d="M250.0477,160.11766c-0.05159,-0.24831 1.31436,0.58401 1.31436,0.58401c0.19177,0.23717 0.75226,0.75835 0.84467,1.20346c0.609,2.93279 -0.1495,5.91118 -1.77239,6.08502c-0.52518,0.05624 -0.71541,-0.18905 -1.24115,-0.33872c-1.46095,-0.41592 -2.87729,-1.1579 -4.25922,-2.37249c-0.57511,-0.50547 -1.08515,-1.39414 -1.62502,-2.04324c-0.84034,-1.6447 -1.8394,-2.90802 -2.65411,-4.68678c-0.43348,-0.94642 -0.69263,-1.97291 -1.04578,-3.02055c-0.66272,-1.96604 -1.4188,-3.83127 -1.75157,-6.14327c-0.22486,-1.56236 -0.18135,-3.20926 -0.12414,-4.7394c0.01544,-0.41272 -0.07664,-0.86003 -0.01561,-1.24939c0.00544,-0.03473 0.01118,-0.06916 0.01719,-0.10333l-0.00974,-0.00506l0.10155,-1.0479c0.03437,-0.4055 0.19154,-0.72821 0.40643,-0.78325c0.21489,-0.05503 0.42424,0.17382 0.53185,0.54296l0.29028,0.94754l-0.01348,0.01564l0.03687,0.06866c0.45346,2.26941 0.98596,4.27697 1.82924,6.09781c0.82782,1.47408 1.54477,2.97659 2.47729,4.21491c1.14977,1.52682 2.42145,2.50008 3.6179,3.83452c0.97293,1.08514 1.99487,2.11638 3.04457,2.93885z" fill="#ffffff" stroke="#000000" stroke-width="1"/><path d="M248.56169,163.97544c-0.06087,-0.19436 0.97335,-0.7326 0.97335,-0.7326c0.17578,0.14301 0.38008,0.18234 0.52734,0.429c0.15763,0.26404 0.23289,0.67866 0.34195,1.02709c0.71866,2.29569 0.38308,5.1798 -0.94388,5.81227c-0.42942,0.20468 -0.60451,0.05434 -1.04956,0.08519c-1.23668,0.08572 -2.46055,-0.1174 -3.69081,-0.73011c-0.51199,-0.255 -0.99846,-0.85319 -1.49193,-1.24008c-0.81481,-1.13816 -1.73259,-1.90661 -2.53612,-3.16571c-0.42752,-0.66993 -0.71704,-1.45966 -1.0857,-2.23914c-0.69184,-1.4628 -1.45335,-2.81249 -1.89826,-4.66634c-0.30065,-1.25275 -0.38599,-2.65724 -0.45139,-3.96717c-0.01763,-0.35332 -0.12659,-0.7037 -0.10488,-1.05092c0.00193,-0.03096 0.00414,-0.06178 0.00659,-0.09244l-0.00841,-0.00135l0.00668,-0.91576c-0.00149,-0.35287 0.10451,-0.67257 0.27787,-0.78337c0.17335,-0.11079 0.36302,0.01992 0.47904,0.29958l0.3094,0.71373l-0.00997,0.01724l0.03548,0.04698c0.54142,1.78174 1.12883,3.31858 1.95903,4.60469c0.79192,0.99775 1.4944,2.0527 2.3554,2.81993c1.06158,0.94598 2.18307,1.38778 3.26903,2.15725c0.88308,0.62572 1.80266,1.19121 2.72977,1.57203z" fill="#ffffff" stroke="#000000" stroke-width="1"/><path d="M247.11018,166.927c-0.06283,-0.12761 0.66148,-0.9178 0.66148,-0.9178c0.14406,0.04633 0.30015,0.00243 0.43216,0.13897c0.14132,0.14614 0.23456,0.43821 0.34716,0.667c0.74184,1.50744 0.74891,3.85101 -0.18559,4.82011c-0.30241,0.31361 -0.44661,0.26139 -0.77623,0.44678c-0.91592,0.51511 -1.8481,0.80311 -2.82165,0.77788c-0.40516,-0.01049 -0.82192,-0.29466 -1.22502,-0.4135c-0.71023,-0.58085 -1.46431,-0.83952 -2.1769,-1.51764c-0.37915,-0.36079 -0.66593,-0.86402 -1.0109,-1.3306c-0.6474,-0.87559 -1.33669,-1.63877 -1.83462,-2.90525c-0.33646,-0.85584 -0.52568,-1.90676 -0.69158,-2.89207c-0.04475,-0.26576 -0.15741,-0.49611 -0.17221,-0.77147c-0.00132,-0.02455 -0.00243,-0.0491 -0.00333,-0.07361l-0.0064,0.00201l-0.07683,-0.70785c-0.03264,-0.27129 0.01795,-0.55606 0.13752,-0.70436c0.11957,-0.1483 0.2729,-0.11648 0.38453,0.05682l0.29484,0.43745l-0.00592,0.0169l0.03071,0.0233c0.56355,1.17591 1.13955,2.14645 1.87449,2.8357c0.68057,0.48102 1.29948,1.03856 2.01106,1.31691c0.87735,0.34321 1.75438,0.27626 2.63415,0.47465c0.71541,0.16132 1.45271,0.26298 2.17915,0.21967z" fill="#ffffff" stroke="#000000" stroke-width="1"/><path d="M249.0355,169.07832c-0.07915,-0.08011 0.45412,-1.33518 0.45412,-1.33518c0.1402,-0.05358 0.27633,-0.20229 0.42059,-0.16075c0.15443,0.04445 0.28915,0.26225 0.43103,0.4059c0.93484,0.94649 1.33448,3.19944 0.63796,4.77019c-0.2254,0.50831 -0.36671,0.55631 -0.63862,0.95964c-0.75558,1.12073 -1.56421,2.0337 -2.4634,2.67315c-0.37421,0.26612 -0.80501,0.2765 -1.19552,0.43685c-0.75035,-0.07537 -1.48694,0.18955 -2.25579,0.0221c-0.40907,-0.08909 -0.75712,-0.37838 -1.15251,-0.59266c-0.74203,-0.40216 -1.50371,-0.66744 -2.17389,-1.54809c-0.45289,-0.59511 -0.80311,-1.47855 -1.1209,-2.31469c-0.08572,-0.22554 -0.22794,-0.37063 -0.28773,-0.62581c-0.00534,-0.02275 -0.01047,-0.04565 -0.01541,-0.06864l-0.00555,0.0063l-0.18937,-0.62955c-0.07552,-0.2391 -0.07678,-0.54795 0.00826,-0.77233c0.08503,-0.22439 0.23133,-0.29828 0.36303,-0.20743l0.34442,0.22042l-0.00259,0.02031l0.03213,0.00152c0.71532,0.74864 1.40765,1.29095 2.19888,1.4539c0.70634,-0.0006 1.36881,0.11458 2.06964,-0.1024c0.86411,-0.26752 1.6591,-0.92995 2.50117,-1.33864c0.68473,-0.33233 1.37957,-0.73705 2.04011,-1.27406z" fill="#ffffff" stroke="#000000" stroke-width="1"/><path d="M243.16256,160.79437c-0.02131,-0.22529 0.05107,-0.43087 0.16167,-0.4592c0.1106,-0.02832 0.21752,0.13134 0.23883,0.35663c0.02131,0.22528 -0.05107,0.43087 -0.16167,0.45919c-0.1106,0.02832 -0.21752,-0.13133 -0.23883,-0.35663z" fill="#000000" stroke="none" stroke-width="0.5"/><path d="M243.02295,166.3659c-0.02131,-0.22528 0.05107,-0.43086 0.16167,-0.45919c0.1106,-0.02833 0.21752,0.13134 0.23883,0.35663c0.02131,0.22528 -0.05107,0.43087 -0.16167,0.4592c-0.1106,0.02833 -0.21752,-0.13134 -0.23883,-0.35663z" fill="#000000" stroke="none" stroke-width="0.5"/><path d="M244.64513,171.59065c-0.02131,-0.22528 0.05107,-0.43088 0.16167,-0.4592c0.1106,-0.02833 0.21752,0.13134 0.23883,0.35663c0.02131,0.22528 -0.05107,0.43087 -0.16167,0.4592c-0.1106,0.02832 -0.21752,-0.13135 -0.23883,-0.35663z" fill="#000000" stroke="none" stroke-width="0.5"/><path d="M254.0676,158.69811c-0.0713,-0.22968 1.32997,0.12924 1.32997,0.12924c0.20694,0.17028 0.79713,0.49659 0.92489,0.90831c0.84184,2.71276 0.35532,5.94199 -1.211,6.67422c-0.50689,0.23695 -0.71299,0.05804 -1.23787,0.08998c-1.45852,0.08874 -2.90122,-0.1628 -4.35048,-0.89714c-0.60313,-0.30561 -1.1753,-1.01547 -1.75627,-1.47636c-0.95807,-1.3495 -2.03843,-2.26428 -2.9829,-3.75619c-0.50252,-0.7938 -0.84198,-1.72744 -1.27479,-2.64978c-0.81226,-1.73088 -1.70693,-3.32916 -2.22705,-5.51845c-0.35148,-1.47943 -0.44865,-3.13558 -0.5226,-4.68007c-0.01995,-0.41658 -0.14755,-0.83061 -0.1211,-1.23962c0.00235,-0.03647 0.00502,-0.07277 0.008,-0.1089l-0.00991,-0.00167l0.01013,-1.07922c-0.00089,-0.41591 0.12488,-0.79165 0.32956,-0.9205c0.20469,-0.12886 0.42801,0.02709 0.56416,0.35785l0.36311,0.84424l-0.0118,0.02023l0.04174,0.05572c0.63409,2.1053 1.32302,3.9224 2.29886,5.44642c0.93139,1.18379 1.75721,2.43408 2.77062,3.34688c1.24952,1.12545 2.57091,1.65727 3.8496,2.57494c1.03981,0.74622 2.12279,1.42183 3.21513,1.87987z" fill="#ffffff" stroke="#000000" stroke-width="1"/><path d="M252.94683,163.05425c-0.07577,-0.17271 0.88617,-1.0653 0.88617,-1.0653c0.18337,0.08196 0.38575,0.05079 0.5501,0.24587c0.17594,0.20882 0.2844,0.59607 0.42019,0.9057c0.89469,2.04012 0.81218,5.02973 -0.42697,6.11706c-0.401,0.35188 -0.58432,0.26238 -1.01528,0.44642c-1.19754,0.51138 -2.40707,0.73053 -3.65753,0.54373c-0.52039,-0.07774 -1.04503,-0.50629 -1.55856,-0.72186c-0.89027,-0.85352 -1.84951,-1.30316 -2.73902,-2.28107c-0.47328,-0.52033 -0.82226,-1.20758 -1.24748,-1.85735c-0.79799,-1.21938 -1.65423,-2.30206 -2.24479,-3.99616c-0.39907,-1.14481 -0.60122,-2.515 -0.77598,-3.7978c-0.04714,-0.34601 -0.18296,-0.65763 -0.19123,-1.01112c-0.00074,-0.03152 -0.00119,-0.06298 -0.00141,-0.09439l-0.00831,0.00154l-0.0711,-0.91485c-0.03136,-0.35113 0.04482,-0.70623 0.20431,-0.87634c0.1595,-0.17011 0.35536,-0.10518 0.49209,0.13354l0.36191,0.60466l-0.00826,0.02062l0.03855,0.03459c0.67845,1.58902 1.38097,2.91815 2.29877,3.91381c0.85605,0.72149 1.62983,1.53077 2.53366,1.99876c1.11438,0.57702 2.24438,0.63098 3.36757,1.02371c0.91334,0.31936 1.85715,0.56614 2.79262,0.62629z" fill="#ffffff" stroke="#000000" stroke-width="1"/><path d="M251.70345,166.52216c-0.07201,-0.10552 0.56664,-1.14244 0.56664,-1.14244c0.14428,-0.00345 0.29263,-0.10094 0.4328,-0.01036c0.15006,0.09696 0.26566,0.35588 0.39474,0.54509c0.85046,1.24665 1.05598,3.57958 0.2277,4.86717c-0.26805,0.41668 -0.41295,0.4143 -0.71836,0.71258c-0.84866,0.8288 -1.7324,1.43687 -2.68297,1.74706c-0.39559,0.12909 -0.8257,-0.01052 -1.22849,0.00991c-0.74114,-0.33419 -1.4977,-0.33221 -2.24941,-0.7625c-0.39995,-0.22894 -0.72198,-0.63163 -1.0976,-0.97774c-0.70492,-0.64953 -1.44111,-1.17261 -2.03353,-2.26316c-0.40033,-0.73695 -0.67373,-1.71904 -0.91885,-2.64375c-0.06612,-0.24942 -0.1954,-0.44014 -0.23317,-0.70944c-0.00337,-0.02401 -0.00653,-0.04808 -0.0095,-0.0722l-0.00606,0.00421l-0.13485,-0.67891c-0.05478,-0.2591 -0.02964,-0.5603 0.07427,-0.74926c0.10391,-0.18896 0.25599,-0.21007 0.37944,-0.07583l0.3243,0.33436l-0.00432,0.01889l0.03189,0.01265c0.64869,0.97769 1.29209,1.74643 2.06649,2.18012c0.70379,0.24491 1.354,0.58731 2.07079,0.6196c0.88381,0.03981 1.73256,-0.32897 2.60647,-0.43432c0.71065,-0.08567 1.43754,-0.2383 2.14157,-0.53169z" fill="#ffffff" stroke="#000000" stroke-width="1"/><path d="M253.76145,168.00279c-0.08392,-0.05255 0.32926,-1.48694 0.32926,-1.48694c0.13204,-0.10168 0.25206,-0.29675 0.39613,-0.30506c0.15421,-0.00889 0.30391,0.16173 0.45431,0.25602c0.99094,0.62118 1.57122,2.72859 1.02578,4.53375c-0.17651,0.58418 -0.31013,0.68068 -0.54085,1.17625c-0.64113,1.37707 -1.35152,2.56538 -2.17335,3.51231c-0.34202,0.39408 -0.76081,0.5528 -1.12767,0.8471c-0.73738,0.18334 -1.43254,0.70106 -2.19576,0.79902c-0.40609,0.05212 -0.76966,-0.11627 -1.17303,-0.19363c-0.75697,-0.14517 -1.52151,-0.14715 -2.24904,-0.79388c-0.49164,-0.43703 -0.90771,-1.19676 -1.28819,-1.9205c-0.10262,-0.19522 -0.25346,-0.29083 -0.33336,-0.52452c-0.00713,-0.02084 -0.01406,-0.04188 -0.02082,-0.06309l-0.00488,0.00819l-0.23784,-0.56213c-0.09383,-0.21225 -0.12123,-0.51959 -0.0574,-0.77248c0.06382,-0.25289 0.20009,-0.37691 0.33608,-0.33174l0.35422,0.10101l-0.00081,0.02114l0.03143,-0.00956c0.76032,0.49964 1.48077,0.80157 2.26541,0.69142c0.68808,-0.24389 1.34324,-0.3573 2.0076,-0.81491c0.81915,-0.56421 1.53753,-1.49817 2.32323,-2.19546c0.63892,-0.56703 1.28153,-1.20968 1.87952,-1.97231z" fill="#ffffff" stroke="#000000" stroke-width="1"/><path d="M247.45079,161.16051c0.37684,-1.61394 5.73539,-1.23241 6.65246,-1.80976c1.84349,-1.16058 3.90327,0.97929 4.60065,4.77953c0.69738,3.80024 -0.23171,7.82178 -2.07519,8.98237c-1.05167,0.66209 -6.07603,-0.14427 -6.97538,-1.32593c-0.18037,-0.23696 -1.41597,-2.33979 -1.91235,-4.75713c-0.54498,-2.65402 -0.3434,-5.64124 -0.29019,-5.86908z" fill="#ffffff" stroke="#000000" stroke-width="0"/><path d="M247.26761,161.84487c-0.03986,-0.21716 0.01324,-0.44695 0.11859,-0.51328c0.10535,-0.06632 0.22305,0.05596 0.2629,0.27312c0.03986,0.21716 -0.01325,0.44696 -0.11859,0.51328c-0.10535,0.06631 -0.22305,-0.05596 -0.2629,-0.27312z" fill="#000000" stroke="none" stroke-width="0.5"/><path d="M247.60378,167.44499c-0.03986,-0.21716 0.01324,-0.44696 0.11859,-0.51328c0.10535,-0.06632 0.22305,0.05596 0.2629,0.27312c0.03986,0.21716 -0.01324,0.44696 -0.11859,0.51328c-0.10535,0.06632 -0.22305,-0.05596 -0.2629,-0.27312z" fill="#000000" stroke="none" stroke-width="0.5"/><path d="M249.62694,172.0927c-0.03986,-0.21716 0.01324,-0.44695 0.11859,-0.51328c0.10535,-0.06632 0.22305,0.05595 0.2629,0.27312c0.03986,0.21716 -0.01325,0.44696 -0.11859,0.51327c-0.10535,0.06632 -0.22305,-0.05596 -0.2629,-0.27312z" fill="#000000" stroke="none" stroke-width="0.5"/></g><g data-paper-data="{&quot;index&quot;:null}" stroke-linejoin="miter"><path d="M224.03795,173.11264c-1.84348,-1.16059 -2.77257,-5.18213 -2.07519,-8.98237c0.69738,-3.80024 2.75716,-5.94011 4.60064,-4.77953c1.84348,1.16058 2.77257,5.18212 2.0752,8.98237c-0.69738,3.80023 -2.75716,5.94011 -4.60064,4.77953z" fill="#ffffff" stroke="#000000" stroke-width="2"/><path d="M230.61897,160.11766c1.04969,-0.82247 2.07166,-1.85371 3.04457,-2.93884c1.19643,-1.33445 2.46813,-2.3077 3.61789,-3.83453c0.9325,-1.23832 1.64946,-2.74084 2.47729,-4.21492c0.84326,-1.82084 1.37579,-3.8284 1.82924,-6.09781l0.03687,-0.06866l-0.01348,-0.01564l0.29028,-0.94754c0.10761,-0.36913 0.31696,-0.59798 0.53185,-0.54296c0.2149,0.05504 0.37206,0.37776 0.40643,0.78325l0.10155,1.04789l-0.00974,0.00506c0.00601,0.03417 0.01175,0.06861 0.01719,0.10333c0.06103,0.38936 -0.03105,0.83667 -0.01561,1.24939c0.05721,1.53014 0.10074,3.17704 -0.12414,4.7394c-0.33277,2.312 -1.08883,4.17723 -1.75157,6.14327c-0.35314,1.04764 -0.6123,2.07413 -1.04578,3.02055c-0.81471,1.77876 -1.81377,3.04208 -2.65411,4.68678c-0.53987,0.6491 -1.04991,1.53776 -1.625,2.04323c-1.38193,1.21459 -2.79827,1.95657 -4.25922,2.37249c-0.52575,0.14968 -0.71597,0.39497 -1.24115,0.33873c-1.6229,-0.17384 -2.38139,-3.15223 -1.77239,-6.08502c0.09243,-0.44511 0.6529,-0.9663 0.84467,-1.20347c0,0 1.36595,-0.83231 1.31436,-0.58401z" fill="#ffffff" stroke="#000000" stroke-width="1"/><path d="M232.10498,163.97545c0.92711,-0.38082 1.84669,-0.94632 2.72976,-1.57204c1.08596,-0.76948 2.20745,-1.21127 3.26903,-2.15725c0.861,-0.76723 1.56347,-1.82217 2.3554,-2.81992c0.83019,-1.28611 1.4176,-2.82295 1.95903,-4.60469l0.03548,-0.04698l-0.00997,-0.01725l0.3094,-0.71373c0.11602,-0.27966 0.30569,-0.41037 0.47904,-0.29958c0.17335,0.1108 0.27934,0.4305 0.27787,0.78337l0.0067,0.91575l-0.00842,0.00135c0.00245,0.03066 0.00465,0.06149 0.00659,0.09244c0.02173,0.34722 -0.08723,0.6976 -0.10488,1.05092c-0.06543,1.30993 -0.15074,2.71442 -0.45139,3.96717c-0.44492,1.85385 -1.20642,3.20354 -1.89826,4.66634c-0.36866,0.77948 -0.65816,1.56921 -1.0857,2.23914c-0.80353,1.2591 -1.72131,2.02755 -2.53612,3.16571c-0.49348,0.38689 -0.97994,0.9851 -1.49193,1.24009c-1.23026,0.61271 -2.45414,0.81583 -3.6908,0.7301c-0.44505,-0.03085 -0.62014,0.11948 -1.04956,-0.08519c-1.32696,-0.63247 -1.66253,-3.51658 -0.94388,-5.81227c0.10907,-0.34843 0.18434,-0.76304 0.34196,-1.02708c0.14725,-0.24667 0.35156,-0.286 0.52734,-0.42901c0,0 1.03422,0.53824 0.97336,0.7326z" fill="#ffffff" stroke="#000000" stroke-width="1"/><path d="M233.55647,166.92699c0.72643,0.04331 1.46373,-0.05836 2.17914,-0.21967c0.87977,-0.19839 1.75682,-0.13144 2.63415,-0.47465c0.71156,-0.27835 1.33047,-0.83589 2.01104,-1.31691c0.73493,-0.68925 1.31094,-1.65979 1.87449,-2.8357l0.03071,-0.0233l-0.00592,-0.01691l0.29484,-0.43744c0.11164,-0.1733 0.26497,-0.20513 0.38453,-0.05682c0.11957,0.1483 0.17017,0.43308 0.13752,0.70436l-0.07683,0.70785l-0.0064,-0.00201c-0.00091,0.02451 -0.00202,0.04905 -0.00333,0.07361c-0.01481,0.27536 -0.12748,0.50571 -0.17221,0.77147c-0.1659,0.98532 -0.35511,2.03624 -0.69158,2.89208c-0.49792,1.26648 -1.18722,2.02965 -1.83462,2.90524c-0.34498,0.46658 -0.63176,0.9698 -1.01091,1.3306c-0.7126,0.67812 -1.46668,0.93679 -2.17689,1.51764c-0.40311,0.11883 -0.81988,0.403 -1.22503,0.4135c-0.97354,0.02523 -1.90572,-0.26277 -2.82164,-0.77788c-0.32962,-0.18538 -0.4738,-0.13317 -0.77622,-0.44678c-0.93451,-0.9691 -0.92743,-3.31266 -0.18559,-4.82011c0.11258,-0.22879 0.20583,-0.52085 0.34716,-0.66699c0.13202,-0.13654 0.28811,-0.09265 0.43216,-0.13898c0,0 0.7243,0.79019 0.66147,0.9178z" fill="#ffffff" stroke="#000000" stroke-width="1"/><path d="M231.63114,169.07836c0.66053,0.53701 1.35537,0.94173 2.0401,1.27406c0.84207,0.40869 1.63706,1.07113 2.50117,1.33865c0.70083,0.21697 1.3633,0.1018 2.06962,0.1024c0.79122,-0.16296 1.48357,-0.70526 2.19888,-1.4539l0.03213,-0.00153l-0.00259,-0.02031l0.34443,-0.22042c0.1317,-0.09085 0.278,-0.01696 0.36303,0.20743c0.08503,0.22438 0.08378,0.53323 0.00826,0.77233l-0.18937,0.62955l-0.00555,-0.0063c-0.00495,0.02299 -0.01007,0.04588 -0.01541,0.06864c-0.0598,0.25518 -0.20201,0.40027 -0.28774,0.62581c-0.31779,0.83614 -0.66802,1.71958 -1.1209,2.31469c-0.67017,0.88065 -1.43188,1.14592 -2.17389,1.54809c-0.3954,0.21428 -0.74344,0.50358 -1.15251,0.59267c-0.76884,0.16745 -1.50545,-0.09748 -2.25579,-0.02211c-0.3905,-0.16035 -0.82129,-0.17073 -1.1955,-0.43685c-0.8992,-0.63945 -1.70783,-1.55242 -2.4634,-2.67315c-0.27192,-0.40333 -0.41324,-0.45133 -0.63862,-0.95964c-0.69652,-1.57074 -0.29687,-3.8237 0.63796,-4.77019c0.14189,-0.14365 0.2766,-0.36145 0.43101,-0.4059c0.14425,-0.04153 0.28038,0.10718 0.42058,0.16076c0,0 0.53327,1.25508 0.45412,1.33518z" fill="#ffffff" stroke="#000000" stroke-width="1"/><path d="M237.50409,160.79437c-0.02132,0.2253 -0.12824,0.38495 -0.23883,0.35663c-0.1106,-0.02833 -0.18298,-0.23391 -0.16166,-0.45919c0.02131,-0.22529 0.12823,-0.38495 0.23883,-0.35662c0.1106,0.02833 0.18298,0.23391 0.16167,0.4592z" fill="#000000" stroke="none" stroke-width="0.5"/><path d="M237.40487,166.72254c-0.1106,-0.02833 -0.18298,-0.23392 -0.16166,-0.4592c0.02131,-0.22529 0.12822,-0.38496 0.23883,-0.35663c0.1106,0.02833 0.18298,0.23391 0.16167,0.45919c-0.02131,0.22529 -0.12823,0.38497 -0.23883,0.35664z" fill="#000000" stroke="none" stroke-width="0.5"/><path d="M236.02152,171.59065c-0.02131,0.22528 -0.12824,0.38496 -0.23883,0.35663c-0.1106,-0.02833 -0.18298,-0.23392 -0.16167,-0.4592c0.02131,-0.22529 0.12822,-0.38496 0.23883,-0.35663c0.1106,0.02833 0.18298,0.23392 0.16166,0.4592z" fill="#000000" stroke="none" stroke-width="0.5"/><path d="M226.59907,158.69812c1.09234,-0.45804 2.17533,-1.13366 3.21513,-1.87988c1.27869,-0.91767 2.60007,-1.44949 3.84959,-2.57494c1.0134,-0.91279 1.83921,-2.16308 2.77062,-3.34688c0.97582,-1.52402 1.66476,-3.34112 2.29886,-5.44642l0.04174,-0.05572l-0.01182,-0.02023l0.36311,-0.84424c0.13613,-0.33076 0.35948,-0.48671 0.56416,-0.35784c0.20469,0.12885 0.33045,0.5046 0.32956,0.9205l0.01013,1.07922l-0.00991,0.00167c0.00296,0.03613 0.00564,0.07242 0.008,0.1089c0.02645,0.40902 -0.10116,0.82304 -0.12109,1.23962c-0.07394,1.54449 -0.17111,3.20064 -0.5226,4.68007c-0.52011,2.18929 -1.41478,3.78756 -2.22704,5.51844c-0.43283,0.92234 -0.77229,1.85598 -1.27481,2.64978c-0.94446,1.49192 -2.02481,2.40669 -2.98289,3.75619c-0.58097,0.46089 -1.15316,1.17075 -1.75627,1.47636c-1.44925,0.73433 -2.89195,0.98588 -4.35048,0.89714c-0.52488,-0.03193 -0.73098,0.14697 -1.23787,-0.08998c-1.56632,-0.73223 -2.05284,-3.96145 -1.21099,-6.67421c0.12777,-0.41172 0.71797,-0.73804 0.92489,-0.90832c0,0 1.40127,-0.35891 1.32997,-0.12923z" fill="#ffffff" stroke="#000000" stroke-width="1"/><path d="M227.7198,163.05429c0.93549,-0.06015 1.87929,-0.30693 2.79262,-0.62629c1.12319,-0.39273 2.25318,-0.44668 3.36757,-1.02371c0.90381,-0.46799 1.67759,-1.27728 2.53364,-1.99876c0.91779,-0.99566 1.62029,-2.32479 2.29877,-3.91381l0.03856,-0.03459l-0.00825,-0.02062l0.36191,-0.60466c0.13674,-0.23871 0.3326,-0.30365 0.49209,-0.13354c0.15948,0.17011 0.23565,0.52522 0.20431,0.87635l-0.0711,0.91484l-0.00832,-0.00154c-0.00022,0.03141 -0.00067,0.06286 -0.00141,0.09439c-0.00827,0.35349 -0.14411,0.66512 -0.19123,1.01112c-0.17474,1.2828 -0.37689,2.653 -0.77596,3.7978c-0.59055,1.6941 -1.44681,2.77679 -2.24479,3.99616c-0.42522,0.64976 -0.77418,1.33702 -1.24748,1.85734c-0.88952,0.97791 -1.84875,1.42755 -2.73902,2.28107c-0.51353,0.21557 -1.03815,0.64412 -1.55856,0.72186c-1.25046,0.1868 -2.45999,-0.03235 -3.65753,-0.54373c-0.43096,-0.18403 -0.61428,-0.09454 -1.01527,-0.44642c-1.23914,-1.08733 -1.32165,-4.07693 -0.42697,-6.11705c0.13579,-0.30963 0.24424,-0.69689 0.42019,-0.90571c0.16436,-0.19507 0.36674,-0.1639 0.5501,-0.24586c0,0 0.96194,0.89258 0.88617,1.06529z" fill="#ffffff" stroke="#000000" stroke-width="1"/><path d="M228.9632,166.52217c0.70403,0.29339 1.43094,0.44603 2.14157,0.53169c0.87392,0.10534 1.72265,0.47413 2.60646,0.43433c0.7168,-0.03229 1.36701,-0.3747 2.07079,-0.61961c0.77439,-0.43369 1.41781,-1.20243 2.06649,-2.18012l0.03188,-0.01265l-0.00432,-0.01889l0.32432,-0.33436c0.12345,-0.13424 0.27552,-0.11313 0.37943,0.07583c0.1039,0.18896 0.12907,0.49016 0.07427,0.74926l-0.13485,0.67891l-0.00606,-0.00421c-0.00297,0.02412 -0.00612,0.0482 -0.0095,0.0722c-0.03776,0.2693 -0.16704,0.46003 -0.23317,0.70945c-0.24513,0.92472 -0.51852,1.9068 -0.91884,2.64375c-0.59242,1.09055 -1.32863,1.61363 -2.03353,2.26316c-0.37562,0.34611 -0.69766,0.74881 -1.09761,0.97775c-0.7517,0.43029 -1.50826,0.42831 -2.2494,0.7625c-0.40278,-0.02042 -0.83289,0.11918 -1.22849,-0.00991c-0.95058,-0.31019 -1.8343,-0.91827 -2.68296,-1.74706c-0.30541,-0.29827 -0.45031,-0.29589 -0.71836,-0.71258c-0.82828,-1.28759 -0.62277,-3.62052 0.2277,-4.86716c0.12908,-0.18921 0.24467,-0.44813 0.39474,-0.54509c0.14017,-0.09058 0.28853,0.0069 0.4328,0.01036c0,0 0.63865,1.03692 0.56664,1.14245z" fill="#ffffff" stroke="#000000" stroke-width="1"/><path d="M226.9052,168.00278c0.59798,0.76263 1.24062,1.40528 1.87952,1.97231c0.78571,0.69729 1.50408,1.63126 2.32321,2.19547c0.66438,0.45761 1.31953,0.57102 2.0076,0.81491c0.78464,0.11015 1.50508,-0.19177 2.26541,-0.69142l0.03143,0.00956l-0.00081,-0.02114l0.35422,-0.10101c0.13599,-0.04516 0.27227,0.07885 0.33608,0.33174c0.06382,0.25289 0.03642,0.56023 -0.0574,0.77248l-0.23785,0.56213l-0.00487,-0.00819c-0.00677,0.02121 -0.01371,0.04225 -0.02084,0.06309c-0.0799,0.23369 -0.23073,0.3293 -0.33336,0.52452c-0.38046,0.72375 -0.79654,1.48348 -1.28819,1.92051c-0.72753,0.64673 -1.49206,0.64871 -2.24903,0.79388c-0.40337,0.07736 -0.76694,0.24574 -1.17303,0.19363c-0.76321,-0.09796 -1.45838,-0.61568 -2.19576,-0.79902c-0.36685,-0.2943 -0.78566,-0.45303 -1.12767,-0.8471c-0.82183,-0.94693 -1.53222,-2.13524 -2.17333,-3.51231c-0.23073,-0.49557 -0.36435,-0.59207 -0.54085,-1.17625c-0.54543,-1.80516 0.03484,-3.91257 1.02578,-4.53375c0.1504,-0.09429 0.3001,-0.26491 0.45431,-0.25601c0.14407,0.00831 0.2641,0.20337 0.39613,0.30506c0,0 0.41316,1.43439 0.32926,1.48694z" fill="#ffffff" stroke="#000000" stroke-width="1"/><path d="M233.21587,161.16052c0.0532,0.22784 0.25477,3.21505 -0.29019,5.86907c-0.49637,2.41733 -1.73198,4.52017 -1.91234,4.75714c-0.89934,1.18165 -5.92371,1.98801 -6.97538,1.32592c-1.84348,-1.16059 -2.77257,-5.18213 -2.07519,-8.98237c0.69738,-3.80024 2.75716,-5.94011 4.60064,-4.77953c0.91708,0.57735 6.27562,0.19582 6.65245,1.80976z" fill="#ffffff" stroke="#000000" stroke-width="0"/><path d="M233.13615,162.11799c-0.10532,-0.06633 -0.15843,-0.29613 -0.11857,-0.51328c0.03986,-0.21716 0.15755,-0.33943 0.26289,-0.27312c0.10535,0.06633 0.15843,0.29612 0.11859,0.51328c-0.03986,0.21716 -0.15757,0.33943 -0.2629,0.27312z" fill="#000000" stroke="none" stroke-width="0.5"/><path d="M232.79999,167.71811c-0.10535,-0.06633 -0.15843,-0.29612 -0.11859,-0.51328c0.03986,-0.21716 0.15755,-0.33944 0.2629,-0.27312c0.10535,0.06632 0.15843,0.29613 0.11859,0.51328c-0.03986,0.21716 -0.15755,0.33944 -0.2629,0.27312z" fill="#000000" stroke="none" stroke-width="0.5"/><path d="M231.03971,172.09269c-0.03986,0.21715 -0.15755,0.33943 -0.26289,0.27312c-0.10535,-0.06631 -0.15843,-0.29611 -0.11859,-0.51327c0.03986,-0.21716 0.15755,-0.33944 0.2629,-0.27312c0.10535,0.06633 0.15843,0.29612 0.11859,0.51328z" fill="#000000" stroke="none" stroke-width="0.5"/></g></g></g></svg>