<svg version="1.1" xmlns="http://www.w3.org/2000/svg" xmlns:xlink="http://www.w3.org/1999/xlink" width="77.25838" height="95.46316" viewBox="0,0,77.25838,95.46316"><g transform="translate(-201.3708,-141.37082)"><g data-paper-data="{&quot;isPaintingLayer&quot;:true}" fill-rule="nonzero" stroke-linecap="butt" stroke-miterlimit="10" stroke-dasharray="" stroke-dashoffset="0" style="mix-blend-mode: normal"><g><path d="M253.99999,213.98824h16l-8,16z" fill="none" stroke="#000000" stroke-width="4" stroke-linejoin="round"/><path d="M253.99999,213.98824h16l-8,16z" fill="#dcb1ff" stroke="none" stroke-width="1" stroke-linejoin="miter"/></g><g><path d="M209.99999,213.98824h16l-8,16z" fill="none" stroke="#000000" stroke-width="4" stroke-linejoin="round"/><path d="M209.99999,213.98824h16l-8,16z" fill="#dcb1ff" stroke="none" stroke-width="1" stroke-linejoin="miter"/></g><path d="M258.81458,217.62921h-37.62918c-10.39102,0 -18.8146,-8.42358 -18.8146,-18.8146v-37.62918c0,-10.39102 8.42358,-18.8146 18.8146,-18.8146h37.62918c10.39102,0 18.8146,8.42358 18.8146,18.8146v37.62918c0,10.39102 -8.42358,18.8146 -18.8146,18.8146z" fill="#a400b5" stroke="#000000" stroke-width="2" stroke-linejoin="miter"/><g stroke="#ffffff" stroke-linejoin="miter"><path d="M217.11818,212.37063v-14.05513h14.05513v14.05513z" fill="#ffffff" stroke-width="2"/><path d="M220.26793,213.52674v-7.75564h7.75564v7.75564z" fill="#000000" stroke-width="0"/><path d="M248.82669,212.22062v-14.05513h14.05513v14.05513z" fill="#ffffff" stroke-width="2"/><path d="M251.97644,213.28071v-7.75564h7.75564v7.75564z" fill="#000000" stroke-width="0"/></g><g stroke="#ffffff" stroke-linejoin="miter"><path d="M228.93226,194.77263v-22.13548h22.13548v22.13548z" fill="#ffffff" stroke-width="2"/><path d="M233.89281,195.59732v-12.21439h12.21439v12.21439z" fill="#000000" stroke-width="0"/></g><g><path d="M232,218.83399h16l-8,16z" fill="none" stroke="#000000" stroke-width="4" stroke-linejoin="round"/><path d="M232,218.83399h16l-8,16z" fill="#dcb1ff" stroke="none" stroke-width="1" stroke-linejoin="miter"/></g></g></g></svg>