<svg version="1.1" xmlns="http://www.w3.org/2000/svg" xmlns:xlink="http://www.w3.org/1999/xlink" width="182.80253" height="92.7099" viewBox="0,0,182.80253,92.7099"><g transform="translate(-132.42803,-146.33857)"><g data-paper-data="{&quot;isPaintingLayer&quot;:true}" fill-rule="nonzero" stroke-linecap="butt" stroke-miterlimit="10" stroke-dasharray="" stroke-dashoffset="0" style="mix-blend-mode: normal"><g data-paper-data="{&quot;index&quot;:null}"><path d="M232.56597,150.9491l59.12517,3.32561l-15.59808,14.73679z" fill="none" stroke="#000000" stroke-width="4" stroke-linejoin="round"/><path d="M232.56597,150.9491l59.12517,3.32561l-15.59808,14.73679z" fill="#dcb1ff" stroke="none" stroke-width="1" stroke-linejoin="miter"/></g><g data-paper-data="{&quot;index&quot;:null}"><path d="M187.43535,171.82404l-31.0602,-6.81504l76.52415,-16.67042z" fill="none" stroke="#000000" stroke-width="4" stroke-linejoin="round"/><path d="M187.43535,171.82404l-31.0602,-6.81504l76.52415,-16.67042z" fill="#dcb1ff" stroke="none" stroke-width="1" stroke-linejoin="miter"/></g><g data-paper-data="{&quot;index&quot;:null}"><path d="M209.13456,170.6757l-11.71667,-13.3229l35.14808,-8.06791z" fill="none" stroke="#000000" stroke-width="4" stroke-linejoin="round"/><path d="M209.13456,170.6757l-11.71667,-13.3229l35.14808,-8.06791z" fill="#dcb1ff" stroke="none" stroke-width="1" stroke-linejoin="miter"/></g><g data-paper-data="{&quot;index&quot;:null}"><path d="M160.79927,217.38748l-15.44995,-5.50742l14.63943,-31.25694z" fill="none" stroke="#000000" stroke-width="4" stroke-linejoin="round"/><path d="M160.79927,217.38748l-15.44995,-5.50742l14.63943,-31.25694z" fill="#dcb1ff" stroke="none" stroke-width="1" stroke-linejoin="miter"/></g><g data-paper-data="{&quot;index&quot;:null}"><path d="M197.79927,216.38748l-15.44995,-5.50742l14.63943,-31.25694z" fill="none" stroke="#000000" stroke-width="4" stroke-linejoin="round"/><path d="M197.79927,216.38748l-15.44995,-5.50742l14.63943,-31.25694z" fill="#dcb1ff" stroke="none" stroke-width="1" stroke-linejoin="miter"/></g><g data-paper-data="{&quot;index&quot;:null}"><path d="M288.7504,180.62312l14.63943,31.25694l-15.44995,5.50742z" fill="none" stroke="#000000" stroke-width="4" stroke-linejoin="round"/><path d="M288.7504,180.62312l14.63943,31.25694l-15.44995,5.50742z" fill="#dcb1ff" stroke="none" stroke-width="1" stroke-linejoin="miter"/></g><path d="M133.42804,231.08157v-13.2996c0,-3.67258 2.97721,-6.6498 6.6498,-6.6498h13.2996c3.67258,0 6.6498,2.97722 6.6498,6.6498v13.2996c0,3.67258 -2.97721,6.6498 -6.6498,6.6498h-13.2996c-3.67259,0 -6.6498,-2.97722 -6.6498,-6.6498z" data-paper-data="{&quot;index&quot;:null}" fill="#a400b5" stroke="#000000" stroke-width="2" stroke-linejoin="miter"/><path d="M151.7747,178.4149v-13.29959c0,-3.67259 2.97721,-6.64981 6.6498,-6.64981h13.2996c3.67258,0 6.6498,2.97722 6.6498,6.64981v13.29959c0,3.67258 -2.97721,6.6498 -6.6498,6.6498h-13.2996c-3.67259,0 -6.6498,-2.97721 -6.6498,-6.6498z" data-paper-data="{&quot;index&quot;:null}" fill="#a400b5" stroke="#000000" stroke-width="2" stroke-linejoin="miter"/><path d="M172.44137,231.39867v-13.2996c0,-3.67258 2.97721,-6.6498 6.6498,-6.6498h13.2996c3.67258,0 6.6498,2.97721 6.6498,6.6498v13.2996c0,3.67258 -2.97721,6.6498 -6.6498,6.6498h-13.2996c-3.67258,0 -6.6498,-2.97721 -6.6498,-6.6498z" data-paper-data="{&quot;index&quot;:null}" fill="#a400b5" stroke="#000000" stroke-width="2" stroke-linejoin="miter"/><path d="M182.7747,173.3949v-13.29959c0,-3.67259 2.97721,-6.64981 6.6498,-6.64981h13.2996c3.67258,0 6.6498,2.97723 6.6498,6.64981v13.29959c0,3.67258 -2.97721,6.6498 -6.6498,6.6498h-13.2996c-3.67259,0 -6.6498,-2.97722 -6.6498,-6.6498z" data-paper-data="{&quot;index&quot;:null}" fill="#a400b5" stroke="#000000" stroke-width="2" stroke-linejoin="miter"/><path d="M275.10803,173.3949v-13.29959c0,-3.67258 2.97722,-6.6498 6.6498,-6.6498h13.2996c3.67258,0 6.6498,2.97722 6.6498,6.6498v13.29959c0,3.67258 -2.97722,6.6498 -6.6498,6.6498h-13.2996c-3.67258,0 -6.6498,-2.97721 -6.6498,-6.6498z" data-paper-data="{&quot;index&quot;:null}" fill="#a400b5" stroke="#000000" stroke-width="2" stroke-linejoin="miter"/><path d="M287.63137,231.27824v-13.2996c0,-3.67258 2.97722,-6.6498 6.6498,-6.6498h13.2996c3.67258,0 6.6498,2.97722 6.6498,6.6498v13.2996c0,3.67258 -2.97722,6.6498 -6.6498,6.6498h-13.2996c-3.67258,0 -6.6498,-2.97722 -6.6498,-6.6498z" data-paper-data="{&quot;index&quot;:null}" fill="#a400b5" stroke="#000000" stroke-width="2" stroke-linejoin="miter"/></g></g></svg>