<svg version="1.1" xmlns="http://www.w3.org/2000/svg" xmlns:xlink="http://www.w3.org/1999/xlink" width="265.44717" height="93.65917" viewBox="0,0,265.44717,93.65917"><g transform="translate(-103.53183,-126.36235)"><g data-paper-data="{&quot;isPaintingLayer&quot;:true}" fill-rule="nonzero" stroke-linecap="butt" stroke-linejoin="miter" stroke-miterlimit="10" stroke-dasharray="" stroke-dashoffset="0" style="mix-blend-mode: normal"><path d="M331.529,159.43235c3.5613,1.15332 7.26066,1.82593 11,2c3.53,0 5,-1 5,-2.8c0,-1.8 -1.43,-2.61 -6,-2.61c-2.22,0 -6.59,0.13 -9.59,0.26l2.48,-27.92h30.92l-1.44,15.78h-13.17l-0.19,2.55c8.09,0.39 16.44,4 16.44,13.57c0,10.63 -10.31,16 -22.12,16c-4.94404,-0.0244 -9.85248,-0.83797 -14.54,-2.41z" fill="none" stroke="#ffffff" stroke-width="4"/><path d="M331.529,159.43235c3.5613,1.15332 7.26066,1.82593 11,2c3.53,0 5,-1 5,-2.8c0,-1.8 -1.43,-2.61 -6,-2.61c-2.22,0 -6.59,0.13 -9.59,0.26l2.48,-27.92h30.92l-1.44,15.78h-13.17l-0.19,2.55c8.09,0.39 16.44,4 16.44,13.57c0,10.63 -10.31,16 -22.12,16c-4.94404,-0.0244 -9.85248,-0.83797 -14.54,-2.41z" fill="#000000" stroke="none" stroke-width="1"/><path d="M105.834,128.74691h19.44v30.46h14.61v16.77h-34z" fill="none" stroke="#ffffff" stroke-width="4"/><path d="M144.964,128.74691h34v15.78h-14.56v2.55h11.74v11.22h-11.74v2.67h15.46v15h-34.9z" fill="none" stroke="#ffffff" stroke-width="4"/><path d="M182.214,128.74691h21l7,25h0.13l7.44,-25h19l-18.07,47.23h-18.43z" fill="none" stroke="#ffffff" stroke-width="4"/><path d="M240.004,128.74691h34v15.78h-14.56v2.55h11.74v11.22h-11.74v2.67h15.46v15h-34.9z" fill="none" stroke="#ffffff" stroke-width="4"/><path d="M279.734,128.74691h19.44v30.46h14.61v16.77h-34.05z" fill="none" stroke="#ffffff" stroke-width="4"/><path d="M105.834,128.74691h19.44v30.46h14.61v16.77h-34z" fill="#000000" stroke="none" stroke-width="1"/><path d="M144.964,128.74691h34v15.78h-14.56v2.55h11.74v11.22h-11.74v2.67h15.46v15h-34.9z" fill="#000000" stroke="none" stroke-width="1"/><path d="M182.214,128.74691h21l7,25h0.13l7.44,-25h19l-18.07,47.23h-18.43z" fill="#000000" stroke="none" stroke-width="1"/><path d="M240.004,128.74691h34v15.78h-14.56v2.55h11.74v11.22h-11.74v2.67h15.46v15h-34.9z" fill="#000000" stroke="none" stroke-width="1"/><path d="M279.734,128.74691h19.44v30.46h14.61v16.77h-34.05z" fill="#000000" stroke="none" stroke-width="1"/><path d="M213.99597,191.36767c2.17807,-0.05132 4.34528,0.44639 6.40094,1.47v9.39c-1.71254,-1.02764 -3.54906,-1.57438 -5.40805,-1.61c-3.06315,0 -4.71092,1.72 -4.71092,4.07c0,2.35 1.64777,4 4.71092,4c1.90558,-0.00764 3.78879,-0.58339 5.52776,-1.69v9c-2.11551,1.09394 -4.35402,1.62941 -6.60515,1.58c-7.27411,0.02 -12.59061,-5.48 -12.59061,-13.1c0,-7.62 5.28131,-13.11 12.67512,-13.11z" fill="none" stroke="#ffffff" stroke-width="4"/><path d="M213.99597,191.36767c2.17807,-0.05132 4.34528,0.44639 6.40094,1.47v9.39c-1.71254,-1.02764 -3.54906,-1.57438 -5.40805,-1.61c-3.06315,0 -4.71092,1.72 -4.71092,4.07c0,2.35 1.64777,4 4.71092,4c1.90558,-0.00764 3.78879,-0.58339 5.52776,-1.69v9c-2.11551,1.09394 -4.35402,1.62941 -6.60515,1.58c-7.27411,0.02 -12.59061,-5.48 -12.59061,-13.1c0,-7.62 5.28131,-13.11 12.67512,-13.11z" fill="#000000" stroke="none" stroke-width="1"/><path d="M229.97834,191.557h8.09593l7.87278,25.47h-9.1492l-0.71409,-3.34h-4.73973l-0.79443,3.34h-8.44404zM234.70915,207.277l-0.89261,-5.17h-0.05355l-0.8926,5.17z" fill="none" stroke="#ffffff" stroke-width="4"/><path d="M229.97834,191.557h8.09593l7.87278,25.47h-9.1492l-0.71409,-3.34h-4.73973l-0.79443,3.34h-8.44404zM234.70915,207.277l-0.89261,-5.17h-0.05355l-0.8926,5.17z" fill="#000000" stroke="none" stroke-width="1"/><path d="M243.3421,191.17449h9.85738l3.27479,13.91212h0.06054l3.49494,-13.91212h8.91072l-8.48692,26.23503h-8.63003z" fill="none" stroke="#ffffff" stroke-width="4"/><path d="M243.3421,191.17449h9.85738l3.27479,13.91212h0.06054l3.49494,-13.91212h8.91072l-8.48692,26.23503h-8.63003z" fill="#000000" stroke="none" stroke-width="1"/><path d="M271.80192,190.56247h20.78255v9.17574h-8.90066v1.4793h7.16639v6.52391h-7.16639v1.55429h9.45247v8.72582h-21.33436z" fill="none" stroke="#ffffff" stroke-width="4"/><path d="M271.80192,190.56247h20.78255v9.17574h-8.90066v1.4793h7.16639v6.52391h-7.16639v1.55429h9.45247v8.72582h-21.33436z" fill="#000000" stroke="none" stroke-width="1"/><path d="M295.30444,191.23661h9.22055c4.72874,0 11.10612,1.37 11.10612,8c0.12754,2.35841 -0.85356,4.63898 -2.64572,6.15c0.25243,1.52476 1.63096,2.58848 3.1492,2.43c1.74799,-0.04614 3.4289,-0.69126 4.76822,-1.83v9.28c-1.79648,1.20573 -3.90647,1.84275 -6.06148,1.83c-5.39016,0 -9.15144,-3.76 -10.06954,-8.83h-0.05924v8.45h-9.40811zM305.40359,202.49661c0.78819,0.17229 1.60061,-0.15823 2.0522,-0.83491c0.45159,-0.67667 0.45159,-1.56351 0,-2.24019c-0.45159,-0.67667 -1.26401,-1.00719 -2.0522,-0.83491h-0.69105v3.91z" fill="none" stroke="#ffffff" stroke-width="4"/><path d="M295.30444,191.23661h9.22055c4.72874,0 11.10612,1.37 11.10612,8c0.12754,2.35841 -0.85356,4.63898 -2.64572,6.15c0.25243,1.52476 1.63096,2.58848 3.1492,2.43c1.74799,-0.04614 3.4289,-0.69126 4.76822,-1.83v9.28c-1.79648,1.20573 -3.90647,1.84275 -6.06148,1.83c-5.39016,0 -9.15144,-3.76 -10.06954,-8.83h-0.05924v8.45h-9.40811zM305.40359,202.49661c0.78819,0.17229 1.60061,-0.15823 2.0522,-0.83491c0.45159,-0.67667 0.45159,-1.56351 0,-2.24019c-0.45159,-0.67667 -1.26401,-1.00719 -2.0522,-0.83491h-0.69105v3.91z" fill="#000000" stroke="none" stroke-width="1"/><path d="M320.4095,191.72327h7.98147l6.26917,10.87h0.05524v-10.87h7.88941v25.47h-7.98146l-6.25997,-10.87h-0.06445v10.84h-7.88941z" fill="none" stroke="#ffffff" stroke-width="4"/><path d="M320.4095,191.72327h7.98147l6.26917,10.87h0.05524v-10.87h7.88941v25.47h-7.98146l-6.25997,-10.87h-0.06445v10.84h-7.88941z" fill="#000000" stroke="none" stroke-width="1"/><path d="M345.56457,207.13558c2.73929,1.71669 5.76994,2.73985 8.8861,3c1.12062,0 1.38325,-0.42 1.38325,-0.84c0,-0.42 -0.33269,-0.71 -0.82294,-0.81c-1.30447,-0.32 -5.07777,-0.71 -7.83553,-3c-1.5357,-1.19027 -2.43616,-3.19081 -2.39006,-5.31c0,-5.1 4.17604,-8.58 11.01352,-8.58c3.28955,-0.00374 6.55241,0.67389 9.63028,2v8.34c-2.59341,-1.27859 -5.35869,-2.04287 -8.17697,-2.26c-1.08559,0 -1.38326,0.39 -1.38326,0.78c0,0.39 0.41148,0.74 0.87549,0.88c1.12062,0.31 4.8589,0.74 7.51161,2.71c1.7009,1.13832 2.73933,3.22834 2.72274,5.48c0,4.89 -4.18479,8.3 -11.27617,8.3c-3.45577,0.02039 -6.88569,-0.68115 -10.12054,-2.07z" fill="none" stroke="#ffffff" stroke-width="4"/><path d="M345.56457,207.13558c2.73929,1.71669 5.76994,2.73985 8.8861,3c1.12062,0 1.38325,-0.42 1.38325,-0.84c0,-0.42 -0.33269,-0.71 -0.82294,-0.81c-1.30447,-0.32 -5.07777,-0.71 -7.83553,-3c-1.5357,-1.19027 -2.43616,-3.19081 -2.39006,-5.31c0,-5.1 4.17604,-8.58 11.01352,-8.58c3.28955,-0.00374 6.55241,0.67389 9.63028,2v8.34c-2.59341,-1.27859 -5.35869,-2.04287 -8.17697,-2.26c-1.08559,0 -1.38326,0.39 -1.38326,0.78c0,0.39 0.41148,0.74 0.87549,0.88c1.12062,0.31 4.8589,0.74 7.51161,2.71c1.7009,1.13832 2.73933,3.22834 2.72274,5.48c0,4.89 -4.18479,8.3 -11.27617,8.3c-3.45577,0.02039 -6.88569,-0.68115 -10.12054,-2.07z" fill="#000000" stroke="none" stroke-width="1"/><path d="M111.29807,198.9396h-5.76623v-8.65h20.03006v8.65h-5.7573v16.82h-8.50653z" fill="none" stroke="#ffffff" stroke-width="4"/><path d="M111.29807,198.9396h-5.76623v-8.65h20.03006v8.65h-5.7573v16.82h-8.50653z" fill="#000000" stroke="none" stroke-width="1"/><path d="M155.50257,190.67033h20.78255v8.51108h-8.90066v1.37214h7.16639v6.05133h-7.16639v1.4417h9.45247v8.09375h-21.33436z" fill="none" stroke="#ffffff" stroke-width="4"/><path d="M155.50257,190.67033h20.78255v8.51108h-8.90066v1.37214h7.16639v6.05133h-7.16639v1.4417h9.45247v8.09375h-21.33436z" fill="#000000" stroke="none" stroke-width="1"/><path d="M130.13381,190.42253h7.7389l0.07791,8.87772l6.20342,0.06405l-0.14914,-8.94177h7.64963v25.47h-7.73889l-0.3094,-7.99544l-5.8228,-0.17504v8.14048h-7.64963z" fill="none" stroke="#ffffff" stroke-width="4"/><path d="M130.13381,190.42253h7.7389l0.07792,8.87771l6.20342,0.06406l-0.14915,-8.94177h7.64963v25.47h-7.73889l-0.3094,-7.99544l-5.82281,-0.17504v8.14048h-7.64963z" fill="#000000" stroke="none" stroke-width="1"/></g></g></svg>