<svg version="1.1" xmlns="http://www.w3.org/2000/svg" xmlns:xlink="http://www.w3.org/1999/xlink" width="66" height="92.25" viewBox="0,0,66,92.25"><g transform="translate(-206.95,-133.875)"><g data-paper-data="{&quot;isPaintingLayer&quot;:true}" fill-rule="nonzero" stroke-linecap="butt" stroke-miterlimit="10" stroke-dasharray="" stroke-dashoffset="0" style="mix-blend-mode: normal"><g><path d="M254.645,213.125h9.56l-4.78,11z" fill="none" stroke="#000000" stroke-width="4" stroke-linejoin="round"/><path d="M254.645,213.125h9.56l-4.78,11z" fill="#b3b3b3" stroke="none" stroke-width="1" stroke-linejoin="miter"/></g><g><path d="M235.27,213.125l9.56,0l-4.78,11z" fill="none" stroke="#000000" stroke-width="4" stroke-linejoin="round"/><path d="M235.27,213.125l9.56,0l-4.78,11z" fill="#b3b3b3" stroke="none" stroke-width="1" stroke-linejoin="miter"/></g><g><path d="M215.895,213.125h9.56l-4.78,11z" fill="none" stroke="#000000" stroke-width="4" stroke-linejoin="round"/><path d="M215.895,213.125h9.56l-4.78,11z" fill="#b3b3b3" stroke="none" stroke-width="1" stroke-linejoin="miter"/></g><g><path d="M254.645,213.125h9.56l-4.78,11z" fill="none" stroke="#000000" stroke-width="4" stroke-linejoin="round"/><path d="M254.645,213.125h9.56l-4.78,11z" fill="#b3b3b3" stroke="none" stroke-width="1" stroke-linejoin="miter"/></g><g><path d="M235.27,213.125l9.56,0l-4.78,11z" fill="none" stroke="#000000" stroke-width="4" stroke-linejoin="round"/><path d="M235.27,213.125l9.56,0l-4.78,11z" fill="#b3b3b3" stroke="none" stroke-width="1" stroke-linejoin="miter"/></g><g><path d="M215.895,213.125h9.56l-4.78,11z" fill="none" stroke="#000000" stroke-width="4" stroke-linejoin="round"/><path d="M215.895,213.125h9.56l-4.78,11z" fill="#b3b3b3" stroke="none" stroke-width="1" stroke-linejoin="miter"/></g><path d="M208.95,211.15v-62h62v62z" fill="#39b54a" stroke="#000000" stroke-width="4" stroke-linejoin="round"/><path d="M209.05,210.85v-62h62v62z" fill="#3967c4" stroke="none" stroke-width="0" stroke-linejoin="round"/><path d="M218.05,201.85v-44h44v44z" fill="#4f7bd2" stroke="none" stroke-width="1" stroke-linejoin="miter"/><g><path d="M225.355,146.875h-9.56l4.78,-11z" fill="none" stroke="#000000" stroke-width="4" stroke-linejoin="round"/><path d="M225.355,146.875h-9.56l4.78,-11z" fill="#b3b3b3" stroke="none" stroke-width="1" stroke-linejoin="miter"/></g><g><path d="M244.73,146.875h-9.56l4.78,-11z" fill="none" stroke="#000000" stroke-width="4" stroke-linejoin="round"/><path d="M244.73,146.875h-9.56l4.78,-11z" fill="#b3b3b3" stroke="none" stroke-width="1" stroke-linejoin="miter"/></g><g><path d="M264.105,146.875h-9.56l4.78,-11z" fill="none" stroke="#000000" stroke-width="4" stroke-linejoin="round"/><path d="M264.105,146.875h-9.56l4.78,-11z" fill="#b3b3b3" stroke="none" stroke-width="1" stroke-linejoin="miter"/></g><g><path d="M225.355,146.875h-9.56l4.78,-11z" fill="none" stroke="#000000" stroke-width="4" stroke-linejoin="round"/><path d="M225.355,146.875h-9.56l4.78,-11z" fill="#b3b3b3" stroke="none" stroke-width="1" stroke-linejoin="miter"/></g><g><path d="M244.73,146.875h-9.56l4.78,-11z" fill="none" stroke="#000000" stroke-width="4" stroke-linejoin="round"/><path d="M244.73,146.875h-9.56l4.78,-11z" fill="#b3b3b3" stroke="none" stroke-width="1" stroke-linejoin="miter"/></g><g><path d="M264.105,146.875h-9.56l4.78,-11z" fill="none" stroke="#000000" stroke-width="4" stroke-linejoin="round"/><path d="M264.105,146.875h-9.56l4.78,-11z" fill="#b3b3b3" stroke="none" stroke-width="1" stroke-linejoin="miter"/></g></g></g></svg>