<svg version="1.1" xmlns="http://www.w3.org/2000/svg" xmlns:xlink="http://www.w3.org/1999/xlink" width="163.23585" height="163.50944" viewBox="0,0,163.23585,163.50944"><g transform="translate(-158.34905,-98.0566)"><g data-paper-data="{&quot;isPaintingLayer&quot;:true}" fill-rule="nonzero" stroke-linecap="butt" stroke-miterlimit="10" stroke-dasharray="" stroke-dashoffset="0" style="mix-blend-mode: normal"><g data-paper-data="{&quot;index&quot;:null}"><path d="M187.93397,259.56604l-8,-16h16z" fill="none" stroke="#000000" stroke-width="4" stroke-linejoin="round"/><path d="M187.93397,259.56604l-8,-16h16z" fill="#b3b3b3" stroke="none" stroke-width="1" stroke-linejoin="miter"/></g><g data-paper-data="{&quot;index&quot;:null}"><path d="M230.76416,259.56604l-8,-16h16z" fill="none" stroke="#000000" stroke-width="4" stroke-linejoin="round"/><path d="M230.76416,259.56604l-8,-16h16z" fill="#b3b3b3" stroke="none" stroke-width="1" stroke-linejoin="miter"/></g><g data-paper-data="{&quot;index&quot;:null}"><path d="M209.93397,259.56604l-8,-16h16z" fill="none" stroke="#000000" stroke-width="4" stroke-linejoin="round"/><path d="M209.93397,259.56604l-8,-16h16z" fill="#b3b3b3" stroke="none" stroke-width="1" stroke-linejoin="miter"/></g><g data-paper-data="{&quot;index&quot;:null}"><path d="M319.58491,232.00001l-16,8v-16z" fill="none" stroke="#000000" stroke-width="4" stroke-linejoin="round"/><path d="M319.58491,232.00001l-16,8v-16z" fill="#b3b3b3" stroke="none" stroke-width="1" stroke-linejoin="miter"/></g><g data-paper-data="{&quot;index&quot;:null}"><path d="M319.58491,189.16982l-16,8v-16z" fill="none" stroke="#000000" stroke-width="4" stroke-linejoin="round"/><path d="M319.58491,189.16982l-16,8v-16z" fill="#b3b3b3" stroke="none" stroke-width="1" stroke-linejoin="miter"/></g><g data-paper-data="{&quot;index&quot;:null}"><path d="M319.58491,210.00001l-16,8v-16z" fill="none" stroke="#000000" stroke-width="4" stroke-linejoin="round"/><path d="M319.58491,210.00001l-16,8v-16z" fill="#b3b3b3" stroke="none" stroke-width="1" stroke-linejoin="miter"/></g><g data-paper-data="{&quot;index&quot;:null}"><path d="M291.93397,100.05661l8,16h-16z" fill="none" stroke="#000000" stroke-width="4" stroke-linejoin="round"/><path d="M291.93397,100.05661l8,16h-16z" fill="#b3b3b3" stroke="none" stroke-width="1" stroke-linejoin="miter"/></g><g data-paper-data="{&quot;index&quot;:null}"><path d="M249.10378,100.05661l8,16h-16z" fill="none" stroke="#000000" stroke-width="4" stroke-linejoin="round"/><path d="M249.10378,100.05661l8,16h-16z" fill="#b3b3b3" stroke="none" stroke-width="1" stroke-linejoin="miter"/></g><g data-paper-data="{&quot;index&quot;:null}"><path d="M269.93397,100.05661l8,16h-16z" fill="none" stroke="#000000" stroke-width="4" stroke-linejoin="round"/><path d="M269.93397,100.05661l8,16h-16z" fill="#b3b3b3" stroke="none" stroke-width="1" stroke-linejoin="miter"/></g><g data-paper-data="{&quot;index&quot;:null}"><path d="M176.34906,161.07548v16l-16,-8z" fill="none" stroke="#000000" stroke-width="4" stroke-linejoin="round"/><path d="M176.34906,161.07548v16l-16,-8z" fill="#b3b3b3" stroke="none" stroke-width="1" stroke-linejoin="miter"/></g><g data-paper-data="{&quot;index&quot;:null}"><path d="M176.34906,120.00001v16l-16,-8z" fill="none" stroke="#000000" stroke-width="4" stroke-linejoin="round"/><path d="M176.34906,120.00001v16l-16,-8z" fill="#b3b3b3" stroke="none" stroke-width="1" stroke-linejoin="miter"/></g><g data-paper-data="{&quot;index&quot;:null}"><path d="M176.34906,142v16l-16,-8z" fill="none" stroke="#000000" stroke-width="4" stroke-linejoin="round"/><path d="M176.34906,142v16l-16,-8z" fill="#b3b3b3" stroke="none" stroke-width="1" stroke-linejoin="miter"/></g><g><path d="M179,241v-122h122v122z" fill="none" stroke="#000000" stroke-width="4" stroke-linejoin="round"/><path d="M179,241v-122h122v122z" fill="#39b54a" stroke="none" stroke-width="1" stroke-linejoin="miter"/></g><path d="M188,232v-14h44v14z" fill="#3ac54d" stroke="none" stroke-width="1" stroke-linejoin="miter"/><path d="M248,232v-14h44v14z" fill="#3ac54d" stroke="none" stroke-width="1" stroke-linejoin="miter"/><path d="M188,142v-14h44v14z" fill="#3ac54d" stroke="none" stroke-width="1" stroke-linejoin="miter"/><path d="M248,142v-14h44v14z" fill="#3ac54d" stroke="none" stroke-width="1" stroke-linejoin="miter"/><path d="M218,202v-44h44v44z" fill="#ffffff" stroke="none" stroke-width="1" stroke-linejoin="miter"/><path d="M188,202v-14h14v14z" fill="#3ac54d" stroke="none" stroke-width="1" stroke-linejoin="miter"/><path d="M278,202v-14h14v14z" fill="#3ac54d" stroke="none" stroke-width="1" stroke-linejoin="miter"/><path d="M188,172v-14h14v14z" fill="#3ac54d" stroke="none" stroke-width="1" stroke-linejoin="miter"/><path d="M233,187v-14h14v14z" fill="#000000" stroke="none" stroke-width="1" stroke-linejoin="miter"/><path d="M278,172v-14h14v14z" fill="#3ac54d" stroke="none" stroke-width="1" stroke-linejoin="miter"/></g></g></svg>