<svg version="1.1" xmlns="http://www.w3.org/2000/svg" xmlns:xlink="http://www.w3.org/1999/xlink" width="62.21989" height="62.12278" viewBox="0,0,62.21989,62.12278"><g transform="translate(-208.8,-148.87723)"><g data-paper-data="{&quot;isPaintingLayer&quot;:true}" fill-rule="nonzero" stroke="none" stroke-linecap="butt" stroke-miterlimit="10" stroke-dasharray="" stroke-dashoffset="0" style="mix-blend-mode: normal"><path d="M209,211.00001v-62h62v62z" fill="#39b54a" stroke-width="0" stroke-linejoin="round"/><path d="M249.03472,204.36906l-4.51004,-4.38202l12.16317,-4.84518l-10.14918,-8.72326l15.47668,-3.66921l-20.36584,-9.22192l9.33262,-7.93777l-11.88213,-16.71247h31.91988v62h-31.91988z" data-paper-data="{&quot;index&quot;:null}" fill="#00ffff" stroke-width="0" stroke-linejoin="round"/><path d="M240.81989,210.90003h-31.91988v-62h31.91988l-11.88213,16.71247l9.33262,7.93777l-20.36584,9.22192l15.47668,3.66921l-10.14918,8.72326l12.16317,4.84518l-4.51004,4.38202z" fill="#00ffff" stroke-width="0" stroke-linejoin="round"/><path d="M218,202.00001v-44h44v44z" fill="#3ac54d" stroke-width="1" stroke-linejoin="miter"/><path d="M209,180.91988v-31.91988h62v31.91988l-16.71247,-11.88213l-7.93777,9.33262l-9.22192,-20.36584l-3.66921,15.47668l-8.72326,-10.14918l-4.84518,12.16317l-4.38202,-4.51004z" fill="#00ffff" stroke-width="0" stroke-linejoin="round"/><path d="M209,174.43471v-25.43471h62v25.43471l-16.71247,-9.46804l-7.93777,7.43652l-9.22192,-16.22811l-3.66921,12.33228l-8.72326,-8.08717l-4.84518,9.69197l-4.38202,-3.59373z" fill="#a3ffff" stroke-width="0" stroke-linejoin="round"/><path d="M228.2,157.52404l33.8,0.2v16.95549l-7.57605,-5.23073l-7.85727,10.42843l-9.04288,-18.89686l-1.63264,11.31231l-1.55861,2.10863z" fill="#b8ffff" stroke-width="1" stroke-linejoin="miter"/><path d="M209,169.19139v-20.19139h62v20.19139l-16.71247,-7.51622l-7.93777,5.90349l-8.53201,-8.74325l-4.35912,5.65054l-8.72326,-6.42001l-4.84518,7.69399l-4.38202,-2.85289z" fill="#ffffff" stroke-width="0" stroke-linejoin="round"/><path d="M234.23471,211.00001h-25.43471v-62l15.96667,16.71247l7.43652,7.93777l-16.22811,9.22192l12.33228,3.66921l-8.08717,8.72326l9.69197,4.84518l-3.59373,4.38202z" fill="#a3ffff" stroke-width="0" stroke-linejoin="round"/><path d="M233.96642,202.00001h-15.85163v-44c0,0 2.20533,-2.57501 3.66447,-1.63217c0.54724,0.3536 4.62531,-0.60604 7.78507,3.00061c3.69594,4.21868 6.50366,13.06488 6.50366,13.06488c0,0 -0.26246,1.12601 -1.22817,1.78592c-2.41359,1.64929 -13.46869,8.25696 -13.46869,8.25696l11.51231,2.43264l2.70863,2.95861l-9.56087,6.44782l11.98941,3.96322z" fill="#b8ffff" stroke-width="1" stroke-linejoin="miter"/><path d="M229.19139,211.00001h-20.19139v-62h20.19139l-7.51622,16.71247l5.90349,7.93777l-8.74325,8.53201l5.65054,4.35912l-6.42001,8.72326l7.69399,4.84518l-2.85289,4.38202z" fill="#ffffff" stroke-width="0" stroke-linejoin="round"/><path d="M253.48157,204.49184l-3.59373,-4.38202l9.69197,-4.84518l-8.08717,-8.72326l12.33228,-3.66921l-16.22811,-9.22192l7.43652,-7.93777l15.96667,-16.71247v62h-25.43471z" data-paper-data="{&quot;index&quot;:null}" fill="#a3ffff" stroke-width="0" stroke-linejoin="round"/><path d="M241.77939,198.2785l11.98941,-3.96322l-9.56087,-6.44782l2.70863,-2.95861l11.51231,-2.43264c0,0 -11.0551,-6.60767 -13.46869,-8.25696c-0.96571,-0.65991 -1.22817,-1.78592 -1.22817,-1.78592c0,0 2.80772,-8.8462 6.50366,-13.06488c3.15976,-3.60665 7.23783,-2.64701 7.78507,-3.00061c1.45914,-0.94284 3.66447,1.63217 3.66447,1.63217v44h-15.85163z" data-paper-data="{&quot;index&quot;:null}" fill="#b8ffff" stroke-width="1" stroke-linejoin="miter"/><path d="M256.89295,204.49184l-2.85289,-4.38202l7.69399,-4.84518l-6.42001,-8.72326l5.65054,-4.35912l-8.74325,-8.53201l5.90349,-7.93777l-7.51622,-16.71247h20.19139v62h-20.19139z" data-paper-data="{&quot;index&quot;:null}" fill="#ffffff" stroke-width="0" stroke-linejoin="round"/></g></g></svg>