<svg version="1.1" xmlns="http://www.w3.org/2000/svg" xmlns:xlink="http://www.w3.org/1999/xlink" width="62.66664" height="32.33331" viewBox="0,0,62.66664,32.33331"><g transform="translate(-208.16668,-173.70836)"><g stroke-miterlimit="10"><g><path d="M242.73037,179.58565h-7.0054l3.5027,-3.87729z" fill="none" stroke="#000000" stroke-width="4" stroke-linejoin="round"/><path d="M242.73037,179.58565h-7.0054l3.5027,-3.87729z" fill="#b3b3b3" stroke="none" stroke-width="1" stroke-linejoin="miter"/></g><g><path d="M237.49398,200.16437h7.00539l-3.50269,3.87729z" fill="none" stroke="#000000" stroke-width="4" stroke-linejoin="round"/><path d="M237.49398,200.16437h7.00539l-3.50269,3.87729z" fill="#b3b3b3" stroke="none" stroke-width="1" stroke-linejoin="miter"/></g><g><path d="M260.77712,191.2824v-3.37156l8.05621,1.68578z" fill="none" stroke="#000000" stroke-width="4" stroke-linejoin="round"/><path d="M260.77712,191.2824v-3.37156l8.05621,1.68578z" fill="#b3b3b3" stroke="none" stroke-width="1" stroke-linejoin="miter"/></g><g><path d="M218.22289,188.76224v3.37155l-8.05621,-1.68578z" fill="none" stroke="#000000" stroke-width="4" stroke-linejoin="round"/><path d="M218.22289,188.76224v3.37155l-8.05621,-1.68578z" fill="#b3b3b3" stroke="none" stroke-width="1" stroke-linejoin="miter"/></g><g><path d="M256.49857,183.27954l-4.95356,-2.38405l8.17339,-1.54964z" fill="none" stroke="#000000" stroke-width="4" stroke-linejoin="round"/><path d="M256.49857,183.27954l-4.95356,-2.38405l8.17339,-1.54964z" fill="#b3b3b3" stroke="none" stroke-width="1" stroke-linejoin="miter"/></g><g><path d="M222.7055,195.93032l4.95356,2.38404l-8.17338,1.54964z" fill="none" stroke="#000000" stroke-width="4" stroke-linejoin="round"/><path d="M222.7055,195.93032l4.95356,2.38404l-8.17338,1.54964z" fill="#b3b3b3" stroke="none" stroke-width="1" stroke-linejoin="miter"/></g><g><path d="M252.07444,197.6429l4.95356,-2.38405l3.21983,3.93369z" fill="none" stroke="#000000" stroke-width="4" stroke-linejoin="round"/><path d="M252.07444,197.6429l4.95356,-2.38405l3.21983,3.93369z" fill="#b3b3b3" stroke="none" stroke-width="1" stroke-linejoin="miter"/></g><g><path d="M225.68674,181.37897l-4.95356,2.38405l-3.21983,-3.93369z" fill="none" stroke="#000000" stroke-width="4" stroke-linejoin="round"/><path d="M225.68674,181.37897l-4.95356,2.38405l-3.21983,-3.93369z" fill="#b3b3b3" stroke="none" stroke-width="1" stroke-linejoin="miter"/></g><g><path d="M251.1474,180.84708l-6.50573,-1.2505l6.24091,-2.97549z" fill="none" stroke="#000000" stroke-width="4" stroke-linejoin="round"/><path d="M251.1474,180.84708l-6.50573,-1.2505l6.24091,-2.97549z" fill="#b3b3b3" stroke="none" stroke-width="1" stroke-linejoin="miter"/></g><g><path d="M230.50123,198.93207l6.50573,1.25051l-6.24089,2.97549z" fill="none" stroke="#000000" stroke-width="4" stroke-linejoin="round"/><path d="M230.50123,198.93207l6.50573,1.25051l-6.24089,2.97549z" fill="#b3b3b3" stroke="none" stroke-width="1" stroke-linejoin="miter"/></g><g><path d="M258.89284,194.931l2.59829,-3.13108l6.18244,3.00363z" fill="none" stroke="#000000" stroke-width="4" stroke-linejoin="round"/><path d="M258.89284,194.931l2.59829,-3.13108l6.18244,3.00363z" fill="#b3b3b3" stroke="none" stroke-width="1" stroke-linejoin="miter"/></g><g><path d="M221.31603,184.99441l-2.59829,3.13108l-6.18246,-3.00362z" fill="none" stroke="#000000" stroke-width="4" stroke-linejoin="round"/><path d="M221.31603,184.99441l-2.59829,3.13108l-6.18246,-3.00362z" fill="#b3b3b3" stroke="none" stroke-width="1" stroke-linejoin="miter"/></g><g><path d="M261.08686,186.73522l-2.76297,-3.09825l8.78462,0.01989z" fill="none" stroke="#000000" stroke-width="4" stroke-linejoin="round"/><path d="M261.08686,186.73522l-2.76297,-3.09825l8.78462,0.01989z" fill="#b3b3b3" stroke="none" stroke-width="1" stroke-linejoin="miter"/></g><g><path d="M219.95483,192.4514l2.76299,3.09824l-8.78464,-0.01988z" fill="none" stroke="#000000" stroke-width="4" stroke-linejoin="round"/><path d="M219.95483,192.4514l2.76299,3.09824l-8.78464,-0.01988z" fill="#b3b3b3" stroke="none" stroke-width="1" stroke-linejoin="miter"/></g><g><path d="M245.90918,199.28435l6.43751,-1.32976l-0.04133,4.22787z" fill="none" stroke="#000000" stroke-width="4" stroke-linejoin="round"/><path d="M245.90918,199.28435l6.43751,-1.32976l-0.04133,4.22787z" fill="#b3b3b3" stroke="none" stroke-width="1" stroke-linejoin="miter"/></g><g><path d="M233.9374,179.47011l-6.43751,1.32976l0.04133,-4.22787z" fill="none" stroke="#000000" stroke-width="4" stroke-linejoin="round"/><path d="M233.9374,179.47011l-6.43751,1.32976l0.04133,-4.22787z" fill="#b3b3b3" stroke="none" stroke-width="1" stroke-linejoin="miter"/></g><path d="M218.89018,189.72769c0,-5.5053 9.27304,-9.96821 20.71188,-9.96821c11.43887,0 20.71189,4.46293 20.71189,9.96821c0,5.5053 -9.27303,9.96822 -20.71189,9.96822c-11.43887,0 -20.71188,-4.46293 -20.71188,-9.96822z" fill="#0008ff" stroke="#000000" stroke-width="2" stroke-linejoin="miter"/><path d="M252.75328,192.96197c-3.57117,3.34401 -11.7927,4.73154 -19.05969,2.94482c-7.26698,-1.78671 -9.88406,-5.64722 -6.15061,-9.14321c3.73345,-3.49599 11.7865,-4.77074 19.09158,-2.97466c7.30507,1.79608 9.68988,5.82903 6.11872,9.17305zM238.6571,193.7917l0.06009,1.72217l4.98289,-0.1126l0.29698,-2.53413l4.96913,-0.49089l-1.16636,-2.77244l2.66801,-0.98032l-3.77223,-1.33283l-0.15162,-2.16737c0,0 -3.23059,0.45185 -4.02721,0.33291c-0.67359,-0.10057 -4.08449,-0.64533 -4.08449,-0.64533l-2.26154,2.07144l-3.69021,-0.65329l0.42485,2.68952l-4.19939,-0.25071l0.52898,2.47612l4.97601,0.42497l-1.19542,2.37657z" fill="#8fffff" stroke="#000000" stroke-width="0" stroke-linejoin="miter"/><path d="M237.07824,181.59752c9.3801,-0.77896 18.21334,2.05461 19.92812,6.76824c1.71479,4.71363 -4.17287,8.7697 -13.97926,9.58407c-9.80639,0.81436 -18.28807,-2.02295 -20.01184,-6.76129c-1.72377,-4.73833 4.68289,-8.81206 14.06298,-9.59102zM249.09047,187.59161l3.43835,-1.29073l-3.88085,-2.25133l-5.34199,1.71876l-4.6357,-1.96755l-4.75106,2.57889l-3.93831,-0.53094l0.07045,2.74399l-4.27149,1.66c0,0 3.28216,1.18188 3.62569,1.6422c0.29048,0.38923 1.68958,2.38621 1.68958,2.38621l5.84668,-0.45939l1.38442,2.20738l5.12702,-2.17078l2.57178,2.15072l4.61913,-2.06309l-2.78876,-2.64223l5.68205,-1.18244z" fill="#c7ffff" stroke="#000000" stroke-width="0" stroke-linejoin="miter"/><path d="M219.4003,189.87501c0,-5.50161 8.77128,-9.95407 20.71188,-9.96822c11.9406,-0.01415 20.71189,4.16748 20.71189,9.91911c0,5.75163 -8.70871,10.00309 -20.71189,10.01733c-12.00318,0.01423 -20.71188,-4.46661 -20.71188,-9.96822zM236.59215,184.25729l-2.4717,-2.22191l-6.32831,1.75066l3.13547,3.39356l-5.78465,2.23854l5.37112,3.23263l-2.10975,2.13469l6.76163,0.5202l3.20958,2.77184c0,0 3.57637,-1.62805 4.77841,-1.72971c1.01638,-0.08596 6.2125,-0.47506 6.2125,-0.47506l0.0643,-3.42385l5.71044,-0.33776l-4.29085,-3.36342l5.81361,-1.02562l-4.12977,-3.05217l-7.0665,1.04883l-1.74725,-3.47774z" fill="#ffffff" stroke="#000000" stroke-width="0" stroke-linejoin="miter"/><g><path d="M235.41885,192.13381v-4.51762h9.38667v4.51762z" fill="#ffffff" stroke="#ffffff" stroke-width="2" stroke-linejoin="round"/><path d="M237.3574,191.22375v-2.71058h5.632v2.71058z" fill="#000000" stroke="none" stroke-width="1" stroke-linejoin="miter"/></g><path d="M219.4003,189.87501c0,-5.5053 9.27304,-9.96822 20.71188,-9.96822c11.43887,0 20.71189,4.46293 20.71189,9.96822c0,5.5053 -9.27303,9.96821 -20.71189,9.96821c-11.43887,0 -20.71188,-4.46293 -20.71188,-9.96821z" fill="none" stroke="#000000" stroke-width="2" stroke-linejoin="miter"/></g></g></svg>