<svg version="1.1" xmlns="http://www.w3.org/2000/svg" xmlns:xlink="http://www.w3.org/1999/xlink" width="44" height="55.50911" viewBox="0,0,44,55.50911"><g transform="translate(-218,-124.49088)"><g data-paper-data="{&quot;isPaintingLayer&quot;:true}" fill-rule="nonzero" stroke-miterlimit="10" stroke-dasharray="" stroke-dashoffset="0" style="mix-blend-mode: normal"><g stroke-linecap="butt"><g><path d="M258.07578,138.01605c-2.0194,6.58742 -6.723,8.28332 -11.50343,6.81786c-4.78043,-1.46545 -7.72549,-5.50608 -5.70609,-12.0935c1.79078,-5.84167 8.11347,-5.99529 10.39554,-3.20386c3.45443,-1.03289 8.60476,2.63782 6.81397,8.47949z" fill="#ffff24" stroke="#000000" stroke-width="2" stroke-linejoin="round"/><path d="M254.16139,125.19577c-0.36637,1.1951 -2.89959,4.34078 -2.89959,4.34078" fill="none" stroke="#000000" stroke-width="2" stroke-linejoin="round"/><path d="M243.39685,131.30925c0.48561,-1.58409 2.16343,-2.47459 3.74752,-1.98898c1.58409,0.48561 2.47459,2.16344 1.98898,3.74753c-0.48561,1.58409 -2.16343,2.47459 -3.74752,1.98898c-1.58409,-0.48561 -2.47459,-2.16344 -1.98898,-3.74753z" fill="#ffffff" stroke="none" stroke-width="1" stroke-linejoin="miter"/></g><g><path d="M238.71194,132.02758c2.78372,6.30262 0.3368,10.66296 -4.23694,12.68308c-4.57375,2.02012 -9.44481,0.89196 -12.22853,-5.41065c-2.46858,-5.58911 2.21186,-9.84275 5.76415,-9.22533c1.9362,-3.04156 8.23273,-3.63621 10.70132,1.9529z" fill="#ffff24" stroke="#000000" stroke-width="2" stroke-linejoin="round"/><path d="M227.36262,124.8949c0.50503,1.14343 0.648,5.17978 0.648,5.17978" fill="none" stroke="#000000" stroke-width="2" stroke-linejoin="round"/><path d="M223.22347,136.56184c-0.66941,-1.5156 0.01658,-3.28691 1.53218,-3.95631c1.5156,-0.66941 3.28691,0.01656 3.95631,1.53217c0.66941,1.5156 -0.01657,3.28691 -1.53218,3.95632c-1.5156,0.66941 -3.28691,-0.01657 -3.95632,-1.53217z" fill="#ffffff" stroke="none" stroke-width="1" stroke-linejoin="miter"/></g></g><path d="M261,165.42758v13.57241h-42v-13.57241h32v-2.90838c0,-1.07083 0.89543,-1.93892 2,-1.93892h3c1.10457,0 2,0.86807 2,1.93892v2.90838z" fill="#828212" stroke="#000000" stroke-width="2" stroke-linecap="butt" stroke-linejoin="miter"/><g stroke="none" stroke-linecap="butt" stroke-linejoin="miter"><path d="M261,165.4854h-42v-20.05628c0,-3.02092 2.68629,-5.46991 6,-5.46991h30c3.31371,0 6,2.44895 6,5.46991z" fill="#9500ff" stroke-width="1"/><path d="M262,166.39704h-44v-20.96794c0,-3.52442 3.13401,-6.38155 7,-6.38155h30c3.86599,0 7,2.85713 7,6.38155zM220,164.57375h40v-19.14465c0,-2.51744 -2.23858,-4.55826 -5,-4.55826h-30c-2.76143,0 -5,2.04079 -5,4.55826z" fill="#000000" stroke-width="1"/><path d="M219.95268,145.41187c0,-2.51744 2.24569,-4.57275 5.00712,-4.57275h30.0804c2.76142,0 5.00712,2.05531 5.00712,4.57275l-0.0036,19.1878h-40.08745z" data-paper-data="{&quot;noHover&quot;:false,&quot;origItem&quot;:[&quot;Path&quot;,{&quot;applyMatrix&quot;:true,&quot;segments&quot;:[[220,164.29333],[260,164.29333],[[260,146.37333],[0,0],[0,-2.35642]],[[255,142.10666],[2.76142,0],[0,0]],[[225,142.10666],[0,0],[-2.76143,0]],[[220,146.37333],[0,-2.35642],[0,0]]],&quot;closed&quot;:true,&quot;fillColor&quot;:[0,0,0,1]}]}" fill="#ffff24" stroke-width="0.5"/></g><path d="M253.3,158.69954h-10.4" fill="none" stroke="#000000" stroke-width="2" stroke-linecap="round" stroke-linejoin="miter"/></g></g></svg>