<svg version="1.1" xmlns="http://www.w3.org/2000/svg" xmlns:xlink="http://www.w3.org/1999/xlink" width="102.1724" height="203.41666" viewBox="0,0,102.1724,203.41666"><g transform="translate(-188.9138,-27.58339)"><g data-paper-data="{&quot;isPaintingLayer&quot;:true}" fill-rule="nonzero" stroke-linecap="butt" stroke-miterlimit="10" stroke-dasharray="" stroke-dashoffset="0" style="mix-blend-mode: normal"><path d="M226.23256,153.00005v-125.41666h27.53488v125.41667z" fill="#000000" stroke="none" stroke-width="NaN" stroke-linejoin="miter"/><path d="M221.5,141.50001v-13h37v13z" fill="#000000" stroke="none" stroke-width="0" stroke-linejoin="miter"/><path d="M221.5,121.50003v-13h37v13z" fill="#000000" stroke="none" stroke-width="0" stroke-linejoin="miter"/><path d="M221.5,96.50003v-13h37v13z" fill="#000000" stroke="none" stroke-width="0" stroke-linejoin="miter"/><path d="M221.5,76.50002v-13h37v13z" fill="#000000" stroke="none" stroke-width="0" stroke-linejoin="miter"/><path d="M221.5,51.50004v-13h37v13z" fill="#000000" stroke="none" stroke-width="0" stroke-linejoin="miter"/><g><path d="M209,211.00005v-62h62v62z" fill="none" stroke="#000000" stroke-width="4" stroke-linejoin="round"/><path d="M209,211.00005v-62h62v62z" fill="#4138b5" stroke="none" stroke-width="1" stroke-linejoin="miter"/></g><path d="M218,202.00002v-44h44v44z" fill="#4239c4" stroke="none" stroke-width="1" stroke-linejoin="miter"/><g><path d="M254.09,213.00005h16l-8,16z" fill="none" stroke="#000000" stroke-width="4" stroke-linejoin="round"/><path d="M254.09,213.00005h16l-8,16z" fill="#b3b3b3" stroke="none" stroke-width="1" stroke-linejoin="miter"/></g><g><path d="M210.09,213.00005h16l-8,16z" fill="none" stroke="#000000" stroke-width="4" stroke-linejoin="round"/><path d="M210.09,213.00005h16l-8,16z" fill="#b3b3b3" stroke="none" stroke-width="1" stroke-linejoin="miter"/></g><g><path d="M232.09,213.00005h16l-8,16z" fill="none" stroke="#000000" stroke-width="4" stroke-linejoin="round"/><path d="M232.09,213.00005h16l-8,16z" fill="#b3b3b3" stroke="none" stroke-width="1" stroke-linejoin="miter"/></g><g><path d="M273.0862,165.91001v-16l16,8z" fill="none" stroke="#000000" stroke-width="4" stroke-linejoin="round"/><path d="M273.0862,165.91001v-16l16,8z" fill="#b3b3b3" stroke="none" stroke-width="1" stroke-linejoin="miter"/></g><g><path d="M273.0862,209.91003v-16l16,8z" fill="none" stroke="#000000" stroke-width="4" stroke-linejoin="round"/><path d="M273.0862,209.91003v-16l16,8z" fill="#b3b3b3" stroke="none" stroke-width="1" stroke-linejoin="miter"/></g><g><path d="M273.0862,187.91003v-16l16,8z" fill="none" stroke="#000000" stroke-width="4" stroke-linejoin="round"/><path d="M273.0862,187.91003v-16l16,8z" fill="#b3b3b3" stroke="none" stroke-width="1" stroke-linejoin="miter"/></g><g><path d="M206.9138,194.09003v16l-16,-8z" fill="none" stroke="#000000" stroke-width="4" stroke-linejoin="round"/><path d="M206.9138,194.09003v16l-16,-8z" fill="#b3b3b3" stroke="none" stroke-width="1" stroke-linejoin="miter"/></g><g><path d="M206.9138,150.09003v16l-16,-8z" fill="none" stroke="#000000" stroke-width="4" stroke-linejoin="round"/><path d="M206.9138,150.09003v16l-16,-8z" fill="#b3b3b3" stroke="none" stroke-width="1" stroke-linejoin="miter"/></g><g><path d="M206.9138,172.09003v16l-16,-8z" fill="none" stroke="#000000" stroke-width="4" stroke-linejoin="round"/><path d="M206.9138,172.09003v16l-16,-8z" fill="#b3b3b3" stroke="none" stroke-width="1" stroke-linejoin="miter"/></g><path d="M261,201.00002h-42v-1l21,1l21,-1z" fill="#ffffff" stroke="#000000" stroke-width="2" stroke-linejoin="round"/></g></g></svg>