<svg version="1.1" xmlns="http://www.w3.org/2000/svg" xmlns:xlink="http://www.w3.org/1999/xlink" width="62.33334" height="62.03251" viewBox="0,0,62.33334,62.03251"><g transform="translate(-208.66667,-148.96752)"><g data-paper-data="{&quot;isPaintingLayer&quot;:true}" fill-rule="nonzero" stroke="none" stroke-linecap="butt" stroke-miterlimit="10" stroke-dasharray="" stroke-dashoffset="0" style="mix-blend-mode: normal"><path d="M271.00001,148.96752v62h-62v-62z" data-paper-data="{&quot;index&quot;:null}" fill="#39b54a" stroke-width="0" stroke-linejoin="round"/><path d="M262.00001,157.96752v44h-44v-44z" data-paper-data="{&quot;index&quot;:null}" fill="#3ac54d" stroke-width="1" stroke-linejoin="miter"/><g data-paper-data="{&quot;index&quot;:null}" stroke-width="0" stroke-linejoin="round"><path d="M215.50818,188.98236l4.38202,-4.51004l4.84518,12.16317l8.05659,-0.14918l-4.66412,9.47668l12.91978,5.03704l-32.04762,-0.0325v-31.91988z" fill="#00ffff"/><path d="M215.50818,193.4491l4.38202,-3.59373l6.51185,11.0253l-2.2742,5.57844l9.68169,4.40704l-24.80953,0.10138v-25.43471z" fill="#a3ffff"/><path d="M215.17484,197.06049l4.38202,-2.85289l4.84518,8.02733l-5.78117,4.39077l10.09341,4.15044l-20.04761,0.19139v-20.19139z" fill="#ffffff"/></g><path d="M208.66668,180.88742v-31.91988h62v31.91988l-16.71247,-11.88213l-7.93777,9.33262l-9.22192,-20.36584l-3.66921,15.47668l-8.72326,-10.14918l-4.84518,12.16317l-4.38202,-4.51004z" fill="#00ffff" stroke-width="0" stroke-linejoin="round"/><path d="M208.66668,174.40225v-25.43471h62v25.43471l-16.71247,-9.46804l-7.93777,7.43652l-9.22192,-16.22811l-3.66921,12.33228l-8.72326,-8.08717l-4.84518,9.69197l-4.38202,-3.59373z" fill="#a3ffff" stroke-width="0" stroke-linejoin="round"/><path d="M217.66668,173.54321v-15.85163h44v16.95549l-7.57605,-5.23073l-7.85727,10.42843l-9.04288,-18.89686l-2.43264,11.51231l-2.95861,2.70863l-6.44782,-9.56087l-3.96322,11.98941z" fill="#b8ffff" stroke-width="1" stroke-linejoin="miter"/><path d="M208.66668,169.15893v-20.19139h62v20.19139l-16.71247,-7.51622l-7.93777,5.90349l-8.53201,-8.74325l-4.35912,5.65054l-8.72326,-6.42001l-4.84518,7.69399l-4.38202,-2.85289z" fill="#ffffff" stroke-width="0" stroke-linejoin="round"/></g></g></svg>