<svg version="1.1" xmlns="http://www.w3.org/2000/svg" xmlns:xlink="http://www.w3.org/1999/xlink" width="72" height="398.50404" viewBox="0,0,72,398.50404"><g transform="translate(-204,-150)"><g data-paper-data="{&quot;isPaintingLayer&quot;:true}" fill="#a3d6c1" fill-rule="nonzero" stroke="none" stroke-width="1" stroke-linecap="butt" stroke-linejoin="miter" stroke-miterlimit="10" stroke-dasharray="" stroke-dashoffset="0" style="mix-blend-mode: normal"><path d="M210,180.50404h1.51c-0.00193,-0.13654 0.02182,-0.27223 0.07,-0.4l5,-11.5c0.15709,-0.36875 0.51918,-0.60808 0.92,-0.60808c0.40082,0 0.76291,0.23933 0.92,0.60808l5,11.5c0.04818,0.12777 0.07193,0.26346 0.07,0.4h3c-0.00193,-0.13654 0.02182,-0.27223 0.07,-0.4l5,-11.5c0.15709,-0.36875 0.51918,-0.60808 0.92,-0.60808c0.40082,0 0.76291,0.23933 0.92,0.60808l5,11.5c0.04818,0.12777 31.6,0.4 31.6,0.4c3.31371,0 6,2.68629 6,6v362h-72v-362c0,-3.31371 2.68629,-6 6,-6z" data-paper-data="{&quot;index&quot;:null}"/><path d="M270.85713,150c2.84033,0 5.14286,2.68629 5.14286,6v362h-36v-362c0,-3.31371 2.30254,-6 5.14286,-6h25.71429z" data-paper-data="{&quot;index&quot;:null}"/></g></g></svg>