<svg version="1.1" xmlns="http://www.w3.org/2000/svg" xmlns:xlink="http://www.w3.org/1999/xlink" width="68" height="87.69819" viewBox="0,0,68,87.69819"><g transform="translate(-206.6,-123.8)"><g data-paper-data="{&quot;isPaintingLayer&quot;:true}" fill-rule="nonzero" stroke-linecap="butt" stroke-miterlimit="10" stroke-dasharray="" stroke-dashoffset="0" style="mix-blend-mode: normal"><g><path d="M209.29157,209.92736l15.70843,-84.12736l16.12912,84.23347" fill="none" stroke="#000000" stroke-width="4" stroke-linejoin="round"/><path d="M225,125.8l16.12904,84.23347c-0.78006,0.05815 -1.54982,0.12692 -2.30678,0.20779c-4.77301,0.50991 -9.46882,1.40516 -14.3327,1.23596c-2.89056,-0.10056 -5.44495,-0.43027 -8.13898,-1.16899c-1.6568,-0.4543 -3.46646,-1.82736 -5.03115,-1.11803c-0.58833,0.26671 -1.29673,0.49932 -2.02784,0.73716z" fill="#b3b3b3" stroke="none" stroke-width="1" stroke-linejoin="miter"/></g><g><path d="M239.24106,210.19788l15.75894,-84.39788l16.19507,84.57785" fill="none" stroke="#000000" stroke-width="4" stroke-linejoin="round"/><path d="M255,125.8l16.19498,84.57783c-2.66914,-0.50808 -6.18905,-0.35146 -7.90081,-0.38375c-7.57627,-0.14295 -16.43249,-0.5614 -24.0531,0.2038z" fill="#b3b3b3" stroke="none" stroke-width="1" stroke-linejoin="miter"/></g><g><path d="M241.4,207h-32.8z" fill="none" stroke="#000000" stroke-width="4" stroke-linejoin="round"/><path d="M241.4,207h-32.8z" fill="#b3b3b3" stroke="none" stroke-width="1" stroke-linejoin="miter"/></g><g><path d="M237.4,207h35.2z" fill="none" stroke="#000000" stroke-width="4" stroke-linejoin="round"/><path d="M237.4,207h35.2z" fill="#b3b3b3" stroke="none" stroke-width="1" stroke-linejoin="miter"/></g></g></g></svg>