<svg version="1.1" xmlns="http://www.w3.org/2000/svg" xmlns:xlink="http://www.w3.org/1999/xlink" width="61.65099" height="37.30365" viewBox="0,0,61.65099,37.30365"><defs><radialGradient cx="213.21429" cy="177.21429" r="29.82549" gradientUnits="userSpaceOnUse" id="color-1"><stop offset="0" stop-color="#ffff00"/><stop offset="1" stop-color="#0025ff"/></radialGradient><radialGradient cx="240.5" cy="166.78571" r="14.91039" gradientUnits="userSpaceOnUse" id="color-2"><stop offset="0" stop-color="#840000"/><stop offset="1" stop-color="#c8d038"/></radialGradient></defs><g transform="translate(-194.08785,-150.44034)"><g data-paper-data="{&quot;isPaintingLayer&quot;:true}" fill-rule="nonzero" stroke-linecap="butt" stroke-miterlimit="10" stroke-dasharray="" stroke-dashoffset="0" style="mix-blend-mode: normal"><path d="M224.86429,187.26787c0,0.37149 -0.58451,0.37149 -0.58451,0.37149l-0.27505,-0.00721c-2.3276,0.2898 -4.85765,-0.04176 -7.14885,-0.33544c-2.25075,-0.48091 -2.97084,-1.80858 -1.25566,-2.9613c-0.83801,-0.62575 -0.43982,-1.38159 0.47932,-2.01701c-1.89558,-0.50333 -1.98703,-1.98577 -0.21269,-2.85578c1.81915,-0.89199 6.00971,-1.06144 8.11044,-0.54743c0,0 0.5427,0.13797 0.32562,0.48289c-0.21709,0.34493 -0.75978,0.20695 -0.75978,0.20695c-1.72593,-0.46173 -4.75067,-0.16415 -6.45635,0.24924c-1.35977,0.32955 -2.01509,1.6358 -0.28307,1.843c0.13607,0 0.27203,0.00221 0.40792,0.00624c0.44555,-0.19343 0.9284,-0.35797 1.41169,-0.48071c1.08799,-0.2305 8.27851,-1.26168 6.54061,0.79456c-1.10964,1.3129 -5.42815,0.61629 -7.73741,0.45131c-0.9121,0.41376 -1.51784,0.93878 -0.84969,1.40869c2.69165,-0.90597 8.4302,-0.98495 8.83872,0.78973c-2.15939,0.51818 -5.67989,0.9086 -7.96215,0.39021c-0.39496,-0.08972 -0.73241,-0.18831 -1.01745,-0.294c-0.82048,0.59183 -0.79423,1.49801 0.71997,1.81531c2.10477,0.26504 4.48277,0.60325 6.61954,0.32498l0.5043,-0.00721c0,0 0.58451,0 0.58451,0.37149zM217.59441,184.29356c0.08307,0.02248 0.17066,0.04466 0.26291,0.06651c1.46258,0.34634 3.33756,-0.06037 4.93841,-0.16696c-0.07622,-0.0125 -0.13819,-0.02225 -0.18002,-0.02712c-1.50347,-0.17509 -3.22808,-0.08566 -4.71993,0.08194c-0.10357,0.01164 -0.20411,0.02696 -0.30138,0.04563zM219.3152,181.86029c1.09455,0.10341 2.19354,0.19862 3.31226,0.08762c0.03128,-0.00311 1.74225,-0.2489 1.62586,-0.40882c-0.4013,-0.55137 -3.79351,0.08815 -4.93813,0.32119z" fill="#000000" stroke="none" stroke-width="0.5" stroke-linejoin="miter"/><path d="M213.00001,180.12691v-2.10278h14.02817v2.10278z" fill="#0025ff" stroke="#000000" stroke-width="2" stroke-linejoin="miter"/><path d="M246.40755,187.26787c0,0.37149 -0.58451,0.37149 -0.58451,0.37149l-0.27505,-0.00721c-2.3276,0.2898 -4.85765,-0.04176 -7.14885,-0.33544c-2.25075,-0.48091 -2.97084,-1.80858 -1.25566,-2.9613c-0.83801,-0.62575 -0.43982,-1.38159 0.47932,-2.01701c-1.89558,-0.50333 -1.98703,-1.98577 -0.21269,-2.85578c1.81915,-0.89199 6.00971,-1.06144 8.11044,-0.54743c0,0 0.5427,0.13797 0.32562,0.48289c-0.21709,0.34493 -0.75978,0.20695 -0.75978,0.20695c-1.72593,-0.46173 -4.75067,-0.16415 -6.45635,0.24924c-1.35977,0.32955 -2.01509,1.6358 -0.28307,1.843c0.13607,0 0.27203,0.00221 0.40792,0.00624c0.44555,-0.19343 0.9284,-0.35797 1.41169,-0.48071c1.08799,-0.2305 8.27851,-1.26168 6.54061,0.79456c-1.10964,1.3129 -5.42815,0.61629 -7.73741,0.45131c-0.9121,0.41376 -1.51784,0.93878 -0.84969,1.40869c2.69165,-0.90597 8.4302,-0.98495 8.83872,0.78973c-2.15939,0.51818 -5.67989,0.9086 -7.96215,0.39021c-0.39496,-0.08972 -0.73241,-0.18831 -1.01745,-0.294c-0.82048,0.59183 -0.79423,1.49801 0.71997,1.81531c2.10477,0.26504 4.48277,0.60325 6.61954,0.32498l0.5043,-0.00721c0,0 0.58451,0 0.58451,0.37149zM239.13767,184.29356c0.08307,0.02248 0.17066,0.04466 0.26291,0.06651c1.46258,0.34634 3.33756,-0.06037 4.93841,-0.16696c-0.07622,-0.0125 -0.13819,-0.02225 -0.18002,-0.02712c-1.50347,-0.17509 -3.22808,-0.08566 -4.71993,0.08194c-0.10357,0.01164 -0.20411,0.02696 -0.30138,0.04563zM240.85846,181.86029c1.09455,0.10341 2.19354,0.19862 3.31226,0.08762c0.03128,-0.00311 1.74225,-0.2489 1.62586,-0.40882c-0.4013,-0.55137 -3.79351,0.08815 -4.93813,0.32119z" fill="#000000" stroke="none" stroke-width="0.5" stroke-linejoin="miter"/><path d="M234.54327,180.12691v-2.10278h14.02817v2.10278z" fill="#0025ff" stroke="#000000" stroke-width="2" stroke-linejoin="miter"/><path d="M237.50001,164.41641v-5.20093h5v5.20093z" fill="#ff0000" stroke="#000000" stroke-width="2" stroke-linejoin="miter"/><path d="M232.98592,156.65173c0,-2.87817 3.14031,-5.21139 7.01408,-5.21139c3.87378,0 7.01409,2.33322 7.01409,5.21139c0,2.87817 -3.14031,5.21139 -7.01409,5.21139c-3.87378,0 -7.01408,-2.33322 -7.01408,-5.21139z" fill="#ff0000" stroke="#000000" stroke-width="2" stroke-linejoin="miter"/><path d="M195.09728,178.94869c-0.62303,0.16863 29.82077,-5.57195 29.82077,-5.57195h29.82078v5.44237c0,0 -59.22437,0.01666 -59.64155,0.12958z" fill="url(#color-1)" stroke="#000000" stroke-width="2" stroke-linejoin="miter"/><path d="M233.43828,164.95403h12.78034c4.70559,0 8.52022,1.641 8.52022,3.66527v4.88702h-29.82078v-4.88702c0,-2.02427 3.81463,-3.66527 8.52022,-3.66527z" fill="url(#color-2)" stroke="#000000" stroke-width="2" stroke-linejoin="miter"/><path d="M242.66852,171.17387v-3.88741h7.10019v3.88741z" fill="#ffffff" stroke="#ffffff" stroke-width="2" stroke-linejoin="round"/><path d="M245.5086,170.3964v-2.33245h4.26011v2.33245z" fill="#000000" stroke="none" stroke-width="1" stroke-linejoin="miter"/></g></g></svg>