<svg version="1.1" xmlns="http://www.w3.org/2000/svg" xmlns:xlink="http://www.w3.org/1999/xlink" width="60.62635" height="62.41549" viewBox="0,0,60.62635,62.41549"><g transform="translate(-203.62365,-146.04225)"><g data-paper-data="{&quot;isPaintingLayer&quot;:true}" fill-rule="nonzero" stroke-linecap="butt" stroke-miterlimit="10" stroke-dasharray="" stroke-dashoffset="0" style="mix-blend-mode: normal"><g><path d="M222.46285,167.00776l-5.28949,10.60386l-9.54971,-11.38485z" fill="none" stroke="#000000" stroke-width="8" stroke-linejoin="round"/><path d="M222.46285,167.00776l-5.28949,10.60386l-9.54971,-11.38485z" fill="#b3b3b3" stroke="none" stroke-width="1" stroke-linejoin="miter"/></g><g><path d="M238.202,163.66966h-11.84992l5.92496,-13.62741z" fill="none" stroke="#000000" stroke-width="8" stroke-linejoin="round"/><path d="M238.202,163.66966h-11.84992l5.92496,-13.62741z" fill="#b3b3b3" stroke="none" stroke-width="1" stroke-linejoin="miter"/></g><g><path d="M255.97686,163.66966h-11.84992l5.92496,-13.62741z" fill="none" stroke="#000000" stroke-width="8" stroke-linejoin="round"/><path d="M255.97686,163.66966h-11.84992l5.92496,-13.62741z" fill="#b3b3b3" stroke="none" stroke-width="1" stroke-linejoin="miter"/></g><path d="M218.25827,206.45775v-14.49724h43.49174v14.49724z" fill="#ff0000" stroke="#000000" stroke-width="4" stroke-linejoin="miter"/><g><path d="M231.18448,163.21601h18.63932c6.86281,0 12.42621,5.5634 12.42621,12.42621v16.56829h-43.49174v-16.56829c0,-6.86281 5.5634,-12.42621 12.42621,-12.42621z" fill="#ff7800" stroke="#000000" stroke-width="4" stroke-linejoin="miter"/><path d="M241.53966,183.92636v-10.35518h10.35518v10.35518z" fill="#ffffff" stroke="#ffffff" stroke-width="2" stroke-linejoin="round"/><path d="M245.68173,181.85532v-6.2131h6.21311v6.2131z" fill="#000000" stroke="none" stroke-width="1" stroke-linejoin="miter"/></g></g></g></svg>