<svg version="1.1" xmlns="http://www.w3.org/2000/svg" xmlns:xlink="http://www.w3.org/1999/xlink" width="62.2" height="62.00002" viewBox="0,0,62.2,62.00002"><g transform="translate(-208.8,-149.00005)"><g data-paper-data="{&quot;isPaintingLayer&quot;:true}" fill-rule="nonzero" stroke="none" stroke-width="0" stroke-linecap="butt" stroke-linejoin="round" stroke-miterlimit="10" stroke-dasharray="" stroke-dashoffset="0" style="mix-blend-mode: normal"><path d="M209,211.00007v-62h62v62z" fill="#5600ac"/><path d="M271,211.00005h-27.1684c0,0 2.3449,-2.31273 2.11876,-5.45017c-0.27963,-3.87948 -8.71807,-3.81927 -9.5057,-9.96869c-0.16859,-1.31633 10.37305,-3.10384 10.35932,-4.56927c-0.02318,-2.47339 -2.78142,-6.06108 -3.1958,-8.7227c-0.29374,-1.88674 4.01661,-6.05459 3.74846,-7.87582c-0.25944,-1.76208 -5.04411,-3.80346 -4.5714,-5.61137c0.47089,-1.80091 6.19994,-3.36943 5.54009,-4.57937c-1.75482,-3.21769 -7.65238,-4.24252 -7.65238,-6.04514c0,-1.68929 2.66864,-3.72374 3.24364,-5.23459c0.92016,-2.41778 -0.08499,-3.94287 -0.08499,-3.94287h27.1684z" fill="#6200c5"/><path d="M208.8,149.00007h27.1684c0,0 -2.3449,2.31273 -2.11876,5.45017c0.27963,3.87948 8.71807,3.81927 9.5057,9.96869c0.16859,1.31633 -10.37305,3.10384 -10.35932,4.56927c0.02318,2.47339 2.78142,6.06108 3.1958,8.7227c0.29374,1.88674 -4.01661,6.05459 -3.74846,7.87582c0.25944,1.76208 5.04411,3.80346 4.5714,5.61137c-0.47089,1.80091 -6.19994,3.36943 -5.54009,4.57937c1.75482,3.21769 7.65238,4.24252 7.65238,6.04514c0,1.68929 -2.66864,3.72374 -3.24364,5.23459c-0.92016,2.41778 0.08499,3.94287 0.08499,3.94287h-27.1684z" fill="#6200c5"/><path d="M270.99999,149.00007v27.1684c0,0 -2.31273,-2.3449 -5.45017,-2.11876c-3.87948,0.27963 -3.81927,8.71807 -9.96869,9.5057c-1.31633,0.16859 -3.10384,-10.37305 -4.56927,-10.35932c-2.47339,0.02318 -6.06108,2.78142 -8.7227,3.1958c-1.88674,0.29374 -6.05459,-4.01661 -7.87582,-3.74846c-1.76208,0.25944 -3.80346,5.04411 -5.61137,4.5714c-1.80091,-0.47089 -3.36943,-6.19994 -4.57937,-5.54009c-3.21769,1.75482 -4.24252,7.65238 -6.04514,7.65238c-1.68929,0 -3.72374,-2.66864 -5.23459,-3.24364c-2.41778,-0.92016 -3.94287,0.08499 -3.94287,0.08499v-27.1684z" fill="#6200c5"/><path d="M209,169.69677v-20.6967h62v20.6967c0,0 -3.65359,-2.56946 -8.51529,-1.52383c-1.7735,0.38144 -3.62479,5.06099 -5.63587,5.10549c-2.3841,0.05275 -3.82498,-2.97607 -6.51063,-2.97772c-0.54021,-0.00034 -1.94375,-1.91196 -2.48662,-1.90592c-0.70097,0.00779 -1.2125,3.55008 -1.9152,3.54295c-1.12519,-0.01141 -3.29407,2.04561 -4.39007,1.95291c-1.42138,-0.12022 -2.24144,-6.18065 -3.58664,-6.31229c-1.02538,-0.10034 -2.49819,3.50868 -3.45107,3.35821c-1.08156,-0.17078 -0.5877,-4.46653 -1.56794,-4.65599c-2.32817,-0.45 -4.05397,1.83294 -5.57465,1.07147c-0.78388,-0.39252 -1.64178,-2.09799 -2.48327,-2.078c-1.47035,0.03492 -2.40608,5.71491 -3.74603,5.74481c-0.95929,0.0214 -1.1169,-2.72664 -1.99777,-2.69196c-4.90839,0.19328 -6.20501,3.95422 -7.85307,3.95422c-1.7971,0 -2.28587,-2.58435 -2.28587,-2.58435z" fill="#6f00de"/><path d="M209.00001,211.00007v-27.1684c0,0 2.31273,2.3449 5.45017,2.11876c3.87948,-0.27963 3.81927,-8.71807 9.96869,-9.5057c1.31633,-0.16859 3.10384,10.37305 4.56927,10.35932c2.47339,-0.02318 6.06108,-2.78142 8.7227,-3.1958c1.88674,-0.29374 6.05459,4.01661 7.87582,3.74846c1.76208,-0.25944 3.80346,-5.04411 5.61137,-4.5714c1.80091,0.47089 3.36943,6.19994 4.57937,5.54009c3.21769,-1.75482 4.24252,-7.65238 6.04514,-7.65238c1.68929,0 3.72374,2.66864 5.23459,3.24364c2.41778,0.92016 3.94287,-0.08499 3.94287,-0.08499v27.1684z" fill="#6200c5"/><path d="M250.3033,149.00005h20.6967v62h-20.6967c0,0 2.56946,-3.65359 1.52383,-8.51529c-0.38144,-1.7735 -5.06099,-3.62479 -5.10549,-5.63587c-0.05275,-2.3841 2.97607,-3.82498 2.97772,-6.51063c0.00034,-0.54021 1.91196,-1.94375 1.90592,-2.48662c-0.00779,-0.70097 -3.55008,-1.2125 -3.54295,-1.9152c0.01141,-1.12519 -2.04561,-3.29407 -1.95291,-4.39007c0.12022,-1.42138 6.18065,-2.24144 6.31229,-3.58664c0.10034,-1.02538 -3.50868,-2.49819 -3.35821,-3.45107c0.17078,-1.08156 4.46653,-0.5877 4.65599,-1.56794c0.45,-2.32817 -1.83294,-4.05397 -1.07147,-5.57465c0.39252,-0.78388 2.09799,-1.64178 2.078,-2.48327c-0.03492,-1.47035 -5.71491,-2.40608 -5.74481,-3.74603c-0.0214,-0.95929 2.72664,-1.1169 2.69196,-1.99777c-0.19328,-4.90839 -3.95422,-6.20501 -3.95422,-7.85307c0,-1.7971 2.58435,-2.28587 2.58435,-2.28587z" fill="#6f00de"/><path d="M229.6967,211.00006h-20.6967v-62h20.6967c0,0 -2.56946,3.65359 -1.52383,8.51529c0.38144,1.7735 5.06099,3.62479 5.10549,5.63587c0.05275,2.3841 -2.97607,3.82498 -2.97772,6.51063c-0.00034,0.54021 -1.91196,1.94375 -1.90592,2.48662c0.00779,0.70097 3.55008,1.2125 3.54295,1.9152c-0.01141,1.12519 2.04561,3.29407 1.95291,4.39007c-0.12022,1.42138 -6.18065,2.24144 -6.31229,3.58664c-0.10034,1.02538 3.50868,2.49819 3.35821,3.45107c-0.17078,1.08156 -4.46653,0.5877 -4.65599,1.56794c-0.45,2.32817 1.83294,4.05397 1.07147,5.57465c-0.39252,0.78388 -2.09799,1.64178 -2.078,2.48327c0.03492,1.47035 5.71491,2.40608 5.74481,3.74603c0.0214,0.95929 -2.72664,1.1169 -2.69196,1.99777c0.19328,4.90839 3.95422,6.20501 3.95422,7.85307c0,1.7971 -2.58435,2.28587 -2.58435,2.28587z" fill="#6f00de"/><path d="M209,163.45538v-14.45531h62v14.45531c0,0 -1.92377,-5.70759 -3.62419,-4.78583c-1.32342,0.7174 -4.20432,4.49663 -8.28417,5.03068c-1.80633,0.23645 -2.90812,-6.04103 -5.1095,-7.81556c-1.19188,-0.96077 -3.5411,6.25355 -4.98693,6.29603c-2.10804,0.06193 -3.37325,-6.71695 -5.25622,-6.69156c-1.12318,0.01514 -2.48079,6.1653 -3.77979,7.42389c-1.20932,1.1717 -2.32707,-3.71486 -3.493,-4.00752c-0.98932,-0.24833 -2.04013,4.151 -2.92942,4.28642c-1.44103,0.21944 -4.86704,-5.92274 -6.24655,-5.78494c-2.48124,0.24786 -5.41923,7.4705 -7.44915,7.98648c-1.23088,0.31288 -2.35514,-2.50234 -3.37369,-2.46581c-1.20365,0.04317 -2.73826,2.39321 -3.64821,2.44861c-2.88125,0.17539 -3.81918,-1.92089 -3.81918,-1.92089z" fill="#8000ff"/><path d="M271,190.30337v20.6967h-62v-20.6967c0,0 3.65359,2.56946 8.51529,1.52383c1.7735,-0.38144 3.62479,-5.06099 5.63587,-5.10549c2.3841,-0.05275 3.82498,2.97607 6.51063,2.97772c0.54021,0.00034 1.94375,1.91196 2.48662,1.90592c0.70097,-0.00779 1.2125,-3.55008 1.9152,-3.54295c1.12519,0.01141 3.29407,-2.04561 4.39007,-1.95291c1.42138,0.12022 2.24144,6.18065 3.58664,6.31229c1.02538,0.10034 2.49819,-3.50868 3.45107,-3.35821c1.08156,0.17078 0.5877,4.46653 1.56794,4.65599c2.32817,0.45 4.05397,-1.83294 5.57465,-1.07147c0.78388,0.39252 1.64178,2.09799 2.48327,2.078c1.47035,-0.03492 2.40608,-5.71491 3.74603,-5.74481c0.95929,-0.0214 1.1169,2.72664 1.99777,2.69196c4.90839,-0.19328 6.20501,-3.95422 7.85307,-3.95422c1.7971,0 2.28587,2.58435 2.28587,2.58435z" fill="#6f00de"/><path d="M271,196.54475v14.45531h-62v-14.45531c0,0 1.92377,5.70759 3.62419,4.78583c1.32342,-0.7174 4.20432,-4.49663 8.28417,-5.03068c1.80633,-0.23645 2.90812,6.04103 5.1095,7.81556c1.19188,0.96077 3.5411,-6.25355 4.98693,-6.29603c2.10804,-0.06193 3.37325,6.71695 5.25622,6.69156c1.12318,-0.01514 2.48079,-6.1653 3.77979,-7.42389c1.20932,-1.1717 2.32707,3.71486 3.493,4.00752c0.98932,0.24833 2.04013,-4.151 2.92942,-4.28642c1.44103,-0.21944 4.86704,5.92274 6.24655,5.78494c2.48124,-0.24786 5.41923,-7.4705 7.44915,-7.98648c1.23088,-0.31288 2.35514,2.50234 3.37369,2.46581c1.20365,-0.04317 2.73826,-2.39321 3.64821,-2.44861c2.88125,-0.17539 3.81918,1.92089 3.81918,1.92089z" fill="#8000ff"/><path d="M223.25531,211.00006h-14.45531v-62h14.45531c0,0 -5.70759,1.92377 -4.78583,3.62419c0.7174,1.32342 1.69663,8.20432 2.23068,12.28417c0.23645,1.80633 -3.24103,-1.09188 -5.01556,1.1095c-0.96077,1.19188 6.25355,3.5411 6.29603,4.98693c0.06193,2.10804 -6.71695,3.37325 -6.69156,5.25622c0.01514,1.12318 6.1653,2.48079 7.42389,3.77979c1.1717,1.20932 -3.71486,2.32707 -4.00752,3.493c-0.24833,0.98932 4.151,2.04013 4.28642,2.92942c0.21944,1.44103 -5.92274,4.86704 -5.78494,6.24655c0.24786,2.48124 7.4705,5.41923 7.98648,7.44915c0.31288,1.23088 -2.50234,2.35514 -2.46581,3.37369c0.04317,1.20365 2.39321,2.73826 2.44861,3.64821c0.17539,2.88125 -1.92089,3.81918 -1.92089,3.81918z" fill="#8000ff"/><path d="M256.54469,149.00005h14.45531v62h-14.45531c0,0 5.70759,-1.92377 4.78583,-3.62419c-0.7174,-1.32342 -4.49663,-4.20432 -5.03068,-8.28417c-0.23645,-1.80633 6.04103,-2.90812 7.81556,-5.1095c0.96077,-1.19188 -6.25355,-3.5411 -6.29603,-4.98693c-0.06193,-2.10804 6.71695,-3.37325 6.69156,-5.25622c-0.01514,-1.12318 -6.1653,-2.48079 -7.42389,-3.77979c-1.1717,-1.20932 3.71486,-2.32707 4.00752,-3.493c0.24833,-0.98932 -4.151,-2.04013 -4.28642,-2.92942c-0.21944,-1.44103 5.92274,-4.86704 5.78494,-6.24655c-0.24786,-2.48124 -7.4705,-5.41923 -7.98648,-7.44915c-0.31288,-1.23088 2.50234,-2.35514 2.46581,-3.37369c-0.04317,-1.20365 -2.39321,-2.73826 -2.44861,-3.64821c-0.17539,-2.88125 1.92089,-3.81918 1.92089,-3.81918z" fill="#8000ff"/></g></g></svg>