<svg version="1.1" xmlns="http://www.w3.org/2000/svg" xmlns:xlink="http://www.w3.org/1999/xlink" width="29.37635" height="30.36095" viewBox="0,0,29.37635,30.36095"><g transform="translate(-222.12365,-149.58667)"><g data-paper-data="{&quot;isPaintingLayer&quot;:true}" fill-rule="nonzero" stroke-linecap="butt" stroke-miterlimit="10" stroke-dasharray="" stroke-dashoffset="0" style="mix-blend-mode: normal"><g><path d="M231.28876,159.77847l-2.55403,5.12008l-4.61108,-5.49718z" fill="none" stroke="#000000" stroke-width="4" stroke-linejoin="round"/><path d="M231.28876,159.77847l-2.55403,5.12008l-4.61108,-5.49718z" fill="#b3b3b3" stroke="none" stroke-width="1" stroke-linejoin="miter"/></g><g><path d="M238.88841,158.16667h-5.72174l2.86087,-6.58z" fill="none" stroke="#000000" stroke-width="4" stroke-linejoin="round"/><path d="M238.88841,158.16667h-5.72174l2.86087,-6.58z" fill="#b3b3b3" stroke="none" stroke-width="1" stroke-linejoin="miter"/></g><g><path d="M247.47101,158.16667h-5.72174l2.86087,-6.58z" fill="none" stroke="#000000" stroke-width="4" stroke-linejoin="round"/><path d="M247.47101,158.16667h-5.72174l2.86087,-6.58z" fill="#b3b3b3" stroke="none" stroke-width="1" stroke-linejoin="miter"/></g><path d="M229.5,178.94762v-7h21v7z" fill="#ff0000" stroke="#000000" stroke-width="2" stroke-linejoin="miter"/><g><path d="M235.5,157.94762h9c3.31371,0 6,2.68629 6,6v8h-21v-8c0,-3.31371 2.68629,-6 6,-6z" fill="#ff7800" stroke="#000000" stroke-width="2" stroke-linejoin="miter"/><path d="M240.5,167.94762v-5h5v5z" fill="#ffffff" stroke="#ffffff" stroke-width="2" stroke-linejoin="round"/><path d="M242.5,166.94762v-3h3v3z" fill="#000000" stroke="none" stroke-width="1" stroke-linejoin="miter"/></g></g></g></svg>