<svg version="1.1" xmlns="http://www.w3.org/2000/svg" xmlns:xlink="http://www.w3.org/1999/xlink" width="353" height="176.49215" viewBox="0,0,353,176.49215"><g transform="translate(-63.35,-196.83417)"><g data-paper-data="{&quot;isPaintingLayer&quot;:true}" fill-rule="nonzero" stroke-linejoin="miter" stroke-miterlimit="10" stroke-dasharray="" stroke-dashoffset="0" style="mix-blend-mode: normal"><path d="M410,373.32633h-340.29c-3.50635,-0.00549 -6.349,-2.84366 -6.36,-6.35v-102.29c0.01098,-3.50797 2.85203,-6.34902 6.36,-6.36h340.29c3.50634,0.011 6.34451,2.85365 6.35,6.36v102.29c-0.01098,3.50245 -2.84755,6.33902 -6.35,6.35z" fill="#ffffff" stroke="none" stroke-width="1" stroke-linecap="butt" opacity="0.95"/><path d="M98.43,277.61633l2.49,-3.31h2.19l-3,3.66l3,3.84h-2.21l-2.47,-3.3v0v3.3h-1.92v-7.5h1.91v3.31z" fill="#000000" stroke="none" stroke-width="1" stroke-linecap="butt"/><path d="M105.41,279.45633c0.06,0.74 0.58,1.17 1.48,1.17c0.64338,-0.01819 1.27081,-0.20435 1.82,-0.54l0.18,1.43c-0.67977,0.31387 -1.42135,0.47108 -2.17,0.46c-0.82209,0.09949 -1.64591,-0.17135 -2.24858,-0.73926c-0.60268,-0.56791 -0.92194,-1.37419 -0.87142,-2.20074c-0.04059,-0.80741 0.26242,-1.59429 0.83407,-2.16593c0.57165,-0.57165 1.35852,-0.87466 2.16593,-0.83407c0.64979,-0.07238 1.29828,0.14667 1.77109,0.59824c0.47281,0.45158 0.72139,1.08933 0.67891,1.74176c-0.00013,0.33692 -0.04041,0.67262 -0.12,1l-3.54,0.06zM107.41,278.45633v-0.11c0,-0.66 -0.28,-1.07 -0.86,-1.07c-0.61622,0.05236 -1.08746,0.57161 -1.08,1.19z" fill="#000000" stroke="none" stroke-width="1" stroke-linecap="butt"/><path d="M114,281.54633l-0.28,0.73c-0.57,1.63 -1.27,2.12 -2.44,2.12c-0.57317,0.00441 -1.14015,-0.11855 -1.66,-0.36l0.55,-1.4c0.26943,0.14301 0.56575,0.22816 0.87,0.25c0.39,0 0.57,-0.15 0.79,-0.68l0.15,-0.44l-2.18,-5.54h2l1.19,3.67l1.08,-3.67h2z" fill="#000000" stroke="none" stroke-width="1" stroke-linecap="butt"/><path d="M119,282.03633c-0.81245,0.00523 -1.61679,-0.16177 -2.36,-0.49l0.36,-1.33c0.61959,0.32019 1.30292,0.49786 2,0.52c0.49,0 0.75,-0.16 0.75,-0.45c0,-0.29 -0.31,-0.43 -0.94,-0.58c-1.3,-0.25 -2.13,-0.73 -2.13,-1.82c0,-1.09 0.91,-1.79 2.46,-1.79c0.78038,0.01355 1.55094,0.17648 2.27,0.48l-0.37,1.32c-0.59871,-0.29719 -1.25238,-0.46742 -1.92,-0.5c-0.45,0 -0.69,0.14 -0.69,0.42c0,0.28 0.35,0.42 1,0.55c1.32,0.29 2.1,0.72 2.1,1.83c0,1.11 -0.85,1.84 -2.53,1.84z" fill="#000000" stroke="none" stroke-width="1" stroke-linecap="butt"/><path d="M124,278.60633c-0.60463,-0.01652 -1.08248,-0.5181 -1.06971,-1.12281c0.01277,-0.60472 0.51138,-1.08567 1.11616,-1.07665c0.60478,0.00902 1.08882,0.50464 1.08355,1.10947c0.00912,0.29886 -0.1084,0.58768 -0.3236,0.79526c-0.2152,0.20758 -0.50806,0.31462 -0.8064,0.29474zM124,281.98633c-0.59629,-0.0219 -1.06415,-0.51917 -1.04968,-1.11569c0.01447,-0.59652 0.50587,-1.07053 1.10253,-1.0635c0.59665,0.00703 1.07675,0.4925 1.07715,1.08919c0.02752,0.30818 -0.08229,0.61282 -0.30011,0.83256c-0.21782,0.21975 -0.52147,0.33224 -0.82989,0.30744z" fill="#000000" stroke="none" stroke-width="1" stroke-linecap="butt"/><path d="M96.55,298.66633v-10.76h4.07v1.37h-2.43v8h2.43v1.36z" fill="#000000" stroke="none" stroke-width="1" stroke-linecap="butt"/><path d="M106.05,292.17633l-1.39,0.32v-1.52l3.26,-0.71v5.94h-1.83z" fill="#000000" stroke="none" stroke-width="1" stroke-linecap="butt"/><path d="M110.68,296.38633c-0.59629,-0.0219 -1.06415,-0.51917 -1.04968,-1.11569c0.01447,-0.59652 0.50587,-1.07053 1.10253,-1.0635c0.59665,0.00703 1.07675,0.4925 1.07715,1.08919c0.00912,0.29886 -0.1084,0.58768 -0.3236,0.79526c-0.2152,0.20758 -0.50806,0.31462 -0.8064,0.29474z" fill="#000000" stroke="none" stroke-width="1" stroke-linecap="butt"/><path d="M114.4,296.38633c-0.59629,-0.0219 -1.06415,-0.51917 -1.04968,-1.11569c0.01447,-0.59652 0.50587,-1.07053 1.10253,-1.0635c0.59665,0.00703 1.07675,0.4925 1.07715,1.08919c0.00912,0.29886 -0.1084,0.58768 -0.3236,0.79526c-0.2152,0.20758 -0.50806,0.31462 -0.8064,0.29474z" fill="#000000" stroke="none" stroke-width="1" stroke-linecap="butt"/><path d="M116.54,292.03633v-1.59h5.52v1.25l-3.21,6.6h-1.79l3.14,-6.26z" fill="#000000" stroke="none" stroke-width="1" stroke-linecap="butt"/><path d="M125.91,297.30633h2.43v-8h-2.43v-1.37h4.09v10.76h-4.09z" fill="#000000" stroke="none" stroke-width="1" stroke-linecap="butt"/><path d="M152,290.30633v5.9h-1.91v-5.9h-2.39v-1.6h6.68v1.6z" fill="#000000" stroke="none" stroke-width="1" stroke-linecap="butt"/><path d="M157.37,296.38633c-0.81357,0.06393 -1.61435,-0.23154 -2.1914,-0.8086c-0.57706,-0.57706 -0.87253,-1.37783 -0.8086,-2.1914c-0.04059,-0.80741 0.26242,-1.59429 0.83407,-2.16593c0.57165,-0.57165 1.35852,-0.87466 2.16593,-0.83407c0.80611,-0.05207 1.59501,0.24907 2.16139,0.82505c0.56638,0.57598 0.85422,1.36982 0.78861,2.17495c0.03348,0.7967 -0.26486,1.57163 -0.82395,2.1402c-0.55909,0.56857 -1.32889,0.87989 -2.12605,0.8598zM157.37,291.85633c-0.76,0 -1.15,0.61 -1.15,1.57c0,0.96 0.41,1.54 1.16,1.54c0.75,0 1.15,-0.6 1.15,-1.56c0,-0.96 -0.38,-1.55 -1.14,-1.55z" fill="#000000" stroke="none" stroke-width="1" stroke-linecap="butt"/><path d="M161.47,295.56633c0.08161,-0.61338 0.54348,-1.10738 1.15,-1.23c-0.68255,-0.30449 -1.12157,-0.98261 -1.12,-1.73c0,-1.21 1,-2.16 2.65,-2.16c0.58825,0.01421 1.16713,0.15042 1.7,0.4l1.57,-0.13l0.08,1.49l-1.07,-0.16c0.10111,0.18725 0.15274,0.39721 0.15,0.61c-0.05009,0.59408 -0.33915,1.14239 -0.80099,1.51941c-0.46184,0.37702 -1.05693,0.55045 -1.64901,0.48059c-0.24862,-0.00361 -0.49636,-0.03039 -0.74,-0.08c-0.17495,0.06607 -0.2984,0.22424 -0.32,0.41c0,0.25 0.28,0.34 1,0.34h0.66c1.52,0 2.57,0.39 2.57,1.58c0,1.39 -1.66,2.29 -3.49,2.29c-1.49,0 -2.72,-0.47 -2.72,-1.45c0,-0.56 0.45,-1.07 1.33,-1.18c-0.42,-0.13 -0.95,-0.48 -0.95,-1zM162.73,297.39633c0,0.43 0.55,0.73 1.4,0.73c0.85,0 1.59,-0.28 1.59,-0.76c0,-0.48 -0.47,-0.55 -1.44,-0.55c-0.35,0 -0.9,0 -1.1,0c-0.24893,0.09088 -0.42382,0.31629 -0.45,0.58zM164.13,293.60633c0.57,0 0.82,-0.41 0.82,-1c0,-0.59 -0.28,-1 -0.85,-1c-0.57,0 -0.84,0.41 -0.84,1c0,0.59 0.29,1 0.87,1z" fill="#000000" stroke="none" stroke-width="1" stroke-linecap="butt"/><path d="M168.25,295.56633c0.08161,-0.61338 0.54348,-1.10738 1.15,-1.23c-0.68255,-0.30449 -1.12157,-0.98261 -1.12,-1.73c0,-1.21 1,-2.16 2.65,-2.16c0.58825,0.01421 1.16713,0.15042 1.7,0.4l1.57,-0.13l0.08,1.49l-1.08,-0.17c0.10913,0.18445 0.16455,0.39573 0.16,0.61c-0.05009,0.59408 -0.33915,1.14239 -0.80099,1.51941c-0.46184,0.37702 -1.05693,0.55045 -1.64901,0.48059c-0.24862,-0.00361 -0.49636,-0.03039 -0.74,-0.08c-0.17495,0.06607 -0.2984,0.22424 -0.32,0.41c0,0.25 0.28,0.34 1,0.34h0.66c1.52,0 2.57,0.39 2.57,1.58c0,1.39 -1.66,2.29 -3.49,2.29c-1.5,0 -2.72,-0.47 -2.72,-1.45c0,-0.56 0.45,-1.07 1.33,-1.18c-0.47,-0.12 -0.95,-0.47 -0.95,-0.99zM169.51,297.39633c0,0.43 0.55,0.73 1.4,0.73c0.85,0 1.59,-0.28 1.59,-0.76c0,-0.48 -0.47,-0.55 -1.44,-0.55c-0.35,0 -0.9,0 -1.11,0c-0.24502,0.09394 -0.41556,0.31873 -0.44,0.58zM170.91,293.60633c0.57,0 0.82,-0.41 0.82,-1c0,-0.59 -0.28,-1 -0.85,-1c-0.57,0 -0.84,0.41 -0.84,1c0,0.59 0.29,1 0.87,1z" fill="#000000" stroke="none" stroke-width="1" stroke-linecap="butt"/><path d="M175.3,296.20633v-7.93l1.84,-0.23v8.16z" fill="#000000" stroke="none" stroke-width="1" stroke-linecap="butt"/><path d="M180.36,293.85633c0.06,0.74 0.57,1.17 1.47,1.17c0.6465,-0.0183 1.27713,-0.20439 1.83,-0.54l0.18,1.43c-0.67977,0.31387 -1.42135,0.47108 -2.17,0.46c-0.81843,0.0987 -1.63861,-0.16959 -2.2405,-0.73289c-0.60188,-0.5633 -0.92384,-1.36394 -0.8795,-2.18711c-0.04059,-0.80741 0.26242,-1.59429 0.83407,-2.16593c0.57165,-0.57165 1.35852,-0.87466 2.16593,-0.83407c0.64897,-0.06877 1.29534,0.15149 1.76727,0.60224c0.47194,0.45075 0.72164,1.08632 0.68273,1.73776c-0.00013,0.33692 -0.04041,0.67262 -0.12,1l-3.54,0.06zM182.3,292.85633v-0.11c0,-0.66 -0.27,-1.07 -0.85,-1.07c-0.62096,0.04268 -1.09756,0.56782 -1.08,1.19z" fill="#000000" stroke="none" stroke-width="1" stroke-linecap="butt"/><path d="M187.44,296.38633c-0.81254,0.00615 -1.61707,-0.16089 -2.36,-0.49l0.35,-1.33c0.61995,0.31925 1.30306,0.49686 2,0.52c0.5,0 0.76,-0.16 0.76,-0.45c0,-0.29 -0.31,-0.43 -0.95,-0.58c-1.29,-0.25 -2.12,-0.73 -2.12,-1.82c0,-1.09 0.91,-1.79 2.46,-1.79c0.77703,0.01457 1.54412,0.17749 2.26,0.48l-0.37,1.32c-0.5983,-0.29828 -1.25221,-0.46857 -1.92,-0.5c-0.44,0 -0.68,0.14 -0.68,0.42c0,0.28 0.35,0.42 1,0.55c1.32,0.29 2.1,0.72 2.1,1.83c0,1.11 -0.89,1.84 -2.53,1.84z" fill="#000000" stroke="none" stroke-width="1" stroke-linecap="butt"/><path d="M198.37,290.30633v5.9h-1.91v-5.9h-2.38v-1.6h6.68v1.6z" fill="#000000" stroke="none" stroke-width="1" stroke-linecap="butt"/><path d="M202.85,289.83633c-0.68,0 -1.1,-0.35 -1.1,-1c0,-0.65 0.42,-1 1.1,-1c0.28043,-0.02534 0.55855,0.06871 0.76604,0.25907c0.20749,0.19035 0.3251,0.45936 0.32396,0.74093c0,0.65 -0.41,1 -1.09,1zM201.92,296.20633v-5.48l1.85,-0.23v5.71z" fill="#000000" stroke="none" stroke-width="1" stroke-linecap="butt"/><path d="M205.47,296.20633v-7.93l1.85,-0.23v8.16z" fill="#000000" stroke="none" stroke-width="1" stroke-linecap="butt"/><path d="M210.54,293.85633c0.06,0.74 0.57,1.17 1.47,1.17c0.64628,-0.01966 1.27658,-0.20565 1.83,-0.54l0.18,1.43c-0.67977,0.31387 -1.42135,0.47108 -2.17,0.46c-0.81843,0.0987 -1.63861,-0.16959 -2.2405,-0.73289c-0.60188,-0.5633 -0.92384,-1.36394 -0.8795,-2.18711c-0.04059,-0.80741 0.26242,-1.59429 0.83407,-2.16593c0.57165,-0.57165 1.35852,-0.87466 2.16593,-0.83407c0.64897,-0.06877 1.29534,0.15149 1.76727,0.60224c0.47194,0.45075 0.72164,1.08632 0.68273,1.73776c-0.00013,0.33692 -0.04041,0.67262 -0.12,1l-3.54,0.06zM212.48,292.85633v-0.11c0,-0.66 -0.28,-1.07 -0.85,-1.07c-0.62096,0.04268 -1.09756,0.56782 -1.08,1.19z" fill="#000000" stroke="none" stroke-width="1" stroke-linecap="butt"/><path d="M219,298.59633h-1.51l2.91,-10.81h1.51z" fill="#000000" stroke="none" stroke-width="1" stroke-linecap="butt"/><path d="M231.44,290.68633c-0.57428,-0.34522 -1.23,-0.53158 -1.9,-0.54c-1.19277,0.11111 -2.10483,1.11206 -2.10483,2.31c0,1.19794 0.91205,2.19889 2.10483,2.31c0.71189,-0.00394 1.40709,-0.21598 2,-0.61l0.39,1.69c-0.76937,0.3615 -1.60996,0.54602 -2.46,0.54c-1.07387,0.11352 -2.14254,-0.25696 -2.91572,-1.0108c-0.77318,-0.75385 -1.17059,-1.81279 -1.08428,-2.8892c-0.08176,-1.08387 0.31334,-2.14949 1.08192,-2.91808c0.76859,-0.76859 1.83421,-1.16368 2.91808,-1.08192c0.86212,0.00192 1.7129,0.19668 2.49,0.57z" fill="#000000" stroke="none" stroke-width="1" stroke-linecap="butt"/><path d="M236.43,295.53633c-0.36706,0.52251 -0.96156,0.83833 -1.6,0.85c-0.43312,0.02448 -0.85796,-0.12578 -1.17939,-0.41713c-0.32142,-0.29135 -0.51256,-0.69943 -0.53061,-1.13287c0,-1.05 0.79,-1.91 3.3,-2v-0.1c0,-0.59 -0.3,-0.86 -1,-0.86c-0.66803,0.0453 -1.31735,0.2401 -1.9,0.57l-0.38,-1.36c0.79199,-0.42125 1.67304,-0.64751 2.57,-0.66c1.93,0 2.56,0.88 2.54,2.44v1.65c0,0.39 0.07,0.42 0.45,0.46l-0.18,1.32c-1.21,0.15 -1.81,-0.17 -2.06,-0.78zM236.43,293.72633c-1.14,0.13 -1.56,0.34 -1.56,0.84c0.0042,0.17578 0.08283,0.34152 0.21633,0.45595c0.1335,0.11443 0.30931,0.16679 0.48367,0.14405c0.32853,0.00562 0.64295,-0.13332 0.86,-0.38z" fill="#000000" stroke="none" stroke-width="1" stroke-linecap="butt"/><path d="M242.18,296.38633c-1.38,0 -2.12,-0.56 -2.05,-2l0.08,-2.12l-0.84,-0.15v-1.17l0.84,-0.28v-1.27h1.79v1.33h1.39v1.46h-1.48l-0.06,2c0,0.51 0.27,0.73 0.73,0.73c0.249,-0.00958 0.49512,-0.05678 0.73,-0.14l0.22,1.43c-0.4364,0.13673 -0.89302,0.19761 -1.35,0.18z" fill="#000000" stroke="none" stroke-width="1" stroke-linecap="butt"/><path d="M246.3,293.85633c0.06,0.74 0.57,1.17 1.47,1.17c0.64628,-0.01966 1.27658,-0.20565 1.83,-0.54l0.18,1.43c-0.68282,0.31534 -1.42798,0.47258 -2.18,0.46c-0.81682,0.09549 -1.63416,-0.17424 -2.23369,-0.73715c-0.59954,-0.56291 -0.92019,-1.36165 -0.87631,-2.18285c-0.04059,-0.80741 0.26242,-1.59429 0.83407,-2.16593c0.57165,-0.57165 1.35852,-0.87466 2.16593,-0.83407c0.64816,-0.0692 1.29381,0.15128 1.76428,0.60246c0.47046,0.45118 0.71775,1.08705 0.67572,1.73754c0.00296,0.33651 -0.03396,0.67218 -0.11,1l-3.54,0.06zM248.24,292.85633v-0.11c0,-0.66 -0.28,-1.07 -0.85,-1.07c-0.62096,0.04268 -1.09756,0.56782 -1.08,1.19z" fill="#000000" stroke="none" stroke-width="1" stroke-linecap="butt"/><path d="M251.06,295.56633c0.08161,-0.61338 0.54348,-1.10738 1.15,-1.23c-0.68255,-0.30449 -1.12157,-0.98261 -1.12,-1.73c0,-1.21 1,-2.16 2.65,-2.16c0.58825,0.01421 1.16713,0.15042 1.7,0.4l1.57,-0.13l0.08,1.49l-1.09,-0.17c0.10111,0.18725 0.15274,0.39721 0.15,0.61c-0.05009,0.59408 -0.33915,1.14239 -0.80099,1.51941c-0.46184,0.37702 -1.05693,0.55045 -1.64901,0.48059c-0.24862,-0.00361 -0.49636,-0.03039 -0.74,-0.08c-0.17495,0.06607 -0.2984,0.22424 -0.32,0.41c0,0.25 0.28,0.34 1,0.34h0.66c1.52,0 2.57,0.39 2.57,1.58c0,1.39 -1.66,2.29 -3.49,2.29c-1.49,0 -2.72,-0.47 -2.72,-1.45c0,-0.56 0.45,-1.07 1.33,-1.18c-0.45,-0.12 -0.93,-0.47 -0.93,-0.99zM252.32,297.39633c0,0.43 0.55,0.73 1.4,0.73c0.85,0 1.59,-0.28 1.59,-0.76c0,-0.48 -0.47,-0.55 -1.44,-0.55c-0.35,0 -0.9,0 -1.1,0c-0.24893,0.09088 -0.42382,0.31629 -0.45,0.58zM253.72,293.60633c0.57,0 0.82,-0.41 0.82,-1c0,-0.59 -0.28,-1 -0.85,-1c-0.57,0 -0.84,0.41 -0.84,1c0,0.59 0.29,1 0.87,1z" fill="#000000" stroke="none" stroke-width="1" stroke-linecap="butt"/><path d="M260.77,296.38633c-0.81447,0.06746 -1.61736,-0.22687 -2.19525,-0.80475c-0.57789,-0.57789 -0.87222,-1.38078 -0.80475,-2.19525c-0.04379,-0.80828 0.25819,-1.59705 0.83057,-2.16943c0.57238,-0.57238 1.36115,-0.87436 2.16943,-0.83057c0.81447,-0.06746 1.61736,0.22687 2.19525,0.80475c0.57789,0.57789 0.87222,1.38078 0.80475,2.19525c0.03744,0.80655 -0.26659,1.59156 -0.83752,2.16248c-0.57093,0.57093 -1.35594,0.87496 -2.16248,0.83752zM260.77,291.85633c-0.75,0 -1.15,0.61 -1.15,1.57c0,0.96 0.41,1.54 1.16,1.54c0.75,0 1.16,-0.6 1.16,-1.56c0,-0.96 -0.39,-1.55 -1.15,-1.55z" fill="#000000" stroke="none" stroke-width="1" stroke-linecap="butt"/><path d="M267,296.20633h-1.8v-5.48l1.84,-0.23v0.82c0.24377,-0.52677 0.76957,-0.86563 1.35,-0.87c0.32067,0.0018 0.63621,0.08069 0.92,0.23l-0.37,1.63c-0.217,-0.11015 -0.45664,-0.16835 -0.7,-0.17c-0.52397,0.02114 -0.9899,0.33953 -1.2,0.82z" fill="#000000" stroke="none" stroke-width="1" stroke-linecap="butt"/><path d="M274.05,295.94633l-0.27,0.73c-0.58,1.63 -1.28,2.12 -2.45,2.12c-0.57317,0.00441 -1.14015,-0.11855 -1.66,-0.36l0.56,-1.4c0.26594,0.14278 0.55896,0.22796 0.86,0.25c0.4,0 0.58,-0.15 0.79,-0.69l0.16,-0.43l-2.19,-5.54h2l1.19,3.67l1.08,-3.67h2z" fill="#000000" stroke="none" stroke-width="1" stroke-linecap="butt"/><path d="M282.43,296.38633c-1.38,0 -2.12,-0.56 -2.05,-2l0.08,-2.12l-0.84,-0.15v-1.17l0.84,-0.28v-1.27h1.79v1.33h1.39v1.46h-1.49l-0.06,2c0,0.51 0.28,0.73 0.74,0.73c0.2489,-0.01047 0.49489,-0.05765 0.73,-0.14l0.21,1.43c-0.43322,0.1356 -0.88636,0.19647 -1.34,0.18z" fill="#000000" stroke="none" stroke-width="1" stroke-linecap="butt"/><path d="M287.7,296.38633c-0.81357,0.06393 -1.61435,-0.23154 -2.1914,-0.8086c-0.57706,-0.57706 -0.87253,-1.37783 -0.8086,-2.1914c-0.04059,-0.80741 0.26242,-1.59429 0.83407,-2.16593c0.57165,-0.57165 1.35852,-0.87466 2.16593,-0.83407c0.81447,-0.06746 1.61736,0.22687 2.19525,0.80475c0.57789,0.57789 0.87222,1.38078 0.80475,2.19525c0.03433,0.80568 -0.2707,1.58886 -0.84092,2.15908c-0.57022,0.57022 -1.35339,0.87525 -2.15908,0.84092zM287.7,291.85633c-0.76,0 -1.15,0.61 -1.15,1.57c0,0.96 0.41,1.54 1.16,1.54c0.75,0 1.15,-0.6 1.15,-1.56c0,-0.96 -0.38,-1.55 -1.14,-1.55z" fill="#000000" stroke="none" stroke-width="1" stroke-linecap="butt"/><path d="M298.9,288.27633l1.85,-0.23v8.16h-1.85v-0.58c-0.39272,0.45653 -0.95819,0.72839 -1.56,0.75c-1.37,0 -2.38,-1.13 -2.38,-2.89c-0.04656,-0.77266 0.2254,-1.53066 0.75255,-2.09748c0.52714,-0.56682 1.26345,-0.89298 2.03745,-0.90252c0.39181,0.00201 0.78052,0.06961 1.15,0.2zM298.05,291.82633c-0.78,0 -1.25,0.64 -1.25,1.56c0,0.92 0.48,1.51 1.17,1.51c0.34996,0.01148 0.68822,-0.12674 0.93,-0.38v-2.48c-0.25614,-0.15297 -0.55209,-0.22609 -0.85,-0.21z" fill="#000000" stroke="none" stroke-width="1" stroke-linecap="butt"/><path d="M304.32,296.20633h-1.85v-5.48l1.85,-0.23v0.82c0.23834,-0.52689 0.76172,-0.8667 1.34,-0.87c0.32067,0.0018 0.63621,0.08069 0.92,0.23l-0.37,1.63c-0.21306,-0.11112 -0.4497,-0.16942 -0.69,-0.17c-0.52556,0.01632 -0.99382,0.3363 -1.2,0.82z" fill="#000000" stroke="none" stroke-width="1" stroke-linecap="butt"/><path d="M310.64,295.53633c-0.36912,0.52533 -0.96801,0.84152 -1.61,0.85c-0.43214,0.02447 -0.85593,-0.12609 -1.17577,-0.41771c-0.31984,-0.29162 -0.50879,-0.69974 -0.52423,-1.13229c0,-1.05 0.79,-1.91 3.3,-2v-0.1c0,-0.59 -0.3,-0.86 -1,-0.86c-0.66461,0.04677 -1.31035,0.24152 -1.89,0.57l-0.38,-1.36c0.78843,-0.42116 1.66622,-0.64747 2.56,-0.66c1.93,0 2.57,0.88 2.54,2.44v1.65c0,0.39 0.07,0.42 0.46,0.46l-0.18,1.32c-1.21,0.15 -1.81,-0.17 -2.06,-0.78zM310.64,293.72633c-1.14,0.13 -1.56,0.34 -1.56,0.84c0.00449,0.17381 0.08176,0.33775 0.21296,0.45184c0.1312,0.11409 0.30429,0.16785 0.47704,0.14816c0.33173,0.00721 0.64985,-0.13175 0.87,-0.38z" fill="#000000" stroke="none" stroke-width="1" stroke-linecap="butt"/><path d="M315.19,296.22633l-1.57,-5.6h1.87l0.75,3.71l0.95,-3.71h1.93l1,3.65l0.65,-3.65h1.92l-1.58,5.6h-1.88l-1.06,-3.67l-1.07,3.67z" fill="#000000" stroke="none" stroke-width="1" stroke-linecap="butt"/><path d="M327.94,296.22633l-1.57,-5.6h1.87l0.76,3.71l0.95,-3.71h1.93l1,3.65l0.65,-3.65h1.91l-1.58,5.6h-1.86l-1.07,-3.67l-1.06,3.67z" fill="#000000" stroke="none" stroke-width="1" stroke-linecap="butt"/><path d="M337.46,289.83633c-0.67,0 -1.09,-0.35 -1.09,-1c0,-0.60199 0.48801,-1.09 1.09,-1.09c0.60199,0 1.09,0.48801 1.09,1.09c0,0.65 -0.41,1 -1.09,1zM336.54,296.20633v-5.48l1.84,-0.23v5.71z" fill="#000000" stroke="none" stroke-width="1" stroke-linecap="butt"/><path d="M342.33,296.38633c-1.38,0 -2.12,-0.56 -2.05,-2l0.08,-2.12l-0.83,-0.15v-1.17l0.84,-0.28v-1.27h1.79v1.33h1.39v1.46h-1.48l-0.06,2c0,0.51 0.27,0.73 0.73,0.73c0.249,-0.00958 0.49512,-0.05678 0.73,-0.14l0.22,1.43c-0.43958,0.13787 -0.89968,0.19877 -1.36,0.18z" fill="#000000" stroke="none" stroke-width="1" stroke-linecap="butt"/><path d="M348.64,296.20633v-3.3c0,-0.67 -0.3,-0.89 -0.77,-0.89c-0.37226,0.01847 -0.7262,0.16712 -1,0.42v3.77h-1.87v-7.93l1.84,-0.23v3.35c0.45572,-0.591 1.14502,-0.95571 1.89,-1c0.50204,-0.02203 0.9881,0.1792 1.32767,0.54963c0.33957,0.37044 0.49784,0.87213 0.43233,1.37037v3.84z" fill="#000000" stroke="none" stroke-width="1" stroke-linecap="butt"/><path d="M96.55,313.03633v-10.73h4.07v1.37h-2.43v8h2.43v1.36z" fill="#000000" stroke="none" stroke-width="1" stroke-linecap="butt"/><path d="M106.9,310.60633h-1.9v-7.5h3c2,0 3,0.93 3,2.38c0.02731,0.98332 -0.60149,1.86527 -1.54,2.16l1.92,3h-2.15l-1.49,-2.52l-0.88,0.07zM107.82,306.71633c0.82,-0.06 1.26,-0.39 1.26,-1.11c0,-0.72 -0.45,-1 -1.41,-1h-0.81v2.13z" fill="#000000" stroke="none" stroke-width="1" stroke-linecap="butt"/><path d="M115.21,311.70633h2.43v-8h-2.43v-1.37h4.09v10.7h-4.09z" fill="#000000" stroke="none" stroke-width="1" stroke-linecap="butt"/><path d="M150.09,310.60633h-1.9v-7.5h3c2,0 3,0.93 3,2.38c0.02526,0.97957 -0.59753,1.85882 -1.53,2.16l1.92,3h-2.15l-1.5,-2.52l-0.88,0.07zM151.02,306.71633c0.81,-0.06 1.26,-0.39 1.26,-1.11c0,-0.72 -0.46,-1 -1.42,-1h-0.8v2.13z" fill="#000000" stroke="none" stroke-width="1" stroke-linecap="butt"/><path d="M158.33,310.78633c-0.80427,0.06219 -1.59609,-0.22677 -2.17126,-0.79236c-0.57517,-0.56559 -0.8774,-1.35244 -0.82874,-2.15764c-0.04059,-0.80741 0.26242,-1.59429 0.83407,-2.16593c0.57165,-0.57165 1.35852,-0.87466 2.16593,-0.83407c0.79678,-0.05041 1.57677,0.24416 2.14131,0.80869c0.56453,0.56453 0.85911,1.34453 0.80869,2.14131c0.03348,0.7967 -0.26486,1.57163 -0.82395,2.1402c-0.55909,0.56857 -1.32889,0.87989 -2.12605,0.8598zM158.33,306.25633c-0.76,0 -1.15,0.61 -1.15,1.57c0,0.96 0.41,1.54 1.16,1.54c0.75,0 1.15,-0.6 1.15,-1.56c0,-0.96 -0.39,-1.55 -1.14,-1.55z" fill="#000000" stroke="none" stroke-width="1" stroke-linecap="butt"/><path d="M165,310.78633c-1.38,0 -2.12,-0.57 -2.05,-2l0.08,-2.12l-0.84,-0.14v-1.18l0.84,-0.28v-1.27h1.79v1.33h1.39v1.45h-1.49l-0.06,2c0,0.51 0.28,0.73 0.74,0.73c0.2489,-0.01047 0.49489,-0.05765 0.73,-0.14l0.21,1.44c-0.43409,0.13163 -0.88656,0.19241 -1.34,0.18z" fill="#000000" stroke="none" stroke-width="1" stroke-linecap="butt"/><path d="M170.67,309.93633c-0.36706,0.52251 -0.96156,0.83833 -1.6,0.85c-0.43312,0.02448 -0.85796,-0.12578 -1.17939,-0.41713c-0.32142,-0.29135 -0.51256,-0.69943 -0.53061,-1.13287c0,-1.05 0.79,-1.91 3.3,-2v-0.11c0,-0.58 -0.3,-0.85 -1,-0.85c-0.66803,0.0453 -1.31735,0.2401 -1.9,0.57l-0.38,-1.36c0.79199,-0.42125 1.67304,-0.64751 2.57,-0.66c1.93,0 2.56,0.88 2.54,2.44v1.65c0,0.39 0.07,0.42 0.45,0.46l-0.18,1.32c-1.21,0.15 -1.81,-0.17 -2.06,-0.78zM170.67,308.12633c-1.14,0.13 -1.56,0.34 -1.56,0.84c0.0042,0.17578 0.08283,0.34152 0.21633,0.45595c0.1335,0.11443 0.30931,0.16679 0.48367,0.14405c0.32853,0.00562 0.64295,-0.13332 0.86,-0.38z" fill="#000000" stroke="none" stroke-width="1" stroke-linecap="butt"/><path d="M176.42,310.78633c-1.38,0 -2.12,-0.57 -2,-2l0.08,-2.12l-0.83,-0.14v-1.18l0.84,-0.28v-1.27h1.78v1.33h1.39v1.45h-1.49l-0.06,2c0,0.51 0.27,0.73 0.73,0.73c0.249,-0.00958 0.49512,-0.05678 0.73,-0.14l0.22,1.44c-0.45014,0.1367 -0.91989,0.19753 -1.39,0.18z" fill="#000000" stroke="none" stroke-width="1" stroke-linecap="butt"/><path d="M180.54,308.25633c0.06,0.74 0.57,1.17 1.47,1.17c0.64628,-0.01966 1.27658,-0.20565 1.83,-0.54l0.18,1.43c-0.67977,0.31387 -1.42135,0.47108 -2.17,0.46c-0.81843,0.0987 -1.63861,-0.16959 -2.2405,-0.73289c-0.60188,-0.5633 -0.92384,-1.36394 -0.8795,-2.18711c-0.04059,-0.80741 0.26242,-1.59429 0.83407,-2.16593c0.57165,-0.57165 1.35852,-0.87466 2.16593,-0.83407c0.64897,-0.06877 1.29534,0.15149 1.76727,0.60224c0.47194,0.45075 0.72164,1.08632 0.68273,1.73776c-0.00013,0.33692 -0.04041,0.67262 -0.12,1l-3.54,0.06zM182.48,307.25633v-0.11c0,-0.66 -0.28,-1.07 -0.85,-1.07c-0.62096,0.04268 -1.09756,0.56782 -1.08,1.19z" fill="#000000" stroke="none" stroke-width="1" stroke-linecap="butt"/><path d="M191.48,310.78633c-0.80656,0.08629 -1.60954,-0.1919 -2.18985,-0.75867c-0.58031,-0.56677 -0.87738,-1.36296 -0.81015,-2.17133c-0.04923,-0.8222 0.26093,-1.62528 0.85003,-2.20095c0.5891,-0.57567 1.39912,-0.86723 2.21997,-0.79905c0.69503,-0.00884 1.38166,0.15251 2,0.47l-0.36,1.39c-0.45093,-0.26177 -0.959,-0.40938 -1.48,-0.43c-0.39473,-0.01194 -0.77489,0.14955 -1.04034,0.44193c-0.26545,0.29238 -0.38957,0.68633 -0.33966,1.07807c-0.05046,0.40331 0.07943,0.80835 0.35504,1.10709c0.27561,0.29874 0.6689,0.46078 1.07496,0.44291c0.51962,0.00013 1.02888,-0.14537 1.47,-0.42l0.28,1.4c-0.62722,0.32067 -1.32603,0.47558 -2.03,0.45z" fill="#000000" stroke="none" stroke-width="1" stroke-linecap="butt"/><path d="M196.75,305.03633v3.3c0,0.67 0.29,0.9 0.77,0.9c0.34828,-0.003 0.68312,-0.1348 0.94,-0.37v-3.83h1.85v5.49l-1.85,0.23v-0.83c-0.45598,0.52924 -1.11189,0.84451 -1.81,0.87c-0.50033,0.01898 -0.98359,-0.18356 -1.32087,-0.55361c-0.33728,-0.37005 -0.49428,-0.86996 -0.42913,-1.36639v-3.84z" fill="#000000" stroke="none" stroke-width="1" stroke-linecap="butt"/><path d="M203.87,310.60633h-1.87v-5.48l1.85,-0.23v0.81c0.24128,-0.52298 0.76405,-0.85849 1.34,-0.86c0.32067,0.0018 0.63621,0.08069 0.92,0.23l-0.37,1.63c-0.217,-0.11015 -0.45664,-0.16835 -0.7,-0.17c-0.5227,0.01769 -0.98734,0.33786 -1.19,0.82z" fill="#000000" stroke="none" stroke-width="1" stroke-linecap="butt"/><path d="M209.06,310.60633h-1.85v-5.48l1.85,-0.23v0.81c0.24696,-0.518 0.7662,-0.85125 1.34,-0.86c0.32406,0.00019 0.64321,0.07912 0.93,0.23l-0.37,1.63c-0.217,-0.11015 -0.45664,-0.16835 -0.7,-0.17c-0.52476,0.01875 -0.99184,0.33793 -1.2,0.82z" fill="#000000" stroke="none" stroke-width="1" stroke-linecap="butt"/><path d="M213.8,308.25633c0.06,0.74 0.58,1.17 1.48,1.17c0.64338,-0.01819 1.27081,-0.20435 1.82,-0.54l0.18,1.43c-0.67977,0.31387 -1.42135,0.47108 -2.17,0.46c-0.81843,0.0987 -1.63861,-0.16959 -2.2405,-0.73289c-0.60188,-0.5633 -0.92384,-1.36394 -0.8795,-2.18711c-0.04059,-0.80741 0.26242,-1.59429 0.83407,-2.16593c0.57165,-0.57165 1.35852,-0.87466 2.16593,-0.83407c0.64979,-0.07238 1.29828,0.14667 1.77109,0.59824c0.47281,0.45158 0.72139,1.08933 0.67891,1.74176c-0.00013,0.33692 -0.04041,0.67262 -0.12,1l-3.54,0.06zM215.75,307.25633v-0.11c0,-0.66 -0.28,-1.07 -0.86,-1.07c-0.61856,0.0476 -1.09243,0.56973 -1.08,1.19z" fill="#000000" stroke="none" stroke-width="1" stroke-linecap="butt"/><path d="M222.54,310.60633v-3.3c0,-0.67 -0.3,-0.89 -0.79,-0.89c-0.37245,0.01762 -0.72667,0.16639 -1,0.42v3.77h-1.85v-5.48l1.85,-0.23v0.91c0.4486,-0.589 1.13105,-0.95395 1.87,-1c0.50374,-0.02509 0.99262,0.1748 1.33449,0.54563c0.34186,0.37083 0.50141,0.87432 0.43551,1.37437v3.84z" fill="#000000" stroke="none" stroke-width="1" stroke-linecap="butt"/><path d="M228.3,310.78633c-1.38,0 -2.13,-0.57 -2.05,-2l0.08,-2.12l-0.84,-0.14v-1.18l0.84,-0.28v-1.27h1.79v1.33h1.39v1.45h-1.51l-0.06,2c-0.03105,0.20154 0.03579,0.40582 0.17999,0.55001c0.14419,0.14419 0.34847,0.21104 0.55001,0.17999c0.25215,-0.0105 0.50144,-0.05767 0.74,-0.14l0.21,1.44c-0.42769,0.12951 -0.87324,0.19027 -1.32,0.18z" fill="#000000" stroke="none" stroke-width="1" stroke-linecap="butt"/><path d="M236.33,310.78633c-1.38,0 -2.13,-0.57 -2.06,-2l0.09,-2.12l-0.84,-0.14v-1.18l0.84,-0.28v-1.27h1.78v1.33h1.39v1.45h-1.49l-0.06,2c-0.03105,0.20154 0.03579,0.40582 0.17999,0.55001c0.14419,0.14419 0.34847,0.21104 0.55001,0.17999c0.249,-0.00958 0.49512,-0.05678 0.73,-0.14l0.22,1.44c-0.43089,0.13057 -0.8799,0.19133 -1.33,0.18z" fill="#000000" stroke="none" stroke-width="1" stroke-linecap="butt"/><path d="M239.91,304.23633c-0.67,0 -1.09,-0.35 -1.09,-1c-0.00114,-0.28157 0.11648,-0.55058 0.32396,-0.74093c0.20749,-0.19035 0.48561,-0.28441 0.76604,-0.25907c0.69,0 1.09,0.35 1.09,1c0,0.65 -0.4,1 -1.09,1zM238.99,310.60633v-5.48l1.85,-0.23v5.71z" fill="#000000" stroke="none" stroke-width="1" stroke-linecap="butt"/><path d="M242.54,310.60633v-7.93l1.85,-0.23v8.16z" fill="#000000" stroke="none" stroke-width="1" stroke-linecap="butt"/><path d="M247.61,308.25633c0.06,0.74 0.57,1.17 1.47,1.17c0.64338,-0.01819 1.27081,-0.20435 1.82,-0.54l0.18,1.43c-0.679,0.31618 -1.42111,0.4735 -2.17,0.46c-0.81843,0.0987 -1.63861,-0.16959 -2.2405,-0.73289c-0.60188,-0.5633 -0.92384,-1.36394 -0.8795,-2.18711c-0.03744,-0.80655 0.26659,-1.59156 0.83752,-2.16248c0.57093,-0.57093 1.35594,-0.87496 2.16248,-0.83752c0.64816,-0.0692 1.29381,0.15128 1.76428,0.60246c0.47046,0.45118 0.71775,1.08705 0.67572,1.73754c0.00503,0.33721 -0.03533,0.67356 -0.12,1l-3.53,0.06zM249.55,307.25633v-0.11c0,-0.66 -0.28,-1.07 -0.85,-1.07c-0.62096,0.04268 -1.09756,0.56782 -1.08,1.19z" fill="#000000" stroke="none" stroke-width="1" stroke-linecap="butt"/><path d="M96.55,327.46633v-10.76h4.07v1.33h-2.43v8h2.43v1.36z" fill="#000000" stroke="none" stroke-width="1" stroke-linecap="butt"/><path d="M105,325.03633v-7.5h5.48v1.5h-3.61v1.44h2.91v1.56h-2.91v1.46h3.61v1.54z" fill="#000000" stroke="none" stroke-width="1" stroke-linecap="butt"/><path d="M114.58,326.10633h2.42v-8h-2.44v-1.37h4.09v10.76h-4.09z" fill="#000000" stroke="none" stroke-width="1" stroke-linecap="butt"/><path d="M150.87,325.03633h-2.68v-7.5h2.81c2.63,0 4.13,1.47 4.13,3.7c0,2.23 -1.51,3.8 -4.26,3.8zM150.87,319.03633h-0.8v4.45h0.93c0.6092,0.07763 1.22029,-0.12893 1.65746,-0.56024c0.43717,-0.43132 0.65195,-1.03957 0.58254,-1.64976c-0.02,-1.55 -0.8,-2.24 -2.35,-2.24z" fill="#000000" stroke="none" stroke-width="1" stroke-linecap="butt"/><path d="M158.47,325.03633h-1.85v-5.48l1.85,-0.23v0.82c0.2403,-0.5252 0.76247,-0.86422 1.34,-0.87c0.32406,0.00019 0.64321,0.07912 0.93,0.23l-0.38,1.63c-0.21306,-0.11112 -0.4497,-0.16942 -0.69,-0.17c-0.52476,0.01875 -0.99184,0.33793 -1.2,0.82z" fill="#000000" stroke="none" stroke-width="1" stroke-linecap="butt"/><path d="M164.79,324.33633c-0.36706,0.52251 -0.96156,0.83833 -1.6,0.85c-0.43312,0.02448 -0.85796,-0.12578 -1.17939,-0.41713c-0.32142,-0.29135 -0.51256,-0.69943 -0.53061,-1.13287c0,-1.05 0.79,-1.91 3.3,-2v-0.11c0,-0.58 -0.3,-0.85 -1,-0.85c-0.66803,0.0453 -1.31735,0.2401 -1.9,0.57l-0.38,-1.36c0.79199,-0.42125 1.67304,-0.64751 2.57,-0.66c1.93,0 2.56,0.88 2.54,2.44v1.65c0,0.39 0.07,0.42 0.45,0.46l-0.18,1.32c-1.21,0.15 -1.81,-0.17 -2.06,-0.78zM164.79,322.52633c-1.14,0.13 -1.56,0.34 -1.56,0.84c0.0042,0.17578 0.08283,0.34152 0.21633,0.45595c0.1335,0.11443 0.30931,0.16679 0.48367,0.14405c0.32853,0.00562 0.64295,-0.13332 0.86,-0.38z" fill="#000000" stroke="none" stroke-width="1" stroke-linecap="butt"/><path d="M169.34,325.03633l-1.57,-5.6h1.87l0.76,3.71l0.95,-3.71h1.93l1,3.65l0.64,-3.65h1.92l-1.58,5.6h-1.87l-1.07,-3.67l-1.11,3.67z" fill="#000000" stroke="none" stroke-width="1" stroke-linecap="butt"/><path d="M182.1,325.03633l-1.57,-5.6h1.87l0.75,3.71l0.95,-3.71h1.9l1,3.65l0.65,-3.65h1.92l-1.57,5.6h-1.9l-1.1,-3.68l-1,3.68z" fill="#000000" stroke="none" stroke-width="1" stroke-linecap="butt"/><path d="M191.61,318.63633c-0.67,0 -1.09,-0.35 -1.09,-1c-0.00114,-0.28157 0.11648,-0.55058 0.32396,-0.74093c0.20749,-0.19035 0.48561,-0.28441 0.76604,-0.25907c0.69,0 1.1,0.35 1.1,1c0,0.65 -0.41,1 -1.1,1zM190.69,325.00633v-5.48l1.85,-0.23v5.74z" fill="#000000" stroke="none" stroke-width="1" stroke-linecap="butt"/><path d="M196.49,325.18633c-1.38,0 -2.13,-0.56 -2.06,-2l0.09,-2.12l-0.84,-0.14v-1.18l0.84,-0.28v-1.27h1.79v1.33h1.4v1.46h-1.49l-0.06,2c-0.03105,0.20154 0.03579,0.40582 0.17999,0.55001c0.14419,0.14419 0.34847,0.21104 0.55001,0.17999c0.25215,-0.0105 0.50144,-0.05767 0.74,-0.14l0.21,1.44c-0.43784,0.12932 -0.89377,0.18673 -1.35,0.17z" fill="#000000" stroke="none" stroke-width="1" stroke-linecap="butt"/><path d="M202.8,325.03633v-3.3c0,-0.67 -0.3,-0.89 -0.77,-0.89c-0.37226,0.01847 -0.7262,0.16712 -1,0.42v3.77h-1.85v-8l1.85,-0.23v3.35c0.45084,-0.59156 1.13748,-0.95679 1.88,-1c0.50204,-0.02203 0.9881,0.1792 1.32767,0.54963c0.33957,0.37044 0.49784,0.87213 0.43233,1.37037v3.96z" fill="#000000" stroke="none" stroke-width="1" stroke-linecap="butt"/><path d="M211.42,325.18633c-0.81233,0.00403 -1.61642,-0.16292 -2.36,-0.49l0.36,-1.33c0.61959,0.32019 1.30292,0.49786 2,0.52c0.49,0 0.76,-0.16 0.76,-0.45c0,-0.29 -0.32,-0.43 -0.95,-0.58c-1.3,-0.25 -2.12,-0.73 -2.12,-1.82c0,-1.09 0.91,-1.79 2.45,-1.79c0.78038,0.01355 1.55094,0.17648 2.27,0.48l-0.33,1.31c-0.59871,-0.29719 -1.25238,-0.46742 -1.92,-0.5c-0.44,0 -0.68,0.14 -0.68,0.42c0,0.28 0.35,0.42 1,0.55c1.32,0.29 2.1,0.72 2.1,1.83c0,1.11 -0.93,1.85 -2.58,1.85z" fill="#000000" stroke="none" stroke-width="1" stroke-linecap="butt"/><path d="M218.35,324.33633c-0.36912,0.52533 -0.96801,0.84152 -1.61,0.85c-0.43214,0.02447 -0.85593,-0.12609 -1.17577,-0.41771c-0.31984,-0.29162 -0.50879,-0.69974 -0.52423,-1.13229c0,-1.05 0.79,-1.91 3.3,-2v-0.11c0,-0.58 -0.3,-0.85 -1,-0.85c-0.66461,0.04677 -1.31035,0.24152 -1.89,0.57l-0.38,-1.36c0.78843,-0.42116 1.66622,-0.64747 2.56,-0.66c1.93,0 2.57,0.88 2.54,2.44v1.65c0,0.39 0.07,0.42 0.46,0.46l-0.18,1.32c-1.21,0.15 -1.81,-0.17 -2.06,-0.78zM218.35,322.52633c-1.14,0.13 -1.56,0.34 -1.56,0.84c0.00449,0.17381 0.08176,0.33775 0.21296,0.45184c0.1312,0.11409 0.30429,0.16785 0.47704,0.14816c0.33173,0.00721 0.64985,-0.13175 0.87,-0.38z" fill="#000000" stroke="none" stroke-width="1" stroke-linecap="butt"/><path d="M228.87,325.03633v-3.29c0,-0.67 -0.29,-0.9 -0.75,-0.9c-0.33422,0.00444 -0.65491,0.13272 -0.9,0.36v3.83h-1.85v-3.29c0,-0.67 -0.3,-0.9 -0.77,-0.9c-0.33074,0.00346 -0.64958,0.12391 -0.9,0.34v3.85h-1.85v-5.48l1.85,-0.23v0.71c0.44935,-0.51582 1.09602,-0.81736 1.78,-0.83c0.68013,-0.02472 1.30486,0.37319 1.57,1c0.46193,-0.60457 1.1697,-0.97129 1.93,-1c0.50061,-0.01643 0.98299,0.18875 1.31838,0.56076c0.33539,0.37201 0.48966,0.873 0.42162,1.36924v3.9z" fill="#000000" stroke="none" stroke-width="1" stroke-linecap="butt"/><path d="M233.91,322.65633c0.06,0.74 0.58,1.17 1.48,1.17c0.64338,-0.01819 1.27081,-0.20435 1.82,-0.54l0.18,1.43c-0.67977,0.31387 -1.42135,0.47108 -2.17,0.46c-0.81843,0.0987 -1.63861,-0.16959 -2.2405,-0.73289c-0.60188,-0.5633 -0.92384,-1.36394 -0.8795,-2.18711c-0.04059,-0.80741 0.26242,-1.59429 0.83407,-2.16593c0.57165,-0.57165 1.35852,-0.87466 2.16593,-0.83407c0.64979,-0.07238 1.29828,0.14667 1.77109,0.59824c0.47281,0.45158 0.72139,1.08933 0.67891,1.74176c0.00055,0.33696 -0.03974,0.67274 -0.12,1l-3.54,0.06zM235.91,321.65633v-0.11c0,-0.66 -0.28,-1.07 -0.86,-1.07c-0.61622,0.05236 -1.08746,0.57161 -1.08,1.19z" fill="#000000" stroke="none" stroke-width="1" stroke-linecap="butt"/><path d="M244.36,325.18633c-1.37,0 -2.12,-0.56 -2.05,-2l0.09,-2.12l-0.84,-0.14v-1.18l0.84,-0.28v-1.27h1.79v1.33h1.39v1.46h-1.48l-0.06,2c-0.03105,0.20154 0.03579,0.40582 0.17999,0.55001c0.14419,0.14419 0.34847,0.21104 0.55001,0.17999c0.249,-0.00958 0.49512,-0.05678 0.73,-0.14l0.22,1.44c-0.44111,0.13005 -0.90045,0.18746 -1.36,0.17z" fill="#000000" stroke="none" stroke-width="1" stroke-linecap="butt"/><path d="M248,318.63633c-0.67,0 -1.09,-0.35 -1.09,-1c-0.00114,-0.28157 0.11648,-0.55058 0.32396,-0.74093c0.20749,-0.19035 0.48561,-0.28441 0.76604,-0.25907c0.69,0 1.09,0.35 1.09,1c0,0.65 -0.45,1 -1.09,1zM247,325.03633v-5.48l1.85,-0.23v5.71z" fill="#000000" stroke="none" stroke-width="1" stroke-linecap="butt"/><path d="M250.58,325.03633v-8l1.85,-0.23v8.23z" fill="#000000" stroke="none" stroke-width="1" stroke-linecap="butt"/><path d="M255.64,322.65633c0.06,0.74 0.58,1.17 1.48,1.17c0.64338,-0.01819 1.27081,-0.20435 1.82,-0.54l0.18,1.43c-0.679,0.31618 -1.42111,0.4735 -2.17,0.46c-0.81843,0.0987 -1.63861,-0.16959 -2.2405,-0.73289c-0.60188,-0.5633 -0.92384,-1.36394 -0.8795,-2.18711c-0.03744,-0.80655 0.26659,-1.59156 0.83752,-2.16248c0.57093,-0.57093 1.35594,-0.87496 2.16248,-0.83752c0.64816,-0.0692 1.29381,0.15128 1.76428,0.60246c0.47046,0.45118 0.71775,1.08705 0.67572,1.73754c0.00055,0.33696 -0.03974,0.67274 -0.12,1l-3.54,0.06zM257.59,321.65633v-0.11c0,-0.66 -0.28,-1.07 -0.85,-1.07c-0.61856,0.0476 -1.09243,0.56973 -1.08,1.19z" fill="#000000" stroke="none" stroke-width="1" stroke-linecap="butt"/><path d="M265.66,319.42633v3.3c0,0.67 0.29,0.9 0.77,0.9c0.35119,-0.00336 0.68905,-0.13494 0.95,-0.37v-3.83h1.85v5.49l-1.85,0.23v-0.82c-0.46141,0.52071 -1.11487,0.83119 -1.81,0.86c-0.50033,0.01898 -0.98359,-0.18356 -1.32087,-0.55361c-0.33728,-0.37005 -0.49428,-0.86996 -0.42913,-1.36639v-3.84z" fill="#000000" stroke="none" stroke-width="1" stroke-linecap="butt"/><path d="M274.58,325.03633v-3.3c0,-0.67 -0.3,-0.89 -0.79,-0.89c-0.37245,0.01762 -0.72667,0.16639 -1,0.42v3.77h-1.85v-5.48l1.85,-0.23v0.91c0.4486,-0.589 1.13105,-0.95395 1.87,-1c0.5044,-0.02457 0.99387,0.17507 1.3372,0.54541c0.34333,0.37034 0.50541,0.87349 0.4428,1.37459v3.88z" fill="#000000" stroke="none" stroke-width="1" stroke-linecap="butt"/><path d="M281.75,317.03633l1.85,-0.23v8.23h-1.85v-0.58c-0.38962,0.45501 -0.95141,0.72685 -1.55,0.75c-1.38,0 -2.39,-1.13 -2.39,-2.89c-0.04656,-0.77266 0.2254,-1.53066 0.75255,-2.09748c0.52714,-0.56682 1.26345,-0.89298 2.03745,-0.90252c0.39181,0.00201 0.78052,0.06961 1.15,0.2zM280.9,320.58633c-0.78,0 -1.24,0.64 -1.24,1.56c0,0.92 0.48,1.51 1.16,1.51c0.35042,0.01409 0.68972,-0.12454 0.93,-0.38v-2.45c-0.25723,-0.14949 -0.5531,-0.2191 -0.85,-0.2z" fill="#000000" stroke="none" stroke-width="1" stroke-linecap="butt"/><path d="M286.83,322.65633c0.06,0.74 0.58,1.17 1.48,1.17c0.64338,-0.01819 1.27081,-0.20435 1.82,-0.54l0.18,1.43c-0.67977,0.31387 -1.42135,0.47108 -2.17,0.46c-0.81843,0.0987 -1.63861,-0.16959 -2.2405,-0.73289c-0.60188,-0.5633 -0.92384,-1.36394 -0.8795,-2.18711c-0.04059,-0.80741 0.26242,-1.59429 0.83407,-2.16593c0.57165,-0.57165 1.35852,-0.87466 2.16593,-0.83407c0.64979,-0.07238 1.29828,0.14667 1.77109,0.59824c0.47281,0.45158 0.72139,1.08933 0.67891,1.74176c0.00055,0.33696 -0.03974,0.67274 -0.12,1l-3.54,0.06zM288.77,321.65633v-0.11c0,-0.66 -0.27,-1.07 -0.85,-1.07c-0.61622,0.05236 -1.08746,0.57161 -1.08,1.19z" fill="#000000" stroke="none" stroke-width="1" stroke-linecap="butt"/><path d="M293.77,325.03633h-1.85v-5.48l1.85,-0.23v0.82c0.23834,-0.52689 0.76172,-0.8667 1.34,-0.87c0.32067,0.0018 0.63621,0.08069 0.92,0.23l-0.37,1.63c-0.21306,-0.11112 -0.4497,-0.16942 -0.69,-0.17c-0.52556,0.01632 -0.99382,0.3363 -1.2,0.82z" fill="#000000" stroke="none" stroke-width="1" stroke-linecap="butt"/><path d="M303,325.18633c-0.80656,0.08629 -1.60954,-0.1919 -2.18985,-0.75867c-0.58031,-0.56677 -0.87738,-1.36296 -0.81015,-2.17133c-0.04923,-0.8222 0.26093,-1.62528 0.85003,-2.20095c0.5891,-0.57567 1.39912,-0.86723 2.21997,-0.79905c0.69503,-0.00884 1.38166,0.15251 2,0.47l-0.36,1.39c-0.45093,-0.26177 -0.959,-0.40938 -1.48,-0.43c-0.39473,-0.01194 -0.77489,0.14955 -1.04034,0.44193c-0.26545,0.29238 -0.38957,0.68633 -0.33966,1.07807c-0.05413,0.40406 0.07451,0.81124 0.35094,1.11087c0.27644,0.29963 0.67195,0.46059 1.07906,0.43913c0.51962,0.00013 1.02888,-0.14537 1.47,-0.42l0.28,1.4c-0.62722,0.32067 -1.32603,0.47558 -2.03,0.45z" fill="#000000" stroke="none" stroke-width="1" stroke-linecap="butt"/><path d="M308.24,319.42633v3.3c0,0.67 0.29,0.9 0.77,0.9c0.34828,-0.003 0.68312,-0.1348 0.94,-0.37v-3.83h1.85v5.49l-1.85,0.23v-0.82c-0.46141,0.52071 -1.11487,0.83119 -1.81,0.86c-0.50033,0.01898 -0.98359,-0.18356 -1.32087,-0.55361c-0.33728,-0.37005 -0.49428,-0.86996 -0.42913,-1.36639v-3.84z" fill="#000000" stroke="none" stroke-width="1" stroke-linecap="butt"/><path d="M315.36,325.03633h-1.85v-5.48l1.85,-0.23v0.82c0.23834,-0.52689 0.76172,-0.8667 1.34,-0.87c0.32067,0.0018 0.63621,0.08069 0.92,0.23l-0.37,1.63c-0.217,-0.11015 -0.45664,-0.16835 -0.7,-0.17c-0.5227,0.01769 -0.98734,0.33786 -1.19,0.82z" fill="#000000" stroke="none" stroke-width="1" stroke-linecap="butt"/><path d="M320.66,325.18633c-0.81254,0.00615 -1.61707,-0.16089 -2.36,-0.49l0.36,-1.33c0.6191,0.32147 1.30272,0.49921 2,0.52c0.49,0 0.75,-0.16 0.75,-0.45c0,-0.29 -0.31,-0.43 -0.95,-0.58c-1.29,-0.25 -2.12,-0.73 -2.12,-1.82c0,-1.09 0.91,-1.79 2.46,-1.79c0.78013,0.01573 1.55028,0.17858 2.27,0.48l-0.38,1.32c-0.59514,-0.29722 -1.24556,-0.46749 -1.91,-0.5c-0.45,0 -0.69,0.14 -0.69,0.42c0,0.28 0.35,0.42 1,0.55c1.32,0.29 2.1,0.72 2.1,1.83c0,1.11 -0.89,1.84 -2.53,1.84z" fill="#000000" stroke="none" stroke-width="1" stroke-linecap="butt"/><path d="M327.23,325.18633c-0.80513,0.06561 -1.59897,-0.22223 -2.17495,-0.78861c-0.57598,-0.56638 -0.87712,-1.35527 -0.82505,-2.16139c-0.04059,-0.80741 0.26242,-1.59429 0.83407,-2.16593c0.57165,-0.57165 1.35852,-0.87466 2.16593,-0.83407c0.80611,-0.05207 1.59501,0.24907 2.16139,0.82505c0.56638,0.57598 0.85422,1.36982 0.78861,2.17495c0.0194,0.78818 -0.28517,1.54985 -0.84266,2.10734c-0.55749,0.55749 -1.31916,0.86206 -2.10734,0.84266zM327.23,320.65633c-0.76,0 -1.15,0.61 -1.15,1.57c0,0.96 0.41,1.54 1.16,1.54c0.75,0 1.15,-0.6 1.15,-1.56c0,-0.96 -0.39,-1.55 -1.13,-1.55z" fill="#000000" stroke="none" stroke-width="1" stroke-linecap="butt"/><path d="M333.51,325.03633h-1.85v-5.48l1.85,-0.23v0.82c0.2403,-0.5252 0.76247,-0.86422 1.34,-0.87c0.32406,0.00019 0.64321,0.07912 0.93,0.23l-0.37,1.63c-0.217,-0.11015 -0.45664,-0.16835 -0.7,-0.17c-0.52476,0.01875 -0.99184,0.33793 -1.2,0.82z" fill="#000000" stroke="none" stroke-width="1" stroke-linecap="butt"/><path d="M96.55,341.86633v-10.76h4.07v1.37h-2.43v8h2.43v1.36z" fill="#000000" stroke="none" stroke-width="1" stroke-linecap="butt"/><path d="M105.13,341.79633h-1.52l2.92,-10.76h1.47z" fill="#000000" stroke="none" stroke-width="1" stroke-linecap="butt"/><path d="M111.23,340.50633h2.44v-8h-2.44v-1.37h4.09v10.76h-4.09z" fill="#000000" stroke="none" stroke-width="1" stroke-linecap="butt"/><path d="M155.1,339.40633h-1.9l-0.55,-1.6h-2.78l-0.54,1.6h-1.9l2.66,-7.5h2.39zM151.27,333.40633l-1,2.94h2z" fill="#000000" stroke="none" stroke-width="1" stroke-linecap="butt"/><path d="M158.16,339.58633c-0.81254,0.00615 -1.61707,-0.16089 -2.36,-0.49l0.36,-1.33c0.61898,0.3218 1.30267,0.49956 2,0.52c0.5,0 0.76,-0.16 0.76,-0.45c0,-0.29 -0.31,-0.43 -0.95,-0.58c-1.29,-0.25 -2.12,-0.73 -2.12,-1.82c0,-1.09 0.91,-1.79 2.46,-1.79c0.77703,0.01457 1.54412,0.17749 2.26,0.48l-0.37,1.32c-0.5983,-0.29828 -1.25221,-0.46857 -1.92,-0.5c-0.44,0 -0.68,0.14 -0.68,0.42c0,0.28 0.35,0.42 1,0.55c1.32,0.29 2.1,0.72 2.1,1.83c0,1.11 -0.9,1.84 -2.54,1.84z" fill="#000000" stroke="none" stroke-width="1" stroke-linecap="butt"/><path d="M164.12,339.58633c-0.81245,0.00523 -1.61679,-0.16177 -2.36,-0.49l0.36,-1.33c0.61959,0.32019 1.30292,0.49786 2,0.52c0.49,0 0.75,-0.16 0.75,-0.45c0,-0.29 -0.31,-0.43 -0.94,-0.58c-1.3,-0.25 -2.13,-0.73 -2.13,-1.82c0,-1.09 0.91,-1.79 2.46,-1.79c0.78038,0.01355 1.55094,0.17648 2.27,0.48l-0.37,1.32c-0.59871,-0.29719 -1.25238,-0.46742 -1.92,-0.5c-0.45,0 -0.69,0.14 -0.69,0.42c0,0.28 0.35,0.42 1,0.55c1.32,0.29 2.1,0.72 2.1,1.83c0,1.11 -0.88,1.84 -2.53,1.84z" fill="#000000" stroke="none" stroke-width="1" stroke-linecap="butt"/><path d="M169,333.03633c-0.67,0 -1.09,-0.35 -1.09,-1c0,-0.60199 0.48801,-1.09 1.09,-1.09c0.60199,0 1.09,0.48801 1.09,1.09c-0.04,0.65 -0.45,1 -1.09,1zM168.08,339.40633v-5.48l1.84,-0.23v5.71z" fill="#000000" stroke="none" stroke-width="1" stroke-linecap="butt"/><path d="M171.26,338.76633c0.08161,-0.61338 0.54348,-1.10738 1.15,-1.23c-0.67911,-0.3085 -1.1165,-0.98411 -1.12,-1.73c0,-1.21 1,-2.16 2.65,-2.16c0.58825,0.01421 1.16713,0.15042 1.7,0.4l1.57,-0.13l0.09,1.5l-1.08,-0.17c0.10111,0.18725 0.15274,0.39721 0.15,0.61c-0.04752,0.59324 -0.33443,1.14159 -0.79471,1.51886c-0.46027,0.37727 -1.05427,0.55098 -1.64529,0.48114c-0.25196,-0.00298 -0.50308,-0.02977 -0.75,-0.08c-0.17226,0.06968 -0.29425,0.22598 -0.32,0.41c0,0.25 0.29,0.35 1,0.35h0.66c1.52,0 2.58,0.38 2.58,1.57c0,1.39 -1.67,2.29 -3.49,2.29c-1.5,0 -2.73,-0.47 -2.73,-1.45c0,-0.56 0.45,-1.07 1.33,-1.18c-0.47,-0.13 -0.95,-0.48 -0.95,-1zM172.52,340.59633c0,0.43 0.55,0.73 1.41,0.73c0.86,0 1.58,-0.28 1.58,-0.76c0,-0.48 -0.47,-0.55 -1.44,-0.55c-0.35,0 -0.9,0 -1.1,0c-0.24893,0.09088 -0.42382,0.31629 -0.45,0.58zM173.93,336.80633c0.56,0 0.81,-0.41 0.81,-1c0,-0.59 -0.27,-1 -0.85,-1c-0.58,0 -0.84,0.41 -0.84,1c0,0.59 0.29,1 0.88,1z" fill="#000000" stroke="none" stroke-width="1" stroke-linecap="butt"/><path d="M182,339.40633v-3.3c0,-0.67 -0.3,-0.89 -0.79,-0.89c-0.37245,0.01762 -0.72667,0.16639 -1,0.42v3.77h-1.84v-5.48l1.84,-0.23v0.91c0.45432,-0.58744 1.13895,-0.95161 1.88,-1c0.50374,-0.02509 0.99262,0.1748 1.33449,0.54563c0.34186,0.37083 0.50141,0.87432 0.43551,1.37437v3.84z" fill="#000000" stroke="none" stroke-width="1" stroke-linecap="butt"/><path d="M191.33,339.58633c-0.8057,0.0826 -1.60648,-0.19681 -2.1859,-0.76271c-0.57942,-0.5659 -0.87766,-1.35986 -0.8141,-2.16729c-0.04923,-0.8222 0.26093,-1.62528 0.85003,-2.20095c0.5891,-0.57567 1.39912,-0.86723 2.21997,-0.79905c0.69516,-0.01007 1.38209,0.15136 2,0.47l-0.36,1.39c-0.44683,-0.26286 -0.95195,-0.41061 -1.47,-0.43c-0.39473,-0.01194 -0.77489,0.14955 -1.04034,0.44193c-0.26545,0.29238 -0.38957,0.68633 -0.33966,1.07807c-0.05374,0.40225 0.07363,0.80762 0.34776,1.10685c0.27414,0.29923 0.66683,0.46153 1.07224,0.44315c0.52295,0.00147 1.03578,-0.14406 1.48,-0.42l0.27,1.4c-0.62629,0.32323 -1.32578,0.47829 -2.03,0.45z" fill="#000000" stroke="none" stroke-width="1" stroke-linecap="butt"/><path d="M197.39,339.58633c-0.80427,0.06219 -1.59609,-0.22677 -2.17126,-0.79236c-0.57517,-0.56559 -0.8774,-1.35244 -0.82874,-2.15764c-0.04059,-0.80741 0.26242,-1.59429 0.83407,-2.16593c0.57165,-0.57165 1.35852,-0.87466 2.16593,-0.83407c0.79678,-0.05041 1.57677,0.24416 2.14131,0.80869c0.56453,0.56453 0.85911,1.34453 0.80869,2.14131c0.03348,0.7967 -0.26486,1.57163 -0.82395,2.1402c-0.55909,0.56857 -1.32889,0.87989 -2.12605,0.8598zM197.39,335.05633c-0.76,0 -1.15,0.61 -1.15,1.57c0,0.96 0.41,1.54 1.16,1.54c0.75,0 1.15,-0.6 1.15,-1.56c0,-0.96 -0.39,-1.57 -1.14,-1.57z" fill="#000000" stroke="none" stroke-width="1" stroke-linecap="butt"/><path d="M208.83,339.40633v-3.29c0,-0.67 -0.29,-0.9 -0.75,-0.9c-0.33422,0.00444 -0.65491,0.13272 -0.9,0.36v3.83h-1.85v-3.29c0,-0.67 -0.3,-0.9 -0.77,-0.9c-0.33074,0.00346 -0.64958,0.12391 -0.9,0.34v3.85h-1.85v-5.48l1.85,-0.23v0.78c0.44857,-0.51685 1.09573,-0.81861 1.78,-0.83c0.68013,-0.02472 1.30486,0.37319 1.57,1c0.46193,-0.60457 1.1697,-0.97129 1.93,-1c0.50061,-0.01643 0.98299,0.18875 1.31838,0.56076c0.33539,0.37201 0.48966,0.873 0.42162,1.36924v3.83z" fill="#000000" stroke="none" stroke-width="1" stroke-linecap="butt"/><path d="M219.38,339.40633v-3.29c0,-0.67 -0.29,-0.9 -0.76,-0.9c-0.33348,0.00812 -0.65292,0.13589 -0.9,0.36v3.83h-1.84v-3.29c0,-0.67 -0.3,-0.9 -0.77,-0.9c-0.33074,0.00346 -0.64958,0.12391 -0.9,0.34v3.85h-1.85v-5.48l1.85,-0.23v0.78c0.44857,-0.51685 1.09573,-0.81861 1.78,-0.83c0.68013,-0.02472 1.30486,0.37319 1.57,1c0.46193,-0.60457 1.1697,-0.97129 1.93,-1c0.50061,-0.01643 0.98299,0.18875 1.31838,0.56076c0.33539,0.37201 0.48966,0.873 0.42162,1.36924v3.83z" fill="#000000" stroke="none" stroke-width="1" stroke-linecap="butt"/><path d="M225.92,338.73633c-0.36912,0.52533 -0.96801,0.84152 -1.61,0.85c-0.43214,0.02447 -0.85593,-0.12609 -1.17577,-0.41771c-0.31984,-0.29162 -0.50879,-0.69974 -0.52423,-1.13229c0,-1.05 0.79,-1.91 3.3,-2v-0.1c0,-0.59 -0.3,-0.86 -1,-0.86c-0.66803,0.0453 -1.31735,0.2401 -1.9,0.57l-0.38,-1.36c0.78843,-0.42116 1.66622,-0.64747 2.56,-0.66c1.93,0 2.57,0.88 2.55,2.44v1.65c0,0.39 0.08,0.42 0.46,0.46l-0.18,1.32c-1.21,0.15 -1.81,-0.17 -2.06,-0.78zM225.92,336.92633c-1.14,0.13 -1.56,0.34 -1.56,0.84c0.0042,0.17578 0.08283,0.34152 0.21633,0.45595c0.1335,0.11443 0.30931,0.16679 0.48367,0.14405c0.32853,0.00562 0.64295,-0.13332 0.86,-0.38z" fill="#000000" stroke="none" stroke-width="1" stroke-linecap="butt"/><path d="M233.07,339.40633v-3.3c0,-0.67 -0.3,-0.89 -0.79,-0.89c-0.37245,0.01762 -0.72667,0.16639 -1,0.42v3.77h-1.84v-5.48l1.84,-0.23v0.91c0.45205,-0.58493 1.13252,-0.94882 1.87,-1c0.5044,-0.02457 0.99387,0.17507 1.3372,0.54541c0.34333,0.37034 0.50541,0.87349 0.4428,1.37459v3.84z" fill="#000000" stroke="none" stroke-width="1" stroke-linecap="butt"/><path d="M240.25,331.47633l1.85,-0.23v8.16h-1.85v-0.58c-0.39421,0.45457 -0.95878,0.726 -1.56,0.75c-1.38,0 -2.39,-1.13 -2.39,-2.89c-0.04371,-0.77363 0.23057,-1.53154 0.75928,-2.09801c0.52871,-0.56647 1.26591,-0.89232 2.04072,-0.90199c0.39173,0.00294 0.78028,0.07052 1.15,0.2zM239.4,335.03633c-0.78,0 -1.25,0.64 -1.25,1.56c0,0.92 0.48,1.51 1.16,1.51c0.35294,0.0118 0.69441,-0.12624 0.94,-0.38v-2.45c-0.25358,-0.16182 -0.54923,-0.2453 -0.85,-0.24z" fill="#000000" stroke="none" stroke-width="1" stroke-linecap="butt"/><path d="M249.18,339.58633c-1.38,0 -2.13,-0.56 -2.05,-2l0.08,-2.12l-0.84,-0.14v-1.18l0.84,-0.28v-1.27h1.79v1.33h1.39v1.46h-1.49l-0.06,2c-0.03105,0.20154 0.03579,0.40582 0.17999,0.55001c0.14419,0.14419 0.34847,0.21104 0.55001,0.17999c0.25215,-0.0105 0.50144,-0.05767 0.74,-0.14l0.21,1.43c-0.43322,0.1356 -0.88636,0.19647 -1.34,0.18z" fill="#000000" stroke="none" stroke-width="1" stroke-linecap="butt"/><path d="M254.44,339.58633c-0.80513,0.06561 -1.59897,-0.22223 -2.17495,-0.78861c-0.57598,-0.56638 -0.87712,-1.35527 -0.82505,-2.16139c-0.04059,-0.80741 0.26242,-1.59429 0.83407,-2.16593c0.57165,-0.57165 1.35852,-0.87466 2.16593,-0.83407c0.80513,-0.06561 1.59897,0.22223 2.17495,0.78861c0.57598,0.56638 0.87712,1.35527 0.82505,2.16139c0.03433,0.80568 -0.2707,1.58886 -0.84092,2.15908c-0.57022,0.57022 -1.35339,0.87525 -2.15908,0.84092zM254.44,335.05633c-0.76,0 -1.15,0.61 -1.15,1.57c0,0.96 0.41,1.54 1.16,1.54c0.75,0 1.15,-0.6 1.15,-1.56c0,-0.96 -0.38,-1.57 -1.13,-1.57z" fill="#000000" stroke="none" stroke-width="1" stroke-linecap="butt"/><path d="M264.24,339.58633c-1.38,0 -2.13,-0.56 -2.05,-2l0.08,-2.12l-0.84,-0.14v-1.18l0.84,-0.28v-1.27h1.79v1.33h1.4v1.46h-1.46l-0.06,2c-0.03105,0.20154 0.03579,0.40582 0.17999,0.55001c0.14419,0.14419 0.34847,0.21104 0.55001,0.17999c0.25215,-0.0105 0.50144,-0.05767 0.74,-0.14l0.21,1.43c-0.44595,0.14018 -0.91302,0.2011 -1.38,0.18z" fill="#000000" stroke="none" stroke-width="1" stroke-linecap="butt"/><path d="M267.83,333.03633c-0.68,0 -1.1,-0.35 -1.1,-1c0,-0.65 0.42,-1 1.1,-1c0.28043,-0.02534 0.55855,0.06871 0.76604,0.25907c0.20749,0.19035 0.3251,0.45936 0.32396,0.74093c0,0.65 -0.41,1 -1.09,1zM266.9,339.40633v-5.48l1.85,-0.23v5.71z" fill="#000000" stroke="none" stroke-width="1" stroke-linecap="butt"/><path d="M270.45,339.40633v-7.93l1.85,-0.23v8.16z" fill="#000000" stroke="none" stroke-width="1" stroke-linecap="butt"/><path d="M275.52,337.03633c0.06,0.74 0.57,1.17 1.47,1.17c0.64628,-0.01966 1.27658,-0.20565 1.83,-0.54l0.18,1.43c-0.68282,0.31534 -1.42798,0.47258 -2.18,0.46c-0.81682,0.09549 -1.63416,-0.17424 -2.23369,-0.73715c-0.59954,-0.56291 -0.92019,-1.36165 -0.87631,-2.18285c-0.04059,-0.80741 0.26242,-1.59429 0.83407,-2.16593c0.57165,-0.57165 1.35852,-0.87466 2.16593,-0.83407c0.64897,-0.06877 1.29534,0.15149 1.76727,0.60224c0.47194,0.45075 0.72164,1.08632 0.68273,1.73776c-0.00013,0.33692 -0.04041,0.67262 -0.12,1l-3.54,0.06zM277.46,336.03633v0c0,-0.66 -0.28,-1.07 -0.85,-1.07c-0.62096,0.04268 -1.09756,0.56782 -1.08,1.19z" fill="#000000" stroke="none" stroke-width="1" stroke-linecap="butt"/><path d="M283.74,336.58633c0.01166,-2.4947 1.36902,-4.78882 3.55,-6l1,1.26c-1.71156,0.96391 -2.77054,2.77567 -2.77054,4.74c0,1.96433 1.05898,3.77609 2.77054,4.74l-1,1.26c-2.18252,-1.2096 -3.54046,-3.50472 -3.55,-6z" fill="#000000" stroke="none" stroke-width="1" stroke-linecap="butt"/><path d="M292.22,338.73633c-0.36912,0.52533 -0.96801,0.84152 -1.61,0.85c-0.43214,0.02447 -0.85593,-0.12609 -1.17577,-0.41771c-0.31984,-0.29162 -0.50879,-0.69974 -0.52423,-1.13229c0,-1.05 0.79,-1.91 3.3,-2v-0.1c0,-0.59 -0.3,-0.86 -1,-0.86c-0.66461,0.04677 -1.31035,0.24152 -1.89,0.57l-0.38,-1.36c0.78843,-0.42116 1.66622,-0.64747 2.56,-0.66c1.93,0 2.57,0.88 2.54,2.44v1.65c0,0.39 0.07,0.42 0.46,0.46l-0.18,1.32c-1.21,0.15 -1.81,-0.17 -2.06,-0.78zM292.22,336.92633c-1.14,0.13 -1.56,0.34 -1.56,0.84c0.00449,0.17381 0.08176,0.33775 0.21296,0.45184c0.1312,0.11409 0.30429,0.16785 0.47704,0.14816c0.33173,0.00721 0.64985,-0.13175 0.87,-0.38z" fill="#000000" stroke="none" stroke-width="1" stroke-linecap="butt"/><path d="M299.38,331.47633l1.85,-0.23v8.16h-1.85v-0.58c-0.39272,0.45653 -0.95819,0.72839 -1.56,0.75c-1.38,0 -2.38,-1.13 -2.38,-2.89c-0.04656,-0.77266 0.2254,-1.53066 0.75255,-2.09748c0.52714,-0.56682 1.26345,-0.89298 2.03745,-0.90252c0.39181,0.00201 0.78052,0.06961 1.15,0.2zM298.53,335.02633c-0.78,0 -1.25,0.64 -1.25,1.56c0,0.92 0.48,1.51 1.17,1.51c0.34996,0.01148 0.68822,-0.12674 0.93,-0.38v-2.45c-0.25394,-0.15998 -0.55004,-0.2401 -0.85,-0.23z" fill="#000000" stroke="none" stroke-width="1" stroke-linecap="butt"/><path d="M306.39,339.41633h-2.09l-2.06,-5.59h2l1.15,3.83l1.14,-3.83h2z" fill="#000000" stroke="none" stroke-width="1" stroke-linecap="butt"/><path d="M312.51,338.73633c-0.36912,0.52533 -0.96801,0.84152 -1.61,0.85c-0.43214,0.02447 -0.85593,-0.12609 -1.17577,-0.41771c-0.31984,-0.29162 -0.50879,-0.69974 -0.52423,-1.13229c0,-1.05 0.79,-1.91 3.3,-2v-0.1c0,-0.59 -0.3,-0.86 -1,-0.86c-0.66803,0.0453 -1.31735,0.2401 -1.9,0.57l-0.38,-1.36c0.78843,-0.42116 1.66622,-0.64747 2.56,-0.66c1.93,0 2.57,0.88 2.55,2.44v1.65c0,0.39 0.08,0.42 0.46,0.46l-0.18,1.32c-1.21,0.15 -1.81,-0.17 -2.06,-0.78zM312.51,336.92633c-1.14,0.13 -1.56,0.34 -1.56,0.84c0.0042,0.17578 0.08283,0.34152 0.21633,0.45595c0.1335,0.11443 0.30931,0.16679 0.48367,0.14405c0.32853,0.00562 0.64295,-0.13332 0.86,-0.38z" fill="#000000" stroke="none" stroke-width="1" stroke-linecap="butt"/><path d="M319.66,339.40633v-3.3c0,-0.67 -0.3,-0.89 -0.79,-0.89c-0.37245,0.01762 -0.72667,0.16639 -1,0.42v3.77h-1.87v-5.48l1.84,-0.23v0.91c0.45205,-0.58493 1.13252,-0.94882 1.87,-1c0.5044,-0.02457 0.99387,0.17507 1.3372,0.54541c0.34333,0.37034 0.50541,0.87349 0.4428,1.37459v3.84z" fill="#000000" stroke="none" stroke-width="1" stroke-linecap="butt"/><path d="M325.91,339.58633c-0.8057,0.0826 -1.60648,-0.19681 -2.1859,-0.76271c-0.57942,-0.5659 -0.87766,-1.35986 -0.8141,-2.16729c-0.04923,-0.8222 0.26093,-1.62528 0.85003,-2.20095c0.5891,-0.57567 1.39912,-0.86723 2.21997,-0.79905c0.69516,-0.01007 1.38209,0.15136 2,0.47l-0.36,1.39c-0.44978,-0.26445 -0.95854,-0.41226 -1.48,-0.43c-0.393,-0.00897 -0.7704,0.15382 -1.03358,0.44582c-0.26319,0.292 -0.38602,0.68422 -0.33642,1.07418c-0.05374,0.40225 0.07363,0.80762 0.34776,1.10685c0.27414,0.29923 0.66683,0.46153 1.07224,0.44315c0.52295,0.00147 1.03578,-0.14406 1.48,-0.42l0.27,1.4c-0.62645,0.3228 -1.32583,0.47783 -2.03,0.45z" fill="#000000" stroke="none" stroke-width="1" stroke-linecap="butt"/><path d="M330.82,337.03633c0.06,0.74 0.58,1.17 1.48,1.17c0.64338,-0.01819 1.27081,-0.20435 1.82,-0.54l0.18,1.43c-0.67977,0.31387 -1.42135,0.47108 -2.17,0.46c-0.81843,0.0987 -1.63861,-0.16959 -2.2405,-0.73289c-0.60188,-0.5633 -0.92384,-1.36394 -0.8795,-2.18711c-0.03744,-0.80655 0.26659,-1.59156 0.83752,-2.16248c0.57093,-0.57093 1.35594,-0.87496 2.16248,-0.83752c0.64816,-0.0692 1.29381,0.15128 1.76428,0.60246c0.47046,0.45118 0.71775,1.08705 0.67572,1.73754c-0.00013,0.33692 -0.04041,0.67262 -0.12,1l-3.54,0.06zM332.77,336.03633v0c0,-0.66 -0.28,-1.07 -0.85,-1.07c-0.62096,0.04268 -1.09756,0.56782 -1.08,1.19z" fill="#000000" stroke="none" stroke-width="1" stroke-linecap="butt"/><path d="M339.57,331.47633l1.85,-0.23v8.16h-1.85v-0.58c-0.39421,0.45457 -0.95878,0.726 -1.56,0.75c-1.38,0 -2.39,-1.13 -2.39,-2.89c-0.04371,-0.77363 0.23057,-1.53154 0.75928,-2.09801c0.52871,-0.56647 1.26591,-0.89232 2.04072,-0.90199c0.39173,0.00294 0.78028,0.07052 1.15,0.2zM338.72,335.02633c-0.78,0 -1.25,0.64 -1.25,1.56c0,0.92 0.48,1.51 1.17,1.51c0.34973,0.01021 0.68749,-0.1278 0.93,-0.38v-2.45c-0.25394,-0.15998 -0.55004,-0.2401 -0.85,-0.23z" fill="#000000" stroke="none" stroke-width="1" stroke-linecap="butt"/><path d="M348.5,339.58633c-1.38,0 -2.12,-0.56 -2.05,-2l0.08,-2.12l-0.84,-0.14v-1.18l0.84,-0.28v-1.27h1.79v1.33h1.39v1.46h-1.48l-0.06,2c0,0.51 0.27,0.73 0.73,0.73c0.249,-0.00958 0.49512,-0.05678 0.73,-0.14l0.21,1.43c-0.43322,0.1356 -0.88636,0.19647 -1.34,0.18z" fill="#000000" stroke="none" stroke-width="1" stroke-linecap="butt"/><path d="M353.77,339.58633c-0.80427,0.06219 -1.59609,-0.22677 -2.17126,-0.79236c-0.57517,-0.56559 -0.8774,-1.35244 -0.82874,-2.15764c-0.04059,-0.80741 0.26242,-1.59429 0.83407,-2.16593c0.57165,-0.57165 1.35852,-0.87466 2.16593,-0.83407c0.80513,-0.06561 1.59897,0.22223 2.17495,0.78861c0.57598,0.56638 0.87712,1.35527 0.82505,2.16139c0.03433,0.80568 -0.2707,1.58886 -0.84092,2.15908c-0.57022,0.57022 -1.35339,0.87525 -2.15908,0.84092zM353.77,335.05633c-0.75,0 -1.15,0.61 -1.15,1.57c0,0.96 0.41,1.54 1.16,1.54c0.75,0 1.15,-0.6 1.15,-1.56c0,-0.96 -0.38,-1.57 -1.14,-1.57z" fill="#000000" stroke="none" stroke-width="1" stroke-linecap="butt"/><path d="M361.6,333.64633c1.38,0 2.39,1.13 2.39,2.9c0.04656,0.77266 -0.2254,1.53066 -0.75255,2.09748c-0.52714,0.56682 -1.26345,0.89298 -2.03745,0.90252c-0.39332,-0.00377 -0.78403,-0.0644 -1.16,-0.18v2.49h-1.84v-8l1.84,-0.23v0.71c0.40537,-0.43138 0.96812,-0.68029 1.56,-0.69zM360,337.96633c0.25892,0.15699 0.55728,0.23679 0.86,0.23c0.79,0 1.24,-0.63 1.24,-1.55c0,-0.92 -0.41,-1.52 -1.16,-1.52c-0.35143,-0.00352 -0.68975,0.13325 -0.94,0.38z" fill="#000000" stroke="none" stroke-width="1" stroke-linecap="butt"/><path d="M366.34,333.03633c-0.67,0 -1.09,-0.35 -1.09,-1c-0.00114,-0.28157 0.11648,-0.55058 0.32396,-0.74093c0.20749,-0.19035 0.48561,-0.28441 0.76604,-0.25907c0.69,0 1.09,0.35 1.09,1c0,0.65 -0.43,1 -1.09,1zM365.42,339.40633v-5.48l1.85,-0.23v5.71z" fill="#000000" stroke="none" stroke-width="1" stroke-linecap="butt"/><path d="M371.71,339.58633c-0.8057,0.0826 -1.60648,-0.19681 -2.1859,-0.76271c-0.57942,-0.5659 -0.87766,-1.35986 -0.8141,-2.16729c-0.04923,-0.8222 0.26093,-1.62528 0.85003,-2.20095c0.5891,-0.57567 1.39912,-0.86723 2.21997,-0.79905c0.69516,-0.01007 1.38209,0.15136 2,0.47l-0.36,1.39c-0.42747,-0.27265 -0.91478,-0.43737 -1.42,-0.48c-0.39473,-0.01194 -0.77489,0.14955 -1.04034,0.44193c-0.26545,0.29238 -0.38957,0.68633 -0.33966,1.07807c-0.05374,0.40225 0.07363,0.80762 0.34776,1.10685c0.27414,0.29923 0.66683,0.46153 1.07224,0.44315c0.52295,0.00147 1.03578,-0.14406 1.48,-0.42l0.28,1.4c-0.64034,0.34817 -1.36142,0.52068 -2.09,0.5z" fill="#000000" stroke="none" stroke-width="1" stroke-linecap="butt"/><path d="M374.42,341.32633c1.71156,-0.96391 2.77054,-2.77567 2.77054,-4.74c0,-1.96433 -1.05898,-3.77609 -2.77054,-4.74l1,-1.26c2.19251,1.20009 3.55586,3.50053 3.55586,6c0,2.49947 -1.36334,4.79991 -3.55586,6z" fill="#000000" stroke="none" stroke-width="1" stroke-linecap="butt"/><path d="M96.55,356.26633v-10.76h4.07v1.37h-2.43v8h2.43v1.36z" fill="#000000" stroke="none" stroke-width="1" stroke-linecap="butt"/><path d="M112.83,354.20633l-0.76,1.54l-3.32,-1.77h-0.16c-1.05825,0.07513 -2.09702,-0.31262 -2.8472,-1.0628c-0.75018,-0.75018 -1.13793,-1.78895 -1.0628,-2.8472c-0.06016,-1.06763 0.3335,-2.111 1.08389,-2.87282c0.75039,-0.76182 1.78769,-1.1712 2.85611,-1.12718c1.05806,-0.07784 2.09783,0.30726 2.84992,1.05551c0.7521,0.74826 1.14251,1.78605 1.07008,2.84449c0.04341,1.33742 -0.63676,2.59459 -1.78,3.29zM108.59,347.66633c-1.27,0 -2,1 -2,2.36c0,1.36 0.74,2.45 2,2.45c1.26,0 2,-1 2,-2.4c0,-1.4 -0.73,-2.41 -2,-2.41z" fill="#000000" stroke="none" stroke-width="1" stroke-linecap="butt"/><path d="M117.29,351.63633v2h-1.47v-2h-2v-1.39h2v-2h1.47v2h2v1.39z" fill="#000000" stroke="none" stroke-width="1" stroke-linecap="butt"/><path d="M127.84,348.03633l-1.65,5.66h-2l-1.68,-5.66l-0.05,5.77h-1.77l0.26,-7.5h2.7l1.56,5.63l1.56,-5.63h2.66l0.25,7.5h-1.81z" fill="#000000" stroke="none" stroke-width="1" stroke-linecap="butt"/><path d="M133.89,354.90633h2.43v-8h-2.43v-1.37h4.11v10.76h-4.09z" fill="#000000" stroke="none" stroke-width="1" stroke-linecap="butt"/><path d="M152,347.90633v5.9h-1.91v-5.9h-2.39v-1.6h6.68v1.6z" fill="#000000" stroke="none" stroke-width="1" stroke-linecap="butt"/><path d="M157.37,354.03633c-0.80427,0.06219 -1.59609,-0.22677 -2.17126,-0.79236c-0.57517,-0.56559 -0.8774,-1.35244 -0.82874,-2.15764c-0.04059,-0.80741 0.26242,-1.59429 0.83407,-2.16593c0.57165,-0.57165 1.35852,-0.87466 2.16593,-0.83407c0.79678,-0.05041 1.57677,0.24416 2.14131,0.80869c0.56453,0.56453 0.85911,1.34453 0.80869,2.14131c0.03348,0.7967 -0.26486,1.57163 -0.82395,2.1402c-0.55909,0.56857 -1.32889,0.87989 -2.12605,0.8598zM157.37,349.50633c-0.76,0 -1.15,0.61 -1.15,1.57c0,0.96 0.41,1.54 1.16,1.54c0.75,0 1.15,-0.6 1.15,-1.56c0,-0.96 -0.38,-1.6 -1.14,-1.6z" fill="#000000" stroke="none" stroke-width="1" stroke-linecap="butt"/><path d="M161.47,353.16633c0.08161,-0.61338 0.54348,-1.10738 1.15,-1.23c-0.68255,-0.30449 -1.12157,-0.98261 -1.12,-1.73c0,-1.21 1,-2.16 2.65,-2.16c0.58825,0.01421 1.16713,0.15042 1.7,0.4l1.57,-0.13l0.08,1.5l-1.07,-0.17c0.10111,0.18725 0.15274,0.39721 0.15,0.61c-0.05009,0.59408 -0.33915,1.14239 -0.80099,1.51941c-0.46184,0.37702 -1.05693,0.55045 -1.64901,0.48059c-0.24862,-0.00361 -0.49636,-0.03039 -0.74,-0.08c-0.17495,0.06607 -0.2984,0.22424 -0.32,0.41c0,0.25 0.28,0.35 1,0.35h0.66c1.52,0 2.57,0.38 2.57,1.57c0,1.39 -1.66,2.29 -3.49,2.29c-1.49,0 -2.72,-0.47 -2.72,-1.45c0,-0.56 0.45,-1.07 1.33,-1.18c-0.42,-0.13 -0.95,-0.48 -0.95,-1zM162.73,354.99633c0,0.43 0.55,0.73 1.4,0.73c0.85,0 1.59,-0.28 1.59,-0.76c0,-0.48 -0.47,-0.55 -1.44,-0.55c-0.35,0 -0.9,0 -1.1,0c-0.25981,0.09896 -0.43644,0.34231 -0.45,0.62zM164.13,351.20633c0.57,0 0.82,-0.41 0.82,-1c0,-0.59 -0.28,-1 -0.85,-1c-0.57,0 -0.84,0.41 -0.84,1c0,0.59 0.29,1 0.87,1z" fill="#000000" stroke="none" stroke-width="1" stroke-linecap="butt"/><path d="M168.25,353.16633c0.08161,-0.61338 0.54348,-1.10738 1.15,-1.23c-0.68255,-0.30449 -1.12157,-0.98261 -1.12,-1.73c0,-1.21 1,-2.16 2.65,-2.16c0.58825,0.01421 1.16713,0.15042 1.7,0.4l1.57,-0.13l0.08,1.5l-1.08,-0.17c0.10913,0.18445 0.16455,0.39573 0.16,0.61c-0.05009,0.59408 -0.33915,1.14239 -0.80099,1.51941c-0.46184,0.37702 -1.05693,0.55045 -1.64901,0.48059c-0.24862,-0.00361 -0.49636,-0.03039 -0.74,-0.08c-0.17495,0.06607 -0.2984,0.22424 -0.32,0.41c0,0.25 0.28,0.35 1,0.35h0.66c1.52,0 2.57,0.38 2.57,1.57c0,1.39 -1.66,2.29 -3.49,2.29c-1.49,0 -2.72,-0.47 -2.72,-1.45c0,-0.56 0.45,-1.07 1.33,-1.18c-0.47,-0.13 -0.95,-0.48 -0.95,-1zM169.51,354.99633c0,0.43 0.55,0.73 1.4,0.73c0.85,0 1.59,-0.28 1.59,-0.76c0,-0.48 -0.47,-0.55 -1.44,-0.55c-0.35,0 -0.9,0 -1.11,0c-0.25428,0.10412 -0.42566,0.3456 -0.44,0.62zM170.91,351.20633c0.57,0 0.82,-0.41 0.82,-1c0,-0.59 -0.28,-1 -0.85,-1c-0.57,0 -0.84,0.41 -0.84,1c0,0.59 0.29,1 0.87,1z" fill="#000000" stroke="none" stroke-width="1" stroke-linecap="butt"/><path d="M175.3,353.80633v-7.93l1.84,-0.23v8.16z" fill="#000000" stroke="none" stroke-width="1" stroke-linecap="butt"/><path d="M180.36,351.45633c0.06,0.74 0.57,1.17 1.47,1.17c0.6465,-0.0183 1.27713,-0.20439 1.83,-0.54l0.18,1.43c-0.67977,0.31387 -1.42135,0.47108 -2.17,0.46c-0.81843,0.0987 -1.63861,-0.16959 -2.2405,-0.73289c-0.60188,-0.5633 -0.92384,-1.36394 -0.8795,-2.18711c-0.04059,-0.80741 0.26242,-1.59429 0.83407,-2.16593c0.57165,-0.57165 1.35852,-0.87466 2.16593,-0.83407c0.64897,-0.06877 1.29534,0.15149 1.76727,0.60224c0.47194,0.45075 0.72164,1.08632 0.68273,1.73776c-0.00013,0.33692 -0.04041,0.67262 -0.12,1l-3.54,0.06zM182.3,350.45633v-0.11c0,-0.66 -0.27,-1.07 -0.85,-1.07c-0.61856,0.0476 -1.09243,0.56973 -1.08,1.19z" fill="#000000" stroke="none" stroke-width="1" stroke-linecap="butt"/><path d="M188.69,353.80633v-7.5h5.48v1.54h-3.61v1.44h2.9v1.52h-2.9v1.46h3.61v1.54z" fill="#000000" stroke="none" stroke-width="1" stroke-linecap="butt"/><path d="M199.33,345.87633l1.85,-0.23v8.16h-1.85v-0.58c-0.39421,0.45457 -0.95878,0.726 -1.56,0.75c-1.38,0 -2.39,-1.13 -2.39,-2.89c-0.04371,-0.77363 0.23057,-1.53154 0.75928,-2.09801c0.52871,-0.56647 1.26591,-0.89232 2.04072,-0.90199c0.39173,0.00294 0.78028,0.07052 1.15,0.2zM198.48,349.42633c-0.78,0 -1.25,0.64 -1.25,1.56c0,0.92 0.48,1.51 1.16,1.51c0.35294,0.0118 0.69441,-0.12624 0.94,-0.38v-2.45c-0.25283,-0.16349 -0.549,-0.24712 -0.85,-0.24z" fill="#000000" stroke="none" stroke-width="1" stroke-linecap="butt"/><path d="M203.82,347.43633c-0.67,0 -1.09,-0.35 -1.09,-1c0,-0.60199 0.48801,-1.09 1.09,-1.09c0.60199,0 1.09,0.48801 1.09,1.09c0,0.65 -0.41,1 -1.09,1zM202.89,353.80633v-5.48l1.85,-0.23v5.71z" fill="#000000" stroke="none" stroke-width="1" stroke-linecap="butt"/><path d="M208.69,354.03633c-1.38,0 -2.12,-0.57 -2.05,-2l0.08,-2.12l-0.84,-0.14v-1.18l0.84,-0.28v-1.27h1.79v1.33h1.49v1.46h-1.48l-0.06,2c0,0.51 0.27,0.73 0.73,0.73c0.249,-0.00958 0.49512,-0.05678 0.73,-0.14l0.22,1.44c-0.47023,0.13833 -0.96053,0.19581 -1.45,0.17z" fill="#000000" stroke="none" stroke-width="1" stroke-linecap="butt"/><path d="M214,354.03633c-0.80513,0.06561 -1.59897,-0.22223 -2.17495,-0.78861c-0.57598,-0.56638 -0.87712,-1.35527 -0.82505,-2.16139c-0.04379,-0.80828 0.25819,-1.59705 0.83057,-2.16943c0.57238,-0.57238 1.36115,-0.87436 2.16943,-0.83057c0.80513,-0.06561 1.59897,0.22223 2.17495,0.78861c0.57598,0.56638 0.87712,1.35527 0.82505,2.16139c0.03433,0.80568 -0.2707,1.58886 -0.84092,2.15908c-0.57022,0.57022 -1.35339,0.87525 -2.15908,0.84092zM214,349.50633c-0.75,0 -1.15,0.61 -1.15,1.57c0,0.96 0.41,1.54 1.16,1.54c0.75,0 1.15,-0.6 1.15,-1.56c0,-0.96 -0.42,-1.6 -1.16,-1.6z" fill="#000000" stroke="none" stroke-width="1" stroke-linecap="butt"/><path d="M220.23,353.80633h-1.84v-5.48l1.84,-0.23v0.82c0.24377,-0.52677 0.76957,-0.86563 1.35,-0.87c0.32067,0.0018 0.63621,0.08069 0.92,0.23l-0.37,1.63c-0.217,-0.11015 -0.45664,-0.16835 -0.7,-0.17c-0.52397,0.02114 -0.9899,0.33953 -1.2,0.82z" fill="#000000" stroke="none" stroke-width="1" stroke-linecap="butt"/><path d="M227,356.19633h-1.51l2.92,-10.81h1.51z" fill="#000000" stroke="none" stroke-width="1" stroke-linecap="butt"/><path d="M236.4,351.62633h-0.73v2.17h-1.91v-7.5h2.77c2.1,0 3.2,1.06 3.2,2.61c0,1.76 -1.19,2.72 -3.33,2.72zM236.4,347.81633h-0.77v2.34h0.77c1,0 1.45,-0.43 1.45,-1.19c0,-0.76 -0.51,-1.15 -1.46,-1.15z" fill="#000000" stroke="none" stroke-width="1" stroke-linecap="butt"/><path d="M241.15,353.80633v-7.93l1.85,-0.23v8.16z" fill="#000000" stroke="none" stroke-width="1" stroke-linecap="butt"/><path d="M247.71,353.13633c-0.36706,0.52251 -0.96156,0.83833 -1.6,0.85c-0.43312,0.02448 -0.85796,-0.12578 -1.17939,-0.41713c-0.32142,-0.29135 -0.51256,-0.69943 -0.53061,-1.13287c0,-1 0.79,-1.91 3.3,-2v-0.11c0,-0.58 -0.3,-0.85 -1,-0.85c-0.66803,0.0453 -1.31735,0.2401 -1.9,0.57l-0.38,-1.36c0.79586,-0.41932 1.68047,-0.64219 2.58,-0.65c1.93,0 2.56,0.88 2.54,2.44v1.65c0,0.39 0.07,0.42 0.45,0.46l-0.18,1.32c-1.21,0.15 -1.81,-0.17 -2.06,-0.78zM247.71,351.32633c-1.14,0.13 -1.56,0.34 -1.56,0.84c0.0042,0.17578 0.08283,0.34152 0.21633,0.45595c0.1335,0.11443 0.30931,0.16679 0.48367,0.14405c0.32853,0.00562 0.64295,-0.13332 0.86,-0.38z" fill="#000000" stroke="none" stroke-width="1" stroke-linecap="butt"/><path d="M254.68,353.54633l-0.27,0.73c-0.58,1.63 -1.27,2.12 -2.45,2.12c-0.57008,0.00563 -1.13408,-0.11743 -1.65,-0.36l0.55,-1.4c0.26594,0.14278 0.55896,0.22796 0.86,0.25c0.4,0 0.58,-0.15 0.79,-0.68l0.16,-0.44l-2.18,-5.54h2l1.18,3.67l1.08,-3.67h2z" fill="#000000" stroke="none" stroke-width="1" stroke-linecap="butt"/><path d="M267.91,348.03633l-1.65,5.66h-2l-1.68,-5.66l-0.05,5.77h-1.77l0.26,-7.5h2.7l1.56,5.63l1.56,-5.63h2.66l0.25,7.5h-1.81z" fill="#000000" stroke="none" stroke-width="1" stroke-linecap="butt"/><path d="M274.08,354.03633c-0.80427,0.06219 -1.59609,-0.22677 -2.17126,-0.79236c-0.57517,-0.56559 -0.8774,-1.35244 -0.82874,-2.15764c-0.04059,-0.80741 0.26242,-1.59429 0.83407,-2.16593c0.57165,-0.57165 1.35852,-0.87466 2.16593,-0.83407c0.80513,-0.06561 1.59897,0.22223 2.17495,0.78861c0.57598,0.56638 0.87712,1.35527 0.82505,2.16139c0.03433,0.80568 -0.2707,1.58886 -0.84092,2.15908c-0.57022,0.57022 -1.35339,0.87525 -2.15908,0.84092zM274.08,349.50633c-0.75,0 -1.15,0.61 -1.15,1.57c0,0.96 0.41,1.54 1.16,1.54c0.75,0 1.15,-0.6 1.15,-1.56c0,-0.96 -0.38,-1.6 -1.14,-1.6z" fill="#000000" stroke="none" stroke-width="1" stroke-linecap="butt"/><path d="M282.16,345.87633l1.85,-0.23v8.16h-1.85v-0.58c-0.39272,0.45653 -0.95819,0.72839 -1.56,0.75c-1.37,0 -2.38,-1.13 -2.38,-2.89c-0.04656,-0.77266 0.2254,-1.53066 0.75255,-2.09748c0.52714,-0.56682 1.26345,-0.89298 2.03745,-0.90252c0.39181,0.00201 0.78052,0.06961 1.15,0.2zM281.31,349.42633c-0.78,0 -1.24,0.64 -1.24,1.56c0,0.92 0.48,1.51 1.16,1.51c0.34996,0.01148 0.68822,-0.12674 0.93,-0.38v-2.45c-0.25283,-0.16349 -0.549,-0.24712 -0.85,-0.24z" fill="#000000" stroke="none" stroke-width="1" stroke-linecap="butt"/><path d="M287.24,351.45633c0.06,0.74 0.58,1.17 1.48,1.17c0.64338,-0.01819 1.27081,-0.20435 1.82,-0.54l0.18,1.43c-0.67977,0.31387 -1.42135,0.47108 -2.17,0.46c-0.81843,0.0987 -1.63861,-0.16959 -2.2405,-0.73289c-0.60188,-0.5633 -0.92384,-1.36394 -0.8795,-2.18711c-0.04059,-0.80741 0.26242,-1.59429 0.83407,-2.16593c0.57165,-0.57165 1.35852,-0.87466 2.16593,-0.83407c0.64979,-0.07238 1.29828,0.14667 1.77109,0.59824c0.47281,0.45158 0.72139,1.08933 0.67891,1.74176c-0.00013,0.33692 -0.04041,0.67262 -0.12,1l-3.54,0.06zM289.18,350.45633v-0.11c0,-0.66 -0.27,-1.07 -0.85,-1.07c-0.61622,0.05236 -1.08746,0.57161 -1.08,1.19z" fill="#000000" stroke="none" stroke-width="1" stroke-linecap="butt"/><path d="M140.66666,220.78633h198.66667" fill="none" stroke="#000000" stroke-width="5" stroke-linecap="round"/><path d="M140.66667,243.28633h198.66667" fill="none" stroke="#000000" stroke-width="5" stroke-linecap="round"/><path d="M140.66667,199.33417h198.66667" fill="none" stroke="#000000" stroke-width="5" stroke-linecap="round"/></g></g></svg>