<svg version="1.1" xmlns="http://www.w3.org/2000/svg" xmlns:xlink="http://www.w3.org/1999/xlink" width="333.09797" height="105.26555" viewBox="0,0,333.09797,105.26555"><g transform="translate(-79.9256,-131.44737)"><g data-paper-data="{&quot;isPaintingLayer&quot;:true}" fill-rule="nonzero" stroke-linecap="butt" stroke-linejoin="miter" stroke-miterlimit="10" stroke-dasharray="" stroke-dashoffset="0" style="mix-blend-mode: normal"><path d="M377.77811,195.51737l-5.69603,-20.4212l-18.84874,0.62512l-4.50063,-16.48686l18.87636,-0.17471l-5.33095,-19.11234h20l5.81685,17.86175l17.13827,0.28063l6.32589,16.45169l-18.10431,-0.27385l6.92019,21.24978z" fill-opacity="0.74118" fill="#a1c4c4" stroke="#000000" stroke-width="0"/><path d="M148.58811,147.45737l5.87,49.54h-22.44l0.18,-4.78h-11.24l-1.93,4.78h-22.44l27.29,-49.54zM133.3581,164.46737c0.03273,-1.4353 0.19674,-2.8646 0.49,-4.27h-0.72c-0.33635,1.47336 -0.79804,2.91528 -1.38,4.31l-5.13,12.07h6.65l0.09,-12.12zM205.98812,165.45737c-0.47,13.03 -7.94,20.54 -23.47,20.54h-3.86l-1.06,11h-20.13l7.06,-49.54h22.33c12.98,0 19.49,7.01 19.13,18zM183.37812,160.90737h-2.62l-1,10.49h2.53c3.07,0 4.72,-1.97 5,-5.54c0.26,-3.22 -1.2,-4.95 -3.91,-4.95zM253.32812,165.45737c1.1,13.03 -5.53,20.54 -21.05,20.54h-3.87l0.24,11h-20.13l1.23,-49.54h22.32c12.99,0 20.33,7.01 21.26,18zM234.66812,165.90737c-0.12,-3.27 -1.79,-5 -4.47,-5h-2.62l0.22,10.49h2.54c3.05,0 4.47,-1.97 4.33,-5.49zM336.63812,178.16737h-16l-7.51,-30.71h-17.83l9.8,49.54h36.86zM290.89812,147.57737h-34.75l1.09,11.42h35.79zM257.84812,164.92737l3,31.65h39.18l-5.9,-31.63zM266.78812,164.08737h17.3l-0.69,-4.25h-17.11z" fill-opacity="0.74118" fill="#a1c3c4" stroke="none" stroke-width="1"/><g><path d="M121.36812,189.01737l0.2,-5.36h-12.64l-2.12,5.36h-25.19l30.61,-55.57h27.7l6.6,55.57zM122.86812,152.57737c0.03315,-1.62688 0.21728,-3.24716 0.55,-4.84h-0.82c-0.37679,1.65364 -0.89194,3.27267 -1.54,4.84l-5.75,13.48h7.46z" fill="#ffff1f" stroke="#000000" stroke-width="2"/><path d="M149.92812,189.01737l7.9,-55.57h25c14.57,0 21.87,7.86 21.46,20.2c-0.48,14.61 -8.91,23 -26.32,23h-4.29l-1.18,12.37zM177.78812,160.29737c3.43,0 5.28,-2.21 5.59,-6.22c0.29,-3.6 -1.35,-5.55 -4.36,-5.55h-2.94l-1.15,11.77z" fill="#ffff1f" stroke="#000000" stroke-width="2"/><path d="M207.17812,189.01737l1.38,-55.57h25c14.57,0 22.8,7.86 23.84,20.2c1.24,14.61 -6.19,23 -23.61,23h-4.33l0.26,12.33zM231.64812,160.29737c3.43,0 5,-2.21 4.87,-6.22c-0.14,-3.6 -2,-5.55 -5,-5.55h-2.94l0.25,11.77z" fill="#ffff1f" stroke="#000000" stroke-width="2"/><path d="M315.52812,189.01737l-11,-55.57h20l8.4,34.44h18l6,21.13z" fill="#ffff1f" stroke="#000000" stroke-width="2"/><g><path d="M261.83811,146.33737l-1.23,-12.77h38.98l2.39,12.77z" fill="#00ff55" stroke="#000000" stroke-width="2"/><path d="M303.2181,153.01737l6.62,35.5h-43.96l-3.4,-35.5z" fill="#ffff1f" stroke="#000000" stroke-width="2"/><path d="M275.05812,173.24737h26.13" fill="none" stroke="#000000" stroke-width="2"/><path d="M291.94811,152.04737h-19.4l-0.57,-4.77h19.2z" fill="#000000" stroke="#000000" stroke-width="2"/><path d="M287.61812,153.98737h10.21l1.91,10.95h-10.46z" fill="#ffffff" stroke="none" stroke-width="1"/><path d="M298.26812,161.89737h-3.78l-0.65,-3.99h3.74z" fill="#000000" stroke="none" stroke-width="1"/><path d="M267.20812,153.98737h10.21l1.41,10.95h-10.46z" fill="#ffffff" stroke="none" stroke-width="1"/><path d="M277.48812,161.89737h-3.78l-0.47,-3.99h3.75z" fill="#000000" stroke="none" stroke-width="1"/></g></g><text transform="translate(117.64589,225.83579) scale(0.83385,0.70175)" font-size="40" xml:space="preserve" fill="#000000" fill-rule="nonzero" stroke="#ffffff" stroke-width="7" stroke-linecap="butt" stroke-linejoin="miter" stroke-miterlimit="10" stroke-dasharray="" stroke-dashoffset="0" font-family="Sans Serif" font-weight="normal" text-anchor="start" style="mix-blend-mode: normal"><tspan x="0" dy="0">by zunfl0w3r</tspan></text><text transform="translate(117.64589,225.83579) scale(0.83385,0.70175)" font-size="40" xml:space="preserve" fill="#000000" fill-rule="nonzero" stroke="#000000" stroke-width="5" stroke-linecap="butt" stroke-linejoin="miter" stroke-miterlimit="10" stroke-dasharray="" stroke-dashoffset="0" font-family="Sans Serif" font-weight="normal" text-anchor="start" style="mix-blend-mode: normal"><tspan x="0" dy="0">by zunfl0w3r</tspan></text><path d="M377.77812,188.01737l-5.69603,-20.4212l-18.84874,0.62512l-4.50063,-16.48686l18.87636,-0.17471l-5.33095,-19.11234h20l5.81685,17.86175l17.13827,0.28063l6.32589,16.45169l-18.10431,-0.27385l6.92019,21.24978z" fill="#ffff1f" stroke="#000000" stroke-width="2"/></g></g></svg>