<svg version="1.1" xmlns="http://www.w3.org/2000/svg" xmlns:xlink="http://www.w3.org/1999/xlink" width="29.37634" height="37.27619" viewBox="0,0,29.37634,37.27619"><g transform="translate(-221.37367,-156.17143)"><g data-paper-data="{&quot;isPaintingLayer&quot;:true}" fill-rule="nonzero" stroke-linecap="butt" stroke-miterlimit="10" stroke-dasharray="" stroke-dashoffset="0" style="mix-blend-mode: normal"><path d="M236.75002,173.17143v-7h5v7z" fill="#ff0000" stroke="#000000" stroke-width="2" stroke-linejoin="miter"/><path d="M233.89287,162.52857c0,-2.95867 2.39847,-5.35714 5.35714,-5.35714c2.95867,0 5.35714,2.39847 5.35714,5.35714c0,2.95867 -2.39847,5.35714 -5.35714,5.35714c-2.95867,0 -5.35714,-2.39847 -5.35714,-5.35714z" fill="#ff0000" stroke="#000000" stroke-width="2" stroke-linejoin="miter"/><g><path d="M230.53879,173.27847l-2.55403,5.12008l-4.61108,-5.49718z" fill="none" stroke="#000000" stroke-width="4" stroke-linejoin="round"/><path d="M230.53879,173.27847l-2.55403,5.12008l-4.61108,-5.49718z" fill="#b3b3b3" stroke="none" stroke-width="1" stroke-linejoin="miter"/></g><g><path d="M236.71584,170.43596l-5.64595,0.92822l1.75552,-6.95695z" fill="none" stroke="#000000" stroke-width="4" stroke-linejoin="round"/><path d="M236.71584,170.43596l-5.64595,0.92822l1.75552,-6.95695z" fill="#b3b3b3" stroke="none" stroke-width="1" stroke-linejoin="miter"/></g><g><path d="M247.42477,171.37375l-5.63525,-0.99112l3.95741,-5.98497z" fill="none" stroke="#000000" stroke-width="4" stroke-linejoin="round"/><path d="M247.42477,171.37375l-5.63525,-0.99112l3.95741,-5.98497z" fill="#b3b3b3" stroke="none" stroke-width="1" stroke-linejoin="miter"/></g><path d="M228.75002,192.44762v-7h21v7z" fill="#b4004c" stroke="#000000" stroke-width="2" stroke-linejoin="miter"/><g><path d="M234.75002,171.44762h9c3.31371,0 6,2.68629 6,6v8h-21v-8c0,-3.31371 2.68629,-6 6,-6z" fill="#b4004c" stroke="#000000" stroke-width="2" stroke-linejoin="miter"/><path d="M239.75002,181.44762v-5h5v5z" fill="#ffffff" stroke="#ffffff" stroke-width="2" stroke-linejoin="round"/><path d="M241.75002,180.44762v-3h3v3z" fill="#000000" stroke="none" stroke-width="1" stroke-linejoin="miter"/></g></g></g></svg>