<svg version="1.1" xmlns="http://www.w3.org/2000/svg" xmlns:xlink="http://www.w3.org/1999/xlink" width="44.25" height="58.0138" viewBox="0,0,44.25,58.0138"><g transform="translate(-217.74999,-121.9862)"><g data-paper-data="{&quot;isPaintingLayer&quot;:true}" fill-rule="nonzero" stroke-linecap="butt" stroke-miterlimit="10" stroke-dasharray="" stroke-dashoffset="0" style="mix-blend-mode: normal"><g><g><path d="M258.07578,135.51138c-2.0194,6.58742 -6.72301,8.28331 -11.50343,6.81786c-4.78042,-1.46546 -7.72549,-5.50607 -5.70609,-12.0935c1.79079,-5.84168 8.11348,-5.9953 10.39555,-3.20386c3.45444,-1.0329 8.60476,2.63782 6.81397,8.4795z" fill="#ffff24" stroke="#000000" stroke-width="2" stroke-linejoin="round"/><path d="M254.16139,122.69109c-0.36636,1.19511 -2.89958,4.34079 -2.89958,4.34079" fill="none" stroke="#000000" stroke-width="2" stroke-linejoin="round"/><path d="M243.39685,128.80458c0.48561,-1.58409 2.16344,-2.47459 3.74753,-1.98898c1.58409,0.48561 2.47459,2.16344 1.98898,3.74753c-0.48561,1.58409 -2.16344,2.47459 -3.74753,1.98898c-1.58409,-0.48561 -2.47459,-2.16344 -1.98898,-3.74753z" fill="#ffffff" stroke="none" stroke-width="1" stroke-linejoin="miter"/></g><g><path d="M238.71194,129.5229c2.78372,6.30262 0.3368,10.66295 -4.23694,12.68307c-4.57374,2.02012 -9.44481,0.89197 -12.22853,-5.41065c-2.46859,-5.58911 2.21186,-9.84275 5.76415,-9.22533c1.9362,-3.04157 8.23273,-3.63621 10.70132,1.9529z" fill="#ffff24" stroke="#000000" stroke-width="2" stroke-linejoin="round"/><path d="M227.36262,122.39022c0.50503,1.14344 0.648,5.17978 0.648,5.17978" fill="none" stroke="#000000" stroke-width="2" stroke-linejoin="round"/><path d="M223.22347,134.05717c-0.66941,-1.5156 0.01657,-3.28691 1.53218,-3.95632c1.5156,-0.66941 3.28691,0.01657 3.95632,1.53217c0.66941,1.5156 -0.01657,3.28691 -1.53218,3.95632c-1.5156,0.66941 -3.28691,-0.01657 -3.95632,-1.53217z" fill="#ffffff" stroke="none" stroke-width="1" stroke-linejoin="miter"/></g></g><path d="M225,165v-14h18v14z" fill="#000000" stroke="none" stroke-width="1" stroke-linejoin="miter"/><path d="M261,165v14h-42v-14h32v-3c0,-1.10457 0.89543,-2 2,-2h3c1.10457,0 2,0.89543 2,2v3z" fill="#828212" stroke="#000000" stroke-width="2" stroke-linejoin="miter"/><g><g stroke="none" stroke-linejoin="miter"><path d="M260.75,165h-42v-22c0,-3.31371 2.68629,-6 6,-6h30c3.31371,0 6,2.68629 6,6z" fill="#9500ff" stroke-width="1"/><path d="M261.75,166h-44v-23c0,-3.86599 3.13401,-7 7,-7h30c3.86599,0 7,3.13401 7,7zM219.75,164h40v-21c0,-2.76143 -2.23858,-5 -5,-5h-30c-2.76143,0 -5,2.23857 -5,5z" fill="#000000" stroke-width="1"/><path d="M219.70358,142.98143c0,-2.76143 2.24721,-5.01418 5.00864,-5.01418h30.07557c2.76142,0 5.00864,2.25275 5.00864,5.01418l-0.0045,21.04582h-40.08384z" data-paper-data="{&quot;noHover&quot;:false,&quot;origItem&quot;:[&quot;Path&quot;,{&quot;applyMatrix&quot;:true,&quot;segments&quot;:[[219.75,164],[259.75,164],[[259.75,143],[0,0],[0,-2.76143]],[[254.75,138],[2.76142,0],[0,0]],[[224.75,138],[0,0],[-2.76143,0]],[[219.75,143],[0,-2.76143],[0,0]]],&quot;closed&quot;:true,&quot;fillColor&quot;:[0,0,0,1]}]}" fill="#ffff24" stroke-width="0.5"/></g><path d="M252.75,157h-10v-10l10,2z" fill="#ffffff" stroke="#ffffff" stroke-width="2" stroke-linejoin="round"/><path d="M246.75,156v-6h6v6z" fill="#000000" stroke="none" stroke-width="1" stroke-linejoin="miter"/></g></g></g></svg>