<svg version="1.1" xmlns="http://www.w3.org/2000/svg" xmlns:xlink="http://www.w3.org/1999/xlink" width="105.0502" height="84.03844" viewBox="0,0,105.0502,84.03844"><g transform="translate(-187.4749,-155.48082)"><g data-paper-data="{&quot;isPaintingLayer&quot;:true}" fill-rule="nonzero" stroke-linecap="butt" stroke-miterlimit="10" stroke-dasharray="" stroke-dashoffset="0" style="mix-blend-mode: normal"><g><path d="M250.17987,216.93496h17.88963l-8.94482,20.5843z" fill="none" stroke="#000000" stroke-width="4" stroke-linejoin="round"/><path d="M250.17987,216.93496h17.88963l-8.94482,20.5843z" fill="#b3b3b3" stroke="none" stroke-width="1" stroke-linejoin="miter"/></g><g><path d="M231.46687,216.93496h17.88963l-8.94482,20.5843z" fill="none" stroke="#000000" stroke-width="4" stroke-linejoin="round"/><path d="M231.46687,216.93496h17.88963l-8.94482,20.5843z" fill="#b3b3b3" stroke="none" stroke-width="1" stroke-linejoin="miter"/></g><g><path d="M212.73516,216.93496h17.90834l-8.94481,20.5843z" fill="none" stroke="#000000" stroke-width="4" stroke-linejoin="round"/><path d="M212.73516,216.93496h17.90834l-8.94481,20.5843z" fill="#b3b3b3" stroke="none" stroke-width="1" stroke-linejoin="miter"/></g><g><path d="M210.0592,197.17404v17.88963l-20.5843,-8.94482z" fill="none" stroke="#000000" stroke-width="4" stroke-linejoin="round"/><path d="M210.0592,197.17404v17.88963l-20.5843,-8.94482z" fill="#b3b3b3" stroke="none" stroke-width="1" stroke-linejoin="miter"/></g><g><path d="M210.0592,178.46103v17.88963l-20.5843,-8.94481z" fill="none" stroke="#000000" stroke-width="4" stroke-linejoin="round"/><path d="M210.0592,178.46103v17.88963l-20.5843,-8.94481z" fill="#b3b3b3" stroke="none" stroke-width="1" stroke-linejoin="miter"/></g><g><path d="M210.0592,159.72931v17.90834l-20.5843,-8.94481z" fill="none" stroke="#000000" stroke-width="4" stroke-linejoin="round"/><path d="M210.0592,159.72931v17.90834l-20.5843,-8.94481z" fill="#b3b3b3" stroke="none" stroke-width="1" stroke-linejoin="miter"/></g><g><path d="M269.9408,176.81428v-17.88963l20.5843,8.94482z" fill="none" stroke="#000000" stroke-width="4" stroke-linejoin="round"/><path d="M269.9408,176.81428v-17.88963l20.5843,8.94482z" fill="#b3b3b3" stroke="none" stroke-width="1" stroke-linejoin="miter"/></g><g><path d="M269.9408,195.52729v-17.88963l20.5843,8.94481z" fill="none" stroke="#000000" stroke-width="4" stroke-linejoin="round"/><path d="M269.9408,195.52729v-17.88963l20.5843,8.94481z" fill="#b3b3b3" stroke="none" stroke-width="1" stroke-linejoin="miter"/></g><g><path d="M269.9408,214.2403v-17.88963l20.5843,8.94481z" fill="none" stroke="#000000" stroke-width="4" stroke-linejoin="round"/><path d="M269.9408,214.2403v-17.88963l20.5843,8.94481z" fill="#b3b3b3" stroke="none" stroke-width="1" stroke-linejoin="miter"/></g><g><path d="M210.0592,217.36242v-59.8816h59.8816v59.8816z" fill="none" stroke="#000000" stroke-width="4" stroke-linejoin="round"/><path d="M210.0592,217.36242v-59.8816h59.8816v59.8816z" fill="#d10000" stroke="none" stroke-width="1" stroke-linejoin="miter"/></g><path d="M226.9009,200.09327v-26.1982h26.1982v26.1982z" fill="#ff0000" stroke="none" stroke-width="1" stroke-linejoin="miter"/><path d="M226.9009,214.2403l12.83764,0.67284l13.36056,-0.67284v0.91149h-26.1982z" fill="#000000" stroke="#000000" stroke-width="2" stroke-linejoin="round"/></g></g></svg>