<svg version="1.1" xmlns="http://www.w3.org/2000/svg" xmlns:xlink="http://www.w3.org/1999/xlink" width="59.59267" height="58.52409" viewBox="0,0,59.59267,58.52409"><g transform="translate(-200.71611,-138.60893)"><g data-paper-data="{&quot;isPaintingLayer&quot;:true}" fill-rule="nonzero" stroke-linecap="butt" stroke-miterlimit="10" stroke-dasharray="" stroke-dashoffset="0" style="mix-blend-mode: normal"><path d="M247.72168,196.32085c0,0.63372 -0.93056,0.63372 -0.93056,0.63372l-0.43788,-0.01231c-3.70562,0.49435 -7.73355,-0.07122 -11.38122,-0.57221c-3.58327,-0.82036 -4.72968,-3.08518 -1.99906,-5.05157c-1.33414,-1.06745 -0.70021,-2.35681 0.76309,-3.44074c-3.01783,-0.85861 -3.16342,-3.38745 -0.33861,-4.87157c2.89615,-1.52161 9.56767,-1.81066 12.91211,-0.93385c0,0 0.864,0.23537 0.51839,0.82375c-0.34561,0.58839 -1.20959,0.35303 -1.20959,0.35303c-2.74774,-0.78765 -7.56324,-0.28002 -10.27873,0.42517c-2.16481,0.56217 -3.20809,2.79044 -0.45065,3.1439c0.21663,0 0.43308,0.00377 0.64942,0.01065c0.70933,-0.32996 1.47804,-0.61064 2.24746,-0.82002c1.73212,-0.39319 13.17968,-2.15224 10.41288,1.35541c-1.76659,2.23962 -8.64181,1.0513 -12.31823,0.76987c-1.45209,0.70582 -2.41645,1.60143 -1.35273,2.40304c4.28521,-1.54546 13.42118,-1.68019 14.07154,1.34717c-3.43783,0.88394 -9.04258,1.54995 -12.67603,0.66565c-0.6288,-0.15304 -1.16602,-0.32124 -1.61982,-0.50153c-1.30624,1.00958 -1.26444,2.55539 1.14622,3.09667c3.35087,0.45212 7.13673,1.02906 10.53854,0.55438l0.80286,-0.01231c0,0 0.93056,0 0.93056,0.63372zM236.14778,191.24711c0.13225,0.03835 0.2717,0.07619 0.41856,0.11345c2.32847,0.5908 5.31351,-0.10298 7.86211,-0.28481c-0.12134,-0.02133 -0.22,-0.03795 -0.28659,-0.04627c-2.39357,-0.29869 -5.13922,-0.14613 -7.51429,0.13977c-0.16489,0.01985 -0.32495,0.046 -0.47981,0.07785zM238.88733,187.09628c1.74256,0.1764 3.49219,0.33883 5.27323,0.14947c0.0498,-0.0053 2.77373,-0.4246 2.58843,-0.69738c-0.63888,-0.94056 -6.0394,0.15037 -7.86167,0.54791z" fill="#000000" stroke="none" stroke-width="0.5" stroke-linejoin="miter"/><path d="M228.83333,184.21486v-8.70634h22.33333v8.70634z" fill="#0025ff" stroke="#000000" stroke-width="2" stroke-linejoin="miter"/><g><path d="M212.66434,157.89404l0.7939,7.39792l-10.74213,-2.80201z" fill="none" stroke="#000000" stroke-width="4" stroke-linejoin="round"/><path d="M212.66434,157.89404l0.7939,7.39792l-10.74213,-2.80201z" fill="#b3b3b3" stroke="none" stroke-width="1" stroke-linejoin="miter"/></g><g><path d="M216.77949,148.142l-3.0966,7.03033l-8.20746,-6.31138z" fill="none" stroke="#000000" stroke-width="4" stroke-linejoin="round"/><path d="M216.77949,148.142l-3.0966,7.03033l-8.20746,-6.31138z" fill="#b3b3b3" stroke="none" stroke-width="1" stroke-linejoin="miter"/></g><g><path d="M215.07814,166.81172l4.4088,6.54163l-11.26953,1.07619z" fill="none" stroke="#000000" stroke-width="4" stroke-linejoin="round"/><path d="M215.07814,166.81172l4.4088,6.54163l-11.26953,1.07619z" fill="#b3b3b3" stroke="none" stroke-width="1" stroke-linejoin="miter"/></g><g><path d="M227.65147,178.65081l8.58807,2.17982l-7.50578,7.08934z" fill="none" stroke="#000000" stroke-width="4" stroke-linejoin="round"/><path d="M227.65147,178.65081l8.58807,2.17982l-7.50578,7.08934z" fill="#b3b3b3" stroke="none" stroke-width="1" stroke-linejoin="miter"/></g><g><path d="M219.2888,174.32958l7.29558,4.28145l-9.76871,4.8551z" fill="none" stroke="#000000" stroke-width="4" stroke-linejoin="round"/><path d="M219.2888,174.32958l7.29558,4.28145l-9.76871,4.8551z" fill="#b3b3b3" stroke="none" stroke-width="1" stroke-linejoin="miter"/></g><g><path d="M234.21526,180.49279l8.97101,-0.97993l-3.29282,8.97019z" fill="none" stroke="#000000" stroke-width="4" stroke-linejoin="round"/><path d="M234.21526,180.49279l8.97101,-0.97993l-3.29282,8.97019z" fill="#b3b3b3" stroke="none" stroke-width="1" stroke-linejoin="miter"/></g><path d="M234.37634,139.70614c12.56786,-1.08967 23.73049,7.10655 24.93244,18.30677c1.20195,11.20021 -8.01194,21.16313 -20.5798,22.2528c-12.56786,1.08967 -23.73049,-7.10655 -24.93244,-18.30677c-1.20195,-11.20021 8.01194,-21.16313 20.5798,-22.2528z" fill="#0025ff" stroke="#000000" stroke-width="2" stroke-linejoin="miter"/><path d="M234.37634,139.70614c12.56786,-1.08967 16.92049,39.4699 4.35263,40.55957c-12.56786,1.08967 -23.73049,-7.10655 -24.93244,-18.30677c-1.20195,-11.20021 8.01194,-21.16313 20.5798,-22.2528z" fill="#00a2ff" stroke="#000000" stroke-width="2" stroke-linejoin="miter"/><path d="M230.01774,173.44948c-1.00175,0.37242 -1.43687,-0.44654 -1.43687,-0.44654l0.07102,-0.1047c-1.85982,-1.27947 -3.82982,-2.01674 -5.5852,-3.50693c-4.60306,-3.90765 -6.05063,-9.25918 -5.82332,-14.61588c0,0 0.03966,-0.89949 1.13112,-0.88211c1.09145,0.01737 1.05178,0.91686 1.05178,0.91686c-0.22362,4.86838 1.03236,9.77159 5.22737,13.32266c1.71506,1.4518 3.54494,2.12942 5.40105,3.36671l0.52968,0.75856c0,0 0.43513,0.81895 -0.56663,1.19137z" fill="#82d1ff" stroke="none" stroke-width="0.5" stroke-linejoin="miter"/><path d="M237.39662,177.36911c-0.08415,0.89803 -1.17307,0.84398 -1.17307,0.84398l-1.10394,-0.05479c-8.38462,-0.46013 -11.84699,-5.51188 -17.12077,-9.97946c0,0 -0.75461,-0.63972 0.03495,-1.27228c0.78956,-0.63257 1.54416,0.00714 1.54416,0.00714c4.78463,4.05895 8.04863,9.11922 15.70995,9.44854l1.10394,0.05479c0,0 1.08892,0.05404 1.00477,0.95207z" fill="#82d1ff" stroke="none" stroke-width="0.5" stroke-linejoin="miter"/><path d="M242.8125,174.84393c-0.52359,0.79676 -1.48207,0.37895 -1.48207,0.37895l-0.45304,-0.2054c-6.88817,-2.14065 -11.46073,-6.08632 -15.87844,-10.84215c0,0 -0.65803,-0.70871 0.21366,-1.26289c0.87169,-0.55418 1.52972,0.15453 1.52972,0.15453c4.17223,4.49565 8.43017,8.24371 14.93641,10.26566l0.69891,0.29674c0,0 0.95848,0.4178 0.43489,1.21456z" fill="#82d1ff" stroke="none" stroke-width="0.5" stroke-linejoin="miter"/><path d="M255.57801,160.94128c1.06247,0.19344 0.80953,1.07205 0.80953,1.07205l-0.2501,0.85682c-0.45626,4.86918 -4.72947,10.97965 -9.41223,14.00645c0,0 -0.87169,0.55418 -1.52972,-0.15453c-0.65803,-0.70871 0.21366,-1.26289 0.21366,-1.26289c4.28159,-2.66648 8.1604,-8.46306 8.57028,-12.83727l0.28316,-0.99546c0,0 0.25295,-0.87861 1.31542,-0.68518z" fill="#4c67ff" stroke="none" stroke-width="0.5" stroke-linejoin="miter"/><path d="M248.86476,152.24111c0.93015,-0.48449 1.50256,0.27356 1.50256,0.27356l0.37112,0.67268c0.2104,1.96055 0.78362,3.89959 0.80963,5.87392c0.04769,3.62185 -1.04903,7.33892 -1.20574,10.97831c0,0 -0.03966,0.89949 -1.13112,0.88211c-1.09145,-0.01737 -1.05178,-0.91686 -1.05178,-0.91686c0.16273,-3.61043 1.25548,-7.31236 1.20433,-10.90315c-0.02738,-1.92205 -0.59619,-3.81536 -0.8012,-5.72569l-0.05553,0.10765c0,0 -0.57242,-0.75806 0.35772,-1.24254z" fill="#4c67ff" stroke="none" stroke-width="0.5" stroke-linejoin="miter"/><path d="M249.78371,147.70151c-0.09601,-0.8947 0.99193,-0.98902 0.99193,-0.98902l0.71161,-0.01536c4.16072,1.0165 4.56063,6.51 4.89364,9.6131c0,0 0.09601,0.8947 -0.99193,0.98902c-1.08794,0.09433 -1.18396,-0.80037 -1.18396,-0.80037c-0.17825,-1.66097 -0.63276,-7.94947 -3.22365,-8.04453l-0.01369,0.04753c0,0 -1.08794,0.09433 -1.18396,-0.80037z" fill="#4c67ff" stroke="none" stroke-width="0.5" stroke-linejoin="miter"/><path d="M219.45196,153.67894c-0.83719,-0.56595 -0.13578,-1.26529 -0.13578,-1.26529l0.25831,-0.24898c2.06473,-2.56297 4.0403,-5.2304 6.13446,-7.77003c0,0 0.62272,-0.74771 1.51997,-0.24741c0.89724,0.5003 0.27453,1.24802 0.27453,1.24802c-2.09367,2.48431 -4.10375,5.19798 -6.10992,7.73993l-0.40298,0.41037c0,0 -0.7014,0.69935 -1.53858,0.1334z" fill="#82d1ff" stroke="none" stroke-width="0.5" stroke-linejoin="miter"/><path d="M224.46603,159.3608c-1.08564,-0.08297 -0.96643,-0.97879 -0.96643,-0.97879l0.12448,-0.87177c1.47748,-5.12677 3.29227,-9.33194 7.87022,-13.27322c0,0 0.76355,-0.65388 1.54447,-0.03596c0.78092,0.61792 0.01738,1.2718 0.01738,1.2718c-4.33413,3.68951 -5.92438,7.61673 -7.30711,12.42426l-0.07814,0.65083c0,0 -0.11922,0.89582 -1.20486,0.81285z" fill="#82d1ff" stroke="none" stroke-width="0.5" stroke-linejoin="miter"/></g></g></svg>