<svg version="1.1" xmlns="http://www.w3.org/2000/svg" xmlns:xlink="http://www.w3.org/1999/xlink" width="66" height="64.00002" viewBox="0,0,66,64.00002"><g transform="translate(-207,-147)"><g data-paper-data="{&quot;isPaintingLayer&quot;:true}" fill-rule="nonzero" stroke-linecap="butt" stroke-miterlimit="10" stroke-dasharray="" stroke-dashoffset="0" style="mix-blend-mode: normal"><path d="M240.41202,155.7763l-31.41202,-6.7763l11.67,1l9.88,-1l4.7,1l18.91,-1l6.09,1l10.75,-1z" fill="none" stroke="#000000" stroke-width="4" stroke-linejoin="round"/><path d="M271,211.00003h-62v-62l11.67,1l9.88,-1l4.7,1l18.91,-1l6.09,1l10.75,-1z" fill="#39b54a" stroke="none" stroke-width="1" stroke-linejoin="miter"/><path d="M236,157l-2,-2l1,-6" fill="none" stroke="#000000" stroke-width="2" stroke-linejoin="round"/><path d="M254,148l1,4" fill="none" stroke="#000000" stroke-width="2" stroke-linejoin="round"/><path d="M244,148l2,13l-4,6" fill="none" stroke="#000000" stroke-width="2" stroke-linejoin="round"/><path d="M220,153l1,-4" fill="none" stroke="#000000" stroke-width="2" stroke-linejoin="round"/><path d="M250,163l-4,-2" fill="none" stroke="#000000" stroke-width="2" stroke-linejoin="round"/><path d="M262.45,149l-1.02,4" fill="none" stroke="#000000" stroke-width="2" stroke-linejoin="round"/><path d="M218,202.00004v-44c0,0 2.66232,-1.7026 6.1762,-0.85872c3.46564,0.8323 7.75281,4.203 12.10396,5.37138c2.36808,0.63588 6.34161,-2.1522 8.45071,-1.33813c1.25046,0.48266 0.87281,4.82547 1.76913,4.82547c2.5294,0 5.57546,-4.33211 8.29535,-5.90916c3.94551,-2.2877 7.20465,-2.09084 7.20465,-2.09084v44z" fill="#ffffff" stroke="none" stroke-width="1" stroke-linejoin="miter"/></g></g></svg>