<svg version="1.1" xmlns="http://www.w3.org/2000/svg" xmlns:xlink="http://www.w3.org/1999/xlink" width="40.52361" height="44.60834" viewBox="0,0,40.52361,44.60834"><g transform="translate(-219.73997,-140.94862)"><g data-paper-data="{&quot;isPaintingLayer&quot;:true}" fill-rule="nonzero" stroke-linecap="butt" stroke-miterlimit="10" stroke-dasharray="" stroke-dashoffset="0" style="mix-blend-mode: normal"><path d="M220.75343,165.31039c0,-10.62959 8.61699,-19.24657 19.24658,-19.24657c10.62959,0 19.24657,8.61698 19.24657,19.24657c0,10.62959 -8.61698,19.24658 -19.24657,19.24658c-10.62959,0 -19.24658,-8.61698 -19.24658,-19.24658z" fill="#00ffff" stroke="#000000" stroke-width="2" stroke-linejoin="miter"/><path d="M220.75343,165.31039h38.49315c0,0 -0.01482,0.87807 -0.04398,1.31144c-0.6741,10.01796 -9.01376,17.93514 -19.20259,17.93514c-10.28032,0 -18.67812,-8.06001 -19.2189,-18.20552c-0.01837,-0.34469 -0.02768,-1.04105 -0.02768,-1.04105z" fill="#0090ff" stroke="#000000" stroke-width="2" stroke-linejoin="miter"/><g><path d="M230.30512,163.50313v-6.84382l6.84382,1.66666v5.17715z" data-paper-data="{&quot;index&quot;:null}" fill="#ffffff" stroke="#ffffff" stroke-width="2" stroke-linejoin="round"/><path d="M231.6739,162.13438v-4.10629h4.10629v4.10629z" data-paper-data="{&quot;index&quot;:null}" fill="#000000" stroke="none" stroke-width="1" stroke-linejoin="miter"/></g><g><path d="M243.51772,163.50313v-5.17715l6.84382,-1.66666v6.84382z" fill="#ffffff" stroke="#ffffff" stroke-width="2" stroke-linejoin="round"/><path d="M244.88649,162.13438v-4.10629h4.10629v4.10629z" fill="#000000" stroke="none" stroke-width="1" stroke-linejoin="miter"/></g><g data-paper-data="{&quot;index&quot;:null}" stroke-linejoin="miter"><path d="M253.4987,168.33311c-0.54891,-3.80024 0.18238,-7.82178 1.63339,-8.98236c1.45101,-1.16058 3.07225,0.97929 3.62117,4.77953c0.54891,3.80024 -0.18238,7.82178 -1.63338,8.98237c-1.45101,1.16058 -3.07226,-0.9793 -3.62117,-4.77954z" fill="#ffffff" stroke="#000000" stroke-width="2"/><path d="M251.93997,160.11766c-0.04061,-0.24831 1.03453,0.58401 1.03453,0.58401c0.15094,0.23717 0.5921,0.75835 0.66484,1.20346c0.47934,2.93279 -0.11767,5.91118 -1.39505,6.08502c-0.41337,0.05624 -0.5631,-0.18905 -0.97691,-0.33872c-1.14991,-0.41592 -2.26471,-1.1579 -3.35243,-2.37249c-0.45267,-0.50547 -0.85412,-1.39414 -1.27905,-2.04324c-0.66143,-1.6447 -1.44779,-2.90802 -2.08905,-4.68678c-0.34119,-0.94642 -0.54517,-1.97291 -0.82313,-3.02055c-0.52163,-1.96604 -1.11674,-3.83127 -1.37866,-6.14327c-0.17699,-1.56236 -0.14274,-3.20926 -0.09771,-4.7394c0.01215,-0.41272 -0.06032,-0.86003 -0.01229,-1.24939c0.00428,-0.03473 0.0088,-0.06916 0.01353,-0.10333l-0.00767,-0.00506l0.07993,-1.0479c0.02705,-0.4055 0.15076,-0.72821 0.3199,-0.78325c0.16914,-0.05503 0.33392,0.17382 0.41862,0.54296l0.22848,0.94754l-0.01061,0.01564l0.02902,0.06866c0.35692,2.26941 0.77605,4.27697 1.43979,6.09781c0.65158,1.47408 1.21589,2.97659 1.94987,4.21491c0.90498,1.52682 1.90592,2.50008 2.84765,3.83452c0.76579,1.08514 1.57016,2.11638 2.39638,2.93885z" fill="#ffffff" stroke="#000000" stroke-width="1"/><path d="M250.77033,163.97544c-0.04791,-0.19436 0.76612,-0.7326 0.76612,-0.7326c0.13836,0.14301 0.29916,0.18234 0.41507,0.429c0.12407,0.26404 0.18331,0.67866 0.26915,1.02709c0.56566,2.29569 0.30152,5.1798 -0.74293,5.81227c-0.338,0.20468 -0.47581,0.05434 -0.82611,0.08519c-0.97339,0.08572 -1.9367,-0.1174 -2.90503,-0.73011c-0.40299,-0.255 -0.78589,-0.85319 -1.1743,-1.24008c-0.64134,-1.13816 -1.36372,-1.90661 -1.99618,-3.16571c-0.3365,-0.66993 -0.56438,-1.45966 -0.85455,-2.23914c-0.54455,-1.4628 -1.14393,-2.81249 -1.49412,-4.66634c-0.23664,-1.25275 -0.30381,-2.65724 -0.35529,-3.96717c-0.01388,-0.35332 -0.09964,-0.7037 -0.08255,-1.05092c0.00152,-0.03096 0.00326,-0.06178 0.00519,-0.09244l-0.00662,-0.00135l0.00526,-0.91576c-0.00117,-0.35287 0.08226,-0.67257 0.21871,-0.78337c0.13644,-0.11079 0.28573,0.01992 0.37705,0.29958l0.24353,0.71373l-0.00785,0.01724l0.02793,0.04698c0.42615,1.78174 0.8885,3.31858 1.54195,4.60469c0.62332,0.99775 1.17624,2.0527 1.85393,2.81993c0.83557,0.94598 1.71829,1.38778 2.57305,2.15725c0.69507,0.62572 1.41887,1.19121 2.1486,1.57203z" fill="#ffffff" stroke="#000000" stroke-width="1"/><path d="M249.62785,166.927c-0.04945,-0.12761 0.52065,-0.9178 0.52065,-0.9178c0.11339,0.04633 0.23625,0.00243 0.34015,0.13897c0.11123,0.14614 0.18462,0.43821 0.27325,0.667c0.5839,1.50744 0.58947,3.85101 -0.14608,4.82011c-0.23803,0.31361 -0.35153,0.26139 -0.61097,0.44678c-0.72092,0.51511 -1.45464,0.80311 -2.22092,0.77788c-0.3189,-0.01049 -0.64693,-0.29466 -0.96421,-0.4135c-0.55902,-0.58085 -1.15256,-0.83952 -1.71344,-1.51764c-0.29843,-0.36079 -0.52415,-0.86402 -0.79568,-1.3306c-0.50957,-0.87559 -1.05211,-1.63877 -1.44403,-2.90525c-0.26483,-0.85584 -0.41376,-1.90676 -0.54434,-2.89207c-0.03522,-0.26576 -0.1239,-0.49611 -0.13555,-0.77147c-0.00104,-0.02455 -0.00191,-0.0491 -0.00262,-0.07361l-0.00504,0.00201l-0.06047,-0.70785c-0.02569,-0.27129 0.01413,-0.55606 0.10824,-0.70436c0.09411,-0.1483 0.2148,-0.11648 0.30266,0.05682l0.23207,0.43745l-0.00466,0.0169l0.02417,0.0233c0.44357,1.17591 0.89694,2.14645 1.47541,2.8357c0.53568,0.48102 1.02282,1.03856 1.5829,1.31691c0.69056,0.34321 1.38087,0.27626 2.07334,0.47465c0.5631,0.16132 1.14343,0.26298 1.71521,0.21967z" fill="#ffffff" stroke="#000000" stroke-width="1"/><path d="M251.14327,169.07832c-0.0623,-0.08011 0.35744,-1.33518 0.35744,-1.33518c0.11035,-0.05358 0.2175,-0.20229 0.33105,-0.16075c0.12155,0.04445 0.22759,0.26225 0.33926,0.4059c0.73581,0.94649 1.05037,3.19944 0.50214,4.77019c-0.17741,0.50831 -0.28864,0.55631 -0.50266,0.95964c-0.59472,1.12073 -1.23119,2.0337 -1.93894,2.67315c-0.29454,0.26612 -0.63362,0.2765 -0.94099,0.43685c-0.5906,-0.07537 -1.17037,0.18955 -1.77553,0.0221c-0.32198,-0.08909 -0.59593,-0.37838 -0.90714,-0.59266c-0.58405,-0.40216 -1.18357,-0.66744 -1.71107,-1.54809c-0.35647,-0.59511 -0.63213,-1.47855 -0.88226,-2.31469c-0.06747,-0.22554 -0.17941,-0.37063 -0.22647,-0.62581c-0.0042,-0.02275 -0.00824,-0.04565 -0.01213,-0.06864l-0.00437,0.0063l-0.14905,-0.62955c-0.05944,-0.2391 -0.06043,-0.54795 0.0065,-0.77233c0.06693,-0.22439 0.18208,-0.29828 0.28574,-0.20743l0.27109,0.22042l-0.00204,0.02031l0.02529,0.00152c0.56303,0.74864 1.10796,1.29095 1.73074,1.4539c0.55596,-0.0006 1.07739,0.11458 1.62901,-0.1024c0.68014,-0.26752 1.30588,-0.92995 1.96867,-1.33864c0.53895,-0.33233 1.08586,-0.73705 1.60577,-1.27406z" fill="#ffffff" stroke="#000000" stroke-width="1"/><path d="M246.52068,160.79437c-0.01677,-0.22529 0.0402,-0.43087 0.12725,-0.4592c0.08705,-0.02832 0.17121,0.13134 0.18798,0.35663c0.01677,0.22528 -0.0402,0.43087 -0.12725,0.45919c-0.08705,0.02832 -0.17121,-0.13133 -0.18798,-0.35663z" fill="#000000" stroke="none" stroke-width="0.5"/><path d="M246.41079,166.3659c-0.01677,-0.22528 0.0402,-0.43086 0.12725,-0.45919c0.08705,-0.02833 0.17121,0.13134 0.18798,0.35663c0.01677,0.22528 -0.0402,0.43087 -0.12725,0.4592c-0.08705,0.02833 -0.17121,-0.13134 -0.18798,-0.35663z" fill="#000000" stroke="none" stroke-width="0.5"/><path d="M247.68761,171.59065c-0.01677,-0.22528 0.0402,-0.43088 0.12725,-0.4592c0.08705,-0.02833 0.17121,0.13134 0.18798,0.35663c0.01677,0.22528 -0.0402,0.43087 -0.12725,0.4592c-0.08705,0.02832 -0.17121,-0.13135 -0.18798,-0.35663z" fill="#000000" stroke="none" stroke-width="0.5"/><path d="M255.10403,158.69811c-0.05612,-0.22968 1.04682,0.12924 1.04682,0.12924c0.16288,0.17028 0.62742,0.49659 0.72798,0.90831c0.66261,2.71276 0.27967,5.94199 -0.95318,6.67422c-0.39897,0.23695 -0.56119,0.05804 -0.97433,0.08998c-1.148,0.08874 -2.28355,-0.1628 -3.42426,-0.89714c-0.47472,-0.30561 -0.92508,-1.01547 -1.38236,-1.47636c-0.7541,-1.3495 -1.60445,-2.26428 -2.34784,-3.75619c-0.39553,-0.7938 -0.66272,-1.72744 -1.00339,-2.64978c-0.63933,-1.73088 -1.34352,-3.32916 -1.75291,-5.51845c-0.27665,-1.47943 -0.35313,-3.13558 -0.41134,-4.68007c-0.0157,-0.41658 -0.11614,-0.83061 -0.09532,-1.23962c0.00185,-0.03647 0.00395,-0.07277 0.0063,-0.1089l-0.0078,-0.00167l0.00797,-1.07922c-0.0007,-0.41591 0.09829,-0.79165 0.2594,-0.9205c0.16111,-0.12886 0.33689,0.02709 0.44405,0.35785l0.2858,0.84424l-0.00929,0.02023l0.03285,0.05572c0.49909,2.1053 1.04135,3.9224 1.80943,5.44642c0.7331,1.18379 1.3831,2.43408 2.18075,3.34688c0.9835,1.12545 2.02356,1.65727 3.03002,2.57494c0.81843,0.74622 1.67085,1.42183 2.53063,1.87987z" fill="#ffffff" stroke="#000000" stroke-width="1"/><path d="M254.22187,163.05425c-0.05964,-0.17271 0.6975,-1.0653 0.6975,-1.0653c0.14433,0.08196 0.30362,0.05079 0.43298,0.24587c0.13848,0.20882 0.22385,0.59607 0.33073,0.9057c0.70421,2.04012 0.63927,5.02973 -0.33607,6.11706c-0.31563,0.35188 -0.45992,0.26238 -0.79913,0.44642c-0.94258,0.51138 -1.8946,0.73053 -2.87884,0.54373c-0.4096,-0.07774 -0.82254,-0.50629 -1.22674,-0.72186c-0.70073,-0.85352 -1.45575,-1.30316 -2.15588,-2.28107c-0.37252,-0.52033 -0.6472,-1.20758 -0.98189,-1.85735c-0.6281,-1.21938 -1.30204,-2.30206 -1.76687,-3.99616c-0.31411,-1.14481 -0.47322,-2.515 -0.61077,-3.7978c-0.0371,-0.34601 -0.14401,-0.65763 -0.15052,-1.01112c-0.00058,-0.03152 -0.00094,-0.06298 -0.00111,-0.09439l-0.00654,0.00154l-0.05596,-0.91485c-0.02468,-0.35113 0.03528,-0.70623 0.16081,-0.87634c0.12554,-0.17011 0.2797,-0.10518 0.38732,0.13354l0.28486,0.60466l-0.0065,0.02062l0.03034,0.03459c0.53401,1.58902 1.08696,2.91815 1.80936,3.91381c0.6738,0.72149 1.28284,1.53077 1.99424,1.99876c0.87713,0.57702 1.76655,0.63098 2.65061,1.02371c0.71889,0.31936 1.46176,0.56614 2.19807,0.62629z" fill="#ffffff" stroke="#000000" stroke-width="1"/><path d="M253.24321,166.52216c-0.05668,-0.10552 0.446,-1.14244 0.446,-1.14244c0.11356,-0.00345 0.23033,-0.10094 0.34066,-0.01036c0.11811,0.09696 0.2091,0.35588 0.3107,0.54509c0.6694,1.24665 0.83116,3.57958 0.17922,4.86717c-0.21098,0.41668 -0.32503,0.4143 -0.56542,0.71258c-0.66798,0.8288 -1.36357,1.43687 -2.11176,1.74706c-0.31137,0.12909 -0.64991,-0.01052 -0.96694,0.00991c-0.58335,-0.33419 -1.17884,-0.33221 -1.77051,-0.7625c-0.3148,-0.22894 -0.56827,-0.63163 -0.86392,-0.97774c-0.55484,-0.64953 -1.1343,-1.17261 -1.60059,-2.26316c-0.3151,-0.73695 -0.53029,-1.71904 -0.72323,-2.64375c-0.05204,-0.24942 -0.1538,-0.44014 -0.18353,-0.70944c-0.00265,-0.02401 -0.00514,-0.04808 -0.00748,-0.0722l-0.00477,0.00421l-0.10614,-0.67891c-0.04312,-0.2591 -0.02333,-0.5603 0.05846,-0.74926c0.08179,-0.18896 0.20149,-0.21007 0.29866,-0.07583l0.25526,0.33436l-0.0034,0.01889l0.0251,0.01265c0.51058,0.97769 1.017,1.74643 1.62653,2.18012c0.55395,0.24491 1.06573,0.58731 1.62992,0.6196c0.69565,0.03981 1.3637,-0.32897 2.05155,-0.43432c0.55935,-0.08567 1.13149,-0.2383 1.68563,-0.53169z" fill="#ffffff" stroke="#000000" stroke-width="1"/><path d="M254.86306,168.00279c-0.06605,-0.05255 0.25916,-1.48694 0.25916,-1.48694c0.10393,-0.10168 0.1984,-0.29675 0.31179,-0.30506c0.12138,-0.00889 0.23921,0.16173 0.35759,0.25602c0.77997,0.62118 1.23671,2.72859 0.80739,4.53375c-0.13893,0.58418 -0.2441,0.68068 -0.4257,1.17625c-0.50463,1.37707 -1.06378,2.56538 -1.71064,3.51231c-0.2692,0.39408 -0.59883,0.5528 -0.88759,0.8471c-0.58039,0.18334 -1.12755,0.70106 -1.72828,0.79902c-0.31963,0.05212 -0.6058,-0.11627 -0.92329,-0.19363c-0.59581,-0.14517 -1.19758,-0.14715 -1.77022,-0.79388c-0.38697,-0.43703 -0.71446,-1.19676 -1.01393,-1.9205c-0.08077,-0.19522 -0.1995,-0.29083 -0.26239,-0.52452c-0.00561,-0.02084 -0.01107,-0.04188 -0.01639,-0.06309l-0.00384,0.00819l-0.1872,-0.56213c-0.07385,-0.21225 -0.09542,-0.51959 -0.04518,-0.77248c0.05023,-0.25289 0.15749,-0.37691 0.26453,-0.33174l0.27881,0.10101l-0.00064,0.02114l0.02474,-0.00956c0.59845,0.49964 1.16551,0.80157 1.7831,0.69142c0.54159,-0.24389 1.05726,-0.3573 1.58018,-0.81491c0.64475,-0.56421 1.21019,-1.49817 1.82861,-2.19546c0.50289,-0.56703 1.00869,-1.20968 1.47937,-1.97231z" fill="#ffffff" stroke="#000000" stroke-width="1"/><path d="M249.89594,161.16051c0.29661,-1.61394 4.51432,-1.23241 5.23615,-1.80976c1.45101,-1.16058 3.07226,0.97929 3.62117,4.77953c0.54891,3.80024 -0.18238,7.82178 -1.63338,8.98237c-0.82777,0.66209 -4.78244,-0.14427 -5.49032,-1.32593c-0.14197,-0.23696 -1.11451,-2.33979 -1.50521,-4.75713c-0.42895,-2.65402 -0.27029,-5.64124 -0.22841,-5.86908z" fill="#ffffff" stroke="#000000" stroke-width="0"/><path d="M249.75176,161.84487c-0.03137,-0.21716 0.01042,-0.44695 0.09334,-0.51328c0.08292,-0.06632 0.17556,0.05596 0.20693,0.27312c0.03137,0.21716 -0.01043,0.44696 -0.09334,0.51328c-0.08292,0.06631 -0.17556,-0.05596 -0.20693,-0.27312z" fill="#000000" stroke="none" stroke-width="0.5"/><path d="M250.01636,167.44499c-0.03137,-0.21716 0.01042,-0.44696 0.09334,-0.51328c0.08292,-0.06632 0.17556,0.05596 0.20693,0.27312c0.03137,0.21716 -0.01042,0.44696 -0.09334,0.51328c-0.08292,0.06632 -0.17556,-0.05596 -0.20693,-0.27312z" fill="#000000" stroke="none" stroke-width="0.5"/><path d="M251.60879,172.0927c-0.03137,-0.21716 0.01042,-0.44695 0.09334,-0.51328c0.08292,-0.06632 0.17556,0.05595 0.20693,0.27312c0.03137,0.21716 -0.01043,0.44696 -0.09334,0.51327c-0.08292,0.06632 -0.17556,-0.05596 -0.20693,-0.27312z" fill="#000000" stroke="none" stroke-width="0.5"/></g><g data-paper-data="{&quot;index&quot;:null}" stroke-linejoin="miter"><path d="M223.54679,173.11264c-1.451,-1.16059 -2.18229,-5.18213 -1.63338,-8.98237c0.54891,-3.80024 2.17016,-5.94011 3.62116,-4.77953c1.451,1.16058 2.18229,5.18212 1.63339,8.98237c-0.54891,3.80023 -2.17016,5.94011 -3.62116,4.77953z" fill="#ffffff" stroke="#000000" stroke-width="2"/><path d="M228.7267,160.11766c0.82621,-0.82247 1.6306,-1.85371 2.39638,-2.93884c0.94171,-1.33445 1.94266,-2.3077 2.84764,-3.83453c0.73397,-1.23832 1.29829,-2.74084 1.94987,-4.21492c0.66373,-1.82084 1.08288,-3.8284 1.43979,-6.09781l0.02902,-0.06866l-0.01061,-0.01564l0.22848,-0.94754c0.0847,-0.36913 0.24948,-0.59798 0.41862,-0.54296c0.16915,0.05504 0.29285,0.37776 0.3199,0.78325l0.07993,1.04789l-0.00767,0.00506c0.00473,0.03417 0.00925,0.06861 0.01353,0.10333c0.04804,0.38936 -0.02444,0.83667 -0.01229,1.24939c0.04503,1.53014 0.07929,3.17704 -0.09771,4.7394c-0.26192,2.312 -0.85702,4.17723 -1.37866,6.14327c-0.27796,1.04764 -0.48194,2.07413 -0.82313,3.02055c-0.64126,1.77876 -1.42762,3.04208 -2.08905,4.68678c-0.42493,0.6491 -0.82638,1.53776 -1.27904,2.04323c-1.08772,1.21459 -2.20252,1.95657 -3.35243,2.37249c-0.41382,0.14968 -0.56354,0.39497 -0.97691,0.33873c-1.27738,-0.17384 -1.87439,-3.15223 -1.39505,-6.08502c0.07275,-0.44511 0.5139,-0.9663 0.66484,-1.20347c0,0 1.07514,-0.83231 1.03453,-0.58401z" fill="#ffffff" stroke="#000000" stroke-width="1"/><path d="M229.89634,163.97545c0.72973,-0.38082 1.45353,-0.94632 2.14859,-1.57204c0.85476,-0.76948 1.73748,-1.21127 2.57305,-2.15725c0.67769,-0.76723 1.23061,-1.82217 1.85393,-2.81992c0.65344,-1.28611 1.11579,-2.82295 1.54195,-4.60469l0.02793,-0.04698l-0.00785,-0.01725l0.24353,-0.71373c0.09132,-0.27966 0.24061,-0.41037 0.37705,-0.29958c0.13644,0.1108 0.21987,0.4305 0.21871,0.78337l0.00527,0.91575l-0.00663,0.00135c0.00193,0.03066 0.00366,0.06149 0.00519,0.09244c0.0171,0.34722 -0.06866,0.6976 -0.08255,1.05092c-0.0515,1.30993 -0.11865,2.71442 -0.35529,3.96717c-0.3502,1.85385 -0.94957,3.20354 -1.49412,4.66634c-0.29017,0.77948 -0.51804,1.56921 -0.85455,2.23914c-0.63246,1.2591 -1.35484,2.02755 -1.99618,3.16571c-0.38842,0.38689 -0.77131,0.9851 -1.1743,1.24009c-0.96834,0.61271 -1.93165,0.81583 -2.90503,0.7301c-0.3503,-0.03085 -0.48811,0.11948 -0.82611,-0.08519c-1.04445,-0.63247 -1.30858,-3.51658 -0.74293,-5.81227c0.08585,-0.34843 0.14509,-0.76304 0.26916,-1.02708c0.1159,-0.24667 0.27671,-0.286 0.41507,-0.42901c0,0 0.81403,0.53824 0.76613,0.7326z" fill="#ffffff" stroke="#000000" stroke-width="1"/><path d="M231.03881,166.92699c0.57177,0.04331 1.1521,-0.05836 1.7152,-0.21967c0.69247,-0.19839 1.38279,-0.13144 2.07334,-0.47465c0.56007,-0.27835 1.04721,-0.83589 1.58289,-1.31691c0.57846,-0.68925 1.03184,-1.65979 1.47541,-2.8357l0.02417,-0.0233l-0.00466,-0.01691l0.23207,-0.43744c0.08787,-0.1733 0.20856,-0.20513 0.30266,-0.05682c0.09411,0.1483 0.13394,0.43308 0.10824,0.70436l-0.06047,0.70785l-0.00504,-0.00201c-0.00072,0.02451 -0.00159,0.04905 -0.00262,0.07361c-0.01166,0.27536 -0.10034,0.50571 -0.13555,0.77147c-0.13058,0.98532 -0.27951,2.03624 -0.54434,2.89208c-0.39191,1.26648 -0.93446,2.02965 -1.44403,2.90524c-0.27153,0.46658 -0.49726,0.9698 -0.79569,1.3306c-0.56089,0.67812 -1.15442,0.93679 -1.71343,1.51764c-0.31729,0.11883 -0.64533,0.403 -0.96422,0.4135c-0.76627,0.02523 -1.49999,-0.26277 -2.22091,-0.77788c-0.25944,-0.18538 -0.37293,-0.13317 -0.61096,-0.44678c-0.73555,-0.9691 -0.72998,-3.31266 -0.14608,-4.82011c0.08861,-0.22879 0.16201,-0.52085 0.27325,-0.66699c0.10391,-0.13654 0.22677,-0.09265 0.34015,-0.13898c0,0 0.5701,0.79019 0.52064,0.9178z" fill="#ffffff" stroke="#000000" stroke-width="1"/><path d="M229.52338,169.07836c0.5199,0.53701 1.06681,0.94173 1.60576,1.27406c0.66279,0.40869 1.28853,1.07113 1.96867,1.33865c0.55162,0.21697 1.07305,0.1018 1.629,0.1024c0.62277,-0.16296 1.16772,-0.70526 1.73074,-1.4539l0.02529,-0.00153l-0.00204,-0.02031l0.2711,-0.22042c0.10366,-0.09085 0.21881,-0.01696 0.28574,0.20743c0.06693,0.22438 0.06594,0.53323 0.0065,0.77233l-0.14905,0.62955l-0.00437,-0.0063c-0.0039,0.02299 -0.00793,0.04588 -0.01213,0.06864c-0.04707,0.25518 -0.159,0.40027 -0.22648,0.62581c-0.25013,0.83614 -0.5258,1.71958 -0.88226,2.31469c-0.52749,0.88065 -1.12703,1.14592 -1.71107,1.54809c-0.31122,0.21428 -0.58516,0.50358 -0.90714,0.59267c-0.60515,0.16745 -1.18494,-0.09748 -1.77553,-0.02211c-0.30736,-0.16035 -0.64644,-0.17073 -0.94098,-0.43685c-0.70776,-0.63945 -1.34423,-1.55242 -1.93894,-2.67315c-0.21403,-0.40333 -0.32526,-0.45133 -0.50266,-0.95964c-0.54823,-1.57074 -0.23367,-3.8237 0.50214,-4.77019c0.11168,-0.14365 0.21771,-0.36145 0.33925,-0.4059c0.11354,-0.04153 0.22069,0.10718 0.33104,0.16076c0,0 0.41974,1.25508 0.35744,1.33518z" fill="#ffffff" stroke="#000000" stroke-width="1"/><path d="M234.14598,160.79437c-0.01678,0.2253 -0.10094,0.38495 -0.18798,0.35663c-0.08705,-0.02833 -0.14402,-0.23391 -0.12724,-0.45919c0.01677,-0.22529 0.10093,-0.38495 0.18798,-0.35662c0.08705,0.02833 0.14402,0.23391 0.12725,0.4592z" fill="#000000" stroke="none" stroke-width="0.5"/><path d="M234.06788,166.72254c-0.08705,-0.02833 -0.14402,-0.23392 -0.12724,-0.4592c0.01677,-0.22529 0.10092,-0.38496 0.18798,-0.35663c0.08705,0.02833 0.14402,0.23391 0.12725,0.45919c-0.01677,0.22529 -0.10093,0.38497 -0.18798,0.35664z" fill="#000000" stroke="none" stroke-width="0.5"/><path d="M232.97905,171.59065c-0.01677,0.22528 -0.10094,0.38496 -0.18798,0.35663c-0.08705,-0.02833 -0.14402,-0.23392 -0.12725,-0.4592c0.01677,-0.22529 0.10092,-0.38496 0.18798,-0.35663c0.08705,0.02833 0.14402,0.23392 0.12724,0.4592z" fill="#000000" stroke="none" stroke-width="0.5"/><path d="M225.56264,158.69812c0.85978,-0.45804 1.7122,-1.13366 2.53063,-1.87988c1.00646,-0.91767 2.04651,-1.44949 3.03001,-2.57494c0.79765,-0.91279 1.44764,-2.16308 2.18075,-3.34688c0.76807,-1.52402 1.31033,-3.34112 1.80943,-5.44642l0.03285,-0.05572l-0.0093,-0.02023l0.2858,-0.84424c0.10715,-0.33076 0.28295,-0.48671 0.44405,-0.35784c0.16111,0.12885 0.2601,0.5046 0.2594,0.9205l0.00797,1.07922l-0.0078,0.00167c0.00233,0.03613 0.00444,0.07242 0.0063,0.1089c0.02082,0.40902 -0.07962,0.82304 -0.09531,1.23962c-0.0582,1.54449 -0.13468,3.20064 -0.41134,4.68007c-0.40938,2.18929 -1.11357,3.78756 -1.7529,5.51844c-0.34068,0.92234 -0.60787,1.85598 -1.0034,2.64978c-0.74338,1.49192 -1.59373,2.40669 -2.34783,3.75619c-0.45728,0.46089 -0.90765,1.17075 -1.38236,1.47636c-1.1407,0.73433 -2.27625,0.98588 -3.42426,0.89714c-0.41313,-0.03193 -0.57535,0.14697 -0.97433,-0.08998c-1.23285,-0.73223 -1.61579,-3.96145 -0.95317,-6.67421c0.10057,-0.41172 0.56511,-0.73804 0.72798,-0.90832c0,0 1.10294,-0.35891 1.04682,-0.12923z" fill="#ffffff" stroke="#000000" stroke-width="1"/><path d="M226.44477,163.05429c0.73632,-0.06015 1.47919,-0.30693 2.19807,-0.62629c0.88406,-0.39273 1.77348,-0.44668 2.65061,-1.02371c0.71139,-0.46799 1.32043,-1.27728 1.99423,-1.99876c0.72239,-0.99566 1.27533,-2.32479 1.80936,-3.91381l0.03035,-0.03459l-0.00649,-0.02062l0.28486,-0.60466c0.10763,-0.23871 0.26179,-0.30365 0.38732,-0.13354c0.12553,0.17011 0.18548,0.52522 0.16081,0.87635l-0.05596,0.91484l-0.00655,-0.00154c-0.00017,0.03141 -0.00053,0.06286 -0.00111,0.09439c-0.00651,0.35349 -0.11343,0.66512 -0.15052,1.01112c-0.13754,1.2828 -0.29665,2.653 -0.61076,3.7978c-0.46482,1.6941 -1.13878,2.77679 -1.76687,3.99616c-0.33469,0.64976 -0.60936,1.33702 -0.98189,1.85734c-0.70014,0.97791 -1.45515,1.42755 -2.15588,2.28107c-0.4042,0.21557 -0.81713,0.64412 -1.22674,0.72186c-0.98424,0.1868 -1.93626,-0.03235 -2.87884,-0.54373c-0.33921,-0.18403 -0.4835,-0.09454 -0.79912,-0.44642c-0.97533,-1.08733 -1.04027,-4.07693 -0.33607,-6.11705c0.10688,-0.30963 0.19224,-0.69689 0.33073,-0.90571c0.12937,-0.19507 0.28866,-0.1639 0.43298,-0.24586c0,0 0.75714,0.89258 0.6975,1.06529z" fill="#ffffff" stroke="#000000" stroke-width="1"/><path d="M227.42345,166.52217c0.55414,0.29339 1.12629,0.44603 1.68563,0.53169c0.68786,0.10534 1.3559,0.47413 2.05154,0.43433c0.56419,-0.03229 1.07597,-0.3747 1.62992,-0.61961c0.60952,-0.43369 1.11596,-1.20243 1.62653,-2.18012l0.02509,-0.01265l-0.0034,-0.01889l0.25527,-0.33436c0.09717,-0.13424 0.21686,-0.11313 0.29865,0.07583c0.08178,0.18896 0.10159,0.49016 0.05846,0.74926l-0.10614,0.67891l-0.00477,-0.00421c-0.00234,0.02412 -0.00482,0.0482 -0.00748,0.0722c-0.02972,0.2693 -0.13148,0.46003 -0.18353,0.70945c-0.19294,0.92472 -0.40813,1.9068 -0.72322,2.64375c-0.46629,1.09055 -1.04576,1.61363 -1.60059,2.26316c-0.29565,0.34611 -0.54913,0.74881 -0.86393,0.97775c-0.59166,0.43029 -1.18715,0.42831 -1.7705,0.7625c-0.31703,-0.02042 -0.65557,0.11918 -0.96694,-0.00991c-0.7482,-0.31019 -1.44378,-0.91827 -2.11176,-1.74706c-0.24039,-0.29827 -0.35444,-0.29589 -0.56542,-0.71258c-0.65194,-1.28759 -0.49018,-3.62052 0.17922,-4.86716c0.1016,-0.18921 0.19258,-0.44813 0.3107,-0.54509c0.11033,-0.09058 0.2271,0.0069 0.34066,0.01036c0,0 0.50268,1.03692 0.446,1.14245z" fill="#ffffff" stroke="#000000" stroke-width="1"/><path d="M225.8036,168.00278c0.47067,0.76263 0.97649,1.40528 1.47937,1.97231c0.61843,0.69729 1.18386,1.63126 1.8286,2.19547c0.52293,0.45761 1.0386,0.57102 1.58018,0.81491c0.61759,0.11015 1.18465,-0.19177 1.7831,-0.69142l0.02474,0.00956l-0.00064,-0.02114l0.27881,-0.10101c0.10704,-0.04516 0.2143,0.07885 0.26453,0.33174c0.05023,0.25289 0.02867,0.56023 -0.04518,0.77248l-0.18721,0.56213l-0.00383,-0.00819c-0.00533,0.02121 -0.01079,0.04225 -0.0164,0.06309c-0.06289,0.23369 -0.18161,0.3293 -0.26239,0.52452c-0.29946,0.72375 -0.62696,1.48348 -1.01393,1.92051c-0.57264,0.64673 -1.1744,0.64871 -1.77021,0.79388c-0.31749,0.07736 -0.60366,0.24574 -0.92329,0.19363c-0.60072,-0.09796 -1.14789,-0.61568 -1.72828,-0.79902c-0.28875,-0.2943 -0.61839,-0.45303 -0.88759,-0.8471c-0.64686,-0.94693 -1.20601,-2.13524 -1.71063,-3.51231c-0.18161,-0.49557 -0.28678,-0.59207 -0.4257,-1.17625c-0.42931,-1.80516 0.02742,-3.91257 0.80739,-4.53375c0.11838,-0.09429 0.23621,-0.26491 0.35759,-0.25601c0.1134,0.00831 0.20787,0.20337 0.31179,0.30506c0,0 0.3252,1.43439 0.25916,1.48694z" fill="#ffffff" stroke="#000000" stroke-width="1"/><path d="M230.77072,161.16052c0.04187,0.22784 0.20053,3.21505 -0.22841,5.86907c-0.39069,2.41733 -1.36324,4.52017 -1.5052,4.75714c-0.70787,1.18165 -4.66255,1.98801 -5.49032,1.32592c-1.451,-1.16059 -2.18229,-5.18213 -1.63338,-8.98237c0.54891,-3.80024 2.17016,-5.94011 3.62116,-4.77953c0.72183,0.57735 4.93954,0.19582 5.23614,1.80976z" fill="#ffffff" stroke="#000000" stroke-width="0"/><path d="M230.70797,162.11799c-0.0829,-0.06633 -0.1247,-0.29613 -0.09333,-0.51328c0.03137,-0.21716 0.12401,-0.33943 0.20692,-0.27312c0.08292,0.06633 0.1247,0.29612 0.09334,0.51328c-0.03137,0.21716 -0.12402,0.33943 -0.20693,0.27312z" fill="#000000" stroke="none" stroke-width="0.5"/><path d="M230.44338,167.71811c-0.08292,-0.06633 -0.1247,-0.29612 -0.09334,-0.51328c0.03137,-0.21716 0.12401,-0.33944 0.20693,-0.27312c0.08292,0.06632 0.1247,0.29613 0.09334,0.51328c-0.03137,0.21716 -0.12401,0.33944 -0.20693,0.27312z" fill="#000000" stroke="none" stroke-width="0.5"/><path d="M229.05787,172.09269c-0.03137,0.21715 -0.12401,0.33943 -0.20692,0.27312c-0.08292,-0.06631 -0.1247,-0.29611 -0.09334,-0.51327c0.03137,-0.21716 0.12401,-0.33944 0.20693,-0.27312c0.08292,0.06633 0.1247,0.29612 0.09334,0.51328z" fill="#000000" stroke="none" stroke-width="0.5"/></g></g></g></svg>