<svg version="1.1" xmlns="http://www.w3.org/2000/svg" xmlns:xlink="http://www.w3.org/1999/xlink" width="62" height="62.00001" viewBox="0,0,62,62.00001"><g transform="translate(-209,-149.00003)"><g data-paper-data="{&quot;isPaintingLayer&quot;:true}" fill-rule="nonzero" stroke="none" stroke-width="1" stroke-linecap="butt" stroke-linejoin="miter" stroke-miterlimit="10" stroke-dasharray="" stroke-dashoffset="0" style="mix-blend-mode: normal"><path d="M209,181.00004v-32h62v32z" fill="#ce7ca7"/><path d="M212,163v-11h11v11z" fill="#a3457d"/><path d="M242,163v-11h11v11z" fill="#a3457d"/><path d="M227,163v-11h11v11z" fill="#bc6296"/><path d="M257,163v-11h11v11z" fill="#bc6296"/><path d="M212,178.00004v-11h11v11z" fill="#bc6296"/><path d="M242,178.00004v-11h11v11z" fill="#bc6296"/><path d="M227,178.00004v-11h11v11z" fill="#a3457d"/><path d="M257,178.00004v-11h11v11z" fill="#a3457d"/><path d="M271,179.00005v32h-62v-32z" fill="#ce7ca7"/><path d="M268,197.00007v11h-11v-11z" fill="#a3457d"/><path d="M238,197.00008v11h-11v-11z" fill="#a3457d"/><path d="M253,197.00007v11h-11v-11z" fill="#bc6296"/><path d="M223,197.00007v11h-11v-11z" fill="#bc6296"/><path d="M268,182.00006v11h-11v-11z" fill="#bc6296"/><path d="M238,182.00006v11h-11v-11z" fill="#bc6296"/><path d="M253,182.00006v11h-11v-11z" fill="#a3457d"/><path d="M223,182.00005v11h-11v-11z" fill="#a3457d"/></g></g></svg>