<svg version="1.1" xmlns="http://www.w3.org/2000/svg" xmlns:xlink="http://www.w3.org/1999/xlink" width="58.93786" height="47.66887" viewBox="0,0,58.93786,47.66887"><g transform="translate(-210.53107,-143.28897)"><g data-paper-data="{&quot;isPaintingLayer&quot;:true}" fill-rule="nonzero" stroke-linecap="butt" stroke-miterlimit="10" stroke-dasharray="" stroke-dashoffset="0" style="mix-blend-mode: normal"><g><path d="M245.74512,177.59811l9.67404,-0.14353l-4.67187,11.20299z" fill="none" stroke="#000000" stroke-width="4" stroke-linejoin="round"/><path d="M245.74512,177.59811l9.67404,-0.14353l-4.67187,11.20299z" fill="#b3b3b3" stroke="none" stroke-width="1" stroke-linejoin="miter"/></g><g><path d="M235.62582,177.74825l9.67405,-0.14353l-4.67187,11.20299z" fill="none" stroke="#000000" stroke-width="4" stroke-linejoin="round"/><path d="M235.62582,177.74825l9.67405,-0.14353l-4.67187,11.20299z" fill="#b3b3b3" stroke="none" stroke-width="1" stroke-linejoin="miter"/></g><g><path d="M225.49642,177.89854l9.68417,-0.14368l-4.67187,11.20299z" fill="none" stroke="#000000" stroke-width="4" stroke-linejoin="round"/><path d="M225.49642,177.89854l9.68417,-0.14368l-4.67187,11.20299z" fill="#b3b3b3" stroke="none" stroke-width="1" stroke-linejoin="miter"/></g><g><path d="M223.89081,167.23404l0.14353,9.67405l-11.203,-4.67188z" fill="none" stroke="#000000" stroke-width="4" stroke-linejoin="round"/><path d="M223.89081,167.23404l0.14353,9.67405l-11.203,-4.67188z" fill="#b3b3b3" stroke="none" stroke-width="1" stroke-linejoin="miter"/></g><g><path d="M223.74067,157.11474l0.14353,9.67404l-11.20299,-4.67186z" fill="none" stroke="#000000" stroke-width="4" stroke-linejoin="round"/><path d="M223.74067,157.11474l0.14353,9.67404l-11.20299,-4.67186z" fill="#b3b3b3" stroke="none" stroke-width="1" stroke-linejoin="miter"/></g><g><path d="M223.59038,146.98531l0.14368,9.68417l-11.20299,-4.67186z" fill="none" stroke="#000000" stroke-width="4" stroke-linejoin="round"/><path d="M223.59038,146.98531l0.14368,9.68417l-11.20299,-4.67186z" fill="#b3b3b3" stroke="none" stroke-width="1" stroke-linejoin="miter"/></g><g><path d="M256.10919,155.74379l-0.14353,-9.67404l11.20299,4.67187z" fill="none" stroke="#000000" stroke-width="4" stroke-linejoin="round"/><path d="M256.10919,155.74379l-0.14353,-9.67404l11.20299,4.67187z" fill="#b3b3b3" stroke="none" stroke-width="1" stroke-linejoin="miter"/></g><g><path d="M256.25933,165.86309l-0.14353,-9.67405l11.20299,4.67186z" fill="none" stroke="#000000" stroke-width="4" stroke-linejoin="round"/><path d="M256.25933,165.86309l-0.14353,-9.67405l11.20299,4.67186z" fill="#b3b3b3" stroke="none" stroke-width="1" stroke-linejoin="miter"/></g><g><path d="M256.40947,175.98239l-0.14353,-9.67405l11.20299,4.67186z" fill="none" stroke="#000000" stroke-width="4" stroke-linejoin="round"/><path d="M256.40947,175.98239l-0.14353,-9.67405l11.20299,4.67186z" fill="#b3b3b3" stroke="none" stroke-width="1" stroke-linejoin="miter"/></g><g><path d="M224.05279,178.15115l-0.48045,-32.38173l32.38174,-0.48044l0.48045,32.38173z" fill="none" stroke="#000000" stroke-width="4" stroke-linejoin="round"/><path d="M224.05279,178.15115l-0.48045,-32.38173l32.38174,-0.48044l0.48045,32.38173z" fill="#d10000" stroke="none" stroke-width="1" stroke-linejoin="miter"/></g><path d="M233.02159,168.67751l-0.2102,-14.16701l14.16701,-0.21019l0.21019,14.16701z" fill="#ff0000" stroke="none" stroke-width="1" stroke-linejoin="miter"/><g><path d="M234.88931,166.42679l10.36561,-0.15379l0.15379,10.36561l-10.3656,0.15379z" fill="#ffffff" stroke="#ffffff" stroke-width="2" stroke-linejoin="round"/><path d="M237.02395,170.54227l6.21937,-0.09228l0.09228,6.21937l-6.21937,0.09227z" fill="#000000" stroke="none" stroke-width="1" stroke-linejoin="miter"/></g></g></g></svg>