<svg version="1.1" xmlns="http://www.w3.org/2000/svg" xmlns:xlink="http://www.w3.org/1999/xlink" width="79.28" height="49.125" viewBox="0,0,79.28,49.125"><g transform="translate(-207,-148.875)"><g data-paper-data="{&quot;isPaintingLayer&quot;:true}" fill-rule="nonzero" stroke-linecap="butt" stroke-miterlimit="10" stroke-dasharray="" stroke-dashoffset="0" style="mix-blend-mode: normal"><path d="M209,196v-32h62v32z" fill="#39b54a" stroke="#000000" stroke-width="4" stroke-linejoin="round"/><path d="M209,196v-32h62v32z" fill="#3967c4" stroke="none" stroke-width="0" stroke-linejoin="round"/><path d="M218,187v-14h44v14z" fill="#4f7bd2" stroke="none" stroke-width="1" stroke-linejoin="miter"/><g><path d="M225.185,161.875h-9.56l4.78,-11z" fill="none" stroke="#000000" stroke-width="4" stroke-linejoin="round"/><path d="M225.185,161.875h-9.56l4.78,-11z" fill="#b3b3b3" stroke="none" stroke-width="1" stroke-linejoin="miter"/></g><g><path d="M244.56,161.875h-9.56l4.78,-11z" fill="none" stroke="#000000" stroke-width="4" stroke-linejoin="round"/><path d="M244.56,161.875h-9.56l4.78,-11z" fill="#b3b3b3" stroke="none" stroke-width="1" stroke-linejoin="miter"/></g><g><path d="M263.935,161.875h-9.56l4.78,-11z" fill="none" stroke="#000000" stroke-width="4" stroke-linejoin="round"/><path d="M263.935,161.875h-9.56l4.78,-11z" fill="#b3b3b3" stroke="none" stroke-width="1" stroke-linejoin="miter"/></g><g data-paper-data="{&quot;index&quot;:null}"><path d="M284.28,189.5l-11,4.78v-9.56z" fill="none" stroke="#000000" stroke-width="4" stroke-linejoin="round"/><path d="M284.28,189.5l-11,4.78v-9.56z" fill="#b3b3b3" stroke="none" stroke-width="1" stroke-linejoin="miter"/></g><g data-paper-data="{&quot;index&quot;:null}"><path d="M284.28,170.125l-11,4.78v-9.56z" fill="none" stroke="#000000" stroke-width="4" stroke-linejoin="round"/><path d="M284.28,170.125l-11,4.78v-9.56z" fill="#b3b3b3" stroke="none" stroke-width="1" stroke-linejoin="miter"/></g></g></g></svg>