<svg version="1.1" xmlns="http://www.w3.org/2000/svg" xmlns:xlink="http://www.w3.org/1999/xlink" width="23.87827" height="27.91588" viewBox="0,0,23.87827,27.91588"><g transform="translate(-227.62173,-151.9484)"><g data-paper-data="{&quot;isPaintingLayer&quot;:true}" fill-rule="nonzero" stroke-linecap="butt" stroke-miterlimit="10" stroke-dasharray="" stroke-dashoffset="0" style="mix-blend-mode: normal"><path d="M231.79205,171.65458v-7h11v7z" fill="#000000" stroke="none" stroke-width="1" stroke-linejoin="miter"/><g><g stroke="none" stroke-linejoin="miter"><path d="M250.34368,166.31236l-20.89583,2.08907l-0.79583,-7.96032c-0.32964,-3.29727 2.07609,-6.23747 5.37336,-6.56711l8.95535,-0.89531c3.29727,-0.32964 6.23747,2.07609 6.56711,5.37336z" fill="#ff7800" stroke-width="1"/><path d="M251.4382,167.20792l-22.88591,2.28803l-0.89531,-8.95535c-0.38459,-3.84682 2.4221,-7.27705 6.26892,-7.66164l8.95535,-0.89531c3.84682,-0.38459 7.27705,2.4221 7.66164,6.26892zM230.34342,167.30691l18.90575,-1.89011l-0.69635,-6.96527c-0.27471,-2.74773 -2.72487,-4.75251 -5.4726,-4.4778l-8.95535,0.89531c-2.74773,0.27471 -4.75251,2.72487 -4.4778,5.4726z" fill="#000000" stroke-width="1"/><path d="M229.59709,160.34018c-0.27471,-2.74773 1.74615,-5.23319 4.49388,-5.5079l9.01327,-0.90241c2.74773,-0.27471 5.2225,1.76231 5.49721,4.51004l0.69265,6.99881l-18.99098,1.89778z" data-paper-data="{&quot;noHover&quot;:false,&quot;origItem&quot;:[&quot;Path&quot;,{&quot;applyMatrix&quot;:true,&quot;segments&quot;:[[230.34342,167.30691],[249.24917,165.4168],[[248.55282,158.45153],[0,0],[-0.27471,-2.74773]],[[243.08022,153.97373],[2.74773,-0.27471],[0,0]],[[234.12487,154.86904],[0,0],[-2.74773,0.27471]],[[229.64707,160.34164],[-0.27471,-2.74773],[0,0]]],&quot;closed&quot;:true,&quot;fillColor&quot;:[0,0,0,1]}]}" fill="#9500ff" stroke-width="0.5"/></g><path d="M239.99537,163.32699l-0.4974,-4.97519l4.97519,-0.4974l0.4974,4.97519z" fill="#ffffff" stroke="#ffffff" stroke-width="2" stroke-linejoin="round"/><path d="M241.88597,162.133l-0.29844,-2.98511l2.98511,-0.29844l0.29844,2.98511z" fill="#000000" stroke="none" stroke-width="1" stroke-linejoin="miter"/></g><path d="M250.5,171.86429v7h-21v-7h16v-1.5c0,-0.55229 0.44771,-1 1,-1h1.5c0.55229,0 1,0.44771 1,1v1.5z" fill="#7a1cbe" stroke="#000000" stroke-width="2" stroke-linejoin="miter"/></g></g></svg>