<svg version="1.1" xmlns="http://www.w3.org/2000/svg" xmlns:xlink="http://www.w3.org/1999/xlink" width="23" height="39.50204" viewBox="0,0,23,39.50204"><g transform="translate(-228.5,-140.44557)"><g data-paper-data="{&quot;isPaintingLayer&quot;:true}" fill-rule="nonzero" stroke-linecap="butt" stroke-miterlimit="10" stroke-dasharray="" stroke-dashoffset="0" style="mix-blend-mode: normal"><path d="M229.5,178.94762v-7h21v7z" fill="#d68815" stroke="#000000" stroke-width="2" stroke-linejoin="miter"/><g><path d="M233.25762,145.18043l13.39985,8.96577l-13.63367,8.60603" fill="none" stroke="#000000" stroke-width="8" stroke-linejoin="round"/><path d="M246.54057,162.9321l-13.39985,-8.96577l13.63367,-8.60603" fill="none" stroke="#000000" stroke-width="8" stroke-linejoin="round"/><path d="M233.25762,145.18043l13.39985,8.96577l-13.63367,8.60603" fill="none" stroke="#b5b5b5" stroke-width="4" stroke-linejoin="round"/><path d="M246.54057,162.9321l-13.39985,-8.96577l13.63367,-8.60603" fill="none" stroke="#b5b5b5" stroke-width="4" stroke-linejoin="round"/><path d="M232.16394,146.85577l15.65918,0.20838" fill="none" stroke="#000000" stroke-width="2" stroke-linejoin="miter"/><path d="M230.87421,146.50061l0.05396,-4.05503l18.24763,0.24282l-0.05396,4.05503z" fill="none" stroke="#000000" stroke-width="4" stroke-linejoin="round"/><path d="M230.87421,146.50061l0.05396,-4.05503l18.24763,0.24282l-0.05396,4.05503z" fill="#f59c18" stroke="none" stroke-width="1" stroke-linejoin="miter"/><path d="M230.87421,146.50061l0.01799,-1.35168l18.24763,0.24282l-0.01798,1.35168z" fill="#d68815" stroke="none" stroke-width="1" stroke-linejoin="miter"/><path d="M235.5,157.94967h9c3.31371,0 6,2.68629 6,6v8h-21v-8c0,-3.31371 2.68629,-6 6,-6z" fill="#f59c18" stroke="#000000" stroke-width="2" stroke-linejoin="miter"/><path d="M240.5,167.94966v-5h5v5z" fill="#ffffff" stroke="#ffffff" stroke-width="2" stroke-linejoin="round"/><path d="M242.5,166.94966v-3h3v3z" fill="#000000" stroke="none" stroke-width="1" stroke-linejoin="miter"/></g></g></g></svg>