<svg version="1.1" xmlns="http://www.w3.org/2000/svg" xmlns:xlink="http://www.w3.org/1999/xlink" width="163.23585" height="163.50944" viewBox="0,0,163.23585,163.50944"><g transform="translate(-218.38215,-38.24528)"><g data-paper-data="{&quot;isPaintingLayer&quot;:true}" fill-rule="nonzero" stroke-linecap="butt" stroke-miterlimit="10" stroke-dasharray="" stroke-dashoffset="0" style="mix-blend-mode: normal"><g data-paper-data="{&quot;index&quot;:null}"><path d="M247.96706,199.75472l-8,-16h16z" fill="none" stroke="#000000" stroke-width="4" stroke-linejoin="round"/><path d="M247.96706,199.75472l-8,-16h16z" fill="#b3b3b3" stroke="none" stroke-width="1" stroke-linejoin="miter"/></g><g data-paper-data="{&quot;index&quot;:null}"><path d="M290.79725,199.75472l-8,-16h16z" fill="none" stroke="#000000" stroke-width="4" stroke-linejoin="round"/><path d="M290.79725,199.75472l-8,-16h16z" fill="#b3b3b3" stroke="none" stroke-width="1" stroke-linejoin="miter"/></g><g data-paper-data="{&quot;index&quot;:null}"><path d="M269.96706,199.75472l-8,-16h16z" fill="none" stroke="#000000" stroke-width="4" stroke-linejoin="round"/><path d="M269.96706,199.75472l-8,-16h16z" fill="#b3b3b3" stroke="none" stroke-width="1" stroke-linejoin="miter"/></g><g data-paper-data="{&quot;index&quot;:null}"><path d="M379.618,172.18868l-16,8v-16z" fill="none" stroke="#000000" stroke-width="4" stroke-linejoin="round"/><path d="M379.618,172.18868l-16,8v-16z" fill="#b3b3b3" stroke="none" stroke-width="1" stroke-linejoin="miter"/></g><g data-paper-data="{&quot;index&quot;:null}"><path d="M379.618,129.35849l-16,8v-16z" fill="none" stroke="#000000" stroke-width="4" stroke-linejoin="round"/><path d="M379.618,129.35849l-16,8v-16z" fill="#b3b3b3" stroke="none" stroke-width="1" stroke-linejoin="miter"/></g><g data-paper-data="{&quot;index&quot;:null}"><path d="M379.618,150.18868l-16,8v-16z" fill="none" stroke="#000000" stroke-width="4" stroke-linejoin="round"/><path d="M379.618,150.18868l-16,8v-16z" fill="#b3b3b3" stroke="none" stroke-width="1" stroke-linejoin="miter"/></g><g data-paper-data="{&quot;index&quot;:null}"><path d="M351.96706,40.24528l8,16h-16z" fill="none" stroke="#000000" stroke-width="4" stroke-linejoin="round"/><path d="M351.96706,40.24528l8,16h-16z" fill="#b3b3b3" stroke="none" stroke-width="1" stroke-linejoin="miter"/></g><g data-paper-data="{&quot;index&quot;:null}"><path d="M309.13687,40.24528l8,16h-16z" fill="none" stroke="#000000" stroke-width="4" stroke-linejoin="round"/><path d="M309.13687,40.24528l8,16h-16z" fill="#b3b3b3" stroke="none" stroke-width="1" stroke-linejoin="miter"/></g><g data-paper-data="{&quot;index&quot;:null}"><path d="M329.96706,40.24528l8,16h-16z" fill="none" stroke="#000000" stroke-width="4" stroke-linejoin="round"/><path d="M329.96706,40.24528l8,16h-16z" fill="#b3b3b3" stroke="none" stroke-width="1" stroke-linejoin="miter"/></g><g data-paper-data="{&quot;index&quot;:null}"><path d="M236.38215,101.26415v16l-16,-8z" fill="none" stroke="#000000" stroke-width="4" stroke-linejoin="round"/><path d="M236.38215,101.26415v16l-16,-8z" fill="#b3b3b3" stroke="none" stroke-width="1" stroke-linejoin="miter"/></g><g data-paper-data="{&quot;index&quot;:null}"><path d="M236.38215,60.18868v16l-16,-8z" fill="none" stroke="#000000" stroke-width="4" stroke-linejoin="round"/><path d="M236.38215,60.18868v16l-16,-8z" fill="#b3b3b3" stroke="none" stroke-width="1" stroke-linejoin="miter"/></g><g data-paper-data="{&quot;index&quot;:null}"><path d="M236.38215,82.18868v16l-16,-8z" fill="none" stroke="#000000" stroke-width="4" stroke-linejoin="round"/><path d="M236.38215,82.18868v16l-16,-8z" fill="#b3b3b3" stroke="none" stroke-width="1" stroke-linejoin="miter"/></g><g><path d="M239.00008,181v-122h122v122z" fill="none" stroke="#000000" stroke-width="4" stroke-linejoin="round"/><path d="M239.00008,181v-122h122v122z" fill="#b5ad39" stroke="none" stroke-width="1" stroke-linejoin="miter"/></g><path d="M248.00014,172.00005v-14h44v14z" fill="#c5bc3a" stroke="none" stroke-width="1" stroke-linejoin="miter"/><path d="M308.00014,172.00005v-14h44v14z" fill="#c5bc3a" stroke="none" stroke-width="1" stroke-linejoin="miter"/><path d="M248.00014,82.00001v-14h44v14z" fill="#c5bc3a" stroke="none" stroke-width="1" stroke-linejoin="miter"/><path d="M308.00014,82.00001v-14h44v14z" fill="#c5bc3a" stroke="none" stroke-width="1" stroke-linejoin="miter"/><path d="M248.00014,142.00005v-14h14v14z" fill="#c5bc3a" stroke="none" stroke-width="1" stroke-linejoin="miter"/><path d="M338.0001,142.00005v-14h14v14z" fill="#c5bc3a" stroke="none" stroke-width="1" stroke-linejoin="miter"/><path d="M248.00014,112.00005v-14h14v14z" fill="#c5bc3a" stroke="none" stroke-width="1" stroke-linejoin="miter"/><path d="M338.0001,112.00005v-14h14v14z" fill="#c5bc3a" stroke="none" stroke-width="1" stroke-linejoin="miter"/><path d="M278.00008,142v-44h44v44z" fill="#ffffff" stroke="none" stroke-width="1" stroke-linejoin="miter"/><path d="M293.00008,127v-14h14v14z" fill="#000000" stroke="none" stroke-width="1" stroke-linejoin="miter"/></g></g></svg>