<svg version="1.1" xmlns="http://www.w3.org/2000/svg" xmlns:xlink="http://www.w3.org/1999/xlink" width="66" height="63.50006" viewBox="0,0,66,63.50006"><g transform="translate(-207,-149.00001)"><g data-paper-data="{&quot;isPaintingLayer&quot;:true}" fill-rule="nonzero" stroke-linecap="butt" stroke-miterlimit="10" stroke-dasharray="" stroke-dashoffset="0" style="mix-blend-mode: normal"><path d="M239.58798,203.72377l31.41202,6.7763l-11.67,-1l-9.88,1l-4.7,-1l-18.91,1l-6.09,-1l-10.75,1z" fill="none" stroke="#000000" stroke-width="4" stroke-linejoin="round"/><path d="M209,149.00001h62v62l-11.67,-1l-9.88,1l-4.7,-1l-18.91,1l-6.09,-1l-10.75,1z" fill="#cdcdcd" stroke="none" stroke-width="1" stroke-linejoin="miter"/><path d="M218,157.50001h44v44l-18,-2l-9,-3l-10,4l-7,1z" fill="#e8e8e8" stroke="none" stroke-width="1" stroke-linejoin="miter"/><path d="M244,202.50007l2,2l-1,6" fill="none" stroke="#000000" stroke-width="2" stroke-linejoin="round"/><path d="M225,207.50007l1,4" fill="none" stroke="#000000" stroke-width="2" stroke-linejoin="round"/><path d="M236,211.50007l-2,-13l4,-6" fill="none" stroke="#000000" stroke-width="2" stroke-linejoin="round"/><path d="M259,210.50007l1,-4" fill="none" stroke="#000000" stroke-width="2" stroke-linejoin="round"/><path d="M230,196.50007l4,2" fill="none" stroke="#000000" stroke-width="2" stroke-linejoin="round"/><path d="M217.55,210.50007l1.02,-4" fill="none" stroke="#000000" stroke-width="2" stroke-linejoin="round"/><path d="M218,188.66944l22.2541,-2.71038l21.7459,2.71038v12.8306l-18,-2l-9,-3l-10,4l-7,1z" fill="#ffffff" stroke="none" stroke-width="1" stroke-linejoin="miter"/><path d="M224,202.00014v-9h9v9z" fill="#000000" stroke="none" stroke-width="1" stroke-linejoin="miter"/><path d="M247,202.00014v-9h9v9z" fill="#000000" stroke="none" stroke-width="1" stroke-linejoin="miter"/></g></g></svg>