<svg version="1.1" xmlns="http://www.w3.org/2000/svg" xmlns:xlink="http://www.w3.org/1999/xlink" width="49.83699" height="31.04867" viewBox="0,0,49.83699,31.04867"><g transform="translate(-211.2108,-148.90548)"><g data-paper-data="{&quot;isPaintingLayer&quot;:true}" fill-rule="nonzero" stroke-linecap="butt" stroke-miterlimit="10" stroke-dasharray="" stroke-dashoffset="0" style="mix-blend-mode: normal"><g><path d="M246.65862,175.0693l-9.35689,-11.72178l21.74606,-2.1233z" fill="none" stroke="#000000" stroke-width="4" stroke-linejoin="round"/><path d="M246.65862,175.0693l-9.52013,-2.2957l0.05213,-9.31497l21.85717,-2.23441z" fill="#7f7f7f" stroke="none" stroke-width="1" stroke-linejoin="miter"/></g><g stroke="#000000" stroke-width="2" stroke-linejoin="miter"><path d="M229.94448,178.95415c0.00959,-0.0159 -5.25768,-4.21606 -5.25768,-4.21606l7.35469,-4.87318c0,0 -2.12584,9.13704 -2.09701,9.08924z" fill="#515151"/><path d="M224.68681,174.7381c0,0 -12.58508,-9.9076 -12.47529,-10.00374c0.12701,-0.11122 24.26921,-14.77532 24.13934,-14.82888c-0.03909,-0.01613 -4.19035,19.88058 -4.19035,19.88058z" fill="#252525"/></g><path d="M229.9676,178.94763c-0.01293,-0.0579 6.54437,-6.64702 6.54437,-6.64702l19.39229,-0.66557c0,0 2.35929,7.32557 2.39362,7.31259c0.04118,-0.01558 -28.30645,0.10671 -28.33028,0z" fill="#515151" stroke="#000000" stroke-width="2" stroke-linejoin="miter"/><g><path d="M236.19837,151.97513c-0.03127,-0.04209 13.66812,6.2763 13.66812,6.2763l-13.19047,14.03548c0,0 -0.44316,-20.26536 -0.47765,-20.31178z" fill="#252525" stroke="#000000" stroke-width="2" stroke-linejoin="miter"/><g><path d="M240.40243,163.07712l-3.52391,-3.54712l3.54712,-3.52391l3.52391,3.54712z" fill="#ffffff" stroke="#ffffff" stroke-width="2" stroke-linejoin="round"/><path d="M241.1165,160.95813l-2.11435,-2.12827l2.12827,-2.11435l2.11435,2.12827z" fill="#000000" stroke="none" stroke-width="1" stroke-linejoin="miter"/></g></g></g></g></svg>