<svg version="1.1" xmlns="http://www.w3.org/2000/svg" xmlns:xlink="http://www.w3.org/1999/xlink" width="153" height="41" viewBox="0,0,153,41"><g transform="translate(-163.5,-159.5)"><g data-paper-data="{&quot;isPaintingLayer&quot;:true}" fill-rule="nonzero" stroke="none" stroke-width="1" stroke-linecap="butt" stroke-linejoin="miter" stroke-miterlimit="10" stroke-dasharray="" stroke-dashoffset="0" style="mix-blend-mode: normal"><path d="M310.15,200.5h-140.3c-3.50245,-0.01098 -6.33902,-2.84755 -6.35,-6.35v-26.3c0.01098,-3.50245 2.84755,-6.33902 6.35,-6.35h140.3c3.50245,0.01098 6.33902,2.84755 6.35,6.35v26.3c-0.01098,3.50245 -2.84755,6.33902 -6.35,6.35z" fill="#000000" opacity="0.1"/><path d="M310.15,198.5h-140.3c-3.50245,-0.01098 -6.33902,-2.84755 -6.35,-6.35v-26.3c0.01098,-3.50245 2.84755,-6.33902 6.35,-6.35h140.3c3.50245,0.01098 6.33902,2.84755 6.35,6.35v26.3c-0.01098,3.50245 -2.84755,6.33902 -6.35,6.35z" fill="#ffff87" opacity="0.95"/><path d="M209.55,184.5v-11.28h2.87v8.86h4.71v2.42z" fill="#000000"/><path d="M219.5,184.5v-11.28h8.23v2.28h-5.43v2.17h4.36v2.28h-4.36v2.2h5.42v2.35z" fill="#000000"/><path d="M236.5,184.5h-3.55l-3.8,-11.25h3l2.66,8.48l2.65,-8.48h3z" fill="#000000"/><path d="M242.22,184.5v-11.28h8.28v2.28h-5.47v2.17h4.36v2.28h-4.36v2.2h5.47v2.35z" fill="#000000"/><path d="M252.97,184.5v-11.28h2.86v8.86h4.72v2.42z" fill="#000000"/><path d="M268.09,181.32c0,-0.75 -0.81,-1 -2.3,-1.42c-1.64,-0.45 -3.62,-1.21 -3.62,-3.46c0,-2.09 1.53,-3.47 4.32,-3.47c1.4661,-0.03543 2.91643,0.30907 4.21,1l-0.56,2.36c-1.11674,-0.60868 -2.35909,-0.95093 -3.63,-1c-1,0 -1.48,0.34 -1.48,1c0,0.66 1,1 2.38,1.41c1.73,0.46 3.53,1.26 3.53,3.4c0,2.14 -1.66,3.65 -4.61,3.65c-1.50644,0.0243 -2.99609,-0.31893 -4.34,-1l0.51,-2.45c1.18256,0.64236 2.50431,0.98567 3.85,1c1.04,0.04 1.74,-0.33 1.74,-1.02z" fill="#000000"/></g></g></svg>