<svg version="1.1" xmlns="http://www.w3.org/2000/svg" xmlns:xlink="http://www.w3.org/1999/xlink" width="51.28178" height="56.7639" viewBox="0,0,51.28178,56.7639"><g transform="translate(-214.11544,-128.79306)"><g data-paper-data="{&quot;isPaintingLayer&quot;:true}" fill-rule="nonzero" stroke-linecap="butt" stroke-miterlimit="10" stroke-dasharray="" stroke-dashoffset="0" style="mix-blend-mode: normal"><g data-paper-data="{&quot;index&quot;:null}" stroke-linejoin="miter"><path d="M252.10189,173.41642c-2.11567,1.60745 -5.29388,0.18544 -7.09873,-3.17614c-1.80484,-3.36158 -1.55288,-7.38977 0.5628,-8.99722c2.11568,-1.60746 5.29388,-0.18546 7.09873,3.17613c1.80484,3.36158 1.55289,7.38978 -0.56279,8.99723z" fill="#ffffff" stroke="#000000" stroke-width="2"/><path d="M249.12257,156.54652c0.29313,-1.87874 0.43686,-3.85754 0.51016,-5.80855c0.09014,-2.39924 0.45949,-4.66026 0.3959,-7.12467c-0.05158,-1.99874 -0.4295,-3.89297 -0.7056,-5.91073c-0.47745,-2.26278 -1.30605,-4.24881 -2.35573,-6.30364l-0.01414,-0.09181l-0.01986,0.00711l-0.36147,-0.98726c-0.14497,-0.3776 -0.12635,-0.7944 0.07095,-1.03391c0.19731,-0.2395 0.5152,-0.23121 0.79053,-0.01184l0.72123,0.55056l-0.00429,0.01575c0.02557,0.01449 0.0511,0.02952 0.07658,0.0451c0.2857,0.17473 0.49054,0.58319 0.75591,0.83149c0.98385,0.92057 2.02904,1.93452 2.8181,3.23733c1.16766,1.92791 1.73871,4.10785 2.44274,6.23369c0.37515,1.13279 0.80883,2.13146 1.06066,3.30141c0.47331,2.19888 0.48963,4.29911 0.86106,6.44373c-0.01182,1.1131 0.14629,2.34359 0.0194,3.40854c-0.30492,2.55899 -0.92644,4.85507 -1.78226,6.99649c-0.30799,0.77064 -0.30196,1.17361 -0.73607,1.80977c-1.34147,1.96581 -3.74884,1.00284 -5.08785,-1.6821c-0.20323,-0.40748 -0.09713,-1.46391 -0.09698,-1.8636c0,0 0.52767,-2.29022 0.64102,-2.06285z" fill="#ffffff" stroke="#000000" stroke-width="1"/><path d="M252.62381,157.14882c0.47127,-1.43486 0.82334,-2.98004 1.11062,-4.51755c0.35328,-1.89077 0.93497,-3.61419 1.16124,-5.58838c0.18352,-1.60114 0.06963,-3.18614 0.05894,-4.84855c-0.15878,-1.89872 -0.65634,-3.64933 -1.3394,-5.50009l-0.00188,-0.07597l-0.01819,0.00158l-0.20323,-0.85989c-0.0836,-0.33027 -0.01963,-0.6581 0.18034,-0.80817c0.19997,-0.15008 0.47707,-0.07819 0.6928,0.15291l0.56785,0.58623l-0.00557,0.01165c0.02071,0.01677 0.04132,0.03397 0.06182,0.0516c0.2299,0.19771 0.36235,0.56484 0.56605,0.81693c0.75523,0.93462 1.55344,1.95614 2.09457,3.15493c0.80077,1.77399 1.05091,3.62601 1.42352,5.46229c0.19856,0.97849 0.46363,1.86226 0.55008,2.84501c0.16246,1.84703 -0.0635,3.5217 0.01605,5.30463c-0.13765,0.88337 -0.14012,1.89502 -0.37292,2.71643c-0.5594,1.97377 -1.36566,3.67332 -2.35916,5.20168c-0.35753,0.55001 -0.39836,0.87192 -0.85083,1.28902c-1.39818,1.28888 -3.42587,-0.15456 -4.28993,-2.56616c-0.13114,-0.36602 -0.32868,-0.73172 -0.37103,-1.10512c-0.03957,-0.34882 0.09169,-0.63605 0.13753,-0.95409c0,0 1.11756,-0.9751 1.1907,-0.7709z" fill="#ffffff" stroke="#000000" stroke-width="1"/><path d="M255.5419,157.20672c0.57925,-0.90233 1.07768,-1.91277 1.5228,-2.93389c0.54739,-1.25574 1.25573,-2.33562 1.71228,-3.68232c0.37028,-1.09222 0.49848,-2.24708 0.72064,-3.43124c0.13554,-1.38905 -0.02268,-2.75722 -0.3166,-4.24283l0.00904,-0.05446l-0.01489,-0.00341l-0.04453,-0.66178c-0.02157,-0.25556 0.07553,-0.47263 0.25762,-0.52944c0.18209,-0.05682 0.39558,0.06333 0.53747,0.28135l0.37656,0.55817l-0.00611,0.00689c0.01437,0.01709 0.02861,0.03445 0.0427,0.05209c0.15795,0.19781 0.21379,0.49176 0.34308,0.72168c0.4793,0.85248 0.98119,1.77742 1.25116,2.76428c0.39949,1.46037 0.3441,2.83897 0.38968,4.23692c0.02428,0.74492 0.11537,1.4391 0.04864,2.15909c-0.12539,1.35321 -0.5401,2.48709 -0.72346,3.77408c-0.23364,0.59352 -0.37607,1.31191 -0.67785,1.83767c-0.72513,1.26337 -1.61128,2.27032 -2.62464,3.10894c-0.36469,0.30179 -0.4423,0.52041 -0.86509,0.70406c-1.30647,0.56754 -2.74131,-0.96371 -3.10333,-2.89301c-0.05495,-0.29281 -0.16349,-0.60195 -0.1458,-0.87789c0.01653,-0.25778 0.16224,-0.4292 0.24337,-0.64381c0,0 1.03662,-0.41451 1.06724,-0.25113z" fill="#ffffff" stroke="#000000" stroke-width="1"/><path d="M255.39928,161.07019c0.83252,-0.49726 1.60985,-1.12439 2.33499,-1.78559c0.89176,-0.81311 1.90367,-1.40116 2.72543,-2.33421c0.6665,-0.75674 1.0997,-1.6801 1.63742,-2.58444c0.5018,-1.11931 0.69523,-2.35833 0.77934,-3.76081l0.0235,-0.04214l-0.01445,-0.00988l0.12657,-0.58433c0.04437,-0.2277 0.20107,-0.3671 0.40365,-0.33027c0.20258,0.03682 0.39143,0.23904 0.48091,0.49106l0.24282,0.65146l-0.00809,0.00302c0.01036,0.02129 0.02052,0.04272 0.03045,0.06433c0.11131,0.24235 0.0923,0.51874 0.16568,0.77503c0.27208,0.95013 0.54854,1.97255 0.56972,2.93917c0.03135,1.43041 -0.38509,2.57834 -0.70245,3.78998c-0.16912,0.64563 -0.25613,1.27934 -0.51258,1.86116c-0.482,1.09355 -1.20518,1.86498 -1.72969,2.87503c-0.39562,0.39604 -0.72973,0.94108 -1.17795,1.24755c-1.07704,0.73642 -2.25327,1.17919 -3.51682,1.41906c-0.45474,0.08633 -0.59174,0.23616 -1.07559,0.19471c-1.49517,-0.12808 -2.57566,-2.1033 -2.44612,-3.91546c0.01965,-0.27503 -0.0117,-0.58904 0.07846,-0.81571c0.08423,-0.21175 0.27917,-0.28953 0.41876,-0.43432c0,0 1.17699,0.13212 1.16599,0.28555z" fill="#ffffff" stroke="#000000" stroke-width="1"/><path d="M254.77638,148.16706c0.12224,0.17363 0.139,0.41428 0.03747,0.53755c-0.10155,0.12327 -0.28295,0.08244 -0.40518,-0.09118c-0.12224,-0.17361 -0.13901,-0.41428 -0.03747,-0.53754c0.10155,-0.12327 0.28295,-0.08244 0.40519,0.09119z" fill="#000000" stroke="none" stroke-width="0.5"/><path d="M258.34397,152.14459c-0.10155,0.12327 -0.28295,0.08243 -0.40519,-0.09119c-0.12224,-0.17362 -0.13902,-0.41428 -0.03747,-0.53754c0.10155,-0.12327 0.28295,-0.08244 0.40518,0.09118c0.12224,0.17362 0.13902,0.41429 0.03747,0.53755z" fill="#000000" stroke="none" stroke-width="0.5"/><path d="M260.28321,157.0784c0.12223,0.17362 0.13901,0.41429 0.03748,0.53756c-0.10155,0.12327 -0.28296,0.08243 -0.40519,-0.09119c-0.12223,-0.17362 -0.13902,-0.41428 -0.03747,-0.53754c0.10155,-0.12327 0.28295,-0.08243 0.40519,0.09119z" fill="#000000" stroke="none" stroke-width="0.5"/><path d="M245.19202,160.77347c0.54953,-1.69665 0.95824,-3.52266 1.2907,-5.33921c0.40884,-2.23389 1.08727,-4.27183 1.34623,-6.60331c0.21001,-1.89092 0.06991,-3.76077 0.05099,-5.72265c-0.19418,-2.23979 -0.78675,-4.30248 -1.59815,-6.48208l-0.00249,-0.08964l-0.02141,0.00198l-0.24259,-1.01344c-0.0997,-0.3892 -0.02562,-0.77658 0.20929,-0.95505c0.2349,-0.17848 0.56149,-0.09553 0.81641,0.17574l0.67092,0.68799l-0.00651,0.01379c0.02446,0.01967 0.04879,0.03981 0.07301,0.06049c0.27147,0.23179 0.42883,0.66415 0.66967,0.96027c0.89289,1.09788 1.83674,2.29804 2.47851,3.70916c0.94971,2.08819 1.25129,4.27224 1.69705,6.43689c0.23754,1.15347 0.55305,2.19469 0.65857,3.35393c0.19833,2.17876 -0.0614,4.15674 0.03905,6.26042c-0.15874,1.0435 -0.1578,2.23746 -0.42882,3.20848c-0.65125,2.33327 -1.59423,4.34458 -2.75835,6.15512c-0.41893,0.65156 -0.46578,1.03175 -0.99701,1.52711c-1.64158,1.53066 -3.99619,0.0564 -5.02284,-2.78387c-0.15582,-0.43107 0.09264,-1.39898 0.14543,-1.77463c0,0 0.84547,-2.02797 0.93237,-1.78747z" fill="#ffffff" stroke="#000000" stroke-width="1"/><path d="M248.72167,162.16738c0.67473,-1.23731 1.24108,-2.60649 1.73964,-3.98379c0.61312,-1.69374 1.43964,-3.17619 1.93281,-4.97835c0.39998,-1.46164 0.49131,-2.97839 0.69919,-4.54351c0.08635,-1.82227 -0.19601,-3.58539 -0.65638,-5.4865l0.00808,-0.07185l-0.01895,-0.00283l-0.09626,-0.8563c-0.04268,-0.3302 0.06642,-0.62324 0.29229,-0.71704c0.22587,-0.09379 0.50204,0.03929 0.69397,0.30752l0.50812,0.68528l-0.00728,0.00964c0.01915,0.02067 0.03813,0.04169 0.05694,0.06311c0.21094,0.24019 0.29911,0.61658 0.47589,0.9017c0.65539,1.05703 1.34364,2.20592 1.74357,3.46065c0.59181,1.85676 0.60577,3.65673 0.74804,5.47086c0.07582,0.96668 0.23267,1.86006 0.19238,2.80423c-0.07575,1.77453 -0.52917,3.29524 -0.68194,4.98993c-0.25821,0.79779 -0.39396,1.74813 -0.74208,2.46519c-0.83651,1.72303 -1.89135,3.12994 -3.11665,4.33168c-0.44096,0.43248 -0.52542,0.72542 -1.04672,1.01049c-1.6109,0.88095 -3.51089,-0.95516 -4.08398,-3.42624c-0.08698,-0.37504 -0.24245,-0.76548 -0.23693,-1.12647c0.00517,-0.33723 0.17827,-0.5762 0.2674,-0.8643c0,0 1.28035,-0.65238 1.32884,-0.44315z" fill="#ffffff" stroke="#000000" stroke-width="1"/><path d="M251.79873,162.82718c0.7159,-0.71121 1.36269,-1.54315 1.95597,-2.39775c0.72958,-1.05095 1.6019,-1.89856 2.24981,-3.05646c0.52547,-0.93912 0.8097,-1.99433 1.19461,-3.05488c0.32262,-1.2736 0.33968,-2.59704 0.23235,-4.06294l0.01648,-0.04905l-0.01489,-0.00673l0.04124,-0.63257c0.01142,-0.24531 0.14009,-0.42639 0.33526,-0.43675c0.19517,-0.01036 0.39941,0.15305 0.51696,0.39152l0.31464,0.61368l-0.0072,0.00503c0.01256,0.01947 0.02496,0.03916 0.03715,0.05906c0.13677,0.22328 0.15562,0.51276 0.2586,0.75944c0.38179,0.9146 0.77732,1.90267 0.92566,2.8941c0.2195,1.46713 -0.01912,2.74988 -0.15624,4.07466c-0.07306,0.70593 -0.07058,1.37996 -0.23416,2.04095c-0.30743,1.24231 -0.88421,2.21009 -1.24267,3.37646c-0.31897,0.50265 -0.56039,1.14423 -0.94067,1.56709c-0.91379,1.0161 -1.95978,1.75311 -3.11474,2.30181c-0.41564,0.19745 -0.52441,0.3846 -0.9844,0.45729c-1.42139,0.22462 -2.69872,-1.55389 -2.81784,-3.45295c-0.01808,-0.28822 -0.08926,-0.60447 -0.03468,-0.85966c0.05097,-0.23839 0.22374,-0.36508 0.33562,-0.54763c0,0 1.12309,-0.14454 1.13315,0.01625z" fill="#ffffff" stroke="#000000" stroke-width="1"/><path d="M251.14298,166.4249c0.92359,-0.27059 1.8074,-0.67632 2.64191,-1.12639c1.02625,-0.55348 2.1467,-0.867 3.11661,-1.54977c0.78665,-0.55375 1.35476,-1.31926 2.02809,-2.04218c0.66462,-0.93348 1.02716,-2.05238 1.29853,-3.35078l0.02978,-0.03405l-0.0136,-0.0127l0.2074,-0.51933c0.0757,-0.20353 0.25559,-0.29752 0.45955,-0.21501c0.20397,0.08251 0.37199,0.31722 0.43105,0.57527l0.16451,0.66975l-0.00874,0.00092c0.00789,0.02244 0.01554,0.045 0.02293,0.06766c0.08283,0.25411 0.02684,0.50943 0.06873,0.76766c0.15533,0.95742 0.30568,1.98383 0.20023,2.8974c-0.15604,1.35193 -0.73644,2.33249 -1.22311,3.39637c-0.25932,0.5669 -0.43245,1.14198 -0.7734,1.62826c-0.64082,0.91395 -1.48783,1.4681 -2.16147,2.29351c-0.45995,0.27875 -0.8761,0.71208 -1.37846,0.89419c-1.20714,0.4376 -2.47784,0.57571 -3.81185,0.50249c-0.48008,-0.02635 -0.64103,0.08211 -1.13431,-0.07123c-1.52428,-0.47384 -2.37791,-2.58591 -2.00579,-4.25864c0.05648,-0.25388 0.0655,-0.55645 0.1883,-0.74821c0.11471,-0.17913 0.32589,-0.20617 0.48883,-0.30924c0,0 1.19581,0.40244 1.16426,0.54407z" fill="#ffffff" stroke="#000000" stroke-width="1"/><path d="M251.73906,153.89756c0.18048,0.07984 2.16959,1.76189 3.386,4.18377c1.10792,2.20589 1.4602,5.15436 1.4686,5.5393c0.04198,1.91946 -3.28482,8.87878 -4.49178,9.7958c-2.11567,1.60745 -5.29388,0.18544 -7.09873,-3.17614c-1.80485,-3.36158 -1.55288,-7.38977 0.5628,-8.99722c1.05248,-0.79967 4.8946,-7.91112 6.17311,-7.34551z" fill="#ffffff" stroke="#000000" stroke-width="0"/><path d="M252.26682,154.62157c-0.1209,0.09185 -0.30251,0.0106 -0.40564,-0.18149c-0.10314,-0.19209 -0.08874,-0.42228 0.03216,-0.51413c0.1209,-0.09186 0.30251,-0.01059 0.40564,0.18149c0.10314,0.19209 0.08874,0.42228 -0.03216,0.51413z" fill="#000000" stroke="none" stroke-width="0.5"/><path d="M255.45257,158.68953c-0.12091,0.09186 -0.30251,0.01059 -0.40564,-0.18149c-0.10314,-0.19209 -0.08874,-0.42227 0.03216,-0.51413c0.1209,-0.09186 0.30251,-0.01059 0.40564,0.18149c0.10314,0.19209 0.08874,0.42226 -0.03216,0.51413z" fill="#000000" stroke="none" stroke-width="0.5"/><path d="M256.80177,163.78557c0.10313,0.19209 0.08873,0.42228 -0.03216,0.51413c-0.12089,0.09185 -0.3025,0.0106 -0.40563,-0.18149c-0.10314,-0.19209 -0.08873,-0.42228 0.03216,-0.51413c0.12091,-0.09186 0.30251,-0.01059 0.40564,0.18149z" fill="#000000" stroke="none" stroke-width="0.5"/></g><g data-paper-data="{&quot;index&quot;:null}" stroke-linejoin="miter"><path d="M227.23239,164.57495c1.66742,-3.45076 4.78494,-5.03446 6.96317,-3.53729c2.17824,1.49716 2.59232,5.50825 0.9249,8.95901c-1.66742,3.45076 -4.78494,5.03447 -6.96317,3.5373c-2.17824,-1.49716 -2.59232,-5.50826 -0.92489,-8.95902z" fill="#ffffff" stroke="#000000" stroke-width="2"/><path d="M230.4534,156.5286c0.10406,-0.23295 0.72351,2.02781 0.72351,2.02781c0.01625,0.39926 0.16484,1.44914 -0.02175,1.86664c-1.22937,2.75089 -3.59536,3.83647 -5.01465,1.94157c-0.45929,-0.61322 -0.46951,-1.01608 -0.80825,-1.77011c-0.94124,-2.09527 -1.65467,-4.35707 -2.06241,-6.89775c-0.16969,-1.05734 -0.06136,-2.29467 -0.11802,-3.40601c0.28458,-2.16148 0.21622,-4.26036 0.60038,-6.48127c0.2044,-1.18166 0.59736,-2.20155 0.92644,-3.35244c0.61758,-2.15979 1.10016,-4.3668 2.18886,-6.35265c0.73571,-1.34196 1.73892,-2.40851 2.68462,-3.37864c0.25508,-0.26166 0.44324,-0.68023 0.7216,-0.86945c0.02483,-0.01687 0.04972,-0.03319 0.07468,-0.04898l-0.00493,-0.01552l0.69828,-0.58702c0.2662,-0.23327 0.58343,-0.25787 0.79017,-0.02875c0.20674,0.22913 0.24215,0.64454 0.11256,1.02919l-0.32129,1.00479l-0.02013,-0.00609l-0.01043,0.09245c-0.96573,2.1066 -1.71339,4.13312 -2.09912,6.41806c-0.19447,2.02985 -0.49563,3.94153 -0.46658,5.94084c0.03582,2.46511 0.49593,4.70483 0.68269,7.09695c0.15188,1.94522 0.37522,3.91459 0.74378,5.77633z" fill="#ffffff" stroke="#000000" stroke-width="1"/><path d="M226.98013,157.31002c0.06483,-0.20775 1.22051,0.70898 1.22051,0.70898c0.05862,0.31535 0.20131,0.59555 0.17586,0.94605c-0.02725,0.37519 -0.20984,0.75065 -0.32609,1.12302c-0.76593,2.45347 -2.73329,3.99951 -4.18194,2.78375c-0.4688,-0.39344 -0.52255,-0.71292 -0.90188,-1.244c-1.05405,-1.47576 -1.92797,-3.13217 -2.56634,-5.07518c-0.26567,-0.80862 -0.30892,-1.81909 -0.48203,-2.69448c0.0076,-1.78517 -0.28564,-3.44651 -0.19779,-5.29997c0.04674,-0.98616 0.2759,-1.88262 0.43481,-2.87029c0.29819,-1.85351 0.47339,-3.71646 1.20182,-5.52973c0.49224,-1.22531 1.24842,-2.28676 1.96517,-3.25919c0.19332,-0.26228 0.31083,-0.63583 0.53251,-0.84515c0.01977,-0.01866 0.03966,-0.0369 0.05968,-0.05472l-0.00603,-0.01135l0.54362,-0.61478c0.20617,-0.24194 0.48009,-0.32797 0.68589,-0.18832c0.2058,0.13965 0.28292,0.46387 0.21272,0.79808l-0.16836,0.86942l-0.01823,-0.00064l0.00119,0.07598c-0.60773,1.88391 -1.03419,3.65825 -1.11626,5.56316c0.05632,1.66123 0.00647,3.25044 0.25433,4.8405c0.30561,1.96052 0.95616,3.65231 1.38529,5.52298c0.34896,1.52117 0.76294,3.04667 1.29157,4.45586z" fill="#ffffff" stroke="#000000" stroke-width="1"/><path d="M224.06746,157.51769c0.02401,-0.16477 1.07624,0.19608 1.07624,0.19608c0.08969,0.21022 0.24217,0.37399 0.26906,0.63065c0.0288,0.27474 -0.06716,0.58913 -0.11026,0.88446c-0.28386,1.94589 -1.65544,3.54922 -2.98342,3.04934c-0.42975,-0.16177 -0.51608,-0.37617 -0.89255,-0.65892c-1.0461,-0.78572 -1.97189,-1.74613 -2.74719,-2.97096c-0.32265,-0.50972 -0.49388,-1.22006 -0.75121,-1.80098c-0.23505,-1.27624 -0.69502,-2.38767 -0.87483,-3.73304c-0.09568,-0.71583 -0.03267,-1.41396 -0.03845,-2.15935c-0.01084,-1.39884 -0.12174,-2.77317 0.21846,-4.25254c0.2299,-0.9997 0.69398,-1.94945 1.1384,-2.82565c0.11988,-0.23633 0.16381,-0.53283 0.31362,-0.73855c0.01336,-0.01834 0.02689,-0.03642 0.04056,-0.05422l-0.00638,-0.00657l0.35366,-0.57693c0.13295,-0.22507 0.34137,-0.35607 0.52556,-0.30866c0.18419,0.0474 0.28994,0.25926 0.27869,0.51566l-0.0178,0.66338l-0.01474,0.00417l0.01122,0.05394c-0.23372,1.49916 -0.33662,2.87405 -0.14523,4.25469c0.26965,1.17154 0.44428,2.31862 0.85819,3.3907c0.51035,1.32185 1.26148,2.36426 1.8589,3.59059c0.48582,0.99722 1.02445,1.98101 1.63947,2.85267z" fill="#ffffff" stroke="#000000" stroke-width="1"/><path d="M224.3657,161.36977c-0.01717,-0.1527 1.15326,-0.34512 1.15326,-0.34512c0.14528,0.13747 0.34315,0.20516 0.43583,0.41237c0.0992,0.22181 0.08055,0.53711 0.11127,0.81085c0.20245,1.80364 -0.79728,3.83228 -2.2857,4.03699c-0.48166,0.06625 -0.62457,-0.0764 -1.08229,-0.13928c-1.27188,-0.17476 -2.46471,-0.55667 -3.5703,-1.23704c-0.46011,-0.28314 -0.81583,-0.81046 -1.22701,-1.18578c-0.56467,-0.98208 -1.31819,-1.71557 -1.84377,-2.78324c-0.27964,-0.56807 -0.39209,-1.19665 -0.58706,-1.83293c-0.36587,-1.1941 -0.82814,-2.31946 -0.85449,-3.75c-0.01781,-0.9667 0.21715,-2.00226 0.45063,-2.96538c0.06298,-0.25979 0.03284,-0.53492 0.13426,-0.78273c0.00904,-0.02209 0.01833,-0.04404 0.02782,-0.06582l-0.00821,-0.00259l0.2163,-0.66326c0.07923,-0.25636 0.25972,-0.46805 0.46061,-0.51524c0.20088,-0.04719 0.36304,0.08401 0.41654,0.3092l0.14999,0.57722l-0.01404,0.01061l0.02518,0.04089c0.14057,1.39672 0.38374,2.62453 0.93012,3.71692c0.57361,0.8758 1.04357,1.77595 1.73987,2.49768c0.85852,0.88989 1.89306,1.42537 2.81665,2.19187c0.75103,0.62329 1.55283,1.20986 2.40449,1.66386z" fill="#ffffff" stroke="#000000" stroke-width="1"/><path d="M224.46778,148.44807c0.1151,-0.17972 0.29467,-0.22981 0.40108,-0.11189c0.1064,0.11791 0.09935,0.3592 -0.01576,0.53891c-0.1151,0.17971 -0.29467,0.2298 -0.40108,0.11188c-0.1064,-0.11791 -0.09935,-0.35918 0.01576,-0.53892z" fill="#000000" stroke="none" stroke-width="0.5"/><path d="M221.08006,152.06572c0.1151,-0.17971 0.29467,-0.2298 0.40108,-0.11188c0.10641,0.11792 0.09935,0.35919 -0.01576,0.53891c-0.1151,0.17971 -0.29467,0.22981 -0.40108,0.11189c-0.10641,-0.11792 -0.09935,-0.3592 0.01577,-0.53892z" fill="#000000" stroke="none" stroke-width="0.5"/><path d="M219.326,157.63293c0.1151,-0.17971 0.29467,-0.22981 0.40108,-0.11189c0.10641,0.11792 0.09935,0.3592 -0.01576,0.53891c-0.1151,0.17971 -0.29467,0.22981 -0.40108,0.11189c-0.1064,-0.11791 -0.09935,-0.35921 0.01576,-0.53892z" fill="#000000" stroke="none" stroke-width="0.5"/><path d="M234.55018,160.54939c0.07712,-0.24472 1.00344,1.73774 1.00344,1.73774c0.06786,0.37256 0.35509,1.3267 0.21681,1.76534c-0.91107,2.89004 -3.20375,4.48367 -4.9053,3.03886c-0.55063,-0.46755 -0.61276,-0.84496 -1.05752,-1.47434c-1.23587,-1.74889 -2.25893,-3.70972 -3.00355,-6.00712c-0.30989,-0.95611 -0.35708,-2.14888 -0.55771,-3.18314c0.01554,-2.10666 -0.32365,-4.06925 -0.21336,-6.25594c0.05868,-1.16346 0.33188,-2.2198 0.52267,-3.38427c0.35802,-2.18528 0.57123,-4.38256 1.43577,-6.51735c0.58421,-1.44261 1.47867,-2.68998 2.32636,-3.83257c0.22864,-0.30818 0.36841,-0.74818 0.63025,-0.99365c0.02336,-0.02189 0.04685,-0.04327 0.07049,-0.06417l-0.00706,-0.01344l0.64248,-0.72174c0.2437,-0.28409 0.56661,-0.38372 0.80846,-0.21749c0.24185,0.16623 0.33146,0.5494 0.24756,0.94332l-0.20147,1.02484l-0.02147,-0.00088l0.00112,0.08969c-0.72267,2.21901 -1.23146,4.30998 -1.33515,6.55742c0.0602,1.96084 -0.00439,3.83593 0.28163,5.71411c0.35267,2.31577 1.11254,4.31678 1.61099,6.52737c0.40534,1.7976 0.88723,3.60073 1.50457,5.26741z" fill="#ffffff" stroke="#000000" stroke-width="1"/><path d="M231.08047,162.12297c0.04,-0.2115 1.34528,0.37446 1.34528,0.37446c0.10065,0.28323 0.28321,0.51306 0.30196,0.84967c0.02007,0.36034 -0.11951,0.75835 -0.19127,1.13747c-0.47287,2.49794 -2.29683,4.42971 -3.94154,3.63237c-0.53225,-0.25803 -0.62843,-0.54632 -1.08635,-0.95571c-1.27245,-1.13758 -2.38289,-2.48889 -3.28796,-4.16718c-0.37666,-0.69845 -0.55058,-1.64083 -0.84067,-2.42453c-0.22092,-1.6851 -0.73517,-3.18094 -0.88237,-4.94976c-0.07832,-0.94113 0.04237,-1.84163 0.07913,-2.8112c0.06899,-1.81955 0.01038,-3.61837 0.52671,-5.5036c0.34893,-1.27396 0.99013,-2.457 1.60221,-3.54658c0.1651,-0.29388 0.238,-0.67441 0.43904,-0.92518c0.01793,-0.02237 0.03604,-0.04435 0.05433,-0.06597l-0.00765,-0.00926l0.47996,-0.71064c0.18092,-0.2778 0.45143,-0.42493 0.68085,-0.34282c0.22942,0.0821 0.35021,0.36924 0.32089,0.70129l-0.06164,0.86035l-0.01881,0.00379l0.01096,0.07136c-0.38324,1.92278 -0.59423,3.69858 -0.43451,5.51453c0.27075,1.55283 0.42312,3.06331 0.8816,4.50291c0.5653,1.77498 1.45069,3.21345 2.13144,4.87395c0.55357,1.35027 1.17451,2.68896 1.8984,3.89035z" fill="#ffffff" stroke="#000000" stroke-width="1"/><path d="M228.03325,162.94013c0.00357,-0.16114 1.13129,-0.07441 1.13129,-0.07441c0.11912,0.17662 0.29681,0.29431 0.35734,0.52984c0.0648,0.25212 0.00646,0.57169 0.00002,0.86054c-0.04243,1.9032 -1.24672,3.74545 -2.67566,3.59405c-0.46243,-0.049 -0.57863,-0.23037 -1.00179,-0.40628c-1.17585,-0.48885 -2.25045,-1.17139 -3.20423,-2.13951c-0.39692,-0.4029 -0.66395,-1.03143 -1.00284,-1.51718c-0.4051,-1.14676 -1.02028,-2.08393 -1.37747,-3.30917c-0.19005,-0.65191 -0.21475,-1.32537 -0.31618,-2.02682c-0.19036,-1.31637 -0.48045,-2.58554 -0.32033,-4.06242c0.1082,-0.99802 0.46349,-2.00538 0.80802,-2.93862c0.09293,-0.25172 0.10008,-0.54186 0.22771,-0.77193c0.01137,-0.02051 0.02296,-0.04082 0.03473,-0.06091l-0.00739,-0.00467l0.28957,-0.62918c0.10781,-0.24425 0.30524,-0.41799 0.50062,-0.41766c0.19538,0.00033 0.33121,0.17461 0.35251,0.4191l0.0667,0.6298l-0.01462,0.00748l0.01845,0.04816c-0.04813,1.46989 0.02226,2.79108 0.39588,4.0468c0.42725,1.03968 0.75372,2.07922 1.31649,2.99038c0.6939,1.12344 1.59947,1.92538 2.37064,2.93779c0.62709,0.82326 1.30675,1.62112 2.05056,2.29484z" fill="#ffffff" stroke="#000000" stroke-width="1"/><path d="M228.83333,166.50047c-0.03722,-0.13985 1.1411,-0.60327 1.1411,-0.60327c0.16692,0.09461 0.37897,0.11077 0.50077,0.28383c0.13038,0.18525 0.1516,0.48705 0.21826,0.73776c0.43917,1.65191 -0.32842,3.8056 -1.83199,4.35721c-0.48657,0.17852 -0.65172,0.07844 -1.13024,0.1294c-1.32964,0.14165 -2.60457,0.06891 -3.82806,-0.30626c-0.50917,-0.15613 -0.94236,-0.56766 -1.41305,-0.8225c-0.70621,-0.78996 -1.57465,-1.30005 -2.25165,-2.18016c-0.3602,-0.46827 -0.55632,-1.03387 -0.83822,-1.58687c-0.52903,-1.03779 -1.14836,-1.98753 -1.35873,-3.33006c-0.14217,-0.90722 -0.03335,-1.94028 0.08322,-2.90468c0.03144,-0.26012 -0.03479,-0.5123 0.03771,-0.7704c0.00646,-0.02302 0.0132,-0.04594 0.02017,-0.06877l-0.00877,-0.00047l0.13734,-0.67752c0.04859,-0.2608 0.20697,-0.50391 0.4074,-0.5968c0.20042,-0.09289 0.3839,-0.00824 0.46773,0.19119l0.22811,0.50814l-0.01308,0.01338l0.03112,0.03248c0.32343,1.28313 0.7307,2.38226 1.43224,3.28065c0.70177,0.68761 1.30014,1.42317 2.10827,1.93595c0.9964,0.63227 2.12832,0.88794 3.17578,1.38816c0.85177,0.40676 1.75101,0.76668 2.68453,0.98958z" fill="#ffffff" stroke="#000000" stroke-width="1"/><path d="M227.73288,154.01668c1.25435,-0.63065 5.37908,6.27616 6.46268,7.02097c2.17824,1.49716 2.59232,5.50825 0.9249,8.95901c-1.66742,3.45076 -4.78494,5.03447 -6.96317,3.5373c-1.24264,-0.8541 -4.84646,-7.63542 -4.88191,-9.55504c-0.00712,-0.38498 0.22592,-3.34848 1.24375,-5.60896c1.11749,-2.48182 3.03668,-4.26425 3.21376,-4.35327z" fill="#ffffff" stroke="#000000" stroke-width="0"/><path d="M227.18201,154.2551c0.09529,-0.19719 0.27342,-0.28769 0.3979,-0.20213c0.12447,0.08555 0.14813,0.31476 0.05285,0.51195c-0.09529,0.19719 -0.27343,0.28767 -0.3979,0.20213c-0.12447,-0.08555 -0.14813,-0.31476 -0.05285,-0.51195z" fill="#000000" stroke="none" stroke-width="0.5"/><path d="M224.16363,158.4824c0.09529,-0.19719 0.27343,-0.28769 0.3979,-0.20213c0.12447,0.08555 0.14813,0.31476 0.05285,0.51195c-0.09529,0.19719 -0.27342,0.28769 -0.3979,0.20213c-0.12447,-0.08555 -0.14813,-0.31476 -0.05285,-0.51195z" fill="#000000" stroke="none" stroke-width="0.5"/><path d="M223.07413,164.15441c0.09529,-0.19719 0.27342,-0.28769 0.3979,-0.20213c0.12447,0.08555 0.14813,0.31476 0.05285,0.51195c-0.09529,0.19719 -0.27343,0.28767 -0.3979,0.20212c-0.12447,-0.08555 -0.14813,-0.31475 -0.05285,-0.51195z" fill="#000000" stroke="none" stroke-width="0.5"/></g><path d="M220.75343,165.31039c0,-10.62959 8.61699,-19.24657 19.24658,-19.24657c10.62959,0 19.24657,8.61698 19.24657,19.24657c0,10.62959 -8.61698,19.24658 -19.24657,19.24658c-10.62959,0 -19.24658,-8.61698 -19.24658,-19.24658z" fill="#00ffff" stroke="#000000" stroke-width="2" stroke-linejoin="miter"/><path d="M220.75343,165.31039h38.49315c0,0 -0.01482,0.87807 -0.04398,1.31144c-0.6741,10.01796 -9.01376,17.93514 -19.20259,17.93514c-10.28032,0 -18.67812,-8.06001 -19.2189,-18.20552c-0.01837,-0.34469 -0.02768,-1.04105 -0.02768,-1.04105z" fill="#0090ff" stroke="#000000" stroke-width="2" stroke-linejoin="miter"/><g><path d="M230.30513,163.50313v-6.84382l6.84382,1.66666v5.17715z" data-paper-data="{&quot;index&quot;:null}" fill="#ffffff" stroke="#ffffff" stroke-width="2" stroke-linejoin="round"/><path d="M231.6739,162.13438v-4.10629h4.10629v4.10629z" data-paper-data="{&quot;index&quot;:null}" fill="#000000" stroke="none" stroke-width="1" stroke-linejoin="miter"/></g><g><path d="M243.51772,163.50313v-5.17715l6.84382,-1.66666v6.84382z" fill="#ffffff" stroke="#ffffff" stroke-width="2" stroke-linejoin="round"/><path d="M244.88649,162.13438v-4.10629h4.10629v4.10629z" fill="#000000" stroke="none" stroke-width="1" stroke-linejoin="miter"/></g></g></g></svg>