<svg version="1.1" xmlns="http://www.w3.org/2000/svg" xmlns:xlink="http://www.w3.org/1999/xlink" width="40.67658" height="41.625" viewBox="0,0,40.67658,41.625"><g transform="translate(-220.34731,-157.84156)"><g data-paper-data="{&quot;isPaintingLayer&quot;:true}" fill-rule="nonzero" stroke-linecap="butt" stroke-miterlimit="10" stroke-dasharray="" stroke-dashoffset="0" style="mix-blend-mode: normal"><path d="M248.00258,178.72401c-0.45509,7.76183 -3.50072,12.1506 -8.00163,11.28539c-5.00102,0.86521 -7.60155,-3.4922 -8.00163,-11.28539c-0.40008,-8.21953 5.32108,-9.26029 8.00163,-6.94679c2.66054,-2.3135 8.38171,-0.16302 8.00163,6.94679z" fill="#7d4a1a" stroke="#000000" stroke-width="1" stroke-linejoin="round"/><path d="M241.43723,166.64326c0,1.42948 -1.33027,5.70539 -1.33027,5.70539" fill="none" stroke="#000000" stroke-width="1" stroke-linejoin="round"/><path d="M234.75348,177.63493c-0.62767,-0.739 -0.56498,-2.101 0.14002,-3.0421c0.70499,-0.9411 1.78533,-1.10493 2.413,-0.36592c0.62767,0.739 0.56498,2.10101 -0.14002,3.04211c-0.70499,0.9411 -1.78533,1.10493 -2.413,0.36592z" fill="#ffffff" stroke="none" stroke-width="1" stroke-linejoin="miter"/><path d="M220.34731,199.46656v-41.625h40.67658v41.625z" fill="none" stroke="none" stroke-width="0" stroke-linejoin="miter"/></g></g></svg>