<svg version="1.1" xmlns="http://www.w3.org/2000/svg" xmlns:xlink="http://www.w3.org/1999/xlink" width="55" height="84.12572" viewBox="0,0,55,84.12572"><defs><radialGradient cx="240" cy="123.37428" r="27.5" gradientUnits="userSpaceOnUse" id="color-1"><stop offset="0" stop-color="#ff0000" stop-opacity="0.59608"/><stop offset="1" stop-color="#ff0000" stop-opacity="0"/></radialGradient></defs><g transform="translate(-212.5,-95.87428)"><g data-paper-data="{&quot;isPaintingLayer&quot;:true}" fill-rule="nonzero" stroke-linecap="butt" stroke-miterlimit="10" stroke-dasharray="" stroke-dashoffset="0" style="mix-blend-mode: normal"><path d="M235.80001,141.25429v-11.76001h8.4v11.76001z" fill="#ff0000" stroke="#000000" stroke-width="2" stroke-linejoin="miter"/><path d="M231,123.37428c0,-4.97057 4.02943,-9 9,-9c4.97057,0 9,4.02943 9,9c0,4.97057 -4.02943,9 -9,9c-4.97057,0 -9,-4.02943 -9,-9z" fill="#ff0000" stroke="#000000" stroke-width="2" stroke-linejoin="miter"/><path d="M225,165v-14h18v14z" fill="#000000" stroke="none" stroke-width="1" stroke-linejoin="miter"/><path d="M261,165v14h-42v-14h32v-3c0,-1.10457 0.89543,-2 2,-2h3c1.10457,0 2,0.89543 2,2v3z" fill="#b4004c" stroke="#000000" stroke-width="2" stroke-linejoin="miter"/><g><g stroke="none" stroke-linejoin="miter"><path d="M261,165h-42v-22c0,-3.31371 2.68629,-6 6,-6h30c3.31371,0 6,2.68629 6,6z" fill="#9500ff" stroke-width="1"/><path d="M262,166h-44v-23c0,-3.86599 3.13401,-7 7,-7h30c3.86599,0 7,3.13401 7,7zM220,164h40v-21c0,-2.76143 -2.23858,-5 -5,-5h-30c-2.76143,0 -5,2.23857 -5,5z" fill="#000000" stroke-width="1"/><path d="M219.95358,142.98143c0,-2.76143 2.24721,-5.01418 5.00864,-5.01418h30.07557c2.76142,0 5.00864,2.25275 5.00864,5.01418l-0.0045,21.04582h-40.08384z" data-paper-data="{&quot;noHover&quot;:false,&quot;origItem&quot;:[&quot;Path&quot;,{&quot;applyMatrix&quot;:true,&quot;segments&quot;:[[220,164],[260,164],[[260,143],[0,0],[0,-2.76143]],[[255,138],[2.76142,0],[0,0]],[[225,138],[0,0],[-2.76143,0]],[[220,143],[0,-2.76143],[0,0]]],&quot;closed&quot;:true,&quot;fillColor&quot;:[0,0,0,1]}]}" fill="#b4004c" stroke-width="0.5"/></g><path d="M253,157h-10v-10l10,2z" fill="#ffffff" stroke="#ffffff" stroke-width="2" stroke-linejoin="round"/><path d="M247,156v-6h6v6z" fill="#000000" stroke="none" stroke-width="1" stroke-linejoin="miter"/></g><path d="M212.5,123.37428c0,-15.18782 12.31218,-27.5 27.5,-27.5c15.18782,0 27.5,12.31218 27.5,27.5c0,15.18782 -12.31218,27.5 -27.5,27.5c-15.18782,0 -27.5,-12.31218 -27.5,-27.5z" fill="url(#color-1)" stroke="#000000" stroke-width="0" stroke-linejoin="miter"/></g></g></svg>