<svg version="1.1" xmlns="http://www.w3.org/2000/svg" xmlns:xlink="http://www.w3.org/1999/xlink" width="56.29497" height="69.14823" viewBox="0,0,56.29497,69.14823"><g transform="translate(-205.70503,-127.98479)"><g data-paper-data="{&quot;isPaintingLayer&quot;:true}" fill-rule="nonzero" stroke-miterlimit="10" stroke-dasharray="" stroke-dashoffset="0" style="mix-blend-mode: normal"><path d="M247.72168,196.32085c0,0.63372 -0.93056,0.63372 -0.93056,0.63372l-0.43788,-0.01231c-3.70562,0.49435 -7.73355,-0.07122 -11.38122,-0.57221c-3.58327,-0.82036 -4.72968,-3.08518 -1.99906,-5.05157c-1.33414,-1.06745 -0.70021,-2.35681 0.76309,-3.44074c-3.01783,-0.85861 -3.16342,-3.38745 -0.33861,-4.87157c2.89615,-1.52161 9.56767,-1.81066 12.91211,-0.93385c0,0 0.864,0.23537 0.51839,0.82375c-0.34561,0.58839 -1.20959,0.35303 -1.20959,0.35303c-2.74774,-0.78765 -7.56324,-0.28002 -10.27873,0.42517c-2.16481,0.56217 -3.20809,2.79044 -0.45065,3.1439c0.21663,0 0.43308,0.00377 0.64942,0.01065c0.70933,-0.32996 1.47804,-0.61064 2.24746,-0.82002c1.73212,-0.39319 13.17968,-2.15224 10.41288,1.35541c-1.76659,2.23962 -8.64181,1.0513 -12.31823,0.76987c-1.45209,0.70582 -2.41645,1.60143 -1.35273,2.40304c4.28521,-1.54546 13.42118,-1.68019 14.07154,1.34717c-3.43783,0.88394 -9.04258,1.54995 -12.67603,0.66565c-0.6288,-0.15304 -1.16602,-0.32124 -1.61982,-0.50153c-1.30624,1.00958 -1.26444,2.55539 1.14622,3.09667c3.35087,0.45212 7.13673,1.02906 10.53854,0.55438l0.80286,-0.01231c0,0 0.93056,0 0.93056,0.63372zM236.14778,191.24711c0.13225,0.03835 0.2717,0.07619 0.41856,0.11345c2.32847,0.5908 5.31351,-0.10298 7.86211,-0.28481c-0.12134,-0.02133 -0.22,-0.03795 -0.28659,-0.04627c-2.39357,-0.29869 -5.13922,-0.14613 -7.51429,0.13977c-0.16489,0.01985 -0.32495,0.046 -0.47981,0.07785zM238.88733,187.09628c1.74256,0.1764 3.49219,0.33883 5.27323,0.14947c0.0498,-0.0053 2.77373,-0.4246 2.58843,-0.69738c-0.63888,-0.94056 -6.0394,0.15037 -7.86167,0.54791z" fill="#000000" stroke="none" stroke-width="0.5" stroke-linecap="butt" stroke-linejoin="miter"/><path d="M228.83333,184.21486v-5.26724h22.33333v5.26724z" fill="#0025ff" stroke="#000000" stroke-width="2" stroke-linecap="butt" stroke-linejoin="miter"/><g stroke-linecap="butt"><path d="M243.42072,139.83335h-8.26864l4.13432,-9.50894z" fill="none" stroke="#000000" stroke-width="4" stroke-linejoin="round"/><path d="M243.42072,139.83335h-8.26864l4.13432,-9.50894z" fill="#b3b3b3" stroke="none" stroke-width="1" stroke-linejoin="miter"/></g><g stroke-linecap="butt"><path d="M255.82369,139.83335h-8.26865l4.13432,-9.50894z" fill="none" stroke="#000000" stroke-width="4" stroke-linejoin="round"/><path d="M255.82369,139.83335h-8.26865l4.13432,-9.50894z" fill="#b3b3b3" stroke="none" stroke-width="1" stroke-linejoin="miter"/></g><g stroke-linecap="butt"><path d="M232.0661,139.49373h-8.26864l4.13432,-9.50894z" fill="none" stroke="#000000" stroke-width="4" stroke-linejoin="round"/><path d="M232.0661,139.49373h-8.26864l4.13432,-9.50894z" fill="#b3b3b3" stroke="none" stroke-width="1" stroke-linejoin="miter"/></g><g stroke-linecap="butt"><path d="M217.09858,145.13905l0.22383,8.26561l-9.61738,-3.87541z" fill="none" stroke="#000000" stroke-width="4" stroke-linejoin="round"/><path d="M217.09858,145.13905l0.22383,8.26561l-9.61738,-3.87541z" fill="#b3b3b3" stroke="none" stroke-width="1" stroke-linejoin="miter"/></g><g stroke-linecap="butt"><path d="M222.05663,139.09327l-5.44173,6.22561l-4.43858,-9.37079z" fill="none" stroke="#000000" stroke-width="4" stroke-linejoin="round"/><path d="M222.05663,139.09327l-5.44173,6.22561l-4.43858,-9.37079z" fill="#b3b3b3" stroke="none" stroke-width="1" stroke-linejoin="miter"/></g><g stroke-linecap="butt"><path d="M217.09858,154.83202l0.22383,8.26561l-9.61738,-3.87541z" fill="none" stroke="#000000" stroke-width="4" stroke-linejoin="round"/><path d="M217.09858,154.83202l0.22383,8.26561l-9.61738,-3.87541z" fill="#b3b3b3" stroke="none" stroke-width="1" stroke-linejoin="miter"/></g><path d="M225,165v-14h18v14z" fill="#000000" stroke="none" stroke-width="1" stroke-linecap="butt" stroke-linejoin="miter"/><path d="M261,165v14h-42v-14h32v-3c0,-1.10457 0.89543,-2 2,-2h3c1.10457,0 2,0.89543 2,2v3z" fill="#0025ff" stroke="#000000" stroke-width="2" stroke-linecap="butt" stroke-linejoin="miter"/><g stroke="none" stroke-linecap="butt" stroke-linejoin="miter"><path d="M261,165.14667h-42v-18.77333c0,-2.8277 2.68629,-5.12 6,-5.12h30c3.31371,0 6,2.2923 6,5.12z" fill="#9500ff" stroke-width="1"/><path d="M262,166h-44v-19.62667c0,-3.29898 3.13401,-5.97333 7,-5.97333h30c3.86599,0 7,2.67436 7,5.97333zM220,164.29333h40v-17.92c0,-2.35642 -2.23858,-4.26667 -5,-4.26667h-30c-2.76143,0 -5,1.91025 -5,4.26667z" fill="#000000" stroke-width="1"/><path d="M219.95268,146.35718c0,-2.35642 2.24569,-4.28025 5.00712,-4.28025h30.0804c2.76142,0 5.00712,1.92383 5.00712,4.28025l-0.0036,17.9604h-40.08745z" data-paper-data="{&quot;noHover&quot;:false,&quot;origItem&quot;:[&quot;Path&quot;,{&quot;applyMatrix&quot;:true,&quot;segments&quot;:[[220,164.29333],[260,164.29333],[[260,146.37333],[0,0],[0,-2.35642]],[[255,142.10666],[2.76142,0],[0,0]],[[225,142.10666],[0,0],[-2.76143,0]],[[220,146.37333],[0,-2.35642],[0,0]]],&quot;closed&quot;:true,&quot;fillColor&quot;:[0,0,0,1]}]}" fill="#00a2ff" stroke-width="0.5"/></g><path d="M242.9,158.06h10.4" fill="none" stroke="#000000" stroke-width="2" stroke-linecap="round" stroke-linejoin="miter"/></g></g></svg>