<svg version="1.1" xmlns="http://www.w3.org/2000/svg" xmlns:xlink="http://www.w3.org/1999/xlink" width="51" height="52.44644" viewBox="0,0,51,52.44644"><g transform="translate(-213.7619,-154.89883)"><g data-paper-data="{&quot;isPaintingLayer&quot;:true}" fill-rule="nonzero" stroke-linecap="butt" stroke-miterlimit="10" stroke-dasharray="" stroke-dashoffset="0" style="mix-blend-mode: normal"><g><path d="M232.7619,166.00883c0,6.89 -4,9.89 -9,9.89c-5,0 -9,-3 -9,-9.89c0,-6.11 6,-8.11 9,-6.11c3,-2 9,0 9,6.11z" fill="#ffff24" stroke="#000000" stroke-width="2" stroke-linejoin="round"/><path d="M225.2619,154.89883c0,1.25 -1.5,5 -1.5,5" fill="none" stroke="#000000" stroke-width="2" stroke-linejoin="round"/><path d="M216.7619,163.89883c0,-1.65685 1.34315,-3 3,-3c1.65685,0 3,1.34315 3,3c0,1.65685 -1.34315,3 -3,3c-1.65685,0 -3,-1.34315 -3,-3z" fill="#ffffff" stroke="none" stroke-width="1" stroke-linejoin="miter"/></g><g><path d="M263.76191,196.45527c0,6.89 -4,9.89 -9,9.89c-5,0 -9,-3 -9,-9.89c0,-6.11 6,-8.11 9,-6.11c3,-2 9,0 9,6.11z" fill="#ffff24" stroke="#000000" stroke-width="2" stroke-linejoin="round"/><path d="M256.26191,185.34527c0,1.25 -1.5,5 -1.5,5" fill="none" stroke="#000000" stroke-width="2" stroke-linejoin="round"/><path d="M247.76191,194.34527c0,-1.65685 1.34315,-3 3,-3c1.65685,0 3,1.34315 3,3c0,1.65685 -1.34315,3 -3,3c-1.65685,0 -3,-1.34315 -3,-3z" fill="#ffffff" stroke="none" stroke-width="1" stroke-linejoin="miter"/></g><g><path d="M249,180.61c0,6.89 -4,9.89 -9,9.89c-5,0 -9,-3 -9,-9.89c0,-6.11 6,-8.11 9,-6.11c3,-2 9,0 9,6.11z" fill="#ffff24" stroke="#000000" stroke-width="2" stroke-linejoin="round"/><path d="M241.5,169.5c0,1.25 -1.5,5 -1.5,5" fill="none" stroke="#000000" stroke-width="2" stroke-linejoin="round"/><path d="M233,178.5c0,-1.65685 1.34315,-3 3,-3c1.65685,0 3,1.34315 3,3c0,1.65685 -1.34315,3 -3,3c-1.65685,0 -3,-1.34315 -3,-3z" fill="#ffffff" stroke="none" stroke-width="1" stroke-linejoin="miter"/></g></g></g></svg>