<svg version="1.1" xmlns="http://www.w3.org/2000/svg" xmlns:xlink="http://www.w3.org/1999/xlink" width="70.46804" height="70.46804" viewBox="0,0,70.46804,70.46804"><g transform="translate(-204.76598,-144.76598)"><g data-paper-data="{&quot;isPaintingLayer&quot;:true}" fill-rule="nonzero" stroke-miterlimit="10" stroke-dasharray="" stroke-dashoffset="0" style="mix-blend-mode: normal"><path d="M206.76598,169.3934l22.62742,-22.62742l43.84062,43.84062l-22.62742,22.62742z" fill="#39b54a" stroke="#000000" stroke-width="4" stroke-linecap="butt" stroke-linejoin="round"/><path d="M206.76598,169.3934l22.62742,-22.62742l43.84062,43.84062l-22.62742,22.62742z" fill="#3967c4" stroke="none" stroke-width="0" stroke-linecap="butt" stroke-linejoin="round"/><path d="M219.4939,169.3934l9.89949,-9.89949l31.1127,31.1127l-9.89949,9.89949z" fill="#4f7bd2" stroke="none" stroke-width="1" stroke-linecap="butt" stroke-linejoin="miter"/><path d="M212.875,180c0,-14.98072 12.14428,-27.125 27.125,-27.125c14.98072,0 27.125,12.14428 27.125,27.125c0,14.98072 -12.14428,27.125 -27.125,27.125c-14.98072,0 -27.125,-12.14428 -27.125,-27.125z" fill="none" stroke="#000000" stroke-width="2.5" stroke-linecap="butt" stroke-linejoin="miter"/><path d="M246.375,157.75l-9.125,-4.94271l8.875,-4.80729" fill="none" stroke="#000000" stroke-width="2.5" stroke-linecap="round" stroke-linejoin="miter"/><path d="M217.85849,172.77838l-4.94271,9.125l-4.80729,-8.875" fill="none" stroke="#000000" stroke-width="2.5" stroke-linecap="round" stroke-linejoin="miter"/><path d="M233.88686,201.54488l9.125,4.94272l-8.875,4.80729" fill="none" stroke="#000000" stroke-width="2.5" stroke-linecap="round" stroke-linejoin="miter"/><path d="M262.15336,182.01651l4.94272,-9.125l4.80729,8.875" fill="none" stroke="#000000" stroke-width="2.5" stroke-linecap="round" stroke-linejoin="miter"/></g></g></svg>