<svg version="1.1" xmlns="http://www.w3.org/2000/svg" xmlns:xlink="http://www.w3.org/1999/xlink" width="36" height="58" viewBox="0,0,36,58"><g transform="translate(-207,-151)"><g data-paper-data="{&quot;isPaintingLayer&quot;:true}" fill-rule="nonzero" stroke-linecap="butt" stroke-miterlimit="10" stroke-dasharray="" stroke-dashoffset="0" style="mix-blend-mode: normal"><path d="M209,207v-54h32v54z" fill="none" stroke="#000000" stroke-width="4" stroke-linejoin="round"/><path d="M209,207v-54h32v54z" fill="#d23cfa" stroke="none" stroke-width="1" stroke-linejoin="miter"/><path d="M218,202v-44h14v44z" fill="#c933d4" stroke="none" stroke-width="1" stroke-linejoin="miter"/><g fill="#000000" stroke="none" stroke-width="1" stroke-linejoin="miter"><path d="M221,176c0,-2.20914 1.79086,-4 4,-4c2.20914,0 4,1.79086 4,4c0,2.20914 -1.79086,4 -4,4c-2.20914,0 -4,-1.79086 -4,-4z"/><path d="M225.93,177l1.07,9.86c-0.66287,0.09052 -1.33098,0.13728 -2,0.14c-0.66932,-0.00394 -1.33758,-0.05406 -2,-0.15l1.1,-9.85z"/></g></g></g></svg>