<svg version="1.1" xmlns="http://www.w3.org/2000/svg" xmlns:xlink="http://www.w3.org/1999/xlink" width="31.79401" height="49.85514" viewBox="0,0,31.79401,49.85514"><g transform="translate(-219.69804,-142.17455)"><g data-paper-data="{&quot;isPaintingLayer&quot;:true}" fill-rule="nonzero" stroke-linecap="butt" stroke-miterlimit="10" stroke-dasharray="" stroke-dashoffset="0" style="mix-blend-mode: normal"><path d="M244.14896,191.38889c0,0.5 -0.5,0.5 -0.5,0.5l-0.23528,-0.00971c-1.99108,0.39004 -4.15534,-0.0562 -6.11528,-0.45148c-1.92534,-0.64726 -2.54132,-2.43419 -1.07412,-3.98566c-0.71685,-0.84221 -0.37623,-1.8595 0.41002,-2.71472c-1.62152,-0.67744 -1.69975,-2.67268 -0.18194,-3.84364c1.55614,-1.20054 5.14084,-1.4286 6.93785,-0.7368c0,0 0.46424,0.1857 0.27854,0.64993c-0.1857,0.46424 -0.64993,0.27854 -0.64993,0.27854c-1.4764,-0.62145 -4.06383,-0.22093 -5.5229,0.33546c-1.16318,0.44355 -1.72375,2.20164 -0.24214,2.48052c0.1164,0 0.2327,0.00297 0.34894,0.0084c0.38113,-0.26034 0.79417,-0.48179 1.20759,-0.64699c0.93069,-0.31023 7.08162,-1.69811 5.59498,1.06941c-0.94921,1.76705 -4.64336,0.82947 -6.61875,0.60743c-0.78023,0.55689 -1.29839,1.26352 -0.72684,1.89598c2.3025,-1.21936 7.21138,-1.32566 7.56083,1.06291c-1.84719,0.69742 -4.8587,1.2229 -6.811,0.52519c-0.33786,-0.12075 -0.62652,-0.25345 -0.87035,-0.3957c-0.70186,0.79655 -0.6794,2.01619 0.61588,2.44325c1.80047,0.35672 3.83466,0.81192 5.6625,0.4374l0.43139,-0.00971c0,0 0.5,0 0.5,0.5zM237.93015,187.38573c0.07106,0.03026 0.14599,0.06011 0.2249,0.08951c1.25112,0.46614 2.85502,-0.08125 4.22442,-0.22471c-0.0652,-0.01683 -0.11821,-0.02994 -0.15399,-0.0365c-1.2861,-0.23566 -2.76137,-0.11529 -4.03753,0.11028c-0.0886,0.01566 -0.1746,0.03629 -0.25781,0.06142zM239.40215,184.11075c0.9363,0.13918 1.8764,0.26733 2.83338,0.11793c0.02676,-0.00418 1.49036,-0.335 1.3908,-0.55023c-0.34328,-0.7421 -3.24505,0.11864 -4.22418,0.4323z" fill="#000000" stroke="none" stroke-width="0.5" stroke-linejoin="miter"/><path d="M234,181.77778v-2.83016h12v2.83016z" fill="#0025ff" stroke="#000000" stroke-width="2" stroke-linejoin="miter"/><g><path d="M228.84315,154.19216l-1.79332,5.43344l-5.35179,-4.77904z" fill="none" stroke="#000000" stroke-width="4" stroke-linejoin="round"/><path d="M228.84315,154.19216l-1.79332,5.43344l-5.35179,-4.77904z" fill="#b3b3b3" stroke="none" stroke-width="1" stroke-linejoin="miter"/></g><g><path d="M236.13307,151.50711l-5.66259,0.82059l1.88761,-6.92227z" fill="none" stroke="#000000" stroke-width="4" stroke-linejoin="round"/><path d="M236.13307,151.50711l-5.66259,0.82059l1.88761,-6.92227z" fill="#b3b3b3" stroke="none" stroke-width="1" stroke-linejoin="miter"/></g><g><path d="M244.62696,150.27623l-5.66259,0.82059l1.88762,-6.92227z" fill="none" stroke="#000000" stroke-width="4" stroke-linejoin="round"/><path d="M244.62696,150.27623l-5.66259,0.82059l1.88762,-6.92227z" fill="#b3b3b3" stroke="none" stroke-width="1" stroke-linejoin="miter"/></g><path d="M231.79205,171.65458v-7h11v7z" fill="#000000" stroke="none" stroke-width="1" stroke-linejoin="miter"/><path d="M229.49205,178.95458v-7h21v7z" fill="#0025ff" stroke="#000000" stroke-width="2" stroke-linejoin="miter"/><g><g stroke="none" stroke-linejoin="miter"><path d="M250.22239,162.50618l-20.5444,4.35058l-1.65736,-7.82644c-0.6865,-3.24182 1.38499,-6.42635 4.62681,-7.11285l8.80474,-1.86453c3.24182,-0.6865 6.42635,1.38499 7.11285,4.62681z" fill="#ff7800" stroke-width="1"/><path d="M251.40787,163.27731l-22.50101,4.76492l-1.86453,-8.80474c-0.80092,-3.78212 1.61582,-7.49741 5.39794,-8.29833l8.80474,-1.86453c3.78212,-0.80092 7.49741,1.61582 8.29833,5.39794zM230.44913,165.67128l18.58779,-3.93624l-1.45019,-6.84813c-0.57209,-2.70152 -3.22586,-4.42776 -5.92738,-3.85567l-8.80474,1.86453c-2.70152,0.57209 -4.42776,3.22586 -3.85567,5.92738z" fill="#000000" stroke-width="1"/><path d="M228.94901,158.82579c-0.57209,-2.70152 1.16662,-5.39105 3.86814,-5.96314l8.85959,-1.87829c2.70152,-0.57209 5.38439,1.18264 5.95648,3.88416l1.45101,6.88267l-18.6729,3.95282z" data-paper-data="{&quot;noHover&quot;:false,&quot;origItem&quot;:[&quot;Path&quot;,{&quot;applyMatrix&quot;:true,&quot;segments&quot;:[[230.44913,165.67128],[249.03692,161.73504],[[247.58673,154.88691],[0,0],[-0.57209,-2.70152]],[[241.65935,151.03124],[2.70152,-0.57209],[0,0]],[[232.85461,152.89577],[0,0],[-2.70152,0.57209]],[[228.99894,158.82315],[-0.57209,-2.70152],[0,0]]],&quot;closed&quot;:true,&quot;fillColor&quot;:[0,0,0,1]}]}" fill="#00a2ff" stroke-width="0.5"/></g><path d="M239.61066,160.66466l-1.03585,-4.89152l4.89152,-1.03585l1.03585,4.89152z" fill="#001f31" stroke="#ffffff" stroke-width="2" stroke-linejoin="round"/><path d="M241.3601,159.27202l-0.62151,-2.93491l2.93491,-0.62151l0.62151,2.93491z" fill="#001f31" stroke="none" stroke-width="1" stroke-linejoin="miter"/></g></g></g></svg>