<svg version="1.1" xmlns="http://www.w3.org/2000/svg" xmlns:xlink="http://www.w3.org/1999/xlink" width="177.77854" height="140.98231" viewBox="0,0,177.77854,140.98231"><g transform="translate(-147.41646,-100.68692)"><g data-paper-data="{&quot;isPaintingLayer&quot;:true}" fill="none" fill-rule="nonzero" stroke-linecap="round" stroke-linejoin="round" stroke-miterlimit="10" stroke-dasharray="" stroke-dashoffset="0" style="mix-blend-mode: normal"><g data-paper-data="{&quot;index&quot;:null}"><path d="M151.41646,237.37487l25.92,-130.33308l40.69,37.42215" stroke="#000000" stroke-width="8"/><path d="M151.41646,237.37487l25.92,-130.33308l40.69,37.42215" stroke="#9bb39b" stroke-width="4"/></g><g><path d="M228.97,146.40001l42.98,-30.88l15.94,120.06" stroke="#000000" stroke-width="8"/><path d="M228.97,146.40001l42.98,-30.88l15.94,120.06" stroke="#9bb39b" stroke-width="4"/></g><g><path d="M172.7,235.36001l25.92,-118.31l40.69,33.97" stroke="#000000" stroke-width="8"/><path d="M172.7,235.36001l25.92,-118.31l40.69,33.97" stroke="#9bb39b" stroke-width="4"/></g><g data-paper-data="{&quot;index&quot;:null}"><path d="M202.51473,235.02001l15.11998,-130.33309l23.7358,37.42216" stroke="#000000" stroke-width="8"/><path d="M202.51473,235.02001l15.11998,-130.33309l23.7358,37.42216" stroke="#9bb39b" stroke-width="4"/></g><g data-paper-data="{&quot;index&quot;:null}"><path d="M254.585,144.7583l40.69,-37.42215l25.92,130.33308" stroke="#000000" stroke-width="8"/><path d="M254.585,144.7583l40.69,-37.42215l25.92,130.33308" stroke="#9bb39b" stroke-width="4"/></g></g></g></svg>