<svg version="1.1" xmlns="http://www.w3.org/2000/svg" xmlns:xlink="http://www.w3.org/1999/xlink" width="92.25" height="79.175" viewBox="0,0,92.25,79.175"><g transform="translate(-193.875,-146.95)"><g data-paper-data="{&quot;isPaintingLayer&quot;:true}" fill-rule="nonzero" stroke-linecap="butt" stroke-miterlimit="10" stroke-dasharray="" stroke-dashoffset="0" style="mix-blend-mode: normal"><g><path d="M254.645,213.125h9.56l-4.78,11z" fill="none" stroke="#000000" stroke-width="4" stroke-linejoin="round"/><path d="M254.645,213.125h9.56l-4.78,11z" fill="#b3b3b3" stroke="none" stroke-width="1" stroke-linejoin="miter"/></g><g><path d="M235.27,213.125h9.56l-4.78,11z" fill="none" stroke="#000000" stroke-width="4" stroke-linejoin="round"/><path d="M235.27,213.125h9.56l-4.78,11z" fill="#b3b3b3" stroke="none" stroke-width="1" stroke-linejoin="miter"/></g><g><path d="M215.895,213.125h9.56l-4.78,11z" fill="none" stroke="#000000" stroke-width="4" stroke-linejoin="round"/><path d="M215.895,213.125h9.56l-4.78,11z" fill="#b3b3b3" stroke="none" stroke-width="1" stroke-linejoin="miter"/></g><g><path d="M254.645,213.125h9.56l-4.78,11z" fill="none" stroke="#000000" stroke-width="4" stroke-linejoin="round"/><path d="M254.645,213.125h9.56l-4.78,11z" fill="#b3b3b3" stroke="none" stroke-width="1" stroke-linejoin="miter"/></g><g><path d="M235.27,213.125h9.56l-4.78,11z" fill="none" stroke="#000000" stroke-width="4" stroke-linejoin="round"/><path d="M235.27,213.125h9.56l-4.78,11z" fill="#b3b3b3" stroke="none" stroke-width="1" stroke-linejoin="miter"/></g><g><path d="M215.895,213.125h9.56l-4.78,11z" fill="none" stroke="#000000" stroke-width="4" stroke-linejoin="round"/><path d="M215.895,213.125h9.56l-4.78,11z" fill="#b3b3b3" stroke="none" stroke-width="1" stroke-linejoin="miter"/></g><g><path d="M206.875,194.645v9.56l-11,-4.78z" fill="none" stroke="#000000" stroke-width="4" stroke-linejoin="round"/><path d="M206.875,194.645v9.56l-11,-4.78z" fill="#b3b3b3" stroke="none" stroke-width="1" stroke-linejoin="miter"/></g><g><path d="M206.875,175.27v9.56l-11,-4.78z" fill="none" stroke="#000000" stroke-width="4" stroke-linejoin="round"/><path d="M206.875,175.27v9.56l-11,-4.78z" fill="#b3b3b3" stroke="none" stroke-width="1" stroke-linejoin="miter"/></g><g><path d="M206.875,155.895v9.56l-11,-4.78z" fill="none" stroke="#000000" stroke-width="4" stroke-linejoin="round"/><path d="M206.875,155.895v9.56l-11,-4.78z" fill="#b3b3b3" stroke="none" stroke-width="1" stroke-linejoin="miter"/></g><g><path d="M206.875,194.645v9.56l-11,-4.78z" fill="none" stroke="#000000" stroke-width="4" stroke-linejoin="round"/><path d="M206.875,194.645v9.56l-11,-4.78z" fill="#b3b3b3" stroke="none" stroke-width="1" stroke-linejoin="miter"/></g><g><path d="M206.875,175.27v9.56l-11,-4.78z" fill="none" stroke="#000000" stroke-width="4" stroke-linejoin="round"/><path d="M206.875,175.27v9.56l-11,-4.78z" fill="#b3b3b3" stroke="none" stroke-width="1" stroke-linejoin="miter"/></g><g><path d="M206.875,155.895v9.56l-11,-4.78z" fill="none" stroke="#000000" stroke-width="4" stroke-linejoin="round"/><path d="M206.875,155.895v9.56l-11,-4.78z" fill="#b3b3b3" stroke="none" stroke-width="1" stroke-linejoin="miter"/></g><path d="M208.85,148.95h62v62h-62z" fill="#39b54a" stroke="#000000" stroke-width="4" stroke-linejoin="round"/><path d="M209.15,149.05h62v62h-62z" fill="#3967c4" stroke="none" stroke-width="0" stroke-linejoin="round"/><path d="M218.15,158.05h44v44h-44z" fill="#4f7bd2" stroke="none" stroke-width="1" stroke-linejoin="miter"/><g><path d="M273.125,165.355v-9.56l11,4.78z" fill="none" stroke="#000000" stroke-width="4" stroke-linejoin="round"/><path d="M273.125,165.355v-9.56l11,4.78z" fill="#b3b3b3" stroke="none" stroke-width="1" stroke-linejoin="miter"/></g><g><path d="M273.125,184.73v-9.56l11,4.78z" fill="none" stroke="#000000" stroke-width="4" stroke-linejoin="round"/><path d="M273.125,184.73v-9.56l11,4.78z" fill="#b3b3b3" stroke="none" stroke-width="1" stroke-linejoin="miter"/></g><g><path d="M273.125,204.105v-9.56l11,4.78z" fill="none" stroke="#000000" stroke-width="4" stroke-linejoin="round"/><path d="M273.125,204.105v-9.56l11,4.78z" fill="#b3b3b3" stroke="none" stroke-width="1" stroke-linejoin="miter"/></g><g><path d="M273.125,165.355v-9.56l11,4.78z" fill="none" stroke="#000000" stroke-width="4" stroke-linejoin="round"/><path d="M273.125,165.355v-9.56l11,4.78z" fill="#b3b3b3" stroke="none" stroke-width="1" stroke-linejoin="miter"/></g><g><path d="M273.125,184.73v-9.56l11,4.78z" fill="none" stroke="#000000" stroke-width="4" stroke-linejoin="round"/><path d="M273.125,184.73v-9.56l11,4.78z" fill="#b3b3b3" stroke="none" stroke-width="1" stroke-linejoin="miter"/></g><g><path d="M273.125,204.105v-9.56l11,4.78z" fill="none" stroke="#000000" stroke-width="4" stroke-linejoin="round"/><path d="M273.125,204.105v-9.56l11,4.78z" fill="#b3b3b3" stroke="none" stroke-width="1" stroke-linejoin="miter"/></g></g></g></svg>