<svg version="1.1" xmlns="http://www.w3.org/2000/svg" xmlns:xlink="http://www.w3.org/1999/xlink" width="52.68481" height="57.90591" viewBox="0,0,52.68481,57.90591"><g transform="translate(-213.63436,-153.09411)"><g data-paper-data="{&quot;isPaintingLayer&quot;:true}" fill-rule="nonzero" stroke-width="0" stroke-linecap="butt" stroke-miterlimit="10" stroke-dasharray="" stroke-dashoffset="0" style="mix-blend-mode: normal"><path d="M234.25076,211.00002v-28.19436h11.49852v28.19436z" fill="#c4a639" stroke="none" stroke-linejoin="round"/><path d="M213.64399,179.06755c0.29896,-2.81016 1.7668,-16.60795 2.44245,-22.95904c0.20849,-1.9598 1.19208,-3.12005 2.25663,-3.0068c4.7267,0.50284 38.84246,4.13217 46.63116,4.96076c1.01277,0.10774 1.45385,1.35774 1.32226,2.5947c-0.3482,3.27309 -1.93665,18.20451 -2.51394,23.63101c-0.13146,1.23575 -0.77812,1.9182 -1.79089,1.81046c-7.7887,-0.82859 -41.90447,-4.45793 -46.63116,-4.96077c-1.06455,-0.11325 -1.82098,-1.08822 -1.7165,-2.07032z" fill="#ae9332" stroke="none" stroke-linejoin="round"/><path d="M223.369,169.91171c0.1623,-1.51063 0.36984,-3.44233 0.47196,-4.39286c0.11666,-1.08584 1.63104,-2.52955 2.9612,-2.38664c3.9105,0.42013 23.11028,2.4829 23.11028,2.4829l-0.98495,9.16772c0,0 -19.47836,-2.0927 -23.30128,-2.50342c-1.24792,-0.13408 -2.38383,-1.18907 -2.25721,-2.3677z" fill="#726121" stroke="#000000" stroke-linejoin="miter"/><path d="M246.76973,182.27896c0.57411,-5.34368 2.0708,-19.27446 2.44186,-22.7283c0.16204,-1.50817 1.14668,-1.97988 1.89693,-0.9934c1.39532,1.83466 6.17216,8.11554 8.62793,11.34455c0.89682,1.1792 0.69605,2.62401 -0.49265,3.63858c-3.05845,2.61044 -8.76921,7.48468 -10.53394,8.99092c-1.01965,0.87029 -2.08061,1.05518 -1.94013,-0.25234z" fill="#726121" stroke="none" stroke-linejoin="miter"/></g></g></svg>