<svg version="1.1" xmlns="http://www.w3.org/2000/svg" xmlns:xlink="http://www.w3.org/1999/xlink" width="30.65751" height="41.43099" viewBox="0,0,30.65751,41.43099"><g transform="translate(-220.8904,-138.52362)"><g data-paper-data="{&quot;isPaintingLayer&quot;:true}" fill-rule="nonzero" stroke-linecap="butt" stroke-miterlimit="10" stroke-dasharray="" stroke-dashoffset="0" style="mix-blend-mode: normal"><path d="M231.79206,171.65461v-7h11v7z" fill="#000000" stroke="none" stroke-width="1" stroke-linejoin="miter"/><path d="M229.49208,178.95461v-7h21v7z" fill="#b4004c" stroke="#000000" stroke-width="2" stroke-linejoin="miter"/><path d="M236.22006,155.69843l-0.74167,-6.9606l4.97186,-0.52976l0.74167,6.9606z" fill="#ff0000" stroke="#000000" stroke-width="2" stroke-linejoin="miter"/><path d="M232.25136,145.41821c-0.31348,-2.94201 1.81736,-5.58111 4.75938,-5.89459c2.94201,-0.31348 5.58111,1.81736 5.89459,4.75938c0.31348,2.94201 -1.81736,5.58111 -4.75938,5.89459c-2.94201,0.31348 -5.58111,-1.81736 -5.89459,-4.75938z" fill="#ff0000" stroke="#000000" stroke-width="2" stroke-linejoin="miter"/><g><path d="M230.05513,156.46297l-1.99716,5.36186l-5.16757,-4.97768z" fill="none" stroke="#000000" stroke-width="4" stroke-linejoin="round"/><path d="M230.05513,156.46297l-1.99716,5.36186l-5.16757,-4.97768z" fill="#b3b3b3" stroke="none" stroke-width="1" stroke-linejoin="miter"/></g><g><path d="M235.89625,152.98198l-5.51582,1.52121l1.00853,-7.10379z" fill="none" stroke="#000000" stroke-width="4" stroke-linejoin="round"/><path d="M235.89625,152.98198l-5.51582,1.52121l1.00853,-7.10379z" fill="#b3b3b3" stroke="none" stroke-width="1" stroke-linejoin="miter"/></g><g><path d="M246.64426,152.77985l-5.70854,-0.38847l3.30101,-6.37058z" fill="none" stroke="#000000" stroke-width="4" stroke-linejoin="round"/><path d="M246.64426,152.77985l-5.70854,-0.38847l3.30101,-6.37058z" fill="#b3b3b3" stroke="none" stroke-width="1" stroke-linejoin="miter"/></g><g><path d="M234.04867,154.19623l8.94934,-0.95358c3.29506,-0.3511 6.25084,2.03545 6.60195,5.33051l0.84763,7.95497l-20.8818,2.22501l-0.84762,-7.95497c-0.3511,-3.29506 2.03545,-6.25084 5.33051,-6.60195z" fill="#b4004c" stroke="#000000" stroke-width="2" stroke-linejoin="miter"/><path d="M240.08007,163.61018l-0.52977,-4.97186l4.97186,-0.52976l0.52976,4.97186z" fill="#ffffff" stroke="#ffffff" stroke-width="2" stroke-linejoin="round"/><path d="M241.96286,162.4039l-0.31786,-2.98311l2.98311,-0.31786l0.31786,2.98311z" fill="#000000" stroke="none" stroke-width="1" stroke-linejoin="miter"/></g></g></g></svg>