<svg version="1.1" xmlns="http://www.w3.org/2000/svg" xmlns:xlink="http://www.w3.org/1999/xlink" width="38.5" height="43.51517" viewBox="0,0,38.5,43.51517"><defs><radialGradient cx="240.00163" cy="155.68941" r="19.25" gradientUnits="userSpaceOnUse" id="color-1"><stop offset="0" stop-color="#ff0000" stop-opacity="0.59608"/><stop offset="1" stop-color="#ff0000" stop-opacity="0"/></radialGradient></defs><g transform="translate(-220.75163,-136.43941)"><g data-paper-data="{&quot;isPaintingLayer&quot;:true}" fill-rule="nonzero" stroke-linecap="butt" stroke-miterlimit="10" stroke-dasharray="" stroke-dashoffset="0" style="mix-blend-mode: normal"><path d="M237.49047,167.24286v-7h5v7z" fill="#ff0000" stroke="#000000" stroke-width="2" stroke-linejoin="miter"/><path d="M233.31855,155.6894c0,-3.69096 2.9921,-6.68306 6.68307,-6.68306c3.69096,0 6.68308,2.9921 6.68308,6.68306c0,3.69096 -2.9921,6.68308 -6.68308,6.68308c-3.69096,0 -6.68307,-2.9921 -6.68307,-6.68308z" fill="#ff0000" stroke="#000000" stroke-width="2" stroke-linejoin="miter"/><path d="M233.68091,164.94762h12.64147c4.65447,0 8.42765,2.68597 8.42765,5.99927v7.99903h-29.49678v-7.99903c0,-3.3133 3.77318,-5.99927 8.42765,-5.99927z" fill="#b4004c" stroke="#000000" stroke-width="2" stroke-linejoin="miter"/><path d="M240.87953,171.6357v-3.73288h7.02304v3.73288z" fill="#ffffff" stroke="#ffffff" stroke-width="2" stroke-linejoin="round"/><path d="M243.51318,170.88912v-2.23973h4.21382v2.23973z" fill="#000000" stroke="none" stroke-width="1" stroke-linejoin="miter"/><path d="M225.24208,178.95458v-4.82163h29.49678v4.82163z" fill="#b4004c" stroke="#000000" stroke-width="2" stroke-linejoin="miter"/><path d="M220.75163,155.68941c0,-10.63148 8.61852,-19.25 19.25,-19.25c10.63148,0 19.25,8.61852 19.25,19.25c0,10.63148 -8.61852,19.25 -19.25,19.25c-10.63148,0 -19.25,-8.61852 -19.25,-19.25z" fill="url(#color-1)" stroke="#000000" stroke-width="0" stroke-linejoin="miter"/></g></g></svg>