<svg version="1.1" xmlns="http://www.w3.org/2000/svg" xmlns:xlink="http://www.w3.org/1999/xlink" width="45.32903" height="32.00933" viewBox="0,0,45.32903,32.00933"><g transform="translate(-217.47795,-157.99069)"><g data-paper-data="{&quot;isPaintingLayer&quot;:true}" fill-rule="nonzero" stroke-linecap="butt" stroke-miterlimit="10" stroke-dasharray="" stroke-dashoffset="0" style="mix-blend-mode: normal"><g data-paper-data="{&quot;index&quot;:null}" stroke-linejoin="miter"><path d="M248.32018,185.29637c-2.01187,0.38191 -4.34173,-1.2475 -5.20392,-3.63938c-0.86217,-2.39189 0.06981,-4.6405 2.08167,-5.02241c2.01187,-0.38192 4.34174,1.24749 5.20392,3.63938c0.86217,2.39189 -0.06981,4.6405 -2.08167,5.02241z" fill="#ffffff" stroke="#000000" stroke-width="2"/><path d="M248.93993,174.84741c0.57759,-1.00383 1.05166,-2.10332 1.4634,-3.20488c0.50634,-1.35463 1.21494,-2.55847 1.60794,-3.98984c0.31871,-1.16091 0.353,-2.34526 0.49243,-3.57451c0.01978,-1.42144 -0.29614,-2.77377 -0.77957,-4.22216l0.00506,-0.05633l-0.01745,-0.001l-0.11601,-0.65935c-0.04984,-0.2539 0.04054,-0.48848 0.24432,-0.57555c0.2038,-0.08706 0.461,-0.00099 0.64549,0.19539l0.48759,0.50061l-0.00634,0.00794c0.01819,0.01486 0.03627,0.03002 0.05419,0.04549c0.20099,0.17341 0.29396,0.46033 0.46511,0.67079c0.63455,0.78023 1.30216,1.62979 1.70922,2.5797c0.60235,1.40568 0.67368,2.80349 0.863,4.20424c0.10088,0.74642 0.27359,1.43079 0.26741,2.16699c-0.01162,1.38369 -0.37736,2.59385 -0.46211,3.92032c-0.21049,0.63614 -0.30387,1.38314 -0.59932,1.9622c-0.70996,1.39142 -1.63011,2.5509 -2.71305,3.56166c-0.38971,0.36374 -0.45753,0.59667 -0.92563,0.85094c-1.44647,0.7857 -3.23185,-0.38298 -3.83704,-2.26718c-0.09185,-0.28595 0.18514,-0.86543 0.25738,-1.09491c0,0 0.84273,-1.18012 0.89394,-1.02058z" fill="#ffffff" stroke="#000000" stroke-width="1"/><path d="M251.68061,176.08875c0.64246,-0.70339 1.20784,-1.50061 1.71909,-2.30999c0.62872,-0.99536 1.41313,-1.83619 1.95354,-2.91193c0.43829,-0.87247 0.63164,-1.81172 0.92294,-2.76904c0.21343,-1.13089 0.12443,-2.26337 -0.09747,-3.50081l0.01217,-0.04411l-0.01507,-0.00374l-0.01022,-0.54574c-0.00844,-0.21103 0.10278,-0.38292 0.29261,-0.41795c0.18982,-0.03504 0.40236,0.07712 0.53622,0.265l0.35633,0.48186l-0.00663,0.00526c0.01382,0.01493 0.0275,0.03008 0.041,0.04544c0.15142,0.17233 0.19296,0.41702 0.31324,0.61387c0.44596,0.72984 0.91122,1.52056 1.13526,2.34733c0.33154,1.22347 0.20089,2.35089 0.17275,3.50061c-0.01498,0.61265 0.04124,1.18792 -0.06575,1.77434c-0.20111,1.10214 -0.68721,2.00597 -0.94422,3.0501c-0.27143,0.47204 -0.45601,1.05232 -0.7937,1.46444c-0.81143,0.99031 -1.7743,1.75999 -2.85863,2.3835c-0.39022,0.22438 -0.48153,0.39878 -0.92504,0.52257c-1.37048,0.38249 -2.76014,-0.96496 -3.02814,-2.57074c-0.04068,-0.24372 -0.13543,-0.50423 -0.10251,-0.72947c0.03074,-0.21042 0.1894,-0.34178 0.2841,-0.51268c0,0 1.08545,-0.27409 1.10813,-0.13813z" fill="#ffffff" stroke="#000000" stroke-width="1"/><path d="M254.04496,176.86834c0.63425,-0.36998 1.22222,-0.82271 1.76874,-1.29522c0.67209,-0.58106 1.44343,-1.01998 2.058,-1.67651c0.49844,-0.53246 0.81117,-1.16282 1.20567,-1.78596c0.36097,-0.76294 0.47912,-1.58904 0.50802,-2.51728l0.01719,-0.02896l-0.01151,-0.00577l0.08319,-0.39138c0.02857,-0.15227 0.14676,-0.25208 0.3052,-0.23813c0.15844,0.01394 0.3105,0.13754 0.38663,0.29903l0.20572,0.41681l-0.00622,0.00239c0.00861,0.01349 0.01707,0.02709 0.02535,0.04083c0.09284,0.15399 0.08523,0.33706 0.14897,0.50214c0.23623,0.61209 0.47777,1.27158 0.51937,1.9073c0.06156,0.94074 -0.23228,1.7182 -0.44747,2.53258c-0.11467,0.43395 -0.16581,0.85586 -0.35006,1.25222c-0.34626,0.74496 -0.88837,1.28998 -1.26984,1.9821c-0.29725,0.28106 -0.54279,0.65714 -0.88328,0.88186c-0.81811,0.53999 -1.721,0.89155 -2.69703,1.11391c-0.35126,0.08002 -0.45387,0.18571 -0.83108,0.18303c-1.16565,-0.00826 -2.05703,-1.25451 -2.00348,-2.45494c0.00813,-0.18218 -0.02442,-0.38746 0.03978,-0.54138c0.05997,-0.14379 0.20949,-0.20496 0.31424,-0.30745c0,0 0.91843,0.02712 0.91386,0.12877z" fill="#ffffff" stroke="#000000" stroke-width="1"/><path d="M253.23168,179.05033c0.76726,-0.07261 1.51304,-0.2339 2.2225,-0.42811c0.87246,-0.23883 1.8021,-0.31768 2.63924,-0.64328c0.67898,-0.26407 1.19816,-0.68347 1.79896,-1.06523c0.61036,-0.51439 0.99138,-1.17638 1.31293,-1.96019l0.02673,-0.01818l-0.00998,-0.00937l0.20845,-0.30316c0.07719,-0.11941 0.22989,-0.15937 0.3881,-0.08641c0.15823,0.07296 0.27541,0.23737 0.30275,0.40497l0.08006,0.43619l-0.00713,-0.00034c0.00459,0.01487 0.00898,0.02978 0.01318,0.04473c0.04686,0.16763 -0.0185,0.32147 -0.00502,0.48741c0.04997,0.61517 0.09043,1.27296 -0.06676,1.83343c-0.23262,0.82938 -0.77869,1.38203 -1.25562,1.9966c-0.25415,0.32747 -0.43932,0.66911 -0.75303,0.93761c-0.58961,0.50466 -1.31736,0.76266 -1.92649,1.2085c-0.39343,0.12623 -0.7637,0.35374 -1.18377,0.41509c-1.00942,0.14739 -2.04656,0.1008 -3.11813,-0.08463c-0.38565,-0.06674 -0.52419,-0.01573 -0.91047,-0.16329c-1.19368,-0.45595 -1.71656,-1.86651 -1.28411,-2.87395c0.06561,-0.1529 0.09677,-0.34123 0.21105,-0.44833c0.10677,-0.10004 0.27945,-0.09485 0.41918,-0.14229c0,0 0.93402,0.37689 0.89738,0.46219z" fill="#ffffff" stroke="#000000" stroke-width="1"/><path d="M255.05329,171.48183c0.06815,0.13097 0.03835,0.27344 -0.06652,0.31825c-0.1049,0.04481 -0.24515,-0.02503 -0.31329,-0.15598c-0.06815,-0.13095 -0.03836,-0.27344 0.06651,-0.31824c0.1049,-0.04481 0.24516,0.02502 0.31329,0.15598z" fill="#000000" stroke="none" stroke-width="0.5"/><path d="M257.23886,174.67824c-0.1049,0.04481 -0.24515,-0.02503 -0.31329,-0.15598c-0.06815,-0.13096 -0.03838,-0.27345 0.06651,-0.31825c0.1049,-0.04481 0.24515,0.02503 0.31328,0.15599c0.06815,0.13096 0.03838,0.27345 -0.06651,0.31825z" fill="#000000" stroke="none" stroke-width="0.5"/><path d="M257.92669,178.00731c0.06814,0.13095 0.03836,0.27344 -0.06651,0.31826c-0.1049,0.04481 -0.24516,-0.02504 -0.3133,-0.15599c-0.06814,-0.13095 -0.03838,-0.27345 0.06651,-0.31825c0.1049,-0.04481 0.24515,0.02504 0.3133,0.156z" fill="#000000" stroke="none" stroke-width="0.5"/><path d="M244.97836,176.2693c0.7534,-0.83369 1.41554,-1.77768 2.01392,-2.73574c0.73585,-1.17817 1.65575,-2.17487 2.28723,-3.44741c0.51216,-1.03209 0.73557,-2.14161 1.07422,-3.273c0.24617,-1.33579 0.13616,-2.67178 -0.13082,-4.13086l0.01415,-0.05212l-0.01779,-0.00434l-0.01454,-0.64398c-0.0109,-0.24898 0.1193,-0.45248 0.34267,-0.49488c0.22338,-0.04241 0.47418,0.08875 0.6327,0.30972l0.42186,0.56666l-0.00779,0.00625c0.01635,0.01755 0.03251,0.03533 0.04849,0.0534c0.1791,0.20252 0.22915,0.49104 0.3717,0.72268c0.52851,0.85879 1.08007,1.78935 1.3477,2.76377c0.39604,1.44197 0.24734,2.77322 0.21947,4.1302c-0.01484,0.7231 0.05404,1.40168 -0.06929,2.09432c-0.23179,1.3018 -0.80011,2.37117 -1.09798,3.60482c-0.31749,0.5586 -0.53219,1.24443 -0.92799,1.73268c-0.95107,1.17324 -2.08145,2.08698 -3.35557,2.82888c-0.4585,0.267 -0.56526,0.47331 -1.08698,0.62188c-1.61218,0.45907 -3.26235,-0.98969 -3.58529,-2.88319c-0.04902,-0.28739 0.32786,-0.77963 0.43862,-0.98182c0,0 1.05402,-0.94826 1.08135,-0.78793z" fill="#ffffff" stroke="#000000" stroke-width="1"/><path d="M247.59931,177.97246c0.77241,-0.5379 1.4804,-1.17926 2.13467,-1.84262c0.80462,-0.81576 1.7448,-1.45561 2.47136,-2.36431c0.58928,-0.737 0.93734,-1.58458 1.38895,-2.43012c0.39912,-1.02429 0.48751,-2.10892 0.45593,-3.31832l0.01954,-0.03919l-0.01491,-0.00648l0.07619,-0.51632c0.02485,-0.20052 0.16652,-0.34088 0.36727,-0.33698c0.20074,0.00392 0.40148,0.15097 0.50928,0.35408l0.28985,0.52346l-0.00766,0.00367c0.01186,0.01677 0.02351,0.03369 0.03495,0.0508c0.12833,0.19187 0.13216,0.43055 0.22456,0.63949c0.34263,0.77459 0.69539,1.61032 0.79443,2.43311c0.14655,1.21754 -0.16691,2.25469 -0.37851,3.33278c-0.11274,0.57448 -0.14633,1.12759 -0.3495,1.65943c-0.38187,0.99959 -1.02531,1.75683 -1.45546,2.69089c-0.35411,0.39207 -0.63609,0.90304 -1.04879,1.22575c-0.99171,0.77544 -2.10404,1.31353 -3.31809,1.69019c-0.4369,0.13556 -0.55852,0.28217 -1.0342,0.31253c-1.46996,0.09385 -2.68485,-1.44643 -2.70531,-3.01193c-0.00312,-0.2376 -0.05918,-0.50157 0.01046,-0.70744c0.06506,-0.19232 0.24906,-0.28527 0.37359,-0.42791c0,0 1.1597,-0.04714 1.16141,0.08541z" fill="#ffffff" stroke="#000000" stroke-width="1"/><path d="M249.98442,179.13833c0.71095,-0.22529 1.38746,-0.53757 2.02451,-0.87656c0.78341,-0.41688 1.64628,-0.68048 2.38251,-1.17965c0.5971,-0.40486 1.01885,-0.93809 1.52348,-1.44863c0.49239,-0.6488 0.74512,-1.40439 0.92231,-2.27358l0.02225,-0.02395l-0.0109,-0.00767l0.14772,-0.35269c0.05357,-0.13793 0.19095,-0.20901 0.35167,-0.16504c0.16071,0.04397 0.29744,0.19004 0.35007,0.35704l0.14531,0.43286l-0.00677,0.00105c0.0067,0.01439 0.01324,0.02887 0.01957,0.04342c0.07101,0.1632 0.03412,0.33424 0.0734,0.50222c0.14566,0.62282 0.28924,1.29136 0.23105,1.89858c-0.08612,0.89859 -0.5118,1.57414 -0.86247,2.29977c-0.18685,0.38667 -0.30647,0.77435 -0.55888,1.11206c-0.4744,0.63473 -1.11843,1.04291 -1.62064,1.62099c-0.35029,0.20705 -0.66255,0.51371 -1.04833,0.65926c-0.92703,0.34974 -1.91129,0.50542 -2.95023,0.52511c-0.37389,0.00707 -0.49618,0.08671 -0.88365,0.0108c-1.1973,-0.23456 -1.91586,-1.5825 -1.67009,-2.70344c0.0373,-0.17012 0.03645,-0.36992 0.12692,-0.5025c0.0845,-0.12385 0.24796,-0.15241 0.37196,-0.22862c0,0 0.94008,0.20425 0.91925,0.29915z" fill="#ffffff" stroke="#000000" stroke-width="1"/><path d="M248.8015,181.03648c0.80046,0.08084 1.59295,0.07392 2.3533,0.02891c0.93507,-0.05535 1.90349,0.0512 2.81604,-0.09279c0.74012,-0.11677 1.34061,-0.41104 2.01904,-0.65394c0.70934,-0.36604 1.2063,-0.9158 1.66145,-1.59195l0.03038,-0.01194l-0.00877,-0.01076l0.2625,-0.24517c0.09835,-0.0975 0.26171,-0.10547 0.41279,-0.00592c0.1511,0.09955 0.24548,0.2773 0.24698,0.44058l0.01302,0.42665l-0.00728,-0.0017c0.00237,0.01491 0.00452,0.02981 0.00645,0.04471c0.02156,0.1671 -0.0701,0.29939 -0.0826,0.45838c-0.04637,0.58949 -0.10924,1.21732 -0.35992,1.71494c-0.37096,0.7364 -1.02026,1.151 -1.60831,1.63743c-0.31334,0.2592 -0.55801,0.54514 -0.92324,0.73717c-0.68645,0.3609 -1.47576,0.46248 -2.17294,0.76415c-0.42462,0.04242 -0.84149,0.18481 -1.28318,0.16089c-1.06136,-0.05746 -2.12041,-0.30315 -3.19285,-0.68639c-0.38594,-0.13791 -0.5365,-0.11681 -0.91027,-0.33102c-1.15497,-0.66193 -1.46852,-2.09306 -0.86382,-2.95839c0.09179,-0.13133 0.15372,-0.30278 0.28827,-0.38148c0.12567,-0.07352 0.30242,-0.03503 0.45362,-0.05254c0,0 0.90054,0.53692 0.84931,0.61018z" fill="#ffffff" stroke="#000000" stroke-width="1"/><path d="M251.54731,173.99554c0.13247,0.09201 1.4477,1.56661 2.00058,3.26841c0.50358,1.55003 0.25818,3.33318 0.19554,3.55637c-0.31223,1.11293 -4.27554,4.2582 -5.42327,4.47607c-2.01187,0.38191 -4.34171,-1.24749 -5.2039,-3.63939c-0.86218,-2.39189 0.06981,-4.6405 2.08167,-5.02241c1.00084,-0.18999 5.41098,-3.29083 6.34938,-2.63906z" fill="#ffffff" stroke="#000000" stroke-width="0"/><path d="M251.84616,174.54625c-0.11496,0.02182 -0.24811,-0.07129 -0.29737,-0.20796c-0.04927,-0.13668 0.00399,-0.26517 0.11896,-0.287c0.11496,-0.02183 0.2481,0.07129 0.29737,0.20796c0.04927,0.13668 -0.00399,0.26517 -0.11896,0.287z" fill="#000000" stroke="none" stroke-width="0.5"/><path d="M253.70467,177.69694c-0.11498,0.02182 -0.2481,-0.07129 -0.29737,-0.20796c-0.04927,-0.13668 0.00398,-0.26518 0.11894,-0.287c0.11496,-0.02183 0.24811,0.0713 0.29737,0.20796c0.04927,0.13668 -0.00399,0.26517 -0.11896,0.287z" fill="#000000" stroke="none" stroke-width="0.5"/><path d="M253.88303,180.96825c0.04926,0.13668 -0.00399,0.26518 -0.11894,0.287c-0.11496,0.02182 -0.2481,-0.07128 -0.29736,-0.20796c-0.04927,-0.13668 0.00399,-0.26518 0.11896,-0.287c0.11498,-0.02182 0.24811,0.0713 0.29737,0.20796z" fill="#000000" stroke="none" stroke-width="0.5"/></g><g data-paper-data="{&quot;index&quot;:null}" stroke-linejoin="miter"><path d="M229.37428,180.14166c1.00951,-2.28876 3.4092,-3.68299 5.35986,-3.11409c1.95065,0.5689 2.7136,2.88549 1.70409,5.17425c-1.00951,2.28876 -3.4092,3.68299 -5.35986,3.11409c-1.95065,-0.5689 -2.7136,-2.88549 -1.70409,-5.17425z" fill="#ffffff" stroke="#000000" stroke-width="2"/><path d="M231.17914,174.9023c0.06116,-0.15327 0.80896,1.096 0.80896,1.096c0.05538,0.23425 0.28817,0.83472 0.1785,1.10942c-0.72256,1.80997 -2.55599,2.79915 -3.92374,1.88361c-0.44261,-0.29628 -0.49341,-0.53355 -0.85161,-0.9309c-0.99531,-1.10416 -1.8206,-2.34031 -2.4236,-3.7864c-0.25095,-0.60182 -0.29197,-1.35094 -0.45556,-2.00128c0.00682,-1.32257 -0.27031,-2.55644 -0.18777,-3.9288c0.04392,-0.73017 0.2601,-1.39204 0.40988,-2.12219c0.28112,-1.37024 0.44615,-2.74873 1.1334,-4.08475c0.46443,-0.90284 1.17804,-1.68154 1.85446,-2.39471c0.18245,-0.19236 0.2933,-0.46791 0.50254,-0.62073c0.01868,-0.01362 0.03743,-0.02694 0.05632,-0.03994l-0.0057,-0.00847l0.51306,-0.44995c0.19458,-0.17714 0.45314,-0.2381 0.64744,-0.13253c0.1943,0.10557 0.26715,0.34658 0.20096,0.59348l-0.15876,0.64244l-0.01722,-0.00067l0.00115,0.05631c-0.57332,1.38961 -0.97555,2.69987 -1.05265,4.11039c0.05351,1.23139 0.00675,2.40834 0.24105,3.58895c0.28888,1.45568 0.90332,2.71577 1.30876,4.10613c0.32972,1.13061 0.72081,2.26509 1.2201,3.31455z" fill="#ffffff" stroke="#000000" stroke-width="1"/><path d="M228.40216,175.87306c0.0315,-0.1326 1.07932,0.24178 1.07932,0.24178c0.08144,0.17832 0.22838,0.32352 0.24431,0.53496c0.01705,0.22633 -0.09376,0.47554 -0.15027,0.71321c-0.37235,1.56597 -1.82919,2.76976 -3.14964,2.261c-0.42732,-0.16465 -0.50519,-0.34612 -0.87332,-0.60542c-1.02299,-0.72053 -1.91669,-1.57444 -2.64666,-2.63263c-0.30379,-0.44039 -0.44572,-1.03291 -0.68032,-1.5264c-0.18159,-1.05906 -0.59779,-2.00079 -0.72052,-3.11205c-0.0653,-0.59126 0.02901,-1.15603 0.0559,-1.76459c0.05043,-1.14204 -0.00138,-2.27169 0.40747,-3.45278c0.27628,-0.79811 0.78708,-1.5377 1.27478,-2.21876c0.13154,-0.1837 0.18897,-0.42225 0.34943,-0.5787c0.01431,-0.01395 0.02877,-0.02767 0.04336,-0.04115l-0.00615,-0.00585l0.38281,-0.4438c0.14427,-0.17351 0.3607,-0.26454 0.5448,-0.21186c0.18411,0.05269 0.28172,0.23355 0.25909,0.44188l-0.0471,0.53986l-0.01508,0.00229l0.00897,0.04485c-0.30204,1.2053 -0.46639,2.31917 -0.33351,3.46009c0.22117,0.97628 0.34735,1.92539 0.71871,2.83149c0.45787,1.11721 1.17143,2.02474 1.72153,3.07064c0.44733,0.85049 0.94865,1.69405 1.53208,2.45193z" fill="#ffffff" stroke="#000000" stroke-width="1"/><path d="M226.02631,176.42186c0.00242,-0.10116 0.9066,-0.04111 0.9066,-0.04111c0.09596,0.11147 0.23871,0.18625 0.28786,0.33442c0.05263,0.15861 0.0067,0.35896 0.0023,0.54028c-0.02891,1.19469 -0.98928,2.34536 -2.13507,2.24322c-0.37079,-0.03306 -0.46443,-0.1475 -0.80409,-0.26004c-0.94384,-0.31274 -1.80699,-0.7466 -2.57411,-1.35915c-0.31925,-0.25491 -0.53494,-0.65086 -0.80791,-0.95753c-0.32779,-0.72199 -0.82339,-1.31343 -1.11298,-2.08447c-0.15409,-0.41024 -0.17568,-0.83319 -0.25886,-1.27409c-0.15612,-0.82742 -0.39202,-1.62569 -0.26763,-2.55215c0.08407,-0.62606 0.36613,-1.25675 0.63978,-1.84098c0.07382,-0.15758 0.07878,-0.33971 0.18046,-0.48353c0.00907,-0.01282 0.01831,-0.02551 0.02769,-0.03806l-0.00594,-0.00296l0.23043,-0.39361c0.08577,-0.15282 0.24356,-0.26092 0.40016,-0.25974c0.15661,0.00117 0.26595,0.11127 0.28367,0.26487l0.05514,0.39574l-0.0117,0.00463l0.01492,0.03033c-0.03464,0.92262 0.02531,1.75247 0.32814,2.54271c0.34526,0.65488 0.6097,1.30917 1.06325,1.88402c0.55922,0.70878 1.28724,1.21676 1.90808,1.8562c0.50486,0.51998 1.05177,1.02429 1.64979,1.45097z" fill="#ffffff" stroke="#000000" stroke-width="1"/><path d="M226.67715,178.66116c-0.0302,-0.08799 0.91305,-0.3731 0.91305,-0.3731c0.13406,0.06023 0.30408,0.07143 0.40217,0.18068c0.105,0.11695 0.12282,0.30654 0.17691,0.46428c0.35645,1.03931 -0.25306,2.38769 -1.45679,2.72656c-0.38954,0.10966 -0.52218,0.04601 -0.90559,0.07565c-1.06539,0.08233 -2.08753,0.03035 -3.06925,-0.21126c-0.40857,-0.10054 -0.75688,-0.36106 -1.13486,-0.52339c-0.56818,-0.49948 -1.26565,-0.82404 -1.81065,-1.37995c-0.28998,-0.29579 -0.44868,-0.65188 -0.67613,-1.00046c-0.42684,-0.65419 -0.9258,-1.25354 -1.09802,-2.09748c-0.11638,-0.5703 -0.03193,-1.21835 0.05892,-1.82326c0.02451,-0.16317 -0.02925,-0.32181 0.02816,-0.4835c0.00512,-0.01441 0.01045,-0.02878 0.01597,-0.04307l-0.00703,-0.00033l0.10826,-0.42469c0.03825,-0.1635 0.16455,-0.31535 0.32495,-0.37268c0.1604,-0.05732 0.3077,-0.00327 0.37543,0.12236l0.18421,0.32016l-0.01044,0.00833l0.02502,0.02055c0.26269,0.80721 0.59207,1.49931 1.15678,2.06684c0.56435,0.43519 1.04596,0.89995 1.69508,1.22591c0.80038,0.4019 1.70834,0.56803 2.54931,0.88729c0.68384,0.25961 1.40559,0.49004 2.15444,0.63462z" fill="#ffffff" stroke="#000000" stroke-width="1"/><path d="M225.4015,170.98836c0.07584,-0.12333 0.21838,-0.17926 0.31839,-0.12493c0.09999,0.05433 0.11958,0.19835 0.04374,0.32168c-0.07584,0.12333 -0.2184,0.17926 -0.3184,0.12493c-0.09999,-0.05433 -0.11958,-0.19834 -0.04373,-0.32169z" fill="#000000" stroke="none" stroke-width="0.5"/><path d="M222.9934,173.62747c0.07584,-0.12333 0.21838,-0.17926 0.31839,-0.12493c0.10001,0.05433 0.11958,0.19834 0.04373,0.32168c-0.07584,0.12333 -0.21838,0.17927 -0.31839,0.12494c-0.10001,-0.05433 -0.11958,-0.19836 -0.04373,-0.32169z" fill="#000000" stroke="none" stroke-width="0.5"/><path d="M222.13526,177.18318c0.07584,-0.12333 0.21838,-0.17926 0.31839,-0.12494c0.10001,0.05433 0.11958,0.19835 0.04373,0.32168c-0.07584,0.12333 -0.21838,0.17927 -0.31839,0.12494c-0.09999,-0.05433 -0.11958,-0.19836 -0.04373,-0.32169z" fill="#000000" stroke="none" stroke-width="0.5"/><path d="M234.97468,176.68636c0.03774,-0.1563 1.00887,0.88318 1.00887,0.88318c0.09506,0.21087 0.43191,0.73435 0.36424,1.01452c-0.44588,1.84591 -2.16552,3.12546 -3.71828,2.51792c-0.50247,-0.19661 -0.59333,-0.4112 -1.02569,-0.71918c-1.20139,-0.85581 -2.2499,-1.86834 -3.10462,-3.12103c-0.3557,-0.52133 -0.52007,-1.22131 -0.79406,-1.80493c-0.20889,-1.25075 -0.69462,-2.36428 -0.83394,-3.67631c-0.07412,-0.69809 0.03963,-1.36404 0.07415,-2.08204c0.06478,-1.34741 0.00909,-2.68076 0.49613,-4.07228c0.32912,-0.94033 0.93419,-1.81031 1.51177,-2.61135c0.15579,-0.21606 0.22454,-0.49724 0.41426,-0.68099c0.01693,-0.01638 0.03401,-0.03249 0.05128,-0.04833l-0.00722,-0.00693l0.45294,-0.52164c0.17072,-0.20399 0.42606,-0.31022 0.64264,-0.24706c0.21658,0.06316 0.33067,0.27714 0.30305,0.52286l-0.05801,0.6368l-0.01778,0.00262l0.01036,0.05299c-0.36141,1.42069 -0.56021,2.73424 -0.40908,4.08132c0.2559,1.15326 0.40003,2.27396 0.83311,3.34523c0.53401,1.32087 1.37008,2.39566 2.01301,3.63289c0.52284,1.00608 1.10926,2.00424 1.79283,2.90175z" fill="#ffffff" stroke="#000000" stroke-width="1"/><path d="M232.284,178.12607c0.01068,-0.1312 1.14683,0.02529 1.14683,0.02529c0.11266,0.15314 0.28713,0.26266 0.33798,0.45941c0.05444,0.21062 -0.01857,0.4669 -0.03777,0.70206c-0.12642,1.54948 -1.42462,2.96092 -2.86244,2.72878c-0.46531,-0.07512 -0.57481,-0.23191 -0.99485,-0.40761c-1.16719,-0.48819 -2.22348,-1.12671 -3.14514,-1.98904c-0.38357,-0.35887 -0.6259,-0.89195 -0.94717,-1.31399c-0.35917,-0.96636 -0.9399,-1.77768 -1.2472,-2.80444c-0.1635,-0.5463 -0.1589,-1.09761 -0.23067,-1.67759c-0.13466,-1.08842 -0.3722,-2.1459 -0.14553,-3.33862c0.15319,-0.806 0.55654,-1.60083 0.94575,-2.33601c0.10499,-0.1983 0.12496,-0.43448 0.26406,-0.61248c0.01241,-0.01587 0.025,-0.03155 0.03778,-0.04703l-0.00727,-0.00437l0.32032,-0.49131c0.11969,-0.19108 0.32691,-0.3178 0.5244,-0.30268c0.1975,0.01513 0.32714,0.16764 0.33794,0.36871l0.03979,0.51888l-0.01508,0.005l0.01654,0.04069c-0.11315,1.19552 -0.09998,2.27877 0.22258,3.33163c0.38628,0.88069 0.67065,1.75358 1.19955,2.53972c0.65214,0.96929 1.53235,1.69237 2.26747,2.57694c0.59778,0.71931 1.2498,1.42191 1.97213,2.02808z" fill="#ffffff" stroke="#000000" stroke-width="1"/><path d="M229.86152,179.05574c-0.01401,-0.09602 0.92345,-0.20944 0.92345,-0.20944c0.11664,0.08726 0.2753,0.13104 0.34991,0.26177c0.07989,0.13995 0.06546,0.33786 0.09056,0.50998c0.16533,1.1341 -0.63218,2.40192 -1.8244,2.52105c-0.38583,0.03856 -0.50057,-0.05195 -0.86742,-0.09435c-1.0194,-0.11784 -1.97584,-0.36528 -2.86286,-0.79961c-0.36915,-0.18076 -0.65509,-0.51423 -0.98517,-0.75256c-0.45414,-0.6204 -1.05918,-1.08589 -1.48215,-1.7598c-0.22504,-0.35857 -0.31625,-0.75408 -0.47355,-1.15495c-0.29523,-0.7523 -0.66758,-1.46206 -0.69117,-2.36072c-0.01596,-0.60728 0.17054,-1.2562 0.35596,-1.85964c0.05002,-0.16276 0.02537,-0.33576 0.10622,-0.49076c0.00719,-0.01382 0.01461,-0.02755 0.02218,-0.04117l-0.00658,-0.00169l0.17218,-0.41519c0.06305,-0.16051 0.20729,-0.29233 0.36816,-0.32069c0.16087,-0.02836 0.29103,0.05506 0.33429,0.19684l0.12117,0.36349l-0.01125,0.00657l0.02026,0.02585c0.11505,0.87815 0.31202,1.65085 0.75171,2.34042c0.46111,0.55371 0.83925,1.12205 1.3984,1.57979c0.68943,0.56437 1.51929,0.90727 2.26064,1.39454c0.60285,0.39623 1.24629,0.76974 1.9295,1.06029z" fill="#ffffff" stroke="#000000" stroke-width="1"/><path d="M230.8948,181.04878c-0.04535,-0.07744 0.87588,-0.52431 0.87588,-0.52431c0.14737,0.03167 0.32362,0.01026 0.44209,0.09502c0.12681,0.09073 0.17605,0.26649 0.2573,0.40532c0.53535,0.91479 0.13009,2.30335 -1.04961,2.85001c-0.38176,0.17691 -0.52824,0.14174 -0.9168,0.24189c-1.07966,0.27829 -2.13684,0.42153 -3.1835,0.37802c-0.43557,-0.01811 -0.83548,-0.19868 -1.24977,-0.28091c-0.66447,-0.36494 -1.43306,-0.5403 -2.08298,-0.96293c-0.34579,-0.22487 -0.56675,-0.53139 -0.85701,-0.81791c-0.54469,-0.53771 -1.15446,-1.01004 -1.4689,-1.77492c-0.2125,-0.51687 -0.23163,-1.14501 -0.23714,-1.73359c-0.0015,-0.15875 -0.08256,-0.29852 -0.05003,-0.46208c0.00289,-0.01459 0.00604,-0.02915 0.00938,-0.0437l-0.00727,0.00101l0.04177,-0.42159c0.01256,-0.16166 0.11734,-0.32889 0.27257,-0.41323c0.15521,-0.08434 0.31516,-0.061 0.40516,0.04494l0.24125,0.2678l-0.00935,0.00985l0.02904,0.0147c0.40126,0.71315 0.8522,1.30501 1.52424,1.73489c0.65005,0.30492 1.22002,0.65339 1.93924,0.83916c0.88677,0.22906 1.84547,0.21515 2.76037,0.35849c0.74398,0.11656 1.5221,0.19843 2.31405,0.19408z" fill="#ffffff" stroke="#000000" stroke-width="1"/><path d="M228.67528,173.81128c0.96622,-0.55708 5.08847,2.93326 6.05887,3.21628c1.95065,0.5689 2.7136,2.88548 1.70409,5.17425c-1.00951,2.28876 -3.4092,3.68299 -5.35986,3.11409c-1.11281,-0.32454 -4.79304,-3.81665 -5.02422,-4.94911c-0.04638,-0.22711 -0.16638,-2.01745 0.43365,-3.50587c0.65877,-1.63415 2.05109,-2.97101 2.18748,-3.04964z" fill="#ffffff" stroke="#000000" stroke-width="0"/><path d="M228.2469,174.0331c0.0577,-0.13079 0.19481,-0.21046 0.30629,-0.17795c0.11147,0.0325 0.15507,0.16489 0.09738,0.29567c-0.0577,0.13079 -0.19482,0.21045 -0.30629,0.17795c-0.11147,-0.0325 -0.15506,-0.16489 -0.09738,-0.29567z" fill="#000000" stroke="none" stroke-width="0.5"/><path d="M226.20699,176.97952c0.0577,-0.13079 0.19482,-0.21047 0.30629,-0.17796c0.11147,0.0325 0.15506,0.16489 0.09738,0.29568c-0.0577,0.13079 -0.19481,0.21046 -0.30627,0.17794c-0.11147,-0.0325 -0.15506,-0.16489 -0.09738,-0.29567z" fill="#000000" stroke="none" stroke-width="0.5"/><path d="M225.90696,180.50021c0.0577,-0.13079 0.19481,-0.21047 0.30629,-0.17796c0.11147,0.0325 0.15506,0.16489 0.09738,0.29567c-0.0577,0.13079 -0.19482,0.21046 -0.30629,0.17795c-0.11147,-0.0325 -0.15506,-0.16488 -0.09738,-0.29568z" fill="#000000" stroke="none" stroke-width="0.5"/></g><path d="M249,179.11001c0,6.89 -4,9.89 -9,9.89c-5,0 -9,-3 -9,-9.89c0,-6.11 6,-8.11 9,-6.11c3,-2 9,0 9,6.11z" fill="#00ffff" stroke="#000000" stroke-width="2" stroke-linejoin="round"/><path d="M241.5,168.00003c0,1.25 -1.5,5 -1.5,5" fill="none" stroke="#000000" stroke-width="2" stroke-linejoin="round"/><path d="M233,177.00003c0,-1.65685 1.34315,-3 3,-3c1.65685,0 3,1.34315 3,3c0,1.65685 -1.34315,3 -3,3c-1.65685,0 -3,-1.34315 -3,-3z" fill="#ffffff" stroke="none" stroke-width="1" stroke-linejoin="miter"/></g></g></svg>