<svg version="1.1" xmlns="http://www.w3.org/2000/svg" xmlns:xlink="http://www.w3.org/1999/xlink" width="55.98091" height="39.50204" viewBox="0,0,55.98091,39.50204"><g transform="translate(-202.33032,-140.44558)"><g stroke-miterlimit="10"><g><path d="M233.25762,145.18043l13.39985,8.96577l-13.63367,8.60603" fill="none" stroke="#000000" stroke-width="8" stroke-linejoin="round"/><path d="M246.54057,162.93211l-13.39985,-8.96577l13.63367,-8.60603" fill="none" stroke="#000000" stroke-width="8" stroke-linejoin="round"/><path d="M233.25762,145.18043l13.39985,8.96577l-13.63367,8.60603" fill="none" stroke="#b5b5b5" stroke-width="4" stroke-linejoin="round"/><path d="M246.54057,162.93211l-13.39985,-8.96577l13.63367,-8.60603" fill="none" stroke="#b5b5b5" stroke-width="4" stroke-linejoin="round"/><path d="M232.16394,146.85578l15.65918,0.20838" fill="none" stroke="#000000" stroke-width="2" stroke-linejoin="miter"/><path d="M230.87421,146.50062l0.05396,-4.05503l18.24763,0.24282l-0.05396,4.05503z" fill="none" stroke="#000000" stroke-width="4" stroke-linejoin="round"/><path d="M230.87421,146.50062l0.05396,-4.05503l18.24763,0.24282l-0.05396,4.05503z" fill="#00a99d" stroke="none" stroke-width="1" stroke-linejoin="miter"/><path d="M230.87421,146.50062l0.01799,-1.35168l18.24763,0.24282l-0.01798,1.35168z" fill="#009c92" stroke="none" stroke-width="1" stroke-linejoin="miter"/></g><g><path d="M255.25,158.6127l-5,-1.11111l3.88889,-6.66667z" fill="none" stroke="#000000" stroke-width="4" stroke-linejoin="round"/><path d="M255.25,158.6127l-5,-1.11111l3.88889,-6.66667z" fill="#b3b3b3" stroke="none" stroke-width="1" stroke-linejoin="miter"/></g><g><path d="M227.06728,171.71674l-4.76638,-14.16732h34.6636l-4.30271,14.24246z" fill="#00a99d" stroke="#000000" stroke-width="2" stroke-linejoin="miter"/><g><path d="M245.78914,168.38838v-5h5v5z" fill="#ffffff" stroke="#ffffff" stroke-width="2" stroke-linejoin="round"/><path d="M247.78914,167.38838v-3h3v3z" fill="#000000" stroke="none" stroke-width="1" stroke-linejoin="miter"/></g></g><path d="M207.75,178.94762l19.27287,-7.36286l25.55757,0.47639l-2.08044,6.88647z" fill="#007169" stroke="#000000" stroke-width="2" stroke-linejoin="miter"/><path d="M231.56728,170.46674l-2.64138,-11.91732l4.5386,-0.125l0.82229,12.24246z" fill="#008279" stroke="#000000" stroke-width="0" stroke-linejoin="miter"/></g></g></svg>