<svg version="1.1" xmlns="http://www.w3.org/2000/svg" xmlns:xlink="http://www.w3.org/1999/xlink" width="58.71001" height="18.98658" viewBox="0,0,58.71001,18.98658"><g transform="translate(-210.645,-175.93184)"><g data-paper-data="{&quot;isPaintingLayer&quot;:true}" fill-rule="nonzero" stroke-linecap="butt" stroke-miterlimit="10" stroke-dasharray="" stroke-dashoffset="0" style="mix-blend-mode: normal"><path d="M223.62493,185.20833c0,-1.59373 1.0324,-8.17708 17.12525,-8.27649c18.32108,-0.11317 17.70809,6.37501 17.70809,8.27649c0,4.80948 -10.46396,8.80624 -17.41667,8.70833c-12.11771,-0.17064 -17.41666,-3.89886 -17.41666,-8.70833z" fill="#ff0000" stroke="#000000" stroke-width="2" stroke-linejoin="miter"/><path d="M223.62493,185.20833h34.83333c0,0 -0.0187,0.46876 -0.05538,0.69951c-0.71254,4.4824 31.95291,7.61047 -17.36129,8.00882c-54.19949,0.43782 -16.73346,-3.56639 -17.37272,-8.08489c-0.02913,-0.20592 -0.04395,-0.62345 -0.04395,-0.62345z" fill="#00ff15" stroke="#000000" stroke-width="2" stroke-linejoin="miter"/><g><path d="M246.08334,186.45832v-2.5h7.66667v2.5z" fill="#ffffff" stroke="#ffffff" stroke-width="2" stroke-linejoin="round"/><path d="M249.15,185.95832v-1.5h4.6v1.5z" fill="#000000" stroke="none" stroke-width="1" stroke-linejoin="miter"/></g><g><path d="M224.22917,189.32891h7.1875v2.5h-7.1875z" fill="#ffffff" stroke="#ffffff" stroke-width="2" stroke-linejoin="round"/><path d="M223.75,190.24558h4.3125v1.5h-4.3125z" fill="#000000" stroke="none" stroke-width="1" stroke-linejoin="miter"/></g></g></g></svg>