<svg version="1.1" xmlns="http://www.w3.org/2000/svg" xmlns:xlink="http://www.w3.org/1999/xlink" width="235.22171" height="111.66" viewBox="0,0,235.22171,111.66"><g transform="translate(-124.54,-118.26)"><g data-paper-data="{&quot;isPaintingLayer&quot;:true}" fill-rule="nonzero" stroke-linecap="butt" stroke-linejoin="miter" stroke-miterlimit="10" stroke-dasharray="" stroke-dashoffset="0" style="mix-blend-mode: normal"><path d="M151.52,120.26h16.58v26h12.46v14.3h-29z" fill="none" stroke="#ffffff" stroke-width="4"/><path d="M184.9,120.26h29v13.46h-12.42v2.17h10v9.57h-10v2.28h13.19v12.8h-29.77z" fill="none" stroke="#ffffff" stroke-width="4"/><path d="M216.68,120.26h17.91l5.95,21.36h0.11l6.35,-21.36h16.19l-15.42,40.28h-15.68z" fill="none" stroke="#ffffff" stroke-width="4"/><path d="M266,120.26h29v13.46h-12.45v2.17h10v9.57h-10v2.28h13.19v12.8h-29.74z" fill="none" stroke="#ffffff" stroke-width="4"/><path d="M299.86,120.26h16.58v26h12.46v14.3h-29z" fill="none" stroke="#ffffff" stroke-width="4"/><path d="M126.54,187h29v13.46h-12.4v2.17h10v9.57h-10v2.28h13.16v12.8h-29.76z" fill="none" stroke="#ffffff" stroke-width="4"/><path d="M160.42,227.31v-40.31h16.86c7.79,0 13.8,2.39 17.86,6.28c3.71624,3.63316 5.82024,8.60488 5.84092,13.80198c0.02068,5.19709 -2.04371,10.18541 -5.73092,13.84802c-4.17,4 -10.24,6.35 -17.86,6.35zM177,214.18h0.39c2.30154,0.12697 4.55412,-0.69741 6.23,-2.28c1.20348,-1.27842 1.86323,-2.97439 1.84,-4.73c0.03611,-1.79065 -0.62344,-3.52557 -1.84,-4.84c-1.17,-1.23 -3.06,-2.17 -6.12,-2.17h-0.5z" fill="none" stroke="#ffffff" stroke-width="4"/><path d="M205,187h16.58v40.28h-16.58z" fill="none" stroke="#ffffff" stroke-width="4"/><path d="M237.15,200.71h-11.24v-13.71h39v13.68h-11.18v26.6h-16.58z" fill="none" stroke="#ffffff" stroke-width="4"/><path d="M289.78,186.42c12.63,0 22.48,9.06 22.48,20.75c0,11.69 -9.85,20.75 -22.48,20.75c-12.63,0 -22.47,-9.07 -22.47,-20.75c0,-11.68 9.84,-20.75 22.47,-20.75zM289.78,213.68c2.52566,0.00404 4.80469,-1.51479 5.77309,-3.84743c0.96839,-2.33264 0.43517,-5.019 -1.35075,-6.80491c-1.78591,-1.78591 -4.47228,-2.31914 -6.80491,-1.35074c-2.33263,0.96839 -3.85147,3.24742 -3.84743,5.77308c-0.00266,1.65312 0.65286,3.23928 1.82179,4.40821c1.16893,1.16893 2.75509,1.82445 4.40821,1.82179z" fill="none" stroke="#ffffff" stroke-width="4"/><path d="M316.27,187h16.52c8.29,0 19.59,2.06 19.59,12.79c0.05956,3.84755 -1.85327,7.45817 -5.07,9.57l9.18,17.92h-17.41l-6,-13.24h-0.22v13.24h-16.59zM334.07,204.8c2.62,0 3.79,-1.39 3.79,-3.12c0,-1.73 -1.23,-3.05 -3.79,-3.05h-1.22v6.17z" fill="none" stroke="#ffffff" stroke-width="4"/><path d="M151.52,120.26h16.58v26h12.46v14.3h-29z" fill="#000000" stroke="none" stroke-width="1"/><path d="M184.9,120.26h29v13.46h-12.42v2.17h10v9.57h-10v2.28h13.19v12.8h-29.77z" fill="#000000" stroke="none" stroke-width="1"/><path d="M216.68,120.26h17.91l5.95,21.36h0.11l6.35,-21.36h16.19l-15.42,40.28h-15.68z" fill="#000000" stroke="none" stroke-width="1"/><path d="M266,120.26h29v13.46h-12.45v2.17h10v9.57h-10v2.28h13.19v12.8h-29.74z" fill="#000000" stroke="none" stroke-width="1"/><path d="M299.86,120.26h16.58v26h12.46v14.3h-29z" fill="#000000" stroke="none" stroke-width="1"/><path d="M126.54,187h29v13.46h-12.4v2.17h10v9.57h-10v2.28h13.16v12.8h-29.76z" fill="#000000" stroke="none" stroke-width="1"/><path d="M160.42,227.31v-40.31h16.86c7.79,0 13.8,2.39 17.86,6.28c3.71624,3.63316 5.82024,8.60488 5.84092,13.80198c0.02068,5.19709 -2.04371,10.18541 -5.73092,13.84802c-4.17,4 -10.24,6.35 -17.86,6.35zM177,214.18h0.39c2.30154,0.12697 4.55412,-0.69741 6.23,-2.28c1.20348,-1.27842 1.86323,-2.97439 1.84,-4.73c0.03611,-1.79065 -0.62344,-3.52557 -1.84,-4.84c-1.17,-1.23 -3.06,-2.17 -6.12,-2.17h-0.5z" fill="#000000" stroke="none" stroke-width="1"/><path d="M205,187h16.58v40.28h-16.58z" fill="#000000" stroke="none" stroke-width="1"/><path d="M237.15,200.71h-11.24v-13.71h39v13.68h-11.18v26.6h-16.58z" fill="#000000" stroke="none" stroke-width="1"/><path d="M289.78,186.42c12.63,0 22.48,9.06 22.48,20.75c0,11.69 -9.85,20.75 -22.48,20.75c-12.63,0 -22.47,-9.07 -22.47,-20.75c0,-11.68 9.84,-20.75 22.47,-20.75zM289.78,213.68c2.52566,0.00404 4.80469,-1.51479 5.77309,-3.84743c0.96839,-2.33264 0.43517,-5.019 -1.35075,-6.80491c-1.78591,-1.78591 -4.47228,-2.31914 -6.80491,-1.35074c-2.33263,0.96839 -3.85147,3.24742 -3.84743,5.77308c-0.00266,1.65312 0.65286,3.23928 1.82179,4.40821c1.16893,1.16893 2.75509,1.82445 4.40821,1.82179z" fill="#000000" stroke="none" stroke-width="1"/><path d="M316.27,187h16.52c8.29,0 19.59,2.06 19.59,12.79c0.05956,3.84755 -1.85327,7.45817 -5.07,9.57l9.18,17.92h-17.41l-6,-13.24h-0.22v13.24h-16.59zM334.07,204.8c2.62,0 3.79,-1.39 3.79,-3.12c0,-1.73 -1.23,-3.05 -3.79,-3.05h-1.22v6.17z" fill="#000000" stroke="none" stroke-width="1"/></g></g></svg>