<svg version="1.1" xmlns="http://www.w3.org/2000/svg" xmlns:xlink="http://www.w3.org/1999/xlink" width="187" height="128.06" viewBox="0,0,187,128.06"><g transform="translate(-147,-88.27)"><g data-paper-data="{&quot;isPaintingLayer&quot;:true}" fill-rule="nonzero" stroke-miterlimit="10" stroke-dasharray="" stroke-dashoffset="0" style="mix-blend-mode: normal"><g fill="none" stroke-linecap="round" stroke-linejoin="round"><path d="M229.4,123.15l42.98,-30.88l15.94,120.06" stroke="#000000" stroke-width="8"/><path d="M229.4,123.15l42.98,-30.88l15.94,120.06" stroke="#b3b3b3" stroke-width="4"/></g><g fill="none" stroke-linecap="round" stroke-linejoin="round"><path d="M173.13,212.11l25.92,-118.31l40.69,33.97" stroke="#000000" stroke-width="8"/><path d="M173.13,212.11l25.92,-118.31l40.69,33.97" stroke="#b3b3b3" stroke-width="4"/></g><g fill="none" stroke-linecap="round" stroke-linejoin="round"><path d="M254.5,134.27l37.5,-37.5l38,115" stroke="#000000" stroke-width="8"/><path d="M254.5,134.27l37.5,-37.5l38,115" stroke="#b3b3b3" stroke-width="4"/></g><g fill="none" stroke-linecap="round" stroke-linejoin="round"><path d="M192.32,212.33l15.94,-120.06l37.98,30.88" stroke="#000000" stroke-width="8"/><path d="M192.32,212.33l15.94,-120.06l37.98,30.88" stroke="#b3b3b3" stroke-width="4"/></g><g fill="none" stroke-linecap="round" stroke-linejoin="round"><path d="M151,211.77l38,-115l37.5,37.5" stroke="#000000" stroke-width="8"/><path d="M151,211.77l38,-115l37.5,37.5" stroke="#b3b3b3" stroke-width="4"/></g><g fill="none" stroke-linecap="round" stroke-linejoin="round"><path d="M245.27,127.77l36.94,-33.97l25.92,118.31" stroke="#000000" stroke-width="8"/><path d="M245.27,127.77l36.94,-33.97l25.92,118.31" stroke="#b3b3b3" stroke-width="4"/></g><g stroke-linecap="butt"><path d="M276.04,144.88274h-72.6c-5.90945,0 -10.7,-4.79055 -10.7,-10.7v-11.64c-0.00144,-5.04951 3.53058,-9.41137 8.47,-10.46l36.3,-7.73c1.47051,-0.31002 2.98949,-0.31002 4.46,0l36.3,7.73c4.93942,1.04863 8.47145,5.41049 8.47,10.46v11.64c0,5.90945 -4.79055,10.7 -10.7,10.7z" fill="none" stroke="#000000" stroke-width="4" stroke-linejoin="round"/><path d="M276.04,144.88274h-72.6c-5.90945,0 -10.7,-4.79055 -10.7,-10.7v-11.64c-0.00144,-5.04951 3.53058,-9.41137 8.47,-10.46l36.3,-7.73c1.47051,-0.31002 2.98949,-0.31002 4.46,0l36.3,7.73c4.93942,1.04863 8.47145,5.41049 8.47,10.46v11.64c0,5.90945 -4.79055,10.7 -10.7,10.7z" fill="#a30000" stroke="none" stroke-width="1" stroke-linejoin="miter"/></g><path d="M275.74,135.88274l-36,-5l-37,5v-17l37.09,-7l35.91,7z" fill="#b50000" stroke="none" stroke-width="1" stroke-linecap="butt" stroke-linejoin="miter"/><path d="M232.74,135.88274v-25h14v25z" fill="#a30000" stroke="none" stroke-width="1" stroke-linecap="butt" stroke-linejoin="miter"/><path d="M236.74,120.88274v-6h6v6z" fill="#7d0000" stroke="none" stroke-width="1" stroke-linecap="butt" stroke-linejoin="miter"/><path d="M236.74,112.88274v-6h6v6z" fill="#7d0000" stroke="none" stroke-width="1" stroke-linecap="butt" stroke-linejoin="miter"/><path d="M236.74,128.88274v-6h6v6z" fill="#7d0000" stroke="none" stroke-width="1" stroke-linecap="butt" stroke-linejoin="miter"/><path d="M236.74,136.88274v-6h6v6z" fill="#7d0000" stroke="none" stroke-width="1" stroke-linecap="butt" stroke-linejoin="miter"/><path d="M236.74,144.88274v-6h6v6z" fill="#7d0000" stroke="none" stroke-width="1" stroke-linecap="butt" stroke-linejoin="miter"/><path d="M231.74,129.88274c0,-4.41828 3.58172,-8 8,-8c4.41828,0 8,3.58172 8,8c0,4.41828 -3.58172,8 -8,8c-4.41828,0 -8,-3.58172 -8,-8z" fill="#fffe6d" stroke="#000000" stroke-width="2" stroke-linecap="butt" stroke-linejoin="round"/><path d="M267.74,121.88274v11l-22,-3" fill="none" stroke="#000000" stroke-width="2" stroke-linecap="butt" stroke-linejoin="round"/><path d="M257.74,135.88274v-9" fill="none" stroke="#000000" stroke-width="2" stroke-linecap="butt" stroke-linejoin="round"/><path d="M239.74,145.88274v-9" fill="none" stroke="#000000" stroke-width="2" stroke-linecap="butt" stroke-linejoin="round"/><path d="M233.74,129.88274l-22,3v-11" fill="none" stroke="#000000" stroke-width="2" stroke-linecap="butt" stroke-linejoin="round"/><path d="M221.74,135.88274v-9" fill="none" stroke="#000000" stroke-width="2" stroke-linecap="butt" stroke-linejoin="round"/><g stroke-linecap="butt"><path d="M208.74,155.88274v-62h62v62z" fill="none" stroke="#000000" stroke-width="4" stroke-linejoin="round"/><path d="M208.74,155.88274v-62h62v62z" fill="#d10000" stroke="none" stroke-width="1" stroke-linejoin="miter"/></g><path d="M217.74,146.88274v-44h44v44z" fill="#ff0000" stroke="none" stroke-width="1" stroke-linecap="butt" stroke-linejoin="miter"/><path d="M261.74,146.88274h-44v-23l22,7l22,-7z" fill="#ffffff" stroke="none" stroke-width="1" stroke-linecap="butt" stroke-linejoin="miter"/><path d="M223.74,146.88274v-9h9v9z" fill="#000000" stroke="none" stroke-width="1" stroke-linecap="butt" stroke-linejoin="miter"/><path d="M246.74,146.88274v-9h9v9z" fill="#000000" stroke="none" stroke-width="1" stroke-linecap="butt" stroke-linejoin="miter"/><g stroke-linecap="butt"><path d="M253.83,157.88274h16l-8,16z" fill="none" stroke="#000000" stroke-width="4" stroke-linejoin="round"/><path d="M253.83,157.88274h16l-8,16z" fill="#b3b3b3" stroke="none" stroke-width="1" stroke-linejoin="miter"/></g><g stroke-linecap="butt"><path d="M209.83,157.88274h16l-8,16z" fill="none" stroke="#000000" stroke-width="4" stroke-linejoin="round"/><path d="M209.83,157.88274h16l-8,16z" fill="#b3b3b3" stroke="none" stroke-width="1" stroke-linejoin="miter"/></g><g stroke-linecap="butt"><path d="M231.83,157.88274h16l-8,16z" fill="none" stroke="#000000" stroke-width="4" stroke-linejoin="round"/><path d="M231.83,157.88274h16l-8,16z" fill="#b3b3b3" stroke="none" stroke-width="1" stroke-linejoin="miter"/></g></g></g></svg>