<svg version="1.1" xmlns="http://www.w3.org/2000/svg" xmlns:xlink="http://www.w3.org/1999/xlink" width="22.4" height="52.0141" viewBox="0,0,22.4,52.0141"><g transform="translate(-228.8,-156.98594)"><g data-paper-data="{&quot;isPaintingLayer&quot;:true}" fill-rule="nonzero" stroke-linecap="butt" stroke-miterlimit="10" stroke-dasharray="" stroke-dashoffset="0" style="mix-blend-mode: normal"><g><path d="M230.8,187.00004v-18h18.4v18z" fill="none" stroke="#000000" stroke-width="4" stroke-linejoin="round"/><path d="M230.8,187.00004v-18h18.4v18z" fill="#ffff00" stroke="none" stroke-width="1" stroke-linejoin="miter"/></g><g><path d="M245,202.00004v5h-10v-5h3v-35.55c-1.56787,-0.90521 -2.33228,-2.75064 -1.8637,-4.49938c0.46857,-1.74873 2.05328,-2.96472 3.8637,-2.96472c1.81042,0 3.39513,1.21599 3.8637,2.96472c0.46857,1.74873 -0.29583,3.59417 -1.8637,4.49938v35.55z" fill="none" stroke="#000000" stroke-width="4" stroke-linejoin="round"/><path d="M245,202.00004v5h-10v-5h3v-35.55c-1.56787,-0.90521 -2.33228,-2.75064 -1.8637,-4.49938c0.46857,-1.74873 2.05328,-2.96472 3.8637,-2.96472c1.81042,0 3.39513,1.21599 3.8637,2.96472c0.46857,1.74873 -0.29583,3.59417 -1.8637,4.49938v35.55z" fill="#3ac54d" stroke="none" stroke-width="1" stroke-linejoin="miter"/></g><path d="M230.8,187.00004v-18h18.4v18z" fill="#ffff00" stroke="none" stroke-width="1" stroke-linejoin="miter"/><g stroke="none" stroke-width="0.5" stroke-linejoin="miter"><path d="M231.02602,189.87338c-0.27376,-0.03531 -0.22217,-0.22263 -0.22217,-0.22263l0.12853,-0.28741c0.07087,-0.04782 0.14103,-0.09655 0.21049,-0.14609c-0.50555,-0.91449 -0.12097,-2.47085 -0.12097,-3.26752c0,-1.92069 0.22286,-3.7929 0.22286,-5.71885v-0.38126v0c0,-0.10528 0.12472,-0.19063 0.27858,-0.19063c0.08845,0 0.16727,0.02821 0.2183,0.07219c0.11537,0.00092 0.20155,0.0599 0.20155,0.0599c2.25974,1.55295 5.45086,1.46919 8.27185,1.46919c2.13455,0 5.36215,-2.09904 7.19293,-1.66527c1.15706,0.27414 1.18044,1.3869 1.76327,1.94854c0.10278,2.66118 -0.01476,4.91073 -1.28165,7.47887c-0.0945,0.14295 -0.20135,0.275 -0.31942,0.39688c0.00285,0.00292 0.00563,0.00576 0.00832,0.00852c0,0 0.15453,0.15861 -0.07727,0.26436c-0.10524,0.04801 -0.19455,0.04153 -0.2607,0.02014c-1.05744,0.81214 -2.73066,1.05405 -4.50678,1.07222c-0.25441,0.34181 -0.58641,0.629 -0.94134,0.61682c-0.05005,-0.00172 -0.66113,-0.46922 -0.87534,-0.66171c-1.25334,-0.06557 -2.47201,-0.18358 -3.4791,-0.2345c-0.0857,-0.00155 -0.17687,-0.00312 -0.27281,-0.00485c-0.17745,0.1325 -0.38435,0.18689 -0.62255,0.1244c-0.13825,-0.03628 -0.26989,-0.08681 -0.39584,-0.1491c-1.61684,-0.05396 -3.7203,-0.21244 -4.59728,-0.80705c-0.04595,-0.03115 -0.08895,-0.0647 -0.12915,-0.10043c-0.03227,0.0222 -0.06364,0.04382 -0.09398,0.06483l0.02502,0.08843c0,0 -0.0516,0.18733 -0.32535,0.15203zM233.21817,187.37016c1.13685,0.30877 2.21311,1.65019 2.99086,2.36081c0.01509,0.01378 0.1442,0.2142 0.30318,0.37571c0.22338,0.00527 0.43305,0.00893 0.62291,0.01208c0.40123,-0.51766 0.27981,-1.6839 0.55681,-2.43975l-0.17755,-0.06075l0.22016,-0.30131c0.04467,-0.06448 0.14066,-0.10907 0.25187,-0.10907c0.11113,0 0.20706,0.04453 0.25177,0.10893l0.21021,0.28712c0.80953,0.65515 1.70694,1.28405 2.43838,1.97066c0.07658,0.07189 0.28149,0.46423 0.47501,0.82215c0.34125,0.01487 0.68367,0.02449 1.023,0.02631c0.1577,-0.27471 0.2709,-0.5723 0.29401,-0.72281c0.30644,-0.47323 0.46971,-2.89372 0.95562,-3.0739c0.71166,-0.26389 2.7208,1.59478 3.59279,2.4501c0.05131,-0.0619 0.09936,-0.12646 0.14399,-0.19376c1.23497,-2.51067 1.12378,-4.65728 1.27106,-7.21941c-0.26805,-0.23402 -0.39238,-0.64937 -0.5948,-1.01662c-0.04951,0.41509 -0.18267,0.81397 -0.45159,1.19452c-0.50632,0.69293 -1.04447,2.28352 -1.82163,2.7847c-1.07945,0.69613 -2.53227,-2.18081 -2.66187,-3.20632c-0.21412,0.29304 -0.42825,0.58609 -0.64237,0.87913c-0.39294,0.53776 -1.58352,3.09332 -2.7453,3.00047c-0.9468,-0.07568 -1.95841,-3.92205 -2.5235,-3.36324c-0.69186,0.31194 -2.57336,2.18133 -3.53731,1.98339c-0.49385,-0.10141 -1.43592,-1.78763 -1.87289,-2.91711c-0.04478,1.65722 -0.21194,3.28421 -0.21194,4.94755c0,0.6406 -0.35039,2.09617 -0.01597,2.95177c0.60614,-0.47835 1.15548,-1.01006 1.65507,-1.53133zM241.7578,191.02082c0.12652,-0.00927 0.25549,-0.10293 0.37539,-0.23813c-0.18789,-0.00289 -0.37629,-0.00782 -0.56459,-0.01438c0.0891,0.1519 0.1595,0.25469 0.1892,0.25252zM245.05796,187.907c-0.41173,-0.29791 -1.21238,-1.36254 -1.13062,-0.95635c0.1723,0.85601 -0.16895,2.03781 -0.71038,2.8483c-0.0184,0.12871 -0.10794,0.36583 -0.24797,0.61893c1.57816,-0.03804 3.033,-0.28314 3.91823,-1.00565c-0.55416,-0.5366 -1.18827,-1.04144 -1.82926,-1.50523zM238.02377,187.84691c0.02926,0.56047 -0.13295,1.63511 -0.53184,2.27885c0.88797,0.04882 1.99524,0.16081 3.15124,0.23263c-0.66008,-0.93863 -1.57667,-1.65882 -2.6194,-2.51148zM233.39436,187.73185c-0.15211,0.5155 -0.92575,1.10624 -1.57944,1.56378c0.03905,0.0379 0.08164,0.07233 0.12801,0.10294c0.68178,0.4499 2.23222,0.61089 3.61274,0.67546c-0.82141,-0.71042 -1.41077,-1.84483 -2.16132,-2.34218zM247.67098,180.17115c-0.12051,-0.09691 -0.26569,-0.17263 -0.44624,-0.2161c-0.57418,-0.13823 -1.72033,0.43303 -2.20494,0.59884c-0.55099,0.18852 -1.04542,0.37023 -1.53037,0.52937l0.09491,0.12989l-0.10759,0.03681c0.61426,1.01061 0.64163,2.63519 1.72943,3.22266c0.04677,0.02526 0.64311,-1.02888 0.69038,-1.11025c0.337,-0.58002 0.79344,-1.13394 1.20099,-1.69171c0.33352,-0.43752 0.41632,-0.94328 0.41632,-1.43978zM242.53018,181.36379c-0.68728,0.17091 -1.41643,0.27773 -2.31512,0.27773c-0.77809,0 -1.57539,0.00297 -2.3712,-0.02104c0.76734,0.45517 1.13854,1.98321 1.50645,2.49077c0.18861,0.2602 0.04225,0.84642 0.46364,0.81154c0.74109,-0.06134 1.84005,-2.35989 2.15771,-2.79464c0.18617,-0.25479 0.37235,-0.50958 0.55851,-0.76437zM236.97228,181.58185c-1.72897,-0.10423 -3.4147,-0.3892 -4.84168,-1.16643c0.47377,0.65258 0.83028,1.39294 1.21085,2.03114c0.09085,0.15236 0.29542,1.04517 0.49864,1.11102c0.30243,0.09798 2.65643,-1.75225 3.01183,-1.91874c0.04085,-0.02147 0.08096,-0.04044 0.12035,-0.057z" fill="#000000"/><path d="M231.51492,188.92066c-0.33442,-0.85561 0.00857,-2.3276 0.00857,-2.9682c0,-1.66333 0.17931,-3.31695 0.22409,-4.97417c0.43697,1.12947 1.37022,2.82633 1.86407,2.92774c0.96395,0.19793 2.87129,-1.69176 3.56315,-2.00371c0.56508,-0.55881 1.56611,3.29262 2.51291,3.36829c1.16177,0.09286 2.3638,-2.40031 2.75674,-2.93807c0.21412,-0.29304 0.4792,-0.6539 0.69332,-0.94695c0.12961,1.0255 1.6113,3.92779 2.69075,3.23166c0.77716,-0.50118 1.21567,-2.06103 1.72199,-2.75397c0.26892,-0.38055 0.48904,-0.82694 0.53855,-1.24203c0.20242,0.36725 0.33172,0.78703 0.59977,1.02105c-0.14728,2.56214 -0.03629,4.75081 -1.27126,7.26149c-0.04463,0.06731 -0.18428,0.08845 -0.23559,0.15036c-0.87199,-0.85532 -2.78495,-2.6763 -3.49662,-2.41241c-0.48591,0.18017 -0.6779,2.62019 -0.98434,3.09343c-0.02311,0.15051 -0.1411,0.44934 -0.2988,0.72405c-0.33933,-0.00182 -0.68892,-0.01018 -1.03018,-0.02504c-0.19352,-0.35792 -0.4007,-0.75001 -0.47728,-0.82189c-0.73144,-0.6866 -1.66267,-1.31945 -2.47221,-1.97461l-0.21598,-0.28949c-0.04471,-0.0644 -0.14479,-0.11108 -0.25592,-0.11108c-0.11121,0 -0.13462,-0.01326 -0.17929,0.05122l-0.22152,0.30052l0.17538,0.05959c-0.27701,0.75585 -0.1668,1.91765 -0.56803,2.4353c-0.18985,-0.00316 -0.44759,0.06193 -0.67097,0.05665c-0.15898,-0.16152 -0.29161,-0.3633 -0.30669,-0.37709c-0.77775,-0.71061 -1.87638,-2.07042 -3.01323,-2.37919c-0.4996,0.52128 -1.04527,1.05816 -1.65141,1.53652z" data-paper-data="{&quot;noHover&quot;:false,&quot;origItem&quot;:[&quot;Path&quot;,{&quot;applyMatrix&quot;:true,&quot;segments&quot;:[[[229.71215,193.83624],[-0.75788,1.1556],[1.72457,0.68451]],[[234.2492,199.06985],[-1.17982,-1.57534],[0.02289,0.03056]],[[234.70912,199.90275],[-0.24117,-0.35806],[0.33886,0.01169]],[[235.65406,199.92953],[-0.288,-0.007],[0.60866,-1.14758]],[[236.49873,194.52091],[-0.42021,1.67562],[0,0]],[236.22938,194.38624],[[236.56337,193.71827],[0,0],[0.06776,-0.14294]],[[236.94545,193.47648],[-0.1687,0],[0.16858,0]],[[237.32738,193.71796],[-0.06783,-0.14277],[0,0]],[[237.64627,194.35447],[0,0],[1.22804,1.45239]],[[241.34522,198.72316],[-1.10958,-1.52211],[0.11617,0.15936]],[[242.06581,200.54576],[-0.29357,-0.79345],[0.51767,0.03295]],[[243.61767,200.60408],[-0.51476,-0.00403],[0.23922,-0.609]],[[244.06368,199.00172],[-0.03506,0.33366],[0.46486,-1.0491]],[[245.51332,192.18728],[-0.73711,0.39943],[1.07957,-0.58501]],[[250.9635,197.61883],[-1.32279,-1.89612],[0.07783,-0.13722]],[[251.18193,197.18929],[-0.0677,0.14921],[1.87342,-5.56584]],[[253.11009,181.18478],[-0.22342,5.67992],[-0.40663,-0.51879]],[[252.20779,178.93105],[0.30707,0.81415],[-0.0751,0.9202]],[[251.52274,181.57915],[0.40794,-0.84364],[-0.76807,1.53614]],[[248.75938,187.75247],[1.17893,-1.11106],[-1.6375,1.54323]],[[244.72139,180.64447],[0.19661,2.27341],[-0.32482,0.64964]],[[243.74693,182.59339],[0.32482,-0.64964],[-0.59608,1.19214]],[[239.58238,189.24504],[1.76238,0.20585],[-1.43627,-0.16776]],[[235.75431,181.78917],[0.85721,-1.23881],[-1.04953,0.69154]],[[230.38831,186.1861],[1.46228,0.43879],[-0.74916,-0.2248]],[[227.54719,179.71924],[0.66287,2.5039],[-0.06793,3.67384]],[[227.22568,190.68733],[0,-3.6874],[0,1.42012]],[[227.20145,197.23101],[-0.5073,-1.89676],[0.9195,-1.06045]]],&quot;closed&quot;:true}]}" fill="#610000"/><path d="M240.67947,190.38731c-1.15601,-0.07182 -2.33998,-0.18649 -3.22795,-0.23531c0.39889,-0.64374 0.57397,-1.77776 0.5447,-2.33823c1.04274,0.85266 2.02316,1.63491 2.68325,2.57354z" data-paper-data="{&quot;noHover&quot;:false,&quot;origItem&quot;:[&quot;Path&quot;,{&quot;applyMatrix&quot;:true,&quot;segments&quot;:[[[237.00212,194.89313],[1.58181,1.89023],[0.04439,1.2425]],[[236.19534,199.94504],[0.6051,-1.4271],[1.34703,0.10823]],[[240.97568,200.46075],[-1.75363,-0.15922],[-1.00133,-2.08082]]],&quot;closed&quot;:true}]}" fill="#ffffff"/><path d="M246.93548,189.43129c-0.88522,0.72252 -2.42186,0.979 -4.00001,1.01705c0.14003,-0.2531 0.22352,-0.49384 0.24192,-0.62254c0.54141,-0.81049 0.9013,-2.05445 0.729,-2.91046c-0.08176,-0.4062 0.74655,0.65592 1.15829,0.95383c0.64099,0.46379 1.31664,1.02553 1.8708,1.56213z" data-paper-data="{&quot;noHover&quot;:false,&quot;origItem&quot;:[&quot;Path&quot;,{&quot;applyMatrix&quot;:true,&quot;segments&quot;:[[[247.67279,195.02634],[0.97237,1.02817],[-0.62459,-0.66043]],[[245.95767,192.90624],[-0.12403,-0.90049],[0.26137,1.89766]],[[244.88005,199.22055],[0.82131,-1.79675],[-0.02791,0.28533]],[[244.50389,200.59264],[0.21242,-0.5611],[2.39402,-0.08434]],[[250.44773,198.36324],[-1.34286,1.60174],[-0.84064,-1.18958]]],&quot;closed&quot;:true}]}" fill="#ffffff"/><path d="M247.54497,180.19925c0,0.4965 -0.06429,1.01654 -0.39781,1.45406c-0.40756,0.55776 -0.90318,1.16647 -1.24018,1.74651c-0.04728,0.08137 -0.66018,1.13596 -0.70695,1.1107c-1.08779,-0.58747 -1.15544,-2.27104 -1.76969,-3.28165l0.10893,-0.03814l-0.09367,-0.13101c0.48495,-0.15914 1.01072,-0.35446 1.56171,-0.54298c0.48462,-0.16581 1.66826,-0.73397 2.24244,-0.59575c0.18056,0.04347 0.33285,0.12212 0.45336,0.21902z" data-paper-data="{&quot;noHover&quot;:false,&quot;origItem&quot;:[&quot;Path&quot;,{&quot;applyMatrix&quot;:true,&quot;segments&quot;:[[[251.63666,177.87696],[0,0],[-0.18281,-0.21483]],[[250.95973,177.39789],[0.2739,0.09636],[-0.87102,-0.30643]],[[247.61488,178.72543],[0.73516,-0.36758],[-0.83584,0.41792]],[[245.29335,179.89898],[0.73566,-0.35279],[0,0]],[245.43732,180.18693],[[245.27412,180.26853],[0,0],[0.93181,2.24038]],[[247.89761,187.41274],[-1.65015,-1.30234],[0.07095,0.056]],[[248.9449,184.95146],[-0.07172,0.18039],[0.51122,-1.28584]],[[250.76678,181.20117],[-0.61825,1.23649],[0.50594,-0.96991]],[[251.39832,178.00937],[0,1.10067],[0,0]]],&quot;closed&quot;:true}]}" fill="#ffffff"/><path d="M242.0145,182.10378c-0.31766,0.43474 -1.46737,2.79542 -2.20846,2.85676c-0.42139,0.03488 -0.2955,-0.55627 -0.4841,-0.81647c-0.36791,-0.50756 -0.75112,-2.09467 -1.51847,-2.54984c0.79581,0.02401 1.63421,0.00918 2.4123,0.00918c0.89869,0 1.66442,-0.09704 2.3517,-0.26794c-0.18617,0.25479 -0.3668,0.51352 -0.55297,0.76832z" data-paper-data="{&quot;noHover&quot;:false,&quot;origItem&quot;:[&quot;Path&quot;,{&quot;applyMatrix&quot;:true,&quot;segments&quot;:[[[243.83821,180.5209],[-0.28242,0.56484],[-1.04258,0.37888]],[[240.32624,181.1366],[1.36329,0],[-1.18034,0]],[[236.72919,181.08995],[1.20722,0.05322],[1.16404,1.00905]],[[239.01444,186.61167],[-0.55811,-1.12521],[0.28611,0.57683]],[[239.71777,188.41075],[-0.63923,0.07732],[1.12421,-0.13598]],[[242.99096,182.2154],[-0.48188,0.96377],[0.28242,-0.56484]]],&quot;closed&quot;:true}]}" fill="#ffffff"/><path d="M236.90632,181.6306c-0.35541,0.1665 -2.7803,2.06139 -3.08273,1.96342c-0.20323,-0.06584 -0.44004,-0.97662 -0.53089,-1.12897c-0.38057,-0.63821 -0.72873,-1.42328 -1.2025,-2.07586c1.42698,0.77723 3.20722,1.07936 4.93619,1.18359c-0.03939,0.01657 -0.07922,0.03635 -0.12007,0.05783z" data-paper-data="{&quot;noHover&quot;:false,&quot;origItem&quot;:[&quot;Path&quot;,{&quot;applyMatrix&quot;:true,&quot;segments&quot;:[[[235.40703,181.00431],[-0.05976,0.03672],[-2.6228,-0.23106]],[[228.06233,178.4185],[2.16469,1.72301],[0.71869,1.44669]],[[229.89915,182.92129],[-0.57731,-1.41483],[0.13781,0.33775]],[[230.65559,185.38427],[-0.3083,-0.14596],[0.45878,0.2172]],[[235.22446,181.13068],[-0.53914,0.3691],[0.06197,-0.0476]]],&quot;closed&quot;:true}]}" fill="#ffffff"/><path d="M235.59678,190.09977c-1.38053,-0.06458 -3.02352,-0.23667 -3.7053,-0.68657c-0.04638,-0.03061 -0.09078,-0.06849 -0.12983,-0.10638c0.65369,-0.45753 1.47127,-1.09705 1.62337,-1.61255c0.75054,0.49735 1.39035,1.69507 2.21176,2.4055z" data-paper-data="{&quot;noHover&quot;:false,&quot;origItem&quot;:[&quot;Path&quot;,{&quot;applyMatrix&quot;:true,&quot;segments&quot;:[[[229.97943,194.63807],[1.13855,1.10257],[-0.23074,1.1428]],[[227.58346,198.10476],[0.99163,-1.01429],[0.05924,0.08401]],[[227.77765,198.33295],[-0.07036,-0.06785],[1.03424,0.99737]],[[233.25808,199.83037],[-2.09422,-0.14316],[-1.24606,-1.57492]]],&quot;closed&quot;:true}]}" fill="#ffffff"/></g></g></g></svg>