<svg version="1.1" xmlns="http://www.w3.org/2000/svg" xmlns:xlink="http://www.w3.org/1999/xlink" width="67.65085" height="109.38541" viewBox="0,0,67.65085,109.38541"><g transform="translate(-213.55368,-72.44358)"><g data-paper-data="{&quot;isPaintingLayer&quot;:true}" fill-rule="nonzero" stroke-miterlimit="10" stroke-dasharray="" stroke-dashoffset="0" style="mix-blend-mode: normal"><g stroke-linecap="butt"><path d="M264.43311,84.29213h-8.26864l4.13432,-9.50894z" fill="none" stroke="#000000" stroke-width="4" stroke-linejoin="round"/><path d="M264.43311,84.29213h-8.26864l4.13432,-9.50894z" fill="#b3b3b3" stroke="none" stroke-width="1" stroke-linejoin="miter"/></g><g stroke-linecap="butt"><path d="M276.83608,84.29213h-8.26865l4.13432,-9.50894z" fill="none" stroke="#000000" stroke-width="4" stroke-linejoin="round"/><path d="M276.83608,84.29213h-8.26865l4.13432,-9.50894z" fill="#b3b3b3" stroke="none" stroke-width="1" stroke-linejoin="miter"/></g><g stroke-linecap="butt"><path d="M253.07849,83.95253h-8.26864l4.13432,-9.50894z" fill="none" stroke="#000000" stroke-width="4" stroke-linejoin="round"/><path d="M253.07849,83.95253h-8.26864l4.13432,-9.50894z" fill="#b3b3b3" stroke="none" stroke-width="1" stroke-linejoin="miter"/></g><g stroke-linecap="butt"><path d="M237.20366,90.93116l0.22383,8.26561l-9.61738,-3.87541z" fill="none" stroke="#000000" stroke-width="4" stroke-linejoin="round"/><path d="M237.20366,90.93116l0.22383,8.26561l-9.61738,-3.87541z" fill="#b3b3b3" stroke="none" stroke-width="1" stroke-linejoin="miter"/></g><g stroke-linecap="butt"><path d="M243.06902,83.55204l-5.44173,6.22561l-4.43858,-9.37079z" fill="none" stroke="#000000" stroke-width="4" stroke-linejoin="round"/><path d="M243.06902,83.55204l-5.44173,6.22561l-4.43858,-9.37079z" fill="#b3b3b3" stroke="none" stroke-width="1" stroke-linejoin="miter"/></g><g stroke-linecap="butt"><path d="M237.17154,102.29082l0.22383,8.26561l-9.61738,-3.87541z" fill="none" stroke="#000000" stroke-width="4" stroke-linejoin="round"/><path d="M237.17154,102.29082l0.22383,8.26561l-9.61738,-3.87541z" fill="#b3b3b3" stroke="none" stroke-width="1" stroke-linejoin="miter"/></g><g data-paper-data="{&quot;index&quot;:null}" stroke-linecap="butt"><g><path d="M269.30188,110.79236l-8.00116,7.43586l-3.81608,-4.10618l-5.6008,5.2051l3.05288,3.28495l-1.60023,1.48717l-3.05288,-3.28494l-2.40035,2.23076l3.81608,4.10619l-3.20045,2.97434l-5.34251,-5.74866l12.80183,-11.89737l-3.81607,-4.10618l8.00116,-7.43586zM257.59535,109.42758l3.05287,3.28495l3.20046,-2.97434l-3.05287,-3.28495z" fill="none" stroke="#000000" stroke-width="4" stroke-linejoin="round"/><path d="M269.30188,110.79236l-8.00116,7.43586l-3.81608,-4.10618l-5.6008,5.2051l3.05288,3.28495l-1.60023,1.48717l-3.05288,-3.28494l-2.40035,2.23076l3.81608,4.10619l-3.20045,2.97434l-5.34251,-5.74866l12.80183,-11.89737l-3.81607,-4.10618l8.00116,-7.43586zM257.59535,109.42758l3.05287,3.28495l3.20046,-2.97434l-3.05287,-3.28495z" fill="#f97b3d" stroke="none" stroke-width="1" stroke-linejoin="miter"/></g><g><path d="M254.39895,126.80858l-5.07272,9.67356l-4.96447,-2.6033l-3.55089,6.7715l3.97159,2.08265l-1.01454,1.93471l-3.97159,-2.08265l-1.52181,2.90208l4.96447,2.60331l-2.02907,3.86944l-6.95027,-3.64463l8.11632,-15.47772l-4.96447,-2.60331l5.0727,-9.67357zM242.90489,129.4148l3.97159,2.08265l2.02908,-3.86943l-3.97159,-2.08264z" fill="none" stroke="#000000" stroke-width="4" stroke-linejoin="round"/><path d="M254.39895,126.80858l-5.07272,9.67356l-4.96447,-2.6033l-3.55089,6.7715l3.97159,2.08265l-1.01454,1.93471l-3.97159,-2.08265l-1.52181,2.90208l4.96447,2.60331l-2.02907,3.86944l-6.95027,-3.64463l8.11632,-15.47772l-4.96447,-2.60331l5.0727,-9.67357zM242.90489,129.4148l3.97159,2.08265l2.02908,-3.86943l-3.97159,-2.08264z" fill="#903cfa" stroke="none" stroke-width="1" stroke-linejoin="miter"/></g><g><path d="M243.85312,147.29841l-0.68552,10.9014l-5.59458,-0.3518l-0.47986,7.63098l4.47568,0.28145l-0.1371,2.18028l-4.47568,-0.28144l-0.20565,3.27043l5.59458,0.3518l-0.27419,4.36056l-7.83243,-0.49252l1.09681,-17.44224l-5.59457,-0.35181l0.68552,-10.90139zM234.42191,154.36654l4.47568,0.28145l0.2742,-4.36056l-4.47568,-0.28144z" fill="none" stroke="#000000" stroke-width="4" stroke-linejoin="round"/><path d="M243.85312,147.29841l-0.68552,10.9014l-5.59458,-0.3518l-0.47986,7.63098l4.47568,0.28145l-0.1371,2.18028l-4.47568,-0.28144l-0.20565,3.27043l5.59458,0.3518l-0.27419,4.36056l-7.83243,-0.49252l1.09681,-17.44224l-5.59457,-0.35181l0.68552,-10.90139zM234.42191,154.36654l4.47568,0.28145l0.2742,-4.36056l-4.47568,-0.28144z" fill="#903cfa" stroke="none" stroke-width="1" stroke-linejoin="miter"/></g></g><path d="M244.20453,108.50001v-14h18v14z" fill="#000000" stroke="none" stroke-width="1" stroke-linecap="butt" stroke-linejoin="miter"/><g stroke="none" stroke-width="1" stroke-linecap="butt" stroke-linejoin="miter"><path d="M280.20453,108.64668h-42v-18.77333c0,-2.8277 2.68629,-5.12 6,-5.12h30c3.31371,0 6,2.2923 6,5.12z" fill="#9500ff"/><path d="M281.20453,109.50001h-44v-19.62667c0,-3.29898 3.13401,-5.97333 7,-5.97333h30c3.86599,0 7,2.67436 7,5.97333zM239.20453,107.79334h40v-17.92c0,-2.35642 -2.23858,-4.26667 -5,-4.26667h-30c-2.76143,0 -5,1.91025 -5,4.26667z" fill="#000000"/></g><path d="M272.50453,101.56001h-10.4" fill="none" stroke="#000000" stroke-width="2" stroke-linecap="round" stroke-linejoin="miter"/><path d="M280.20453,109.00001v14h-42v-14h32v-3c0,-1.10457 0.89543,-2 2,-2h3c1.10457,0 2,0.89543 2,2v3z" fill="#7a1cbe" stroke="#000000" stroke-width="2" stroke-linecap="butt" stroke-linejoin="miter"/><g data-paper-data="{&quot;index&quot;:null}" stroke-linecap="butt"><g><path d="M255.11496,114.97928l-8.00116,7.43585l-3.81607,-4.10618l-5.6008,5.2051l3.05287,3.28495l-1.60023,1.48717l-3.05287,-3.28495l-2.40035,2.23076l3.81607,4.10619l-3.20045,2.97434l-5.34252,-5.74866l12.80183,-11.89737l-3.81607,-4.10618l8.00116,-7.43585zM243.40843,113.6145l3.05287,3.28496l3.20046,-2.97434l-3.05287,-3.28496z" fill="none" stroke="#000000" stroke-width="4" stroke-linejoin="round"/><path d="M255.11496,114.97928l-8.00116,7.43585l-3.81607,-4.10618l-5.6008,5.2051l3.05287,3.28495l-1.60023,1.48717l-3.05287,-3.28495l-2.40035,2.23076l3.81607,4.10619l-3.20045,2.97434l-5.34252,-5.74866l12.80183,-11.89737l-3.81607,-4.10618l8.00116,-7.43585zM243.40843,113.6145l3.05287,3.28496l3.20046,-2.97434l-3.05287,-3.28496z" fill="#903cfa" stroke="none" stroke-width="1" stroke-linejoin="miter"/></g><g><path d="M240.21203,130.99548l-5.07272,9.67356l-4.96447,-2.6033l-3.55089,6.7715l3.97159,2.08265l-1.01454,1.93471l-3.97159,-2.08265l-1.52181,2.90208l4.96447,2.60331l-2.02907,3.86943l-6.95027,-3.64463l8.11632,-15.47772l-4.96447,-2.60331l5.07271,-9.67357zM228.71797,133.6017l3.97159,2.08265l2.02908,-3.86943l-3.97159,-2.08264z" fill="none" stroke="#000000" stroke-width="4" stroke-linejoin="round"/><path d="M240.21203,130.99548l-5.07272,9.67356l-4.96447,-2.6033l-3.55089,6.7715l3.97159,2.08265l-1.01454,1.93471l-3.97159,-2.08265l-1.52181,2.90208l4.96447,2.60331l-2.02907,3.86943l-6.95027,-3.64463l8.11632,-15.47772l-4.96447,-2.60331l5.07271,-9.67357zM228.71797,133.6017l3.97159,2.08265l2.02908,-3.86943l-3.97159,-2.08264z" fill="#903cfa" stroke="none" stroke-width="1" stroke-linejoin="miter"/></g><g><path d="M229.6662,151.48535l-0.68552,10.9014l-5.59459,-0.3518l-0.47986,7.63098l4.47568,0.28145l-0.1371,2.18028l-4.47568,-0.28145l-0.20565,3.27043l5.59459,0.3518l-0.27419,4.36056l-7.83243,-0.49252l1.09681,-17.44223l-5.59458,-0.35181l0.68552,-10.90139zM220.23499,158.55345l4.47568,0.28145l0.2742,-4.36056l-4.47568,-0.28144z" fill="none" stroke="#000000" stroke-width="4" stroke-linejoin="round"/><path d="M229.6662,151.48535l-0.68552,10.9014l-5.59459,-0.3518l-0.47986,7.63098l4.47568,0.28145l-0.1371,2.18028l-4.47568,-0.28145l-0.20565,3.27043l5.59459,0.3518l-0.27419,4.36056l-7.83243,-0.49252l1.09681,-17.44223l-5.59458,-0.35181l0.68552,-10.90139zM220.23499,158.55345l4.47568,0.28145l0.2742,-4.36056l-4.47568,-0.28144z" fill="#903cfa" stroke="none" stroke-width="1" stroke-linejoin="miter"/></g></g></g></g></svg>