<svg version="1.1" xmlns="http://www.w3.org/2000/svg" xmlns:xlink="http://www.w3.org/1999/xlink" width="228.23386" height="571.37311" viewBox="0,0,228.23386,571.37311"><g transform="translate(-130.88306,23.37311)"><g fill="#a3d6c1" stroke="none" stroke-miterlimit="10"><path d="M210,180h60c3.31371,0 6,2.68629 6,6v362h-72v-362c0,-3.31371 2.68629,-6 6,-6z" stroke-width="1"/><path d="M205.65641,174c0.09909,0 0.19426,0.00393 0.28565,0.01147c0.43636,-1.3897 0.93901,-2.72157 1.58772,-3.8258c0.47757,-0.81291 1.51493,-1.19155 2,-2c0.54233,-0.90388 0.45379,-2.09846 1,-3c1.56006,-2.57495 4.27683,-4.92632 6.19327,-7.27064c0.88025,-1.07678 1.31883,-2.54693 2.41587,-3.40179c2.18318,-1.70123 7.0633,-2.49707 9.72691,-3.38494c3.33412,-1.11137 5.59621,-2.34795 8.69219,-3.87408c4.02291,-1.98305 9.02687,-2.69894 13.30781,-4.12592c2.36956,-0.76607 4.92277,-0.75857 7.39011,-1.09601c1.95652,-0.26758 3.72174,-1.32568 5.60989,-1.90399c0.75053,-0.22987 1.66999,-0.11265 2.27309,-0.61506c0.77935,-0.64924 0.9604,-1.79829 1.58413,-2.59821c1.39572,-1.78997 2.63157,-3.7068 3.77108,-5.66984c0.50842,-0.87585 1.45648,-1.50653 1.76955,-2.46964c0.2937,-0.90353 -0.30225,-1.93665 -0.04039,-2.84992c0.4386,-1.5297 1.53034,-2.80271 2.08841,-4.29298c1.13124,-3.02086 2.422,-7.34473 2.87699,-10.53309c0.32732,-2.29369 -0.28244,-4.65115 0.00009,-6.95078c0.68055,-5.53939 0.93027,-10.64006 0.99991,-16.24831c-1.31484,-3.94214 -0.28673,-7.29281 -1.12369,-11.25258c-0.34692,-1.64134 -1.46848,-3.04467 -1.86348,-4.6751c-0.24051,-0.99277 0.1628,-2.05794 -0.01154,-3.06445c-0.57428,-3.31547 -2.33701,-7.27535 -3.77936,-10.30994c-1.90934,-4.01711 -6.75942,-5.78305 -10.19679,-8.05657c-0.71942,-0.47583 -1.01907,-1.50961 -1.81332,-1.84601c-4.35066,-1.84268 -8.7108,-1.01299 -13.14456,-1.72808c-1.04064,-0.16784 -1.9613,-0.82049 -3,-1c-2.79718,-0.48341 -6.37015,0.02537 -9.19909,0c-4.42359,1.47453 -9.93848,1.10622 -14.08613,3.65891c-0.80293,0.49416 -1.19084,1.51612 -2,2c-0.97415,0.58254 -2.19665,0.61982 -3.21595,1.11916c-5.11693,2.50671 -9.22825,8.3442 -11.9361,13.00903c-0.50842,0.87585 -1.40156,1.52615 -1.76955,2.46964c-0.45737,1.17265 0.70794,3.67186 0.97898,4.48497c0.37556,1.12668 0.89889,2.21896 1.09601,3.39011c0.14811,0.87997 -0.35871,1.82995 -0.07499,2.676c0.34064,1.01576 1.37238,1.66861 1.85306,2.62608c0.09869,0.19659 2.04241,6.06248 2.15451,6.39941c0.29533,1.2292 0.40212,2.51968 0.88599,3.68759c2.74937,6.63611 10.62714,7.51138 16.71371,7.51138c2.21653,0 9.65494,-0.77529 11.02811,1.03822c0.98485,1.30068 -0.4444,3.23489 -0.56039,4.86223c-0.15365,2.15567 -0.42245,4.33662 -1.09601,6.39011c-0.91162,2.77926 -1.64734,7.1024 -3.24508,9.52376c-3.28644,4.98055 -8.84153,8.33146 -14.00859,10.92174c-3.25588,1.62244 -7.05269,3.62271 -10.71758,4.23165c-2.43348,0.40434 -4.93361,0.03228 -7.40046,0.03228c-2.97392,0 -6.47128,0.44014 -9.40046,-0.03228c-1.04064,-0.16784 -1.9613,-0.82049 -3,-1c-2.29925,-0.39736 -4.68904,0.32235 -7,0c-1.04398,-0.14562 -1.96025,-0.82671 -3,-1c-2.94398,-0.49066 -6.07515,-0.43266 -9,-1c-1.35385,-0.26261 -2.71316,-0.66274 -3.91387,-1.34109c-0.82087,-0.46375 -1.19397,-1.51091 -2,-2c-0.78818,-0.47825 -1.79362,-0.45698 -2.64238,-0.81693c-3.52302,-1.49406 -6.73824,-2.9042 -10.35762,-4.18307c-3.19444,-3.19444 -8.23185,-3.62633 -10.8123,-7.8123c-3.1385,-5.09123 -3.40299,-12.29845 -4.34109,-17.91387c-0.88713,-5.31036 -2.35394,-10.72107 -3.02011,-16.15411c-1.24943,-10.1899 2.00656,-20.45932 2.00656,-30.5518c0.88829,-3.61038 1.73651,-8.28534 3.19498,-11.70593c0.48482,-1.13707 1.49437,-1.98696 2.04401,-3.09415c1.84808,-3.72273 3.26998,-8.00819 4.93258,-11.85118c0.47118,-1.0891 0.52924,-2.36735 1.18307,-3.35762c0.83953,-1.27152 2.22141,-2.09717 3.19327,-3.27064c2.41975,-2.92173 4.27844,-6.14406 7.47158,-8.44313c2.96398,-2.13408 6.17472,-3.62805 9.3634,-5.21768c3.87625,-1.9324 7.12485,-5.10446 11.05374,-7.02549c3.24153,-1.58495 5.85482,-1.91351 8.93911,-3.97099c3.83401,-1.328 8.24359,-2.49667 11.64376,-4.78583c0.83953,-0.56521 1.27702,-1.6534 2.17694,-2.11647c1.54871,-0.79692 3.392,-0.86241 4.98419,-1.56844c1.63351,-0.72435 2.94603,-2.10794 4.63331,-2.69628c1.02841,-0.35859 2.19246,0.12 3.26688,-0.05843c6.0511,-1.00492 11.96934,-3.99797 18,-5c3.57276,-0.59363 7.42109,0.45574 11,0c1.04565,-0.13315 1.95936,-0.83216 3,-1c5.53658,-0.89295 11.78473,-0.03228 17.40046,-0.03228c4.06866,0.03778 7.20626,1.52189 11.24634,2.01217c7.01873,0.85174 15.02649,2.51738 21.69625,5.17234c3.66686,1.45963 7.23882,3.73028 10.9591,4.96793c1.6322,0.54299 3.4462,0.42906 5.05502,1.03787c1.17189,0.44346 2.02101,1.50346 3.14167,2.06391c3.83518,1.91802 8.36734,2.95256 12.12643,5.06638c4.4938,2.52695 8.1036,6.40835 12.36016,9.24606c2.33433,2.31593 5.54868,4.84041 7.44313,7.47158c0.87103,1.20976 1.17307,2.75967 2,4c0.55519,0.83274 1.59118,1.28471 2.09852,2.14745c0.8736,1.48558 2.00404,6.70894 2.58638,8.01368c0.67463,1.51152 1.84775,2.76102 2.55827,4.256c0.97989,2.06177 0.8879,4.48065 1.21016,6.74057c0.5686,3.98751 1.43795,8.03375 2.00058,12.00475c1.12247,7.92231 1.73349,16.21327 1.96473,24.29365c0.14868,5.19567 -0.95507,10.11474 -0.96547,15.31113c-1.23853,5.04471 -2.15467,10.91481 -4.19498,15.70593c-0.47089,1.10576 -1.5217,1.89743 -2,3c-1.07351,2.47463 -0.986,5.33346 -1.94157,7.85598c-1.17242,3.09495 -3.46362,5.64069 -5.21809,8.44696c-1.8361,2.93684 -1.87205,4.92149 -4.35886,7.45344c-0.89918,0.9155 -2.18077,1.36397 -3.18279,2.16559c-1.47242,1.17794 -2.52859,2.82081 -4,4c-3.18766,2.5546 -6.81286,4.24027 -10.33016,6.22892c-4.02933,2.27815 -7.50512,5.68802 -11.47066,8.20481c-2.99007,1.202 -5.86067,2.68423 -8.82745,3.94261c-0.84873,0.36 -1.8542,0.33867 -2.64238,0.81693c-0.80603,0.48909 -1.19084,1.51612 -2,2c-1.82518,1.09147 -4.07947,1.46492 -5.72936,2.80673c-2.07917,1.69094 -3.92128,3.93849 -5.81721,5.83441c-1.50953,1.50953 -3.67609,2.53578 -4.59227,4.46398c-0.5335,1.12281 -0.39841,2.47012 -0.83079,3.63562c-1.51334,4.0793 -4.14217,8.14168 -4.87699,12.53309c-0.30805,1.84095 0.03228,3.733 0.03228,5.59954c0,0 0,2.5 -2.5,2.5c-0.00326,0 -0.00651,0 -0.00977,-0.00001c-0.12566,0.17097 -0.22247,0.26778 -0.22247,0.26778c-0.93702,0.84731 -1.6249,2.10723 -2.81106,2.54193c-1.42686,0.52291 -3.05413,-0.07219 -4.55625,0.15802c-2.0358,0.31199 -4.05613,0.72229 -6.095,1.01355c-1.36056,0.19436 -2.63585,0.83268 -4,1c-8.52973,1.04624 -18.0333,0.07799 -26.4625,-0.9748c-2.38863,-0.29833 -4.76674,-0.6757 -7.14841,-1.0252c-1.12797,-0.16553 -2.33933,0.27756 -3.419,-0.08854c-3.81808,-1.29465 -7.04637,-4.62946 -9.20889,-7.80776c-2.88109,-2.88109 -4.81088,-6.12936 -5.79611,-9.77946c-0.01277,-0.0124 -0.02553,-0.02498 -0.0383,-0.03775c-1.04601,-1.04601 -0.85415,-2.09201 -0.52311,-2.77179c-0.12972,-0.97233 -0.19939,-1.9708 -0.20912,-2.99598v-1c0,0 0,-2.5 2.5,-2.5z" stroke-width="0.5"/></g></g></svg>