<svg version="1.1" xmlns="http://www.w3.org/2000/svg" xmlns:xlink="http://www.w3.org/1999/xlink" width="81.98071" height="113.34253" viewBox="0,0,81.98071,113.34253"><g transform="translate(-201.7949,-95.85146)"><g data-paper-data="{&quot;isPaintingLayer&quot;:true}" fill-rule="nonzero" stroke-linecap="butt" stroke-miterlimit="10" stroke-dasharray="" stroke-dashoffset="0" style="mix-blend-mode: normal"><g data-paper-data="{&quot;index&quot;:null}"><g><path d="M257.5431,138.15734l-8.00116,7.43586l-3.81608,-4.10618l-5.6008,5.2051l3.05288,3.28495l-1.60023,1.48717l-3.05288,-3.28494l-2.40035,2.23076l3.81608,4.10619l-3.20045,2.97434l-5.34251,-5.74866l12.80183,-11.89737l-3.81607,-4.10618l8.00116,-7.43586zM245.83657,136.79256l3.05287,3.28495l3.20046,-2.97434l-3.05287,-3.28495z" fill="none" stroke="#000000" stroke-width="4" stroke-linejoin="round"/><path d="M257.5431,138.15734l-8.00116,7.43586l-3.81608,-4.10618l-5.6008,5.2051l3.05288,3.28495l-1.60023,1.48717l-3.05288,-3.28494l-2.40035,2.23076l3.81608,4.10619l-3.20045,2.97434l-5.34251,-5.74866l12.80183,-11.89737l-3.81607,-4.10618l8.00116,-7.43586zM245.83657,136.79256l3.05287,3.28495l3.20046,-2.97434l-3.05287,-3.28495z" fill="#f97b3d" stroke="none" stroke-width="1" stroke-linejoin="miter"/></g><g><path d="M242.64017,154.17356l-5.07272,9.67356l-4.96447,-2.6033l-3.55089,6.7715l3.97159,2.08265l-1.01454,1.93471l-3.97159,-2.08265l-1.52181,2.90208l4.96447,2.60331l-2.02907,3.86944l-6.95027,-3.64463l8.11632,-15.47772l-4.96447,-2.60331l5.0727,-9.67357zM231.14611,156.77978l3.97159,2.08265l2.02908,-3.86943l-3.97159,-2.08264z" fill="none" stroke="#000000" stroke-width="4" stroke-linejoin="round"/><path d="M242.64017,154.17356l-5.07272,9.67356l-4.96447,-2.6033l-3.55089,6.7715l3.97159,2.08265l-1.01454,1.93471l-3.97159,-2.08265l-1.52181,2.90208l4.96447,2.60331l-2.02907,3.86944l-6.95027,-3.64463l8.11632,-15.47772l-4.96447,-2.60331l5.0727,-9.67357zM231.14611,156.77978l3.97159,2.08265l2.02908,-3.86943l-3.97159,-2.08264z" fill="#64fa3c" stroke="none" stroke-width="1" stroke-linejoin="miter"/></g><g><path d="M232.09434,174.66341l-0.68552,10.9014l-5.59458,-0.3518l-0.47986,7.63098l4.47568,0.28145l-0.1371,2.18028l-4.47568,-0.28144l-0.20565,3.27043l5.59458,0.3518l-0.27419,4.36056l-7.83243,-0.49252l1.09681,-17.44224l-5.59457,-0.35181l0.68552,-10.90139zM222.66313,181.73152l4.47568,0.28145l0.2742,-4.36056l-4.47568,-0.28144z" fill="none" stroke="#000000" stroke-width="4" stroke-linejoin="round"/><path d="M232.09434,174.66341l-0.68552,10.9014l-5.59458,-0.3518l-0.47986,7.63098l4.47568,0.28145l-0.1371,2.18028l-4.47568,-0.28144l-0.20565,3.27043l5.59458,0.3518l-0.27419,4.36056l-7.83243,-0.49252l1.09681,-17.44224l-5.59457,-0.35181l0.68552,-10.90139zM222.66313,181.73152l4.47568,0.28145l0.2742,-4.36056l-4.47568,-0.28144z" fill="#64fa3c" stroke="none" stroke-width="1" stroke-linejoin="miter"/></g></g><path d="M227.09332,152.86466l-4.17659,-13.47007l51.53754,0.57372l-4.21315,12.89632z" fill="#b0ff00" stroke="#000000" stroke-width="2" stroke-linejoin="miter"/><path d="M222.94059,139.98468l-7.91839,-23.84699l33.57369,-19.13317l33.97316,19.64684l-7.90932,23.72794z" fill="#54ab00" stroke="#000000" stroke-width="2" stroke-linejoin="miter"/><g><path d="M259.58259,130.07122v-10.27329h10.27328v10.27329z" fill="#ffffff" stroke="#ffffff" stroke-width="2" stroke-linejoin="round"/><path d="M263.6919,128.01656v-6.16397h6.16397v6.16397z" fill="#000000" stroke="none" stroke-width="1" stroke-linejoin="miter"/></g><g data-paper-data="{&quot;index&quot;:null}"><g><path d="M243.35618,142.34426l-8.00116,7.43585l-3.81607,-4.10618l-5.6008,5.2051l3.05287,3.28495l-1.60023,1.48717l-3.05287,-3.28495l-2.40035,2.23076l3.81607,4.10619l-3.20045,2.97434l-5.34252,-5.74866l12.80183,-11.89737l-3.81607,-4.10618l8.00116,-7.43585zM231.64965,140.97948l3.05287,3.28496l3.20046,-2.97434l-3.05287,-3.28496z" fill="none" stroke="#000000" stroke-width="4" stroke-linejoin="round"/><path d="M243.35618,142.34426l-8.00116,7.43585l-3.81607,-4.10618l-5.6008,5.2051l3.05287,3.28495l-1.60023,1.48717l-3.05287,-3.28495l-2.40035,2.23076l3.81607,4.10619l-3.20045,2.97434l-5.34252,-5.74866l12.80183,-11.89737l-3.81607,-4.10618l8.00116,-7.43585zM231.64965,140.97948l3.05287,3.28496l3.20046,-2.97434l-3.05287,-3.28496z" fill="#64fa3c" stroke="none" stroke-width="1" stroke-linejoin="miter"/></g><g><path d="M228.45325,158.36048l-5.07272,9.67356l-4.96447,-2.6033l-3.55089,6.7715l3.97159,2.08265l-1.01454,1.93471l-3.97159,-2.08265l-1.52181,2.90208l4.96447,2.60331l-2.02907,3.86943l-6.95027,-3.64463l8.11632,-15.47772l-4.96447,-2.60331l5.07271,-9.67357zM216.95919,160.9667l3.97159,2.08265l2.02908,-3.86943l-3.97159,-2.08264z" fill="none" stroke="#000000" stroke-width="4" stroke-linejoin="round"/><path d="M228.45325,158.36048l-5.07272,9.67356l-4.96447,-2.6033l-3.55089,6.7715l3.97159,2.08265l-1.01454,1.93471l-3.97159,-2.08265l-1.52181,2.90208l4.96447,2.60331l-2.02907,3.86943l-6.95027,-3.64463l8.11632,-15.47772l-4.96447,-2.60331l5.07271,-9.67357zM216.95919,160.9667l3.97159,2.08265l2.02908,-3.86943l-3.97159,-2.08264z" fill="#64fa3c" stroke="none" stroke-width="1" stroke-linejoin="miter"/></g><g><path d="M217.90742,178.85033l-0.68552,10.9014l-5.59459,-0.3518l-0.47986,7.63098l4.47568,0.28145l-0.1371,2.18028l-4.47568,-0.28145l-0.20565,3.27043l5.59459,0.3518l-0.27419,4.36056l-7.83243,-0.49252l1.09681,-17.44223l-5.59458,-0.35181l0.68552,-10.90139zM208.47621,185.91844l4.47568,0.28145l0.2742,-4.36056l-4.47568,-0.28144z" fill="none" stroke="#000000" stroke-width="4" stroke-linejoin="round"/><path d="M217.90742,178.85033l-0.68552,10.9014l-5.59459,-0.3518l-0.47986,7.63098l4.47568,0.28145l-0.1371,2.18028l-4.47568,-0.28145l-0.20565,3.27043l5.59459,0.3518l-0.27419,4.36056l-7.83243,-0.49252l1.09681,-17.44223l-5.59458,-0.35181l0.68552,-10.90139zM208.47621,185.91844l4.47568,0.28145l0.2742,-4.36056l-4.47568,-0.28144z" fill="#64fa3c" stroke="none" stroke-width="1" stroke-linejoin="miter"/></g></g></g></g></svg>