<svg version="1.1" xmlns="http://www.w3.org/2000/svg" xmlns:xlink="http://www.w3.org/1999/xlink" width="72" height="379.79072" viewBox="0,0,72,379.79072"><g transform="translate(-204,-168.20928)"><g data-paper-data="{&quot;isPaintingLayer&quot;:true}" fill-rule="nonzero" stroke-linecap="butt" stroke-miterlimit="10" stroke-dasharray="" stroke-dashoffset="0" style="mix-blend-mode: normal"><path d="M210,180h60c3.31371,0 6,2.68629 6,6v362h-72v-362c0,-3.31371 2.68629,-6 6,-6z" fill="#a3d6c1" stroke="none" stroke-width="1" stroke-linejoin="miter"/><path d="M243.40895,172.25395c0,2.60975 -1.51509,3.74606 -3.40895,3.74606c-1.89386,0 -3.40895,-1.13632 -3.40895,-3.74606c0,-2.3143 2.27264,-3.07185 3.40895,-2.3143c1.13632,-0.75755 3.40895,0 3.40895,2.3143z" fill="#a3d6c1" stroke="#a3d6c1" stroke-width="0" stroke-linejoin="round"/><path d="M240.31816,168.20928c0,0.47347 -0.56816,1.89386 -0.56816,1.89386" fill="#a3d6c1" stroke="#a3d6c1" stroke-width="2" stroke-linejoin="round"/><path d="M254.74229,172.97742c0,2.60975 -1.51509,3.74606 -3.40895,3.74606c-1.89387,0 -3.40895,-1.13631 -3.40895,-3.74606c0,-2.3143 2.27264,-3.07185 3.40895,-2.3143c1.13631,-0.75754 3.40895,0 3.40895,2.3143z" fill="#a3d6c1" stroke="#a3d6c1" stroke-width="0" stroke-linejoin="round"/><path d="M251.65149,168.93275c0,0.47347 -0.56816,1.89387 -0.56816,1.89387" fill="#a3d6c1" stroke="#a3d6c1" stroke-width="2" stroke-linejoin="round"/><path d="M230.07562,173.70089c0,2.60975 -1.51509,3.74606 -3.40895,3.74606c-1.89387,0 -3.40895,-1.13631 -3.40895,-3.74606c0,-2.3143 2.27264,-3.07185 3.40895,-2.3143c1.13631,-0.75754 3.40895,0 3.40895,2.3143z" fill="#a3d6c1" stroke="#a3d6c1" stroke-width="0" stroke-linejoin="round"/><path d="M226.98483,169.65622c0,0.47347 -0.56816,1.89387 -0.56816,1.89387" fill="#a3d6c1" stroke="#a3d6c1" stroke-width="2" stroke-linejoin="round"/></g></g></svg>