<svg version="1.1" xmlns="http://www.w3.org/2000/svg" xmlns:xlink="http://www.w3.org/1999/xlink" width="63.71798" height="40.8426" viewBox="0,0,63.71798,40.8426"><g transform="translate(-196.39871,-144.71438)"><g data-paper-data="{&quot;isPaintingLayer&quot;:true}" fill-rule="nonzero" stroke-linecap="butt" stroke-miterlimit="10" stroke-dasharray="" stroke-dashoffset="0" style="mix-blend-mode: normal"><g data-paper-data="{&quot;index&quot;:null}" stroke-linejoin="miter"><path d="M225.99505,169.91041c-1.8339,-3.67074 -1.11347,-7.79309 1.60912,-9.20752c2.72258,-1.41443 6.41636,0.41468 8.25025,4.08541c1.83391,3.67075 1.11346,7.79308 -1.60912,9.20751c-2.72258,1.41443 -6.41634,-0.41468 -8.25023,-4.08541z" fill="#ffffff" stroke="#000000" stroke-width="2"/><path d="M221.27587,162.04238c-0.12944,-0.23898 2.2088,0.39187 2.2088,0.39187c0.3511,0.20794 1.34463,0.64505 1.57656,1.07347c1.52829,2.82275 0.88236,5.88584 -1.67524,6.28985c-0.82768,0.13075 -1.17783,-0.08548 -2.04545,-0.15896c-2.41092,-0.20421 -4.8125,-0.73827 -7.24878,-1.74612c-1.01388,-0.41944 -1.99655,-1.22831 -2.98143,-1.79527c-1.6533,-1.51183 -3.48764,-2.62264 -5.12548,-4.27113c-0.87143,-0.8771 -1.47977,-1.85853 -2.24215,-2.8475c-1.43074,-1.85596 -2.99137,-3.5986 -3.96099,-5.84487c-0.65525,-1.51794 -0.89809,-3.15805 -1.09695,-4.68428c-0.05363,-0.41166 -0.28543,-0.84229 -0.26186,-1.23728c0.00209,-0.03522 0.00473,-0.07021 0.00785,-0.10498l-0.01649,-0.00362l-0.03664,-1.05412c-0.02205,-0.40718 0.16765,-0.7498 0.50023,-0.83506c0.33259,-0.08526 0.71016,0.11191 0.95195,0.46277l0.64307,0.89865l-0.01855,0.01744l0.07187,0.06286c1.15421,2.1868 2.38496,4.10253 4.07632,5.78869c1.60096,1.34434 3.03036,2.73271 4.75373,3.8282c2.12488,1.35073 4.3394,2.13486 6.50231,3.28808c1.75882,0.93776 3.5857,1.81505 5.41726,2.48127z" fill="#ffffff" stroke="#000000" stroke-width="1"/><path d="M219.63541,166.0817c-0.13401,-0.18413 1.4148,-0.86568 1.4148,-0.86568c0.30771,0.1168 0.64129,0.12667 0.92312,0.35039c0.3017,0.23946 0.50045,0.64008 0.74065,0.97019c1.58251,2.17502 1.59378,5.08425 -0.40445,5.90104c-0.64666,0.26432 -0.95466,0.14015 -1.65921,0.23426c-1.95781,0.26148 -3.94994,0.23458 -6.02998,-0.19776c-0.86563,-0.17993 -1.7556,-0.70402 -2.61668,-1.01746c-1.5165,-1.01292 -3.12725,-1.64437 -4.64867,-2.77889c-0.80951,-0.60363 -1.42139,-1.34583 -2.1577,-2.06657c-1.38178,-1.35255 -2.85329,-2.58295 -3.91507,-4.35867c-0.7175,-1.19995 -1.12005,-2.5812 -1.47289,-3.87144c-0.09518,-0.34801 -0.33552,-0.6801 -0.36671,-1.02767c-0.00277,-0.03099 -0.0051,-0.06189 -0.007,-0.09265l-0.01368,-0.00014l-0.16299,-0.90948c-0.06929,-0.34987 0.03927,-0.68218 0.29497,-0.81683c0.25569,-0.13466 0.58324,-0.03202 0.82149,0.22887l0.62923,0.66395l-0.01266,0.01854l0.06556,0.04154c1.20214,1.69043 2.43126,3.13134 4.00037,4.28885c1.45332,0.87689 2.77475,1.82329 4.29461,2.46163c1.87397,0.78706 3.74791,1.06536 5.62732,1.67383c1.52828,0.4948 3.10344,0.92463 4.65558,1.17017z" fill="#ffffff" stroke="#000000" stroke-width="1"/><path d="M217.87818,169.21704c-0.12448,-0.11764 0.88183,-1.00492 0.88183,-1.00492c0.23873,0.0254 0.47958,-0.0404 0.71621,0.07622c0.2533,0.12484 0.45754,0.40128 0.68064,0.6122c1.47004,1.38971 1.92578,3.71377 0.61784,4.80853c-0.42326,0.35429 -0.66334,0.32304 -1.15434,0.55398c-1.36436,0.64173 -2.79777,1.06042 -4.35658,1.17429c-0.64872,0.04739 -1.36788,-0.17506 -2.03387,-0.23544c-1.24387,-0.47493 -2.49664,-0.62399 -3.76274,-1.19509c-0.67365,-0.30386 -1.22686,-0.7622 -1.86601,-1.17587c-1.19948,-0.77632 -2.44449,-1.43512 -3.47949,-2.62056c-0.6994,-0.80107 -1.20074,-1.81671 -1.65241,-2.77058c-0.12182,-0.25728 -0.34536,-0.46975 -0.42121,-0.74081c-0.00678,-0.02418 -0.01318,-0.04835 -0.01929,-0.07255l-0.00984,0.00291l-0.25689,-0.69131c-0.10356,-0.26449 -0.07677,-0.55424 0.08595,-0.71841c0.16272,-0.16418 0.41352,-0.1545 0.6246,0.0015l0.5536,0.39193l-0.00624,0.01762l0.05345,0.01874c1.12256,1.08622 2.2261,1.96691 3.52994,2.54586c1.17759,0.38013 2.27125,0.84497 3.45988,1.01961c1.46557,0.21532 2.85285,0.0238 4.29483,0.0951c1.17258,0.05796 2.3688,0.05364 3.52015,-0.09297z" fill="#ffffff" stroke="#000000" stroke-width="1"/><path d="M221.35947,171.07669c-0.14156,-0.06819 0.47168,-1.38943 0.47168,-1.38943c0.21363,-0.07315 0.40274,-0.24012 0.6409,-0.21949c0.25493,0.02207 0.51127,0.21893 0.76499,0.3412c1.67174,0.80565 2.73691,2.98379 1.92298,4.6415c-0.2634,0.53646 -0.47987,0.60424 -0.83743,1.04317c-0.99357,1.21968 -2.11122,2.24082 -3.42531,3.00351c-0.54689,0.31739 -1.23258,0.38916 -1.82551,0.60396c-1.21205,0.03227 -2.33761,0.40019 -3.59664,0.34375c-0.66988,-0.03004 -1.28031,-0.26737 -1.95211,-0.42356c-1.26072,-0.29313 -2.52689,-0.44763 -3.76369,-1.22572c-0.83577,-0.52579 -1.56237,-1.3523 -2.22823,-2.13649c-0.17959,-0.21152 -0.43412,-0.33518 -0.57799,-0.57982c-0.01284,-0.02182 -0.02535,-0.04379 -0.03763,-0.0659l-0.00767,0.00704l-0.42167,-0.59756c-0.16589,-0.22645 -0.22646,-0.53268 -0.13327,-0.76742c0.09319,-0.23473 0.3127,-0.32891 0.54015,-0.25757l0.59159,0.16953l-0.00028,0.02054l0.05157,-0.00307c1.28381,0.64067 2.4918,1.07992 3.78572,1.1287c1.12739,-0.10135 2.20672,-0.08161 3.28427,-0.39685c1.3286,-0.38868 2.47203,-1.1593 3.73865,-1.68492c1.03,-0.4274 2.06239,-0.92807 3.01493,-1.55506z" fill="#ffffff" stroke="#000000" stroke-width="1"/><path d="M210.41371,163.69602c-0.07674,-0.22047 -0.00019,-0.43476 0.17098,-0.47864c0.17116,-0.04388 0.37214,0.09927 0.44886,0.31975c0.07674,0.22047 0.00018,0.43475 -0.17099,0.47864c-0.17116,0.04388 -0.37213,-0.09927 -0.44885,-0.31974z" fill="#000000" stroke="none" stroke-width="0.5"/><path d="M211.69629,169.56322c-0.17116,0.04388 -0.37213,-0.09927 -0.44886,-0.31974c-0.07673,-0.22046 -0.00019,-0.43475 0.17099,-0.47863c0.17116,-0.04388 0.37212,0.09926 0.44887,0.31973c0.07674,0.22047 0.00018,0.43476 -0.17098,0.47865z" fill="#000000" stroke="none" stroke-width="0.5"/><path d="M215.27659,174.5153c-0.17116,0.04388 -0.37215,-0.09928 -0.44888,-0.31974c-0.07674,-0.22047 -0.00018,-0.43475 0.17099,-0.47864c0.17116,-0.04388 0.37213,0.09926 0.44886,0.31973c0.07673,0.22046 0.00019,0.43476 -0.17098,0.47864z" fill="#000000" stroke="none" stroke-width="0.5"/><path d="M227.42349,160.06051c-0.15737,-0.21768 2.1475,-0.06153 2.1475,-0.06153c0.36261,0.13941 1.3666,0.37894 1.64865,0.76919c1.85825,2.57124 1.69403,5.84439 -0.66737,6.79431c-0.76419,0.30741 -1.12711,0.1593 -1.95889,0.26587c-2.31135,0.29612 -4.662,0.2524 -7.11464,-0.26938c-1.0207,-0.21715 -2.06867,-0.83978 -3.08345,-1.21414c-1.78524,-1.20215 -3.68329,-1.95557 -5.47382,-3.30097c-0.95268,-0.71583 -1.67161,-1.59368 -2.53741,-2.44697c-1.62485,-1.60133 -3.35605,-3.05936 -4.60148,-5.15715c-0.84162,-1.41761 -1.31081,-3.04681 -1.72174,-4.56856c-0.11084,-0.41045 -0.39305,-0.803 -0.4284,-1.21257c-0.00316,-0.03653 -0.00577,-0.07291 -0.00789,-0.10917l-0.01616,-0.00024l-0.18849,-1.07214c-0.08029,-0.41249 0.04921,-0.80321 0.3515,-0.96024c0.3023,-0.15704 0.68838,-0.03419 0.9684,0.27454l0.73973,0.78578l-0.01501,0.02174l0.0772,0.04933c1.41143,1.9982 2.85573,3.70267 4.70244,5.07544c1.71125,1.04156 3.26657,2.16416 5.05735,2.92516c2.20801,0.93829 4.41814,1.2774 6.6333,2.0054c1.80131,0.59197 3.6582,1.10774 5.48871,1.40633z" fill="#ffffff" stroke="#000000" stroke-width="1"/><path d="M226.46057,164.54217c-0.15372,-0.16054 1.21253,-1.18332 1.21253,-1.18332c0.30824,0.05514 0.62537,-0.00464 0.92473,0.16545c0.32045,0.18208 0.567,0.55079 0.84249,0.8386c1.81504,1.89636 2.25031,4.87415 0.4785,6.12967c-0.5734,0.40632 -0.88298,0.34367 -1.536,0.58774c-1.81457,0.6782 -3.70375,1.06818 -5.73527,1.06126c-0.84544,-0.00288 -1.76414,-0.35322 -2.62477,-0.49382c-1.58297,-0.71977 -3.19944,-1.02898 -4.8048,-1.87228c-0.85416,-0.44868 -1.54155,-1.08073 -2.34353,-1.66471c-1.50504,-1.09591 -3.07715,-2.04789 -4.34112,-3.64435c-0.85412,-1.07883 -1.43665,-2.40936 -1.95887,-3.65712c-0.14085,-0.33655 -0.41678,-0.62633 -0.49701,-0.97586c-0.00717,-0.03117 -0.01386,-0.06231 -0.02016,-0.09344l-0.01297,0.0027l-0.28697,-0.89748c-0.11664,-0.34388 -0.06239,-0.70704 0.15993,-0.89857c0.22233,-0.19153 0.54729,-0.15506 0.81082,0.06228l0.69236,0.54825l-0.00926,0.02164l0.0681,0.02882c1.38435,1.47968 2.75781,2.69809 4.41165,3.55496c1.50332,0.59365 2.89195,1.28615 4.42342,1.6215c1.88829,0.41348 3.70229,0.30578 5.56966,0.53518c1.51849,0.18654 3.07184,0.2967 4.57653,0.22292z" fill="#ffffff" stroke="#000000" stroke-width="1"/><path d="M225.13347,168.16008c-0.13498,-0.09442 0.68784,-1.21426 0.68784,-1.21426c0.22963,-0.02402 0.44794,-0.14189 0.68889,-0.07202c0.25792,0.07478 0.49155,0.31517 0.73347,0.48446c1.59398,1.11547 2.36445,3.40067 1.28647,4.79626c-0.34885,0.45164 -0.5806,0.46994 -1.01156,0.80942c-1.1975,0.94333 -2.49287,1.67269 -3.95142,2.11605c-0.60699,0.18453 -1.32002,0.10737 -1.9591,0.1851c-1.24643,-0.22581 -2.45373,-0.11591 -3.73526,-0.43556c-0.68185,-0.17007 -1.27226,-0.52363 -1.93749,-0.81343c-1.24841,-0.54384 -2.52277,-0.95774 -3.67525,-1.95516c-0.77878,-0.67401 -1.40144,-1.60933 -1.96809,-2.49179c-0.15285,-0.23801 -0.3954,-0.40881 -0.50673,-0.67058c-0.00992,-0.02334 -0.01954,-0.04677 -0.02885,-0.07028l-0.00889,0.00504l-0.34399,-0.65432c-0.13659,-0.24923 -0.15354,-0.55164 -0.02352,-0.75394c0.13004,-0.2023 0.36878,-0.24493 0.5913,-0.12937l0.5811,0.28545l-0.00331,0.01936l0.05328,0.00799c1.22086,0.87743 2.39372,1.5483 3.7121,1.86808c1.16988,0.14258 2.27271,0.38952 3.42304,0.31928c1.41835,-0.08659 2.70323,-0.57355 4.07825,-0.80276c1.11813,-0.18638 2.24951,-0.44152 3.3177,-0.83303z" fill="#ffffff" stroke="#000000" stroke-width="1"/><path d="M228.69936,169.33539c-0.14391,-0.04018 0.2436,-1.52217 0.2436,-1.52217c0.19149,-0.11972 0.34606,-0.33036 0.57446,-0.35917c0.24446,-0.03083 0.51581,0.11709 0.77377,0.18917c1.69962,0.4749 3.02553,2.48289 2.4972,4.35161c-0.17098,0.60475 -0.36596,0.71955 -0.64026,1.24413c-0.76226,1.45766 -1.67088,2.73794 -2.80316,3.79464c-0.47121,0.43976 -1.10962,0.65699 -1.6394,1.0013c-1.14227,0.28709 -2.15377,0.89991 -3.35347,1.10598c-0.63832,0.10964 -1.25064,-0.00556 -1.90919,-0.02475c-1.23586,-0.03603 -2.45663,0.07108 -3.74062,-0.46675c-0.86767,-0.36344 -1.67591,-1.05781 -2.42048,-1.72156c-0.20083,-0.17903 -0.45975,-0.25236 -0.6316,-0.47281c-0.01533,-0.01966 -0.0304,-0.03955 -0.04523,-0.05961l-0.00623,0.00882l-0.48626,-0.52375c-0.19003,-0.19719 -0.29203,-0.49818 -0.23812,-0.75818c0.05392,-0.25999 0.24791,-0.40247 0.47357,-0.37708l0.58458,0.04968l0.00272,0.02109l0.04835,-0.01396c1.30842,0.38721 2.51568,0.58398 3.7473,0.36276c1.05208,-0.34012 2.07639,-0.54611 3.05012,-1.09489c1.20059,-0.67662 2.17018,-1.70568 3.29213,-2.50959c0.91234,-0.65371 1.81628,-1.38295 2.6262,-2.22489z" fill="#ffffff" stroke="#000000" stroke-width="1"/><path d="M217.32829,163.44747c0.29545,-1.65496 8.92147,-2.04093 10.27588,-2.74458c2.72258,-1.41443 6.41636,0.41468 8.25025,4.08541c1.83391,3.67075 1.11346,7.79308 -1.60912,9.20751c-1.55318,0.8069 -9.7263,0.72374 -11.38601,-0.32028c-0.33286,-0.20937 -2.70397,-2.11931 -3.95474,-4.44674c-1.37323,-2.55532 -1.61795,-5.5477 -1.57625,-5.78133z" fill="#ffffff" stroke="#000000" stroke-width="0"/><path d="M217.16568,164.15257c-0.10479,-0.20976 -0.06363,-0.44532 0.09196,-0.52614c0.15556,-0.08082 0.36665,0.0237 0.47144,0.23346c0.10479,0.20976 0.06363,0.44532 -0.09196,0.52615c-0.15556,0.08082 -0.36664,-0.02369 -0.47144,-0.23346z" fill="#000000" stroke="none" stroke-width="0.5"/><path d="M218.76429,169.66051c-0.1048,-0.20977 -0.06364,-0.44531 0.09196,-0.52614c0.15558,-0.08082 0.36664,0.02369 0.47144,0.23345c0.1048,0.20977 0.06363,0.44533 -0.09194,0.52615c-0.15558,0.08082 -0.36665,-0.0237 -0.47145,-0.23346z" fill="#000000" stroke="none" stroke-width="0.5"/><path d="M222.87521,173.98288c-0.10479,-0.20975 -0.06363,-0.44532 0.09194,-0.52614c0.15558,-0.08082 0.36666,0.02368 0.47145,0.23345c0.10479,0.20975 0.06362,0.44533 -0.09195,0.52614c-0.15558,0.08082 -0.36665,-0.02369 -0.47144,-0.23346z" fill="#000000" stroke="none" stroke-width="0.5"/></g><path d="M220.60653,165.3104c0,0 0.01888,-0.9906 0.05595,-1.47861c0.75508,-9.93872 9.05855,-17.76795 19.19063,-17.76795c10.21188,0 18.56623,7.95305 19.20705,18.00317c0.02621,0.41109 0.03952,1.24339 0.03952,1.24339z" fill="#4effff" stroke="#000000" stroke-width="2" stroke-linejoin="miter"/><path d="M220.60652,165.3104h38.49315c0,0 -0.01482,0.87807 -0.04398,1.31144c-0.6741,10.01796 -9.01376,17.93514 -19.20259,17.93514c-10.28032,0 -18.67812,-8.06001 -19.2189,-18.20552c-0.01837,-0.34469 -0.02768,-1.04105 -0.02768,-1.04105z" fill="#52b4ff" stroke="#000000" stroke-width="2" stroke-linejoin="miter"/><g><path d="M246.41429,163.06239v-6.84382h6.84382v6.84382z" fill="#ffffff" stroke="#ffffff" stroke-width="2" stroke-linejoin="round"/><path d="M249.15181,161.69363v-4.10629h4.10629v4.10629z" fill="#000000" stroke="none" stroke-width="1" stroke-linejoin="miter"/></g><g data-paper-data="{&quot;index&quot;:null}" stroke-linejoin="miter"><path d="M227.12491,170.13672c-2.32249,-3.36977 -2.21638,-7.55163 0.23698,-9.34043c2.45336,-1.7888 6.32494,-0.50715 8.64742,2.86263c2.32249,3.36978 2.21638,7.55163 -0.23698,9.34043c-2.45336,1.7888 -6.32493,0.50715 -8.64741,-2.86263z" fill="#ffffff" stroke="#000000" stroke-width="2"/><path d="M221.37709,163.0265c-0.16101,-0.21796 2.21343,0.07191 2.21343,0.07191c0.37294,0.15555 1.40634,0.44598 1.69488,0.83671c1.90122,2.57444 1.71437,5.69756 -0.7243,6.46301c-0.78919,0.24771 -1.16241,0.08384 -2.02019,0.13518c-2.38359,0.14267 -4.80584,-0.04236 -7.33064,-0.69121c-1.05072,-0.27004 -2.12739,-0.92987 -3.17116,-1.35003c-1.83333,-1.25947 -3.78532,-2.09628 -5.62335,-3.49318c-0.97795,-0.74324 -1.71413,-1.62732 -2.60181,-2.49685c-1.66588,-1.6318 -3.44217,-3.13289 -4.71438,-5.21682c-0.85973,-1.40822 -1.33448,-2.99631 -1.74979,-4.478c-0.11202,-0.39965 -0.40073,-0.79259 -0.43495,-1.18679c-0.00306,-0.03515 -0.00556,-0.07014 -0.00755,-0.10499l-0.01662,-0.00122l-0.18851,-1.03776c-0.08053,-0.39973 0.05504,-0.76585 0.36742,-0.89777c0.31238,-0.13192 0.7096,0.0092 0.99652,0.32177l0.7581,0.79721l-0.01558,0.01991l0.07928,0.05192c1.44382,1.99868 2.92309,3.71822 4.81885,5.14474c1.75796,1.10123 3.35478,2.27057 5.19619,3.10808c2.27043,1.03264 4.54628,1.49186 6.82522,2.32364c1.85318,0.67638 3.76404,1.28319 5.64889,1.68049z" fill="#ffffff" stroke="#000000" stroke-width="1"/><path d="M220.36065,167.25776c-0.15753,-0.16303 1.25596,-1.05885 1.25596,-1.05885c0.31737,0.07157 0.6445,0.03364 0.9521,0.2147c0.32928,0.1938 0.58138,0.56176 0.86374,0.85404c1.86031,1.92579 2.29286,4.80271 0.46015,5.8966c-0.59309,0.354 -0.91181,0.27518 -1.5861,0.46904c-1.87369,0.53865 -3.82269,0.79689 -5.91626,0.66653c-0.87126,-0.05426 -1.81617,-0.44556 -2.70233,-0.63257c-1.62747,-0.78539 -3.29168,-1.17987 -4.94156,-2.08487c-0.87786,-0.48152 -1.58284,-1.12839 -2.40619,-1.73624c-1.54513,-1.1407 -3.16019,-2.14771 -4.4542,-3.75288c-0.87444,-1.0847 -1.46761,-2.3938 -1.99908,-3.61998c-0.14336,-0.33073 -0.42615,-0.62494 -0.50696,-0.96439c-0.0072,-0.03027 -0.01395,-0.0605 -0.02026,-0.09067l-0.01338,0.00182l-0.29092,-0.87657c-0.11835,-0.33627 -0.0605,-0.6806 0.16965,-0.85039c0.23014,-0.1698 0.56482,-0.11508 0.83525,0.10899l0.71058,0.56698l-0.00967,0.02015l0.07003,0.03172c1.4187,1.5007 2.82759,2.75065 4.52737,3.67159c1.54607,0.65983 2.97342,1.40729 4.54989,1.82158c1.94377,0.5108 3.81379,0.51822 5.73699,0.85154c1.56389,0.27106 3.16414,0.47112 4.71521,0.49214z" fill="#ffffff" stroke="#000000" stroke-width="1"/><path d="M219.09921,170.61126c-0.13859,-0.0986 0.7154,-1.1204 0.7154,-1.1204c0.23677,-0.00901 0.4624,-0.10855 0.71034,-0.027c0.2654,0.0873 0.50488,0.33162 0.75328,0.50841c1.63669,1.16484 2.41843,3.39922 1.29999,4.66944c-0.36194,0.41107 -0.60087,0.41448 -1.04681,0.71319c-1.23917,0.83004 -2.57806,1.44927 -4.08357,1.78483c-0.62654,0.13965 -1.36095,0.02237 -2.01997,0.05785c-1.28332,-0.29207 -2.5281,-0.26042 -3.84707,-0.64446c-0.70178,-0.20434 -1.30833,-0.57873 -1.99233,-0.89665c-1.28364,-0.59662 -2.59472,-1.07045 -3.77705,-2.09539c-0.79896,-0.69261 -1.43562,-1.62585 -2.01485,-2.50507c-0.15623,-0.23715 -0.40527,-0.41541 -0.51861,-0.67277c-0.01012,-0.02296 -0.01988,-0.04595 -0.02935,-0.06902l-0.00919,0.00429l-0.35099,-0.64728c-0.13944,-0.24689 -0.15527,-0.53741 -0.02018,-0.72312c0.13509,-0.18571 0.38137,-0.21199 0.61007,-0.08782l0.59732,0.30864l-0.00354,0.01833l0.0549,0.0109c1.25345,0.91425 2.45854,1.62786 3.81549,2.01427c1.20487,0.20773 2.34006,0.51129 3.52593,0.51413c1.46216,0.00349 2.78894,-0.38436 4.20721,-0.52c1.1533,-0.11031 2.32064,-0.28563 3.42357,-0.59532z" fill="#ffffff" stroke="#000000" stroke-width="1"/><path d="M222.76777,171.95351c-0.1481,-0.04722 0.25921,-1.44221 0.25921,-1.44221c0.19799,-0.10293 0.35844,-0.29517 0.59396,-0.30881c0.2521,-0.01462 0.53093,0.14351 0.79637,0.22822c1.74901,0.55812 3.10464,2.56096 2.55012,4.31755c-0.17944,0.56846 -0.38098,0.66648 -0.66651,1.1519c-0.79338,1.34887 -1.73668,2.51905 -2.90923,3.46159c-0.48798,0.39224 -1.14709,0.56129 -1.69489,0.85861c-1.17875,0.20523 -2.22443,0.73021 -3.46191,0.8544c-0.65841,0.06606 -1.28882,-0.08149 -1.96739,-0.13997c-1.27343,-0.10977 -2.53209,-0.0816 -3.85243,-0.67463c-0.89223,-0.40074 -1.72143,-1.11464 -2.48519,-1.79534c-0.206,-0.1836 -0.47244,-0.26957 -0.64836,-0.49106c-0.0157,-0.01975 -0.0311,-0.0397 -0.04629,-0.05982l-0.00646,0.00806l-0.4983,-0.53097c-0.19478,-0.20034 -0.2983,-0.49468 -0.24132,-0.74027c0.05697,-0.24558 0.25765,-0.37015 0.49008,-0.33209l0.60219,0.08315l0.0027,0.02036l0.04991,-0.01042c1.34633,0.45035 2.58945,0.71224 3.85988,0.57548c1.08608,-0.26148 2.14279,-0.39628 3.14922,-0.86227c1.24091,-0.57455 2.24568,-1.50054 3.40624,-2.20171c0.94375,-0.57017 1.87922,-1.21316 2.71842,-1.96974z" fill="#ffffff" stroke="#000000" stroke-width="1"/><path d="M211.011,166.21583c-0.10687,-0.20717 -0.06318,-0.43014 0.09758,-0.49803c0.16077,-0.06789 0.37774,0.04501 0.4846,0.25219c0.10687,0.20717 0.06317,0.43014 -0.09759,0.49804c-0.16077,0.06789 -0.37773,-0.04501 -0.48459,-0.25219z" fill="#000000" stroke="none" stroke-width="0.5"/><path d="M213.11344,171.83772c-0.16077,0.06789 -0.37773,-0.04501 -0.4846,-0.25219c-0.10687,-0.20716 -0.06318,-0.43013 0.0976,-0.49803c0.16077,-0.06789 0.37772,0.045 0.4846,0.25217c0.10687,0.20717 0.06318,0.43015 -0.09759,0.49805z" fill="#000000" stroke="none" stroke-width="0.5"/><path d="M217.32675,176.2256c-0.16077,0.06789 -0.37774,-0.04502 -0.48461,-0.25218c-0.10687,-0.20717 -0.06317,-0.43014 0.09759,-0.49804c0.16077,-0.06789 0.37772,0.045 0.48459,0.25218c0.10687,0.20716 0.06318,0.43014 -0.09758,0.49803z" fill="#000000" stroke="none" stroke-width="0.5"/><path d="M227.09239,160.18652c-0.1852,-0.19288 2.08788,-0.36794 2.08788,-0.36794c0.37425,0.08609 1.38924,0.17955 1.72118,0.52534c2.18694,2.2784 2.50087,5.54048 0.33287,6.81803c-0.7016,0.41343 -1.07741,0.31878 -1.87412,0.54316c-2.21387,0.62348 -4.51536,0.91634 -6.9857,0.75076c-1.02807,-0.06891 -2.14152,-0.53513 -3.18657,-0.76043c-1.91728,-0.93419 -3.87968,-1.40827 -5.82288,-2.48345c-1.03391,-0.57206 -1.86306,-1.33785 -2.83207,-2.05833c-1.81851,-1.3521 -3.72011,-2.54721 -5.24009,-4.44478c-1.02716,-1.28231 -1.72134,-2.82723 -2.34307,-4.27417c-0.1677,-0.39027 -0.50012,-0.73832 -0.59398,-1.13851c-0.00837,-0.03569 -0.0162,-0.07132 -0.02352,-0.10689l-0.01581,0.00207l-0.33939,-1.03387c-0.13816,-0.39666 -0.06834,-0.80177 0.20406,-1.00037c0.27241,-0.19861 0.66718,-0.13226 0.98532,0.13318l0.83612,0.67171l-0.01151,0.02366l0.08253,0.03777c1.66764,1.7753 3.32481,3.25527 5.32683,4.34949c1.82177,0.78588 3.50303,1.67425 5.36179,2.17116c2.29183,0.61268 4.49891,0.63219 6.76726,1.03577c1.84455,0.32816 3.73233,0.57298 5.56289,0.60668z" fill="#ffffff" stroke="#000000" stroke-width="1"/><path d="M226.80159,164.75857c-0.17335,-0.13687 1.01244,-1.3442 1.01244,-1.3442c0.30895,0.01048 0.60993,-0.094 0.92687,0.03148c0.33926,0.13434 0.63343,0.4639 0.9441,0.70928c2.04697,1.61682 2.90343,4.50095 1.35537,5.99656c-0.50098,0.48402 -0.81233,0.46629 -1.41457,0.80116c-1.67346,0.9305 -3.46153,1.58649 -5.44609,1.87012c-0.8259,0.11804 -1.77367,-0.09724 -2.63435,-0.1133c-1.64988,-0.48583 -3.27299,-0.56065 -4.96265,-1.16551c-0.89901,-0.32182 -1.66174,-0.84891 -2.52941,-1.31205c-1.6283,-0.86914 -3.30123,-1.58628 -4.76668,-2.98517c-0.99028,-0.94532 -1.75185,-2.17851 -2.44253,-3.33843c-0.18629,-0.31285 -0.49769,-0.56013 -0.62668,-0.8945c-0.01152,-0.02982 -0.02257,-0.05968 -0.03323,-0.08957l-0.01227,0.00453l-0.41023,-0.84698c-0.16371,-0.32357 -0.16337,-0.69066 0.02596,-0.91196c0.18932,-0.2213 0.5119,-0.23167 0.8007,-0.05431l0.75545,0.44347l-0.00591,0.02274l0.07067,0.01878c1.56607,1.26613 3.08365,2.27529 4.8226,2.88664c1.55385,0.37244 3.01003,0.85906 4.55393,0.9719c1.90361,0.13912 3.65918,-0.22682 5.5157,-0.26685c1.50967,-0.03256 3.0423,-0.14566 4.50078,-0.43381z" fill="#ffffff" stroke="#000000" stroke-width="1"/><path d="M226.03005,168.52805c-0.14547,-0.07412 0.49566,-1.29979 0.49566,-1.29979c0.22073,-0.0566 0.4168,-0.20445 0.66218,-0.16976c0.26267,0.03711 0.52562,0.24156 0.78635,0.37447c1.71798,0.87578 2.80138,3.02669 1.95107,4.56169c-0.27517,0.49675 -0.4988,0.548 -0.87039,0.94552c-1.03254,1.1046 -2.19164,2.01148 -3.55151,2.65872c-0.56593,0.26937 -1.2733,0.29498 -1.88603,0.46327c-1.24973,-0.0452 -2.41259,0.23617 -3.71018,0.10313c-0.69039,-0.07079 -1.31809,-0.33619 -2.00961,-0.52782c-1.29774,-0.35959 -2.60198,-0.58691 -3.87177,-1.40902c-0.85806,-0.55554 -1.60154,-1.39196 -2.28268,-2.18408c-0.18373,-0.21364 -0.44529,-0.34795 -0.59193,-0.59105c-0.01307,-0.02168 -0.02586,-0.04348 -0.03835,-0.06541l-0.00794,0.00626l-0.43067,-0.59823c-0.16948,-0.22707 -0.22985,-0.52387 -0.13221,-0.74263c0.09765,-0.21875 0.32458,-0.29508 0.55859,-0.21255l0.60874,0.19934l-0.00043,0.01962l0.05319,0.00029c1.31917,0.6936 2.56155,1.1897 3.89513,1.31759c1.16292,-0.02621 2.27549,0.06044 3.38848,-0.17354c1.37232,-0.28849 2.5563,-0.95402 3.86564,-1.37742c1.06472,-0.34429 2.13243,-0.75851 3.11866,-1.29862z" fill="#ffffff" stroke="#000000" stroke-width="1"/><path d="M229.68205,169.18109c-0.14633,-0.01918 0.01729,-1.54094 0.01729,-1.54094c0.16962,-0.14583 0.29003,-0.37636 0.50886,-0.43751c0.23422,-0.06546 0.5206,0.04211 0.78291,0.07654c1.7283,0.22687 3.31386,2.02408 3.06878,3.94862c-0.07931,0.62281 -0.25306,0.76428 -0.44487,1.32255c-0.53305,1.55126 -1.23471,2.94796 -2.18714,4.15541c-0.39636,0.50249 -0.98822,0.80872 -1.45561,1.22514c-1.07371,0.44739 -1.97252,1.19838 -3.11404,1.57381c-0.60736,0.19975 -1.22192,0.17332 -1.8677,0.2485c-1.2119,0.14106 -2.38833,0.4216 -3.71993,0.07303c-0.89985,-0.23553 -1.78961,-0.80701 -2.61278,-1.3573c-0.22203,-0.14843 -0.48547,-0.18396 -0.6852,-0.37751c-0.01782,-0.01726 -0.03541,-0.03479 -0.0528,-0.05252l-0.0048,0.00962l-0.55067,-0.4487c-0.21412,-0.16793 -0.35733,-0.45117 -0.34236,-0.71613c0.01497,-0.26496 0.18374,-0.43367 0.40775,-0.44081l0.57797,-0.03443l0.00571,0.02047l0.04519,-0.02073c1.33364,0.19604 2.5409,0.21811 3.71139,-0.17688c0.97796,-0.48697 1.94824,-0.83724 2.81945,-1.51946c1.0742,-0.84115 1.8718,-1.99799 2.85077,-2.95383c0.79608,-0.77727 1.573,-1.62806 2.24181,-2.57691z" fill="#ffffff" stroke="#000000" stroke-width="1"/><path d="M217.7263,164.98122c0.04867,-1.67973 8.41511,-3.29504 9.63558,-4.18492c2.45336,-1.7888 6.32494,-0.50715 8.64742,2.86263c2.32249,3.36978 2.21638,7.55163 -0.23698,9.34043c-1.39959,1.02047 -9.39179,2.10682 -11.16359,1.31114c-0.35533,-0.15957 -2.94722,-1.71031 -4.5057,-3.83433c-1.71107,-2.332 -2.38361,-5.25781 -2.37674,-5.49494z" fill="#ffffff" stroke="#000000" stroke-width="0"/><path d="M217.6697,165.70212c-0.13271,-0.19256 -0.12665,-0.43152 0.01355,-0.53374c0.14018,-0.10221 0.36143,-0.02898 0.49414,0.16359c0.13271,0.19256 0.12665,0.43152 -0.01356,0.53374c-0.14018,0.10221 -0.36142,0.02898 -0.49414,-0.16358z" fill="#000000" stroke="none" stroke-width="0.5"/><path d="M220.02867,170.92336c-0.13273,-0.19257 -0.12666,-0.43152 0.01355,-0.53374c0.1402,-0.10222 0.36143,-0.02899 0.49414,0.16358c0.13273,0.19257 0.12666,0.43153 -0.01353,0.53374c-0.1402,0.10222 -0.36143,0.02898 -0.49414,-0.16359z" fill="#000000" stroke="none" stroke-width="0.5"/><path d="M224.66882,174.61231c-0.1327,-0.19255 -0.12665,-0.43152 0.01354,-0.53373c0.1402,-0.10222 0.36144,-0.02899 0.49415,0.16358c0.1327,0.19255 0.12664,0.43153 -0.01355,0.53374c-0.1402,0.10222 -0.36143,0.02899 -0.49414,-0.16358z" fill="#000000" stroke="none" stroke-width="0.5"/></g></g></g></svg>