<svg version="1.1" xmlns="http://www.w3.org/2000/svg" xmlns:xlink="http://www.w3.org/1999/xlink" width="62" height="62" viewBox="0,0,62,62"><g transform="translate(-209,-149)"><g data-paper-data="{&quot;isPaintingLayer&quot;:true}" fill-rule="nonzero" stroke-linecap="butt" stroke-miterlimit="10" stroke-dasharray="" stroke-dashoffset="0" style="mix-blend-mode: normal"><path d="M209,211v-62h62v62z" fill="#39b54a" stroke="none" stroke-width="0" stroke-linejoin="round"/><path d="M245,202.00004v5h-10v-5h3v-35.55c-1.56787,-0.90521 -2.33228,-2.75064 -1.8637,-4.49938c0.46857,-1.74873 2.05328,-2.96472 3.8637,-2.96472c1.81042,0 3.39513,1.21599 3.8637,2.96472c0.46857,1.74873 -0.29583,3.59417 -1.8637,4.49938v35.55z" fill="none" stroke="#267931" stroke-width="4" stroke-linejoin="round"/><g><path d="M266,184.97004c-9.6,-1.9 -14.4,3 -24,1.06v-18c9.6,1.9 14.4,-3 24,-1.06c-2.15063,2.8001 -4.15336,5.71074 -6,8.72c2.4,3.42 3.6,5.21 6,9.28z" fill="none" stroke="#267931" stroke-width="4" stroke-linejoin="round"/><path d="M266,184.97004c-9.6,-1.9 -14.4,3 -24,1.06v-18c9.6,1.9 14.4,-3 24,-1.06c-2.15063,2.8001 -4.15336,5.71074 -6,8.72c2.4,3.42 3.6,5.21 6,9.28z" fill="#ffff00" stroke="none" stroke-width="1" stroke-linejoin="miter"/></g><path d="M266,184.97004c-9.6,-1.9 -14.4,3 -24,1.06v-18c9.6,1.9 14.4,-3 24,-1.06c-2.15063,2.8001 -4.15336,5.71074 -6,8.72c2.4,3.42 3.6,5.21 6,9.28z" fill="#39b54a" stroke="none" stroke-width="1" stroke-linejoin="miter"/><path d="M245,202.00004v5h-10v-5h3v-35.55c-1.56787,-0.90521 -2.33228,-2.75064 -1.8637,-4.49938c0.46857,-1.74873 2.05328,-2.96472 3.8637,-2.96472c1.81042,0 3.39513,1.21599 3.8637,2.96472c0.46857,1.74873 -0.29583,3.59417 -1.8637,4.49938v35.55z" fill="#39b54a" stroke="none" stroke-width="1" stroke-linejoin="miter"/></g></g></svg>