<svg version="1.1" xmlns="http://www.w3.org/2000/svg" xmlns:xlink="http://www.w3.org/1999/xlink" width="66.70023" height="60.72977" viewBox="0,0,66.70023,60.72977"><g transform="translate(-206.62968,-149.13512)"><g data-paper-data="{&quot;isPaintingLayer&quot;:true}" fill-rule="nonzero" stroke-linecap="butt" stroke-miterlimit="10" stroke-dasharray="" stroke-dashoffset="0" style="mix-blend-mode: normal"><g><g><path d="M249.94094,161.77904l-7.18508,-4.09206l8.29841,-6.21682z" fill="none" stroke="#000000" stroke-width="4" stroke-linejoin="round"/><path d="M249.94094,161.77904l-7.18508,-4.09206l8.29841,-6.21682z" fill="#b3b3b3" stroke="none" stroke-width="1" stroke-linejoin="miter"/></g><g><path d="M260.36841,167.71771l-7.18508,-4.09206l8.29841,-6.21682z" fill="none" stroke="#000000" stroke-width="4" stroke-linejoin="round"/><path d="M260.36841,167.71771l-7.18508,-4.09206l8.29841,-6.21682z" fill="#b3b3b3" stroke="none" stroke-width="1" stroke-linejoin="miter"/></g><g><path d="M270.21658,173.32646l-7.18508,-4.09206l8.29841,-6.21682z" fill="none" stroke="#000000" stroke-width="4" stroke-linejoin="round"/><path d="M270.21658,173.32646l-7.18508,-4.09206l8.29841,-6.21682z" fill="#b3b3b3" stroke="none" stroke-width="1" stroke-linejoin="miter"/></g><g data-paper-data="{&quot;index&quot;:null}"><path d="M228.90532,151.13512l8.29841,6.21682l-7.18509,4.09206z" fill="none" stroke="#000000" stroke-width="4" stroke-linejoin="round"/><path d="M228.90532,151.13512l8.29841,6.21682l-7.18509,4.09206z" fill="#b3b3b3" stroke="none" stroke-width="1" stroke-linejoin="miter"/></g><g data-paper-data="{&quot;index&quot;:null}"><path d="M218.47784,157.07378l8.29841,6.21682l-7.18509,4.09206z" fill="none" stroke="#000000" stroke-width="4" stroke-linejoin="round"/><path d="M218.47784,157.07378l8.29841,6.21682l-7.18509,4.09206z" fill="#b3b3b3" stroke="none" stroke-width="1" stroke-linejoin="miter"/></g><g data-paper-data="{&quot;index&quot;:null}"><path d="M208.62968,162.68254l8.29841,6.21682l-7.18509,4.09206z" fill="none" stroke="#000000" stroke-width="4" stroke-linejoin="round"/><path d="M208.62968,162.68254l8.29841,6.21682l-7.18509,4.09206z" fill="#b3b3b3" stroke="none" stroke-width="1" stroke-linejoin="miter"/></g><path d="M219.77569,208.86489l-3.89215,-12.55271l48.02768,0.53465l-3.92623,12.01804z" fill="#ff0000" stroke="#000000" stroke-width="2" stroke-linejoin="miter"/><path d="M215.90577,196.86206l-7.37912,-22.22293l31.28722,-17.83014l31.65948,18.30883l-7.37067,22.112z" fill="#ab0000" stroke="#000000" stroke-width="2" stroke-linejoin="miter"/><g><path d="M250.05234,187.62375v-9.57364l9.57364,1.77778v7.79586z" fill="#ffffff" stroke="#ffffff" stroke-width="2" stroke-linejoin="round"/><path d="M253.88179,185.70901v-5.74419h5.74419v5.74419z" fill="#000000" stroke="none" stroke-width="1" stroke-linejoin="miter"/></g></g></g></g></svg>