<svg version="1.1" xmlns="http://www.w3.org/2000/svg" xmlns:xlink="http://www.w3.org/1999/xlink" width="62" height="62" viewBox="0,0,62,62"><g transform="translate(-209,-149)"><g data-paper-data="{&quot;isPaintingLayer&quot;:true}" fill-rule="nonzero" stroke-linecap="butt" stroke-miterlimit="10" stroke-dasharray="" stroke-dashoffset="0" style="mix-blend-mode: normal"><path d="M209,211v-62h62v62z" fill="#39b54a" stroke="none" stroke-width="0" stroke-linejoin="round"/><path d="M245,202.00004v5h-10v-5h3v-35.55c-1.56787,-0.90521 -2.33228,-2.75064 -1.8637,-4.49938c0.46857,-1.74873 2.05328,-2.96472 3.8637,-2.96472c1.81042,0 3.39513,1.21599 3.8637,2.96472c0.46857,1.74873 -0.29583,3.59417 -1.8637,4.49938v35.55z" fill="none" stroke="#267931" stroke-width="4" stroke-linejoin="round"/><g stroke="none" stroke-width="1" stroke-linejoin="miter"><path d="M261.18265,189.50004c-2.65439,-0.05714 -5.29548,-0.3923 -7.88,-1c-3.5,-0.72 -6.81,-1.4 -11.21,-0.52c-0.59394,0.1182 -1.20946,-0.03908 -1.67389,-0.42772c-0.46443,-0.38865 -0.72776,-0.9668 -0.71611,-1.57228v-18c-0.01856,-0.96862 0.65977,-1.81126 1.61,-2c5.2,-1 9.06,-0.24 12.79,0.53c3.5,0.72 6.81,1.4 11.21,0.52c0.76763,-0.14363 1.54865,0.17268 2,0.81c0.45434,0.64262 0.48957,1.49196 0.09,2.17c-2.19,3.72 -3.39,5.56 -5.32,8.32c1.89,3 3.07,4.69 5.19,7.45c0.42127,0.54887 0.52892,1.27649 0.28464,1.92383c-0.24428,0.64734 -0.80579,1.12244 -1.48464,1.25617c-1.60854,0.33874 -3.24631,0.5196 -4.89,0.54zM246.18265,183.50004c2.65439,0.05714 5.29548,0.3923 7.88,1c2.59671,0.64344 5.26496,0.95261 7.94,0.92c-1.31,-1.83 -2.39,-3.51 -4,-6.08c-0.4484,-0.67207 -0.4484,-1.54793 0,-2.22c1.55,-2.21 2.6,-3.73 3.83,-5.69c-2.89306,0.01217 -5.7771,-0.32357 -8.59,-1c-3.12997,-0.81821 -6.379,-1.08219 -9.6,-0.78v14c0.8568,-0.0949 1.71797,-0.14496 2.58,-0.15z" fill="#267931"/><path d="M265.70265,187.03004c-9.6,1.9 -14.4,-3 -24,-1.06v-18c9.6,-1.9 14.4,3 24,1.06c-2.4,4.07 -3.6,5.86 -6,9.28c1.84664,3.00926 3.84937,5.9199 6,8.72z" fill="#ffff00"/></g><path d="M265.70265,187.03004c-9.6,1.9 -14.4,-3 -24,-1.06v-18c9.6,-1.9 14.4,3 24,1.06c-2.4,4.07 -3.6,5.86 -6,9.28c1.84664,3.00926 3.84937,5.9199 6,8.72z" fill="#39b54a" stroke="none" stroke-width="1" stroke-linejoin="miter"/><path d="M245,202.00004v5h-10v-5h3v-35.55c-1.56787,-0.90521 -2.33228,-2.75064 -1.8637,-4.49938c0.46857,-1.74873 2.05328,-2.96472 3.8637,-2.96472c1.81042,0 3.39513,1.21599 3.8637,2.96472c0.46857,1.74873 -0.29583,3.59417 -1.8637,4.49938v35.55z" fill="#39b54a" stroke="none" stroke-width="1" stroke-linejoin="miter"/></g></g></svg>