<svg version="1.1" xmlns="http://www.w3.org/2000/svg" xmlns:xlink="http://www.w3.org/1999/xlink" width="44.6059" height="44.60834" viewBox="0,0,44.6059,44.60834"><g transform="translate(-217.83039,-140.94863)"><g data-paper-data="{&quot;isPaintingLayer&quot;:true}" fill-rule="nonzero" stroke-linecap="butt" stroke-miterlimit="10" stroke-dasharray="" stroke-dashoffset="0" style="mix-blend-mode: normal"><g data-paper-data="{&quot;index&quot;:null}" stroke-linejoin="miter"><path d="M254.26949,173.11265c-0.7255,-1.16059 -1.09114,-5.18213 -0.81669,-8.98237c0.27446,-3.80024 1.08508,-5.94011 1.81058,-4.77953c0.7255,1.16058 1.09114,5.18212 0.81669,8.98236c-0.27445,3.80024 -1.08508,5.94012 -1.81058,4.77954z" fill="#ffffff" stroke="#000000" stroke-width="2"/><path d="M256.85943,160.11766c0.41311,-0.82247 0.8153,-1.85371 1.19819,-2.93885c0.47086,-1.33444 0.97133,-2.3077 1.42382,-3.83452c0.36699,-1.23832 0.64914,-2.74083 0.97493,-4.21491c0.33187,-1.82084 0.54143,-3.8284 0.71989,-6.09781l0.01451,-0.06866l-0.0053,-0.01564l0.11424,-0.94754c0.04235,-0.36914 0.12474,-0.59799 0.20931,-0.54296c0.08457,0.05504 0.14643,0.37775 0.15995,0.78325l0.03996,1.0479l-0.00383,0.00506c0.00236,0.03417 0.00462,0.0686 0.00676,0.10333c0.02402,0.38936 -0.01221,0.83667 -0.00614,1.24939c0.02252,1.53014 0.03964,3.17704 -0.04885,4.7394c-0.13096,2.312 -0.42852,4.17723 -0.68933,6.14327c-0.13898,1.04764 -0.24097,2.07413 -0.41156,3.02055c-0.32063,1.77876 -0.71381,3.04208 -1.04452,4.68678c-0.21246,0.6491 -0.41319,1.53777 -0.63952,2.04324c-0.54386,1.21459 -1.10126,1.95657 -1.67621,2.37249c-0.2069,0.14967 -0.28177,0.39496 -0.48845,0.33872c-0.63869,-0.17384 -0.93719,-3.15223 -0.69752,-6.08502c0.03637,-0.44511 0.25695,-0.96629 0.33242,-1.20346c0,0 0.53756,-0.83232 0.51726,-0.58401z" fill="#ffffff" stroke="#000000" stroke-width="1"/><path d="M257.44427,163.97543c0.36487,-0.38082 0.72677,-0.94631 1.0743,-1.57203c0.42738,-0.76947 0.86874,-1.21127 1.28652,-2.15725c0.33884,-0.76723 0.6153,-1.82218 0.92696,-2.81993c0.32672,-1.28611 0.5579,-2.82295 0.77097,-4.60469l0.01396,-0.04698l-0.00392,-0.01724l0.12176,-0.71373c0.04566,-0.27966 0.1203,-0.41037 0.18852,-0.29958c0.06822,0.1108 0.10993,0.4305 0.10935,0.78337l0.00263,0.91576l-0.00331,0.00135c0.00096,0.03066 0.00183,0.06148 0.00259,0.09244c0.00855,0.34722 -0.03433,0.6976 -0.04127,1.05092c-0.02574,1.30993 -0.05932,2.71442 -0.17764,3.96717c-0.1751,1.85385 -0.47479,3.20354 -0.74706,4.66634c-0.14508,0.77948 -0.25902,1.56921 -0.42727,2.23914c-0.31623,1.2591 -0.67742,2.02755 -0.99809,3.16571c-0.19421,0.38689 -0.38566,0.98508 -0.58715,1.24008c-0.48416,0.61271 -0.96582,0.81583 -1.45251,0.73011c-0.17515,-0.03085 -0.24405,0.11949 -0.41305,-0.08519c-0.52222,-0.63247 -0.65429,-3.51658 -0.37146,-5.81227c0.04292,-0.34843 0.07254,-0.76305 0.13457,-1.02709c0.05795,-0.24666 0.13835,-0.28599 0.20753,-0.429c0,0 0.40701,0.53824 0.38306,0.7326z" fill="#ffffff" stroke="#000000" stroke-width="1"/><path d="M258.01549,166.927c0.28589,0.04331 0.57605,-0.05835 0.8576,-0.21967c0.34624,-0.19839 0.69139,-0.13144 1.03667,-0.47465c0.28004,-0.27835 0.52361,-0.83589 0.79145,-1.31691c0.28923,-0.68925 0.51592,-1.65979 0.7377,-2.8357l0.01208,-0.0233l-0.00233,-0.0169l0.11603,-0.43745c0.04393,-0.1733 0.10428,-0.20512 0.15133,-0.05682c0.04706,0.1483 0.06696,0.43307 0.05412,0.70436l-0.03023,0.70785l-0.00252,-0.00201c-0.00036,0.02451 -0.00079,0.04906 -0.00131,0.07361c-0.00582,0.27536 -0.05016,0.50571 -0.06777,0.77147c-0.06529,0.98531 -0.13976,2.03623 -0.27217,2.89207c-0.19596,1.26648 -0.46723,2.02966 -0.72201,2.90525c-0.13577,0.46658 -0.24863,0.96981 -0.39784,1.3306c-0.28044,0.67812 -0.57721,0.93679 -0.85672,1.51764c-0.15864,0.11884 -0.32265,0.40301 -0.4821,0.4135c-0.38314,0.02523 -0.75,-0.26277 -1.11046,-0.77788c-0.12972,-0.18539 -0.18647,-0.13317 -0.30548,-0.44678c-0.36777,-0.9691 -0.36499,-3.31267 -0.07304,-4.82011c0.04431,-0.22879 0.08101,-0.52086 0.13662,-0.667c0.05195,-0.13654 0.11338,-0.09264 0.17007,-0.13897c0,0 0.28504,0.79019 0.26032,0.9178z" fill="#ffffff" stroke="#000000" stroke-width="1"/><path d="M257.25776,169.07837c0.25995,0.53701 0.53341,0.94173 0.80288,1.27406c0.33139,0.40869 0.64426,1.07112 0.98433,1.33864c0.27581,0.21698 0.53652,0.1018 0.8145,0.1024c0.31139,-0.16295 0.58386,-0.70526 0.86537,-1.4539l0.01264,-0.00152l-0.00102,-0.02031l0.13554,-0.22042c0.05183,-0.09085 0.10941,-0.01696 0.14287,0.20743c0.03346,0.22438 0.03297,0.53323 0.00325,0.77233l-0.07452,0.62955l-0.00218,-0.0063c-0.00194,0.02299 -0.00396,0.04589 -0.00606,0.06864c-0.02353,0.25518 -0.0795,0.40027 -0.11323,0.62581c-0.12507,0.83614 -0.2629,1.71958 -0.44113,2.31469c-0.26375,0.88065 -0.56351,1.14593 -0.85553,1.54809c-0.15561,0.21428 -0.29258,0.50357 -0.45357,0.59266c-0.30258,0.16745 -0.59246,-0.09747 -0.88776,-0.0221c-0.15368,-0.16035 -0.32322,-0.17073 -0.47049,-0.43685c-0.35388,-0.63945 -0.67211,-1.55242 -0.96947,-2.67315c-0.10701,-0.40333 -0.16263,-0.45133 -0.25133,-0.95964c-0.27411,-1.57075 -0.11683,-3.8237 0.25107,-4.77019c0.05584,-0.14365 0.10886,-0.36145 0.16963,-0.4059c0.05677,-0.04154 0.11035,0.10717 0.16552,0.16075c0,0 0.20987,1.25507 0.17872,1.33518z" fill="#ffffff" stroke="#000000" stroke-width="1"/><path d="M259.56908,160.79436c-0.00839,0.2253 -0.05047,0.38495 -0.09399,0.35663c-0.04352,-0.02832 -0.072,-0.23391 -0.06362,-0.45919c0.00839,-0.22529 0.05047,-0.38495 0.09399,-0.35663c0.04352,0.02833 0.072,0.23391 0.06362,0.4592z" fill="#000000" stroke="none" stroke-width="0.5"/><path d="M259.62403,166.36591c-0.00839,0.22529 -0.05047,0.38496 -0.09399,0.35663c-0.04352,-0.02833 -0.072,-0.23392 -0.06362,-0.4592c0.00839,-0.22529 0.05047,-0.38496 0.09399,-0.35663c0.04352,0.02833 0.072,0.23391 0.06362,0.45919z" fill="#000000" stroke="none" stroke-width="0.5"/><path d="M258.89163,171.94728c-0.04352,-0.02833 -0.072,-0.23392 -0.06362,-0.4592c0.00839,-0.22529 0.05047,-0.38496 0.09399,-0.35663c0.04352,0.02832 0.072,0.23392 0.06362,0.4592c-0.00839,0.22528 -0.05047,0.38495 -0.09399,0.35663z" fill="#000000" stroke="none" stroke-width="0.5"/><path d="M255.27743,158.69811c0.42989,-0.45804 0.8561,-1.13365 1.26531,-1.87987c0.50323,-0.91767 1.02326,-1.44949 1.51501,-2.57494c0.39882,-0.9128 0.72382,-2.16309 1.09037,-3.34688c0.38404,-1.52402 0.65517,-3.34112 0.90471,-5.44642l0.01642,-0.05572l-0.00464,-0.02023l0.1429,-0.84424c0.05358,-0.33076 0.14147,-0.48671 0.22202,-0.35785c0.08056,0.12885 0.13005,0.50459 0.1297,0.9205l0.00398,1.07922l-0.0039,0.00167c0.00118,0.03613 0.00223,0.07243 0.00315,0.1089c0.01041,0.40901 -0.03981,0.82304 -0.04766,1.23962c-0.02911,1.54449 -0.06735,3.20064 -0.20567,4.68007c-0.20469,2.18929 -0.55679,3.78757 -0.87645,5.51845c-0.17033,0.92234 -0.30393,1.85598 -0.50169,2.64978c-0.3717,1.49191 -0.79687,2.40669 -1.17392,3.75619c-0.22864,0.46089 -0.45382,1.17075 -0.69118,1.47636c-0.57036,0.73434 -1.13813,0.98588 -1.71213,0.89714c-0.20657,-0.03194 -0.28768,0.14697 -0.48716,-0.08998c-0.61642,-0.73223 -0.80789,-3.96146 -0.47659,-6.67422c0.05028,-0.41172 0.28255,-0.73803 0.36399,-0.90831c0,0 0.55147,-0.35892 0.52341,-0.12924z" fill="#ffffff" stroke="#000000" stroke-width="1"/><path d="M255.71848,163.05431c0.36815,-0.06015 0.73959,-0.30693 1.09903,-0.62629c0.44203,-0.39273 0.88674,-0.44669 1.3253,-1.02371c0.3557,-0.46799 0.66022,-1.27727 0.99712,-1.99876c0.3612,-0.99566 0.63768,-2.32479 0.90468,-3.91381l0.01517,-0.03459l-0.00325,-0.02062l0.14243,-0.60466c0.05381,-0.23872 0.13089,-0.30365 0.19366,-0.13354c0.06276,0.17011 0.09274,0.52521 0.0804,0.87634l-0.02798,0.91485l-0.00327,-0.00154c-0.00008,0.03141 -0.00026,0.06287 -0.00055,0.09439c-0.00326,0.35349 -0.05671,0.66511 -0.07526,1.01112c-0.06877,1.2828 -0.14833,2.65299 -0.30538,3.7978c-0.23241,1.6941 -0.56938,2.77678 -0.88343,3.99616c-0.16734,0.64977 -0.30468,1.33702 -0.49094,1.85735c-0.35007,0.97791 -0.72758,1.42755 -1.07794,2.28107c-0.2021,0.21557 -0.40857,0.64412 -0.61337,0.72186c-0.49212,0.1868 -0.96813,-0.03235 -1.43942,-0.54373c-0.1696,-0.18404 -0.24175,-0.09454 -0.39956,-0.44642c-0.48766,-1.08733 -0.52013,-4.07694 -0.16803,-6.11706c0.05344,-0.30963 0.09612,-0.69688 0.16536,-0.9057c0.06468,-0.19508 0.14433,-0.16391 0.21649,-0.24587c0,0 0.37857,0.89259 0.34875,1.0653z" fill="#ffffff" stroke="#000000" stroke-width="1"/><path d="M256.20781,166.5222c0.27707,0.29339 0.56314,0.44602 0.84281,0.53169c0.34392,0.10535 0.67795,0.47413 1.02577,0.43432c0.2821,-0.03229 0.53799,-0.37469 0.81496,-0.6196c0.30476,-0.43369 0.55797,-1.20243 0.81326,-2.18012l0.01255,-0.01265l-0.0017,-0.01889l0.12763,-0.33436c0.04859,-0.13424 0.10844,-0.11313 0.14933,0.07583c0.04089,0.18896 0.05079,0.49016 0.02923,0.74926l-0.05307,0.67891l-0.00238,-0.00421c-0.00117,0.02412 -0.00242,0.04819 -0.00374,0.0722c-0.01486,0.2693 -0.06574,0.46002 -0.09176,0.70944c-0.09647,0.92471 -0.20406,1.9068 -0.36161,2.64375c-0.23314,1.09055 -0.52287,1.61363 -0.80029,2.26316c-0.14783,0.34611 -0.27456,0.7488 -0.43196,0.97774c-0.29583,0.43029 -0.59358,0.42831 -0.88525,0.7625c-0.15852,-0.02043 -0.32779,0.11918 -0.48347,-0.00991c-0.3741,-0.31019 -0.72189,-0.91826 -1.05588,-1.74706c-0.1202,-0.29828 -0.17722,-0.2959 -0.28271,-0.71258c-0.32597,-1.28759 -0.24509,-3.62052 0.08961,-4.86717c0.0508,-0.18921 0.0963,-0.44813 0.15535,-0.54509c0.05517,-0.09058 0.11355,0.00691 0.17033,0.01036c0,0 0.25134,1.03692 0.223,1.14244z" fill="#ffffff" stroke="#000000" stroke-width="1"/><path d="M255.39792,168.00279c0.23534,0.76263 0.48824,1.40528 0.73968,1.97231c0.30921,0.69729 0.59193,1.63125 0.9143,2.19546c0.26146,0.45761 0.5193,0.57102 0.79009,0.81491c0.3088,0.11015 0.59233,-0.19178 0.89155,-0.69142l0.01237,0.00956l-0.00032,-0.02114l0.1394,-0.10101c0.05352,-0.04517 0.10715,0.07885 0.13226,0.33174c0.02512,0.25289 0.01433,0.56023 -0.02259,0.77248l-0.0936,0.56213l-0.00192,-0.00819c-0.00266,0.02121 -0.00539,0.04225 -0.00819,0.06309c-0.03144,0.23369 -0.09081,0.3293 -0.13119,0.52452c-0.14973,0.72374 -0.31348,1.48347 -0.50696,1.9205c-0.28632,0.64673 -0.58721,0.64871 -0.88511,0.79388c-0.15874,0.07736 -0.30183,0.24575 -0.46164,0.19363c-0.30037,-0.09796 -0.57395,-0.61568 -0.86414,-0.79902c-0.14438,-0.2943 -0.30919,-0.45302 -0.44379,-0.8471c-0.32343,-0.94693 -0.60301,-2.13524 -0.85532,-3.51231c-0.0908,-0.49557 -0.14339,-0.59207 -0.21285,-1.17625c-0.21466,-1.80516 0.01371,-3.91257 0.40369,-4.53375c0.05919,-0.09429 0.1181,-0.26491 0.17879,-0.25602c0.05669,0.00831 0.10393,0.20338 0.15589,0.30506c0,0 0.1626,1.43439 0.12958,1.48694z" fill="#ffffff" stroke="#000000" stroke-width="1"/><path d="M257.76725,167.02959c-0.19535,2.41734 -0.68162,4.52017 -0.7526,4.75713c-0.35394,1.18166 -2.33128,1.98802 -2.74516,1.32593c-0.7255,-1.16059 -1.09114,-5.18213 -0.81669,-8.98237c0.27445,-3.80024 1.08508,-5.94011 1.81058,-4.77953c0.36091,0.57735 2.46977,0.19582 2.61807,1.80976c0.02094,0.22784 0.10027,3.21506 -0.1142,5.86908z" fill="#ffffff" stroke="#000000" stroke-width="0"/><path d="M257.85008,162.11799c-0.04146,-0.06632 -0.06235,-0.29612 -0.04667,-0.51328c0.01568,-0.21716 0.062,-0.33944 0.10346,-0.27312c0.04146,0.06633 0.06235,0.29612 0.04667,0.51328c-0.01568,0.21716 -0.062,0.33943 -0.10346,0.27312z" fill="#000000" stroke="none" stroke-width="0.5"/><path d="M257.71778,167.71811c-0.04146,-0.06632 -0.06235,-0.29612 -0.04667,-0.51328c0.01568,-0.21716 0.062,-0.33944 0.10346,-0.27312c0.04146,0.06632 0.06235,0.29612 0.04667,0.51328c-0.01568,0.21716 -0.062,0.33944 -0.10346,0.27312z" fill="#000000" stroke="none" stroke-width="0.5"/><path d="M257.02503,172.09269c-0.01568,0.21716 -0.062,0.33944 -0.10346,0.27312c-0.04146,-0.06631 -0.06235,-0.29611 -0.04667,-0.51327c0.01568,-0.21717 0.062,-0.33944 0.10346,-0.27312c0.04146,0.06633 0.06235,0.29612 0.04667,0.51328z" fill="#000000" stroke="none" stroke-width="0.5"/></g><g data-paper-data="{&quot;index&quot;:null}" stroke-linejoin="miter"><path d="M224.18658,169.01748c-0.27445,-3.80025 0.09119,-7.82179 0.81669,-8.98237c0.7255,-1.16058 1.53613,0.97929 1.81058,4.77953c0.27445,3.80024 -0.09119,7.82178 -0.81669,8.98237c-0.7255,1.16058 -1.53613,-0.9793 -1.81058,-4.77953z" fill="#ffffff" stroke="#000000" stroke-width="2"/><path d="M223.4072,160.802c-0.02031,-0.2483 0.51726,0.58401 0.51726,0.58401c0.07547,0.23717 0.29605,0.75836 0.33242,1.20347c0.23967,2.93279 -0.05883,5.91118 -0.69752,6.08502c-0.20668,0.05624 -0.28154,-0.18905 -0.48845,-0.33873c-0.57495,-0.41592 -1.13235,-1.1579 -1.67621,-2.37249c-0.22633,-0.50547 -0.42706,-1.39413 -0.63952,-2.04323c-0.33071,-1.6447 -0.72389,-2.90802 -1.04452,-4.68678c-0.17059,-0.94642 -0.27258,-1.97291 -0.41156,-3.02055c-0.26082,-1.96604 -0.55837,-3.83127 -0.68933,-6.14327c-0.08849,-1.56236 -0.07136,-3.20926 -0.04885,-4.7394c0.00608,-0.41272 -0.03016,-0.86003 -0.00614,-1.24939c0.00214,-0.03472 0.0044,-0.06916 0.00676,-0.10333l-0.00383,-0.00506l0.03996,-1.04789c0.01353,-0.40549 0.07538,-0.72821 0.15995,-0.78325c0.08457,-0.05502 0.16696,0.17383 0.20931,0.54296l0.11424,0.94754l-0.0053,0.01564l0.01451,0.06866c0.17845,2.26941 0.38803,4.27697 0.71989,6.09781c0.32579,1.47408 0.60795,2.9766 0.97493,4.21492c0.45249,1.52683 0.95297,2.50008 1.42382,3.83453c0.38289,1.08513 0.78509,2.11637 1.19819,2.93884z" fill="#ffffff" stroke="#000000" stroke-width="1"/><path d="M222.8224,164.65981c-0.02395,-0.19436 0.38306,-0.7326 0.38306,-0.7326c0.06918,0.14301 0.14958,0.18234 0.20753,0.42901c0.06204,0.26404 0.09166,0.67865 0.13458,1.02708c0.28283,2.29569 0.15076,5.1798 -0.37146,5.81227c-0.169,0.20467 -0.2379,0.05434 -0.41305,0.08519c-0.48669,0.08573 -0.96834,-0.11739 -1.45251,-0.7301c-0.2015,-0.25499 -0.39294,-0.8532 -0.58715,-1.24009c-0.32067,-1.13816 -0.68186,-1.90661 -0.99809,-3.16571c-0.16825,-0.66993 -0.28219,-1.45966 -0.42727,-2.23914c-0.27228,-1.4628 -0.57196,-2.81249 -0.74706,-4.66634c-0.11832,-1.25275 -0.15189,-2.65724 -0.17764,-3.96717c-0.00694,-0.35332 -0.04982,-0.7037 -0.04127,-1.05092c0.00076,-0.03095 0.00163,-0.06178 0.00259,-0.09244l-0.00331,-0.00135l0.00263,-0.91575c-0.00058,-0.35287 0.04113,-0.67257 0.10935,-0.78337c0.06822,-0.11079 0.14286,0.01992 0.18852,0.29958l0.12176,0.71373l-0.00392,0.01725l0.01396,0.04698c0.21308,1.78174 0.44425,3.31858 0.77097,4.60469c0.31166,0.99775 0.58812,2.05269 0.92696,2.81992c0.41778,0.94598 0.85914,1.38777 1.28652,2.15725c0.34753,0.62572 0.70943,1.19122 1.07429,1.57204z" fill="#ffffff" stroke="#000000" stroke-width="1"/><path d="M222.25115,167.61136c-0.02473,-0.12761 0.26032,-0.9178 0.26032,-0.9178c0.05669,0.04633 0.11812,0.00244 0.17007,0.13898c0.05562,0.14614 0.09232,0.4382 0.13662,0.66699c0.29195,1.50745 0.29473,3.85101 -0.07304,4.82011c-0.11902,0.31361 -0.17576,0.2614 -0.30548,0.44678c-0.36046,0.51511 -0.72732,0.80311 -1.11045,0.77788c-0.15945,-0.0105 -0.32347,-0.29467 -0.48211,-0.4135c-0.2795,-0.58085 -0.57627,-0.83952 -0.85671,-1.51764c-0.14921,-0.3608 -0.26208,-0.86402 -0.39784,-1.3306c-0.25478,-0.87559 -0.52606,-1.63876 -0.72201,-2.90524c-0.13242,-0.85584 -0.20688,-1.90676 -0.27217,-2.89208c-0.0176,-0.26576 -0.06194,-0.49611 -0.06777,-0.77147c-0.00052,-0.02456 -0.00095,-0.0491 -0.00131,-0.07361l-0.00252,0.00201l-0.03023,-0.70785c-0.01285,-0.27128 0.00707,-0.55606 0.05412,-0.70436c0.04705,-0.14831 0.1074,-0.11648 0.15133,0.05682l0.11603,0.43744l-0.00233,0.01691l0.01208,0.0233c0.22178,1.17591 0.44847,2.14645 0.7377,2.8357c0.26784,0.48102 0.51141,1.03856 0.79144,1.31691c0.34528,0.34321 0.69044,0.27626 1.03667,0.47465c0.28155,0.16131 0.57172,0.26298 0.8576,0.21967z" fill="#ffffff" stroke="#000000" stroke-width="1"/><path d="M223.00885,169.76269c-0.03115,-0.0801 0.17872,-1.33518 0.17872,-1.33518c0.05518,-0.05358 0.10875,-0.20229 0.16552,-0.16076c0.06077,0.04445 0.11378,0.26225 0.16962,0.4059c0.3679,0.94649 0.52518,3.19945 0.25107,4.77019c-0.0887,0.50831 -0.14432,0.55631 -0.25133,0.95964c-0.29736,1.12073 -0.61559,2.0337 -0.96947,2.67315c-0.14727,0.26612 -0.31681,0.2765 -0.47049,0.43685c-0.29529,-0.07537 -0.58519,0.18956 -0.88776,0.02211c-0.16099,-0.08909 -0.29796,-0.37839 -0.45357,-0.59267c-0.29202,-0.40217 -0.59179,-0.66744 -0.85553,-1.54809c-0.17823,-0.59511 -0.31607,-1.47855 -0.44113,-2.31469c-0.03374,-0.22554 -0.08971,-0.37063 -0.11324,-0.62581c-0.0021,-0.02276 -0.00411,-0.04565 -0.00606,-0.06864l-0.00218,0.0063l-0.07452,-0.62955c-0.02972,-0.2391 -0.03021,-0.54795 0.00325,-0.77233c0.03347,-0.22439 0.09104,-0.29828 0.14287,-0.20743l0.13555,0.22042l-0.00102,0.02031l0.01264,0.00153c0.28151,0.74864 0.55399,1.29094 0.86537,1.4539c0.27798,-0.0006 0.53869,0.11457 0.8145,-0.1024c0.34007,-0.26752 0.65294,-0.92996 0.98433,-1.33865c0.26948,-0.33233 0.54293,-0.73705 0.80288,-1.27406z" fill="#ffffff" stroke="#000000" stroke-width="1"/><path d="M220.69757,161.47876c-0.00839,-0.22529 0.0201,-0.43087 0.06362,-0.4592c0.04353,-0.02833 0.08561,0.13133 0.09399,0.35662c0.00839,0.22528 -0.0201,0.43086 -0.06362,0.45919c-0.04352,0.02832 -0.0856,-0.13133 -0.09399,-0.35663z" fill="#000000" stroke="none" stroke-width="0.5"/><path d="M220.64263,167.05027c-0.00839,-0.22528 0.0201,-0.43086 0.06362,-0.45919c0.04353,-0.02833 0.08561,0.13134 0.09399,0.35663c0.00839,0.22528 -0.0201,0.43087 -0.06362,0.4592c-0.04353,0.02833 -0.08561,-0.13135 -0.09399,-0.35664z" fill="#000000" stroke="none" stroke-width="0.5"/><path d="M221.34466,171.81582c0.04353,-0.02833 0.08561,0.13134 0.09399,0.35663c0.00839,0.22528 -0.0201,0.43087 -0.06362,0.4592c-0.04352,0.02833 -0.08561,-0.13135 -0.09399,-0.35663c-0.00839,-0.22528 0.0201,-0.43087 0.06362,-0.4592z" fill="#000000" stroke="none" stroke-width="0.5"/><path d="M224.98926,159.38249c-0.02806,-0.22968 0.52341,0.12923 0.52341,0.12923c0.08144,0.17028 0.31371,0.4966 0.36399,0.90832c0.33131,2.71276 0.13984,5.94198 -0.47658,6.67421c-0.19949,0.23695 -0.2806,0.05805 -0.48716,0.08998c-0.57401,0.08874 -1.14178,-0.16281 -1.71213,-0.89714c-0.23736,-0.30561 -0.46254,-1.01547 -0.69118,-1.47636c-0.37705,-1.3495 -0.80222,-2.26427 -1.17391,-3.75619c-0.19777,-0.7938 -0.33136,-1.72744 -0.5017,-2.64978c-0.31967,-1.73088 -0.67176,-3.32915 -0.87645,-5.51844c-0.13833,-1.47943 -0.17657,-3.13558 -0.20567,-4.68007c-0.00784,-0.41658 -0.05806,-0.8306 -0.04765,-1.23962c0.00093,-0.03648 0.00199,-0.07277 0.00315,-0.1089l-0.0039,-0.00167l0.00398,-1.07922c-0.00035,-0.4159 0.04915,-0.79165 0.1297,-0.9205c0.08055,-0.12887 0.16845,0.02708 0.22202,0.35784l0.1429,0.84424l-0.00465,0.02023l0.01642,0.05572c0.24955,2.1053 0.52068,3.9224 0.90471,5.44642c0.36655,1.1838 0.69155,2.43409 1.09037,3.34688c0.49175,1.12545 1.01177,1.65727 1.515,2.57494c0.40921,0.74622 0.83542,1.42184 1.26531,1.87988z" fill="#ffffff" stroke="#000000" stroke-width="1"/><path d="M224.54817,163.73859c-0.02982,-0.17271 0.34875,-1.06529 0.34875,-1.06529c0.07216,0.08196 0.15181,0.05079 0.21649,0.24586c0.06924,0.20882 0.11192,0.59608 0.16536,0.90571c0.3521,2.04012 0.31963,5.02972 -0.16803,6.11705c-0.15781,0.35188 -0.22996,0.26239 -0.39956,0.44642c-0.47129,0.51138 -0.9473,0.73053 -1.43942,0.54373c-0.20481,-0.07774 -0.41127,-0.50629 -0.61337,-0.72186c-0.35037,-0.85352 -0.72787,-1.30316 -1.07794,-2.28107c-0.18626,-0.52032 -0.3236,-1.20758 -0.49094,-1.85734c-0.31404,-1.21937 -0.65102,-2.30206 -0.88343,-3.99616c-0.15706,-1.1448 -0.23661,-2.515 -0.30538,-3.7978c-0.01855,-0.346 -0.07201,-0.65763 -0.07526,-1.01112c-0.00029,-0.03153 -0.00047,-0.06298 -0.00055,-0.09439l-0.00327,0.00154l-0.02798,-0.91484c-0.01234,-0.35113 0.01764,-0.70624 0.0804,-0.87635c0.06277,-0.17011 0.13985,-0.10517 0.19366,0.13354l0.14243,0.60466l-0.00324,0.02062l0.01517,0.03459c0.26702,1.58902 0.54349,2.91815 0.90468,3.91381c0.3369,0.72148 0.64142,1.53077 0.99711,1.99876c0.43856,0.57703 0.88327,0.63098 1.3253,1.02371c0.35944,0.31936 0.73087,0.56614 1.09903,0.62629z" fill="#ffffff" stroke="#000000" stroke-width="1"/><path d="M224.05885,167.20654c-0.02834,-0.10553 0.223,-1.14245 0.223,-1.14245c0.05678,-0.00346 0.11517,-0.10094 0.17033,-0.01036c0.05906,0.09696 0.10455,0.35588 0.15535,0.54509c0.3347,1.24664 0.41558,3.57957 0.08961,4.86716c-0.10549,0.41669 -0.16252,0.41431 -0.28271,0.71258c-0.33399,0.82879 -0.68178,1.43687 -1.05588,1.74706c-0.15569,0.12909 -0.32496,-0.01051 -0.48347,0.00991c-0.29168,-0.33419 -0.58942,-0.33221 -0.88525,-0.7625c-0.1574,-0.22894 -0.28414,-0.63164 -0.43196,-0.97775c-0.27741,-0.64953 -0.56715,-1.17261 -0.80029,-2.26316c-0.15755,-0.73695 -0.26514,-1.71903 -0.36161,-2.64375c-0.02602,-0.24942 -0.0769,-0.44015 -0.09176,-0.70945c-0.00133,-0.024 -0.00257,-0.04808 -0.00374,-0.0722l-0.00238,0.00421l-0.05307,-0.67891c-0.02156,-0.2591 -0.01166,-0.5603 0.02923,-0.74926c0.04089,-0.18896 0.10074,-0.21007 0.14932,-0.07583l0.12763,0.33436l-0.0017,0.01889l0.01254,0.01265c0.25528,0.97769 0.5085,1.74643 0.81326,2.18012c0.27698,0.24491 0.53287,0.58732 0.81496,0.61961c0.34782,0.0398 0.68184,-0.32899 1.02577,-0.43433c0.27967,-0.08566 0.56574,-0.2383 0.84281,-0.53169z" fill="#ffffff" stroke="#000000" stroke-width="1"/><path d="M224.86876,168.68718c-0.03302,-0.05255 0.12958,-1.48694 0.12958,-1.48694c0.05196,-0.10169 0.09919,-0.29675 0.15589,-0.30506c0.06069,-0.0089 0.1196,0.16172 0.17879,0.25601c0.38998,0.62118 0.61834,2.72859 0.40369,4.53375c-0.06946,0.58418 -0.12205,0.68068 -0.21285,1.17625c-0.25231,1.37707 -0.53188,2.56538 -0.85531,3.51231c-0.1346,0.39407 -0.29942,0.5528 -0.44379,0.8471c-0.2902,0.18334 -0.56378,0.70106 -0.86414,0.79902c-0.15981,0.05211 -0.3029,-0.11627 -0.46164,-0.19363c-0.2979,-0.14517 -0.59878,-0.14715 -0.8851,-0.79388c-0.19348,-0.43703 -0.35723,-1.19676 -0.50696,-1.92051c-0.04039,-0.19522 -0.09975,-0.29083 -0.13119,-0.52452c-0.00281,-0.02084 -0.00554,-0.04188 -0.0082,-0.06309l-0.00191,0.00819l-0.0936,-0.56213c-0.03692,-0.21225 -0.0477,-0.51959 -0.02259,-0.77248c0.02511,-0.25289 0.07874,-0.3769 0.13226,-0.33174l0.1394,0.10101l-0.00032,0.02114l0.01237,-0.00956c0.29923,0.49965 0.58276,0.80157 0.89155,0.69142c0.27079,-0.24389 0.52863,-0.3573 0.79009,-0.81491c0.32237,-0.56421 0.60509,-1.49818 0.9143,-2.19547c0.25144,-0.56703 0.50435,-1.20968 0.73968,-1.97231z" fill="#ffffff" stroke="#000000" stroke-width="1"/><path d="M222.3852,161.84488c0.1483,-1.61394 2.25716,-1.23241 2.61807,-1.80976c0.7255,-1.16058 1.53613,0.97929 1.81058,4.77953c0.27445,3.80024 -0.09119,7.82178 -0.81669,8.98237c-0.41389,0.66209 -2.39123,-0.14427 -2.74516,-1.32592c-0.07098,-0.23697 -0.55726,-2.33981 -0.7526,-4.75714c-0.21446,-2.65402 -0.13513,-5.64123 -0.1142,-5.86907z" fill="#ffffff" stroke="#000000" stroke-width="0"/><path d="M222.41657,162.80236c-0.04145,0.06631 -0.08778,-0.05596 -0.10346,-0.27312c-0.01568,-0.21716 0.00521,-0.44695 0.04667,-0.51328c0.04146,-0.06631 0.08778,0.05596 0.10346,0.27312c0.01569,0.21715 -0.00521,0.44695 -0.04666,0.51328z" fill="#000000" stroke="none" stroke-width="0.5"/><path d="M222.44541,168.12936c-0.01568,-0.21715 0.00521,-0.44696 0.04667,-0.51328c0.04146,-0.06632 0.08778,0.05596 0.10346,0.27312c0.01568,0.21716 -0.00521,0.44695 -0.04667,0.51328c-0.04146,0.06632 -0.08778,-0.05596 -0.10346,-0.27312z" fill="#000000" stroke="none" stroke-width="0.5"/><path d="M223.24163,172.77707c-0.01568,-0.21716 0.00521,-0.44695 0.04667,-0.51328c0.04146,-0.06632 0.08778,0.05596 0.10346,0.27312c0.01568,0.21716 -0.00521,0.44696 -0.04667,0.51327c-0.04146,0.06631 -0.08778,-0.05597 -0.10346,-0.27312z" fill="#000000" stroke="none" stroke-width="0.5"/></g><path d="M220.75343,165.31039c0,-10.62959 8.61699,-19.24657 19.24658,-19.24657c10.62959,0 19.24657,8.61698 19.24657,19.24657c0,10.62959 -8.61698,19.24658 -19.24657,19.24658c-10.62959,0 -19.24658,-8.61698 -19.24658,-19.24658z" fill="#00ffff" stroke="#000000" stroke-width="2" stroke-linejoin="miter"/><path d="M220.75343,165.31039h38.49315c0,0 -0.01482,0.87807 -0.04398,1.31144c-0.6741,10.01796 -9.01376,17.93514 -19.20259,17.93514c-10.28032,0 -18.67812,-8.06001 -19.2189,-18.20552c-0.01837,-0.34469 -0.02768,-1.04105 -0.02768,-1.04105z" fill="#0090ff" stroke="#000000" stroke-width="2" stroke-linejoin="miter"/><g><path d="M230.30512,163.50313v-6.84382l6.84382,1.66666v5.17715z" data-paper-data="{&quot;index&quot;:null}" fill="#ffffff" stroke="#ffffff" stroke-width="2" stroke-linejoin="round"/><path d="M231.6739,162.13438v-4.10629h4.10629v4.10629z" data-paper-data="{&quot;index&quot;:null}" fill="#000000" stroke="none" stroke-width="1" stroke-linejoin="miter"/></g><g><path d="M243.51772,163.50313v-5.17715l6.84382,-1.66666v6.84382z" fill="#ffffff" stroke="#ffffff" stroke-width="2" stroke-linejoin="round"/><path d="M244.88649,162.13438v-4.10629h4.10629v4.10629z" fill="#000000" stroke="none" stroke-width="1" stroke-linejoin="miter"/></g></g></g></svg>