<svg version="1.1" xmlns="http://www.w3.org/2000/svg" xmlns:xlink="http://www.w3.org/1999/xlink" width="75.24819" height="97.32695" viewBox="0,0,75.24819,97.32695"><g transform="translate(-201.53905,-87.27465)"><g data-paper-data="{&quot;isPaintingLayer&quot;:true}" fill-rule="nonzero" stroke-miterlimit="10" stroke-dasharray="" stroke-dashoffset="0" style="mix-blend-mode: normal"><g stroke-linecap="butt"><path d="M267.30368,151.48431l-5.4308,9.47717l-4.86368,-2.78708l-3.80156,6.63402l3.89097,2.22966l-1.08616,1.89543l-3.89096,-2.22965l-1.62924,2.84315l4.86369,2.78708l-2.17232,3.79086l-6.80915,-3.90192l8.68927,-15.16347l-4.86367,-2.78708l5.43081,-9.47718zM255.72025,153.65902l3.89095,2.22966l2.17232,-3.79086l-3.89095,-2.22966z" fill="none" stroke="#000000" stroke-width="4" stroke-linejoin="round"/><path d="M267.30368,151.48431l-5.4308,9.47717l-4.86368,-2.78708l-3.80156,6.63402l3.89097,2.22966l-1.08616,1.89543l-3.89096,-2.22965l-1.62924,2.84315l4.86369,2.78708l-2.17232,3.79086l-6.80915,-3.90192l8.68927,-15.16347l-4.86367,-2.78708l5.43081,-9.47718zM255.72025,153.65902l3.89095,2.22966l2.17232,-3.79086l-3.89095,-2.22966z" fill="#f97b3d" stroke="none" stroke-width="1" stroke-linejoin="miter"/></g><g stroke-linecap="butt"><path d="M234.39574,128.01223l4.09378,10.12676l-5.19703,2.10094l2.86567,7.08872l4.15765,-1.68076l0.81875,2.02535l-4.15765,1.68076l1.22815,3.03803l5.19704,-2.10093l1.63754,4.0507l-7.27587,2.94132l-6.55009,-16.2028l-5.19704,2.10093l-4.09381,-10.12674zM228.94613,138.46247l4.15765,-1.68076l-1.63752,-4.0507l-4.15764,1.68077z" fill="none" stroke="#000000" stroke-width="4" stroke-linejoin="round"/><path d="M234.39574,128.01223l4.09378,10.12676l-5.19703,2.10094l2.86567,7.08872l4.15765,-1.68076l0.81875,2.02535l-4.15765,1.68076l1.22815,3.03803l5.19704,-2.10093l1.63754,4.0507l-7.27587,2.94132l-6.55009,-16.2028l-5.19704,2.10093l-4.09381,-10.12674zM228.94613,138.46247l4.15765,-1.68076l-1.63752,-4.0507l-4.15764,1.68077z" fill="#f97b3d" stroke="none" stroke-width="1" stroke-linejoin="miter"/></g><g stroke-linecap="butt"><path d="M254.94355,132.51119l-0.68552,10.9014l-5.59458,-0.3518l-0.47986,7.63098l4.47568,0.28145l-0.1371,2.18028l-4.47568,-0.28144l-0.20565,3.27043l5.59458,0.3518l-0.27419,4.36056l-7.83243,-0.49252l1.09681,-17.44224l-5.59457,-0.35181l0.68552,-10.90139zM245.51234,139.5793l4.47568,0.28145l0.2742,-4.36056l-4.47568,-0.28144z" fill="none" stroke="#000000" stroke-width="4" stroke-linejoin="round"/><path d="M254.94355,132.51119l-0.68552,10.9014l-5.59458,-0.3518l-0.47986,7.63098l4.47568,0.28145l-0.1371,2.18028l-4.47568,-0.28144l-0.20565,3.27043l5.59458,0.3518l-0.27419,4.36056l-7.83243,-0.49252l1.09681,-17.44224l-5.59457,-0.35181l0.68552,-10.90139zM245.51234,139.5793l4.47568,0.28145l0.2742,-4.36056l-4.47568,-0.28144z" fill="#f97b3d" stroke="none" stroke-width="1" stroke-linejoin="miter"/></g><g stroke-linejoin="miter"><path d="M239.78724,109.80278v-12.82088h18v12.82088z" fill="#000000" stroke="none" stroke-width="1" stroke-linecap="butt"/><path d="M275.78724,109.80278v12.82088h-42v-12.82088h32v-2.74733c0,-1.01154 0.89543,-1.83156 2,-1.83156h3c1.10457,0 2,0.82001 2,1.83156v2.74733z" fill="#ff0000" stroke="#000000" stroke-width="2" stroke-linecap="butt"/><g stroke="none" stroke-linecap="butt"><path d="M275.78724,109.9371h-42v-17.19218c0,-2.58954 2.68629,-4.68878 6,-4.68878h30c3.31371,0 6,2.09923 6,4.68878z" fill="#9500ff" stroke-width="1"/><path d="M276.78724,110.71855h-44v-17.97366c0,-3.02113 3.13401,-5.47024 7,-5.47024h30c3.86599,0 7,2.44912 7,5.47024zM234.78724,109.15564h40v-16.41072c0,-2.15795 -2.23858,-3.90733 -5,-3.90733h-30c-2.76143,0 -5,1.74936 -5,3.90733z" fill="#000000" stroke-width="1"/><path d="M234.73992,92.73012c0,-2.15795 2.24569,-3.91975 5.00712,-3.91975h30.0804c2.76142,0 5.00712,1.7618 5.00712,3.91975l-0.0036,16.44771h-40.08745z" data-paper-data="{&quot;noHover&quot;:false,&quot;origItem&quot;:[&quot;Path&quot;,{&quot;applyMatrix&quot;:true,&quot;segments&quot;:[[220,164.29333],[260,164.29333],[[260,146.37333],[0,0],[0,-2.35642]],[[255,142.10666],[2.76142,0],[0,0]],[[225,142.10666],[0,0],[-2.76143,0]],[[220,146.37333],[0,-2.35642],[0,0]]],&quot;closed&quot;:true,&quot;fillColor&quot;:[0,0,0,1]}]}" fill="#ff7800" stroke-width="0.5"/></g><path d="M257.68724,103.44729h10.4" fill="none" stroke="#000000" stroke-width="2" stroke-linecap="round"/></g><g stroke-linecap="butt"><path d="M233.8583,119.60031l-8.00116,7.43585l-3.81607,-4.10618l-5.6008,5.2051l3.05287,3.28495l-1.60023,1.48717l-3.05287,-3.28495l-2.40035,2.23076l3.81607,4.10619l-3.20045,2.97434l-5.34252,-5.74866l12.80183,-11.89737l-3.81607,-4.10618l8.00116,-7.43585zM222.15177,118.23552l3.05287,3.28496l3.20046,-2.97434l-3.05287,-3.28496z" fill="none" stroke="#000000" stroke-width="4" stroke-linejoin="round"/><path d="M233.8583,119.60031l-8.00116,7.43585l-3.81607,-4.10618l-5.6008,5.2051l3.05287,3.28495l-1.60023,1.48717l-3.05287,-3.28495l-2.40035,2.23076l3.81607,4.10619l-3.20045,2.97434l-5.34252,-5.74866l12.80183,-11.89737l-3.81607,-4.10618l8.00116,-7.43585zM222.15177,118.23552l3.05287,3.28496l3.20046,-2.97434l-3.05287,-3.28496z" fill="#f97b3d" stroke="none" stroke-width="1" stroke-linejoin="miter"/></g><g stroke-linecap="butt"><path d="M234.66682,143.93433l-5.07272,9.67356l-4.96447,-2.6033l-3.55089,6.7715l3.97159,2.08265l-1.01454,1.93471l-3.97159,-2.08265l-1.52181,2.90208l4.96447,2.60331l-2.02907,3.86943l-6.95027,-3.64463l8.11632,-15.47772l-4.96447,-2.60331l5.07271,-9.67357zM223.17276,146.54055l3.97159,2.08265l2.02908,-3.86943l-3.97159,-2.08264z" fill="none" stroke="#000000" stroke-width="4" stroke-linejoin="round"/><path d="M234.66682,143.93433l-5.07272,9.67356l-4.96447,-2.6033l-3.55089,6.7715l3.97159,2.08265l-1.01454,1.93471l-3.97159,-2.08265l-1.52181,2.90208l4.96447,2.60331l-2.02907,3.86943l-6.95027,-3.64463l8.11632,-15.47772l-4.96447,-2.60331l5.07271,-9.67357zM223.17276,146.54055l3.97159,2.08265l2.02908,-3.86943l-3.97159,-2.08264z" fill="#f97b3d" stroke="none" stroke-width="1" stroke-linejoin="miter"/></g><g stroke-linecap="butt"><path d="M217.65157,154.25795l-0.68552,10.9014l-5.59459,-0.3518l-0.47986,7.63098l4.47568,0.28145l-0.1371,2.18028l-4.47568,-0.28145l-0.20565,3.27043l5.59459,0.3518l-0.27419,4.36056l-7.83243,-0.49252l1.09681,-17.44223l-5.59458,-0.35181l0.68552,-10.90139zM208.22036,161.32607l4.47568,0.28145l0.2742,-4.36056l-4.47568,-0.28144z" fill="none" stroke="#000000" stroke-width="4" stroke-linejoin="round"/><path d="M217.65157,154.25795l-0.68552,10.9014l-5.59459,-0.3518l-0.47986,7.63098l4.47568,0.28145l-0.1371,2.18028l-4.47568,-0.28145l-0.20565,3.27043l5.59459,0.3518l-0.27419,4.36056l-7.83243,-0.49252l1.09681,-17.44223l-5.59458,-0.35181l0.68552,-10.90139zM208.22036,161.32607l4.47568,0.28145l0.2742,-4.36056l-4.47568,-0.28144z" fill="#f97b3d" stroke="none" stroke-width="1" stroke-linejoin="miter"/></g></g></g></svg>