<svg version="1.1" xmlns="http://www.w3.org/2000/svg" xmlns:xlink="http://www.w3.org/1999/xlink" width="40.52361" height="44.60834" viewBox="0,0,40.52361,44.60834"><g transform="translate(-219.73997,-140.94862)"><g data-paper-data="{&quot;isPaintingLayer&quot;:true}" fill-rule="nonzero" stroke-linecap="butt" stroke-miterlimit="10" stroke-dasharray="" stroke-dashoffset="0" style="mix-blend-mode: normal"><path d="M220.75343,165.31039c0,-10.62959 8.61699,-19.24657 19.24658,-19.24657c10.62959,0 19.24657,8.61698 19.24657,19.24657c0,10.62959 -8.61698,19.24658 -19.24657,19.24658c-10.62959,0 -19.24658,-8.61698 -19.24658,-19.24658z" fill="#00ffff" stroke="#000000" stroke-width="2" stroke-linejoin="miter"/><path d="M220.75343,165.31039h38.49315c0,0 -0.01482,0.87807 -0.04398,1.31144c-0.6741,10.01796 -9.01376,17.93514 -19.20259,17.93514c-10.28032,0 -18.67812,-8.06001 -19.2189,-18.20552c-0.01837,-0.34469 -0.02768,-1.04105 -0.02768,-1.04105z" fill="#0090ff" stroke="#000000" stroke-width="2" stroke-linejoin="miter"/><g><path d="M230.30512,163.50313v-6.84382l6.84382,1.66666v5.17715z" data-paper-data="{&quot;index&quot;:null}" fill="#ffffff" stroke="#ffffff" stroke-width="2" stroke-linejoin="round"/><path d="M231.6739,162.13438v-4.10629h4.10629v4.10629z" data-paper-data="{&quot;index&quot;:null}" fill="#000000" stroke="none" stroke-width="1" stroke-linejoin="miter"/></g><g><path d="M243.51772,163.50313v-5.17715l6.84382,-1.66666v6.84382z" fill="#ffffff" stroke="#ffffff" stroke-width="2" stroke-linejoin="round"/><path d="M244.88649,162.13438v-4.10629h4.10629v4.10629z" fill="#000000" stroke="none" stroke-width="1" stroke-linejoin="miter"/></g><g data-paper-data="{&quot;index&quot;:null}" stroke-linejoin="miter"><path d="M256.21722,168.33311c-0.27445,-3.80024 0.09119,-7.82178 0.81669,-8.98236c0.7255,-1.16058 1.53612,0.97929 1.81058,4.77953c0.27445,3.80024 -0.09119,7.82178 -0.81669,8.98237c-0.7255,1.16058 -1.53613,-0.9793 -1.81058,-4.77954z" fill="#ffffff" stroke="#000000" stroke-width="2"/><path d="M255.43785,160.11766c-0.0203,-0.24831 0.51726,0.58401 0.51726,0.58401c0.07547,0.23717 0.29605,0.75835 0.33242,1.20346c0.23967,2.93279 -0.05883,5.91118 -0.69752,6.08502c-0.20668,0.05624 -0.28155,-0.18905 -0.48845,-0.33872c-0.57495,-0.41592 -1.13235,-1.1579 -1.67621,-2.37249c-0.22633,-0.50547 -0.42706,-1.39414 -0.63952,-2.04324c-0.33071,-1.6447 -0.72389,-2.90802 -1.04452,-4.68678c-0.17059,-0.94642 -0.27258,-1.97291 -0.41156,-3.02055c-0.26081,-1.96604 -0.55837,-3.83127 -0.68933,-6.14327c-0.08849,-1.56236 -0.07137,-3.20926 -0.04885,-4.7394c0.00607,-0.41272 -0.03016,-0.86003 -0.00614,-1.24939c0.00214,-0.03473 0.0044,-0.06916 0.00676,-0.10333l-0.00383,-0.00506l0.03996,-1.0479c0.01352,-0.4055 0.07538,-0.72821 0.15995,-0.78325c0.08457,-0.05503 0.16696,0.17382 0.20931,0.54296l0.11424,0.94754l-0.0053,0.01564l0.01451,0.06866c0.17846,2.26941 0.38802,4.27697 0.71989,6.09781c0.32579,1.47408 0.60794,2.97659 0.97493,4.21491c0.45249,1.52682 0.95296,2.50008 1.42382,3.83452c0.38289,1.08514 0.78508,2.11638 1.19819,2.93885z" fill="#ffffff" stroke="#000000" stroke-width="1"/><path d="M254.85303,163.97544c-0.02395,-0.19436 0.38306,-0.7326 0.38306,-0.7326c0.06918,0.14301 0.14958,0.18234 0.20753,0.429c0.06203,0.26404 0.09165,0.67866 0.13457,1.02709c0.28283,2.29569 0.15076,5.1798 -0.37146,5.81227c-0.169,0.20468 -0.2379,0.05434 -0.41305,0.08519c-0.48669,0.08572 -0.96835,-0.1174 -1.45251,-0.73011c-0.20149,-0.255 -0.39294,-0.85319 -0.58715,-1.24008c-0.32067,-1.13816 -0.68186,-1.90661 -0.99809,-3.16571c-0.16825,-0.66993 -0.28219,-1.45966 -0.42727,-2.23914c-0.27227,-1.4628 -0.57196,-2.81249 -0.74706,-4.66634c-0.11832,-1.25275 -0.1519,-2.65724 -0.17764,-3.96717c-0.00694,-0.35332 -0.04982,-0.7037 -0.04127,-1.05092c0.00076,-0.03096 0.00163,-0.06178 0.00259,-0.09244l-0.00331,-0.00135l0.00263,-0.91576c-0.00058,-0.35287 0.04113,-0.67257 0.10935,-0.78337c0.06822,-0.11079 0.14286,0.01992 0.18852,0.29958l0.12176,0.71373l-0.00392,0.01724l0.01396,0.04698c0.21307,1.78174 0.44425,3.31858 0.77097,4.60469c0.31166,0.99775 0.58812,2.0527 0.92696,2.81993c0.41778,0.94598 0.85914,1.38778 1.28652,2.15725c0.34753,0.62572 0.70943,1.19121 1.0743,1.57203z" fill="#ffffff" stroke="#000000" stroke-width="1"/><path d="M254.28179,166.927c-0.02472,-0.12761 0.26032,-0.9178 0.26032,-0.9178c0.05669,0.04633 0.11812,0.00243 0.17007,0.13897c0.05561,0.14614 0.09231,0.43821 0.13662,0.667c0.29195,1.50744 0.29473,3.85101 -0.07304,4.82011c-0.11901,0.31361 -0.17576,0.26139 -0.30548,0.44678c-0.36046,0.51511 -0.72732,0.80311 -1.11046,0.77788c-0.15945,-0.01049 -0.32346,-0.29466 -0.4821,-0.4135c-0.27951,-0.58085 -0.57628,-0.83952 -0.85672,-1.51764c-0.14921,-0.36079 -0.26207,-0.86402 -0.39784,-1.3306c-0.25478,-0.87559 -0.52605,-1.63877 -0.72201,-2.90525c-0.13241,-0.85584 -0.20688,-1.90676 -0.27217,-2.89207c-0.01761,-0.26576 -0.06195,-0.49611 -0.06777,-0.77147c-0.00052,-0.02455 -0.00095,-0.0491 -0.00131,-0.07361l-0.00252,0.00201l-0.03023,-0.70785c-0.01284,-0.27129 0.00706,-0.55606 0.05412,-0.70436c0.04705,-0.1483 0.1074,-0.11648 0.15133,0.05682l0.11603,0.43745l-0.00233,0.0169l0.01208,0.0233c0.22178,1.17591 0.44847,2.14645 0.7377,2.8357c0.26784,0.48102 0.51141,1.03856 0.79145,1.31691c0.34528,0.34321 0.69043,0.27626 1.03667,0.47465c0.28155,0.16132 0.57171,0.26298 0.8576,0.21967z" fill="#ffffff" stroke="#000000" stroke-width="1"/><path d="M255.0395,169.07832c-0.03115,-0.08011 0.17872,-1.33518 0.17872,-1.33518c0.05517,-0.05358 0.10875,-0.20229 0.16552,-0.16075c0.06077,0.04445 0.11379,0.26225 0.16963,0.4059c0.3679,0.94649 0.52518,3.19944 0.25107,4.77019c-0.0887,0.50831 -0.14432,0.55631 -0.25133,0.95964c-0.29736,1.12073 -0.61559,2.0337 -0.96947,2.67315c-0.14727,0.26612 -0.31681,0.2765 -0.47049,0.43685c-0.2953,-0.07537 -0.58518,0.18955 -0.88776,0.0221c-0.16099,-0.08909 -0.29796,-0.37838 -0.45357,-0.59266c-0.29202,-0.40216 -0.59178,-0.66744 -0.85553,-1.54809c-0.17823,-0.59511 -0.31606,-1.47855 -0.44113,-2.31469c-0.03373,-0.22554 -0.0897,-0.37063 -0.11323,-0.62581c-0.0021,-0.02275 -0.00412,-0.04565 -0.00606,-0.06864l-0.00218,0.0063l-0.07452,-0.62955c-0.02972,-0.2391 -0.03021,-0.54795 0.00325,-0.77233c0.03346,-0.22439 0.09104,-0.29828 0.14287,-0.20743l0.13554,0.22042l-0.00102,0.02031l0.01264,0.00152c0.28151,0.74864 0.55398,1.29095 0.86537,1.4539c0.27798,-0.0006 0.53869,0.11458 0.8145,-0.1024c0.34007,-0.26752 0.65294,-0.92995 0.98433,-1.33864c0.26947,-0.33233 0.54293,-0.73705 0.80288,-1.27406z" fill="#ffffff" stroke="#000000" stroke-width="1"/><path d="M252.72821,160.79437c-0.00838,-0.22529 0.0201,-0.43087 0.06362,-0.4592c0.04352,-0.02832 0.0856,0.13134 0.09399,0.35663c0.00838,0.22528 -0.0201,0.43087 -0.06362,0.45919c-0.04352,0.02832 -0.0856,-0.13133 -0.09399,-0.35663z" fill="#000000" stroke="none" stroke-width="0.5"/><path d="M252.67326,166.3659c-0.00838,-0.22528 0.0201,-0.43086 0.06362,-0.45919c0.04352,-0.02833 0.0856,0.13134 0.09399,0.35663c0.00838,0.22528 -0.0201,0.43087 -0.06362,0.4592c-0.04352,0.02833 -0.0856,-0.13134 -0.09399,-0.35663z" fill="#000000" stroke="none" stroke-width="0.5"/><path d="M253.31167,171.59065c-0.00838,-0.22528 0.0201,-0.43088 0.06362,-0.4592c0.04352,-0.02833 0.0856,0.13134 0.09399,0.35663c0.00838,0.22528 -0.0201,0.43087 -0.06362,0.4592c-0.04352,0.02832 -0.0856,-0.13135 -0.09399,-0.35663z" fill="#000000" stroke="none" stroke-width="0.5"/><path d="M257.01988,158.69811c-0.02806,-0.22968 0.52341,0.12924 0.52341,0.12924c0.08144,0.17028 0.31371,0.49659 0.36399,0.90831c0.3313,2.71276 0.13983,5.94199 -0.47659,6.67422c-0.19948,0.23695 -0.28059,0.05804 -0.48716,0.08998c-0.574,0.08874 -1.14177,-0.1628 -1.71213,-0.89714c-0.23736,-0.30561 -0.46254,-1.01547 -0.69118,-1.47636c-0.37705,-1.3495 -0.80222,-2.26428 -1.17392,-3.75619c-0.19776,-0.7938 -0.33136,-1.72744 -0.50169,-2.64978c-0.31966,-1.73088 -0.67176,-3.32916 -0.87645,-5.51845c-0.13832,-1.47943 -0.17656,-3.13558 -0.20567,-4.68007c-0.00785,-0.41658 -0.05807,-0.83061 -0.04766,-1.23962c0.00092,-0.03647 0.00197,-0.07277 0.00315,-0.1089l-0.0039,-0.00167l0.00398,-1.07922c-0.00035,-0.41591 0.04914,-0.79165 0.1297,-0.9205c0.08055,-0.12886 0.16844,0.02709 0.22202,0.35785l0.1429,0.84424l-0.00464,0.02023l0.01642,0.05572c0.24954,2.1053 0.52067,3.9224 0.90471,5.44642c0.36655,1.18379 0.69155,2.43408 1.09037,3.34688c0.49175,1.12545 1.01178,1.65727 1.51501,2.57494c0.40921,0.74622 0.83542,1.42183 1.26531,1.87987z" fill="#ffffff" stroke="#000000" stroke-width="1"/><path d="M256.5788,163.05425c-0.02982,-0.17271 0.34875,-1.0653 0.34875,-1.0653c0.07216,0.08196 0.15181,0.05079 0.21649,0.24587c0.06924,0.20882 0.11192,0.59607 0.16536,0.9057c0.3521,2.04012 0.31963,5.02973 -0.16803,6.11706c-0.15781,0.35188 -0.22996,0.26238 -0.39956,0.44642c-0.47129,0.51138 -0.9473,0.73053 -1.43942,0.54373c-0.2048,-0.07774 -0.41127,-0.50629 -0.61337,-0.72186c-0.35036,-0.85352 -0.72787,-1.30316 -1.07794,-2.28107c-0.18626,-0.52033 -0.3236,-1.20758 -0.49094,-1.85735c-0.31405,-1.21938 -0.65102,-2.30206 -0.88343,-3.99616c-0.15705,-1.14481 -0.23661,-2.515 -0.30538,-3.7978c-0.01855,-0.34601 -0.072,-0.65763 -0.07526,-1.01112c-0.00029,-0.03152 -0.00047,-0.06298 -0.00055,-0.09439l-0.00327,0.00154l-0.02798,-0.91485c-0.01234,-0.35113 0.01764,-0.70623 0.0804,-0.87634c0.06277,-0.17011 0.13985,-0.10518 0.19366,0.13354l0.14243,0.60466l-0.00325,0.02062l0.01517,0.03459c0.267,1.58902 0.54348,2.91815 0.90468,3.91381c0.3369,0.72149 0.64142,1.53077 0.99712,1.99876c0.43856,0.57702 0.88327,0.63098 1.3253,1.02371c0.35944,0.31936 0.73088,0.56614 1.09903,0.62629z" fill="#ffffff" stroke="#000000" stroke-width="1"/><path d="M256.08947,166.52216c-0.02834,-0.10552 0.223,-1.14244 0.223,-1.14244c0.05678,-0.00345 0.11516,-0.10094 0.17033,-0.01036c0.05905,0.09696 0.10455,0.35588 0.15535,0.54509c0.3347,1.24665 0.41558,3.57958 0.08961,4.86717c-0.10549,0.41668 -0.16251,0.4143 -0.28271,0.71258c-0.33399,0.8288 -0.68178,1.43687 -1.05588,1.74706c-0.15568,0.12909 -0.32495,-0.01052 -0.48347,0.00991c-0.29167,-0.33419 -0.58942,-0.33221 -0.88525,-0.7625c-0.1574,-0.22894 -0.28413,-0.63163 -0.43196,-0.97774c-0.27742,-0.64953 -0.56715,-1.17261 -0.80029,-2.26316c-0.15755,-0.73695 -0.26514,-1.71904 -0.36161,-2.64375c-0.02602,-0.24942 -0.0769,-0.44014 -0.09176,-0.70944c-0.00132,-0.02401 -0.00257,-0.04808 -0.00374,-0.0722l-0.00238,0.00421l-0.05307,-0.67891c-0.02156,-0.2591 -0.01166,-0.5603 0.02923,-0.74926c0.04089,-0.18896 0.10074,-0.21007 0.14933,-0.07583l0.12763,0.33436l-0.0017,0.01889l0.01255,0.01265c0.25529,0.97769 0.5085,1.74643 0.81326,2.18012c0.27697,0.24491 0.53286,0.58731 0.81496,0.6196c0.34782,0.03981 0.68185,-0.32897 1.02577,-0.43432c0.27967,-0.08567 0.56574,-0.2383 0.84281,-0.53169z" fill="#ffffff" stroke="#000000" stroke-width="1"/><path d="M256.89939,168.00279c-0.03302,-0.05255 0.12958,-1.48694 0.12958,-1.48694c0.05196,-0.10168 0.0992,-0.29675 0.15589,-0.30506c0.06069,-0.00889 0.1196,0.16173 0.17879,0.25602c0.38998,0.62118 0.61835,2.72859 0.40369,4.53375c-0.06946,0.58418 -0.12205,0.68068 -0.21285,1.17625c-0.25231,1.37707 -0.53189,2.56538 -0.85532,3.51231c-0.1346,0.39408 -0.29941,0.5528 -0.44379,0.8471c-0.29019,0.18334 -0.56377,0.70106 -0.86414,0.79902c-0.15981,0.05212 -0.3029,-0.11627 -0.46164,-0.19363c-0.2979,-0.14517 -0.59879,-0.14715 -0.88511,-0.79388c-0.19348,-0.43703 -0.35723,-1.19676 -0.50696,-1.9205c-0.04038,-0.19522 -0.09975,-0.29083 -0.13119,-0.52452c-0.0028,-0.02084 -0.00553,-0.04188 -0.00819,-0.06309l-0.00192,0.00819l-0.0936,-0.56213c-0.03692,-0.21225 -0.04771,-0.51959 -0.02259,-0.77248c0.02511,-0.25289 0.07874,-0.37691 0.13226,-0.33174l0.1394,0.10101l-0.00032,0.02114l0.01237,-0.00956c0.29922,0.49964 0.58275,0.80157 0.89155,0.69142c0.27079,-0.24389 0.52863,-0.3573 0.79009,-0.81491c0.32237,-0.56421 0.60509,-1.49817 0.9143,-2.19546c0.25144,-0.56703 0.50434,-1.20968 0.73968,-1.97231z" fill="#ffffff" stroke="#000000" stroke-width="1"/><path d="M254.41584,161.16051c0.1483,-1.61394 2.25716,-1.23241 2.61807,-1.80976c0.7255,-1.16058 1.53613,0.97929 1.81058,4.77953c0.27445,3.80024 -0.09119,7.82178 -0.81669,8.98237c-0.41388,0.66209 -2.39122,-0.14427 -2.74516,-1.32593c-0.07098,-0.23696 -0.55725,-2.33979 -0.7526,-4.75713c-0.21447,-2.65402 -0.13514,-5.64124 -0.1142,-5.86908z" fill="#ffffff" stroke="#000000" stroke-width="0"/><path d="M254.34375,161.84487c-0.01568,-0.21716 0.00521,-0.44695 0.04667,-0.51328c0.04146,-0.06632 0.08778,0.05596 0.10346,0.27312c0.01568,0.21716 -0.00521,0.44696 -0.04667,0.51328c-0.04146,0.06631 -0.08778,-0.05596 -0.10346,-0.27312z" fill="#000000" stroke="none" stroke-width="0.5"/><path d="M254.47605,167.44499c-0.01568,-0.21716 0.00521,-0.44696 0.04667,-0.51328c0.04146,-0.06632 0.08778,0.05596 0.10346,0.27312c0.01568,0.21716 -0.00521,0.44696 -0.04667,0.51328c-0.04146,0.06632 -0.08778,-0.05596 -0.10346,-0.27312z" fill="#000000" stroke="none" stroke-width="0.5"/><path d="M255.27226,172.0927c-0.01568,-0.21716 0.00521,-0.44695 0.04667,-0.51328c0.04146,-0.06632 0.08778,0.05595 0.10346,0.27312c0.01568,0.21716 -0.00521,0.44696 -0.04667,0.51327c-0.04146,0.06632 -0.08778,-0.05596 -0.10346,-0.27312z" fill="#000000" stroke="none" stroke-width="0.5"/></g><g data-paper-data="{&quot;index&quot;:null}" stroke-linejoin="miter"><path d="M222.63887,173.11264c-0.7255,-1.16059 -1.09114,-5.18213 -0.81669,-8.98237c0.27445,-3.80024 1.08508,-5.94011 1.81058,-4.77953c0.7255,1.16058 1.09114,5.18212 0.81669,8.98237c-0.27445,3.80023 -1.08508,5.94011 -1.81058,4.77953z" fill="#ffffff" stroke="#000000" stroke-width="2"/><path d="M225.22882,160.11766c0.4131,-0.82247 0.8153,-1.85371 1.19819,-2.93884c0.47085,-1.33445 0.97133,-2.3077 1.42382,-3.83453c0.36698,-1.23832 0.64914,-2.74084 0.97493,-4.21492c0.33186,-1.82084 0.54144,-3.8284 0.71989,-6.09781l0.01451,-0.06866l-0.0053,-0.01564l0.11424,-0.94754c0.04235,-0.36913 0.12474,-0.59798 0.20931,-0.54296c0.08457,0.05504 0.14642,0.37776 0.15995,0.78325l0.03996,1.04789l-0.00383,0.00506c0.00236,0.03417 0.00462,0.06861 0.00676,0.10333c0.02402,0.38936 -0.01222,0.83667 -0.00614,1.24939c0.02251,1.53014 0.03964,3.17704 -0.04885,4.7394c-0.13096,2.312 -0.42851,4.17723 -0.68933,6.14327c-0.13898,1.04764 -0.24097,2.07413 -0.41156,3.02055c-0.32063,1.77876 -0.71381,3.04208 -1.04452,4.68678c-0.21246,0.6491 -0.41319,1.53776 -0.63952,2.04323c-0.54386,1.21459 -1.10126,1.95657 -1.67621,2.37249c-0.20691,0.14968 -0.28177,0.39497 -0.48845,0.33873c-0.63869,-0.17384 -0.93719,-3.15223 -0.69752,-6.08502c0.03637,-0.44511 0.25695,-0.9663 0.33242,-1.20347c0,0 0.53757,-0.83231 0.51726,-0.58401z" fill="#ffffff" stroke="#000000" stroke-width="1"/><path d="M225.81364,163.97545c0.36486,-0.38082 0.72676,-0.94632 1.07429,-1.57204c0.42738,-0.76948 0.86874,-1.21127 1.28652,-2.15725c0.33884,-0.76723 0.6153,-1.82217 0.92696,-2.81992c0.32672,-1.28611 0.55789,-2.82295 0.77097,-4.60469l0.01396,-0.04698l-0.00392,-0.01725l0.12176,-0.71373c0.04566,-0.27966 0.1203,-0.41037 0.18852,-0.29958c0.06822,0.1108 0.10993,0.4305 0.10935,0.78337l0.00263,0.91575l-0.00331,0.00135c0.00096,0.03066 0.00183,0.06149 0.00259,0.09244c0.00855,0.34722 -0.03433,0.6976 -0.04127,1.05092c-0.02575,1.30993 -0.05932,2.71442 -0.17764,3.96717c-0.1751,1.85385 -0.47478,3.20354 -0.74706,4.66634c-0.14508,0.77948 -0.25902,1.56921 -0.42727,2.23914c-0.31623,1.2591 -0.67742,2.02755 -0.99809,3.16571c-0.19421,0.38689 -0.38565,0.9851 -0.58715,1.24009c-0.48417,0.61271 -0.96582,0.81583 -1.45251,0.7301c-0.17515,-0.03085 -0.24405,0.11948 -0.41305,-0.08519c-0.52222,-0.63247 -0.65429,-3.51658 -0.37146,-5.81227c0.04292,-0.34843 0.07254,-0.76304 0.13458,-1.02708c0.05795,-0.24667 0.13835,-0.286 0.20753,-0.42901c0,0 0.40701,0.53824 0.38306,0.7326z" fill="#ffffff" stroke="#000000" stroke-width="1"/><path d="M226.38487,166.92699c0.28588,0.04331 0.57605,-0.05836 0.8576,-0.21967c0.34623,-0.19839 0.69139,-0.13144 1.03667,-0.47465c0.28003,-0.27835 0.5236,-0.83589 0.79144,-1.31691c0.28923,-0.68925 0.51592,-1.65979 0.7377,-2.8357l0.01208,-0.0233l-0.00233,-0.01691l0.11603,-0.43744c0.04393,-0.1733 0.10428,-0.20513 0.15133,-0.05682c0.04705,0.1483 0.06697,0.43308 0.05412,0.70436l-0.03023,0.70785l-0.00252,-0.00201c-0.00036,0.02451 -0.00079,0.04905 -0.00131,0.07361c-0.00583,0.27536 -0.05017,0.50571 -0.06777,0.77147c-0.06529,0.98532 -0.13975,2.03624 -0.27217,2.89208c-0.19595,1.26648 -0.46723,2.02965 -0.72201,2.90524c-0.13576,0.46658 -0.24863,0.9698 -0.39784,1.3306c-0.28044,0.67812 -0.57721,0.93679 -0.85671,1.51764c-0.15864,0.11883 -0.32266,0.403 -0.48211,0.4135c-0.38313,0.02523 -0.74999,-0.26277 -1.11045,-0.77788c-0.12972,-0.18538 -0.18646,-0.13317 -0.30548,-0.44678c-0.36777,-0.9691 -0.36499,-3.31266 -0.07304,-4.82011c0.0443,-0.22879 0.081,-0.52085 0.13662,-0.66699c0.05195,-0.13654 0.11338,-0.09265 0.17007,-0.13898c0,0 0.28505,0.79019 0.26032,0.9178z" fill="#ffffff" stroke="#000000" stroke-width="1"/><path d="M225.62716,169.07836c0.25995,0.53701 0.5334,0.94173 0.80288,1.27406c0.33139,0.40869 0.64426,1.07113 0.98433,1.33865c0.27581,0.21697 0.53652,0.1018 0.8145,0.1024c0.31138,-0.16296 0.58386,-0.70526 0.86537,-1.4539l0.01264,-0.00153l-0.00102,-0.02031l0.13555,-0.22042c0.05183,-0.09085 0.1094,-0.01696 0.14287,0.20743c0.03346,0.22438 0.03297,0.53323 0.00325,0.77233l-0.07452,0.62955l-0.00218,-0.0063c-0.00195,0.02299 -0.00396,0.04588 -0.00606,0.06864c-0.02353,0.25518 -0.0795,0.40027 -0.11324,0.62581c-0.12506,0.83614 -0.2629,1.71958 -0.44113,2.31469c-0.26374,0.88065 -0.56351,1.14592 -0.85553,1.54809c-0.15561,0.21428 -0.29258,0.50358 -0.45357,0.59267c-0.30257,0.16745 -0.59247,-0.09748 -0.88776,-0.02211c-0.15368,-0.16035 -0.32322,-0.17073 -0.47049,-0.43685c-0.35388,-0.63945 -0.67211,-1.55242 -0.96947,-2.67315c-0.10701,-0.40333 -0.16263,-0.45133 -0.25133,-0.95964c-0.27411,-1.57074 -0.11683,-3.8237 0.25107,-4.77019c0.05584,-0.14365 0.10885,-0.36145 0.16962,-0.4059c0.05677,-0.04153 0.11034,0.10718 0.16552,0.16076c0,0 0.20987,1.25508 0.17872,1.33518z" fill="#ffffff" stroke="#000000" stroke-width="1"/><path d="M227.93846,160.79437c-0.00839,0.2253 -0.05047,0.38495 -0.09399,0.35663c-0.04352,-0.02833 -0.07201,-0.23391 -0.06362,-0.45919c0.00838,-0.22529 0.05046,-0.38495 0.09399,-0.35662c0.04352,0.02833 0.07201,0.23391 0.06362,0.4592z" fill="#000000" stroke="none" stroke-width="0.5"/><path d="M227.89941,166.72254c-0.04352,-0.02833 -0.07201,-0.23392 -0.06362,-0.4592c0.00838,-0.22529 0.05046,-0.38496 0.09399,-0.35663c0.04352,0.02833 0.07201,0.23391 0.06362,0.45919c-0.00838,0.22529 -0.05046,0.38497 -0.09399,0.35664z" fill="#000000" stroke="none" stroke-width="0.5"/><path d="M227.35499,171.59065c-0.00838,0.22528 -0.05047,0.38496 -0.09399,0.35663c-0.04352,-0.02833 -0.07201,-0.23392 -0.06362,-0.4592c0.00838,-0.22529 0.05046,-0.38496 0.09399,-0.35663c0.04352,0.02833 0.07201,0.23392 0.06362,0.4592z" fill="#000000" stroke="none" stroke-width="0.5"/><path d="M223.64679,158.69812c0.42989,-0.45804 0.8561,-1.13366 1.26531,-1.87988c0.50323,-0.91767 1.02325,-1.44949 1.515,-2.57494c0.39882,-0.91279 0.72382,-2.16308 1.09037,-3.34688c0.38403,-1.52402 0.65516,-3.34112 0.90471,-5.44642l0.01642,-0.05572l-0.00465,-0.02023l0.1429,-0.84424c0.05357,-0.33076 0.14147,-0.48671 0.22202,-0.35784c0.08055,0.12885 0.13005,0.5046 0.1297,0.9205l0.00398,1.07922l-0.0039,0.00167c0.00116,0.03613 0.00222,0.07242 0.00315,0.1089c0.01041,0.40902 -0.03981,0.82304 -0.04765,1.23962c-0.0291,1.54449 -0.06734,3.20064 -0.20567,4.68007c-0.20469,2.18929 -0.55678,3.78756 -0.87645,5.51844c-0.17034,0.92234 -0.30393,1.85598 -0.5017,2.64978c-0.37169,1.49192 -0.79686,2.40669 -1.17391,3.75619c-0.22864,0.46089 -0.45382,1.17075 -0.69118,1.47636c-0.57035,0.73433 -1.13812,0.98588 -1.71213,0.89714c-0.20656,-0.03193 -0.28767,0.14697 -0.48716,-0.08998c-0.61642,-0.73223 -0.80789,-3.96145 -0.47658,-6.67421c0.05028,-0.41172 0.28255,-0.73804 0.36399,-0.90832c0,0 0.55147,-0.35891 0.52341,-0.12923z" fill="#ffffff" stroke="#000000" stroke-width="1"/><path d="M224.08785,163.05429c0.36816,-0.06015 0.73959,-0.30693 1.09903,-0.62629c0.44203,-0.39273 0.88674,-0.44668 1.3253,-1.02371c0.35569,-0.46799 0.66021,-1.27728 0.99711,-1.99876c0.36119,-0.99566 0.63766,-2.32479 0.90468,-3.91381l0.01517,-0.03459l-0.00324,-0.02062l0.14243,-0.60466c0.05381,-0.23871 0.13089,-0.30365 0.19366,-0.13354c0.06276,0.17011 0.09274,0.52522 0.0804,0.87635l-0.02798,0.91484l-0.00327,-0.00154c-0.00008,0.03141 -0.00026,0.06286 -0.00055,0.09439c-0.00325,0.35349 -0.05671,0.66512 -0.07526,1.01112c-0.06877,1.2828 -0.14832,2.653 -0.30538,3.7978c-0.23241,1.6941 -0.56939,2.77679 -0.88343,3.99616c-0.16734,0.64976 -0.30468,1.33702 -0.49094,1.85734c-0.35007,0.97791 -0.72757,1.42755 -1.07794,2.28107c-0.2021,0.21557 -0.40856,0.64412 -0.61337,0.72186c-0.49212,0.1868 -0.96813,-0.03235 -1.43942,-0.54373c-0.1696,-0.18403 -0.24175,-0.09454 -0.39956,-0.44642c-0.48766,-1.08733 -0.52013,-4.07693 -0.16803,-6.11705c0.05344,-0.30963 0.09612,-0.69689 0.16536,-0.90571c0.06468,-0.19507 0.14433,-0.1639 0.21649,-0.24586c0,0 0.37857,0.89258 0.34875,1.06529z" fill="#ffffff" stroke="#000000" stroke-width="1"/><path d="M224.57719,166.52217c0.27707,0.29339 0.56314,0.44603 0.84281,0.53169c0.34393,0.10534 0.67795,0.47413 1.02577,0.43433c0.28209,-0.03229 0.53798,-0.3747 0.81496,-0.61961c0.30476,-0.43369 0.55798,-1.20243 0.81326,-2.18012l0.01254,-0.01265l-0.0017,-0.01889l0.12763,-0.33436c0.04858,-0.13424 0.10843,-0.11313 0.14932,0.07583c0.04089,0.18896 0.05079,0.49016 0.02923,0.74926l-0.05307,0.67891l-0.00238,-0.00421c-0.00117,0.02412 -0.00241,0.0482 -0.00374,0.0722c-0.01486,0.2693 -0.06574,0.46003 -0.09176,0.70945c-0.09647,0.92472 -0.20406,1.9068 -0.36161,2.64375c-0.23314,1.09055 -0.52288,1.61363 -0.80029,2.26316c-0.14782,0.34611 -0.27456,0.74881 -0.43196,0.97775c-0.29583,0.43029 -0.59357,0.42831 -0.88525,0.7625c-0.15851,-0.02042 -0.32778,0.11918 -0.48347,-0.00991c-0.3741,-0.31019 -0.72189,-0.91827 -1.05588,-1.74706c-0.12019,-0.29827 -0.17722,-0.29589 -0.28271,-0.71258c-0.32597,-1.28759 -0.24509,-3.62052 0.08961,-4.86716c0.0508,-0.18921 0.09629,-0.44813 0.15535,-0.54509c0.05516,-0.09058 0.11355,0.0069 0.17033,0.01036c0,0 0.25134,1.03692 0.223,1.14245z" fill="#ffffff" stroke="#000000" stroke-width="1"/><path d="M223.76727,168.00278c0.23533,0.76263 0.48824,1.40528 0.73968,1.97231c0.30921,0.69729 0.59193,1.63126 0.9143,2.19547c0.26146,0.45761 0.5193,0.57102 0.79009,0.81491c0.30879,0.11015 0.59232,-0.19177 0.89155,-0.69142l0.01237,0.00956l-0.00032,-0.02114l0.1394,-0.10101c0.05352,-0.04516 0.10715,0.07885 0.13226,0.33174c0.02511,0.25289 0.01433,0.56023 -0.02259,0.77248l-0.0936,0.56213l-0.00191,-0.00819c-0.00266,0.02121 -0.00539,0.04225 -0.0082,0.06309c-0.03144,0.23369 -0.0908,0.3293 -0.13119,0.52452c-0.14973,0.72375 -0.31348,1.48348 -0.50696,1.92051c-0.28632,0.64673 -0.5872,0.64871 -0.8851,0.79388c-0.15874,0.07736 -0.30183,0.24574 -0.46164,0.19363c-0.30036,-0.09796 -0.57394,-0.61568 -0.86414,-0.79902c-0.14437,-0.2943 -0.30919,-0.45303 -0.44379,-0.8471c-0.32343,-0.94693 -0.603,-2.13524 -0.85531,-3.51231c-0.0908,-0.49557 -0.14339,-0.59207 -0.21285,-1.17625c-0.21465,-1.80516 0.01371,-3.91257 0.40369,-4.53375c0.05919,-0.09429 0.1181,-0.26491 0.17879,-0.25601c0.0567,0.00831 0.10393,0.20337 0.15589,0.30506c0,0 0.1626,1.43439 0.12958,1.48694z" fill="#ffffff" stroke="#000000" stroke-width="1"/><path d="M226.25083,161.16052c0.02093,0.22784 0.10026,3.21505 -0.1142,5.86907c-0.19534,2.41733 -0.68162,4.52017 -0.7526,4.75714c-0.35393,1.18165 -2.33127,1.98801 -2.74516,1.32592c-0.7255,-1.16059 -1.09114,-5.18213 -0.81669,-8.98237c0.27445,-3.80024 1.08508,-5.94011 1.81058,-4.77953c0.36091,0.57735 2.46977,0.19582 2.61807,1.80976z" fill="#ffffff" stroke="#000000" stroke-width="0"/><path d="M226.21945,162.11799c-0.04145,-0.06633 -0.06235,-0.29613 -0.04666,-0.51328c0.01568,-0.21716 0.062,-0.33943 0.10346,-0.27312c0.04146,0.06633 0.06235,0.29612 0.04667,0.51328c-0.01568,0.21716 -0.06201,0.33943 -0.10346,0.27312z" fill="#000000" stroke="none" stroke-width="0.5"/><path d="M226.08716,167.71811c-0.04146,-0.06633 -0.06235,-0.29612 -0.04667,-0.51328c0.01568,-0.21716 0.062,-0.33944 0.10346,-0.27312c0.04146,0.06632 0.06235,0.29613 0.04667,0.51328c-0.01568,0.21716 -0.062,0.33944 -0.10346,0.27312z" fill="#000000" stroke="none" stroke-width="0.5"/><path d="M225.3944,172.09269c-0.01568,0.21715 -0.062,0.33943 -0.10346,0.27312c-0.04146,-0.06631 -0.06235,-0.29611 -0.04667,-0.51327c0.01568,-0.21716 0.062,-0.33944 0.10346,-0.27312c0.04146,0.06633 0.06235,0.29612 0.04667,0.51328z" fill="#000000" stroke="none" stroke-width="0.5"/></g></g></g></svg>