<svg version="1.1" xmlns="http://www.w3.org/2000/svg" xmlns:xlink="http://www.w3.org/1999/xlink" width="72" height="399.5" viewBox="0,0,72,399.5"><g transform="translate(-204,-148.5)"><g data-paper-data="{&quot;isPaintingLayer&quot;:true}" fill-rule="nonzero" stroke="none" stroke-width="1" stroke-linecap="butt" stroke-linejoin="miter" stroke-miterlimit="10" stroke-dasharray="" stroke-dashoffset="0" style="mix-blend-mode: normal"><path d="M210,180h60c3.31371,0 6,2.68629 6,6v362h-72v-362c0,-3.31371 2.68629,-6 6,-6z" fill="#a3d6c1"/><path d="M242.53846,148.5v4.23077h-2.11538v6.76923h-2.96154v-1.69231h2.11538v-1.26923h-1.69231v-0.84615h1.69231v-2.96154h-2.11538v-4.23077zM240.84615,149.76923h-1.69231v1.69231h1.69231z" fill="#a3d6c1"/><path d="M218.95833,167.5h42.08333c2.3242,0 4.20833,2.68629 4.20833,6v362h-50.5v-362c0,-3.31371 1.88413,-6 4.20833,-6z" fill="#a3d6c1"/></g></g></svg>