<svg version="1.1" xmlns="http://www.w3.org/2000/svg" xmlns:xlink="http://www.w3.org/1999/xlink" width="45.27182" height="47.65193" viewBox="0,0,45.27182,47.65193"><g transform="translate(-217.3372,-157.17403)"><g data-paper-data="{&quot;isPaintingLayer&quot;:true}" fill-rule="nonzero" stroke-linecap="butt" stroke-miterlimit="10" stroke-dasharray="" stroke-dashoffset="0" style="mix-blend-mode: normal"><path d="M223.85726,189.56277v-13.83687h21.61769v13.83687z" fill="#000000" stroke="none" stroke-width="1" stroke-linejoin="miter"/><path d="M219.3372,202.82597v-13.83687h41.27013v13.83687z" fill="#ff0000" stroke="#000000" stroke-width="4" stroke-linejoin="miter"/><g><g stroke="none" stroke-width="1" stroke-linejoin="miter"><path d="M260.64258,186.78525l-41.28032,0.11171l-0.00554,-15.80964c-0.0023,-6.54857 5.27636,-11.87153 11.79022,-11.88915l17.69156,-0.04787c6.51386,-0.01762 11.79625,5.27675 11.79854,11.82532z" fill="#ff7800"/><path d="M262.60902,188.75613l-45.21179,0.12235l-0.00624,-17.78584c-0.00269,-7.63999 6.15576,-13.85011 13.75526,-13.87067l17.69155,-0.04788c7.5995,-0.02057 13.76228,6.15621 13.76497,13.7962zM221.32731,184.91543l37.34886,-0.10107l-0.00485,-13.83343c-0.00192,-5.45715 -4.4039,-9.86912 -9.83213,-9.85442l-17.69156,0.04787c-5.42822,0.0147 -9.82709,4.45048 -9.82517,9.90763z" fill="#000000"/></g><path d="M240.98251,178.93362l-0.00347,-9.88101l9.82864,-0.0266l0.00347,9.88101z" fill="#ffffff" stroke="#ffffff" stroke-width="2" stroke-linejoin="round"/><path d="M244.91327,176.94678l-0.00208,-5.9286l5.89718,-0.01596l0.00208,5.92861z" fill="#000000" stroke="none" stroke-width="1" stroke-linejoin="miter"/></g></g></g></svg>