<svg version="1.1" xmlns="http://www.w3.org/2000/svg" xmlns:xlink="http://www.w3.org/1999/xlink" width="63.41006" height="58.88017" viewBox="0,0,63.41006,58.88017"><g transform="translate(-209.55423,-152.11984)"><g data-paper-data="{&quot;isPaintingLayer&quot;:true}" fill-rule="nonzero" stroke="none" stroke-linecap="butt" stroke-miterlimit="10" stroke-dasharray="" stroke-dashoffset="0" style="mix-blend-mode: normal"><path d="M234.20424,211.00001v-28.19436h11.49852v28.19436z" data-paper-data="{&quot;index&quot;:null}" fill="#c4a639" stroke-width="0" stroke-linejoin="round"/><path d="M268.64056,185.68625c-0.18113,0.97576 -1.34628,1.72225 -2.60045,1.55667c-5.56863,-0.73517 -45.76122,-6.04139 -54.93727,-7.25281c-1.19317,-0.15752 -1.72491,-0.98385 -1.49699,-2.21162c1.00081,-5.39146 3.75463,-20.22645 4.3583,-23.4784c0.22813,-1.22897 1.11628,-2.32261 2.30945,-2.16509c9.17605,1.21142 49.36864,6.51765 54.93727,7.25282c1.25418,0.16558 2.02553,1.54052 1.66408,3.48766c-1.17134,6.31008 -3.7161,20.01876 -4.23437,22.81077z" data-paper-data="{&quot;index&quot;:null}" fill="#ae9332" stroke-width="0" stroke-linejoin="round"/><text transform="translate(213.16515,165.44516) rotate(4.59448) scale(0.18002,0.18002)" font-size="40" xml:space="preserve" fill="#726121" fill-rule="nonzero" stroke="none" stroke-width="1" stroke-linecap="butt" stroke-linejoin="miter" stroke-miterlimit="10" stroke-dasharray="" stroke-dashoffset="0" font-family="Sans Serif" font-weight="normal" text-anchor="start" style="mix-blend-mode: normal"><tspan x="0" dy="0">appelmoeshapje</tspan><tspan x="0" dy="46.15px">          valley</tspan></text></g></g></svg>