<svg version="1.1" xmlns="http://www.w3.org/2000/svg" xmlns:xlink="http://www.w3.org/1999/xlink" width="68.91926" height="43.83291" viewBox="0,0,68.91926,43.83291"><g transform="translate(-204.90779,-141.72405)"><g data-paper-data="{&quot;isPaintingLayer&quot;:true}" fill-rule="nonzero" stroke-linecap="butt" stroke-miterlimit="10" stroke-dasharray="" stroke-dashoffset="0" style="mix-blend-mode: normal"><g data-paper-data="{&quot;index&quot;:null}" stroke-linejoin="miter"><path d="M228.09738,167.54746c-1.49205,-3.6791 -0.86294,-7.70337 1.40514,-8.98849c2.26808,-1.28512 5.31626,0.6556 6.80832,4.33469c1.49205,3.6791 0.86295,7.70338 -1.40514,8.9885c-2.26808,1.28512 -5.31628,-0.6556 -6.80832,-4.3347z" fill="#ffffff" stroke="#000000" stroke-width="2"/><path d="M224.24571,159.63103c-0.10547,-0.23992 1.8282,0.47057 1.8282,0.47057c0.28947,0.21796 1.10977,0.68603 1.29875,1.1161c1.24523,2.83374 0.68606,5.81969 -1.43742,6.11797c-0.68719,0.09651 -0.97582,-0.12955 -1.69456,-0.23532c-1.9972,-0.29391 -3.98409,-0.91168 -5.9961,-1.99651c-0.83732,-0.45147 -1.64577,-1.28455 -2.45789,-1.87991c-1.35901,-1.54997 -2.87119,-2.71276 -4.2163,-4.39646c-0.71568,-0.89584 -1.21245,-1.88406 -1.83687,-2.88566c-1.17182,-1.87965 -2.4522,-3.65291 -3.23872,-5.8984c-0.5315,-1.51741 -0.72016,-3.13896 -0.87325,-4.64687c-0.04129,-0.40673 -0.23013,-0.83899 -0.20755,-1.22634c0.00201,-0.03454 0.00446,-0.06883 0.00732,-0.10288l-0.01365,-0.0042l-0.02222,-1.03757c-0.01514,-0.40111 0.14478,-0.73054 0.42116,-0.8015c0.27638,-0.07095 0.5879,0.13747 0.78564,0.4917l0.52619,0.90819l-0.01552,0.01642l0.0591,0.06456c0.94001,2.19417 1.94557,4.12484 3.33478,5.84764c1.31689,1.38332 2.49122,2.80327 3.91151,3.94672c1.7512,1.40985 3.5811,2.26622 5.36536,3.48339c1.45092,0.98976 2.95871,1.92272 4.47203,2.64838z" fill="#ffffff" stroke="#000000" stroke-width="1"/><path d="M222.85448,163.53817c-0.10969,-0.18618 1.17962,-0.79625 1.17962,-0.79625c0.2542,0.1267 0.53068,0.14929 0.76261,0.38009c0.24826,0.24705 0.40996,0.64851 0.60654,0.98229c1.2952,2.19915 1.28209,5.05925 -0.38087,5.7849c-0.53816,0.23483 -0.79254,0.10087 -1.37739,0.16615c-1.62514,0.18136 -3.27652,0.07792 -4.99762,-0.42746c-0.71627,-0.21032 -1.45005,-0.75988 -2.16151,-1.10125c-1.24944,-1.05427 -2.57995,-1.73722 -3.83253,-2.91122c-0.66645,-0.62464 -1.16801,-1.37784 -1.77288,-2.11476c-1.13512,-1.38291 -2.34557,-2.64922 -3.21212,-4.43574c-0.58557,-1.20725 -0.90864,-2.58052 -1.1912,-3.86243c-0.07621,-0.34576 -0.27292,-0.68147 -0.29608,-1.02434c-0.00207,-0.03057 -0.00376,-0.06102 -0.00509,-0.09135l-0.01135,-0.00066l-0.1281,-0.90029c-0.05474,-0.3466 0.03783,-0.66903 0.25086,-0.79151c0.21302,-0.12247 0.48378,-0.00894 0.67929,0.25672l0.51653,0.67696l-0.01063,0.01773l0.05403,0.04337c0.98358,1.70811 1.99145,3.17196 3.28339,4.3704c1.19811,0.91812 2.28633,1.89946 3.54144,2.58567c1.54754,0.84608 3.09899,1.19207 4.65241,1.86281c1.2632,0.54542 2.56575,1.02881 3.85065,1.33016z" fill="#ffffff" stroke="#000000" stroke-width="1"/><path d="M221.37344,166.5522c-0.10231,-0.12045 0.73884,-0.95373 0.73884,-0.95373c0.19773,0.0342 0.39791,-0.02118 0.59318,0.1026c0.20903,0.13249 0.37622,0.41213 0.55955,0.62808c1.208,1.42285 1.56788,3.72493 0.47509,4.75051c-0.35364,0.33189 -0.55244,0.29191 -0.96128,0.49994c-1.13609,0.57806 -2.32767,0.93425 -3.62089,0.98593c-0.53819,0.02151 -1.13268,-0.22495 -1.68437,-0.31006c-1.02756,-0.51493 -2.06502,-0.70985 -3.11027,-1.32015c-0.55614,-0.32471 -1.01124,-0.79663 -1.53794,-1.22795c-0.98842,-0.80945 -2.01553,-1.50516 -2.86443,-2.7104c-0.57366,-0.81447 -0.98143,-1.83217 -1.34853,-2.78725c-0.09901,-0.2576 -0.2827,-0.47509 -0.34349,-0.74448c-0.00542,-0.02402 -0.01056,-0.04806 -0.01543,-0.07206l-0.00818,0.00249l-0.20763,-0.68946c-0.08381,-0.26399 -0.05939,-0.54776 0.07679,-0.70287c0.13618,-0.15511 0.34402,-0.13588 0.5178,0.02562l0.45594,0.40664l-0.00531,0.01707l0.04416,0.02048c0.92227,1.11111 1.83035,2.01946 2.90685,2.63895c0.97336,0.41916 1.87646,0.91835 2.86055,1.13595c1.21337,0.26829 2.36496,0.13364 3.55989,0.25946c0.97168,0.10231 1.96344,0.14428 2.9191,0.04468z" fill="#ffffff" stroke="#000000" stroke-width="1"/><path d="M224.24525,168.51472c-0.11683,-0.07249 0.40179,-1.34754 0.40179,-1.34754c0.17768,-0.06365 0.33574,-0.22046 0.53302,-0.19099c0.21118,0.03155 0.42218,0.23495 0.63159,0.36495c1.37973,0.85654 2.246,3.03875 1.5584,4.63678c-0.22251,0.51713 -0.40251,0.5754 -0.70234,0.99305c-0.83314,1.16051 -1.76761,2.12105 -2.86295,2.81996c-0.45584,0.29086 -1.02486,0.33491 -1.51809,0.52312c-1.00509,-0.01512 -1.94108,0.30303 -2.98445,0.1989c-0.55514,-0.0554 -1.05938,-0.3123 -1.61512,-0.49178c-1.04295,-0.33685 -2.09146,-0.53767 -3.11082,-1.35029c-0.68884,-0.54914 -1.28485,-1.38966 -1.83081,-2.18622c-0.14727,-0.21487 -0.35733,-0.34626 -0.4747,-0.59228c-0.01047,-0.02193 -0.02068,-0.04402 -0.03069,-0.06622l-0.0064,0.00662l-0.34498,-0.60369c-0.13578,-0.22899 -0.18363,-0.53235 -0.10457,-0.75949c0.07907,-0.22714 0.26178,-0.31123 0.4498,-0.23232l0.48915,0.18951l-0.00039,0.02016l0.04278,-0.00103c1.0594,0.67938 2.05749,1.15784 3.12984,1.2558c0.93544,-0.05607 1.8301,0.00506 2.72589,-0.26317c1.10448,-0.33072 2.05838,-1.04403 3.11255,-1.51172c0.85722,-0.38031 1.717,-0.83255 2.51153,-1.41206z" fill="#ffffff" stroke="#000000" stroke-width="1"/><path d="M215.22765,160.83674c-0.06192,-0.21968 0.0032,-0.42736 0.14545,-0.46388c0.14224,-0.03651 0.30775,0.11197 0.36966,0.33164c0.06191,0.21967 -0.00321,0.42735 -0.14545,0.46387c-0.14224,0.03651 -0.30774,-0.11195 -0.36966,-0.33163z" fill="#000000" stroke="none" stroke-width="0.5"/><path d="M215.87602,166.32193c-0.06191,-0.21967 0.00321,-0.42735 0.14545,-0.46387c0.14225,-0.03653 0.30774,0.11196 0.36966,0.33164c0.06191,0.21967 -0.0032,0.42736 -0.14545,0.46388c-0.14225,0.03653 -0.30775,-0.11197 -0.36967,-0.33165z" fill="#000000" stroke="none" stroke-width="0.5"/><path d="M218.80602,171.32802c-0.06191,-0.21967 0.0032,-0.42736 0.14545,-0.46388c0.14225,-0.03653 0.30775,0.11197 0.36966,0.33164c0.06191,0.21967 -0.0032,0.42736 -0.14545,0.46388c-0.14224,0.03651 -0.30775,-0.11197 -0.36967,-0.33164z" fill="#000000" stroke="none" stroke-width="0.5"/><path d="M229.35769,157.92054c-0.12879,-0.22006 1.78085,0.02252 1.78085,0.02252c0.29955,0.15106 1.13005,0.42531 1.36086,0.8198c1.52073,2.59926 1.35931,5.81031 -0.60575,6.65277c-0.63592,0.27262 -0.93565,0.11303 -1.62607,0.18564c-1.91851,0.20175 -3.86699,0.06792 -5.89631,-0.53976c-0.84454,-0.2529 -1.70855,-0.90542 -2.54696,-1.31262c-1.47078,-1.25067 -3.03853,-2.06462 -4.51258,-3.4563c-0.7843,-0.74046 -1.37354,-1.63114 -2.08475,-2.50337c-1.33471,-1.63686 -2.75871,-3.13694 -3.77503,-5.24715c-0.6868,-1.42599 -1.06319,-3.04558 -1.39214,-4.55729c-0.08872,-0.40775 -0.31965,-0.80451 -0.34579,-1.20846c-0.00233,-0.03602 -0.00422,-0.0719 -0.0057,-0.10762l-0.01338,-0.00086l-0.148,-1.06117c-0.06339,-0.40857 0.047,-0.78764 0.29883,-0.93032c0.25182,-0.14268 0.57096,-0.007 0.80074,0.30729l0.60719,0.80097l-0.01261,0.0208l0.06362,0.05148c1.15472,2.01873 2.33897,3.74998 3.85937,5.17073c1.41067,1.08996 2.69144,2.25355 4.1702,3.0708c1.8233,1.00764 3.65299,1.4264 5.48384,2.2276c1.4888,0.65152 3.02427,1.23026 4.53956,1.59451z" fill="#ffffff" stroke="#000000" stroke-width="1"/><path d="M228.52477,162.28863c-0.12619,-0.16374 1.01439,-1.1163 1.01439,-1.1163c0.25512,0.06613 0.5185,0.0196 0.76537,0.19836c0.26427,0.19136 0.46582,0.56333 0.69198,0.85689c1.49012,1.93421 1.82799,4.8781 0.34937,6.04376c-0.47849,0.37723 -0.73468,0.30369 -1.27796,0.51836c-1.50963,0.59651 -3.07885,0.90684 -4.76302,0.82152c-0.70089,-0.03551 -1.45984,-0.41537 -2.17225,-0.58684c-1.3068,-0.76868 -2.64454,-1.13512 -3.96896,-2.02609c-0.70468,-0.47406 -1.26968,-1.12191 -1.93004,-1.72692c-1.23929,-1.13539 -2.5353,-2.13194 -3.57085,-3.75005c-0.69979,-1.09347 -1.17246,-2.42385 -1.59577,-3.67053c-0.11418,-0.33627 -0.34069,-0.63177 -0.40452,-0.97844c-0.0057,-0.03091 -0.01101,-0.06178 -0.01599,-0.09263l-0.01077,0.00217l-0.23099,-0.89328c-0.09405,-0.34254 -0.04627,-0.69743 0.13953,-0.87709c0.1858,-0.17967 0.45492,-0.13125 0.67172,0.09256l0.56978,0.56568l-0.00785,0.02091l0.05624,0.03096c1.13626,1.50798 2.26552,2.75872 3.63003,3.6649c1.24174,0.64165 2.38763,1.37602 3.65471,1.76485c1.56228,0.47942 3.06703,0.44367 4.6134,0.74131c1.25746,0.24204 2.54442,0.41037 3.79246,0.396z" fill="#ffffff" stroke="#000000" stroke-width="1"/><path d="M227.3966,165.79364c-0.11117,-0.09803 0.57963,-1.167 0.57963,-1.167c0.19057,-0.01473 0.37247,-0.12216 0.57169,-0.04416c0.21325,0.08348 0.40509,0.3288 0.60434,0.50456c1.31288,1.15808 1.93399,3.43413 1.02952,4.76429c-0.2927,0.43046 -0.48498,0.4395 -0.84487,0.75655c-1.00007,0.88098 -2.07963,1.54785 -3.29226,1.92729c-0.50466,0.15791 -1.0952,0.05452 -1.62563,0.10623c-1.03162,-0.27014 -2.03338,-0.20877 -3.09334,-0.5725c-0.56397,-0.19352 -1.05072,-0.56388 -1.59999,-0.87445c-1.03079,-0.58282 -2.08412,-1.03894 -3.03187,-2.06391c-0.64045,-0.69263 -1.14944,-1.63609 -1.61241,-2.52541c-0.12487,-0.23987 -0.32464,-0.41711 -0.41493,-0.67874c-0.00805,-0.02333 -0.01584,-0.04674 -0.02338,-0.0702l-0.00741,0.0046l-0.28012,-0.65646c-0.11132,-0.25027 -0.12305,-0.54819 -0.01369,-0.74201c0.10937,-0.19383 0.30763,-0.22651 0.49122,-0.1043l0.47955,0.30304l-0.0029,0.0189l0.04413,0.00993c1.00539,0.90966 1.97256,1.61443 3.0631,1.97973c0.96879,0.18536 1.88118,0.47071 2.83541,0.44613c1.17654,-0.03031 2.24554,-0.45932 3.38727,-0.63147c0.92841,-0.13999 1.86837,-0.34705 2.75697,-0.69062z" fill="#ffffff" stroke="#000000" stroke-width="1"/><path d="M230.34383,167.08676c-0.119,-0.04505 0.2137,-1.48684 0.2137,-1.48684c0.15968,-0.11028 0.28947,-0.31137 0.47903,-0.33085c0.20292,-0.02085 0.42672,0.13503 0.64002,0.21586c1.4054,0.5325 2.48915,2.55752 2.03671,4.374c-0.14641,0.58784 -0.30894,0.69314 -0.54042,1.19819c-0.6432,1.40338 -1.40639,2.62673 -2.35325,3.62167c-0.39405,0.41406 -0.925,0.60292 -1.36688,0.92089c-0.94923,0.23806 -1.79253,0.80134 -2.78874,0.95754c-0.53004,0.0831 -1.03679,-0.05379 -1.58261,-0.09811c-1.0243,-0.08318 -2.03722,-0.02507 -3.09755,-0.60335c-0.71653,-0.39078 -1.38125,-1.10457 -1.99341,-1.78578c-0.16512,-0.18374 -0.3792,-0.26583 -0.51997,-0.48917c-0.01256,-0.01991 -0.02489,-0.04005 -0.03703,-0.06035l-0.00523,0.00843l-0.39909,-0.53363c-0.15602,-0.20117 -0.23828,-0.50099 -0.19157,-0.75448c0.04671,-0.25349 0.20864,-0.38605 0.39552,-0.35235l0.48427,0.07143l0.0021,0.02083l0.0402,-0.01186c1.08176,0.43119 2.08113,0.67126 3.10391,0.5014c0.87486,-0.29368 1.72565,-0.45657 2.53715,-0.95837c1.00058,-0.61869 1.81236,-1.59277 2.74873,-2.3396c0.76142,-0.60731 1.51646,-1.2892 2.19441,-2.08549z" fill="#ffffff" stroke="#000000" stroke-width="1"/><path d="M220.96211,160.85965c0.25773,-1.61535 7.41211,-1.66138 8.54042,-2.30067c2.26808,-1.28512 5.31627,0.65559 6.80832,4.33469c1.49205,3.6791 0.86295,7.70338 -1.40514,8.9885c-1.2939,0.73313 -8.06919,0.3355 -9.43709,-0.75487c-0.27433,-0.21866 -2.22537,-2.18772 -3.24435,-4.52384c-1.11875,-2.56487 -1.29854,-5.51575 -1.26216,-5.74379z" fill="#ffffff" stroke="#000000" stroke-width="0"/><path d="M220.82185,161.54645c-0.08526,-0.21024 -0.04931,-0.44019 0.08029,-0.51363c0.1296,-0.07343 0.30379,0.03746 0.38905,0.2477c0.08526,0.21024 0.04931,0.4402 -0.08029,0.51363c-0.1296,0.07343 -0.30379,-0.03746 -0.38905,-0.2477z" fill="#000000" stroke="none" stroke-width="0.5"/><path d="M222.10466,167.02237c-0.08526,-0.21024 -0.04932,-0.4402 0.08029,-0.51363c0.12961,-0.07343 0.30379,0.03746 0.38905,0.2477c0.08526,0.21024 0.04931,0.44019 -0.08029,0.51363c-0.12961,0.07343 -0.30379,-0.03746 -0.38905,-0.2477z" fill="#000000" stroke="none" stroke-width="0.5"/><path d="M225.47943,171.43c-0.08526,-0.21024 -0.04931,-0.44019 0.08029,-0.51363c0.1296,-0.07343 0.30379,0.03746 0.38905,0.2477c0.08526,0.21024 0.04931,0.4402 -0.0803,0.51362c-0.1296,0.07343 -0.30378,-0.03746 -0.38905,-0.2477z" fill="#000000" stroke="none" stroke-width="0.5"/></g><g stroke-linejoin="miter"><path d="M242.25846,171.38254c-2.23402,-1.30995 -2.68775,-5.29975 -1.01342,-8.91146c1.67433,-3.61171 4.84267,-5.47766 7.0767,-4.16771c2.23402,1.30995 2.68775,5.29975 1.01342,8.91146c-1.67433,3.61171 -4.84267,5.47766 -7.0767,4.16771z" fill="#ffffff" stroke="#000000" stroke-width="2"/><path d="M253.58587,159.45453c1.56222,-0.69123 3.12822,-1.5875 4.63932,-2.54094c1.85827,-1.17249 3.74633,-1.98746 5.57991,-3.35103c1.48711,-1.10592 2.73813,-2.48949 4.13158,-3.83436c1.4819,-1.67928 2.58548,-3.57073 3.63473,-5.72384l0.06264,-0.06281l-0.01493,-0.01651l0.57286,-0.88882c0.21588,-0.3468 0.54012,-0.54746 0.81623,-0.47251c0.27611,0.07495 0.42282,0.40344 0.38938,0.79976l-0.0694,1.0255l-0.01399,0.00391c0.00134,0.03371 0.00227,0.06766 0.00274,0.10185c0.00531,0.38338 -0.2051,0.80748 -0.26523,1.2089c-0.22292,1.48825 -0.48694,3.08824 -1.09275,4.57932c-0.89645,2.20652 -2.27066,3.93757 -3.53995,5.77569c-0.67636,0.97946 -1.2231,1.94792 -1.98692,2.82125c-1.43557,1.64138 -3.01642,2.76483 -4.45996,4.27375c-0.84768,0.57456 -1.70238,1.38422 -2.56903,1.81608c-2.08244,1.0377 -4.1184,1.61405 -6.15008,1.87c-0.73115,0.09211 -1.03307,0.31063 -1.72319,0.20327c-2.13255,-0.33174 -2.56257,-3.29371 -1.17592,-6.07388c0.21045,-0.42195 1.06064,-0.8705 1.36304,-1.081c0,0 1.98634,-0.66894 1.8689,-0.43355z" fill="#ffffff" stroke="#000000" stroke-width="1"/><path d="M254.8151,163.34171c1.31217,-0.27567 2.65042,-0.73101 3.95172,-1.24838c1.60026,-0.63624 3.18384,-0.95141 4.78608,-1.76111c1.29948,-0.6567 2.44365,-1.60809 3.696,-2.49508c1.35986,-1.16251 2.44467,-2.59239 3.51595,-4.26416l0.05656,-0.04194l-0.00995,-0.01772l0.55265,-0.66037c0.20959,-0.25927 0.48838,-0.36684 0.69812,-0.24204c0.20974,0.12479 0.28872,0.44521 0.21771,0.78694l-0.17019,0.8879l-0.01149,0.00047c-0.00273,0.02996 -0.00581,0.06004 -0.00928,0.09023c-0.03893,0.33859 -0.2529,0.6671 -0.34557,1.00764c-0.34355,1.26255 -0.73217,2.61473 -1.37859,3.7982c-0.95657,1.75133 -2.23717,2.98237 -3.44689,4.32999c-0.64463,0.7181 -1.18559,1.45411 -1.88737,2.06015c-1.31899,1.13903 -2.69451,1.79119 -4.00491,2.81191c-0.73446,0.32519 -1.50089,0.85582 -2.23427,1.05134c-1.76224,0.46983 -3.43583,0.54345 -5.07002,0.33595c-0.5881,-0.07467 -0.85125,0.05336 -1.38449,-0.18816c-1.64777,-0.7463 -1.53165,-3.57438 -0.12321,-5.72625c0.21376,-0.3266 0.39533,-0.72073 0.65741,-0.96069c0.24483,-0.22417 0.52527,-0.24172 0.78789,-0.36258c0,0 1.2754,0.62556 1.15613,0.80773z" fill="#ffffff" stroke="#000000" stroke-width="1"/><path d="M256.17551,166.34741c0.96129,0.11507 1.96547,0.09076 2.95211,0.00646c1.21331,-0.10367 2.37105,0.04944 3.60943,-0.1948c1.00437,-0.19808 1.93966,-0.67598 2.9423,-1.07353c1.11594,-0.59382 2.07475,-1.47619 3.05709,-2.55875l0.04555,-0.01949l-0.00459,-0.01698l0.47918,-0.39415c0.18293,-0.15666 0.39386,-0.17206 0.52446,-0.01635c0.1306,0.15571 0.14246,0.4367 0.04582,0.69626l-0.24102,0.67808l-0.00815,-0.0026c-0.00602,0.02366 -0.01228,0.04731 -0.01885,0.07098c-0.07363,0.26529 -0.2691,0.47714 -0.38081,0.73011c-0.4142,0.93793 -0.87236,1.93709 -1.48895,2.73242c-0.91244,1.17693 -1.98192,1.84698 -3.01747,2.63015c-0.5518,0.41732 -1.03308,0.87601 -1.60981,1.18744c-1.08397,0.58529 -2.14125,0.76002 -3.20302,1.25132c-0.56138,0.07456 -1.17334,0.30794 -1.71628,0.27733c-1.3046,-0.07354 -2.49273,-0.44635 -3.61472,-1.0376c-0.40378,-0.21278 -0.60649,-0.17669 -0.94888,-0.51096c-1.05801,-1.03295 -0.59016,-3.30283 0.69504,-4.68867c0.19505,-0.21033 0.37667,-0.48391 0.59391,-0.61129c0.20294,-0.119 0.40275,-0.06078 0.60411,-0.09115c0,0 0.81236,0.83847 0.70354,0.95578z" fill="#ffffff" stroke="#000000" stroke-width="1"/><path d="M253.18442,168.23801c0.77676,0.58674 1.62521,1.04879 2.47432,1.43968c1.04419,0.48071 1.97596,1.20251 3.0772,1.54865c0.89315,0.28073 1.80008,0.23581 2.74292,0.30747c1.08816,-0.07825 2.11849,-0.534 3.21987,-1.18733l0.04319,0.00176l0.00052,-0.01995l0.50291,-0.17889c0.19359,-0.07476 0.37443,0.01155 0.44407,0.2375c0.06963,0.22595 0.00755,0.52505 -0.14004,0.74911l-0.37595,0.59089l-0.00617,-0.00666c-0.01111,0.02178 -0.02244,0.04344 -0.03401,0.06494c-0.12975,0.24122 -0.34799,0.36749 -0.50654,0.57737c-0.5878,0.77811 -1.22816,1.59881 -1.94916,2.12981c-1.06694,0.78578 -2.13568,0.96614 -3.20493,1.28111c-0.56977,0.16783 -1.09099,0.41308 -1.65453,0.45824c-1.05915,0.08487 -1.99069,-0.24594 -3.00713,-0.24841c-0.48995,-0.19465 -1.06303,-0.24806 -1.51055,-0.54354c-1.07535,-0.71002 -1.97628,-1.67594 -2.76576,-2.83781c-0.28411,-0.41813 -0.46338,-0.47885 -0.66487,-0.99402c-0.62261,-1.59191 0.35158,-3.73448 1.7847,-4.55743c0.2175,-0.12491 0.43996,-0.32235 0.65481,-0.34988c0.20071,-0.02572 0.35336,0.13206 0.53004,0.19808c0,0 0.46644,1.26965 0.34509,1.3393z" fill="#ffffff" stroke="#000000" stroke-width="1"/><path d="M262.25651,161.12451c-0.1421,-0.03857 -0.19852,-0.24504 -0.12601,-0.46117c0.07251,-0.21613 0.24649,-0.36006 0.38858,-0.32149c0.1421,0.03857 0.19852,0.24504 0.12601,0.46117c-0.07251,0.21613 -0.24649,0.36006 -0.38858,0.32149z" fill="#000000" stroke="none" stroke-width="0.5"/><path d="M261.35311,166.53658c-0.1421,-0.03858 -0.19852,-0.24504 -0.12601,-0.46117c0.07251,-0.21613 0.24649,-0.36006 0.38859,-0.32148c0.1421,0.03858 0.19852,0.24504 0.126,0.46116c-0.07251,0.21613 -0.24649,0.36006 -0.38858,0.32149z" fill="#000000" stroke="none" stroke-width="0.5"/><path d="M258.16554,171.43537c-0.1421,-0.03857 -0.19851,-0.24505 -0.126,-0.46117c0.07251,-0.21613 0.24649,-0.36006 0.38858,-0.32149c0.1421,0.03857 0.19852,0.24504 0.12601,0.46117c-0.07251,0.21612 -0.2465,0.36007 -0.3886,0.32149z" fill="#000000" stroke="none" stroke-width="0.5"/><path d="M248.497,157.67467c1.54786,-0.33386 3.1258,-0.87944 4.65989,-1.49778c1.88654,-0.76041 3.7546,-1.14271 5.64285,-2.10736c1.53144,-0.78237 2.87844,-1.91063 4.35339,-2.96384c1.60083,-1.37836 2.87596,-3.06955 4.13427,-5.04546l0.06661,-0.04979l-0.01181,-0.02078l0.64987,-0.78142c0.24643,-0.30676 0.5751,-0.43538 0.82315,-0.28993c0.24804,0.14544 0.34245,0.52214 0.25992,0.925l-0.19758,1.04662l-0.01356,0.00063c-0.00311,0.0353 -0.00664,0.07072 -0.01062,0.10631c-0.04469,0.39894 -0.29603,0.78723 -0.40413,1.18883c-0.40081,1.48895 -0.85448,3.08374 -1.61308,4.48173c-1.12258,2.06877 -2.62956,3.52725 -4.05249,5.12248c-0.75823,0.85005 -1.39402,1.72046 -2.22014,2.43896c-1.55267,1.35042 -3.17388,2.12799 -4.71684,3.33904c-0.86572,0.38806 -1.76845,1.01824 -2.63338,1.25365c-2.07836,0.56563 -4.05357,0.66415 -5.98333,0.43141c-0.69446,-0.08376 -1.0046,0.06884 -1.63494,-0.21175c-1.9478,-0.86705 -1.96567,-4.04467 -0.31121,-6.58824c0.2511,-0.38605 1.10284,-0.6428 1.4124,-0.78696c0,0 1.9409,-0.20672 1.80078,0.00863z" fill="#ffffff" stroke="#000000" stroke-width="1"/><path d="M249.14114,162.00793c1.26064,0.03586 2.56887,-0.10825 3.85063,-0.32575c1.57625,-0.26748 3.09535,-0.20603 4.69591,-0.65295c1.29812,-0.36247 2.4894,-1.06868 3.77336,-1.68154c1.41999,-0.87229 2.61781,-2.08934 3.83437,-3.5606l0.05823,-0.02963l-0.00698,-0.02081l0.60142,-0.54941c0.22923,-0.21753 0.50341,-0.26073 0.68305,-0.07986c0.17964,0.18087 0.21187,0.53257 0.10134,0.86962l-0.27385,0.87921l-0.01079,-0.00233c-0.00642,0.03041 -0.0132,0.06085 -0.02035,0.09132c-0.08019,0.34165 -0.32247,0.6299 -0.45307,0.96039c-0.4842,1.22528 -1.02208,2.53246 -1.77876,3.60145c-1.11976,1.58191 -2.4746,2.54472 -3.77841,3.64582c-0.69476,0.58674 -1.29506,1.21749 -2.02866,1.67397c-1.37878,0.85796 -2.74731,1.19706 -4.10275,1.9344c-0.72773,0.15718 -1.51192,0.5196 -2.22186,0.54254c-1.70591,0.05515 -3.27776,-0.27889 -4.77642,-0.89486c-0.53933,-0.22167 -0.80156,-0.15341 -1.26808,-0.53468c-1.44158,-1.17816 -0.96695,-4.08298 0.62649,-5.96951c0.24185,-0.28632 0.46237,-0.6506 0.73809,-0.83522c0.25758,-0.17246 0.52164,-0.12191 0.78247,-0.18286c0,0 1.1096,0.9616 0.97465,1.12131z" fill="#ffffff" stroke="#000000" stroke-width="1"/><path d="M250.12272,165.49294c0.88249,0.35509 1.82304,0.57612 2.75499,0.73064c1.14607,0.19001 2.207,0.63271 3.39467,0.68309c0.96324,0.04085 1.89824,-0.22546 2.88569,-0.39193c1.11864,-0.34225 2.12796,-1.02231 3.18517,-1.90427l0.04503,-0.00905l-0.00208,-0.01873l0.49835,-0.29131c0.19106,-0.11763 0.38995,-0.08188 0.49172,0.11165c0.10175,0.19354 0.07643,0.48789 -0.04739,0.73341l-0.31281,0.64421l-0.00728,-0.00468c-0.00868,0.02307 -0.0176,0.04607 -0.02679,0.069c-0.10309,0.25711 -0.31299,0.4289 -0.45004,0.66389c-0.50811,0.87126 -1.06519,1.79525 -1.74378,2.46896c-1.00418,0.99696 -2.08932,1.42967 -3.15742,1.98804c-0.56915,0.29753 -1.07783,0.65528 -1.65654,0.83684c-1.08769,0.34125 -2.0973,0.26319 -3.15209,0.51239c-0.53372,-0.06032 -1.13521,0.03166 -1.63808,-0.13323c-1.20834,-0.39619 -2.26919,-1.07426 -3.24003,-1.96264c-0.34938,-0.31971 -0.54329,-0.33199 -0.81963,-0.76267c-0.8539,-1.33084 -0.12322,-3.57043 1.25598,-4.69268c0.20932,-0.17033 0.41429,-0.40955 0.63358,-0.48839c0.20486,-0.07366 0.38384,0.03572 0.57575,0.05359c0,0 0.64979,1.06889 0.53299,1.16389z" fill="#ffffff" stroke="#000000" stroke-width="1"/><path d="M247.08569,166.72039c0.64913,0.79906 1.38134,1.48635 2.12337,2.10002c0.91251,0.75466 1.68886,1.73182 2.67206,2.36088c0.79741,0.51021 1.64986,0.68602 2.52073,0.99155c1.02595,0.18568 2.04679,-0.03435 3.15953,-0.44192l0.04009,0.01243l0.00306,-0.02056l0.49265,-0.06223c0.1904,-0.03006 0.34805,0.1038 0.38378,0.35524c0.03574,0.25144 -0.06095,0.54643 -0.22772,0.74263l-0.42747,0.5207l-0.0049,-0.00843c-0.01319,0.01986 -0.02657,0.03956 -0.04016,0.05902c-0.15236,0.21837 -0.37244,0.29583 -0.54762,0.47464c-0.64948,0.66293 -1.35353,1.35712 -2.09536,1.73107c-1.09775,0.55338 -2.11878,0.47837 -3.15773,0.54284c-0.55362,0.03435 -1.07195,0.16091 -1.60386,0.06955c-0.99971,-0.17171 -1.82649,-0.74326 -2.77502,-0.9951c-0.43218,-0.32204 -0.96022,-0.51797 -1.33973,-0.9342c-0.9119,-1.00014 -1.62785,-2.22295 -2.21441,-3.62164c-0.21108,-0.50336 -0.37057,-0.6103 -0.49194,-1.19405c-0.37507,-1.80383 0.8118,-3.78722 2.25621,-4.28934c0.21922,-0.07622 0.45245,-0.22646 0.65658,-0.20233c0.1907,0.02255 0.31277,0.22362 0.46915,0.33543c0,0 0.27101,1.43128 0.14871,1.47376z" fill="#ffffff" stroke="#000000" stroke-width="1"/><path d="M256.84873,160.72623c0.02645,0.22609 -0.28873,3.14056 -1.53539,5.65709c-1.13548,2.29209 -3.19632,4.20509 -3.48344,4.41653c-1.43177,1.05436 -8.29697,1.32999 -9.57143,0.58269c-2.23402,-1.30995 -2.68775,-5.29975 -1.01342,-8.91146c1.67433,-3.61171 4.84267,-5.47766 7.0767,-4.16771c1.11136,0.65166 8.33963,0.82126 8.52701,2.42285z" fill="#ffffff" stroke="#000000" stroke-width="0"/><path d="M256.55503,161.64586c-0.12766,-0.07486 -0.15359,-0.30284 -0.05791,-0.50922c0.09568,-0.20639 0.27673,-0.31301 0.40439,-0.23815c0.12766,0.07486 0.15359,0.30284 0.05791,0.50922c-0.09568,0.20639 -0.27673,0.31301 -0.40439,0.23815z" fill="#000000" stroke="none" stroke-width="0.5"/><path d="M255.01088,167.03776c-0.12766,-0.07486 -0.15359,-0.30284 -0.05791,-0.50923c0.09568,-0.20639 0.27672,-0.31301 0.40439,-0.23815c0.12766,0.07486 0.15359,0.30284 0.05791,0.50923c-0.09568,0.20639 -0.27672,0.31301 -0.40439,0.23815z" fill="#000000" stroke="none" stroke-width="0.5"/><path d="M251.40088,171.33713c-0.12766,-0.07486 -0.15358,-0.30284 -0.05791,-0.50922c0.09568,-0.20639 0.27672,-0.31301 0.40439,-0.23815c0.12766,0.07486 0.15358,0.30284 0.05791,0.50922c-0.09568,0.20639 -0.27672,0.31301 -0.40439,0.23815z" fill="#000000" stroke="none" stroke-width="0.5"/></g><path d="M220.75343,165.31039c0,-10.62959 8.61699,-19.24657 19.24658,-19.24657c10.62959,0 19.24657,8.61698 19.24657,19.24657c0,10.62959 -8.61698,19.24658 -19.24657,19.24658c-10.62959,0 -19.24658,-8.61698 -19.24658,-19.24658z" fill="#00ffff" stroke="#000000" stroke-width="2" stroke-linejoin="miter"/><path d="M220.75343,165.31039h38.49315c0,0 -0.01482,0.87807 -0.04398,1.31144c-0.6741,10.01796 -9.01376,17.93514 -19.20259,17.93514c-10.28032,0 -18.67812,-8.06001 -19.2189,-18.20552c-0.01837,-0.34469 -0.02768,-1.04105 -0.02768,-1.04105z" fill="#0090ff" stroke="#000000" stroke-width="2" stroke-linejoin="miter"/><g><path d="M230.30512,163.50313v-6.84382l6.84382,1.66666v5.17715z" data-paper-data="{&quot;index&quot;:null}" fill="#ffffff" stroke="#ffffff" stroke-width="2" stroke-linejoin="round"/><path d="M231.6739,162.13438v-4.10629h4.10629v4.10629z" data-paper-data="{&quot;index&quot;:null}" fill="#000000" stroke="none" stroke-width="1" stroke-linejoin="miter"/></g><g><path d="M243.51772,163.50313v-5.17715l6.84382,-1.66666v6.84382z" fill="#ffffff" stroke="#ffffff" stroke-width="2" stroke-linejoin="round"/><path d="M244.88649,162.13438v-4.10629h4.10629v4.10629z" fill="#000000" stroke="none" stroke-width="1" stroke-linejoin="miter"/></g></g></g></svg>