<svg version="1.1" xmlns="http://www.w3.org/2000/svg" xmlns:xlink="http://www.w3.org/1999/xlink" width="75.55526" height="25.68304" viewBox="0,0,75.55526,25.68304"><g transform="translate(-205.71786,-155.11924)"><g stroke-miterlimit="10"><g><path d="M233.38263,162.8379l13.39985,6.61344l-13.63367,6.34809" fill="none" stroke="#000000" stroke-width="8" stroke-linejoin="round"/><path d="M246.66558,175.93212l-13.39985,-6.61344l13.63367,-6.34809" fill="none" stroke="#000000" stroke-width="8" stroke-linejoin="round"/><path d="M233.38263,162.8379l13.39985,6.61344l-13.63367,6.34809" fill="none" stroke="#b5b5b5" stroke-width="4" stroke-linejoin="round"/><path d="M246.66558,175.93212l-13.39985,-6.61344l13.63367,-6.34809" fill="none" stroke="#b5b5b5" stroke-width="4" stroke-linejoin="round"/><path d="M247.94813,164.2274l-15.65918,-0.15371" fill="none" stroke="#000000" stroke-width="2" stroke-linejoin="miter"/><path d="M230.99922,163.81172l0.05396,-2.99112l18.24763,0.17911l-0.05396,2.99112z" fill="none" stroke="#000000" stroke-width="4" stroke-linejoin="round"/><path d="M230.99922,163.81172l0.05396,-2.99112l18.24763,0.17911l-0.05396,2.99112z" fill="#00a99d" stroke="none" stroke-width="1" stroke-linejoin="miter"/><path d="M230.99922,163.81172l0.01799,-0.99704l18.24763,0.17911l-0.01798,0.99704z" fill="#009c92" stroke="none" stroke-width="1" stroke-linejoin="miter"/></g><g><path d="M271.74768,178.3788l0.3538,-5.10973l7.17164,2.85227z" fill="none" stroke="#000000" stroke-width="4" stroke-linejoin="round"/><path d="M271.74768,178.3788l0.3538,-5.10973l7.17164,2.85227z" fill="#b3b3b3" stroke="none" stroke-width="1" stroke-linejoin="miter"/></g><g stroke="#000000" stroke-width="2" stroke-linejoin="miter"><path d="M229.68392,179.14495c-0.15818,0.24206 -7.82071,-0.00513 -7.82071,-0.00513l2.26427,-6.06669c0,0 5.6995,5.85292 5.55644,6.07182z" fill="#007169"/><path d="M222.00234,179.13411l-14.93508,0.61203l5.09469,-17.48126l11.72977,10.6548z" fill="#00a99d"/></g><g stroke="#000000" stroke-width="2" stroke-linejoin="miter"><path d="M229.5,178.94763c-0.3688,-0.37237 4.15921,-7.22273 4.15921,-7.22273l12.89749,0.33626l3.9433,6.88647c0,0 -20.92163,0.07914 -21,0z" fill="#007169"/><path d="M240.41114,157.54943l6.08,14.24246l-12.83823,-0.05365z" fill="#00a99d"/></g><g><path d="M256.85085,173.13927l2.09528,5.78105c0,0 -7.66338,0.21933 -7.82068,-0.0233c-0.14225,-0.21943 5.57848,-6.05158 5.57848,-6.05158z" fill="#007169" stroke="#000000" stroke-width="2" stroke-linejoin="miter"/><path d="M256.94023,172.69285l11.76843,-10.61208l5.03111,17.49966l-14.93276,-0.66632z" fill="#00a99d" stroke="#000000" stroke-width="2" stroke-linejoin="miter"/><g><path d="M259.97374,170.68712l4.80535,-1.38153l1.38153,4.80535l-4.80535,1.38152z" fill="#ffffff" stroke="#ffffff" stroke-width="2" stroke-linejoin="round"/><path d="M261.48742,172.33295l2.88321,-0.82891l0.82891,2.88321l-2.88321,0.82892z" fill="#000000" stroke="none" stroke-width="1" stroke-linejoin="miter"/></g></g><path d="M221.84622,176.03868l-12.19982,-0.40496l1.0075,-4.42713l12.0624,2.24776z" fill="#008279" stroke="#000000" stroke-width="0" stroke-linejoin="miter"/></g></g></svg>