<svg version="1.1" xmlns="http://www.w3.org/2000/svg" xmlns:xlink="http://www.w3.org/1999/xlink" width="40.67658" height="41.625" viewBox="0,0,40.67658,41.625"><g transform="translate(-220.34731,-157.96656)"><g data-paper-data="{&quot;isPaintingLayer&quot;:true}" fill-rule="nonzero" stroke-miterlimit="10" stroke-dasharray="" stroke-dashoffset="0" style="mix-blend-mode: normal"><path d="M220.34731,199.59156v-41.625h40.67658v41.625z" fill="none" stroke="none" stroke-width="0" stroke-linecap="butt" stroke-linejoin="miter"/><path d="M251.10184,179.74352c-0.62531,7.22454 -4.81011,11.30951 -10.99453,10.50419c-6.87158,0.80532 -10.4448,-3.25046 -10.99453,-10.50419c-0.54973,-7.65055 7.31135,-8.61927 10.99453,-6.46591c3.65568,-2.15336 11.51677,-0.15174 10.99453,6.46591z" fill="#9e9e9e" stroke="#000000" stroke-width="1" stroke-linecap="butt" stroke-linejoin="round"/><path d="M241.62395,168.26826c0,1.22929 -1.51686,4.90637 -1.51686,4.90637" fill="none" stroke="#000000" stroke-width="1" stroke-linecap="butt" stroke-linejoin="round"/><path d="M240.21712,178.86911l-3.44444,-1v5.33333l3.66667,2.11111l2.77778,-1.66667l0.22222,-6.33333z" fill="#8c8c8c" stroke="#8c8c8c" stroke-width="2" stroke-linecap="round" stroke-linejoin="miter"/><path d="M234.00272,177.72058c-0.71571,-0.63551 -0.64423,-1.80677 0.15966,-2.61607c0.80387,-0.8093 2.03575,-0.95019 2.75146,-0.31468c0.71571,0.63551 0.64423,1.80677 -0.15966,2.61607c-0.80387,0.8093 -2.03575,0.95019 -2.75146,0.31468z" fill="#ffffff" stroke="none" stroke-width="1" stroke-linecap="butt" stroke-linejoin="miter"/></g></g></svg>