<svg version="1.1" xmlns="http://www.w3.org/2000/svg" xmlns:xlink="http://www.w3.org/1999/xlink" width="38.48774" height="20.7879" viewBox="0,0,38.48774,20.7879"><g transform="translate(-217.62368,-159.16668)"><g data-paper-data="{&quot;isPaintingLayer&quot;:true}" fill-rule="nonzero" stroke-linecap="butt" stroke-miterlimit="10" stroke-dasharray="" stroke-dashoffset="0" style="mix-blend-mode: normal"><path d="M249.16668,162.9917c0,2.46071 -4,3.53214 -9,3.53214c-5,0 -9,-1.07143 -9,-3.53214c0,-2.18214 6,-2.89643 9,-2.18214c3,-0.71429 9,0 9,2.18214z" fill="#ffff24" stroke="#000000" stroke-width="2" stroke-linejoin="round"/><path d="M241.66668,159.16669c0,0.44643 -1.5,1.78571 -1.5,1.78571" fill="none" stroke="#000000" stroke-width="2" stroke-linejoin="round"/><path d="M233.16668,162.38098c0,-0.59173 1.34315,-1.07143 3,-1.07143c1.65685,0 3,0.4797 3,1.07143c0,0.59173 -1.34315,1.07143 -3,1.07143c-1.65685,0 -3,-0.4797 -3,-1.07143z" fill="#ffffff" stroke="none" stroke-width="1" stroke-linejoin="miter"/><path d="M229.23363,166.36734l-3.4255,3.40471l-6.18444,-3.65547z" fill="none" stroke="#000000" stroke-width="4" stroke-linejoin="round"/><path d="M229.23363,166.36734l-3.4255,3.40471l-6.18444,-3.65547z" fill="#b3b3b3" stroke="none" stroke-width="1" stroke-linejoin="miter"/><path d="M234.57697,164.03105l-6.82056,3.51731l1.40482,-5.64752z" fill="none" stroke="#000000" stroke-width="4" stroke-linejoin="round"/><path d="M234.57697,164.03105l-6.82056,3.51731l1.40482,-5.64752z" fill="#b3b3b3" stroke="none" stroke-width="1" stroke-linejoin="miter"/><path d="M253.38705,169.4565l-5.09514,-5.73856l5.81952,-0.03581z" fill="none" stroke="#000000" stroke-width="4" stroke-linejoin="round"/><path d="M253.38705,169.4565l-5.09514,-5.73856l5.81952,-0.03581z" fill="#b3b3b3" stroke="none" stroke-width="1" stroke-linejoin="miter"/><path d="M233.68089,164.94762h12.64147c4.65447,0 8.42765,2.68597 8.42765,5.99927v7.99903h-29.49678v-7.99903c0,-3.3133 3.77318,-5.99927 8.42765,-5.99927z" fill="#ffff24" stroke="#000000" stroke-width="2" stroke-linejoin="miter"/><path d="M240.87951,171.63571v-2.89955l7.02304,-0.08333v2.98288z" fill="#ffffff" stroke="#ffffff" stroke-width="2" stroke-linejoin="round"/><path d="M243.51316,170.88913v-2.23973h4.21382v2.23973z" fill="#000000" stroke="none" stroke-width="1" stroke-linejoin="miter"/><path d="M225.24206,178.95459v-4.82163h29.49678v4.82163z" fill="#828212" stroke="#000000" stroke-width="2" stroke-linejoin="miter"/></g></g></svg>