<svg version="1.1" xmlns="http://www.w3.org/2000/svg" xmlns:xlink="http://www.w3.org/1999/xlink" width="81.98071" height="113.34253" viewBox="0,0,81.98071,113.34253"><g transform="translate(-213.55368,-68.48646)"><g data-paper-data="{&quot;isPaintingLayer&quot;:true}" fill-rule="nonzero" stroke-linecap="butt" stroke-miterlimit="10" stroke-dasharray="" stroke-dashoffset="0" style="mix-blend-mode: normal"><g data-paper-data="{&quot;index&quot;:null}"><g><path d="M269.30188,110.79234l-8.00116,7.43586l-3.81608,-4.10618l-5.6008,5.2051l3.05288,3.28495l-1.60023,1.48717l-3.05288,-3.28494l-2.40035,2.23076l3.81608,4.10619l-3.20045,2.97434l-5.34251,-5.74866l12.80183,-11.89737l-3.81607,-4.10618l8.00116,-7.43586zM257.59535,109.42756l3.05287,3.28495l3.20046,-2.97434l-3.05287,-3.28495z" fill="none" stroke="#000000" stroke-width="4" stroke-linejoin="round"/><path d="M269.30188,110.79234l-8.00116,7.43586l-3.81608,-4.10618l-5.6008,5.2051l3.05288,3.28495l-1.60023,1.48717l-3.05288,-3.28494l-2.40035,2.23076l3.81608,4.10619l-3.20045,2.97434l-5.34251,-5.74866l12.80183,-11.89737l-3.81607,-4.10618l8.00116,-7.43586zM257.59535,109.42756l3.05287,3.28495l3.20046,-2.97434l-3.05287,-3.28495z" fill="#f97b3d" stroke="none" stroke-width="1" stroke-linejoin="miter"/></g><g><path d="M254.39895,126.80856l-5.07272,9.67356l-4.96447,-2.6033l-3.55089,6.7715l3.97159,2.08265l-1.01454,1.93471l-3.97159,-2.08265l-1.52181,2.90208l4.96447,2.60331l-2.02907,3.86944l-6.95027,-3.64463l8.11632,-15.47772l-4.96447,-2.60331l5.0727,-9.67357zM242.90489,129.41478l3.97159,2.08265l2.02908,-3.86943l-3.97159,-2.08264z" fill="none" stroke="#000000" stroke-width="4" stroke-linejoin="round"/><path d="M254.39895,126.80856l-5.07272,9.67356l-4.96447,-2.6033l-3.55089,6.7715l3.97159,2.08265l-1.01454,1.93471l-3.97159,-2.08265l-1.52181,2.90208l4.96447,2.60331l-2.02907,3.86944l-6.95027,-3.64463l8.11632,-15.47772l-4.96447,-2.60331l5.0727,-9.67357zM242.90489,129.41478l3.97159,2.08265l2.02908,-3.86943l-3.97159,-2.08264z" fill="#64fa3c" stroke="none" stroke-width="1" stroke-linejoin="miter"/></g><g><path d="M243.85312,147.29841l-0.68552,10.9014l-5.59458,-0.3518l-0.47986,7.63098l4.47568,0.28145l-0.1371,2.18028l-4.47568,-0.28144l-0.20565,3.27043l5.59458,0.3518l-0.27419,4.36056l-7.83243,-0.49252l1.09681,-17.44224l-5.59457,-0.35181l0.68552,-10.90139zM234.42191,154.36652l4.47568,0.28145l0.2742,-4.36056l-4.47568,-0.28144z" fill="none" stroke="#000000" stroke-width="4" stroke-linejoin="round"/><path d="M243.85312,147.29841l-0.68552,10.9014l-5.59458,-0.3518l-0.47986,7.63098l4.47568,0.28145l-0.1371,2.18028l-4.47568,-0.28144l-0.20565,3.27043l5.59458,0.3518l-0.27419,4.36056l-7.83243,-0.49252l1.09681,-17.44224l-5.59457,-0.35181l0.68552,-10.90139zM234.42191,154.36652l4.47568,0.28145l0.2742,-4.36056l-4.47568,-0.28144z" fill="#64fa3c" stroke="none" stroke-width="1" stroke-linejoin="miter"/></g></g><path d="M238.8521,125.49966l-4.17659,-13.47007l51.53754,0.57372l-4.21315,12.89632z" fill="#b0ff00" stroke="#000000" stroke-width="2" stroke-linejoin="miter"/><path d="M234.69937,112.61968l-7.91839,-23.84699l33.57369,-19.13317l33.97316,19.64684l-7.90932,23.72794z" fill="#54ab00" stroke="#000000" stroke-width="2" stroke-linejoin="miter"/><g><path d="M271.34137,102.70622v-10.27329h10.27328v10.27329z" fill="#ffffff" stroke="#ffffff" stroke-width="2" stroke-linejoin="round"/><path d="M275.45068,100.65156v-6.16397h6.16397v6.16397z" fill="#000000" stroke="none" stroke-width="1" stroke-linejoin="miter"/></g><g data-paper-data="{&quot;index&quot;:null}"><g><path d="M255.11496,114.97926l-8.00116,7.43585l-3.81607,-4.10618l-5.6008,5.2051l3.05287,3.28495l-1.60023,1.48717l-3.05287,-3.28495l-2.40035,2.23076l3.81607,4.10619l-3.20045,2.97434l-5.34252,-5.74866l12.80183,-11.89737l-3.81607,-4.10618l8.00116,-7.43585zM243.40843,113.61448l3.05287,3.28496l3.20046,-2.97434l-3.05287,-3.28496z" fill="none" stroke="#000000" stroke-width="4" stroke-linejoin="round"/><path d="M255.11496,114.97926l-8.00116,7.43585l-3.81607,-4.10618l-5.6008,5.2051l3.05287,3.28495l-1.60023,1.48717l-3.05287,-3.28495l-2.40035,2.23076l3.81607,4.10619l-3.20045,2.97434l-5.34252,-5.74866l12.80183,-11.89737l-3.81607,-4.10618l8.00116,-7.43585zM243.40843,113.61448l3.05287,3.28496l3.20046,-2.97434l-3.05287,-3.28496z" fill="#64fa3c" stroke="none" stroke-width="1" stroke-linejoin="miter"/></g><g><path d="M240.21203,130.99548l-5.07272,9.67356l-4.96447,-2.6033l-3.55089,6.7715l3.97159,2.08265l-1.01454,1.93471l-3.97159,-2.08265l-1.52181,2.90208l4.96447,2.60331l-2.02907,3.86943l-6.95027,-3.64463l8.11632,-15.47772l-4.96447,-2.60331l5.07271,-9.67357zM228.71797,133.6017l3.97159,2.08265l2.02908,-3.86943l-3.97159,-2.08264z" fill="none" stroke="#000000" stroke-width="4" stroke-linejoin="round"/><path d="M240.21203,130.99548l-5.07272,9.67356l-4.96447,-2.6033l-3.55089,6.7715l3.97159,2.08265l-1.01454,1.93471l-3.97159,-2.08265l-1.52181,2.90208l4.96447,2.60331l-2.02907,3.86943l-6.95027,-3.64463l8.11632,-15.47772l-4.96447,-2.60331l5.07271,-9.67357zM228.71797,133.6017l3.97159,2.08265l2.02908,-3.86943l-3.97159,-2.08264z" fill="#64fa3c" stroke="none" stroke-width="1" stroke-linejoin="miter"/></g><g><path d="M229.6662,151.48533l-0.68552,10.9014l-5.59459,-0.3518l-0.47986,7.63098l4.47568,0.28145l-0.1371,2.18028l-4.47568,-0.28145l-0.20565,3.27043l5.59459,0.3518l-0.27419,4.36056l-7.83243,-0.49252l1.09681,-17.44223l-5.59458,-0.35181l0.68552,-10.90139zM220.23499,158.55344l4.47568,0.28145l0.2742,-4.36056l-4.47568,-0.28144z" fill="none" stroke="#000000" stroke-width="4" stroke-linejoin="round"/><path d="M229.6662,151.48533l-0.68552,10.9014l-5.59459,-0.3518l-0.47986,7.63098l4.47568,0.28145l-0.1371,2.18028l-4.47568,-0.28145l-0.20565,3.27043l5.59459,0.3518l-0.27419,4.36056l-7.83243,-0.49252l1.09681,-17.44223l-5.59458,-0.35181l0.68552,-10.90139zM220.23499,158.55344l4.47568,0.28145l0.2742,-4.36056l-4.47568,-0.28144z" fill="#64fa3c" stroke="none" stroke-width="1" stroke-linejoin="miter"/></g></g></g></g></svg>