<svg version="1.1" xmlns="http://www.w3.org/2000/svg" xmlns:xlink="http://www.w3.org/1999/xlink" width="29.6" height="52.0141" viewBox="0,0,29.6,52.0141"><g transform="translate(-225.2,-156.98594)"><g data-paper-data="{&quot;isPaintingLayer&quot;:true}" fill-rule="nonzero" stroke-linecap="butt" stroke-miterlimit="10" stroke-dasharray="" stroke-dashoffset="0" style="mix-blend-mode: normal"><g><path d="M227.2,187.00004v-18h25.6v18z" fill="none" stroke="#000000" stroke-width="4" stroke-linejoin="round"/><path d="M227.2,187.00004v-18h25.6v18z" fill="#ffff00" stroke="none" stroke-width="1" stroke-linejoin="miter"/></g><g><path d="M245,202.00004v5h-10v-5h3v-35.55c-1.56787,-0.90521 -2.33228,-2.75064 -1.8637,-4.49938c0.46857,-1.74873 2.05328,-2.96472 3.8637,-2.96472c1.81042,0 3.39513,1.21599 3.8637,2.96472c0.46857,1.74873 -0.29583,3.59417 -1.8637,4.49938v35.55z" fill="none" stroke="#000000" stroke-width="4" stroke-linejoin="round"/><path d="M245,202.00004v5h-10v-5h3v-35.55c-1.56787,-0.90521 -2.33228,-2.75064 -1.8637,-4.49938c0.46857,-1.74873 2.05328,-2.96472 3.8637,-2.96472c1.81042,0 3.39513,1.21599 3.8637,2.96472c0.46857,1.74873 -0.29583,3.59417 -1.8637,4.49938v35.55z" fill="#3ac54d" stroke="none" stroke-width="1" stroke-linejoin="miter"/></g><path d="M227.2,187.00004v-18h25.6v18z" fill="#ffff00" stroke="none" stroke-width="1" stroke-linejoin="miter"/><g stroke="none" stroke-width="0.5" stroke-linejoin="miter"><path d="M226.38673,199.38555c-0.41529,-0.07827 -0.33702,-0.49355 -0.33702,-0.49355l0.19498,-0.63715c0.10751,-0.10601 0.21394,-0.21403 0.3193,-0.32386c-0.76691,-2.0273 -0.18351,-5.47755 -0.18351,-7.24366c0,-4.25793 0.33808,-8.40838 0.33808,-12.67796l0,-0.8452c0,0 0,0 0,0c0,-0.23339 0.1892,-0.4226 0.4226,-0.4226c0.13417,0 0.25374,0.06253 0.33115,0.16003c0.17501,0.00204 0.30575,0.13279 0.30575,0.13279c3.42797,3.44269 8.26881,3.25701 12.54817,3.25701c3.23806,0 8.13424,-4.65331 10.91147,-3.69169c1.75523,0.60775 1.7907,3.07458 2.67483,4.31966c0.15591,5.89949 -0.02239,10.88645 -1.94422,16.57969c-0.14336,0.3169 -0.30544,0.60963 -0.48455,0.87982c0.00433,0.00648 0.00854,0.01277 0.01262,0.01888c0,0 0.23442,0.35162 -0.11721,0.58604c-0.15964,0.10643 -0.29513,0.09206 -0.39548,0.04464c-1.60411,1.8004 -4.14234,2.33669 -6.83666,2.37698c-0.38593,0.75774 -0.88957,1.3944 -1.42799,1.36741c-0.07593,-0.00381 -1.00292,-1.0402 -1.32786,-1.46691c-1.90128,-0.14536 -3.74997,-0.40697 -5.2777,-0.51986c-0.13,-0.00344 -0.2683,-0.00693 -0.41385,-0.01075c-0.26919,0.29374 -0.58305,0.41432 -0.94439,0.27578c-0.20972,-0.08042 -0.40941,-0.19245 -0.60048,-0.33053c-2.4527,-0.11963 -5.64359,-0.47096 -6.97395,-1.78914c-0.06971,-0.06907 -0.13493,-0.14343 -0.19592,-0.22264c-0.04895,0.0492 -0.09654,0.09714 -0.14257,0.14372l0.03795,0.19604c0,0 -0.07827,0.41529 -0.49355,0.33702zM229.71215,193.83624c1.72457,0.68451 3.35723,3.65827 4.53705,5.2336c0.02289,0.03056 0.21875,0.47485 0.45992,0.8329c0.33886,0.01169 0.65693,0.01978 0.94493,0.02678c0.60866,-1.14758 0.42446,-3.73299 0.84467,-5.40861l-0.26934,-0.13467l0.33398,-0.66797c0.06776,-0.14294 0.21338,-0.2418 0.38208,-0.2418c0.16858,0 0.3141,0.09871 0.38193,0.24148l0.31889,0.63651c1.22804,1.45239 2.58938,2.84658 3.69896,4.36869c0.11617,0.15936 0.42701,1.02915 0.72058,1.8226c0.51767,0.03295 1.03711,0.05429 1.55186,0.05832c0.23922,-0.609 0.41095,-1.26871 0.44601,-1.60237c0.46486,-1.0491 0.71254,-6.41501 1.44965,-6.81444c1.07957,-0.58501 4.12738,3.53543 5.45017,5.43155c0.07783,-0.13722 0.15073,-0.28033 0.21843,-0.42954c1.87342,-5.56584 1.70474,-10.32458 1.92816,-16.0045c-0.40663,-0.51879 -0.59523,-1.43958 -0.9023,-2.25373c-0.0751,0.9202 -0.27711,1.80446 -0.68505,2.6481c-0.76807,1.53614 -1.58443,5.06226 -2.76336,6.17332c-1.6375,1.54323 -3.84139,-4.83458 -4.03799,-7.108c-0.32482,0.64964 -0.64964,1.29928 -0.97446,1.94892c-0.59608,1.19214 -2.40216,6.85749 -4.16454,6.65165c-1.43627,-0.16776 -2.97086,-8.69467 -3.82808,-7.45586c-1.04953,0.69154 -3.90372,4.83572 -5.366,4.39692c-0.74916,-0.2248 -2.17825,-3.96295 -2.84112,-6.46685c-0.06793,3.67384 -0.32151,7.28068 -0.32151,10.96808c0,1.42012 -0.53153,4.64693 -0.02423,6.54369c0.9195,-1.06045 1.75283,-2.23917 2.5107,-3.39477zM242.66653,201.92927c0.19193,-0.02055 0.38757,-0.22818 0.56946,-0.52791c-0.28503,-0.00642 -0.57082,-0.01735 -0.85647,-0.03189c0.13516,0.33674 0.24195,0.56462 0.28701,0.5598zM247.67279,195.02634c-0.62459,-0.66043 -1.83915,-3.02058 -1.71512,-2.12009c0.26137,1.89766 -0.2563,4.51756 -1.07762,6.31431c-0.02791,0.28533 -0.16374,0.81099 -0.37616,1.37209c2.39402,-0.08434 4.60098,-0.62767 5.94384,-2.22941c-0.84064,-1.18958 -1.80257,-2.30873 -2.77494,-3.3369zM237.00212,194.89313c0.04439,1.2425 -0.20168,3.62482 -0.80678,5.05191c1.34703,0.10823 3.02672,0.35649 4.78034,0.51571c-1.00133,-2.08082 -2.39176,-3.67739 -3.97356,-5.56762zM229.97943,194.63807c-0.23074,1.1428 -1.40434,2.4524 -2.39597,3.46669c0.05924,0.08401 0.12384,0.16034 0.19419,0.22819c1.03424,0.99737 3.38622,1.35426 5.48043,1.49742c-1.24606,-1.57492 -2.1401,-4.08974 -3.27866,-5.19231zM251.63666,177.87696c-0.18281,-0.21483 -0.40304,-0.38271 -0.67693,-0.47907c-0.87102,-0.30643 -2.60969,0.95996 -3.34484,1.32754c-0.83584,0.41792 -1.58588,0.82076 -2.32153,1.17355l0.14397,0.28795l-0.16321,0.0816c0.93181,2.24038 0.97334,5.84188 2.62349,7.14421c0.07095,0.056 0.97558,-2.2809 1.04729,-2.46129c0.51122,-1.28584 1.20363,-2.5138 1.82187,-3.75029c0.50594,-0.96991 0.63154,-2.09113 0.63154,-3.1918zM243.83821,180.5209c-1.04258,0.37888 -2.14869,0.6157 -3.51198,0.6157c-1.18034,0 -2.38983,0.00657 -3.59704,-0.04665c1.16404,1.00905 1.72714,4.39652 2.28525,5.52172c0.28611,0.57683 0.06409,1.8764 0.70333,1.79908c1.12421,-0.13598 2.79131,-5.23158 3.27319,-6.19535c0.28242,-0.56484 0.56484,-1.12967 0.84725,-1.69451zM235.40703,181.00431c-2.6228,-0.23106 -5.18,-0.8628 -7.34469,-2.58582c0.71869,1.44669 1.25951,3.08796 1.83682,4.50279c0.13781,0.33775 0.44814,2.31702 0.75643,2.46298c0.45878,0.2172 4.02973,-3.8845 4.56887,-4.2536c0.06197,-0.0476 0.12281,-0.08964 0.18257,-0.12636z" fill="#000000"/><path d="M227.12837,197.27348c-0.5073,-1.89676 0.013,-5.15998 0.013,-6.5801c0,-3.6874 0.27201,-7.35325 0.33994,-11.02709c0.66287,2.5039 2.07859,6.26562 2.82775,6.49042c1.46228,0.43879 4.35567,-3.75043 5.4052,-4.44197c0.85721,-1.23881 2.37574,7.29932 3.81202,7.46708c1.76238,0.20585 3.58582,-5.32117 4.1819,-6.51332c0.32482,-0.64964 0.72693,-1.44961 1.05175,-2.09925c0.19661,2.27341 2.44429,8.7074 4.08179,7.16417c1.17893,-1.11106 1.84414,-4.56904 2.61221,-6.10518c0.40794,-0.84364 0.74186,-1.83322 0.81696,-2.75341c0.30707,0.81415 0.50321,1.74476 0.90983,2.26355c-0.22342,5.67992 -0.05505,10.53194 -1.92847,16.09779c-0.0677,0.14921 -0.27955,0.19609 -0.35738,0.33332c-1.32279,-1.89612 -4.22469,-5.933 -5.30427,-5.348c-0.73711,0.39943 -1.02835,5.80863 -1.49322,6.85774c-0.03506,0.33366 -0.21405,0.99614 -0.45327,1.60514c-0.51476,-0.00403 -1.04508,-0.02257 -1.56275,-0.05552c-0.29357,-0.79345 -0.60785,-1.66267 -0.72402,-1.82203c-1.10958,-1.52211 -2.52223,-2.92505 -3.75027,-4.37745l-0.32763,-0.64177c-0.06783,-0.14277 -0.21964,-0.24626 -0.38822,-0.24626c-0.1687,0 -0.20422,-0.02939 -0.27198,0.11355l-0.33604,0.66622l0.26605,0.13209c-0.42021,1.67562 -0.25303,4.25118 -0.86169,5.39876c-0.288,-0.007 -0.67898,0.13728 -1.01785,0.12559c-0.24117,-0.35806 -0.44236,-0.8054 -0.46524,-0.83596c-1.17982,-1.57534 -2.84642,-4.58986 -4.57099,-5.27437c-0.75788,1.1556 -1.58564,2.34581 -2.50514,3.40627z" data-paper-data="{&quot;noHover&quot;:false,&quot;origItem&quot;:[&quot;Path&quot;,{&quot;applyMatrix&quot;:true,&quot;segments&quot;:[[[229.71215,193.83624],[-0.75788,1.1556],[1.72457,0.68451]],[[234.2492,199.06985],[-1.17982,-1.57534],[0.02289,0.03056]],[[234.70912,199.90275],[-0.24117,-0.35806],[0.33886,0.01169]],[[235.65406,199.92953],[-0.288,-0.007],[0.60866,-1.14758]],[[236.49873,194.52091],[-0.42021,1.67562],[0,0]],[236.22938,194.38624],[[236.56337,193.71827],[0,0],[0.06776,-0.14294]],[[236.94545,193.47648],[-0.1687,0],[0.16858,0]],[[237.32738,193.71796],[-0.06783,-0.14277],[0,0]],[[237.64627,194.35447],[0,0],[1.22804,1.45239]],[[241.34522,198.72316],[-1.10958,-1.52211],[0.11617,0.15936]],[[242.06581,200.54576],[-0.29357,-0.79345],[0.51767,0.03295]],[[243.61767,200.60408],[-0.51476,-0.00403],[0.23922,-0.609]],[[244.06368,199.00172],[-0.03506,0.33366],[0.46486,-1.0491]],[[245.51332,192.18728],[-0.73711,0.39943],[1.07957,-0.58501]],[[250.9635,197.61883],[-1.32279,-1.89612],[0.07783,-0.13722]],[[251.18193,197.18929],[-0.0677,0.14921],[1.87342,-5.56584]],[[253.11009,181.18478],[-0.22342,5.67992],[-0.40663,-0.51879]],[[252.20779,178.93105],[0.30707,0.81415],[-0.0751,0.9202]],[[251.52274,181.57915],[0.40794,-0.84364],[-0.76807,1.53614]],[[248.75938,187.75247],[1.17893,-1.11106],[-1.6375,1.54323]],[[244.72139,180.64447],[0.19661,2.27341],[-0.32482,0.64964]],[[243.74693,182.59339],[0.32482,-0.64964],[-0.59608,1.19214]],[[239.58238,189.24504],[1.76238,0.20585],[-1.43627,-0.16776]],[[235.75431,181.78917],[0.85721,-1.23881],[-1.04953,0.69154]],[[230.38831,186.1861],[1.46228,0.43879],[-0.74916,-0.2248]],[[227.54719,179.71924],[0.66287,2.5039],[-0.06793,3.67384]],[[227.22568,190.68733],[0,-3.6874],[0,1.42012]],[[227.20145,197.23101],[-0.5073,-1.89676],[0.9195,-1.06045]]],&quot;closed&quot;:true}]}" fill="#610000"/><path d="M241.03074,200.52487c-1.75363,-0.15922 -3.54968,-0.41343 -4.89671,-0.52166c0.6051,-1.4271 0.87069,-3.94106 0.8263,-5.18356c1.58181,1.89023 3.06908,3.62439 4.07041,5.70521z" data-paper-data="{&quot;noHover&quot;:false,&quot;origItem&quot;:[&quot;Path&quot;,{&quot;applyMatrix&quot;:true,&quot;segments&quot;:[[[237.00212,194.89313],[1.58181,1.89023],[0.04439,1.2425]],[[236.19534,199.94504],[0.6051,-1.4271],[1.34703,0.10823]],[[240.97568,200.46075],[-1.75363,-0.15922],[-1.00133,-2.08082]]],&quot;closed&quot;:true}]}" fill="#ffffff"/><path d="M250.52094,198.40548c-1.34286,1.60174 -3.67389,2.17032 -6.06791,2.25467c0.21242,-0.5611 0.33907,-1.09477 0.36698,-1.3801c0.82131,-1.79675 1.36725,-4.55446 1.10588,-6.45212c-0.12403,-0.90049 1.1325,1.45408 1.75709,2.11451c0.97237,1.02817 1.99731,2.27347 2.83795,3.46305z" data-paper-data="{&quot;noHover&quot;:false,&quot;origItem&quot;:[&quot;Path&quot;,{&quot;applyMatrix&quot;:true,&quot;segments&quot;:[[[247.67279,195.02634],[0.97237,1.02817],[-0.62459,-0.66043]],[[245.95767,192.90624],[-0.12403,-0.90049],[0.26137,1.89766]],[[244.88005,199.22055],[0.82131,-1.79675],[-0.02791,0.28533]],[[244.50389,200.59264],[0.21242,-0.5611],[2.39402,-0.08434]],[[250.44773,198.36324],[-1.34286,1.60174],[-0.84064,-1.18958]]],&quot;closed&quot;:true}]}" fill="#ffffff"/><path d="M251.44551,177.93925c0,1.10067 -0.09753,2.25355 -0.60347,3.22346c-0.61825,1.23649 -1.3701,2.58593 -1.88132,3.87177c-0.07172,0.18039 -1.00147,2.51827 -1.07243,2.46227c-1.65015,-1.30234 -1.75277,-5.03461 -2.68457,-7.27499l0.16525,-0.08455l-0.14209,-0.29043c0.73566,-0.35279 1.53323,-0.7858 2.36907,-1.20372c0.73516,-0.36758 2.53071,-1.62712 3.40172,-1.32069c0.2739,0.09636 0.50493,0.27072 0.68774,0.48555z" data-paper-data="{&quot;noHover&quot;:false,&quot;origItem&quot;:[&quot;Path&quot;,{&quot;applyMatrix&quot;:true,&quot;segments&quot;:[[[251.63666,177.87696],[0,0],[-0.18281,-0.21483]],[[250.95973,177.39789],[0.2739,0.09636],[-0.87102,-0.30643]],[[247.61488,178.72543],[0.73516,-0.36758],[-0.83584,0.41792]],[[245.29335,179.89898],[0.73566,-0.35279],[0,0]],[245.43732,180.18693],[[245.27412,180.26853],[0,0],[0.93181,2.24038]],[[247.89761,187.41274],[-1.65015,-1.30234],[0.07095,0.056]],[[248.9449,184.95146],[-0.07172,0.18039],[0.51122,-1.28584]],[[250.76678,181.20117],[-0.61825,1.23649],[0.50594,-0.96991]],[[251.39832,178.00937],[0,1.10067],[0,0]]],&quot;closed&quot;:true}]}" fill="#ffffff"/><path d="M243.05594,182.16135c-0.48188,0.96377 -2.22596,6.19708 -3.35017,6.33306c-0.63923,0.07732 -0.44826,-1.23318 -0.73437,-1.81001c-0.55811,-1.12521 -1.13943,-4.64362 -2.30347,-5.65267c1.20722,0.05322 2.47905,0.02035 3.65939,0.02035c1.36329,0 2.52488,-0.21511 3.56746,-0.59399c-0.28242,0.56484 -0.55642,1.13842 -0.83884,1.70326z" data-paper-data="{&quot;noHover&quot;:false,&quot;origItem&quot;:[&quot;Path&quot;,{&quot;applyMatrix&quot;:true,&quot;segments&quot;:[[[243.83821,180.5209],[-0.28242,0.56484],[-1.04258,0.37888]],[[240.32624,181.1366],[1.36329,0],[-1.18034,0]],[[236.72919,181.08995],[1.20722,0.05322],[1.16404,1.00905]],[[239.01444,186.61167],[-0.55811,-1.12521],[0.28611,0.57683]],[[239.71777,188.41075],[-0.63923,0.07732],[1.12421,-0.13598]],[[242.99096,182.2154],[-0.48188,0.96377],[0.28242,-0.56484]]],&quot;closed&quot;:true}]}" fill="#ffffff"/><path d="M235.30697,181.11236c-0.53914,0.3691 -4.21764,4.56984 -4.67642,4.35264c-0.3083,-0.14596 -0.66753,-2.16504 -0.80535,-2.50278c-0.57731,-1.41483 -1.10547,-3.15522 -1.82416,-4.60191c2.16469,1.72301 4.86527,2.39281 7.48807,2.62387c-0.05976,0.03672 -0.12018,0.08058 -0.18214,0.12819z" data-paper-data="{&quot;noHover&quot;:false,&quot;origItem&quot;:[&quot;Path&quot;,{&quot;applyMatrix&quot;:true,&quot;segments&quot;:[[[235.40703,181.00431],[-0.05976,0.03672],[-2.6228,-0.23106]],[[228.06233,178.4185],[2.16469,1.72301],[0.71869,1.44669]],[[229.89915,182.92129],[-0.57731,-1.41483],[0.13781,0.33775]],[[230.65559,185.38427],[-0.3083,-0.14596],[0.45878,0.2172]],[[235.22446,181.13068],[-0.53914,0.3691],[0.06197,-0.0476]]],&quot;closed&quot;:true}]}" fill="#ffffff"/><path d="M233.32044,199.88743c-2.09422,-0.14316 -4.5866,-0.52467 -5.62083,-1.52204c-0.07036,-0.06785 -0.13771,-0.15183 -0.19695,-0.23584c0.99163,-1.01429 2.23187,-2.43201 2.46261,-3.57481c1.13855,1.10257 2.10912,3.75776 3.35518,5.33269z" data-paper-data="{&quot;noHover&quot;:false,&quot;origItem&quot;:[&quot;Path&quot;,{&quot;applyMatrix&quot;:true,&quot;segments&quot;:[[[229.97943,194.63807],[1.13855,1.10257],[-0.23074,1.1428]],[[227.58346,198.10476],[0.99163,-1.01429],[0.05924,0.08401]],[[227.77765,198.33295],[-0.07036,-0.06785],[1.03424,0.99737]],[[233.25808,199.83037],[-2.09422,-0.14316],[-1.24606,-1.57492]]],&quot;closed&quot;:true}]}" fill="#ffffff"/></g></g></g></svg>