<svg version="1.1" xmlns="http://www.w3.org/2000/svg" xmlns:xlink="http://www.w3.org/1999/xlink" width="53.10136" height="30.41903" viewBox="0,0,53.10136,30.41903"><g transform="translate(-206.19651,-149.55755)"><g data-paper-data="{&quot;isPaintingLayer&quot;:true}" fill-rule="nonzero" stroke-linecap="butt" stroke-miterlimit="10" stroke-dasharray="" stroke-dashoffset="0" style="mix-blend-mode: normal"><g><path d="M246.65862,175.0693l-13.91244,-9.38845l22.96828,-14.1233z" fill="none" stroke="#000000" stroke-width="4" stroke-linejoin="round"/><path d="M246.65862,175.0693c0,0 -7.24466,-1.31428 -9.61509,-2.9139c-2.26197,-1.52643 -4.29736,-6.47455 -4.29736,-6.47455l22.96828,-14.1233z" fill="#7f7f7f" stroke="none" stroke-width="1" stroke-linejoin="miter"/></g><g><path d="M220.76813,159.63522c-0.05236,-0.00289 13.56811,-6.48966 13.56811,-6.48966l2.3486,19.1172c0,0 -15.85897,-12.62434 -15.91671,-12.62754z" fill="#252525" stroke="#000000" stroke-width="2" stroke-linejoin="miter"/><g><path d="M231.99044,163.50668l-4.98068,0.4391l-0.4391,-4.98068l4.98068,-0.4391z" fill="#ffffff" stroke="#ffffff" stroke-width="2" stroke-linejoin="round"/><path d="M230.81867,161.60222l-2.98841,0.26346l-0.26346,-2.98841l2.98841,-0.26346z" fill="#000000" stroke="none" stroke-width="1" stroke-linejoin="miter"/></g></g><g stroke="#000000" stroke-width="2" stroke-linejoin="miter"><path d="M229.92612,178.97658c-0.00233,-0.01843 -6.73913,-0.04847 -6.73913,-0.04847l2.74951,-8.38329c0,0 3.99664,8.48714 3.98963,8.43176z" fill="#515151"/><path d="M223.18699,178.92811c0,0 -16.01699,0.02851 -15.99045,-0.115c0.0307,-0.16601 9.88217,-26.63921 9.74706,-26.60072c-0.04067,0.01158 9.03738,18.19676 9.03738,18.19676z" fill="#252525"/></g><path d="M229.96759,178.94763c-0.01293,-0.0579 6.54437,-6.64702 6.54437,-6.64702l19.39229,-0.66557c0,0 2.35929,7.32557 2.39362,7.31259c0.04118,-0.01558 -28.30645,0.10671 -28.33028,0z" fill="#515151" stroke="#000000" stroke-width="2" stroke-linejoin="miter"/></g></g></svg>