<svg version="1.1" xmlns="http://www.w3.org/2000/svg" xmlns:xlink="http://www.w3.org/1999/xlink" width="57.33423" height="72.48108" viewBox="0,0,57.33423,72.48108"><g transform="translate(-206.95058,-138.51894)"><g data-paper-data="{&quot;isPaintingLayer&quot;:true}" fill-rule="nonzero" stroke-width="0" stroke-linecap="butt" stroke-miterlimit="10" stroke-dasharray="" stroke-dashoffset="0" style="mix-blend-mode: normal"><path d="M234.20424,211.00001v-28.19436h11.49852v28.19436z" data-paper-data="{&quot;index&quot;:null}" fill="#c4a639" stroke="none" stroke-linejoin="round"/><path d="M207.04218,151.53939c-0.32116,-1.39538 0.22567,-2.83319 1.27214,-3.05988c4.64635,-1.00654 38.18218,-8.27139 45.83847,-9.92997c0.99556,-0.21567 1.79645,0.71889 2.20054,2.47466c1.77451,7.71003 6.65717,28.92476 7.72747,33.57521c0.40449,1.75748 0.23552,3.56857 -0.76004,3.78424c-7.6563,1.65858 -41.19214,8.92342 -45.83848,9.92996c-1.04646,0.2267 -2.29152,-1.36924 -2.93239,-4.15375c-2.07685,-9.02371 -6.58879,-28.62776 -7.50774,-32.62047z" data-paper-data="{&quot;index&quot;:null}" fill="#ae9332" stroke="none" stroke-linejoin="round"/><path d="M235.48242,148.2816c0.9095,3.7358 5.54358,22.77028 5.54358,22.77028l-8.9588,2.18107c0,0 -4.5678,-18.76225 -5.49814,-22.58363c-0.31646,-1.29984 0.91573,-2.99081 1.97684,-3.24914c0.92887,-0.22613 2.81654,-0.68571 4.29275,-1.0451c1.15178,-0.2804 2.34688,0.70703 2.64377,1.92651z" data-paper-data="{&quot;index&quot;:null}" fill="#726121" stroke="#000000" stroke-linejoin="miter"/><path d="M248.1736,167.92781c1.27772,-0.31107 1.23385,0.76499 0.50509,1.89015c-1.26129,1.94735 -5.34285,8.24909 -7.52877,11.62403c-0.84957,1.31171 -2.25548,1.7006 -3.54229,0.96649c-3.52371,-2.01018 -10.37782,-5.92027 -12.37992,-7.0624c-1.07651,-0.61411 -0.73827,-1.6522 0.73552,-2.01102c3.37513,-0.82169 16.98845,-4.13595 22.21035,-5.40726z" data-paper-data="{&quot;index&quot;:null}" fill="#726121" stroke="none" stroke-linejoin="miter"/></g></g></svg>