<svg version="1.1" xmlns="http://www.w3.org/2000/svg" xmlns:xlink="http://www.w3.org/1999/xlink" width="90.04187" height="53.29279" viewBox="0,0,90.04187,53.29279"><g transform="translate(-195.13513,-143.12504)"><g data-paper-data="{&quot;isPaintingLayer&quot;:true}" fill-rule="nonzero" stroke-linecap="butt" stroke-miterlimit="10" stroke-dasharray="" stroke-dashoffset="0" style="mix-blend-mode: normal"><g data-paper-data="{&quot;index&quot;:null}"><g><path d="M282.58243,176.66647l-17.15459,-6.4951l4.24598,-6.53992z" fill="none" stroke="#000000" stroke-width="4" stroke-linejoin="round"/><path d="M282.58243,176.66647l-17.15459,-6.4951l4.24598,-6.53992z" fill="#b3b3b3" stroke="none" stroke-width="1" stroke-linejoin="miter"/></g><g><path d="M269.95676,164.7115l-15.03438,10.50876l-3.00872,-7.19352z" fill="none" stroke="#000000" stroke-width="4" stroke-linejoin="round"/><path d="M269.95676,164.7115l-15.03438,10.50876l-3.00872,-7.19352z" fill="#b3b3b3" stroke="none" stroke-width="1" stroke-linejoin="miter"/></g></g><g data-paper-data="{&quot;index&quot;:null}"><g><path d="M283.17701,171.25338l-18.29761,-1.29l2.18692,-7.48441z" fill="none" stroke="#000000" stroke-width="4" stroke-linejoin="round"/><path d="M283.17701,171.25338l-18.29761,-1.29l2.18692,-7.48441z" fill="#b3b3b3" stroke="none" stroke-width="1" stroke-linejoin="miter"/></g><g><path d="M267.64777,163.43212l-11.37922,14.3868l-4.94947,-6.02509z" fill="none" stroke="#000000" stroke-width="4" stroke-linejoin="round"/><path d="M267.64777,163.43212l-11.37922,14.3868l-4.94947,-6.02509z" fill="#b3b3b3" stroke="none" stroke-width="1" stroke-linejoin="miter"/></g></g><g data-paper-data="{&quot;index&quot;:null}"><g><path d="M275.62751,194.41784l-13.31987,-12.61141l6.44067,-4.39509z" fill="none" stroke="#000000" stroke-width="4" stroke-linejoin="round"/><path d="M275.62751,194.41784l-13.31987,-12.61141l6.44067,-4.39509z" fill="#b3b3b3" stroke="none" stroke-width="1" stroke-linejoin="miter"/></g><g><path d="M268.59256,178.51693l-17.925,3.89371v-7.79737z" fill="none" stroke="#000000" stroke-width="4" stroke-linejoin="round"/><path d="M268.59256,178.51693l-17.925,3.89371v-7.79737z" fill="#b3b3b3" stroke="none" stroke-width="1" stroke-linejoin="miter"/></g></g><g><g><path d="M210.04375,163.61592l4.24598,6.53993l-17.1546,6.49509z" fill="none" stroke="#000000" stroke-width="4" stroke-linejoin="round"/><path d="M210.04375,163.61592l4.24598,6.53993l-17.1546,6.49509z" fill="#b3b3b3" stroke="none" stroke-width="1" stroke-linejoin="miter"/></g><g><path d="M227.80393,168.01122l-3.00872,7.19352l-15.03438,-10.50876z" fill="none" stroke="#000000" stroke-width="4" stroke-linejoin="round"/><path d="M227.80393,168.01122l-3.00872,7.19352l-15.03438,-10.50876z" fill="#b3b3b3" stroke="none" stroke-width="1" stroke-linejoin="miter"/></g></g><g><g><path d="M204.96929,172.89581l6.44067,4.39508l-13.31987,12.61141z" fill="none" stroke="#000000" stroke-width="4" stroke-linejoin="round"/><path d="M204.96929,172.89581l6.44067,4.39508l-13.31987,12.61141z" fill="#b3b3b3" stroke="none" stroke-width="1" stroke-linejoin="miter"/></g><g><path d="M223.05001,170.09774v7.79738l-17.925,-3.89371z" fill="none" stroke="#000000" stroke-width="4" stroke-linejoin="round"/><path d="M223.05001,170.09774v7.79738l-17.925,-3.89371z" fill="#b3b3b3" stroke="none" stroke-width="1" stroke-linejoin="miter"/></g></g><g><g><path d="M210.96929,177.39581l6.44067,4.39508l-13.31987,12.61141z" fill="none" stroke="#000000" stroke-width="4" stroke-linejoin="round"/><path d="M210.96929,177.39581l6.44067,4.39508l-13.31987,12.61141z" fill="#b3b3b3" stroke="none" stroke-width="1" stroke-linejoin="miter"/></g><g><path d="M229.05001,174.59774v7.79738l-17.925,-3.89371z" fill="none" stroke="#000000" stroke-width="4" stroke-linejoin="round"/><path d="M229.05001,174.59774v7.79738l-17.925,-3.89371z" fill="#b3b3b3" stroke="none" stroke-width="1" stroke-linejoin="miter"/></g></g><g><path d="M247.0306,163.05004h-15.59475l7.78742,-17.925z" fill="none" stroke="#000000" stroke-width="4" stroke-linejoin="round"/><path d="M247.0306,163.05004h-15.59475l7.78742,-17.925z" fill="#b3b3b3" stroke="none" stroke-width="1" stroke-linejoin="miter"/></g><path d="M247.96669,190.93338h-15.93333c-4.39987,0 -7.96667,-3.5668 -7.96667,-7.96667v-15.93333c0,-4.39987 3.5668,-7.96667 7.96667,-7.96667h15.93333c4.39987,0 7.96667,3.5668 7.96667,7.96667v15.93333c0,4.39987 -3.5668,7.96667 -7.96667,7.96667z" fill="#fbff00" stroke="#000000" stroke-width="2" stroke-linejoin="miter"/><g data-paper-data="{&quot;index&quot;:null}"><path d="M242.23322,179.99582v-9.99156h10.08823v9.99156z" fill="#ffffff" stroke="#ffffff" stroke-width="2" stroke-linejoin="round"/><path d="M246.26851,177.99752v-5.99494h6.05294v5.99494z" fill="#000000" stroke="none" stroke-width="1" stroke-linejoin="miter"/></g><g data-paper-data="{&quot;index&quot;:null}"><g fill="none" stroke="none" stroke-width="1" stroke-linejoin="miter" font-family="sans-serif" font-weight="normal" font-size="12" text-anchor="start"/><g fill="none" stroke="none" stroke-width="1" stroke-linejoin="miter" font-family="sans-serif" font-weight="normal" font-size="12" text-anchor="start"/><g fill="none" stroke="none" stroke-width="1" stroke-linejoin="miter" font-family="sans-serif" font-weight="normal" font-size="12" text-anchor="start"/><g fill="none" stroke="none" stroke-width="1" stroke-linejoin="miter" font-family="sans-serif" font-weight="normal" font-size="12" text-anchor="start"/><g><path d="M227.50591,179.99582v-9.99156h10.08823v9.99156z" fill="#ffffff" stroke="#ffffff" stroke-width="2" stroke-linejoin="round"/><path d="M231.5412,177.99752v-5.99494h6.05294v5.99494z" fill="#000000" stroke="none" stroke-width="1" stroke-linejoin="miter"/></g></g></g></g></svg>