<svg version="1.1" xmlns="http://www.w3.org/2000/svg" xmlns:xlink="http://www.w3.org/1999/xlink" width="51.40037" height="30.36095" viewBox="0,0,51.40037,30.36095"><g transform="translate(-202.7878,-164.31953)"><g data-paper-data="{&quot;isPaintingLayer&quot;:true}" fill-rule="nonzero" stroke-linecap="butt" stroke-miterlimit="10" stroke-dasharray="" stroke-dashoffset="0" style="mix-blend-mode: normal"><g><path d="M233.97694,174.51134l-2.55403,5.12008l-4.61108,-5.49718z" fill="none" stroke="#000000" stroke-width="4" stroke-linejoin="round"/><path d="M233.97694,174.51134l-2.55403,5.12008l-4.61108,-5.49718z" fill="#b3b3b3" stroke="none" stroke-width="1" stroke-linejoin="miter"/></g><g><path d="M241.57659,172.89954h-5.72174l2.86087,-6.58z" fill="none" stroke="#000000" stroke-width="4" stroke-linejoin="round"/><path d="M241.57659,172.89954h-5.72174l2.86087,-6.58z" fill="#b3b3b3" stroke="none" stroke-width="1" stroke-linejoin="miter"/></g><g><path d="M250.15919,172.89954h-5.72174l2.86087,-6.58z" fill="none" stroke="#000000" stroke-width="4" stroke-linejoin="round"/><path d="M250.15919,172.89954h-5.72174l2.86087,-6.58z" fill="#b3b3b3" stroke="none" stroke-width="1" stroke-linejoin="miter"/></g><path d="M209.43817,193.68049l22.75,-7h21v7z" fill="#ffff00" stroke="#000000" stroke-width="2" stroke-linejoin="miter"/><g><path d="M238.18817,172.68049h9c3.31371,0 6,2.68629 6,6v8h-21v-8c0,-3.31371 2.68629,-6 6,-6z" fill="#b7b700" stroke="#000000" stroke-width="2" stroke-linejoin="miter"/><path d="M243.18817,182.68049v-5h5v5z" fill="#ffffff" stroke="#ffffff" stroke-width="2" stroke-linejoin="round"/><path d="M245.18817,181.68049v-3h3v3z" fill="#000000" stroke="none" stroke-width="1" stroke-linejoin="miter"/></g></g></g></svg>