<svg version="1.1" xmlns="http://www.w3.org/2000/svg" xmlns:xlink="http://www.w3.org/1999/xlink" width="36.86389" height="41.60614" viewBox="0,0,36.86389,41.60614"><g transform="translate(-216.99788,-137.93504)"><g stroke-miterlimit="10"><g><g><path d="M241.53638,147.00685l-5.55733,-1.36177l4.3447,-5.71004z" fill="none" stroke="#000000" stroke-width="4" stroke-linejoin="round"/><path d="M241.53638,147.00685l-5.55733,-1.36177l4.3447,-5.71004z" fill="#b3b3b3" stroke="none" stroke-width="1" stroke-linejoin="miter"/><path d="M249.87236,149.0495l-5.55733,-1.36177l4.3447,-5.71004z" fill="none" stroke="#000000" stroke-width="4" stroke-linejoin="round"/><path d="M249.87236,149.0495l-5.55733,-1.36177l4.3447,-5.71004z" fill="#b3b3b3" stroke="none" stroke-width="1" stroke-linejoin="miter"/></g><g><path d="M224.75556,144.44785l6.79888,2.29263l-3.83845,4.24318z" fill="none" stroke="#000000" stroke-width="4" stroke-linejoin="round"/><path d="M224.75556,144.44785l6.79888,2.29263l-3.83845,4.24318z" fill="#b3b3b3" stroke="none" stroke-width="1" stroke-linejoin="miter"/><path d="M218.99788,150.81262l6.79888,2.29263l-3.83845,4.24318z" fill="none" stroke="#000000" stroke-width="4" stroke-linejoin="round"/><path d="M218.99788,150.81262l6.79888,2.29263l-3.83845,4.24318z" fill="#b3b3b3" stroke="none" stroke-width="1" stroke-linejoin="miter"/></g><path d="M236.48855,145.6445l-5.3446,2.04294l0.32291,-7.16776z" fill="none" stroke="#000000" stroke-width="4" stroke-linejoin="round"/><path d="M236.48855,145.6445l-5.3446,2.04294l0.32291,-7.16776z" fill="#b3b3b3" stroke="none" stroke-width="1" stroke-linejoin="miter"/></g><path d="M231.79205,171.65459v-7h11v7z" fill="#000000" stroke="none" stroke-width="1" stroke-linejoin="miter"/><path d="M229.4375,178.54117l-2.03274,-6.55587l25.08328,0.27923l-2.05054,6.27663z" fill="#b0ff00" stroke="#000000" stroke-width="2" stroke-linejoin="miter"/><g><path d="M227.47866,170.00892l-7.25754,-9.84312l12.65482,-13.91315l18.68262,3.97369l-0.0853,12.17275z" fill="#54ab00" stroke="#000000" stroke-width="2" stroke-linejoin="miter"/><g><path d="M242.94258,159.90028l-1.54786,-4.75438l4.75438,-1.54786l1.54786,4.75438z" fill="#ffffff" stroke="#ffffff" stroke-width="2" stroke-linejoin="round"/><path d="M244.53476,158.33026l-0.92872,-2.85263l2.85263,-0.92872l0.92872,2.85263z" fill="#000000" stroke="none" stroke-width="1" stroke-linejoin="miter"/></g></g></g></g></svg>