<svg version="1.1" xmlns="http://www.w3.org/2000/svg" xmlns:xlink="http://www.w3.org/1999/xlink" width="29.60659" height="52.0141" viewBox="0,0,29.60659,52.0141"><g transform="translate(-225.19669,-156.98594)"><g data-paper-data="{&quot;isPaintingLayer&quot;:true}" fill-rule="nonzero" stroke-linecap="butt" stroke-miterlimit="10" stroke-dasharray="" stroke-dashoffset="0" style="mix-blend-mode: normal"><g><path d="M230.8,187.00004v-18h18.4v18z" fill="none" stroke="#000000" stroke-width="4" stroke-linejoin="round"/><path d="M230.8,187.00004v-18h18.4v18z" fill="#ffff00" stroke="none" stroke-width="1" stroke-linejoin="miter"/></g><g><path d="M245,202.00004v5h-10v-5h3v-35.55c-1.56787,-0.90521 -2.33228,-2.75064 -1.8637,-4.49938c0.46857,-1.74873 2.05328,-2.96472 3.8637,-2.96472c1.81042,0 3.39513,1.21599 3.8637,2.96472c0.46857,1.74873 -0.29583,3.59417 -1.8637,4.49938v35.55z" fill="none" stroke="#000000" stroke-width="4" stroke-linejoin="round"/><path d="M245,202.00004v5h-10v-5h3v-35.55c-1.56787,-0.90521 -2.33228,-2.75064 -1.8637,-4.49938c0.46857,-1.74873 2.05328,-2.96472 3.8637,-2.96472c1.81042,0 3.39513,1.21599 3.8637,2.96472c0.46857,1.74873 -0.29583,3.59417 -1.8637,4.49938v35.55z" fill="#3ac54d" stroke="none" stroke-width="1" stroke-linejoin="miter"/></g><path d="M230.8,187.00004v-18h18.4v18z" fill="#ffff00" stroke="none" stroke-width="1" stroke-linejoin="miter"/><g stroke="none" stroke-width="0.5" stroke-linejoin="miter"><path d="M226.20571,178.29467c-0.22041,-0.07415 -0.44058,-0.14777 -0.66052,-0.22056c0,0 -0.47434,-0.15811 -0.31623,-0.63245c0.15812,-0.47434 0.63246,-0.31623 0.63246,-0.31623c0.01435,0.00482 0.02871,0.00964 0.04307,0.01447c0.1058,-0.04012 0.19881,-0.04012 0.19881,-0.04012l0.55355,0.14644c0.06066,0.06708 0.11544,0.13598 0.16503,0.20647c2.05152,0.70765 4.15914,1.47601 6.29664,2.03615c0.354,-0.78398 0.66644,-1.5807 0.89816,-2.40394c0.32501,-1.15465 0.45171,-2.26879 0.77541,-3.36756l-0.1752,-0.03504l0.1943,-0.9715c0.04198,-0.2337 0.24633,-0.41102 0.4921,-0.41102c0.27614,0 0.5,0.22386 0.5,0.5v0.53856c0.12703,0.36701 0.25153,0.73489 0.37434,1.10333c0.63779,1.97277 1.33805,3.92127 2.10675,5.85386c0.20623,0.00532 0.41254,0.00682 0.6189,0.00426c1.33572,0 2.74732,0.04507 4.17551,0.04486c0.33014,-0.82599 0.71684,-1.63048 1.19917,-2.40773c0.81216,-1.30875 0.81182,-2.99608 1.30406,-4.44423l-0.15308,-0.05102l0.19635,-0.58906c0.06284,-0.20431 0.25307,-0.35282 0.47799,-0.35282c0.17631,0 0.3313,0.09125 0.42032,0.2291l0.3957,0.59355l-0.016,0.01066l0.04913,0.04701c0.7191,2.1573 1.40982,4.29377 2.10217,6.43992c1.41976,-0.32189 2.76617,-0.83283 3.97133,-1.63627c0.18339,-0.12131 0.36679,-0.24262 0.55019,-0.36392l0.3736,-0.3736c0.09048,-0.09048 0.21549,-0.14644 0.35356,-0.14644c0.27614,0 0.5,0.22386 0.5,0.5c0,0.04575 -0.00615,0.09005 -0.01765,0.13214l-0.19728,0.78912l-0.13583,-0.03396c-0.3922,2.30908 -1.86463,4.26846 -2.90008,6.33237c-0.33309,0.66392 -1.11196,2.17898 -2.15687,1.37443c-0.64672,-0.49795 -0.5955,-3.33608 -0.58584,-4.11401c-0.15148,-0.43732 -0.30012,-0.87627 -0.44671,-1.31644c-1.40349,0.23997 -2.85651,0.33161 -4.30652,0.36003c-0.63755,1.76468 -1.29259,3.54117 -1.9279,5.33919c-0.20236,0.21047 -0.98696,1.09462 -1.27459,1.0347c-0.75849,-0.15801 -1.35814,-2.30994 -1.70101,-2.90991c-0.64988,-1.13718 -1.19331,-2.33271 -1.6773,-3.55403c-1.41762,-0.11656 -2.81833,-0.37705 -4.20499,-0.72117c-0.4863,0.78554 -0.96853,1.57804 -1.2985,2.46102c-0.51197,1.36999 -0.75266,2.69992 -1.24361,4.0894c-0.3134,0.20792 -0.57021,0.6913 -0.9402,0.62376c-0.12174,-0.02222 -0.89984,-1.56861 -0.95407,-1.71316c-0.64394,-1.71632 -1.89839,-3.70525 -2.2246,-5.49338c-0.10662,-0.58441 -0.11144,-1.58718 -0.40405,-2.18518zM233.79326,179.65819c1.09303,0.26181 2.19311,0.46213 3.29676,0.5653c-0.60362,-1.63612 -1.12524,-3.30195 -1.67461,-4.9214c-0.14558,0.42948 -0.33645,0.87175 -0.41857,1.37777c-0.18028,1.11094 -0.65858,2.06027 -1.20359,2.97833zM244.41428,180.32858c1.22591,-0.03175 2.45047,-0.11722 3.63655,-0.313c-0.57206,-1.75403 -1.12066,-3.5228 -1.69487,-5.28099c-0.16781,0.7952 -0.60341,1.7137 -0.74217,2.13179c-0.3822,1.15161 -0.78556,2.30475 -1.19951,3.4622zM238.68928,181.29651c0.34284,0.83372 0.69868,1.66472 1.06799,2.49369c0.57074,1.28106 0.84717,2.98143 1.52071,2.3467c0.50057,-1.64195 0.89747,-3.25478 1.43333,-4.80272c-1.29765,-0.00232 -2.57972,-0.03442 -3.80801,-0.03442c-0.07138,-0.00068 -0.14273,-0.00177 -0.21403,-0.00325zM253.1369,179.29612c-1.16916,0.69929 -2.44422,1.16313 -3.77747,1.46882c0.14545,0.45086 0.29117,0.90234 0.43742,1.35474c0.00379,0.39998 -0.06812,0.80584 0,1.2c0.13129,0.75969 0.09137,1.5251 0.21416,2.28599c0.02956,0.18318 0.18087,-0.3241 0.27627,-0.48325c0.33003,-0.55054 0.67344,-1.05866 0.9907,-1.58551c0.54271,-0.90124 1.12466,-2.94218 1.85892,-4.24078zM229.91779,186.40852c0.66762,-2.11812 1.81509,-4.05505 2.78662,-6.04156c-1.83225,-0.48466 -3.64052,-1.10167 -5.43147,-1.71072c0.12548,0.70996 0.13331,1.46189 0.47952,2.12385c0.4269,0.81624 1.12921,1.80573 1.42938,2.67478c0.15464,0.44771 0.67282,2.39511 0.73594,2.95365z" fill="#000000"/><path d="M251.27938,183.58688c-0.31726,0.52686 -0.6791,1.032 -1.00913,1.58254c-0.0954,0.15914 -0.24802,0.66593 -0.27758,0.48275c-0.12278,-0.76089 -0.10768,-1.54756 -0.23897,-2.30725c-0.06812,-0.39416 -0.00164,-0.83702 -0.00544,-1.237c-0.14625,-0.45239 -0.28047,-0.92563 -0.42593,-1.3765c1.33325,-0.30569 2.67097,-0.77899 3.84014,-1.47827c-0.73425,1.2986 -1.34038,3.43249 -1.88309,4.33373z" data-paper-data="{&quot;noHover&quot;:false,&quot;origItem&quot;:[&quot;Path&quot;,{&quot;applyMatrix&quot;:true,&quot;segments&quot;:[[[506.2738,358.59224],[-1.46851,2.5972],[-2.33833,1.39858]],[[498.71886,361.52987],[2.6665,-0.61137],[0.2909,0.90173]],[[499.5937,364.23934],[-0.29251,-0.90478],[0.00759,0.79996]],[[499.5937,366.63934],[-0.13624,-0.78831],[0.26258,1.51939]],[[500.02202,371.21132],[-0.24557,-1.52177],[0.05912,0.36636]],[[500.57456,370.24483],[-0.1908,0.31829],[0.66005,-1.10108]],[[502.55596,367.0738],[-0.63452,1.05371],[1.08541,-1.80248]]],&quot;closed&quot;:true}]}" fill="#ffffff"/><path d="M245.57973,176.82977c0.13876,-0.41809 0.61061,-1.34993 0.77843,-2.14513c0.57421,1.7582 1.15014,3.61726 1.7222,5.37129c-1.18607,0.19578 -2.46743,0.28283 -3.69334,0.31457c0.41395,-1.15745 0.81051,-2.38912 1.19271,-3.54073z" data-paper-data="{&quot;noHover&quot;:false,&quot;origItem&quot;:[&quot;Path&quot;,{&quot;applyMatrix&quot;:true,&quot;segments&quot;:[[[488.82856,360.65716],[0.82789,-2.3149],[2.45182,-0.0635]],[[496.10165,360.03116],[-2.37215,0.39156],[-1.14412,-3.50807]],[[492.71191,349.46917],[1.14842,3.51639],[-0.33563,1.5904]],[[491.22757,353.73275],[0.27752,-0.83619],[-0.7644,2.30322]]],&quot;closed&quot;:true}]}" fill="#ffffff"/><path d="M238.87401,181.25925c1.22829,0 2.57136,0.03397 3.86901,0.03629c-0.53585,1.54793 -0.95254,3.24797 -1.45311,4.88992c-0.67354,0.63473 -1.0119,-1.11393 -1.58264,-2.39499c-0.36932,-0.82898 -0.70658,-1.69912 -1.04942,-2.53284c0.0713,0.00149 0.14478,0.00095 0.21616,0.00162z" data-paper-data="{&quot;noHover&quot;:false,&quot;origItem&quot;:[&quot;Path&quot;,{&quot;applyMatrix&quot;:true,&quot;segments&quot;:[[[477.37855,362.59302],[0.1426,0.00298],[0.68567,1.66743]],[[479.51454,367.58041],[-0.73864,-1.65795],[1.14147,2.56212]],[[482.55596,372.2738],[-1.34709,1.26946],[1.00115,-3.2839]],[[485.42262,362.66837],[-1.07171,3.09586],[-2.5953,-0.00463]],[[477.80661,362.59953],[2.45658,0],[-0.14277,-0.00136]]],&quot;closed&quot;:true}]}" fill="#ffffff"/><path d="M234.97785,176.63361c0.08211,-0.50602 0.29145,-0.95203 0.43703,-1.38152c0.54936,1.61945 1.09934,3.37682 1.70297,5.01294c-1.10365,-0.10317 -2.26438,-0.3073 -3.3574,-0.56911c0.54501,-0.91806 1.03712,-1.95138 1.2174,-3.06231z" data-paper-data="{&quot;noHover&quot;:false,&quot;origItem&quot;:[&quot;Path&quot;,{&quot;applyMatrix&quot;:true,&quot;segments&quot;:[[[467.58652,359.31637],[1.09001,-1.83612],[2.18606,0.52362]],[[474.18004,360.44697],[-2.2073,-0.20635],[-1.20725,-3.27225]],[[470.83083,350.60417],[1.09873,3.23891],[-0.29116,0.85897]],[[469.9937,353.35971],[0.16423,-1.01205],[-0.36056,2.22187]]],&quot;closed&quot;:true}]}" fill="#ffffff"/><path d="M229.14894,183.49251c-0.30017,-0.86905 -1.00893,-1.92702 -1.43583,-2.74326c-0.34622,-0.66196 -0.34337,-1.424 -0.46885,-2.13396c1.79094,0.60906 3.667,1.23584 5.49925,1.7205c-0.97153,1.98651 -2.15902,4.0046 -2.82664,6.12272c-0.06312,-0.55854 -0.61329,-2.51829 -0.76793,-2.966z" data-paper-data="{&quot;noHover&quot;:false,&quot;origItem&quot;:[&quot;Path&quot;,{&quot;applyMatrix&quot;:true,&quot;segments&quot;:[[[459.83557,372.81704],[-0.12623,-1.11708],[1.33524,-4.23624]],[[465.40882,360.73393],[-1.94306,3.97302],[-3.66449,-0.96932]],[[454.54589,357.31248],[3.58189,1.21811],[0.25096,1.41992]],[[455.50493,361.56018],[-0.69243,-1.32392],[0.8538,1.63247]],[[458.3637,366.90974],[-0.60034,-1.7381],[0.30928,0.89543]]],&quot;closed&quot;:true}]}" fill="#ffffff"/></g></g></g></svg>