<svg version="1.1" xmlns="http://www.w3.org/2000/svg" xmlns:xlink="http://www.w3.org/1999/xlink" width="271.19712" height="92.85846" viewBox="0,0,271.19712,92.85846"><g transform="translate(-104.40145,-133.57076)"><g data-paper-data="{&quot;isPaintingLayer&quot;:true}" fill-rule="nonzero" stroke-linecap="butt" stroke-linejoin="miter" stroke-miterlimit="10" stroke-dasharray="" stroke-dashoffset="0" style="mix-blend-mode: normal"><path d="M338.87857,158.01077v-0.13c-4.24,-1.44 -7.17,-4.63 -7.17,-9.2c0,-7.7 8.54,-13.11 20,-13.11c11.46,0 20,5.41 20,13.11c0,4.57 -2.94,7.76 -7.18,9.2v0.13c5.61,1.76 9.07,6 9.07,11.55c0,9.26 -9.59,14.67 -21.92,14.67c-12.33,0 -21.91,-5.41 -21.91,-14.67c0.05,-5.55 3.5,-9.79 9.11,-11.55zM351.72857,171.19076c1.78377,-0.01664 3.21632,-1.47614 3.19972,-3.2599c-0.01659,-1.78377 -1.47605,-3.21636 -3.25981,-3.19982c-1.78377,0.01654 -3.2164,1.47595 -3.19991,3.25972c0.00526,0.8575 0.35234,1.67748 0.9643,2.27818c0.61196,0.6007 1.43825,0.93249 2.2957,0.92182zM354.85857,152.60076c0.02845,-1.27195 -0.71584,-2.43457 -1.8829,-2.94117c-1.16706,-0.5066 -2.52465,-0.25636 -3.43439,0.63304c-0.90975,0.8894 -1.19062,2.24098 -0.71054,3.4192c0.48008,1.17822 1.62557,1.94861 2.89783,1.94893c0.82125,0.01067 1.61296,-0.30605 2.20026,-0.88021c0.58729,-0.57416 0.92184,-1.3585 0.92974,-2.17979z" fill="none" stroke="#ffffff" stroke-width="4"/><path d="M338.87857,158.01077v-0.13c-4.24,-1.44 -7.17,-4.63 -7.17,-9.2c0,-7.7 8.54,-13.11 20,-13.11c11.46,0 20,5.41 20,13.11c0,4.57 -2.94,7.76 -7.18,9.2v0.13c5.61,1.76 9.07,6 9.07,11.55c0,9.26 -9.59,14.67 -21.92,14.67c-12.33,0 -21.91,-5.41 -21.91,-14.67c0.05,-5.55 3.5,-9.79 9.11,-11.55zM351.72857,171.19076c1.78377,-0.01664 3.21632,-1.47614 3.19972,-3.2599c-0.01659,-1.78377 -1.47605,-3.21636 -3.25981,-3.19982c-1.78377,0.01654 -3.2164,1.47595 -3.19991,3.25972c0.00526,0.8575 0.35234,1.67748 0.9643,2.27818c0.61196,0.6007 1.43825,0.93249 2.2957,0.92182zM354.85857,152.60076c0.02845,-1.27195 -0.71584,-2.43457 -1.8829,-2.94117c-1.16706,-0.5066 -2.52465,-0.25636 -3.43439,0.63304c-0.90975,0.8894 -1.19062,2.24098 -0.71054,3.4192c0.48008,1.17822 1.62557,1.94861 2.89783,1.94893c0.82125,0.01067 1.61296,-0.30605 2.20026,-0.88021c0.58729,-0.57416 0.92184,-1.3585 0.92974,-2.17979z" fill="#000000" stroke="none" stroke-width="1"/><path d="M106.40357,136.30682h19.44v30.46h14.61v16.77h-34z" fill="none" stroke="#ffffff" stroke-width="4"/><path d="M145.53357,136.30682h34v15.78h-14.56v2.55h11.74v11.22h-11.74v2.67h15.46v15h-34.9z" fill="none" stroke="#ffffff" stroke-width="4"/><path d="M182.78357,136.30682h21l7,25h0.13l7.44,-25h19l-18.07,47.23h-18.43z" fill="none" stroke="#ffffff" stroke-width="4"/><path d="M240.57357,136.30682h34v15.78h-14.56v2.55h11.74v11.22h-11.74v2.67h15.46v15h-34.9z" fill="none" stroke="#ffffff" stroke-width="4"/><path d="M280.30357,136.30682h19.44v30.46h14.61v16.77h-34.05z" fill="none" stroke="#ffffff" stroke-width="4"/><path d="M106.40357,136.30682h19.44v30.46h14.61v16.77h-34z" fill="#000000" stroke="none" stroke-width="1"/><path d="M145.53357,136.30682h34v15.78h-14.56v2.55h11.74v11.22h-11.74v2.67h15.46v15h-34.9z" fill="#000000" stroke="none" stroke-width="1"/><path d="M182.78357,136.30682h21l7,25h0.13l7.44,-25h19l-18.07,47.23h-18.43z" fill="#000000" stroke="none" stroke-width="1"/><path d="M240.57357,136.30682h34v15.78h-14.56v2.55h11.74v11.22h-11.74v2.67h15.46v15h-34.9z" fill="#000000" stroke="none" stroke-width="1"/><path d="M280.30357,136.30682h19.44v30.46h14.61v16.77h-34.05z" fill="#000000" stroke="none" stroke-width="1"/><path d="M337.21676,209.3591h5.00792v12.735h-5.00792z" fill-opacity="0" fill="#000000" stroke="#ffffff" stroke-width="4"/><path d="M341.08037,209.4248v3.44891h-7.72721v-3.44891z" fill="none" stroke="#ffffff" stroke-width="4"/><path d="M335.04699,198.46989c2.43814,-0.04951 4.86292,0.4488 7.153,1.47v9.39c-1.90667,-1.02387 -3.96238,-1.57133 -6.04559,-1.61c-3.42885,0 -5.27452,1.72 -5.27452,4.07c0,2.35 1.84567,4 5.27452,4c2.13523,-0.00944 4.2431,-0.58616 6.17685,-1.69v9c-2.35653,1.09223 -4.86189,1.62841 -7.38269,1.58c-8.12916,0 -14.07632,-5.55 -14.07632,-13.12c0,-7.57 5.88974,-13.09 14.17476,-13.09z" fill="none" stroke="#ffffff" stroke-width="4"/><path d="M335.04699,198.46989c2.43814,-0.04951 4.86292,0.4488 7.153,1.47v9.39c-1.90667,-1.02387 -3.96238,-1.57133 -6.04559,-1.61c-3.42885,0 -5.27452,1.72 -5.27452,4.07c0,2.35 1.84567,4 5.27452,4c2.13523,-0.00944 4.2431,-0.58616 6.17685,-1.69v9c-2.35653,1.09223 -4.86189,1.62841 -7.38269,1.58c-8.12916,0 -14.07632,-5.55 -14.07632,-13.12c0,-7.57 5.88974,-13.09 14.17476,-13.09z" fill="#000000" stroke="none" stroke-width="1"/><path d="M235.0504,198.57123h8.62954c3.24018,0 10.08147,0.39 10.08147,6.47c0,2.15 -0.86952,4.12 -3.28119,5.1v0.07c3.12533,1.38 3.83899,3.77 3.83899,6.05c0,6.72 -6.07021,7.78 -10.26193,7.78h-9.02328zM244.23774,208.92123c1.13201,0 1.6406,-0.7 1.6406,-1.58c0,-0.88 -0.5578,-1.58 -1.6406,-1.58h-0.31991v3.16zM244.30337,217.22123c1.39451,0 2.05075,-0.88 2.05075,-2c0,-1.12 -0.68905,-2 -2.05075,-2h-0.38554v3.94z" fill="none" stroke="#ffffff" stroke-width="4"/><path d="M235.0504,198.57123h8.62954c3.24018,0 10.08147,0.39 10.08147,6.47c0,2.15 -0.86952,4.12 -3.28119,5.1v0.07c3.12533,1.38 3.83899,3.77 3.83899,6.05c0,6.72 -6.07021,7.78 -10.26193,7.78h-9.02328zM244.23774,208.92123c1.13201,0 1.6406,-0.7 1.6406,-1.58c0,-0.88 -0.5578,-1.58 -1.6406,-1.58h-0.31991v3.16zM244.30337,217.22123c1.39451,0 2.05075,-0.88 2.05075,-2c0,-1.12 -0.68905,-2 -2.05075,-2h-0.38554v3.94z" fill="#000000" stroke="none" stroke-width="1"/><path d="M254.68014,198.79029h9.97483c5.00382,0 11.8287,1.3 11.8287,8.09c-0.04428,2.5312 -1.21733,4.8315 -3.05971,6l5.56982,11.38h-10.54084l-3.62572,-8.37h-0.13945v8.37h-10.00764zM265.42604,210.05029c1.58317,0 2.28863,-0.88 2.28863,-2c0,-1.12 -0.73827,-1.94 -2.28863,-1.94h-0.73827v3.91z" fill="none" stroke="#ffffff" stroke-width="4"/><path d="M254.68014,198.79029h9.97483c5.00382,0 11.8287,1.3 11.8287,8.09c-0.04428,2.5312 -1.21733,4.8315 -3.05971,6l5.56982,11.38h-10.54084l-3.62572,-8.37h-0.13945v8.37h-10.00764zM265.42604,210.05029c1.58317,0 2.28863,-0.88 2.28863,-2c0,-1.12 -0.73827,-1.94 -2.28863,-1.94h-0.73827v3.91z" fill="#000000" stroke="none" stroke-width="1"/><path d="M282.63088,198.95923h10.01584v25.47h-10.01584z" fill="none" stroke="#ffffff" stroke-width="4"/><path d="M282.63088,198.95923h10.01584v25.47h-10.01584z" fill="#000000" stroke="none" stroke-width="1"/><path d="M337.36484,209.3591h5.00793v12.735h-5.00792z" fill="#000000" stroke="none" stroke-width="1"/><path d="M341.08037,209.24428v3.4489h-7.72721v-3.4489z" fill="#000000" stroke="none" stroke-width="1"/><path d="M296.67442,224.30471v-25.47h9.02329c4.16712,0 7.38268,1.51 9.54827,4c1.98478,2.25813 3.1164,5.41529 3.12728,8.72487c0.01087,3.30958 -1.09998,6.47769 -3.06986,8.75513c-2.23121,2.53 -5.47139,4 -9.54007,4zM305.53364,216.00471h0.21327c1.22478,0.08123 2.42493,-0.44129 3.33041,-1.45c0.64015,-0.8016 0.99151,-1.88142 0.97616,-3c0.01675,-1.13667 -0.33387,-2.23577 -0.97616,-3.06c-0.89353,-0.98547 -2.07968,-1.48073 -3.28119,-1.37h-0.2707z" fill="none" stroke="#ffffff" stroke-width="4"/><path d="M296.67442,224.30471v-25.47h9.02329c4.16712,0 7.38268,1.51 9.54827,4c1.98478,2.25813 3.1164,5.41529 3.12728,8.72487c0.01087,3.30958 -1.09998,6.47769 -3.06986,8.75513c-2.23121,2.53 -5.47139,4 -9.54007,4zM305.53364,216.00471h0.21327c1.22478,0.08123 2.42493,-0.44129 3.33041,-1.45c0.64015,-0.8016 0.99151,-1.88142 0.97616,-3c0.01675,-1.13667 -0.33387,-2.23577 -0.97616,-3.06c-0.89353,-0.98547 -2.07968,-1.48073 -3.28119,-1.37h-0.2707z" fill="#000000" stroke="none" stroke-width="1"/><path d="M347.65084,198.97423h17.50516v8.51h-7.49752v1.38h6.0538v6h-6.0538v1.46h7.9651v8.09h-17.97273z" fill="none" stroke="#ffffff" stroke-width="4"/><path d="M347.65084,198.97423h17.50516v8.51h-7.49752v1.38h6.0538v6h-6.0538v1.46h7.9651v8.09h-17.97273z" fill="#000000" stroke="none" stroke-width="1"/><path d="M106.98603,213.39335c2.10738,1.74766 4.33519,2.76086 6.59641,3c0.82869,0 1.02285,-0.42 1.02285,-0.84c0,-0.42 -0.24625,-0.71 -0.60614,-0.81c-0.94708,-0.32 -3.78831,-0.71 -5.82453,-3c-1.05125,-1.2 -1.77104,-2.85 -1.77104,-5.31c0,-5.1 3.10169,-8.58 8.17803,-8.58c2.41512,-0.01188 4.82007,0.66079 7.15044,2v8.34c-1.97016,-1.29267 -4.01005,-2.05207 -6.07077,-2.26c-0.80501,0 -1.02758,0.39 -1.02758,0.78c0,0.39 0.3078,0.74 0.63928,0.88c0.83343,0.31 3.60363,0.74 5.56882,2.71c1.35906,1.4 2.02675,3.2 2.02675,5.48c0,4.89 -3.10642,8.3 -8.37218,8.3c-2.53623,0.02953 -5.06266,-0.66681 -7.51033,-2.07z" fill="none" stroke="#ffffff" stroke-width="4"/><path d="M127.3861,198.26335h7.57663c4.82063,0 10.22844,1.76 10.22844,9c0,6.54 -4.32815,9.18 -9.2861,9.18h-0.26991v7.25h-8.24905zM135.86719,210.01335c1.42062,0 2.07883,-1 2.07883,-2.15c0,-1.15 -0.69136,-2.14 -2.07883,-2.14h-0.23203v4.29z" fill="none" stroke="#ffffff" stroke-width="4"/><path d="M149.75609,198.26335h8.25852v25.47h-8.25852z" fill="none" stroke="#ffffff" stroke-width="4"/><path d="M163.22355,198.26335h8.26326v10.62h0.05209l3.40948,-10.66h9.03513l-4.7354,11.82l5.12843,13.65h-9.29084l-3.54681,-12h-0.05209v12h-8.26326z" fill="none" stroke="#ffffff" stroke-width="4"/><path d="M188.64315,198.26335h14.43822v8.51h-6.17969v1.38h4.99111v6h-4.99111v1.46h6.56799v8.09h-14.82651z" fill="none" stroke="#ffffff" stroke-width="4"/><path d="M208.29503,223.73335v-25.47h8.39586c3.88302,0 6.87579,1.51 8.89781,4c1.77577,2.14 2.91226,5.06 2.91226,8.75c0,3.52 -1.05125,6.55 -2.84124,8.73c-2.07884,2.53 -5.10002,4 -8.8978,4zM216.55356,215.43335h0.19415c1.07845,0.11728 2.15184,-0.38375 3.10641,-1.45c0.53567,-0.58546 0.8837,-1.72787 0.91393,-3c-0.0298,-1.28765 -0.37651,-2.44847 -0.91393,-3.06c-0.58246,-0.77 -1.52479,-1.37 -3.04959,-1.37h-0.25098z" fill="none" stroke="#ffffff" stroke-width="4"/><path d="M106.98603,213.39335c2.10738,1.74766 4.33519,2.76086 6.59641,3c0.82869,0 1.02285,-0.42 1.02285,-0.84c0,-0.42 -0.24625,-0.71 -0.60614,-0.81c-0.94708,-0.32 -3.78831,-0.71 -5.82453,-3c-1.05125,-1.2 -1.77104,-2.85 -1.77104,-5.31c0,-5.1 3.10169,-8.58 8.17803,-8.58c2.41512,-0.01188 4.82007,0.66079 7.15044,2v8.34c-1.97016,-1.29267 -4.01005,-2.05207 -6.07077,-2.26c-0.80501,0 -1.02758,0.39 -1.02758,0.78c0,0.39 0.3078,0.74 0.63928,0.88c0.83343,0.31 3.60363,0.74 5.56882,2.71c1.35906,1.4 2.02675,3.2 2.02675,5.48c0,4.89 -3.10642,8.3 -8.37218,8.3c-2.53623,0.02953 -5.06266,-0.66681 -7.51033,-2.07z" fill="#000000" stroke="none" stroke-width="1"/><path d="M127.3861,198.26335h7.57663c4.82063,0 10.22844,1.76 10.22844,9c0,6.54 -4.32815,9.18 -9.2861,9.18h-0.26991v7.25h-8.24905zM135.86719,210.01335c1.42062,0 2.07883,-1 2.07883,-2.15c0,-1.15 -0.69136,-2.14 -2.07883,-2.14h-0.23203v4.29z" fill="#000000" stroke="none" stroke-width="1"/><path d="M149.75609,198.26335h8.25852v25.47h-8.25852z" fill="#000000" stroke="none" stroke-width="1"/><path d="M163.22355,198.26335h8.26326v10.62h0.05209l3.40948,-10.66h9.03513l-4.7354,11.82l5.12843,13.65h-9.29084l-3.54681,-12h-0.05209v12h-8.26326z" fill="#000000" stroke="none" stroke-width="1"/><path d="M188.64315,198.26335h14.43822v8.51h-6.17969v1.38h4.99111v6h-4.99111v1.46h6.56799v8.09h-14.82651z" fill="#000000" stroke="none" stroke-width="1"/><path d="M208.29503,223.73335v-25.47h8.39586c3.88302,0 6.87579,1.51 8.89781,4c1.77577,2.14 2.91226,5.06 2.91226,8.75c0,3.52 -1.05125,6.55 -2.84124,8.73c-2.07884,2.53 -5.10002,4 -8.8978,4zM216.55356,215.43335h0.19415c1.07845,0.11728 2.15184,-0.38375 3.10641,-1.45c0.53567,-0.58546 0.8837,-1.72787 0.91393,-3c-0.0298,-1.28765 -0.37651,-2.44847 -0.91393,-3.06c-0.58246,-0.77 -1.52479,-1.37 -3.04959,-1.37h-0.25098z" fill="#000000" stroke="none" stroke-width="1"/></g></g></svg>