<svg version="1.1" xmlns="http://www.w3.org/2000/svg" xmlns:xlink="http://www.w3.org/1999/xlink" width="31.50795" height="21.98608" viewBox="0,0,31.50795,21.98608"><g transform="translate(-224.24205,-157.96849)"><g data-paper-data="{&quot;isPaintingLayer&quot;:true}" fill-rule="nonzero" stroke-linecap="butt" stroke-miterlimit="10" stroke-dasharray="" stroke-dashoffset="0" style="mix-blend-mode: normal"><g><path d="M249.11654,163.92796c-0.51095,3.64697 -3.93044,5.70907 -8.98385,5.30254c-5.61491,0.40653 -8.53466,-1.64084 -8.98385,-5.30254c-0.44919,-3.86202 5.97426,-4.35103 8.98385,-3.26401c2.98713,-1.08702 9.41058,-0.07659 8.98385,3.26401z" fill="#ff7336" stroke="#000000" stroke-width="2" stroke-linejoin="round"/><path d="M241.62626,157.96849c0,0.67166 -1.49356,2.68073 -1.49356,2.68073" fill="none" stroke="#000000" stroke-width="2" stroke-linejoin="round"/><path d="M234.12206,163.13303c-0.70472,-0.34723 -0.63433,-0.98718 0.15721,-1.42936c0.79153,-0.44218 2.00449,-0.51916 2.7092,-0.17193c0.70472,0.34723 0.63433,0.98718 -0.15721,1.42936c-0.79153,0.44218 -2.00449,0.51916 -2.7092,0.17193z" fill="#ffffff" stroke="none" stroke-width="1" stroke-linejoin="miter"/></g><path d="M233.68088,164.94762h12.64147c4.65447,0 8.42765,2.68597 8.42765,5.99927v7.99903h-29.49678v-7.99903c0,-3.3133 3.77318,-5.99927 8.42765,-5.99927z" fill="#ff7336" stroke="#000000" stroke-width="2" stroke-linejoin="miter"/><path d="M240.8795,171.6357v-3.73288h7.02304v3.73288z" fill="#ffffff" stroke="#ffffff" stroke-width="2" stroke-linejoin="round"/><path d="M243.51315,170.88912v-2.23973h4.21382v2.23973z" fill="#000000" stroke="none" stroke-width="1" stroke-linejoin="miter"/><path d="M225.24205,178.95458v-4.82163h29.49678v4.82163z" fill="#ffa984" stroke="#000000" stroke-width="2" stroke-linejoin="miter"/></g></g></svg>