<svg version="1.1" xmlns="http://www.w3.org/2000/svg" xmlns:xlink="http://www.w3.org/1999/xlink" width="56.95247" height="54.35049" viewBox="0,0,56.95247,54.35049"><g transform="translate(-215.81593,-133.07909)"><g data-paper-data="{&quot;isPaintingLayer&quot;:true}" fill-rule="nonzero" stroke-linecap="butt" stroke-miterlimit="10" stroke-dasharray="" stroke-dashoffset="0" style="mix-blend-mode: normal"><g><path d="M255.78284,174.32122l4.60659,-6.22754l6.12501,8.24186z" fill="none" stroke="#000000" stroke-width="4" stroke-linejoin="round"/><path d="M255.78284,174.32122l4.60659,-6.22754l6.12501,8.24186z" fill="#b3b3b3" stroke="none" stroke-width="1" stroke-linejoin="miter"/></g><g><path d="M245.81998,179.62213l7.28026,-3.74825l1.74552,9.5557z" fill="none" stroke="#000000" stroke-width="4" stroke-linejoin="round"/><path d="M245.81998,179.62213l7.28026,-3.74825l1.74552,9.5557z" fill="#b3b3b3" stroke="none" stroke-width="1" stroke-linejoin="miter"/></g><g><path d="M260.23775,165.99354l1.27955,-7.59528l9.2511,5.50887z" fill="none" stroke="#000000" stroke-width="4" stroke-linejoin="round"/><path d="M260.23775,165.99354l1.27955,-7.59528l9.2511,5.50887z" fill="#b3b3b3" stroke="none" stroke-width="1" stroke-linejoin="miter"/></g><g><path d="M259.09078,149.65896l-4.93923,-6.54204l10.64501,-1.31004z" fill="none" stroke="#000000" stroke-width="4" stroke-linejoin="round"/><path d="M259.09078,149.65896l-4.93923,-6.54204l10.64501,-1.31004z" fill="#b3b3b3" stroke="none" stroke-width="1" stroke-linejoin="miter"/></g><g><path d="M262.3535,157.74714l-2.48643,-7.45587l10.77865,1.71067z" fill="none" stroke="#000000" stroke-width="4" stroke-linejoin="round"/><path d="M262.3535,157.74714l-2.48643,-7.45587l10.77865,1.71067z" fill="#b3b3b3" stroke="none" stroke-width="1" stroke-linejoin="miter"/></g><g><path d="M255.43956,144.52145l-7.45097,-4.289l8.79298,-5.15337z" fill="none" stroke="#000000" stroke-width="4" stroke-linejoin="round"/><path d="M255.43956,144.52145l-7.45097,-4.289l8.79298,-5.15337z" fill="#b3b3b3" stroke="none" stroke-width="1" stroke-linejoin="miter"/></g><path d="M226.62189,176.29852c-10.23914,-6.22988 -12.88589,-18.92332 -5.91166,-28.35162c6.97422,-9.42829 20.92841,-12.02112 31.16755,-5.79125c10.23914,6.22988 12.88589,18.92332 5.91166,28.35162c-6.97422,9.42829 -20.92841,12.02112 -31.16755,5.79125z" fill="#ff0000" stroke="#000000" stroke-width="2" stroke-linejoin="miter"/><path d="M226.62189,176.29852c-10.23914,-6.22988 15.01675,-40.37274 25.25589,-34.14286c10.23914,6.22988 12.88589,18.92332 5.91166,28.35162c-6.97422,9.42829 -20.92841,12.02112 -31.16755,5.79125z" fill="#ff7800" stroke="#000000" stroke-width="2" stroke-linejoin="miter"/><path d="M253.6478,152.38965c1.01704,0.27345 0.76881,1.15849 0.76881,1.15849l-0.12719,0.04179c0.50156,2.04759 1.46764,3.73362 1.74224,5.88701c0.72005,5.64673 -1.95408,10.64366 -5.89422,14.70093c0,0 -0.66275,0.68045 -1.47316,0.0519c-0.81041,-0.62854 -0.14766,-1.30898 -0.14766,-1.30898c3.59379,-3.67781 6.0969,-8.21651 5.43352,-13.35472c-0.27121,-2.10067 -1.17365,-3.66115 -1.70209,-5.67369l0.13448,-0.89113c0,0 0.24823,-0.88504 1.26529,-0.61159z" fill="#ffb06b" stroke="none" stroke-width="0.5" stroke-linejoin="miter"/><path d="M250.84402,145.16955c0.69525,-0.65424 1.47795,0.00153 1.47795,0.00153l0.7935,0.66482c5.99581,5.08377 5.05116,10.98169 5.8828,17.44382c0,0 0.11867,0.92501 -0.92148,0.97438c-1.04016,0.04938 -1.15882,-0.87563 -1.15882,-0.87563c-0.75046,-5.86725 0.3497,-11.66006 -5.19299,-16.23408l-0.7935,-0.66482c0,0 -0.7827,-0.65577 -0.08745,-1.31001z" fill="#ffb06b" stroke="none" stroke-width="0.5" stroke-linejoin="miter"/><path d="M244.98539,144.09102c0.95521,-0.32751 1.38367,0.53898 1.38367,0.53898l0.19695,0.41575c3.68557,5.55364 4.35588,11.21289 4.33948,17.41789c0,0 -0.00267,0.9245 -1.04957,0.86635c-1.0469,-0.05815 -1.04424,-0.98265 -1.04424,-0.98265c0.01837,-5.8634 -0.55385,-11.19098 -4.03507,-16.43668l-0.318,-0.62564c0,0 -0.42846,-0.86649 0.52675,-1.19401z" fill="#ffb06b" stroke="none" stroke-width="0.5" stroke-linejoin="miter"/><path d="M225.58244,147.76095c-0.66469,-0.74978 0.14412,-1.29375 0.14412,-1.29375l0.79133,-0.52854c3.76969,-3.54736 11.28958,-5.91395 16.94858,-5.64041c0,0 1.0469,0.05815 1.04424,0.98265c-0.00267,0.9245 -1.04957,0.86635 -1.04957,0.86635c-5.10312,-0.32903 -12.10491,2.01453 -15.4914,5.20129l-0.9138,0.61824c0,0 -0.80882,0.54396 -1.47351,-0.20582z" fill="#ff5a5a" stroke="none" stroke-width="0.5" stroke-linejoin="miter"/><path d="M224.52109,158.34118c-1.04193,-0.14554 -0.94002,-1.06035 -0.94002,-1.06035l0.19355,-0.73469c1.22081,-1.65038 2.15301,-3.48839 3.52249,-5.04565c2.51227,-2.85673 5.9541,-5.14305 8.63279,-7.89832c0,0 0.66275,-0.68045 1.47316,-0.0519c0.81041,0.62854 0.14766,1.30898 0.14766,1.30898c-2.66284,2.72924 -6.09102,5.00597 -8.57885,7.84038c-1.33166,1.51718 -2.23502,3.31697 -3.42456,4.92508l0.11759,-0.05282c0,0 -0.10191,0.91482 -1.14384,0.76928z" fill="#ff5a5a" stroke="none" stroke-width="0.5" stroke-linejoin="miter"/><path d="M220.63454,161.37033c-0.55712,0.75315 -1.44347,0.21386 -1.44347,0.21386l-0.54715,-0.38895c-2.42079,-3.13855 1.14286,-7.65611 3.07512,-10.26829c0,0 0.55712,-0.75315 1.44347,-0.21386c0.88636,0.53929 0.32924,1.29244 0.32924,1.29244c-1.03426,1.3982 -5.1161,6.56768 -3.2302,8.10177l0.04376,-0.02942c0,0 0.88636,0.53929 0.32924,1.29244z" fill="#ff5a5a" stroke="none" stroke-width="0.5" stroke-linejoin="miter"/><path d="M247.70134,173.79018c0.23281,0.9139 -0.78788,1.06511 -0.78788,1.06511l-0.36986,0.049c-3.35944,0.83917 -6.72515,1.8102 -10.09035,2.61454c0,0 -0.99541,0.23334 -1.31969,-0.66311c-0.32426,-0.89645 0.67116,-1.1298 0.67116,-1.1298c3.3259,-0.76141 6.75017,-1.74911 10.05067,-2.60485l0.59246,-0.09358c0,0 1.02069,-0.15122 1.25349,0.76267z" fill="#ffb06b" stroke="none" stroke-width="0.5" stroke-linejoin="miter"/><path d="M247.91979,166.52563c0.75988,0.67653 0.03975,1.30929 0.03975,1.30929l-0.70717,0.611c-4.72063,3.17323 -9.04708,5.43632 -15.27048,5.93634c0,0 -1.03554,0.08068 -1.18938,-0.84212c-0.15384,-0.9228 0.8817,-1.00348 0.8817,-1.00348c5.86249,-0.44069 9.82415,-2.61313 14.24877,-5.59031l0.5168,-0.46448c0,0 0.72013,-0.63276 1.48001,0.04377z" fill="#ffb06b" stroke="none" stroke-width="0.5" stroke-linejoin="miter"/></g></g></svg>