<svg version="1.1" xmlns="http://www.w3.org/2000/svg" xmlns:xlink="http://www.w3.org/1999/xlink" width="35.47278" height="203.41664" viewBox="0,0,35.47278,203.41664"><g transform="translate(-222.85522,-27.58344)"><g data-paper-data="{&quot;isPaintingLayer&quot;:true}" fill-rule="nonzero" stroke-linecap="butt" stroke-miterlimit="10" stroke-dasharray="" stroke-dashoffset="0" style="mix-blend-mode: normal"><path d="M229.75912,153.0001v-125.41666h21.66498v125.41667z" fill="#000000" stroke="none" stroke-width="NaN" stroke-linejoin="miter"/><path d="M243.73889,202.50009l1.57363,2l-0.78681,6" fill="none" stroke="#000000" stroke-width="2" stroke-linejoin="round"/><path d="M229.57613,211.50009l-0.78681,-4" fill="none" stroke="#000000" stroke-width="2" stroke-linejoin="round"/><path d="M255.54118,210.50009l0.78682,-4" fill="none" stroke="#000000" stroke-width="2" stroke-linejoin="round"/><path d="M226.03545,141.50001v-13h29.11232v13z" fill="#000000" stroke="none" stroke-width="0" stroke-linejoin="miter"/><path d="M226.03545,121.50015v-13h29.11232v13z" fill="#000000" stroke="none" stroke-width="0" stroke-linejoin="miter"/><path d="M226.03545,96.50015v-13h29.11232v13z" fill="#000000" stroke="none" stroke-width="0" stroke-linejoin="miter"/><path d="M226.03545,76.50003v-13h29.11232v13z" fill="#000000" stroke="none" stroke-width="0" stroke-linejoin="miter"/><path d="M226.03545,51.50016v-13h29.11232v13z" fill="#000000" stroke="none" stroke-width="0" stroke-linejoin="miter"/><g><path d="M242.82616,213.00008h12.58911l-6.29456,16z" fill="none" stroke="#000000" stroke-width="4" stroke-linejoin="round"/><path d="M242.82616,213.00008h12.58911l-6.29456,16z" fill="#b3b3b3" stroke="none" stroke-width="1" stroke-linejoin="miter"/></g><g><path d="M225.51615,213.00008h12.58911l-6.29456,16z" fill="none" stroke="#000000" stroke-width="4" stroke-linejoin="round"/><path d="M225.51615,213.00008h12.58911l-6.29456,16z" fill="#b3b3b3" stroke="none" stroke-width="1" stroke-linejoin="miter"/></g><g><path d="M224.85522,211.00003v-62h31.47278v62z" fill="none" stroke="#000000" stroke-width="4" stroke-linejoin="round"/><path d="M224.85522,211.00003v-62h31.47278v62z" fill="#39b54a" stroke="none" stroke-width="1" stroke-linejoin="miter"/></g><path d="M229.30963,202.00003v-44h21.77713v44z" fill="#3ac54d" stroke="none" stroke-width="1" stroke-linejoin="miter"/><path d="M226.1699,201.01679l14,0.66667l14,-0.66667v0.66667h-28z" fill="#ffffff" stroke="#000000" stroke-width="2" stroke-linejoin="round"/></g></g></svg>