<svg version="1.1" xmlns="http://www.w3.org/2000/svg" xmlns:xlink="http://www.w3.org/1999/xlink" width="203.38756" height="149.74504" viewBox="0,0,203.38756,149.74504"><g transform="translate(-132.61622,-59.42419)"><g data-paper-data="{&quot;isPaintingLayer&quot;:true}" fill-rule="nonzero" stroke-miterlimit="10" stroke-dasharray="" stroke-dashoffset="0" style="mix-blend-mode: normal"><g data-paper-data="{&quot;index&quot;:null}" fill="none" stroke-linecap="round" stroke-linejoin="round"><path d="M149.53139,204.87487l25.92,-130.33308l40.69,37.42215" stroke="#000000" stroke-width="8"/><path d="M149.53139,204.87487l25.92,-130.33308l40.69,37.42215" stroke="#8ac389" stroke-width="4"/></g><g data-paper-data="{&quot;index&quot;:null}" fill="none" stroke-linecap="round" stroke-linejoin="round"><path d="M182.8364,202.52002l22.92758,-130.33309l35.99242,37.42216" stroke="#000000" stroke-width="8"/><path d="M182.8364,202.52002l22.92758,-130.33309l35.99242,37.42216" stroke="#8ac389" stroke-width="4"/></g><g data-paper-data="{&quot;index&quot;:null}" fill="none" stroke-linecap="round" stroke-linejoin="round"><path d="M240.95687,109.60908l40.69,-37.42216l25.92,130.33309" stroke="#000000" stroke-width="8"/><path d="M240.95687,109.60908l40.69,-37.42216l25.92,130.33309" stroke="#8ac389" stroke-width="4"/></g><g fill="none" stroke-linecap="round" stroke-linejoin="round"><path d="M164.04468,202.52001l25.92,-130.33308l40.69,37.42215" stroke="#000000" stroke-width="8"/><path d="M164.04468,202.52001l25.92,-130.33308l40.69,37.42215" stroke="#8ac389" stroke-width="4"/></g><g fill="none" stroke-linecap="round" stroke-linejoin="round"><path d="M227.08494,113.90002l42.98,-30.88l15.94,120.06" stroke="#000000" stroke-width="8"/><path d="M227.08494,113.90002l42.98,-30.88l15.94,120.06" stroke="#8ac389" stroke-width="4"/></g><g fill="none" stroke-linecap="round" stroke-linejoin="round"><path d="M170.81493,202.86001l25.92,-118.31l40.69,33.97" stroke="#000000" stroke-width="8"/><path d="M170.81493,202.86001l25.92,-118.31l40.69,33.97" stroke="#8ac389" stroke-width="4"/></g><g fill="none" stroke-linecap="round" stroke-linejoin="round"><path d="M252.18493,125.02002l37.5,-37.5l38,115" stroke="#000000" stroke-width="8"/><path d="M252.18493,125.02002l37.5,-37.5l38,115" stroke="#8ac389" stroke-width="4"/></g><g data-paper-data="{&quot;index&quot;:null}" fill="none" stroke-linecap="round" stroke-linejoin="round"><path d="M240.95687,109.60908l20.345,-37.42216l12.96,130.33309" stroke="#000000" stroke-width="8"/><path d="M240.95687,109.60908l20.345,-37.42216l12.96,130.33309" stroke="#8ac389" stroke-width="4"/></g><g data-paper-data="{&quot;index&quot;:null}" fill="none" stroke-linecap="round" stroke-linejoin="round"><path d="M200.62966,202.52002l15.11998,-130.33309l23.7358,37.42216" stroke="#000000" stroke-width="8"/><path d="M200.62966,202.52002l15.11998,-130.33309l23.7358,37.42216" stroke="#8ac389" stroke-width="4"/></g><g data-paper-data="{&quot;index&quot;:null}" fill="none" stroke-linecap="round" stroke-linejoin="round"><path d="M252.69994,112.25831l40.69,-37.42215l25.92,130.33308" stroke="#000000" stroke-width="8"/><path d="M252.69994,112.25831l40.69,-37.42215l25.92,130.33308" stroke="#8ac389" stroke-width="4"/></g><g fill="none" stroke-linecap="round" stroke-linejoin="round"><path d="M183.76021,203.08002l18.18672,-120.06l43.33322,30.88" stroke="#000000" stroke-width="8"/><path d="M183.76021,203.08002l18.18672,-120.06l43.33322,30.88" stroke="#8ac389" stroke-width="4"/></g><g fill="none" stroke-linecap="round" stroke-linejoin="round"><path d="M136.61622,202.52002l43.35604,-115l42.78557,37.5" stroke="#000000" stroke-width="8"/><path d="M136.61622,202.52002l43.35604,-115l42.78557,37.5" stroke="#8ac389" stroke-width="4"/></g><g fill="none" stroke-linecap="round" stroke-linejoin="round"><path d="M244.17343,118.52002l42.14664,-33.97l29.57339,118.31" stroke="#000000" stroke-width="8"/><path d="M244.17343,118.52002l42.14664,-33.97l29.57339,118.31" stroke="#8ac389" stroke-width="4"/></g><g data-paper-data="{&quot;index&quot;:null}" fill="none" stroke-linecap="round" stroke-linejoin="round"><path d="M243.33872,110.1978l41.06549,-37.42216l26.1592,130.33309" stroke="#000000" stroke-width="8"/><path d="M243.33872,110.1978l41.06549,-37.42216l26.1592,130.33309" stroke="#8ac389" stroke-width="4"/></g><g data-paper-data="{&quot;index&quot;:null}" fill="none" stroke-linecap="round" stroke-linejoin="round"><path d="M168.25237,203.10874l29.57339,-130.33309l46.42519,37.42216" stroke="#000000" stroke-width="8"/><path d="M168.25237,203.10874l29.57339,-130.33309l46.42519,37.42216" stroke="#8ac389" stroke-width="4"/></g><g data-paper-data="{&quot;index&quot;:null}" fill="none" stroke-linecap="round" stroke-linejoin="round"><path d="M256.0052,110.1978l46.42519,-37.42216l29.57339,130.33309" stroke="#000000" stroke-width="8"/><path d="M256.0052,110.1978l46.42519,-37.42216l29.57339,130.33309" stroke="#8ac389" stroke-width="4"/></g><g data-paper-data="{&quot;index&quot;:null}" fill="none" stroke-linecap="round" stroke-linejoin="round"><path d="M192.85342,203.66874l18.18672,-120.06l49.03797,30.88" stroke="#000000" stroke-width="8"/><path d="M192.85342,203.66874l18.18672,-120.06l49.03797,30.88" stroke="#8ac389" stroke-width="4"/></g><g data-paper-data="{&quot;index&quot;:null}" fill="none" stroke-linecap="round" stroke-linejoin="round"><path d="M248.2807,119.10874l46.42519,-33.97l29.57339,118.31" stroke="#000000" stroke-width="8"/><path d="M248.2807,119.10874l46.42519,-33.97l29.57339,118.31" stroke="#8ac389" stroke-width="4"/></g><g data-paper-data="{&quot;index&quot;:null}" fill="none" stroke-linecap="round" stroke-linejoin="round"><path d="M145.29867,203.10874l43.35604,-115l42.78557,37.5" stroke="#000000" stroke-width="8"/><path d="M145.29867,203.10874l43.35604,-115l42.78557,37.5" stroke="#8ac389" stroke-width="4"/></g><g data-paper-data="{&quot;index&quot;:null}" fill="none" stroke-linecap="round" stroke-linejoin="round"><path d="M206.25166,203.10874l14.78669,-130.33309l23.2126,37.42216" stroke="#000000" stroke-width="8"/><path d="M206.25166,203.10874l14.78669,-130.33309l23.2126,37.42216" stroke="#8ac389" stroke-width="4"/></g><g data-paper-data="{&quot;index&quot;:null}" fill="none" stroke-linecap="round" stroke-linejoin="round"><path d="M245.92975,110.1978l27.08133,-37.42216l17.25112,130.33309" stroke="#000000" stroke-width="8"/><path d="M245.92975,110.1978l27.08133,-37.42216l17.25112,130.33309" stroke="#8ac389" stroke-width="4"/></g><g stroke-linecap="butt"><path d="M277.25687,129.46305h-72.6c-5.90945,0 -10.7,-4.79055 -10.7,-10.7v-11.64c-0.00144,-5.04951 3.53058,-9.41137 8.47,-10.46l36.3,-7.73c1.47051,-0.31002 2.98949,-0.31002 4.46,0l36.3,7.73c4.93942,1.04863 8.47145,5.41049 8.47,10.46v11.64c0,5.90945 -4.79055,10.7 -10.7,10.7z" fill="none" stroke="#000000" stroke-width="4" stroke-linejoin="round"/><path d="M277.25687,129.46305h-72.6c-5.90945,0 -10.7,-4.79055 -10.7,-10.7v-11.64c-0.00144,-5.04951 3.53058,-9.41137 8.47,-10.46l36.3,-7.73c1.47051,-0.31002 2.98949,-0.31002 4.46,0l36.3,7.73c4.93942,1.04863 8.47145,5.41049 8.47,10.46v11.64c0,5.90945 -4.79055,10.7 -10.7,10.7z" fill="#03d100" stroke="none" stroke-width="1" stroke-linejoin="miter"/></g><path d="M276.95687,120.46305l-36,-5l-37,5v-17l37.09,-7l35.91,7z" fill="#04ff00" stroke="none" stroke-width="1" stroke-linecap="butt" stroke-linejoin="miter"/><path d="M233.95687,120.46305v-25h14v25z" fill="#03ab00" stroke="none" stroke-width="1" stroke-linecap="butt" stroke-linejoin="miter"/><path d="M237.95687,105.46305v-6h6v6z" fill="#028000" stroke="none" stroke-width="1" stroke-linecap="butt" stroke-linejoin="miter"/><path d="M237.95687,97.46305v-6h6v6z" fill="#028000" stroke="none" stroke-width="1" stroke-linecap="butt" stroke-linejoin="miter"/><path d="M237.95687,113.46305v-6h6v6z" fill="#7d0000" stroke="none" stroke-width="1" stroke-linecap="butt" stroke-linejoin="miter"/><path d="M237.95687,121.46305v-6h6v6z" fill="#7d0000" stroke="none" stroke-width="1" stroke-linecap="butt" stroke-linejoin="miter"/><path d="M237.95687,129.46305v-6h6v6z" fill="#028000" stroke="none" stroke-width="1" stroke-linecap="butt" stroke-linejoin="miter"/><path d="M232.95687,114.46305c0,-4.41828 3.58172,-8 8,-8c4.41828,0 8,3.58172 8,8c0,4.41828 -3.58172,8 -8,8c-4.41828,0 -8,-3.58172 -8,-8z" fill="#98ff00" stroke="#000000" stroke-width="2" stroke-linecap="butt" stroke-linejoin="round"/><path d="M268.95687,106.46305v11l-22,-3" fill="none" stroke="#000000" stroke-width="2" stroke-linecap="butt" stroke-linejoin="round"/><path d="M258.95687,120.46305v-9" fill="none" stroke="#000000" stroke-width="2" stroke-linecap="butt" stroke-linejoin="round"/><path d="M240.95687,121.46305v9" fill="none" stroke="#000000" stroke-width="2" stroke-linecap="butt" stroke-linejoin="round"/><path d="M234.95687,114.46305l-22,3v-11" fill="none" stroke="#000000" stroke-width="2" stroke-linecap="butt" stroke-linejoin="round"/><path d="M222.95687,120.46305v-9" fill="none" stroke="#000000" stroke-width="2" stroke-linecap="butt" stroke-linejoin="round"/><g stroke-linecap="butt"><path d="M209.76351,141.5019v-62h62v62z" fill="none" stroke="#000000" stroke-width="4" stroke-linejoin="round"/><path d="M209.76351,141.5019v-62h62v62z" fill="#03d100" stroke="none" stroke-width="1" stroke-linejoin="miter"/></g><path d="M218.76351,132.5019v-44h44v44z" fill="#04ff00" stroke="none" stroke-width="1" stroke-linecap="butt" stroke-linejoin="miter"/><path d="M262.76349,132.5019h-44v-23l22,7l22,-7z" fill="#ffffff" stroke="none" stroke-width="1" stroke-linecap="butt" stroke-linejoin="miter"/><path d="M224.76351,132.5019v-9h9v9z" fill="#000000" stroke="none" stroke-width="1" stroke-linecap="butt" stroke-linejoin="miter"/><path d="M247.76351,132.5019v-9h9v9z" fill="#000000" stroke="none" stroke-width="1" stroke-linecap="butt" stroke-linejoin="miter"/><g stroke-linecap="butt"><path d="M254.85351,143.5019h16l-8,16z" fill="none" stroke="#000000" stroke-width="4" stroke-linejoin="round"/><path d="M254.85351,143.5019h16l-8,16z" fill="#b3b3b3" stroke="none" stroke-width="1" stroke-linejoin="miter"/></g><g stroke-linecap="butt"><path d="M210.85351,143.5019h16l-8,16z" fill="none" stroke="#000000" stroke-width="4" stroke-linejoin="round"/><path d="M210.85351,143.5019h16l-8,16z" fill="#b3b3b3" stroke="none" stroke-width="1" stroke-linejoin="miter"/></g><g stroke-linecap="butt"><path d="M232.85351,143.5019h16l-8,16z" fill="none" stroke="#000000" stroke-width="4" stroke-linejoin="round"/><path d="M232.85351,143.5019h16l-8,16z" fill="#b3b3b3" stroke="none" stroke-width="1" stroke-linejoin="miter"/></g><g stroke-linecap="butt"><path d="M207.50454,124.56642v16l-16,-8z" fill="none" stroke="#000000" stroke-width="4" stroke-linejoin="round"/><path d="M207.50454,124.56642v16l-16,-8z" fill="#b3b3b3" stroke="none" stroke-width="1" stroke-linejoin="miter"/></g><g stroke-linecap="butt"><path d="M207.50454,80.56642v16l-16,-8z" fill="none" stroke="#000000" stroke-width="4" stroke-linejoin="round"/><path d="M207.50454,80.56642v16l-16,-8z" fill="#b3b3b3" stroke="none" stroke-width="1" stroke-linejoin="miter"/></g><g stroke-linecap="butt"><path d="M207.50454,102.56642v16l-16,-8z" fill="none" stroke="#000000" stroke-width="4" stroke-linejoin="round"/><path d="M207.50454,102.56642v16l-16,-8z" fill="#b3b3b3" stroke="none" stroke-width="1" stroke-linejoin="miter"/></g><g data-paper-data="{&quot;index&quot;:null}" stroke-linecap="butt"><path d="M290.40921,132.77316l-16,8v-16z" fill="none" stroke="#000000" stroke-width="4" stroke-linejoin="round"/><path d="M290.40921,132.77316l-16,8v-16z" fill="#b3b3b3" stroke="none" stroke-width="1" stroke-linejoin="miter"/></g><g data-paper-data="{&quot;index&quot;:null}" stroke-linecap="butt"><path d="M290.40921,88.77316l-16,8v-16z" fill="none" stroke="#000000" stroke-width="4" stroke-linejoin="round"/><path d="M290.40921,88.77316l-16,8v-16z" fill="#b3b3b3" stroke="none" stroke-width="1" stroke-linejoin="miter"/></g><g data-paper-data="{&quot;index&quot;:null}" stroke-linecap="butt"><path d="M290.40921,110.77316l-16,8v-16z" fill="none" stroke="#000000" stroke-width="4" stroke-linejoin="round"/><path d="M290.40921,110.77316l-16,8v-16z" fill="#b3b3b3" stroke="none" stroke-width="1" stroke-linejoin="miter"/></g><g stroke-linecap="butt"><path d="M227.06025,77.42419h-16l8,-16z" fill="none" stroke="#000000" stroke-width="4" stroke-linejoin="round"/><path d="M227.06025,77.42419h-16l8,-16z" fill="#b3b3b3" stroke="none" stroke-width="1" stroke-linejoin="miter"/></g><g stroke-linecap="butt"><path d="M271.06023,77.42419h-16l8,-16z" fill="none" stroke="#000000" stroke-width="4" stroke-linejoin="round"/><path d="M271.06023,77.42419h-16l8,-16z" fill="#b3b3b3" stroke="none" stroke-width="1" stroke-linejoin="miter"/></g><g stroke-linecap="butt"><path d="M249.06025,77.42419h-16l8,-16z" fill="none" stroke="#000000" stroke-width="4" stroke-linejoin="round"/><path d="M249.06025,77.42419h-16l8,-16z" fill="#b3b3b3" stroke="none" stroke-width="1" stroke-linejoin="miter"/></g></g></g></svg>