<svg version="1.1" xmlns="http://www.w3.org/2000/svg" xmlns:xlink="http://www.w3.org/1999/xlink" width="47.5" height="28.5" viewBox="0,0,47.5,28.5"><g transform="translate(-194.75,-166.75)"><g data-paper-data="{&quot;isPaintingLayer&quot;:true}" fill-rule="nonzero" stroke-linecap="butt" stroke-miterlimit="10" stroke-dasharray="" stroke-dashoffset="0" style="mix-blend-mode: normal"><g data-paper-data="{&quot;index&quot;:null}" stroke="#000000" stroke-width="0.5" stroke-linejoin="miter"><path d="M212,178h30v9c0,4.41828 -3.58172,8 -8,8h-31c-4.41828,0 -8,-3.58172 -8,-8v-12c0,-4.41828 3.58172,-8 8,-8h9zM234,191c2.20914,0 4,-1.79086 4,-4v-5h-30v-11h-5c-2.20914,0 -4,1.79086 -4,4v12c0,2.20914 1.79086,4 4,4z" fill="#000000"/><path d="M240,187c0,3.31371 -2.68629,6 -6,6h-31c-3.31371,0 -6,-2.68629 -6,-6v-12c0,-3.31371 2.68629,-6 6,-6h7v11h30z" fill="#9a00a8"/></g><path d="M237,183v5h-5v-5z" data-paper-data="{&quot;index&quot;:null}" fill="#ffffff" stroke="#ffffff" stroke-width="2" stroke-linejoin="round"/><path d="M237,183v3h-3v-3z" data-paper-data="{&quot;index&quot;:null}" fill="#000000" stroke="none" stroke-width="1" stroke-linejoin="miter"/><path d="M227,180v13h-5v-13z" data-paper-data="{&quot;index&quot;:null}" fill="#710082" stroke="none" stroke-width="1" stroke-linejoin="miter"/><path d="M217,180v13h-5v-13z" data-paper-data="{&quot;index&quot;:null}" fill="#710082" stroke="none" stroke-width="1" stroke-linejoin="miter"/><path d="M207,193h-5l3,-15h5z" data-paper-data="{&quot;index&quot;:null}" fill="#710082" stroke="none" stroke-width="1" stroke-linejoin="miter"/></g></g></svg>