<svg version="1.1" xmlns="http://www.w3.org/2000/svg" xmlns:xlink="http://www.w3.org/1999/xlink" width="62" height="62.00002" viewBox="0,0,62,62.00002"><g transform="translate(-209,-149)"><g data-paper-data="{&quot;isPaintingLayer&quot;:true}" fill-rule="nonzero" stroke="none" stroke-linecap="butt" stroke-miterlimit="10" stroke-dasharray="" stroke-dashoffset="0" style="mix-blend-mode: normal"><path d="M209,211.00002v-62h62v62z" data-paper-data="{&quot;index&quot;:null}" fill="#39b54a" stroke-width="0" stroke-linejoin="round"/><path d="M209,211.00002v-53h53v53z" data-paper-data="{&quot;index&quot;:null}" fill="#3ac54d" stroke-width="1" stroke-linejoin="miter"/><path d="M264.49183,170.98516l-4.38202,4.51004l-4.84518,-12.16317l-8.72326,10.14918l-3.66921,-15.47668l-9.22192,20.36584l-7.93777,-9.33262l-16.71247,11.88213v-31.91988h62v31.91988z" data-paper-data="{&quot;index&quot;:null}" fill="#00ffff" stroke-width="0" stroke-linejoin="round"/><path d="M234.64489,153.33829l-8.93242,15.69946l-16.71247,11.88213v-31.91988h30.3369z" data-paper-data="{&quot;index&quot;:null}" fill="#b8ffff" stroke-width="0" stroke-linejoin="round"/><path d="M264.49183,166.51843l-4.38202,3.59373l-4.84518,-9.69197l-8.72326,8.08717l-3.66921,-12.33228l-9.22192,16.22811l-7.93777,-7.43652l-16.71247,9.46804v-25.43471h62v25.43471z" data-paper-data="{&quot;index&quot;:null}" fill="#a3ffff" stroke-width="0" stroke-linejoin="round"/><path d="M258.27849,177.62985l-3.96322,-11.98941l-6.44782,9.56087l-2.95861,-2.70863l-2.43264,-11.51231l-9.04288,18.89686l-7.85727,-10.42843l-7.57605,5.23073v-16.95549h44v15.85163z" data-paper-data="{&quot;index&quot;:null}" fill="#b8ffff" stroke-width="1" stroke-linejoin="miter"/><path d="M264.49183,162.90704l-4.38202,2.85289l-4.84518,-7.69399l-8.72326,6.42001l-4.35912,-5.65054l-8.53201,8.74325l-7.93777,-5.90349l-16.71247,7.51622v-20.19139h62v20.19139z" data-paper-data="{&quot;index&quot;:null}" fill="#ffffff" stroke-width="0" stroke-linejoin="round"/></g></g></svg>