<svg version="1.1" xmlns="http://www.w3.org/2000/svg" xmlns:xlink="http://www.w3.org/1999/xlink" width="63.75" height="63.74998" viewBox="0,0,63.75,63.74998"><g transform="translate(-208.125,-131.16672)"><g data-paper-data="{&quot;isPaintingLayer&quot;:true}" fill-rule="nonzero" stroke-linecap="butt" stroke-miterlimit="10" stroke-dasharray="" stroke-dashoffset="0" style="mix-blend-mode: normal"><g><path d="M228.05,156.01114v15.59475l-17.925,-7.78742z" fill="none" stroke="#000000" stroke-width="4" stroke-linejoin="round"/><path d="M228.05,156.01114v15.59475l-17.925,-7.78742z" fill="#b3b3b3" stroke="none" stroke-width="1" stroke-linejoin="miter"/></g><g><path d="M232.96941,174.9917h15.59475l-7.78742,17.925z" fill="none" stroke="#000000" stroke-width="4" stroke-linejoin="round"/><path d="M232.96941,174.9917h15.59475l-7.78742,17.925z" fill="#b3b3b3" stroke="none" stroke-width="1" stroke-linejoin="miter"/></g><g><path d="M251.95,170.07226v-15.59475l17.925,7.78742z" fill="none" stroke="#000000" stroke-width="4" stroke-linejoin="round"/><path d="M251.95,170.07226v-15.59475l17.925,7.78742z" fill="#b3b3b3" stroke="none" stroke-width="1" stroke-linejoin="miter"/></g><g><path d="M247.03058,151.09172h-15.59475l7.78742,-17.925z" fill="none" stroke="#000000" stroke-width="4" stroke-linejoin="round"/><path d="M247.03058,151.09172h-15.59475l7.78742,-17.925z" fill="#b3b3b3" stroke="none" stroke-width="1" stroke-linejoin="miter"/></g><path d="M247.96666,178.97505h-15.93333c-4.39987,0 -7.96667,-3.5668 -7.96667,-7.96667v-15.93333c0,-4.39987 3.5668,-7.96667 7.96667,-7.96667h15.93333c4.39987,0 7.96667,3.5668 7.96667,7.96667v15.93333c0,4.39987 -3.5668,7.96667 -7.96667,7.96667z" fill="#b4004c" stroke="#000000" stroke-width="2" stroke-linejoin="miter"/></g></g></svg>