<svg version="1.1" xmlns="http://www.w3.org/2000/svg" xmlns:xlink="http://www.w3.org/1999/xlink" width="271.93454" height="97.4224" viewBox="0,0,271.93454,97.4224"><g transform="translate(-106.40162,-133.17042)"><g data-paper-data="{&quot;isPaintingLayer&quot;:true}" fill-rule="nonzero" stroke-linecap="butt" stroke-linejoin="miter" stroke-miterlimit="10" stroke-dasharray="" stroke-dashoffset="0" style="mix-blend-mode: normal"><text transform="translate(108.57104,218.73458) scale(0.72314,0.79055)" font-size="40" xml:space="preserve" fill="#000000" fill-rule="nonzero" stroke="#ffffff" stroke-width="6" stroke-linecap="butt" stroke-linejoin="miter" stroke-miterlimit="10" stroke-dasharray="" stroke-dashoffset="0" font-family="Sans Serif" font-weight="normal" text-anchor="start" style="mix-blend-mode: normal"><tspan x="0" dy="0">FLOATING ISLANDS</tspan></text><path d="M335.2736,166.24042c3.5613,1.15332 7.26066,1.82593 11,2c3.53,0 5,-1 5,-2.8c0,-1.8 -1.43,-2.61 -6,-2.61c-2.22,0 -6.59,0.13 -9.59,0.26l2.48,-27.92h30.92l-1.44,15.78h-13.17l-0.19,2.55c8.09,0.39 16.44,4 16.44,13.57c0,10.63 -10.31,16 -22.12,16c-4.94404,-0.0244 -9.85248,-0.83797 -14.54,-2.41z" fill="none" stroke="#ffffff" stroke-width="4"/><path d="M335.2736,166.24042c3.5613,1.15332 7.26066,1.82593 11,2c3.53,0 5,-1 5,-2.8c0,-1.8 -1.43,-2.61 -6,-2.61c-2.22,0 -6.59,0.13 -9.59,0.26l2.48,-27.92h30.92l-1.44,15.78h-13.17l-0.19,2.55c8.09,0.39 16.44,4 16.44,13.57c0,10.63 -10.31,16 -22.12,16c-4.94404,-0.0244 -9.85248,-0.83797 -14.54,-2.41z" fill="#000000" stroke="none" stroke-width="1"/><path d="M109.5786,135.55498h19.44v30.46h14.61v16.77h-34z" fill="none" stroke="#ffffff" stroke-width="4"/><path d="M148.70859,135.55498h34v15.78h-14.56v2.55h11.74v11.22h-11.74v2.67h15.46v15h-34.9z" fill="none" stroke="#ffffff" stroke-width="4"/><path d="M185.95859,135.55498h21l7,25h0.13l7.44,-25h19l-18.07,47.23h-18.43z" fill="none" stroke="#ffffff" stroke-width="4"/><path d="M243.7486,135.55498h34v15.78h-14.56v2.55h11.74v11.22h-11.74v2.67h15.46v15h-34.9z" fill="none" stroke="#ffffff" stroke-width="4"/><path d="M283.4786,135.55498h19.44v30.46h14.61v16.77h-34.05z" fill="none" stroke="#ffffff" stroke-width="4"/><path d="M109.5786,135.55498h19.44v30.46h14.61v16.77h-34z" fill="#000000" stroke="none" stroke-width="1"/><path d="M148.70859,135.55498h34v15.78h-14.56v2.55h11.74v11.22h-11.74v2.67h15.46v15h-34.9z" fill="#000000" stroke="none" stroke-width="1"/><path d="M185.95859,135.55498h21l7,25h0.13l7.44,-25h19l-18.07,47.23h-18.43z" fill="#000000" stroke="none" stroke-width="1"/><path d="M243.7486,135.55498h34v15.78h-14.56v2.55h11.74v11.22h-11.74v2.67h15.46v15h-34.9z" fill="#000000" stroke="none" stroke-width="1"/><path d="M283.4786,135.55498h19.44v30.46h14.61v16.77h-34.05z" fill="#000000" stroke="none" stroke-width="1"/><text transform="translate(108.57104,218.73458) scale(0.72314,0.79055)" font-size="40" xml:space="preserve" fill="#000000" fill-rule="nonzero" stroke="#000000" stroke-width="3" stroke-linecap="butt" stroke-linejoin="miter" stroke-miterlimit="10" stroke-dasharray="" stroke-dashoffset="0" font-family="Sans Serif" font-weight="normal" text-anchor="start" style="mix-blend-mode: normal"><tspan x="0" dy="0">FLOATING ISLANDS</tspan></text></g></g></svg>