<svg version="1.1" xmlns="http://www.w3.org/2000/svg" xmlns:xlink="http://www.w3.org/1999/xlink" width="32" height="64.00005" viewBox="0,0,32,64.00005"><g transform="translate(-239,-147)"><g data-paper-data="{&quot;isPaintingLayer&quot;:true}" fill-rule="nonzero" stroke-linecap="butt" stroke-miterlimit="10" stroke-dasharray="" stroke-dashoffset="0" style="mix-blend-mode: normal"><path d="M265.32258,157.00004l-20.64516,26" data-paper-data="{&quot;index&quot;:null}" fill="none" stroke="#000000" stroke-width="8" stroke-linejoin="round"/><path d="M265.32258,157.00004l-20.64516,26" data-paper-data="{&quot;index&quot;:null}" fill="none" stroke="#000000" stroke-width="8" stroke-linejoin="round"/><path d="M265.32258,183.00005l-20.64516,-26" data-paper-data="{&quot;index&quot;:null}" fill="none" stroke="#000000" stroke-width="8" stroke-linejoin="round"/><path d="M265.32258,183.00005l-20.64516,-26" data-paper-data="{&quot;index&quot;:null}" fill="none" stroke="#000000" stroke-width="8" stroke-linejoin="round"/><path d="M265.32258,157.00004l-20.64516,26" data-paper-data="{&quot;index&quot;:null}" fill="none" stroke="#b5b5b5" stroke-width="4" stroke-linejoin="round"/><path d="M265.32258,157.00004l-20.64516,26" data-paper-data="{&quot;index&quot;:null}" fill="none" stroke="#b5b5b5" stroke-width="4" stroke-linejoin="round"/><path d="M265.32258,183.00005l-20.64516,-26" data-paper-data="{&quot;index&quot;:null}" fill="none" stroke="#b5b5b5" stroke-width="4" stroke-linejoin="round"/><path d="M265.32258,183.00005l-20.64516,-26" data-paper-data="{&quot;index&quot;:null}" fill="none" stroke="#b5b5b5" stroke-width="4" stroke-linejoin="round"/><path d="M242.61291,178.00005h24.77419" data-paper-data="{&quot;index&quot;:null}" fill="none" stroke="#000000" stroke-width="2" stroke-linejoin="miter"/><path d="M242.61291,178.00005h24.77419" data-paper-data="{&quot;index&quot;:null}" fill="none" stroke="#000000" stroke-width="2" stroke-linejoin="miter"/><path d="M243.04129,162h23.91742" data-paper-data="{&quot;index&quot;:null}" fill="none" stroke="#000000" stroke-width="2" stroke-linejoin="miter"/><path d="M243.04129,162h23.91742" data-paper-data="{&quot;index&quot;:null}" fill="none" stroke="#000000" stroke-width="2" stroke-linejoin="miter"/><g data-paper-data="{&quot;index&quot;:null}"><path d="M241.06451,161v-12h27.87097v12z" fill="none" stroke="#000000" stroke-width="4" stroke-linejoin="round"/><path d="M241.06451,161v-12h27.87097v12z" fill="#f59c18" stroke="none" stroke-width="1" stroke-linejoin="miter"/></g><g data-paper-data="{&quot;index&quot;:null}"><path d="M241.06451,161v-12h27.87097v12z" fill="none" stroke="#000000" stroke-width="4" stroke-linejoin="round"/><path d="M241.06451,161v-12h27.87097v12z" fill="#f59c18" stroke="none" stroke-width="1" stroke-linejoin="miter"/></g><path d="M241.06451,161v-4h27.87097v4z" data-paper-data="{&quot;index&quot;:null}" fill="#d68815" stroke="none" stroke-width="1" stroke-linejoin="miter"/><path d="M241.06451,161v-4h27.87097v4z" data-paper-data="{&quot;index&quot;:null}" fill="#d68815" stroke="none" stroke-width="1" stroke-linejoin="miter"/><path d="M239,211.00005v-32h32v32z" data-paper-data="{&quot;index&quot;:null}" fill="#39b54a" stroke="none" stroke-width="1" stroke-linejoin="miter"/><path d="M239,211.00005v-32h32v32z" data-paper-data="{&quot;index&quot;:null}" fill="#39b54a" stroke="none" stroke-width="1" stroke-linejoin="miter"/><path d="M248,202.00005v-14h14v14z" data-paper-data="{&quot;index&quot;:null}" fill="#3ac54d" stroke="none" stroke-width="1" stroke-linejoin="miter"/><path d="M248,202.00005v-14h14v14z" data-paper-data="{&quot;index&quot;:null}" fill="#3ac54d" stroke="none" stroke-width="1" stroke-linejoin="miter"/></g></g></svg>