<svg version="1.1" xmlns="http://www.w3.org/2000/svg" xmlns:xlink="http://www.w3.org/1999/xlink" width="64" height="79.67917" viewBox="0,0,64,79.67917"><g transform="translate(-208,-132.8)"><g data-paper-data="{&quot;isPaintingLayer&quot;:true}" fill-rule="nonzero" stroke-linecap="butt" stroke-miterlimit="10" stroke-dasharray="" stroke-dashoffset="0" style="mix-blend-mode: normal"><g><path d="M211.00561,209.74773l13.99439,-74.94773l14.49373,75.69273" fill="none" stroke="#000000" stroke-width="4" stroke-linejoin="round"/><path d="M225,134.8l14.49365,75.69272c-0.16139,-0.00957 -0.30457,-0.01132 -0.42421,-0.00426c-0.61182,0.03607 -0.99655,0.78644 -1.59638,0.91222c-3.38804,0.71043 -5.79728,1.16283 -9.39902,1.06531c-3.1245,-0.0846 -7.29165,-0.86911 -11.18019,-0.89673c-1.62779,-1.14806 -3.61365,-1.82237 -5.757,-1.82237c-0.04382,0 -0.08757,0.00028 -0.13125,0.00084z" fill="#b3b3b3" stroke="none" stroke-width="1" stroke-linejoin="miter"/></g><g><path d="M240.83309,210.67167l14.16691,-75.87167l14.4846,75.64504" fill="none" stroke="#000000" stroke-width="4" stroke-linejoin="round"/><path d="M255,134.8l14.48452,75.64504c-4.66456,0.03814 -9.60829,1.66419 -14.10047,1.77375c-3.04778,0.07434 -6.09828,0.07434 -9.14607,0c-0.61811,-0.01508 -1.47396,0.24823 -1.83771,-0.25174c-0.35577,-0.489 -2.09745,-1.02087 -3.56718,-1.29539z" fill="#b3b3b3" stroke="none" stroke-width="1" stroke-linejoin="miter"/></g><g><path d="M240,207h-30z" fill="none" stroke="#000000" stroke-width="4" stroke-linejoin="round"/><path d="M240,207h-30z" fill="#b3b3b3" stroke="none" stroke-width="1" stroke-linejoin="miter"/></g><g><path d="M270,207h-30z" fill="none" stroke="#000000" stroke-width="4" stroke-linejoin="round"/><path d="M270,207h-30z" fill="#b3b3b3" stroke="none" stroke-width="1" stroke-linejoin="miter"/></g></g></g></svg>