<svg version="1.1" xmlns="http://www.w3.org/2000/svg" xmlns:xlink="http://www.w3.org/1999/xlink" width="66" height="203.41666" viewBox="0,0,66,203.41666"><g transform="translate(-207,-27.58338)"><g data-paper-data="{&quot;isPaintingLayer&quot;:true}" fill-rule="nonzero" stroke-linecap="butt" stroke-miterlimit="10" stroke-dasharray="" stroke-dashoffset="0" style="mix-blend-mode: normal"><path d="M226.23256,153.00004v-125.41666h27.53488v125.41667z" fill="#000000" stroke="none" stroke-width="NaN" stroke-linejoin="miter"/><path d="M221.5,141.50002v-13h37v13z" fill="#000000" stroke="none" stroke-width="0" stroke-linejoin="miter"/><path d="M221.5,121.50003v-13h37v13z" fill="#000000" stroke="none" stroke-width="0" stroke-linejoin="miter"/><path d="M221.5,96.50003v-13h37v13z" fill="#000000" stroke="none" stroke-width="0" stroke-linejoin="miter"/><path d="M221.5,76.50003v-13h37v13z" fill="#000000" stroke="none" stroke-width="0" stroke-linejoin="miter"/><path d="M221.5,51.50003v-13h37v13z" fill="#000000" stroke="none" stroke-width="0" stroke-linejoin="miter"/><g><path d="M209,211.00004v-62h62v62z" fill="none" stroke="#000000" stroke-width="4" stroke-linejoin="round"/><path d="M209,211.00004v-62h62v62z" fill="#39b54a" stroke="none" stroke-width="1" stroke-linejoin="miter"/></g><path d="M218,202.00004v-44h44v44z" fill="#3ac54d" stroke="none" stroke-width="1" stroke-linejoin="miter"/><path d="M262,202.00004h-44v-23l22,7l22,-7z" fill="#ffffff" stroke="none" stroke-width="1" stroke-linejoin="miter"/><path d="M224,202.00004v-9h9v9z" fill="#000000" stroke="none" stroke-width="1" stroke-linejoin="miter"/><path d="M247,202.00004v-9h9v9z" fill="#000000" stroke="none" stroke-width="1" stroke-linejoin="miter"/><g><path d="M254.09,213.00004h16l-8,16z" fill="none" stroke="#000000" stroke-width="4" stroke-linejoin="round"/><path d="M254.09,213.00004h16l-8,16z" fill="#b3b3b3" stroke="none" stroke-width="1" stroke-linejoin="miter"/></g><g><path d="M210.09,213.00004h16l-8,16z" fill="none" stroke="#000000" stroke-width="4" stroke-linejoin="round"/><path d="M210.09,213.00004h16l-8,16z" fill="#b3b3b3" stroke="none" stroke-width="1" stroke-linejoin="miter"/></g><g><path d="M232.09,213.00004h16l-8,16z" fill="none" stroke="#000000" stroke-width="4" stroke-linejoin="round"/><path d="M232.09,213.00004h16l-8,16z" fill="#b3b3b3" stroke="none" stroke-width="1" stroke-linejoin="miter"/></g></g></g></svg>