<svg version="1.1" xmlns="http://www.w3.org/2000/svg" xmlns:xlink="http://www.w3.org/1999/xlink" width="51.91665" height="52.08331" viewBox="0,0,51.91665,52.08331"><g transform="translate(-213.54167,-153.95834)"><g stroke-miterlimit="10"><g><path d="M242.13844,162.53835h-5.72174l2.86087,-6.58z" fill="none" stroke="#000000" stroke-width="4" stroke-linejoin="round"/><path d="M242.13844,162.53835h-5.72174l2.86087,-6.58z" fill="#b3b3b3" stroke="none" stroke-width="1" stroke-linejoin="miter"/></g><g><path d="M237.86156,197.46166h5.72173l-2.86086,6.58z" fill="none" stroke="#000000" stroke-width="4" stroke-linejoin="round"/><path d="M237.86156,197.46166h5.72173l-2.86086,6.58z" fill="#b3b3b3" stroke="none" stroke-width="1" stroke-linejoin="miter"/></g><g><path d="M256.87832,182.38844v-5.72174l6.58,2.86087z" fill="none" stroke="#000000" stroke-width="4" stroke-linejoin="round"/><path d="M256.87832,182.38844v-5.72174l6.58,2.86087z" fill="#b3b3b3" stroke="none" stroke-width="1" stroke-linejoin="miter"/></g><g><path d="M222.12168,178.11156v5.72173l-6.58,-2.86086z" fill="none" stroke="#000000" stroke-width="4" stroke-linejoin="round"/><path d="M222.12168,178.11156v5.72173l-6.58,-2.86086z" fill="#b3b3b3" stroke="none" stroke-width="1" stroke-linejoin="miter"/></g><g><path d="M253.38377,168.80711l-4.04588,-4.04588l6.67571,-2.62982z" fill="none" stroke="#000000" stroke-width="4" stroke-linejoin="round"/><path d="M253.38377,168.80711l-4.04588,-4.04588l6.67571,-2.62982z" fill="#b3b3b3" stroke="none" stroke-width="1" stroke-linejoin="miter"/></g><g><path d="M225.7829,190.27623l4.04588,4.04587l-6.6757,2.62982z" fill="none" stroke="#000000" stroke-width="4" stroke-linejoin="round"/><path d="M225.7829,190.27623l4.04588,4.04587l-6.6757,2.62982z" fill="#b3b3b3" stroke="none" stroke-width="1" stroke-linejoin="miter"/></g><g><path d="M249.77031,193.18258l4.04588,-4.04588l2.62983,6.6757z" fill="none" stroke="#000000" stroke-width="4" stroke-linejoin="round"/><path d="M249.77031,193.18258l4.04588,-4.04588l2.62983,6.6757z" fill="#b3b3b3" stroke="none" stroke-width="1" stroke-linejoin="miter"/></g><g><path d="M228.21786,165.58171l-4.04588,4.04588l-2.62983,-6.6757z" fill="none" stroke="#000000" stroke-width="4" stroke-linejoin="round"/><path d="M228.21786,165.58171l-4.04588,4.04588l-2.62983,-6.6757z" fill="#b3b3b3" stroke="none" stroke-width="1" stroke-linejoin="miter"/></g><g><path d="M249.01314,164.67908l-5.31363,-2.12218l5.09733,-5.04958z" fill="none" stroke="#000000" stroke-width="4" stroke-linejoin="round"/><path d="M249.01314,164.67908l-5.31363,-2.12218l5.09733,-5.04958z" fill="#b3b3b3" stroke="none" stroke-width="1" stroke-linejoin="miter"/></g><g><path d="M232.15015,195.37038l5.31363,2.12218l-5.09732,5.04958z" fill="none" stroke="#000000" stroke-width="4" stroke-linejoin="round"/><path d="M232.15015,195.37038l5.31363,2.12218l-5.09732,5.04958z" fill="#b3b3b3" stroke="none" stroke-width="1" stroke-linejoin="miter"/></g><g><path d="M255.33932,188.58033l2.12218,-5.31363l5.04958,5.09733z" fill="none" stroke="#000000" stroke-width="4" stroke-linejoin="round"/><path d="M255.33932,188.58033l2.12218,-5.31363l5.04958,5.09733z" fill="#b3b3b3" stroke="none" stroke-width="1" stroke-linejoin="miter"/></g><g><path d="M224.64803,171.71734l-2.12218,5.31363l-5.04959,-5.09732z" fill="none" stroke="#000000" stroke-width="4" stroke-linejoin="round"/><path d="M224.64803,171.71734l-2.12218,5.31363l-5.04959,-5.09732z" fill="#b3b3b3" stroke="none" stroke-width="1" stroke-linejoin="miter"/></g><g><path d="M257.13131,174.67159l-2.25669,-5.25791l7.17494,0.03376z" fill="none" stroke="#000000" stroke-width="4" stroke-linejoin="round"/><path d="M257.13131,174.67159l-2.25669,-5.25791l7.17494,0.03376z" fill="#b3b3b3" stroke="none" stroke-width="1" stroke-linejoin="miter"/></g><g><path d="M223.53626,184.37229l2.2567,5.2579l-7.17495,-0.03375z" fill="none" stroke="#000000" stroke-width="4" stroke-linejoin="round"/><path d="M223.53626,184.37229l2.2567,5.2579l-7.17495,-0.03375z" fill="#b3b3b3" stroke="none" stroke-width="1" stroke-linejoin="miter"/></g><g><path d="M244.73477,195.96822l5.25791,-2.25669l-0.03376,7.17495z" fill="none" stroke="#000000" stroke-width="4" stroke-linejoin="round"/><path d="M244.73477,195.96822l5.25791,-2.25669l-0.03376,7.17495z" fill="#b3b3b3" stroke="none" stroke-width="1" stroke-linejoin="miter"/></g><g><path d="M234.95668,162.34226l-5.25791,2.25669l0.03376,-7.17494z" fill="none" stroke="#000000" stroke-width="4" stroke-linejoin="round"/><path d="M234.95668,162.34226l-5.25791,2.25669l0.03376,-7.17494z" fill="#b3b3b3" stroke="none" stroke-width="1" stroke-linejoin="miter"/></g><path d="M222.66669,179.75c0,-9.34283 7.57386,-16.91666 16.91666,-16.91666c9.34283,0 16.91667,7.57386 16.91667,16.91666c0,9.34283 -7.57385,16.91666 -16.91667,16.91666c-9.34283,0 -16.91666,-7.57386 -16.91666,-16.91666z" fill="#0008ff" stroke="#000000" stroke-width="2" stroke-linejoin="miter"/><path d="M250.32476,185.23877c-2.91679,5.67499 -9.63182,8.0297 -15.56722,4.99753c-5.93539,-3.03216 -8.07292,-9.58367 -5.02358,-15.51657c3.04934,-5.9329 9.62676,-8.09624 15.59326,-5.04818c5.9665,3.04806 7.91432,9.89222 4.99753,15.56722zM238.81155,186.64686l0.04908,2.92262l4.06983,-0.1911l0.24256,-4.30056l4.05859,-0.83308l-0.95264,-4.705l2.17913,-1.66365l-3.08101,-2.26189l-0.12384,-3.67816c0,0 -2.63862,0.76681 -3.28927,0.56497c-0.55016,-0.17067 -3.33605,-1.09515 -3.33605,-1.09515l-1.84714,3.51535l-3.01402,-1.10867l0.347,4.56428l-3.4299,-0.42547l0.43205,4.20211l4.06421,0.7212l-0.97637,4.03317z" fill="#8fffff" stroke="#000000" stroke-width="0" stroke-linejoin="miter"/><path d="M237.522,165.95262c7.6613,-1.32195 14.87595,3.4868 16.27652,11.48611c1.40057,7.99931 -3.40824,14.8827 -11.41772,16.26473c-8.00948,1.38202 -14.93699,-3.43308 -16.3449,-11.47431c-1.40791,-8.04123 3.8248,-14.95457 11.4861,-16.27652zM247.33312,176.12494l2.80831,-2.19045l-3.16973,-3.82064l-4.36313,2.91684l-3.78626,-3.33905l-3.88048,4.37653l-3.21666,-0.90104l0.05754,4.65671l-3.48879,2.81712c0,0 2.68074,2.00573 2.96132,2.78691c0.23725,0.66054 1.37998,4.04954 1.37998,4.04954l4.77534,-0.7796l1.13074,3.74605l4.18755,-3.68395l2.10053,3.6499l3.77273,-3.5012l-2.27775,-4.48402l4.64088,-2.00667z" fill="#c7ffff" stroke="#000000" stroke-width="0" stroke-linejoin="miter"/><path d="M223.08334,180c0,-9.33656 7.16404,-16.89264 16.91666,-16.91666c9.75262,-0.02402 16.91667,7.07246 16.91667,16.83333c0,9.76086 -7.11294,16.97585 -16.91667,17c-9.80373,0.02415 -16.91666,-7.5801 -16.91666,-16.91666zM237.12498,170.46641l-2.01879,-3.77072l-5.16872,2.97098l2.56093,5.75908l-4.72468,3.79894l4.38692,5.48596l-1.72316,3.62269l5.52264,0.88281l2.62146,4.70399c0,0 2.92104,-2.7629 3.90282,-2.93543c0.83014,-0.14588 5.07413,-0.8062 5.07413,-0.8062l0.05252,-5.81048l4.66407,-0.5732l-3.5046,-5.70793l4.74833,-1.74053l-3.37304,-5.17971l-5.77164,1.77993l-1.42709,-5.90193z" fill="#ffffff" stroke="#000000" stroke-width="0" stroke-linejoin="miter"/><g><path d="M236.16667,183.83333v-7.66667h7.66667v7.66667z" fill="#ffffff" stroke="#ffffff" stroke-width="2" stroke-linejoin="round"/><path d="M237.75,182.28889v-4.6h4.6v4.6z" fill="#000000" stroke="none" stroke-width="1" stroke-linejoin="miter"/></g><path d="M223.08334,180c0,-9.34283 7.57386,-16.91666 16.91666,-16.91666c9.34283,0 16.91667,7.57386 16.91667,16.91666c0,9.34283 -7.57385,16.91666 -16.91667,16.91666c-9.34283,0 -16.91666,-7.57386 -16.91666,-16.91666z" fill="none" stroke="#000000" stroke-width="2" stroke-linejoin="miter"/></g></g></svg>