<svg version="1.1" xmlns="http://www.w3.org/2000/svg" xmlns:xlink="http://www.w3.org/1999/xlink" width="267.69504" height="95.30001" viewBox="0,0,267.69504,95.30001"><g transform="translate(-104.7047,-123.61725)"><g data-paper-data="{&quot;isPaintingLayer&quot;:true}" fill-rule="nonzero" stroke-linecap="butt" stroke-linejoin="miter" stroke-miterlimit="10" stroke-dasharray="" stroke-dashoffset="0" style="mix-blend-mode: normal"><path d="M334.92681,158.94725c3.40499,1.07717 6.93346,1.71566 10.5,1.9c3.07,0 4,-0.85 4,-2.29c0,-1.44 -1,-2.28 -3.91,-2.28h-4.8v-11.35h4.76c2.93,0 3.91,-0.78 3.91,-2.28c0,-1.5 -1,-2.29 -4,-2.29c-3.11636,0.14231 -6.20314,0.66965 -9.19,1.57v-13.44c3.58,-1.89 9.39,-2.87 14.15,-2.87c10.77,0 19.05,5.15 19.05,13.31c0,5.28 -3.46,8.67 -8.48,9.65v0.13c5.28,1.37 9,4.83 9,10.9c0,9.59 -9.33,14.67 -21.26,14.67c-4.68229,0.05197 -9.33913,-0.69542 -13.77,-2.21z" fill="none" stroke="#ffffff" stroke-width="4"/><path d="M334.92681,158.94725c3.40499,1.07717 6.93346,1.71566 10.5,1.9c3.07,0 4,-0.85 4,-2.29c0,-1.44 -1,-2.28 -3.91,-2.28h-4.8v-11.35h4.76c2.93,0 3.91,-0.78 3.91,-2.28c0,-1.5 -1,-2.29 -4,-2.29c-3.11636,0.14231 -6.20314,0.66965 -9.19,1.57v-13.44c3.58,-1.89 9.39,-2.87 14.15,-2.87c10.77,0 19.05,5.15 19.05,13.31c0,5.28 -3.46,8.67 -8.48,9.65v0.13c5.28,1.37 9,4.83 9,10.9c0,9.59 -9.33,14.67 -21.26,14.67c-4.68229,0.05197 -9.33913,-0.69542 -13.77,-2.21z" fill="#000000" stroke="none" stroke-width="1"/><path d="M106.70682,126.36681h19.44v30.46h14.61v16.77h-34z" fill="none" stroke="#ffffff" stroke-width="4"/><path d="M145.83682,126.36681h34v15.78h-14.56v2.55h11.74v11.22h-11.74v2.67h15.46v15h-34.9z" fill="none" stroke="#ffffff" stroke-width="4"/><path d="M183.08682,126.36681h21l7,25h0.13l7.44,-25h19l-18.07,47.23h-18.43z" fill="none" stroke="#ffffff" stroke-width="4"/><path d="M240.87682,126.36681h34v15.78h-14.56v2.55h11.74v11.22h-11.74v2.67h15.46v15h-34.9z" fill="none" stroke="#ffffff" stroke-width="4"/><path d="M280.60681,126.36681h19.44v30.46h14.61v16.77h-34.05z" fill="none" stroke="#ffffff" stroke-width="4"/><path d="M106.70682,126.36681h19.44v30.46h14.61v16.77h-34z" fill="#000000" stroke="none" stroke-width="1"/><path d="M145.83682,126.36681h34v15.78h-14.56v2.55h11.74v11.22h-11.74v2.67h15.46v15h-34.9z" fill="#000000" stroke="none" stroke-width="1"/><path d="M183.08682,126.36681h21l7,25h0.13l7.44,-25h19l-18.07,47.23h-18.43z" fill="#000000" stroke="none" stroke-width="1"/><path d="M240.87682,126.36681h34v15.78h-14.56v2.55h11.74v11.22h-11.74v2.67h15.46v15h-34.9z" fill="#000000" stroke="none" stroke-width="1"/><path d="M280.60681,126.36681h19.44v30.46h14.61v16.77h-34.05z" fill="#000000" stroke="none" stroke-width="1"/><path d="M107.21682,191.19717h8.08336v25.47h-8.08336z" fill="none" stroke="#ffffff" stroke-width="4"/><path d="M107.21682,191.19717h8.08336v25.47h-8.08336z" fill="#000000" stroke="none" stroke-width="1"/><path d="M139.12204,190.44717l5.7295,0.32418l2.76323,6.96154l2.49066,-7.28573h6.45951l-3.95506,10.89588v15.32412h-8.61944l0.21227,-15.47249z" fill="none" stroke="#ffffff" stroke-width="4"/><path d="M138.84551,190.44717h6.00602l3.04172,8.1046l1.93565,-8.1046h7.28907l-4.50811,10.89588v15.32412h-8.61944v-15.32412z" fill="#000000" stroke="none" stroke-width="1"/><path d="M217.90216,189.55039c5.95398,0 10.59785,5.73 10.59785,13.11c0,7.38 -4.64387,13.12 -10.59785,13.12c-5.95398,0 -10.60399,-5.73 -10.60399,-13.12c0,-7.39 4.65001,-13.11 10.60399,-13.11zM217.90216,206.78039c1.62382,0 2.93394,-1.76 2.93394,-3.94c0,-2.18 -1.31012,-3.94 -2.93394,-3.94c-1.62382,0 -2.94009,1.76 -2.94009,3.94c0,2.18 1.31012,3.94 2.94009,3.94z" fill="none" stroke="#ffffff" stroke-width="4"/><path d="M217.90216,189.55039c5.95398,0 10.59785,5.73 10.59785,13.11c0,7.38 -4.64387,13.12 -10.59785,13.12c-5.95398,0 -10.60399,-5.73 -10.60399,-13.12c0,-7.39 4.65001,-13.11 10.60399,-13.11zM217.90216,206.78039c1.62382,0 2.93394,-1.76 2.93394,-3.94c0,-2.18 -1.31012,-3.94 -2.93394,-3.94c-1.62382,0 -2.94009,1.76 -2.94009,3.94c0,2.18 1.31012,3.94 2.94009,3.94z" fill="#000000" stroke="none" stroke-width="1"/><path d="M230.4349,204.94726v-13.89h8.50257v13.19c0,2.39 0.62707,4.08 2.59595,4.08c1.96887,0 2.54201,-1.48 2.54201,-4v-13.27h7.64624v13.75c0,3.91 -0.79564,6.37 -1.88121,8c-1.88121,2.81 -5.30651,4.11 -8.81947,4.11c-3.62758,0 -6.82363,-1.4 -8.6509,-4c-1.02489,-1.51 -1.93516,-3.82 -1.93516,-7.97z" fill="none" stroke="#ffffff" stroke-width="4"/><path d="M230.4349,204.94726v-13.89h8.50257v13.19c0,2.39 0.62707,4.08 2.59595,4.08c1.96887,0 2.54201,-1.48 2.54201,-4v-13.27h7.64624v13.75c0,3.91 -0.79564,6.37 -1.88121,8c-1.88121,2.81 -5.30651,4.11 -8.81947,4.11c-3.62758,0 -6.82363,-1.4 -8.6509,-4c-1.02489,-1.51 -1.93516,-3.82 -1.93516,-7.97z" fill="#000000" stroke="none" stroke-width="1"/><path d="M176.7383,190.05726h9.4175l4.88492,6.4l4.70875,-6.4h9.15322v25.47h-10.09817v-12.42h-0.08008l-4.37241,6l-4.47651,-6h-0.06406v12.42h-9.07315z" fill="none" stroke="#ffffff" stroke-width="4"/><path d="M176.7383,190.05726h9.4175l4.88492,6.4l4.70875,-6.4h9.15322v25.47h-10.09817v-12.42h-0.08008l-4.37241,6l-4.47651,-6h-0.06406v12.42h-9.07315z" fill="#000000" stroke="none" stroke-width="1"/><path d="M253.54091,191.19717h7.36164l5.78231,10.87h0.05095v-10.87h7.27672v25.47h-7.36163l-5.77383,-10.87h-0.05944v10.84h-7.27672z" fill="none" stroke="#ffffff" stroke-width="4"/><path d="M253.54091,191.19717h7.36164l5.78231,10.87h0.05095v-10.87h7.27672v25.47h-7.36163l-5.77383,-10.87h-0.05944v10.84h-7.27672z" fill="#000000" stroke="none" stroke-width="1"/><path d="M281.51002,199.84717h-5.48514v-8.65h19.05363v8.65h-5.47664v16.82h-8.09185z" fill="none" stroke="#ffffff" stroke-width="4"/><path d="M281.51002,199.84717h-5.48514v-8.65h19.05363v8.65h-5.47664v16.82h-8.09185z" fill="#000000" stroke="none" stroke-width="1"/><path d="M300.0542,191.19717h7.70127l7.48899,25.47h-8.70319l-0.67928,-3.34h-4.50868l-0.7557,3.34h-8.03241zM304.55439,206.91717l-0.8491,-5.17h-0.05094l-0.84909,5.17z" fill="none" stroke="#ffffff" stroke-width="4"/><path d="M300.0542,191.19717h7.70127l7.48899,25.47h-8.70319l-0.67928,-3.34h-4.50868l-0.7557,3.34h-8.03241zM304.55439,206.91717l-0.8491,-5.17h-0.05094l-0.84909,5.17z" fill="#000000" stroke="none" stroke-width="1"/><path d="M318.64083,191.19717h8.08336v25.47h-8.08336z" fill="none" stroke="#ffffff" stroke-width="4"/><path d="M318.64083,191.19717h8.08336v25.47h-8.08336z" fill="#000000" stroke="none" stroke-width="1"/><path d="M330.38378,191.19717h7.36163l5.78232,10.87h0.05094v-10.87h7.27672v25.47h-7.36163l-5.77383,-10.87h-0.05944v10.84h-7.27672z" fill="none" stroke="#ffffff" stroke-width="4"/><path d="M330.38378,191.19717h7.36163l5.78232,10.87h0.05094v-10.87h7.27672v25.47h-7.36163l-5.77383,-10.87h-0.05944v10.84h-7.27672z" fill="#000000" stroke="none" stroke-width="1"/><path d="M354.17356,206.56038c2.23755,1.71669 4.7131,2.73985 7.25851,3c0.91536,0 1.12989,-0.42 1.12989,-0.84c0,-0.42 -0.27175,-0.71 -0.67221,-0.81c-1.06554,-0.32 -4.14772,-0.71 -6.40036,-3c-1.25442,-1.19027 -1.98995,-3.19081 -1.95229,-5.31c0,-5.1 3.41114,-8.58 8.99626,-8.58c2.68703,-0.00374 5.35226,0.67389 7.86638,2v8.34c-2.1184,-1.27859 -4.37718,-2.04287 -6.67926,-2.26c-0.88675,0 -1.1299,0.39 -1.1299,0.78c0,0.39 0.33611,0.74 0.71513,0.88c0.91536,0.31 3.96894,0.74 6.13577,2.71c1.38936,1.13832 2.23759,3.22834 2.22404,5.48c0,4.89 -3.4183,8.3 -9.2108,8.3c-2.82281,0.02039 -5.62449,-0.68115 -8.26684,-2.07z" fill="none" stroke="#ffffff" stroke-width="4"/><path d="M354.17356,206.56038c2.23755,1.71669 4.7131,2.73985 7.25851,3c0.91536,0 1.12989,-0.42 1.12989,-0.84c0,-0.42 -0.27175,-0.71 -0.67221,-0.81c-1.06554,-0.32 -4.14772,-0.71 -6.40036,-3c-1.25442,-1.19027 -1.98995,-3.19081 -1.95229,-5.31c0,-5.1 3.41114,-8.58 8.99626,-8.58c2.68703,-0.00374 5.35226,0.67389 7.86638,2v8.34c-2.1184,-1.27859 -4.37718,-2.04287 -6.67926,-2.26c-0.88675,0 -1.1299,0.39 -1.1299,0.78c0,0.39 0.33611,0.74 0.71513,0.88c0.91536,0.31 3.96894,0.74 6.13577,2.71c1.38936,1.13832 2.23759,3.22834 2.22404,5.48c0,4.89 -3.4183,8.3 -9.2108,8.3c-2.82281,0.02039 -5.62449,-0.68115 -8.26684,-2.07z" fill="#000000" stroke="none" stroke-width="1"/><path d="M130.64267,190.5504c2.07189,-0.05132 4.13345,0.44639 6.0889,1.47v9.39c-1.62906,-1.02764 -3.37605,-1.57438 -5.14442,-1.61c-2.91383,0 -4.48127,1.72 -4.48127,4.07c0,2.35 1.56744,4 4.48127,4c1.81269,-0.00764 3.60409,-0.58339 5.25829,-1.69v9c-2.01238,1.09394 -4.14177,1.62941 -6.28316,1.58c-6.91951,0.02 -11.97684,-5.48 -11.97684,-13.1c0,-7.62 5.02385,-13.11 12.05723,-13.11z" fill="none" stroke="#ffffff" stroke-width="4"/><path d="M130.64267,190.5504c2.07189,-0.05132 4.13345,0.44639 6.0889,1.47v9.39c-1.62906,-1.02764 -3.37605,-1.57438 -5.14442,-1.61c-2.91383,0 -4.48127,1.72 -4.48127,4.07c0,2.35 1.56744,4 4.48127,4c1.81269,-0.00764 3.60409,-0.58339 5.25829,-1.69v9c-2.01238,1.09394 -4.14177,1.62941 -6.28316,1.58c-6.91951,0.02 -11.97684,-5.48 -11.97684,-13.1c0,-7.62 5.02385,-13.11 12.05723,-13.11z" fill="#000000" stroke="none" stroke-width="1"/></g></g></svg>