<svg version="1.1" xmlns="http://www.w3.org/2000/svg" xmlns:xlink="http://www.w3.org/1999/xlink" width="35.33463" height="36.22626" viewBox="0,0,35.33463,36.22626"><g transform="translate(-222.3551,-143.31491)"><g data-paper-data="{&quot;isPaintingLayer&quot;:true}" fill-rule="nonzero" stroke-linecap="butt" stroke-miterlimit="10" stroke-dasharray="" stroke-dashoffset="0" style="mix-blend-mode: normal"><g><g><path d="M247.40491,154.4693l-4.91384,-2.9313l5.82791,-4.18526z" fill="none" stroke="#000000" stroke-width="4" stroke-linejoin="round"/><path d="M247.40491,154.4693l-4.91384,-2.9313l5.82791,-4.18526z" fill="#b3b3b3" stroke="none" stroke-width="1" stroke-linejoin="miter"/><path d="M254.77566,158.86624l-4.91384,-2.9313l5.82791,-4.18526z" fill="none" stroke="#000000" stroke-width="4" stroke-linejoin="round"/><path d="M254.77566,158.86624l-4.91384,-2.9313l5.82791,-4.18526z" fill="#b3b3b3" stroke="none" stroke-width="1" stroke-linejoin="miter"/></g><g><path d="M232.11183,147.10274l5.82791,4.18526l-4.91384,2.9313z" fill="none" stroke="#000000" stroke-width="4" stroke-linejoin="round"/><path d="M232.11183,147.10274l5.82791,4.18526l-4.91384,2.9313z" fill="#b3b3b3" stroke="none" stroke-width="1" stroke-linejoin="miter"/><path d="M224.74108,151.49968l5.82791,4.18526l-4.91384,2.9313z" fill="none" stroke="#000000" stroke-width="4" stroke-linejoin="round"/><path d="M224.74108,151.49968l5.82791,4.18526l-4.91384,2.9313z" fill="#b3b3b3" stroke="none" stroke-width="1" stroke-linejoin="miter"/></g><path d="M242.97835,151.68683l-5.7087,0.38616l2.41026,-6.75808z" fill="none" stroke="#000000" stroke-width="4" stroke-linejoin="round"/><path d="M242.97835,151.68683l-5.7087,0.38616l2.41026,-6.75808z" fill="#b3b3b3" stroke="none" stroke-width="1" stroke-linejoin="miter"/></g><path d="M229.4375,178.54117l-2.03274,-6.55587l25.08328,0.27923l-2.05054,6.27663z" fill="#b0ff00" stroke="#000000" stroke-width="2" stroke-linejoin="miter"/><path d="M227.41637,172.27249l-3.85387,-11.60631l16.34029,-9.3121l16.53471,9.5621l-3.84946,11.54837z" fill="#54ab00" stroke="#000000" stroke-width="2" stroke-linejoin="miter"/><g><path d="M245.25,167.44762v-5h5v5z" fill="#ffffff" stroke="#ffffff" stroke-width="2" stroke-linejoin="round"/><path d="M247.25,166.44762v-3h3v3z" fill="#000000" stroke="none" stroke-width="1" stroke-linejoin="miter"/></g></g></g></svg>