<svg version="1.1" xmlns="http://www.w3.org/2000/svg" xmlns:xlink="http://www.w3.org/1999/xlink" width="51.58937" height="50.1666" viewBox="0,0,51.58937,50.1666"><g transform="translate(-202.33032,-129.78102)"><g stroke-miterlimit="10"><g><path d="M221.47881,140.76791l15.93368,2.46149l-8.71818,13.56223" fill="none" stroke="#000000" stroke-width="8" stroke-linejoin="round"/><path d="M241.02024,151.24125l-15.93368,-2.46149l8.71818,-13.56223" fill="none" stroke="#000000" stroke-width="8" stroke-linejoin="round"/><path d="M221.47881,140.76791l15.93368,2.46149l-8.71818,13.56223" fill="none" stroke="#b5b5b5" stroke-width="4" stroke-linejoin="round"/><path d="M241.02024,151.24125l-15.93368,-2.46149l8.71818,-13.56223" fill="none" stroke="#b5b5b5" stroke-width="4" stroke-linejoin="round"/><path d="M221.19577,142.74852l14.27961,-6.43011" fill="none" stroke="#000000" stroke-width="2" stroke-linejoin="miter"/><path d="M219.87681,142.9718l-1.66512,-3.69778l16.64001,-7.49301l1.66512,3.69778z" fill="none" stroke="#000000" stroke-width="4" stroke-linejoin="round"/><path d="M219.87681,142.9718l-1.66512,-3.69778l16.64001,-7.49301l1.66512,3.69778z" fill="#00a99d" stroke="none" stroke-width="1" stroke-linejoin="miter"/><path d="M219.87681,142.9718l-0.55503,-1.2326l16.64001,-7.49301l0.55504,1.23259z" fill="#009c92" stroke="none" stroke-width="1" stroke-linejoin="miter"/></g><path d="M234.5,171.58476v-13.5316h11v13.5316z" fill="#000000" stroke="none" stroke-width="1" stroke-linejoin="miter"/><path d="M207.75,178.94762l19.27287,-7.36286l25.55757,0.47639l-2.08044,6.88647z" fill="#007169" stroke="#000000" stroke-width="2" stroke-linejoin="miter"/><g><g><path d="M247.72338,144.59641l-5.03583,0.93537l0.96803,-7.65708z" fill="none" stroke="#000000" stroke-width="4" stroke-linejoin="round"/><path d="M247.72338,144.59641l-5.03583,0.93537l0.96803,-7.65708z" fill="#b3b3b3" stroke="none" stroke-width="1" stroke-linejoin="miter"/></g><g><path d="M226.92181,167.68919l-9.93306,-11.16985l31.89591,-13.57263l1.61751,14.79002z" fill="#00a99d" stroke="#000000" stroke-width="2" stroke-linejoin="miter"/><g><path d="M242.84561,157.29599l-1.95776,-4.60078l4.60078,-1.95776l1.95776,4.60078z" fill="#ffffff" stroke="#ffffff" stroke-width="2" stroke-linejoin="round"/><path d="M244.29437,155.59272l-1.17466,-2.76047l2.76046,-1.17466l1.17466,2.76047z" fill="#000000" stroke="none" stroke-width="1" stroke-linejoin="miter"/></g></g><path d="M230.57307,164.77701l-7.09674,-9.93155l4.12727,-1.89212l5.55021,10.94299z" fill="#008279" stroke="#000000" stroke-width="0" stroke-linejoin="miter"/></g></g></g></svg>