<svg version="1.1" xmlns="http://www.w3.org/2000/svg" xmlns:xlink="http://www.w3.org/1999/xlink" width="14" height="52.0141" viewBox="0,0,14,52.0141"><g transform="translate(-233,-156.98594)"><g data-paper-data="{&quot;isPaintingLayer&quot;:true}" fill-rule="nonzero" stroke-linecap="butt" stroke-miterlimit="10" stroke-dasharray="" stroke-dashoffset="0" style="mix-blend-mode: normal"><g><path d="M235,187.00004v-18h10v18z" fill="none" stroke="#000000" stroke-width="4" stroke-linejoin="round"/><path d="M235,187.00004v-18h10v18z" fill="#ffff00" stroke="none" stroke-width="1" stroke-linejoin="miter"/></g><path d="M245,202.00004v5h-10v-5h3v-35.55c-1.56787,-0.90521 -2.33228,-2.75064 -1.8637,-4.49938c0.46857,-1.74873 2.05328,-2.96472 3.8637,-2.96472c1.81042,0 3.39513,1.21599 3.8637,2.96472c0.46857,1.74873 -0.29583,3.59417 -1.8637,4.49938v35.55z" fill="none" stroke="#000000" stroke-width="4" stroke-linejoin="round"/><path d="M245,202.00004v5h-10v-5h3v-35.55c-1.56787,-0.90521 -2.33228,-2.75064 -1.8637,-4.49938c0.46857,-1.74873 2.05328,-2.96472 3.8637,-2.96472c1.81042,0 3.39513,1.21599 3.8637,2.96472c0.46857,1.74873 -0.29583,3.59417 -1.8637,4.49938v35.55z" fill="#3ac54d" stroke="none" stroke-width="1" stroke-linejoin="miter"/><path d="M235,187.00004v-18h10v18z" fill="#ffff00" stroke="none" stroke-width="1" stroke-linejoin="miter"/><path d="M244,184.5c0,0.5 -0.5,0.5 -0.5,0.5l-0.04189,-0.02566c-2.27,0.73388 -5.07122,0.5258 -7.31623,-0.2c0,0 -0.47434,-0.15811 -0.31623,-0.63246c0.15811,-0.47434 0.63246,-0.31623 0.63246,-0.31623c1.96221,0.67965 4.69021,0.89051 6.68377,0.2l0.35811,-0.02566c0,0 0.5,0 0.5,0.5z" fill="#000000" stroke="none" stroke-width="0.5" stroke-linejoin="miter"/></g></g></svg>