<svg version="1.1" xmlns="http://www.w3.org/2000/svg" xmlns:xlink="http://www.w3.org/1999/xlink" width="250.54115" height="113.18102" viewBox="0,0,250.54115,113.18102"><g transform="translate(-116.36275,-95.81898)"><g data-paper-data="{&quot;isPaintingLayer&quot;:true}" fill-rule="nonzero" stroke-miterlimit="10" stroke-dasharray="" stroke-dashoffset="0" style="mix-blend-mode: normal"><g data-paper-data="{&quot;index&quot;:null}" fill="none" stroke-linecap="round" stroke-linejoin="round"><path d="M221.39384,182.8109l-55.27678,-34.83229l2.11205,-27.33969" stroke="#000000" stroke-width="8"/><path d="M221.39384,182.8109l-55.27678,-34.83229l2.11205,-27.33969" stroke="#9bb39b" stroke-width="4"/></g><g stroke-linecap="butt"><g><path d="M156.4243,105.72758v6.66889l-6.66888,-3.33444z" fill="none" stroke="#000000" stroke-width="4" stroke-linejoin="round"/><path d="M156.4243,105.72758v6.66889l-6.66888,-3.33444z" fill="#9bb39b" stroke="none" stroke-width="1" stroke-linejoin="miter"/></g><g data-paper-data="{&quot;index&quot;:null}"><path d="M190.97938,109.1482l-6.66888,3.33444v-6.66888z" fill="none" stroke="#000000" stroke-width="4" stroke-linejoin="round"/><path d="M190.97938,109.1482l-6.66888,3.33444v-6.66888z" fill="#9bb39b" stroke="none" stroke-width="1" stroke-linejoin="miter"/></g><g><path d="M175.9945,132.02939h6.66888l-3.33444,6.66888z" fill="none" stroke="#000000" stroke-width="4" stroke-linejoin="round"/><path d="M175.9945,132.02939h6.66888l-3.33444,6.66888z" fill="#9bb39b" stroke="none" stroke-width="1" stroke-linejoin="miter"/></g><g><path d="M157.65509,132.02939h6.66888l-3.33444,6.66888z" fill="none" stroke="#000000" stroke-width="4" stroke-linejoin="round"/><path d="M157.65509,132.02939h6.66888l-3.33444,6.66888z" fill="#9bb39b" stroke="none" stroke-width="1" stroke-linejoin="miter"/></g><g><path d="M166.8248,132.02939h6.66888l-3.33444,6.66888z" fill="none" stroke="#000000" stroke-width="4" stroke-linejoin="round"/><path d="M166.8248,132.02939h6.66888l-3.33444,6.66888z" fill="#9bb39b" stroke="none" stroke-width="1" stroke-linejoin="miter"/></g><g><path d="M156.25922,124.13699v6.66888l-6.66888,-3.33444z" fill="none" stroke="#000000" stroke-width="4" stroke-linejoin="round"/><path d="M156.25922,124.13699v6.66888l-6.66888,-3.33444z" fill="#9bb39b" stroke="none" stroke-width="1" stroke-linejoin="miter"/></g><g><path d="M156.25922,114.96727v6.66889l-6.66888,-3.33444z" fill="none" stroke="#000000" stroke-width="4" stroke-linejoin="round"/><path d="M156.25922,114.96727v6.66889l-6.66888,-3.33444z" fill="#9bb39b" stroke="none" stroke-width="1" stroke-linejoin="miter"/></g><g data-paper-data="{&quot;index&quot;:null}"><path d="M190.8143,127.5576l-6.66888,3.33444v-6.66888z" fill="none" stroke="#000000" stroke-width="4" stroke-linejoin="round"/><path d="M190.8143,127.5576l-6.66888,3.33444v-6.66888z" fill="#9bb39b" stroke="none" stroke-width="1" stroke-linejoin="miter"/></g><g data-paper-data="{&quot;index&quot;:null}"><path d="M190.8143,118.38789l-6.66888,3.33444v-6.66889z" fill="none" stroke="#000000" stroke-width="4" stroke-linejoin="round"/><path d="M190.8143,118.38789l-6.66888,3.33444v-6.66889z" fill="#9bb39b" stroke="none" stroke-width="1" stroke-linejoin="miter"/></g><g><path d="M164.41014,104.48786h-6.66888l3.33444,-6.66888z" fill="none" stroke="#000000" stroke-width="4" stroke-linejoin="round"/><path d="M164.41014,104.48786h-6.66888l3.33444,-6.66888z" fill="#9bb39b" stroke="none" stroke-width="1" stroke-linejoin="miter"/></g><g><path d="M182.74955,104.48786h-6.66888l3.33444,-6.66888z" fill="none" stroke="#000000" stroke-width="4" stroke-linejoin="round"/><path d="M182.74955,104.48786h-6.66888l3.33444,-6.66888z" fill="#9bb39b" stroke="none" stroke-width="1" stroke-linejoin="miter"/></g><g><path d="M173.57984,104.48786h-6.66888l3.33444,-6.66888z" fill="none" stroke="#000000" stroke-width="4" stroke-linejoin="round"/><path d="M173.57984,104.48786h-6.66888l3.33444,-6.66888z" fill="#9bb39b" stroke="none" stroke-width="1" stroke-linejoin="miter"/></g><g><path d="M157.20077,131.19578v-25.84191h25.84192v25.84192z" fill="none" stroke="#000000" stroke-width="4" stroke-linejoin="round"/><path d="M157.20077,131.19578v-25.84191h25.84192v25.84192z" fill="#03d100" stroke="none" stroke-width="1" stroke-linejoin="miter"/></g><path d="M163.12173,125.27482v-14h14v14z" fill="#04ff00" stroke="none" stroke-width="1" stroke-linejoin="miter"/></g><g data-paper-data="{&quot;index&quot;:null}" fill="none" stroke-linecap="round" stroke-linejoin="round"><path d="M215.06588,195.99587l-65.18401,-4.45606l-11.10446,-25.07209" stroke="#000000" stroke-width="8"/><path d="M215.06588,195.99587l-65.18401,-4.45606l-11.10446,-25.07209" stroke="#9bb39b" stroke-width="4"/></g><g data-paper-data="{&quot;index&quot;:null}" stroke-linecap="butt"><g><path d="M125.1967,153.42746v6.66888l-6.66888,-3.33444z" fill="none" stroke="#000000" stroke-width="4" stroke-linejoin="round"/><path d="M125.1967,153.42746v6.66888l-6.66888,-3.33444z" fill="#9bb39b" stroke="none" stroke-width="1" stroke-linejoin="miter"/></g><g data-paper-data="{&quot;index&quot;:null}"><path d="M159.75178,156.84808l-6.66888,3.33444v-6.66888z" fill="none" stroke="#000000" stroke-width="4" stroke-linejoin="round"/><path d="M159.75178,156.84808l-6.66888,3.33444v-6.66888z" fill="#9bb39b" stroke="none" stroke-width="1" stroke-linejoin="miter"/></g><g><path d="M144.76692,179.72927h6.66889l-3.33445,6.66888z" fill="none" stroke="#000000" stroke-width="4" stroke-linejoin="round"/><path d="M144.76692,179.72927h6.66889l-3.33445,6.66888z" fill="#9bb39b" stroke="none" stroke-width="1" stroke-linejoin="miter"/></g><g><path d="M126.42749,179.72927h6.66888l-3.33444,6.66888z" fill="none" stroke="#000000" stroke-width="4" stroke-linejoin="round"/><path d="M126.42749,179.72927h6.66888l-3.33444,6.66888z" fill="#9bb39b" stroke="none" stroke-width="1" stroke-linejoin="miter"/></g><g><path d="M135.59721,179.72927h6.66888l-3.33444,6.66888z" fill="none" stroke="#000000" stroke-width="4" stroke-linejoin="round"/><path d="M135.59721,179.72927h6.66888l-3.33444,6.66888z" fill="#9bb39b" stroke="none" stroke-width="1" stroke-linejoin="miter"/></g><g><path d="M125.03163,171.83687v6.66888l-6.66888,-3.33444z" fill="none" stroke="#000000" stroke-width="4" stroke-linejoin="round"/><path d="M125.03163,171.83687v6.66888l-6.66888,-3.33444z" fill="#9bb39b" stroke="none" stroke-width="1" stroke-linejoin="miter"/></g><g><path d="M125.03163,162.66715v6.66889l-6.66888,-3.33444z" fill="none" stroke="#000000" stroke-width="4" stroke-linejoin="round"/><path d="M125.03163,162.66715v6.66889l-6.66888,-3.33444z" fill="#9bb39b" stroke="none" stroke-width="1" stroke-linejoin="miter"/></g><g data-paper-data="{&quot;index&quot;:null}"><path d="M159.5867,175.25748l-6.66888,3.33444v-6.66888z" fill="none" stroke="#000000" stroke-width="4" stroke-linejoin="round"/><path d="M159.5867,175.25748l-6.66888,3.33444v-6.66888z" fill="#9bb39b" stroke="none" stroke-width="1" stroke-linejoin="miter"/></g><g data-paper-data="{&quot;index&quot;:null}"><path d="M159.5867,166.08777l-6.66888,3.33444v-6.66888z" fill="none" stroke="#000000" stroke-width="4" stroke-linejoin="round"/><path d="M159.5867,166.08777l-6.66888,3.33444v-6.66888z" fill="#9bb39b" stroke="none" stroke-width="1" stroke-linejoin="miter"/></g><g><path d="M133.18255,152.18774h-6.66888l3.33445,-6.66888z" fill="none" stroke="#000000" stroke-width="4" stroke-linejoin="round"/><path d="M133.18255,152.18774h-6.66888l3.33445,-6.66888z" fill="#9bb39b" stroke="none" stroke-width="1" stroke-linejoin="miter"/></g><g><path d="M151.52195,152.18774h-6.66888l3.33444,-6.66888z" fill="none" stroke="#000000" stroke-width="4" stroke-linejoin="round"/><path d="M151.52195,152.18774h-6.66888l3.33444,-6.66888z" fill="#9bb39b" stroke="none" stroke-width="1" stroke-linejoin="miter"/></g><g><path d="M142.35226,152.18774h-6.66888l3.33444,-6.66888z" fill="none" stroke="#000000" stroke-width="4" stroke-linejoin="round"/><path d="M142.35226,152.18774h-6.66888l3.33444,-6.66888z" fill="#9bb39b" stroke="none" stroke-width="1" stroke-linejoin="miter"/></g><g><path d="M125.97318,178.89566v-25.84191h25.84191v25.84192z" fill="none" stroke="#000000" stroke-width="4" stroke-linejoin="round"/><path d="M125.97318,178.89566v-25.84191h25.84191v25.84192z" fill="#03d100" stroke="none" stroke-width="1" stroke-linejoin="miter"/></g><path d="M131.89413,172.9747v-14h14v14z" fill="#04ff00" stroke="none" stroke-width="1" stroke-linejoin="miter"/></g><g data-paper-data="{&quot;index&quot;:null}" fill="none" stroke-linecap="round" stroke-linejoin="round"><path d="M313.35268,122.06447l0.68635,27.41256l-57.01465,31.90832" stroke="#000000" stroke-width="8"/><path d="M313.35268,122.06447l0.68635,27.41256l-57.01465,31.90832" stroke="#9bb39b" stroke-width="4"/></g><g data-paper-data="{&quot;index&quot;:null}" stroke-linecap="butt"><g><path d="M330.63937,109.06203l-6.66888,3.33444v-6.66889z" fill="none" stroke="#000000" stroke-width="4" stroke-linejoin="round"/><path d="M330.63937,109.06203l-6.66888,3.33444v-6.66889z" fill="#9bb39b" stroke="none" stroke-width="1" stroke-linejoin="miter"/></g><g data-paper-data="{&quot;index&quot;:null}"><path d="M296.08428,105.81376v6.66888l-6.66888,-3.33444z" fill="none" stroke="#000000" stroke-width="4" stroke-linejoin="round"/><path d="M296.08428,105.81376v6.66888l-6.66888,-3.33444z" fill="#9bb39b" stroke="none" stroke-width="1" stroke-linejoin="miter"/></g><g><path d="M301.06584,138.69827l-3.33445,-6.66888h6.66889z" fill="none" stroke="#000000" stroke-width="4" stroke-linejoin="round"/><path d="M301.06584,138.69827l-3.33445,-6.66888h6.66889z" fill="#9bb39b" stroke="none" stroke-width="1" stroke-linejoin="miter"/></g><g><path d="M319.40526,138.69827l-3.33444,-6.66888h6.66888z" fill="none" stroke="#000000" stroke-width="4" stroke-linejoin="round"/><path d="M319.40526,138.69827l-3.33444,-6.66888h6.66888z" fill="#9bb39b" stroke="none" stroke-width="1" stroke-linejoin="miter"/></g><g><path d="M310.23555,138.69827l-3.33444,-6.66888h6.66888z" fill="none" stroke="#000000" stroke-width="4" stroke-linejoin="round"/><path d="M310.23555,138.69827l-3.33444,-6.66888h6.66888z" fill="#9bb39b" stroke="none" stroke-width="1" stroke-linejoin="miter"/></g><g><path d="M330.80445,127.47143l-6.66888,3.33444v-6.66888z" fill="none" stroke="#000000" stroke-width="4" stroke-linejoin="round"/><path d="M330.80445,127.47143l-6.66888,3.33444v-6.66888z" fill="#9bb39b" stroke="none" stroke-width="1" stroke-linejoin="miter"/></g><g><path d="M330.80445,118.30172l-6.66888,3.33444v-6.66889z" fill="none" stroke="#000000" stroke-width="4" stroke-linejoin="round"/><path d="M330.80445,118.30172l-6.66888,3.33444v-6.66889z" fill="#9bb39b" stroke="none" stroke-width="1" stroke-linejoin="miter"/></g><g data-paper-data="{&quot;index&quot;:null}"><path d="M296.24937,124.22316v6.66888l-6.66888,-3.33444z" fill="none" stroke="#000000" stroke-width="4" stroke-linejoin="round"/><path d="M296.24937,124.22316v6.66888l-6.66888,-3.33444z" fill="#9bb39b" stroke="none" stroke-width="1" stroke-linejoin="miter"/></g><g data-paper-data="{&quot;index&quot;:null}"><path d="M296.24937,115.05344v6.66889l-6.66888,-3.33444z" fill="none" stroke="#000000" stroke-width="4" stroke-linejoin="round"/><path d="M296.24937,115.05344v6.66889l-6.66888,-3.33444z" fill="#9bb39b" stroke="none" stroke-width="1" stroke-linejoin="miter"/></g><g><path d="M319.31909,97.81898l3.33445,6.66888h-6.66888z" fill="none" stroke="#000000" stroke-width="4" stroke-linejoin="round"/><path d="M319.31909,97.81898l3.33445,6.66888h-6.66888z" fill="#9bb39b" stroke="none" stroke-width="1" stroke-linejoin="miter"/></g><g><path d="M300.97968,97.81898l3.33444,6.66888h-6.66888z" fill="none" stroke="#000000" stroke-width="4" stroke-linejoin="round"/><path d="M300.97968,97.81898l3.33444,6.66888h-6.66888z" fill="#9bb39b" stroke="none" stroke-width="1" stroke-linejoin="miter"/></g><g><path d="M310.14937,97.81898l3.33444,6.66888h-6.66888z" fill="none" stroke="#000000" stroke-width="4" stroke-linejoin="round"/><path d="M310.14937,97.81898l3.33444,6.66888h-6.66888z" fill="#9bb39b" stroke="none" stroke-width="1" stroke-linejoin="miter"/></g><g><path d="M297.35209,131.19578v-25.84191h25.84192v25.84192z" fill="none" stroke="#000000" stroke-width="4" stroke-linejoin="round"/><path d="M297.35209,131.19578v-25.84191h25.84192v25.84192z" fill="#03d100" stroke="none" stroke-width="1" stroke-linejoin="miter"/></g><path d="M303.27306,125.27482v-14h14v14z" fill="#04ff00" stroke="none" stroke-width="1" stroke-linejoin="miter"/></g><g data-paper-data="{&quot;index&quot;:null}" fill="none" stroke-linecap="round" stroke-linejoin="round"><path d="M344.20939,168.15291l-13.80235,23.69418l-65.27776,-2.76144" stroke="#000000" stroke-width="8"/><path d="M344.20939,168.15291l-13.80235,23.69418l-65.27776,-2.76144" stroke="#9bb39b" stroke-width="4"/></g><g data-paper-data="{&quot;index&quot;:null}" stroke-linecap="butt"><g><path d="M364.73883,158.95631l-6.66888,3.33444v-6.66888z" fill="none" stroke="#000000" stroke-width="4" stroke-linejoin="round"/><path d="M364.73883,158.95631l-6.66888,3.33444v-6.66888z" fill="#9bb39b" stroke="none" stroke-width="1" stroke-linejoin="miter"/></g><g data-paper-data="{&quot;index&quot;:null}"><path d="M330.18375,155.70804v6.66888l-6.66888,-3.33444z" fill="none" stroke="#000000" stroke-width="4" stroke-linejoin="round"/><path d="M330.18375,155.70804v6.66888l-6.66888,-3.33444z" fill="#9bb39b" stroke="none" stroke-width="1" stroke-linejoin="miter"/></g><g><path d="M335.16529,188.59255l-3.33445,-6.66888h6.66888z" fill="none" stroke="#000000" stroke-width="4" stroke-linejoin="round"/><path d="M335.16529,188.59255l-3.33445,-6.66888h6.66888z" fill="#9bb39b" stroke="none" stroke-width="1" stroke-linejoin="miter"/></g><g><path d="M353.50471,188.59255l-3.33444,-6.66888h6.66888z" fill="none" stroke="#000000" stroke-width="4" stroke-linejoin="round"/><path d="M353.50471,188.59255l-3.33444,-6.66888h6.66888z" fill="#9bb39b" stroke="none" stroke-width="1" stroke-linejoin="miter"/></g><g><path d="M344.335,188.59255l-3.33444,-6.66888h6.66888z" fill="none" stroke="#000000" stroke-width="4" stroke-linejoin="round"/><path d="M344.335,188.59255l-3.33444,-6.66888h6.66888z" fill="#9bb39b" stroke="none" stroke-width="1" stroke-linejoin="miter"/></g><g><path d="M364.9039,177.36571l-6.66888,3.33444v-6.66888z" fill="none" stroke="#000000" stroke-width="4" stroke-linejoin="round"/><path d="M364.9039,177.36571l-6.66888,3.33444v-6.66888z" fill="#9bb39b" stroke="none" stroke-width="1" stroke-linejoin="miter"/></g><g><path d="M364.9039,168.196l-6.66888,3.33444v-6.66889z" fill="none" stroke="#000000" stroke-width="4" stroke-linejoin="round"/><path d="M364.9039,168.196l-6.66888,3.33444v-6.66889z" fill="#9bb39b" stroke="none" stroke-width="1" stroke-linejoin="miter"/></g><g data-paper-data="{&quot;index&quot;:null}"><path d="M330.34882,174.11744v6.66888l-6.66888,-3.33444z" fill="none" stroke="#000000" stroke-width="4" stroke-linejoin="round"/><path d="M330.34882,174.11744v6.66888l-6.66888,-3.33444z" fill="#9bb39b" stroke="none" stroke-width="1" stroke-linejoin="miter"/></g><g data-paper-data="{&quot;index&quot;:null}"><path d="M330.34882,164.94772v6.66889l-6.66888,-3.33444z" fill="none" stroke="#000000" stroke-width="4" stroke-linejoin="round"/><path d="M330.34882,164.94772v6.66889l-6.66888,-3.33444z" fill="#9bb39b" stroke="none" stroke-width="1" stroke-linejoin="miter"/></g><g><path d="M353.41854,147.71326l3.33445,6.66888h-6.66888z" fill="none" stroke="#000000" stroke-width="4" stroke-linejoin="round"/><path d="M353.41854,147.71326l3.33445,6.66888h-6.66888z" fill="#9bb39b" stroke="none" stroke-width="1" stroke-linejoin="miter"/></g><g><path d="M335.07913,147.71326l3.33444,6.66888h-6.66888z" fill="none" stroke="#000000" stroke-width="4" stroke-linejoin="round"/><path d="M335.07913,147.71326l3.33444,6.66888h-6.66888z" fill="#9bb39b" stroke="none" stroke-width="1" stroke-linejoin="miter"/></g><g><path d="M344.24883,147.71326l3.33444,6.66888h-6.66888z" fill="none" stroke="#000000" stroke-width="4" stroke-linejoin="round"/><path d="M344.24883,147.71326l3.33444,6.66888h-6.66888z" fill="#9bb39b" stroke="none" stroke-width="1" stroke-linejoin="miter"/></g><g><path d="M331.45156,181.09006v-25.84191h25.84191v25.84192z" fill="none" stroke="#000000" stroke-width="4" stroke-linejoin="round"/><path d="M331.45156,181.09006v-25.84191h25.84191v25.84192z" fill="#03d100" stroke="none" stroke-width="1" stroke-linejoin="miter"/></g><path d="M337.37252,175.1691v-14h14v14z" fill="#04ff00" stroke="none" stroke-width="1" stroke-linejoin="miter"/></g><g stroke-linecap="butt"><path d="M276.30001,207h-72.6c-5.90945,0 -10.7,-4.79055 -10.7,-10.7v-11.64c-0.00144,-5.04951 3.53058,-9.41137 8.47,-10.46l36.3,-7.73c1.47051,-0.31002 2.98949,-0.31002 4.46,0l36.3,7.73c4.93942,1.04863 8.47145,5.41049 8.47,10.46v11.64c0,5.90945 -4.79055,10.7 -10.7,10.7z" fill="none" stroke="#000000" stroke-width="4" stroke-linejoin="round"/><path d="M276.30001,207h-72.6c-5.90945,0 -10.7,-4.79055 -10.7,-10.7v-11.64c-0.00144,-5.04951 3.53058,-9.41137 8.47,-10.46l36.3,-7.73c1.47051,-0.31002 2.98949,-0.31002 4.46,0l36.3,7.73c4.93942,1.04863 8.47145,5.41049 8.47,10.46v11.64c0,5.90945 -4.79055,10.7 -10.7,10.7z" fill="#03d100" stroke="none" stroke-width="1" stroke-linejoin="miter"/></g><path d="M276.00001,198l-36,-5l-37,5v-17l37.09,-7l35.91,7z" fill="#04ff00" stroke="none" stroke-width="1" stroke-linecap="butt" stroke-linejoin="miter"/><path d="M233.00001,198v-25h14v25z" fill="#03ab00" stroke="none" stroke-width="1" stroke-linecap="butt" stroke-linejoin="miter"/><path d="M237.00001,183v-6h6v6z" fill="#028000" stroke="none" stroke-width="1" stroke-linecap="butt" stroke-linejoin="miter"/><path d="M237.00001,175v-6h6v6z" fill="#028000" stroke="none" stroke-width="1" stroke-linecap="butt" stroke-linejoin="miter"/><path d="M237.00001,191v-6h6v6z" fill="#7d0000" stroke="none" stroke-width="1" stroke-linecap="butt" stroke-linejoin="miter"/><path d="M237.00001,199v-6h6v6z" fill="#7d0000" stroke="none" stroke-width="1" stroke-linecap="butt" stroke-linejoin="miter"/><path d="M237.00001,207v-6h6v6z" fill="#028000" stroke="none" stroke-width="1" stroke-linecap="butt" stroke-linejoin="miter"/><path d="M232.00001,192c0,-4.41828 3.58172,-8 8,-8c4.41828,0 8,3.58172 8,8c0,4.41828 -3.58172,8 -8,8c-4.41828,0 -8,-3.58172 -8,-8z" fill="#508600" stroke="#000000" stroke-width="2" stroke-linecap="butt" stroke-linejoin="round"/><path d="M268.00001,184v11l-22,-3" fill="none" stroke="#000000" stroke-width="2" stroke-linecap="butt" stroke-linejoin="round"/><path d="M258.00001,189v9" fill="none" stroke="#000000" stroke-width="2" stroke-linecap="butt" stroke-linejoin="round"/><path d="M240.00001,208v-9" fill="none" stroke="#000000" stroke-width="2" stroke-linecap="butt" stroke-linejoin="round"/><path d="M234.00001,192l-22,3v-11" fill="none" stroke="#000000" stroke-width="2" stroke-linecap="butt" stroke-linejoin="round"/><path d="M222.00001,189v9" fill="none" stroke="#000000" stroke-width="2" stroke-linecap="butt" stroke-linejoin="round"/></g></g></svg>