<svg version="1.1" xmlns="http://www.w3.org/2000/svg" xmlns:xlink="http://www.w3.org/1999/xlink" width="55.30646" height="56.92855" viewBox="0,0,55.30646,56.92855"><g transform="translate(-206.69355,-123.07145)"><g data-paper-data="{&quot;isPaintingLayer&quot;:true}" fill-rule="nonzero" stroke-linejoin="miter" stroke-miterlimit="10" stroke-dasharray="" stroke-dashoffset="0" style="mix-blend-mode: normal"><path d="M225.00002,165v-14h18v14z" fill="#000000" stroke="none" stroke-width="1" stroke-linecap="butt"/><path d="M261.00001,165v14h-42v-14h32v-3c0,-1.10457 0.89543,-2 2,-2h3c1.10457,0 2,0.89543 2,2v3z" fill="#bd0000" stroke="#000000" stroke-width="2" stroke-linecap="butt"/><g stroke="none" stroke-linecap="butt"><path d="M261.00001,165.14667h-42v-18.77333c0,-2.8277 2.68629,-5.12 6,-5.12h30c3.31371,0 6,2.2923 6,5.12z" fill="#9500ff" stroke-width="1"/><path d="M262.00001,166h-44v-19.62667c0,-3.29898 3.13401,-5.97333 7,-5.97333h30c3.86599,0 7,2.67436 7,5.97333zM220.00002,164.29333h40v-17.92c0,-2.35642 -2.23858,-4.26667 -5,-4.26667h-30c-2.76143,0 -5,1.91025 -5,4.26667z" fill="#000000" stroke-width="1"/><path d="M219.9527,146.35718c0,-2.35642 2.24569,-4.28025 5.00712,-4.28025h30.0804c2.76142,0 5.00712,1.92383 5.00712,4.28025l-0.0036,17.9604h-40.08745z" data-paper-data="{&quot;noHover&quot;:false,&quot;origItem&quot;:[&quot;Path&quot;,{&quot;applyMatrix&quot;:true,&quot;segments&quot;:[[220,164.29333],[260,164.29333],[[260,146.37333],[0,0],[0,-2.35642]],[[255,142.10666],[2.76142,0],[0,0]],[[225,142.10666],[0,0],[-2.76143,0]],[[220,146.37333],[0,-2.35642],[0,0]]],&quot;closed&quot;:true,&quot;fillColor&quot;:[0,0,0,1]}]}" fill="#ff0000" stroke-width="0.5"/></g><path d="M242.90002,158.06h10.4" fill="none" stroke="#000000" stroke-width="2" stroke-linecap="round"/><path d="M208.52705,142.28162l10.58116,2.06856l0.92909,-10.40157l8.49637,4.61149l3.07735,-13.57592l11.02859,17.20088l-22.58397,14.79744z" fill="#fff700" stroke-opacity="0.5" stroke="#000000" stroke-width="1.5" stroke-linecap="butt"/></g></g></svg>