<svg version="1.1" xmlns="http://www.w3.org/2000/svg" xmlns:xlink="http://www.w3.org/1999/xlink" width="40.67658" height="41.625" viewBox="0,0,40.67658,41.625"><g transform="translate(-220.34731,-157.96656)"><g data-paper-data="{&quot;isPaintingLayer&quot;:true}" fill-rule="nonzero" stroke-linecap="butt" stroke-miterlimit="10" stroke-dasharray="" stroke-dashoffset="0" style="mix-blend-mode: normal"><path d="M220.34731,199.59156v-41.625h40.67658v41.625z" fill="none" stroke="none" stroke-width="0" stroke-linejoin="miter"/><path d="M248.87561,178.65452c-0.50474,6.19126 -3.88263,9.69198 -8.87456,9.00184c-5.5466,0.69014 -8.43083,-2.78557 -8.87456,-9.00184c-0.44373,-6.55634 5.90158,-7.38651 8.87456,-5.54113c2.95079,-1.84538 9.2961,-0.13003 8.87456,5.54113z" fill="#ff3636" stroke="#000000" stroke-width="1" stroke-linejoin="round"/><path d="M241.58246,169.01826c0,1.14023 -1.47539,4.55093 -1.47539,4.55093" fill="none" stroke="#000000" stroke-width="1" stroke-linejoin="round"/><path d="M234.16955,177.78581c-0.69614,-0.58947 -0.62662,-1.67588 0.1553,-2.42655c0.7819,-0.75067 1.9801,-0.88135 2.67624,-0.29188c0.69614,0.58947 0.62662,1.67588 -0.1553,2.42655c-0.7819,0.75067 -1.9801,0.88135 -2.67624,0.29188z" fill="#ffffff" stroke="none" stroke-width="1" stroke-linejoin="miter"/></g></g></svg>