<svg version="1.1" xmlns="http://www.w3.org/2000/svg" xmlns:xlink="http://www.w3.org/1999/xlink" width="62" height="46.72436" viewBox="0,0,62,46.72436"><g transform="translate(-209,-149.16851)"><g data-paper-data="{&quot;isPaintingLayer&quot;:true}" fill-rule="nonzero" stroke="none" stroke-width="1" stroke-linecap="butt" stroke-linejoin="miter" stroke-miterlimit="10" stroke-dasharray="" stroke-dashoffset="0" style="mix-blend-mode: normal"><path d="M238.98913,181.16851v-32h32v32z" fill="#ce7ca7"/><path d="M241.98913,163.1685v-11h11v11z" fill="#a3457d"/><path d="M256.98913,163.1685v-11h11v11z" fill="#bc6296"/><path d="M241.98913,178.16851v-11h11v11z" fill="#bc6296"/><path d="M256.98913,178.16851v-11h11v11z" fill="#a3457d"/><path d="M271,178.89286v17h-17h-3h-6h-4h-17h-14h-1v-17z" fill="#ce7ca7"/><path d="M212,192.89286v-11h11v11z" fill="#a3457d"/><path d="M242,192.89286v-11h11v11z" fill="#a3457d"/><path d="M227,192.89286v-11h11v11z" fill="#bc6296"/><path d="M257,192.89286v-11h11v11z" fill="#bc6296"/></g></g></svg>