<svg version="1.1" xmlns="http://www.w3.org/2000/svg" xmlns:xlink="http://www.w3.org/1999/xlink" width="163.23585" height="163.50944" viewBox="0,0,163.23585,163.50944"><g transform="translate(-188.38207,-68.24528)"><g data-paper-data="{&quot;isPaintingLayer&quot;:true}" fill-rule="nonzero" stroke-linecap="butt" stroke-miterlimit="10" stroke-dasharray="" stroke-dashoffset="0" style="mix-blend-mode: normal"><g data-paper-data="{&quot;index&quot;:null}"><path d="M314.03301,213.75472h16l-8,16z" fill="none" stroke="#000000" stroke-width="4" stroke-linejoin="round"/><path d="M314.03301,213.75472h16l-8,16z" fill="#b3b3b3" stroke="none" stroke-width="1" stroke-linejoin="miter"/></g><g data-paper-data="{&quot;index&quot;:null}"><path d="M271.20282,213.75472h16l-8,16z" fill="none" stroke="#000000" stroke-width="4" stroke-linejoin="round"/><path d="M271.20282,213.75472h16l-8,16z" fill="#b3b3b3" stroke="none" stroke-width="1" stroke-linejoin="miter"/></g><g data-paper-data="{&quot;index&quot;:null}"><path d="M292.03301,213.75472h16l-8,16z" fill="none" stroke="#000000" stroke-width="4" stroke-linejoin="round"/><path d="M292.03301,213.75472h16l-8,16z" fill="#b3b3b3" stroke="none" stroke-width="1" stroke-linejoin="miter"/></g><g data-paper-data="{&quot;index&quot;:null}"><path d="M206.38208,194.18871v16l-16,-8z" fill="none" stroke="#000000" stroke-width="4" stroke-linejoin="round"/><path d="M206.38208,194.18871v16l-16,-8z" fill="#b3b3b3" stroke="none" stroke-width="1" stroke-linejoin="miter"/></g><g data-paper-data="{&quot;index&quot;:null}"><path d="M206.38208,151.35849v16l-16,-8z" fill="none" stroke="#000000" stroke-width="4" stroke-linejoin="round"/><path d="M206.38208,151.35849v16l-16,-8z" fill="#b3b3b3" stroke="none" stroke-width="1" stroke-linejoin="miter"/></g><g data-paper-data="{&quot;index&quot;:null}"><path d="M206.38208,172.18871v16l-16,-8z" fill="none" stroke="#000000" stroke-width="4" stroke-linejoin="round"/><path d="M206.38208,172.18871v16l-16,-8z" fill="#b3b3b3" stroke="none" stroke-width="1" stroke-linejoin="miter"/></g><g data-paper-data="{&quot;index&quot;:null}"><path d="M226.03305,86.24528h-16l8,-16z" fill="none" stroke="#000000" stroke-width="4" stroke-linejoin="round"/><path d="M226.03305,86.24528h-16l8,-16z" fill="#b3b3b3" stroke="none" stroke-width="1" stroke-linejoin="miter"/></g><g data-paper-data="{&quot;index&quot;:null}"><path d="M268.8632,86.24528h-16l8,-16z" fill="none" stroke="#000000" stroke-width="4" stroke-linejoin="round"/><path d="M268.8632,86.24528h-16l8,-16z" fill="#b3b3b3" stroke="none" stroke-width="1" stroke-linejoin="miter"/></g><g data-paper-data="{&quot;index&quot;:null}"><path d="M248.03305,86.24528h-16l8,-16z" fill="none" stroke="#000000" stroke-width="4" stroke-linejoin="round"/><path d="M248.03305,86.24528h-16l8,-16z" fill="#b3b3b3" stroke="none" stroke-width="1" stroke-linejoin="miter"/></g><g data-paper-data="{&quot;index&quot;:null}"><path d="M349.61793,139.26419l-16,8v-16z" fill="none" stroke="#000000" stroke-width="4" stroke-linejoin="round"/><path d="M349.61793,139.26419l-16,8v-16z" fill="#b3b3b3" stroke="none" stroke-width="1" stroke-linejoin="miter"/></g><g data-paper-data="{&quot;index&quot;:null}"><path d="M349.61793,98.18867l-16,8v-16z" fill="none" stroke="#000000" stroke-width="4" stroke-linejoin="round"/><path d="M349.61793,98.18867l-16,8v-16z" fill="#b3b3b3" stroke="none" stroke-width="1" stroke-linejoin="miter"/></g><g data-paper-data="{&quot;index&quot;:null}"><path d="M349.61793,120.18866l-16,8v-16z" fill="none" stroke="#000000" stroke-width="4" stroke-linejoin="round"/><path d="M349.61793,120.18866l-16,8v-16z" fill="#b3b3b3" stroke="none" stroke-width="1" stroke-linejoin="miter"/></g><g data-paper-data="{&quot;index&quot;:null}"><path d="M208.96698,211.18871v-122h122v122z" fill="none" stroke="#000000" stroke-width="4" stroke-linejoin="round"/><path d="M208.96698,211.18871v-122h122v122z" fill="#3941b5" stroke="none" stroke-width="1" stroke-linejoin="miter"/></g><path d="M277.96696,202.18873v-14h44v14z" data-paper-data="{&quot;index&quot;:null}" fill="#3a43c5" stroke="none" stroke-width="1" stroke-linejoin="miter"/><path d="M217.96696,202.18873v-14h44v14z" data-paper-data="{&quot;index&quot;:null}" fill="#3a43c5" stroke="none" stroke-width="1" stroke-linejoin="miter"/><path d="M277.96696,112.18866v-14h44v14z" data-paper-data="{&quot;index&quot;:null}" fill="#3a43c5" stroke="none" stroke-width="1" stroke-linejoin="miter"/><path d="M217.96696,112.18866v-14h44v14z" data-paper-data="{&quot;index&quot;:null}" fill="#3a43c5" stroke="none" stroke-width="1" stroke-linejoin="miter"/><path d="M307.96693,172.18872v-14h14v14z" data-paper-data="{&quot;index&quot;:null}" fill="#3a43c5" stroke="none" stroke-width="1" stroke-linejoin="miter"/><path d="M217.96697,172.18872v-14h14v14z" data-paper-data="{&quot;index&quot;:null}" fill="#3a43c5" stroke="none" stroke-width="1" stroke-linejoin="miter"/><path d="M307.96693,142.18872v-14h14v14z" data-paper-data="{&quot;index&quot;:null}" fill="#3a43c5" stroke="none" stroke-width="1" stroke-linejoin="miter"/><path d="M217.96697,142.18872v-14h14v14z" data-paper-data="{&quot;index&quot;:null}" fill="#3a43c5" stroke="none" stroke-width="1" stroke-linejoin="miter"/><path d="M247.96698,172.18871v-44h44v44z" data-paper-data="{&quot;index&quot;:null}" fill="#ffffff" stroke="none" stroke-width="1" stroke-linejoin="miter"/><path d="M262.96698,157.18871v-14h14v14z" data-paper-data="{&quot;index&quot;:null}" fill="#000000" stroke="none" stroke-width="1" stroke-linejoin="miter"/></g></g></svg>