<svg version="1.1" xmlns="http://www.w3.org/2000/svg" xmlns:xlink="http://www.w3.org/1999/xlink" width="23" height="23" viewBox="0,0,23,23"><g transform="translate(-228.5,-156.94762)"><g data-paper-data="{&quot;isPaintingLayer&quot;:true}" fill-rule="nonzero" stroke-linecap="butt" stroke-miterlimit="10" stroke-dasharray="" stroke-dashoffset="0" style="mix-blend-mode: normal"><path d="M240,178.94762v-7h-10.5v7z" fill="#ffffff" stroke="#ffffff" stroke-width="2" stroke-linejoin="miter"/><path d="M240,171.08972v-4.91988l-10.5,5.77778v4.91988z" fill="#00ffff" stroke="#00ffff" stroke-width="2" stroke-linejoin="miter"/><path d="M240.11111,165.61429l-0.11111,-3l-10.5,9.33334v3z" fill="#a3ffff" stroke="#a3ffff" stroke-width="2" stroke-linejoin="miter"/><path d="M233.05556,178.94762v-7h17.33334v7z" fill="#00fffb" stroke="#000000" stroke-width="2" stroke-linejoin="miter"/><path d="M244.5,157.94762c3.31371,0 6,2.68629 6,6v8h-21v-14z" fill="#00dfff" stroke="#000000" stroke-width="2" stroke-linejoin="miter"/><g><g stroke="none"><path d="M230.52778,168.51115v-4.91988h18.92857v4.91988l-5.10232,-1.83142l-2.42339,1.43846l-2.81544,-3.13903l-1.12022,2.38546l-2.6632,-1.56432l-1.47923,1.87474l-1.33783,-0.69514z" fill="#00ffff" stroke-width="0" stroke-linejoin="round"/><path d="M230.52778,167.51158v-3.92031h18.92857v3.92031l-5.10232,-1.45933l-2.42339,1.1462l-2.81544,-2.50127l-1.12022,1.9008l-2.6632,-1.24649l-1.47923,1.49384l-1.33783,-0.55391z" fill="#a3ffff" stroke-width="0" stroke-linejoin="round"/><path d="M233.27548,167.37918v-2.44325h13.43318v2.61339l-2.31296,-0.80623l-2.39883,1.60736l-2.76079,-2.91261l-0.74268,1.77442l-0.90326,0.41748l-1.96852,-1.47364l-1.20997,1.84795z" fill="#b8ffff" stroke-width="1" stroke-linejoin="miter"/><path d="M230.52778,166.70342v-3.11214h18.92857v3.11214l-5.10232,-1.15849l-2.42339,0.90992l-2.60482,-1.34762l-1.33084,0.87093l-2.6632,-0.98953l-1.47923,1.18589l-1.33783,-0.43972z" fill="#ffffff" stroke-width="0" stroke-linejoin="round"/></g><path d="M244.56406,158.79683c2.98684,0 4.90816,2.2066 4.90816,4.92857v0h-18.92857v0c0,-0.82396 -0.14657,-4.94997 -0.14657,-4.94997z" fill="#ffffff" stroke="#000000" stroke-width="0" stroke-linejoin="miter"/></g><path d="M240.38889,167.94762v-5h5v5z" fill="#001f31" stroke="#ffffff" stroke-width="2" stroke-linejoin="round"/><path d="M242.5,166.94762v-3h3v3z" fill="#001f31" stroke="none" stroke-width="1" stroke-linejoin="miter"/></g></g></svg>