<svg version="1.1" xmlns="http://www.w3.org/2000/svg" xmlns:xlink="http://www.w3.org/1999/xlink" width="89.44732" height="53.29279" viewBox="0,0,89.44732,53.29279"><g transform="translate(-195.27634,-153.3536)"><g data-paper-data="{&quot;isPaintingLayer&quot;:true}" fill-rule="nonzero" stroke-linecap="butt" stroke-miterlimit="10" stroke-dasharray="" stroke-dashoffset="0" style="mix-blend-mode: normal"><g data-paper-data="{&quot;index&quot;:null}"><g><path d="M282.72366,186.89502l-17.15459,-6.49509l4.24598,-6.53992z" fill="none" stroke="#000000" stroke-width="4" stroke-linejoin="round"/><path d="M282.72366,186.89502l-17.15459,-6.49509l4.24598,-6.53992z" fill="#b3b3b3" stroke="none" stroke-width="1" stroke-linejoin="miter"/></g><g><path d="M270.09797,174.94006l-15.03438,10.50876l-3.00872,-7.19352z" fill="none" stroke="#000000" stroke-width="4" stroke-linejoin="round"/><path d="M270.09797,174.94006l-15.03438,10.50876l-3.00872,-7.19352z" fill="#b3b3b3" stroke="none" stroke-width="1" stroke-linejoin="miter"/></g></g><g data-paper-data="{&quot;index&quot;:null}"><g><path d="M281.76872,200.1464l-13.31987,-12.61141l6.44066,-4.39508z" fill="none" stroke="#000000" stroke-width="4" stroke-linejoin="round"/><path d="M281.76872,200.1464l-13.31987,-12.61141l6.44066,-4.39508z" fill="#b3b3b3" stroke="none" stroke-width="1" stroke-linejoin="miter"/></g><g><path d="M274.73378,184.24549l-17.925,3.89371v-7.79737z" fill="none" stroke="#000000" stroke-width="4" stroke-linejoin="round"/><path d="M274.73378,184.24549l-17.925,3.89371v-7.79737z" fill="#b3b3b3" stroke="none" stroke-width="1" stroke-linejoin="miter"/></g></g><g data-paper-data="{&quot;index&quot;:null}"><g><path d="M275.76872,204.6464l-13.31987,-12.61141l6.44067,-4.39509z" fill="none" stroke="#000000" stroke-width="4" stroke-linejoin="round"/><path d="M275.76872,204.6464l-13.31987,-12.61141l6.44067,-4.39509z" fill="#b3b3b3" stroke="none" stroke-width="1" stroke-linejoin="miter"/></g><g><path d="M268.73378,188.74549l-17.92501,3.89371v-7.79737z" fill="none" stroke="#000000" stroke-width="4" stroke-linejoin="round"/><path d="M268.73378,188.74549l-17.92501,3.89371v-7.79737z" fill="#b3b3b3" stroke="none" stroke-width="1" stroke-linejoin="miter"/></g></g><g><g><path d="M210.18496,173.84447l4.24598,6.53992l-17.1546,6.49509z" fill="none" stroke="#000000" stroke-width="4" stroke-linejoin="round"/><path d="M210.18496,173.84447l4.24598,6.53992l-17.1546,6.49509z" fill="#b3b3b3" stroke="none" stroke-width="1" stroke-linejoin="miter"/></g><g><path d="M227.94513,178.23977l-3.00872,7.19352l-15.03438,-10.50876z" fill="none" stroke="#000000" stroke-width="4" stroke-linejoin="round"/><path d="M227.94513,178.23977l-3.00872,7.19352l-15.03438,-10.50876z" fill="#b3b3b3" stroke="none" stroke-width="1" stroke-linejoin="miter"/></g></g><g><g><path d="M205.11049,183.12437l6.44067,4.39508l-13.31987,12.61141z" fill="none" stroke="#000000" stroke-width="4" stroke-linejoin="round"/><path d="M205.11049,183.12437l6.44067,4.39508l-13.31987,12.61141z" fill="#b3b3b3" stroke="none" stroke-width="1" stroke-linejoin="miter"/></g><g><path d="M223.19123,180.3263v7.79737l-17.925,-3.89371z" fill="none" stroke="#000000" stroke-width="4" stroke-linejoin="round"/><path d="M223.19123,180.3263v7.79737l-17.925,-3.89371z" fill="#b3b3b3" stroke="none" stroke-width="1" stroke-linejoin="miter"/></g></g><g><g><path d="M211.11049,187.62437l6.44067,4.39508l-13.31987,12.61141z" fill="none" stroke="#000000" stroke-width="4" stroke-linejoin="round"/><path d="M211.11049,187.62437l6.44067,4.39508l-13.31987,12.61141z" fill="#b3b3b3" stroke="none" stroke-width="1" stroke-linejoin="miter"/></g><g><path d="M229.19123,184.8263v7.79738l-17.925,-3.89371z" fill="none" stroke="#000000" stroke-width="4" stroke-linejoin="round"/><path d="M229.19123,184.8263v7.79738l-17.925,-3.89371z" fill="#b3b3b3" stroke="none" stroke-width="1" stroke-linejoin="miter"/></g></g><g fill="none" stroke="none" stroke-width="1" stroke-linejoin="miter" font-family="sans-serif" font-weight="normal" font-size="12" text-anchor="start"/><g fill="none" stroke="none" stroke-width="1" stroke-linejoin="miter" font-family="sans-serif" font-weight="normal" font-size="12" text-anchor="start"/><g fill="none" stroke="none" stroke-width="1" stroke-linejoin="miter" font-family="sans-serif" font-weight="normal" font-size="12" text-anchor="start"/><g><path d="M247.17181,173.27861h-15.59475l7.78742,-17.925z" fill="none" stroke="#000000" stroke-width="4" stroke-linejoin="round"/><path d="M247.17181,173.27861h-15.59475l7.78742,-17.925z" fill="#b3b3b3" stroke="none" stroke-width="1" stroke-linejoin="miter"/></g><path d="M248.10789,201.16194h-15.93333c-4.39987,0 -7.96667,-3.5668 -7.96667,-7.96667v-15.93333c0,-4.39987 3.5668,-7.96667 7.96667,-7.96667h15.93333c4.39987,0 7.96667,3.5668 7.96667,7.96667v15.93333c0,4.39987 -3.5668,7.96667 -7.96667,7.96667z" fill="#fbff00" stroke="#000000" stroke-width="2" stroke-linejoin="miter"/><g data-paper-data="{&quot;index&quot;:null}"><path d="M242.37443,190.22438v-9.99156h10.08823v9.99156z" fill="#ffffff" stroke="#ffffff" stroke-width="2" stroke-linejoin="round"/><path d="M246.40972,188.22607v-5.99494h6.05294v5.99494z" fill="#000000" stroke="none" stroke-width="1" stroke-linejoin="miter"/></g><g data-paper-data="{&quot;index&quot;:null}"><g fill="none" stroke="none" stroke-width="1" stroke-linejoin="miter" font-family="sans-serif" font-weight="normal" font-size="12" text-anchor="start"/><g fill="none" stroke="none" stroke-width="1" stroke-linejoin="miter" font-family="sans-serif" font-weight="normal" font-size="12" text-anchor="start"/><g fill="none" stroke="none" stroke-width="1" stroke-linejoin="miter" font-family="sans-serif" font-weight="normal" font-size="12" text-anchor="start"/><g fill="none" stroke="none" stroke-width="1" stroke-linejoin="miter" font-family="sans-serif" font-weight="normal" font-size="12" text-anchor="start"/><g><path d="M227.64711,190.22438v-9.99156h10.08823v9.99156z" fill="#ffffff" stroke="#ffffff" stroke-width="2" stroke-linejoin="round"/><path d="M231.6824,188.22607v-5.99494h6.05294v5.99494z" fill="#000000" stroke="none" stroke-width="1" stroke-linejoin="miter"/></g></g></g></g></svg>