<svg version="1.1" xmlns="http://www.w3.org/2000/svg" xmlns:xlink="http://www.w3.org/1999/xlink" width="59.8" height="71.92237" viewBox="0,0,59.8,71.92237"><g transform="translate(-210,-141.8)"><g data-paper-data="{&quot;isPaintingLayer&quot;:true}" fill-rule="nonzero" stroke-linecap="butt" stroke-miterlimit="10" stroke-dasharray="" stroke-dashoffset="0" style="mix-blend-mode: normal"><g><path d="M212.69313,209.71015l12.30687,-65.91015l12.86494,67.18646" fill="none" stroke="#000000" stroke-width="4" stroke-linejoin="round"/><path d="M225,143.8l12.86487,67.18645c-4.75757,-0.62269 -10.65592,0.24867 -15.25088,0.08477c-2.68056,-0.09561 -4.94707,-0.2269 -6.95705,-0.22532c-0.90716,-0.52679 -1.90476,-0.91504 -2.96382,-1.13575z" fill="#b3b3b3" stroke="none" stroke-width="1" stroke-linejoin="miter"/></g><g><path d="M242.15759,212.57822l12.84241,-68.77822l12.68922,66.26873" fill="none" stroke="#000000" stroke-width="4" stroke-linejoin="round"/><path d="M255,143.8l12.68915,66.26875c-1.85112,0.48186 -3.49358,1.48077 -4.76394,2.83328c-4.59274,0.53939 -10.62806,0.91367 -12.6727,0.79991c-2.0383,-0.1134 -5.2208,0.28023 -7.00329,-0.49438c-0.30387,-0.13205 -0.68103,-0.36752 -1.09163,-0.62934z" fill="#b3b3b3" stroke="none" stroke-width="1" stroke-linejoin="miter"/></g><g><path d="M238,207h-26z" fill="none" stroke="#000000" stroke-width="4" stroke-linejoin="round"/><path d="M238,207h-26z" fill="#b3b3b3" stroke="none" stroke-width="1" stroke-linejoin="miter"/></g><g><path d="M242.2,207h25.6z" fill="none" stroke="#000000" stroke-width="4" stroke-linejoin="round"/><path d="M242.2,207h25.6z" fill="#b3b3b3" stroke="none" stroke-width="1" stroke-linejoin="miter"/></g></g></g></svg>