<svg version="1.1" xmlns="http://www.w3.org/2000/svg" xmlns:xlink="http://www.w3.org/1999/xlink" width="66.75336" height="112.67752" viewBox="0,0,66.75336,112.67752"><g transform="translate(-210.30368,-100.21466)"><g data-paper-data="{&quot;isPaintingLayer&quot;:true}" fill-rule="nonzero" stroke-linecap="butt" stroke-miterlimit="10" stroke-dasharray="" stroke-dashoffset="0" style="mix-blend-mode: normal"><g><path d="M261.18311,112.0632h-8.26864l4.13432,-9.50894z" fill="none" stroke="#000000" stroke-width="4" stroke-linejoin="round"/><path d="M261.18311,112.0632h-8.26864l4.13432,-9.50894z" fill="#b3b3b3" stroke="none" stroke-width="1" stroke-linejoin="miter"/></g><g><path d="M273.58608,112.0632h-8.26865l4.13432,-9.50894z" fill="none" stroke="#000000" stroke-width="4" stroke-linejoin="round"/><path d="M273.58608,112.0632h-8.26865l4.13432,-9.50894z" fill="#b3b3b3" stroke="none" stroke-width="1" stroke-linejoin="miter"/></g><g><path d="M249.82849,111.7236h-8.26864l4.13432,-9.50894z" fill="none" stroke="#000000" stroke-width="4" stroke-linejoin="round"/><path d="M249.82849,111.7236h-8.26864l4.13432,-9.50894z" fill="#b3b3b3" stroke="none" stroke-width="1" stroke-linejoin="miter"/></g><g><path d="M233.95366,118.70223l0.22383,8.26561l-9.61738,-3.87541z" fill="none" stroke="#000000" stroke-width="4" stroke-linejoin="round"/><path d="M233.95366,118.70223l0.22383,8.26561l-9.61738,-3.87541z" fill="#b3b3b3" stroke="none" stroke-width="1" stroke-linejoin="miter"/></g><g><path d="M239.81902,111.32312l-5.44173,6.22561l-4.43858,-9.37079z" fill="none" stroke="#000000" stroke-width="4" stroke-linejoin="round"/><path d="M239.81902,111.32312l-5.44173,6.22561l-4.43858,-9.37079z" fill="#b3b3b3" stroke="none" stroke-width="1" stroke-linejoin="miter"/></g><g><path d="M233.92154,130.06189l0.22383,8.26561l-9.61738,-3.87541z" fill="none" stroke="#000000" stroke-width="4" stroke-linejoin="round"/><path d="M233.92154,130.06189l0.22383,8.26561l-9.61738,-3.87541z" fill="#b3b3b3" stroke="none" stroke-width="1" stroke-linejoin="miter"/></g><g data-paper-data="{&quot;index&quot;:null}"><g><path d="M266.05188,141.85554l-8.00116,7.43586l-3.81608,-4.10618l-5.6008,5.2051l3.05288,3.28495l-1.60023,1.48717l-3.05288,-3.28494l-2.40035,2.23076l3.81608,4.10619l-3.20045,2.97434l-5.34251,-5.74866l12.80183,-11.89737l-3.81607,-4.10618l8.00116,-7.43586zM254.34535,140.49076l3.05287,3.28495l3.20046,-2.97434l-3.05287,-3.28495z" fill="none" stroke="#000000" stroke-width="4" stroke-linejoin="round"/><path d="M266.05188,141.85554l-8.00116,7.43586l-3.81608,-4.10618l-5.6008,5.2051l3.05288,3.28495l-1.60023,1.48717l-3.05288,-3.28494l-2.40035,2.23076l3.81608,4.10619l-3.20045,2.97434l-5.34251,-5.74866l12.80183,-11.89737l-3.81607,-4.10618l8.00116,-7.43586zM254.34535,140.49076l3.05287,3.28495l3.20046,-2.97434l-3.05287,-3.28495z" fill="#f97b3d" stroke="none" stroke-width="1" stroke-linejoin="miter"/></g><g><path d="M251.14895,157.87176l-5.07272,9.67356l-4.96447,-2.6033l-3.55089,6.7715l3.97159,2.08265l-1.01454,1.93471l-3.97159,-2.08265l-1.52181,2.90208l4.96447,2.60331l-2.02907,3.86944l-6.95027,-3.64463l8.11632,-15.47772l-4.96447,-2.60331l5.0727,-9.67357zM239.65489,160.47798l3.97159,2.08265l2.02908,-3.86943l-3.97159,-2.08264z" fill="none" stroke="#000000" stroke-width="4" stroke-linejoin="round"/><path d="M251.14895,157.87176l-5.07272,9.67356l-4.96447,-2.6033l-3.55089,6.7715l3.97159,2.08265l-1.01454,1.93471l-3.97159,-2.08265l-1.52181,2.90208l4.96447,2.60331l-2.02907,3.86944l-6.95027,-3.64463l8.11632,-15.47772l-4.96447,-2.60331l5.0727,-9.67357zM239.65489,160.47798l3.97159,2.08265l2.02908,-3.86943l-3.97159,-2.08264z" fill="#903cfa" stroke="none" stroke-width="1" stroke-linejoin="miter"/></g><g><path d="M240.60312,178.3616l-0.68552,10.9014l-5.59458,-0.3518l-0.47986,7.63098l4.47568,0.28145l-0.1371,2.18028l-4.47568,-0.28144l-0.20565,3.27043l5.59458,0.3518l-0.27419,4.36056l-7.83243,-0.49252l1.09681,-17.44224l-5.59457,-0.35181l0.68552,-10.90139zM231.17191,185.42972l4.47568,0.28145l0.2742,-4.36056l-4.47568,-0.28144z" fill="none" stroke="#000000" stroke-width="4" stroke-linejoin="round"/><path d="M240.60312,178.3616l-0.68552,10.9014l-5.59458,-0.3518l-0.47986,7.63098l4.47568,0.28145l-0.1371,2.18028l-4.47568,-0.28144l-0.20565,3.27043l5.59458,0.3518l-0.27419,4.36056l-7.83243,-0.49252l1.09681,-17.44224l-5.59457,-0.35181l0.68552,-10.90139zM231.17191,185.42972l4.47568,0.28145l0.2742,-4.36056l-4.47568,-0.28144z" fill="#903cfa" stroke="none" stroke-width="1" stroke-linejoin="miter"/></g></g><path d="M240.05704,140.6328v-14h18v14z" fill="#000000" stroke="none" stroke-width="1" stroke-linejoin="miter"/><path d="M276.05704,140.6328v14h-42v-14h32v-3c0,-1.10457 0.89543,-2 2,-2h3c1.10457,0 2,0.89543 2,2v3z" fill="#7a1cbe" stroke="#000000" stroke-width="2" stroke-linejoin="miter"/><g><g stroke="none" stroke-linejoin="miter"><path d="M275.80704,140.6328h-42v-22c0,-3.31371 2.68629,-6 6,-6h30c3.31371,0 6,2.68629 6,6z" fill="#9500ff" stroke-width="1"/><path d="M276.80704,141.6328h-44v-23c0,-3.86599 3.13401,-7 7,-7h30c3.86599,0 7,3.13401 7,7zM234.80704,139.6328h40v-21c0,-2.76143 -2.23858,-5 -5,-5h-30c-2.76143,0 -5,2.23857 -5,5z" fill="#000000" stroke-width="1"/><path d="M234.76062,118.61423c0,-2.76143 2.24721,-5.01418 5.00864,-5.01418h30.07557c2.76142,0 5.00864,2.25275 5.00864,5.01418l-0.0045,21.04582h-40.08384z" data-paper-data="{&quot;noHover&quot;:false,&quot;origItem&quot;:[&quot;Path&quot;,{&quot;applyMatrix&quot;:true,&quot;segments&quot;:[[219.75,164],[259.75,164],[[259.75,143],[0,0],[0,-2.76143]],[[254.75,138],[2.76142,0],[0,0]],[[224.75,138],[0,0],[-2.76143,0]],[[219.75,143],[0,-2.76143],[0,0]]],&quot;closed&quot;:true,&quot;fillColor&quot;:[0,0,0,1]}]}" fill="#9500ff" stroke-width="0.5"/></g><path d="M267.80704,132.6328h-10v-10l10,2z" fill="#ffffff" stroke="#ffffff" stroke-width="2" stroke-linejoin="round"/><path d="M261.80704,131.6328v-6h6v6z" fill="#000000" stroke="none" stroke-width="1" stroke-linejoin="miter"/></g><g data-paper-data="{&quot;index&quot;:null}"><g><path d="M251.86496,146.04246l-8.00116,7.43585l-3.81607,-4.10618l-5.6008,5.2051l3.05287,3.28495l-1.60023,1.48717l-3.05287,-3.28495l-2.40035,2.23076l3.81607,4.10619l-3.20045,2.97434l-5.34252,-5.74866l12.80183,-11.89737l-3.81607,-4.10618l8.00116,-7.43585zM240.15843,144.67768l3.05287,3.28496l3.20046,-2.97434l-3.05287,-3.28496z" fill="none" stroke="#000000" stroke-width="4" stroke-linejoin="round"/><path d="M251.86496,146.04246l-8.00116,7.43585l-3.81607,-4.10618l-5.6008,5.2051l3.05287,3.28495l-1.60023,1.48717l-3.05287,-3.28495l-2.40035,2.23076l3.81607,4.10619l-3.20045,2.97434l-5.34252,-5.74866l12.80183,-11.89737l-3.81607,-4.10618l8.00116,-7.43585zM240.15843,144.67768l3.05287,3.28496l3.20046,-2.97434l-3.05287,-3.28496z" fill="#903cfa" stroke="none" stroke-width="1" stroke-linejoin="miter"/></g><g><path d="M236.96203,162.05867l-5.07272,9.67356l-4.96447,-2.6033l-3.55089,6.7715l3.97159,2.08265l-1.01454,1.93471l-3.97159,-2.08265l-1.52181,2.90208l4.96447,2.60331l-2.02907,3.86943l-6.95027,-3.64463l8.11632,-15.47772l-4.96447,-2.60331l5.07271,-9.67357zM225.46797,164.66489l3.97159,2.08265l2.02908,-3.86943l-3.97159,-2.08264z" fill="none" stroke="#000000" stroke-width="4" stroke-linejoin="round"/><path d="M236.96203,162.05867l-5.07272,9.67356l-4.96447,-2.6033l-3.55089,6.7715l3.97159,2.08265l-1.01454,1.93471l-3.97159,-2.08265l-1.52181,2.90208l4.96447,2.60331l-2.02907,3.86943l-6.95027,-3.64463l8.11632,-15.47772l-4.96447,-2.60331l5.07271,-9.67357zM225.46797,164.66489l3.97159,2.08265l2.02908,-3.86943l-3.97159,-2.08264z" fill="#903cfa" stroke="none" stroke-width="1" stroke-linejoin="miter"/></g><g><path d="M226.4162,182.54853l-0.68552,10.9014l-5.59459,-0.3518l-0.47986,7.63098l4.47568,0.28145l-0.1371,2.18028l-4.47568,-0.28145l-0.20565,3.27043l5.59459,0.3518l-0.27419,4.36056l-7.83243,-0.49252l1.09681,-17.44223l-5.59458,-0.35181l0.68552,-10.90139zM216.98499,189.61664l4.47568,0.28145l0.2742,-4.36056l-4.47568,-0.28144z" fill="none" stroke="#000000" stroke-width="4" stroke-linejoin="round"/><path d="M226.4162,182.54853l-0.68552,10.9014l-5.59459,-0.3518l-0.47986,7.63098l4.47568,0.28145l-0.1371,2.18028l-4.47568,-0.28145l-0.20565,3.27043l5.59459,0.3518l-0.27419,4.36056l-7.83243,-0.49252l1.09681,-17.44223l-5.59458,-0.35181l0.68552,-10.90139zM216.98499,189.61664l4.47568,0.28145l0.2742,-4.36056l-4.47568,-0.28144z" fill="#903cfa" stroke="none" stroke-width="1" stroke-linejoin="miter"/></g></g></g></g></svg>