<svg version="1.1" xmlns="http://www.w3.org/2000/svg" xmlns:xlink="http://www.w3.org/1999/xlink" width="49.1366" height="71.06297" viewBox="0,0,49.1366,71.06297"><g transform="translate(-212.8634,-108.93703)"><g data-paper-data="{&quot;isPaintingLayer&quot;:true}" fill-rule="nonzero" stroke-linecap="butt" stroke-miterlimit="10" stroke-dasharray="" stroke-dashoffset="0" style="mix-blend-mode: normal"><g><g><path d="M251.10871,120.38901c-0.28491,6.88411 -4.40553,9.71614 -9.40126,9.50939c-4.99573,-0.20675 -8.86825,-3.3696 -8.58334,-10.2537c0.25265,-6.10477 6.33022,-7.85495 9.24495,-5.73262c3.08014,-1.87424 8.9923,0.37216 8.73965,6.47693z" fill="#ffff24" stroke="#000000" stroke-width="2" stroke-linejoin="round"/><path d="M244.07453,108.97838c-0.05169,1.24893 -1.70547,4.9337 -1.70547,4.9337" fill="none" stroke="#000000" stroke-width="2" stroke-linejoin="round"/><path d="M235.20965,117.6192c0.06851,-1.65543 1.46605,-2.94189 3.12148,-2.87338c1.65543,0.06851 2.94189,1.46605 2.87338,3.12148c-0.06851,1.65543 -1.46605,2.9419 -3.12148,2.87339c-1.65543,-0.06851 -2.9419,-1.46605 -2.87338,-3.12149z" fill="#ffffff" stroke="none" stroke-width="1" stroke-linejoin="miter"/></g><g><path d="M230.85948,119.50081c4.28942,5.39193 3.02681,10.22988 -0.88606,13.34267c-3.91287,3.11279 -8.91084,3.2553 -13.20026,-2.13663c-3.80383,-4.78152 -0.3535,-10.08202 3.23934,-10.38455c1.10261,-3.43282 7.04316,-5.60302 10.84699,-0.82149z" fill="#ffff24" stroke="#000000" stroke-width="2" stroke-linejoin="round"/><path d="M218.07356,115.4756c0.7782,0.97822 1.93893,4.84671 1.93893,4.84671" fill="none" stroke="#000000" stroke-width="2" stroke-linejoin="round"/><path d="M217.0247,127.81051c-1.03148,-1.29661 -0.81656,-3.18391 0.48005,-4.21539c1.29661,-1.03148 3.18391,-0.81657 4.21539,0.48004c1.03148,1.29661 0.81656,3.18392 -0.48005,4.2154c-1.29661,1.03148 -3.18391,0.81656 -4.21539,-0.48005z" fill="#ffffff" stroke="none" stroke-width="1" stroke-linejoin="miter"/></g></g><path d="M225,165v-14h18v14z" fill="#000000" stroke="none" stroke-width="1" stroke-linejoin="miter"/><path d="M261,165v14h-42v-14h32v-3c0,-1.10457 0.89543,-2 2,-2h3c1.10457,0 2,0.89543 2,2v3z" fill="#828212" stroke="#000000" stroke-width="2" stroke-linejoin="miter"/><g><g stroke="none" stroke-linejoin="miter"><path d="M260.1865,148.81025l-40.69628,10.38329l-5.43886,-21.3171c-0.81922,-3.21084 1.11958,-6.47786 4.33043,-7.29709l29.06877,-7.41663c3.21084,-0.81922 6.47786,1.11958 7.29709,4.33043z" fill="#9500ff" stroke-width="1"/><path d="M261.40267,149.53198l-42.63421,10.87774l-5.68609,-22.28606c-0.95575,-3.74599 1.30618,-7.5575 5.05217,-8.51326l29.06877,-7.41663c3.74599,-0.95575 7.5575,1.30618 8.51326,5.05217zM220.21195,157.97736l38.75837,-9.88885l-5.19165,-20.34814c-0.68268,-2.67571 -3.40521,-4.29137 -6.0809,-3.6087l-29.06877,7.41663c-2.67571,0.68268 -4.29137,3.4052 -3.6087,6.0809z" fill="#000000" stroke-width="1"/><path d="M214.97088,137.62164c-0.68267,-2.6757 0.93797,-5.41358 3.61368,-6.09626l29.14016,-7.43583c2.67569,-0.68267 5.4106,0.94423 6.09328,3.61994l5.19991,20.39436l-38.841,9.90917z" data-paper-data="{&quot;noHover&quot;:false,&quot;origItem&quot;:[&quot;Path&quot;,{&quot;applyMatrix&quot;:true,&quot;segments&quot;:[[220.21195,157.97736],[258.97032,148.08851],[[253.77867,127.74037],[0,0],[-0.68268,-2.67571]],[[247.69777,124.13167],[2.67569,-0.68267],[0,0]],[[218.629,131.5483],[0,0],[-2.67571,0.68268]],[[215.0203,137.6292],[-0.68267,-2.6757],[0,0]]],&quot;closed&quot;:true,&quot;fillColor&quot;:[0,0,0,1]}]}" fill="#ffff24" stroke-width="0.5"/></g><path d="M250.45705,143.03635l-9.68959,2.47221l-2.47221,-9.68959l10.18403,-0.53429z" fill="#ffffff" stroke="#ffffff" stroke-width="2" stroke-linejoin="round"/><path d="M244.39609,143.55072l-1.48332,-5.81376l5.81376,-1.48332l1.48332,5.81376z" fill="#000000" stroke="none" stroke-width="1" stroke-linejoin="miter"/></g></g></g></svg>