<svg version="1.1" xmlns="http://www.w3.org/2000/svg" xmlns:xlink="http://www.w3.org/1999/xlink" width="31.79401" height="39.57932" viewBox="0,0,31.79401,39.57932"><g transform="translate(-219.69804,-140.37526)"><g data-paper-data="{&quot;isPaintingLayer&quot;:true}" fill-rule="nonzero" stroke-linecap="butt" stroke-miterlimit="10" stroke-dasharray="" stroke-dashoffset="0" style="mix-blend-mode: normal"><g><path d="M244.53208,149.50036c1.72773,6.66986 -1.39218,10.57704 -6.23243,11.83085c-4.84025,1.2538 -9.46473,-0.64732 -11.19246,-7.31718c-1.53214,-5.91478 3.77464,-9.35543 7.18031,-8.17161c2.40263,-2.68838 8.71245,-2.25684 10.24459,3.65794z" fill="#ffff24" stroke="#000000" stroke-width="2" stroke-linejoin="round"/><path d="M234.48577,140.62602c0.31345,1.21006 -0.19827,5.21639 -0.19827,5.21639" fill="none" stroke="#000000" stroke-width="2" stroke-linejoin="round"/><path d="M228.51419,151.46993c-0.41547,-1.60392 0.54796,-3.24096 2.15187,-3.65643c1.60392,-0.41547 3.24096,0.54796 3.65643,2.15187c0.41547,1.60392 -0.54796,3.24096 -2.15187,3.65643c-1.60392,0.41547 -3.24096,-0.54796 -3.65643,-2.15187z" fill="#ffffff" stroke="none" stroke-width="1" stroke-linejoin="miter"/></g><g><path d="M228.84315,154.19216l-1.79332,5.43344l-5.35179,-4.77904z" fill="none" stroke="#000000" stroke-width="4" stroke-linejoin="round"/><path d="M228.84315,154.19216l-1.79332,5.43344l-5.35179,-4.77904z" fill="#b3b3b3" stroke="none" stroke-width="1" stroke-linejoin="miter"/></g><g><path d="M233.30386,151.79009l-4.91576,2.92807l-0.9094,-7.11715z" fill="none" stroke="#000000" stroke-width="4" stroke-linejoin="round"/><path d="M233.30386,151.79009l-4.91576,2.92807l-0.9094,-7.11715z" fill="#b3b3b3" stroke="none" stroke-width="1" stroke-linejoin="miter"/></g><g><path d="M247.81622,151.07922l-5.60577,-1.14615l4.12095,-5.87356z" fill="none" stroke="#000000" stroke-width="4" stroke-linejoin="round"/><path d="M247.81622,151.07922l-5.60577,-1.14615l4.12095,-5.87356z" fill="#b3b3b3" stroke="none" stroke-width="1" stroke-linejoin="miter"/></g><path d="M231.79205,171.65458v-7h11v7z" fill="#000000" stroke="none" stroke-width="1" stroke-linejoin="miter"/><path d="M229.49205,178.95458v-7h21v7z" fill="#828212" stroke="#000000" stroke-width="2" stroke-linejoin="miter"/><g><g stroke="none" stroke-linejoin="miter"><path d="M250.22239,162.50618l-20.5444,4.35058l-1.65736,-7.82644c-0.6865,-3.24182 1.38499,-6.42635 4.62681,-7.11285l8.80474,-1.86453c3.24182,-0.6865 6.42635,1.38499 7.11285,4.62681z" fill="#ff7800" stroke-width="1"/><path d="M251.40787,163.27731l-22.50101,4.76492l-1.86453,-8.80474c-0.80092,-3.78212 1.61582,-7.49741 5.39794,-8.29833l8.80474,-1.86453c3.78212,-0.80092 7.49741,1.61582 8.29833,5.39794zM230.44913,165.67128l18.58779,-3.93624l-1.45019,-6.84813c-0.57209,-2.70152 -3.22586,-4.42776 -5.92738,-3.85567l-8.80474,1.86453c-2.70152,0.57209 -4.42776,3.22586 -3.85567,5.92738z" fill="#000000" stroke-width="1"/><path d="M228.94901,158.82579c-0.57209,-2.70152 1.16662,-5.39105 3.86814,-5.96314l8.85959,-1.87829c2.70152,-0.57209 5.38439,1.18264 5.95648,3.88416l1.45101,6.88267l-18.6729,3.95282z" data-paper-data="{&quot;noHover&quot;:false,&quot;origItem&quot;:[&quot;Path&quot;,{&quot;applyMatrix&quot;:true,&quot;segments&quot;:[[230.44913,165.67128],[249.03692,161.73504],[[247.58673,154.88691],[0,0],[-0.57209,-2.70152]],[[241.65935,151.03124],[2.70152,-0.57209],[0,0]],[[232.85461,152.89577],[0,0],[-2.70152,0.57209]],[[228.99894,158.82315],[-0.57209,-2.70152],[0,0]]],&quot;closed&quot;:true,&quot;fillColor&quot;:[0,0,0,1]}]}" fill="#ffff24" stroke-width="0.5"/></g><path d="M239.61066,160.66466l-1.03585,-4.89152l4.89152,-1.03585l1.03585,4.89152z" fill="#ffffff" stroke="#ffffff" stroke-width="2" stroke-linejoin="round"/><path d="M241.3601,159.27202l-0.62151,-2.93491l2.93491,-0.62151l0.62151,2.93491z" fill="#000000" stroke="none" stroke-width="1" stroke-linejoin="miter"/></g></g></g></svg>