<svg version="1.1" xmlns="http://www.w3.org/2000/svg" xmlns:xlink="http://www.w3.org/1999/xlink" width="54" height="53.88124" viewBox="0,0,54,53.88124"><g transform="translate(-213,-159.8)"><g data-paper-data="{&quot;isPaintingLayer&quot;:true}" fill-rule="nonzero" stroke-linecap="butt" stroke-miterlimit="10" stroke-dasharray="" stroke-dashoffset="0" style="mix-blend-mode: normal"><g><path d="M215.64108,212.52537l9.35892,-50.72537l9.42223,51.06847" fill="none" stroke="#000000" stroke-width="4" stroke-linejoin="round"/><path d="M225,161.8l9.42223,51.06847c-0.9309,-0.06979 -1.84152,-0.15795 -2.72223,-0.26847c-3.38186,-0.42439 -11.45408,-1.52101 -16.05892,-0.07463z" fill="#b3b3b3" stroke="none" stroke-width="1" stroke-linejoin="miter"/></g><g><path d="M245.5378,213.08515l9.4622,-51.28515l9.50523,51.51836" fill="none" stroke="#000000" stroke-width="4" stroke-linejoin="round"/><path d="M255,161.8l9.50523,51.51836c-4.28231,-0.19187 -8.57623,-0.34819 -12.91591,-0.31836c-1.85533,0.01275 -3.91002,0.05666 -6.05153,0.08515z" fill="#b3b3b3" stroke="none" stroke-width="1" stroke-linejoin="miter"/></g><g><path d="M235,207h-20z" fill="none" stroke="#000000" stroke-width="4" stroke-linejoin="round"/><path d="M235,207h-20z" fill="#b3b3b3" stroke="none" stroke-width="1" stroke-linejoin="miter"/></g><g><path d="M265,207h-20z" fill="none" stroke="#000000" stroke-width="4" stroke-linejoin="round"/><path d="M265,207h-20z" fill="#b3b3b3" stroke="none" stroke-width="1" stroke-linejoin="miter"/></g></g></g></svg>