<svg version="1.1" xmlns="http://www.w3.org/2000/svg" xmlns:xlink="http://www.w3.org/1999/xlink" width="44.00664" height="27.66063" viewBox="0,0,44.00664,27.66063"><g transform="translate(-207.49336,-152.29168)"><g stroke-miterlimit="10"><g><path d="M231.28879,162.48348l-2.55403,5.12008l-4.61108,-5.49718z" fill="none" stroke="#000000" stroke-width="4" stroke-linejoin="round"/><path d="M231.28879,162.48348l-2.55403,5.12008l-4.61108,-5.49718z" fill="#b3b3b3" stroke="none" stroke-width="1" stroke-linejoin="miter"/></g><g><path d="M238.88844,160.87168h-5.72174l2.86087,-6.58z" fill="none" stroke="#000000" stroke-width="4" stroke-linejoin="round"/><path d="M238.88844,160.87168h-5.72174l2.86087,-6.58z" fill="#b3b3b3" stroke="none" stroke-width="1" stroke-linejoin="miter"/></g><g><path d="M247.47104,160.87168h-5.72174l2.86087,-6.58z" fill="none" stroke="#000000" stroke-width="4" stroke-linejoin="round"/><path d="M247.47104,160.87168h-5.72174l2.86087,-6.58z" fill="#b3b3b3" stroke="none" stroke-width="1" stroke-linejoin="miter"/></g><path d="M208.50001,178.94762c-0.43874,0.2169 21,-7.16667 21,-7.16667h21v7c0,0 -41.70622,0.02143 -42,0.16667z" fill="#ffff00" stroke="#000000" stroke-width="2" stroke-linejoin="miter"/><path d="M235.50001,160.94762h9c3.31371,0 6,2.11066 6,4.71429v6.28571h-21v-6.28571c0,-2.60363 2.68629,-4.71429 6,-4.71429z" fill="#b7b700" stroke="#000000" stroke-width="2" stroke-linejoin="miter"/><path d="M242.00001,168.94762v-5h5v5z" fill="#ffffff" stroke="#ffffff" stroke-width="2" stroke-linejoin="round"/><path d="M244.00001,167.94762v-3h3v3z" fill="#000000" stroke="none" stroke-width="1" stroke-linejoin="miter"/></g></g></svg>