<svg version="1.1" xmlns="http://www.w3.org/2000/svg" xmlns:xlink="http://www.w3.org/1999/xlink" width="66" height="203.41667" viewBox="0,0,66,203.41667"><g transform="translate(-207,-27.58336)"><g data-paper-data="{&quot;isPaintingLayer&quot;:true}" fill-rule="nonzero" stroke-linecap="butt" stroke-miterlimit="10" stroke-dasharray="" stroke-dashoffset="0" style="mix-blend-mode: normal"><path d="M226.23256,153.00002v-125.41666h27.53488v125.41667z" fill="#000000" stroke="none" stroke-width="NaN" stroke-linejoin="miter"/><path d="M221.5,141.50002v-13h37v13z" fill="#000000" stroke="none" stroke-width="0" stroke-linejoin="miter"/><path d="M221.5,121.50003v-13h37v13z" fill="#000000" stroke="none" stroke-width="0" stroke-linejoin="miter"/><path d="M221.5,96.50003v-13h37v13z" fill="#000000" stroke="none" stroke-width="0" stroke-linejoin="miter"/><path d="M221.5,76.50003v-13h37v13z" fill="#000000" stroke="none" stroke-width="0" stroke-linejoin="miter"/><path d="M221.5,51.50003v-13h37v13z" fill="#000000" stroke="none" stroke-width="0" stroke-linejoin="miter"/><g><g><path d="M209,211.00003v-62h62v62z" fill="none" stroke="#000000" stroke-width="4" stroke-linejoin="round"/><path d="M209,211.00003v-62h62v62z" fill="#39b54a" stroke="none" stroke-width="1" stroke-linejoin="miter"/></g><path d="M218,202.00003v-44h44v44z" fill="#3ac54d" stroke="none" stroke-width="1" stroke-linejoin="miter"/><g><path d="M254.09,213.00003h16l-8,16z" fill="none" stroke="#000000" stroke-width="4" stroke-linejoin="round"/><path d="M254.09,213.00003h16l-8,16z" fill="#b3b3b3" stroke="none" stroke-width="1" stroke-linejoin="miter"/></g><g><path d="M210.09,213.00003h16l-8,16z" fill="none" stroke="#000000" stroke-width="4" stroke-linejoin="round"/><path d="M210.09,213.00003h16l-8,16z" fill="#b3b3b3" stroke="none" stroke-width="1" stroke-linejoin="miter"/></g><g><path d="M232.09,213.00003h16l-8,16z" fill="none" stroke="#000000" stroke-width="4" stroke-linejoin="round"/><path d="M232.09,213.00003h16l-8,16z" fill="#b3b3b3" stroke="none" stroke-width="1" stroke-linejoin="miter"/></g></g><path d="M261,201.00003h-42v-1l21,1l21,-1z" fill="#ffffff" stroke="#000000" stroke-width="2" stroke-linejoin="round"/><path d="M209,180.91988v-31.91988h62v31.91988l-16.71247,-11.88213l-7.93777,9.33262l-9.22192,-20.36584l-3.66921,15.47668l-8.72326,-10.14918l-4.84518,12.16317l-4.38202,-4.51004z" fill="#00ffff" stroke="none" stroke-width="0" stroke-linejoin="round"/><path d="M209,174.43471v-25.43471h62v25.43471l-16.71247,-9.46804l-7.93777,7.43652l-9.22192,-16.22811l-3.66921,12.33228l-8.72326,-8.08717l-4.84518,9.69197l-4.38202,-3.59373z" fill="#a3ffff" stroke="none" stroke-width="0" stroke-linejoin="round"/><path d="M218,173.57567v-15.85163h44v16.95549l-7.57605,-5.23073l-7.85727,10.42843l-9.04288,-18.89686l-2.43264,11.51231l-2.95861,2.70863l-6.44782,-9.56087l-3.96322,11.98941z" fill="#b8ffff" stroke="none" stroke-width="1" stroke-linejoin="miter"/><path d="M209,169.19139v-20.19139h62v20.19139l-16.71247,-7.51622l-7.93777,5.90349l-8.53201,-8.74325l-4.35912,5.65054l-8.72326,-6.42001l-4.84518,7.69399l-4.38202,-2.85289z" fill="#ffffff" stroke="none" stroke-width="0" stroke-linejoin="round"/></g></g></svg>