<svg version="1.1" xmlns="http://www.w3.org/2000/svg" xmlns:xlink="http://www.w3.org/1999/xlink" width="102.1724" height="203.41665" viewBox="0,0,102.1724,203.41665"><g transform="translate(-188.9138,-27.58341)"><g data-paper-data="{&quot;isPaintingLayer&quot;:true}" fill-rule="nonzero" stroke-linecap="butt" stroke-miterlimit="10" stroke-dasharray="" stroke-dashoffset="0" style="mix-blend-mode: normal"><path d="M226.23256,153.00007v-125.41666h27.53488v125.41667z" fill="#000000" stroke="none" stroke-width="NaN" stroke-linejoin="miter"/><g><path d="M209,211.00004v-62h62v62z" fill="none" stroke="#000000" stroke-width="4" stroke-linejoin="round"/><path d="M209,211.00004v-62h62v62z" fill="#b53e39" stroke="none" stroke-width="1" stroke-linejoin="miter"/></g><path d="M218,202.00004v-44h44v44z" fill="#c53f3a" stroke="none" stroke-width="1" stroke-linejoin="miter"/><path d="M221.5,141.5v-13h37v13z" fill="#000000" stroke="none" stroke-width="0" stroke-linejoin="miter"/><path d="M221.5,121.50007v-13h37v13z" fill="#000000" stroke="none" stroke-width="0" stroke-linejoin="miter"/><path d="M221.5,96.50007v-13h37v13z" fill="#000000" stroke="none" stroke-width="0" stroke-linejoin="miter"/><path d="M221.5,76.50004v-13h37v13z" fill="#000000" stroke="none" stroke-width="0" stroke-linejoin="miter"/><path d="M221.5,51.50006v-13h37v13z" fill="#000000" stroke="none" stroke-width="0" stroke-linejoin="miter"/><path d="M262,202.00006h-44l-0.19117,-34.18411l22.19117,18.18411l21.80883,-18.18411z" fill="#ffffff" stroke="none" stroke-width="1" stroke-linejoin="miter"/><path d="M224,202.00006v-9h9v9z" fill="#000000" stroke="none" stroke-width="1" stroke-linejoin="miter"/><path d="M247,202.00006v-9h9v9z" fill="#000000" stroke="none" stroke-width="1" stroke-linejoin="miter"/><g><path d="M254.09,213.00006h16l-8,16z" fill="none" stroke="#000000" stroke-width="4" stroke-linejoin="round"/><path d="M254.09,213.00006h16l-8,16z" fill="#b3b3b3" stroke="none" stroke-width="1" stroke-linejoin="miter"/></g><g><path d="M210.09,213.00006h16l-8,16z" fill="none" stroke="#000000" stroke-width="4" stroke-linejoin="round"/><path d="M210.09,213.00006h16l-8,16z" fill="#b3b3b3" stroke="none" stroke-width="1" stroke-linejoin="miter"/></g><g><path d="M232.09,213.00006h16l-8,16z" fill="none" stroke="#000000" stroke-width="4" stroke-linejoin="round"/><path d="M232.09,213.00006h16l-8,16z" fill="#b3b3b3" stroke="none" stroke-width="1" stroke-linejoin="miter"/></g><g><path d="M225.91,146.91384h-16l8,-16z" fill="none" stroke="#000000" stroke-width="4" stroke-linejoin="round"/><path d="M225.91,146.91384h-16l8,-16z" fill="#b3b3b3" stroke="none" stroke-width="1" stroke-linejoin="miter"/></g><g><path d="M269.91,146.91384h-16l8,-16z" fill="none" stroke="#000000" stroke-width="4" stroke-linejoin="round"/><path d="M269.91,146.91384h-16l8,-16z" fill="#b3b3b3" stroke="none" stroke-width="1" stroke-linejoin="miter"/></g><g><path d="M247.91,146.91384h-16l8,-16z" fill="none" stroke="#000000" stroke-width="4" stroke-linejoin="round"/><path d="M247.91,146.91384h-16l8,-16z" fill="#b3b3b3" stroke="none" stroke-width="1" stroke-linejoin="miter"/></g><g><path d="M206.9138,194.09004v16l-16,-8z" fill="none" stroke="#000000" stroke-width="4" stroke-linejoin="round"/><path d="M206.9138,194.09004v16l-16,-8z" fill="#b3b3b3" stroke="none" stroke-width="1" stroke-linejoin="miter"/></g><g><path d="M206.9138,150.09004v16l-16,-8z" fill="none" stroke="#000000" stroke-width="4" stroke-linejoin="round"/><path d="M206.9138,150.09004v16l-16,-8z" fill="#b3b3b3" stroke="none" stroke-width="1" stroke-linejoin="miter"/></g><g><path d="M206.9138,172.09004v16l-16,-8z" fill="none" stroke="#000000" stroke-width="4" stroke-linejoin="round"/><path d="M206.9138,172.09004v16l-16,-8z" fill="#b3b3b3" stroke="none" stroke-width="1" stroke-linejoin="miter"/></g><g><path d="M273.0862,165.91001v-16l16,8z" fill="none" stroke="#000000" stroke-width="4" stroke-linejoin="round"/><path d="M273.0862,165.91001v-16l16,8z" fill="#b3b3b3" stroke="none" stroke-width="1" stroke-linejoin="miter"/></g><g><path d="M273.0862,209.91006v-16l16,8z" fill="none" stroke="#000000" stroke-width="4" stroke-linejoin="round"/><path d="M273.0862,209.91006v-16l16,8z" fill="#b3b3b3" stroke="none" stroke-width="1" stroke-linejoin="miter"/></g><g><path d="M273.0862,187.91006v-16l16,8z" fill="none" stroke="#000000" stroke-width="4" stroke-linejoin="round"/><path d="M273.0862,187.91006v-16l16,8z" fill="#b3b3b3" stroke="none" stroke-width="1" stroke-linejoin="miter"/></g></g></g></svg>