<svg version="1.1" xmlns="http://www.w3.org/2000/svg" xmlns:xlink="http://www.w3.org/1999/xlink" width="163.23584" height="163.50942" viewBox="0,0,163.23584,163.50942"><g transform="translate(-158.34907,-98.05662)"><g data-paper-data="{&quot;isPaintingLayer&quot;:true}" fill-rule="nonzero" stroke-linecap="butt" stroke-miterlimit="10" stroke-dasharray="" stroke-dashoffset="0" style="mix-blend-mode: normal"><g data-paper-data="{&quot;index&quot;:null}"><path d="M187.93397,259.56604l-8,-16h16z" fill="none" stroke="#000000" stroke-width="4" stroke-linejoin="round"/><path d="M187.93397,259.56604l-8,-16h16z" fill="#b3b3b3" stroke="none" stroke-width="1" stroke-linejoin="miter"/></g><g data-paper-data="{&quot;index&quot;:null}"><path d="M230.76418,259.56604l-8,-16h16z" fill="none" stroke="#000000" stroke-width="4" stroke-linejoin="round"/><path d="M230.76418,259.56604l-8,-16h16z" fill="#b3b3b3" stroke="none" stroke-width="1" stroke-linejoin="miter"/></g><g data-paper-data="{&quot;index&quot;:null}"><path d="M209.93397,259.56604l-8,-16h16z" fill="none" stroke="#000000" stroke-width="4" stroke-linejoin="round"/><path d="M209.93397,259.56604l-8,-16h16z" fill="#b3b3b3" stroke="none" stroke-width="1" stroke-linejoin="miter"/></g><g data-paper-data="{&quot;index&quot;:null}"><path d="M319.58491,232.00003l-16,8v-16z" fill="none" stroke="#000000" stroke-width="4" stroke-linejoin="round"/><path d="M319.58491,232.00003l-16,8v-16z" fill="#b3b3b3" stroke="none" stroke-width="1" stroke-linejoin="miter"/></g><g data-paper-data="{&quot;index&quot;:null}"><path d="M319.58491,189.16983l-16,8v-16z" fill="none" stroke="#000000" stroke-width="4" stroke-linejoin="round"/><path d="M319.58491,189.16983l-16,8v-16z" fill="#b3b3b3" stroke="none" stroke-width="1" stroke-linejoin="miter"/></g><g data-paper-data="{&quot;index&quot;:null}"><path d="M319.58491,210.00003l-16,8v-16z" fill="none" stroke="#000000" stroke-width="4" stroke-linejoin="round"/><path d="M319.58491,210.00003l-16,8v-16z" fill="#b3b3b3" stroke="none" stroke-width="1" stroke-linejoin="miter"/></g><g data-paper-data="{&quot;index&quot;:null}"><path d="M291.93397,100.05663l8,16h-16z" fill="none" stroke="#000000" stroke-width="4" stroke-linejoin="round"/><path d="M291.93397,100.05663l8,16h-16z" fill="#b3b3b3" stroke="none" stroke-width="1" stroke-linejoin="miter"/></g><g data-paper-data="{&quot;index&quot;:null}"><path d="M249.1038,100.05663l8,16h-16z" fill="none" stroke="#000000" stroke-width="4" stroke-linejoin="round"/><path d="M249.1038,100.05663l8,16h-16z" fill="#b3b3b3" stroke="none" stroke-width="1" stroke-linejoin="miter"/></g><g data-paper-data="{&quot;index&quot;:null}"><path d="M269.93397,100.05663l8,16h-16z" fill="none" stroke="#000000" stroke-width="4" stroke-linejoin="round"/><path d="M269.93397,100.05663l8,16h-16z" fill="#b3b3b3" stroke="none" stroke-width="1" stroke-linejoin="miter"/></g><g data-paper-data="{&quot;index&quot;:null}"><path d="M176.34908,161.07549v16l-16,-8z" fill="none" stroke="#000000" stroke-width="4" stroke-linejoin="round"/><path d="M176.34908,161.07549v16l-16,-8z" fill="#b3b3b3" stroke="none" stroke-width="1" stroke-linejoin="miter"/></g><g data-paper-data="{&quot;index&quot;:null}"><path d="M176.34908,120.00003v16l-16,-8z" fill="none" stroke="#000000" stroke-width="4" stroke-linejoin="round"/><path d="M176.34908,120.00003v16l-16,-8z" fill="#b3b3b3" stroke="none" stroke-width="1" stroke-linejoin="miter"/></g><g data-paper-data="{&quot;index&quot;:null}"><path d="M176.34908,142v16l-16,-8z" fill="none" stroke="#000000" stroke-width="4" stroke-linejoin="round"/><path d="M176.34908,142v16l-16,-8z" fill="#b3b3b3" stroke="none" stroke-width="1" stroke-linejoin="miter"/></g><g><path d="M179.00002,241.00002v-122h122v122z" fill="none" stroke="#000000" stroke-width="4" stroke-linejoin="round"/><path d="M179.00002,241.00002v-122h122v122z" fill="#b5ad39" stroke="none" stroke-width="1" stroke-linejoin="miter"/></g><path d="M188.00007,232.00005v-14h44v14z" fill="#c5bc3a" stroke="none" stroke-width="1" stroke-linejoin="miter"/><path d="M248.00007,232.00005v-14h44v14z" fill="#c5bc3a" stroke="none" stroke-width="1" stroke-linejoin="miter"/><path d="M188.00007,142v-14h44v14z" fill="#c5bc3a" stroke="none" stroke-width="1" stroke-linejoin="miter"/><path d="M248.00007,142v-14h44v14z" fill="#c5bc3a" stroke="none" stroke-width="1" stroke-linejoin="miter"/><path d="M188.00007,202.00005v-14h14v14z" fill="#c5bc3a" stroke="none" stroke-width="1" stroke-linejoin="miter"/><path d="M278.00003,202.00005v-14h14v14z" fill="#c5bc3a" stroke="none" stroke-width="1" stroke-linejoin="miter"/><path d="M188.00007,172.00005v-14h14v14z" fill="#c5bc3a" stroke="none" stroke-width="1" stroke-linejoin="miter"/><path d="M278.00003,172.00005v-14h14v14z" fill="#c5bc3a" stroke="none" stroke-width="1" stroke-linejoin="miter"/><path d="M218.00002,202.00002v-44h44v44z" fill="#ffffff" stroke="none" stroke-width="1" stroke-linejoin="miter"/><path d="M233.00002,187.00002v-14h14v14z" fill="#000000" stroke="none" stroke-width="1" stroke-linejoin="miter"/></g></g></svg>