<svg version="1.1" xmlns="http://www.w3.org/2000/svg" xmlns:xlink="http://www.w3.org/1999/xlink" width="48.85314" height="25.74189" viewBox="0,0,48.85314,25.74189"><g transform="translate(-215.57346,-164.25813)"><g data-paper-data="{&quot;isPaintingLayer&quot;:true}" fill-rule="nonzero" stroke-linecap="butt" stroke-miterlimit="10" stroke-dasharray="" stroke-dashoffset="0" style="mix-blend-mode: normal"><g data-paper-data="{&quot;index&quot;:null}" stroke-linejoin="miter"><path d="M230.61631,182.18409c-0.50716,-2.34421 0.67328,-4.66575 2.63658,-5.18529c1.9633,-0.51954 3.966,0.95965 4.47316,3.30387c0.50716,2.34422 -0.67327,4.66575 -2.63658,5.18529c-1.9633,0.51954 -3.966,-0.95965 -4.47316,-3.30387z" fill="#ffffff" stroke="#000000" stroke-width="2"/><path d="M229.03299,177.07118c-0.03934,-0.15374 1.32136,0.47552 1.32136,0.47552c0.18435,0.16046 0.7327,0.52635 0.80316,0.80195c0.46431,1.81589 -0.48245,3.52851 -2.16371,3.47772c-0.54408,-0.01643 -0.72638,-0.18161 -1.25959,-0.32153c-1.48167,-0.38879 -2.89931,-0.96874 -4.25524,-1.82865c-0.56429,-0.35787 -1.04023,-0.93918 -1.56025,-1.37976c-0.77417,-1.06598 -1.73304,-1.91854 -2.47337,-3.06242c-0.3939,-0.60861 -0.60379,-1.24858 -0.90933,-1.91018c-0.57338,-1.2416 -1.24851,-2.4317 -1.46279,-3.84914c-0.14481,-0.95785 -0.00847,-1.94075 0.13548,-2.85236c0.03883,-0.24588 -0.03116,-0.52275 0.05334,-0.75028c0.00753,-0.02029 0.01536,-0.04038 0.02345,-0.06029l-0.00975,-0.00395l0.16282,-0.61835c0.05792,-0.23974 0.23776,-0.41816 0.46215,-0.43062c0.22439,-0.01246 0.42731,0.14469 0.51766,0.37619l0.24635,0.59562l-0.01475,0.00809l0.03416,0.04467c0.34097,1.40344 0.77792,2.6575 1.54531,3.82932c0.77076,0.96252 1.42574,1.9315 2.31744,2.76271c1.09943,1.02487 2.35523,1.72961 3.51344,2.64365c0.94182,0.74327 1.93716,1.45891 2.97266,2.05209z" fill="#ffffff" stroke="#000000" stroke-width="1"/><path d="M227.28803,179.24137c-0.05189,-0.1223 1.04328,-0.34613 1.04328,-0.34613c0.17311,0.1025 0.38136,0.14558 0.51933,0.30748c0.14769,0.1733 0.20217,0.42898 0.29515,0.64822c0.61267,1.44451 0.10675,3.14102 -1.29518,3.39337c-0.45369,0.08166 -0.62568,-0.02516 -1.0858,-0.04917c-1.27856,-0.06672 -2.52788,-0.30533 -3.76103,-0.79002c-0.51318,-0.20172 -0.98102,-0.60671 -1.46781,-0.88571c-0.77603,-0.75995 -1.67865,-1.30815 -2.43634,-2.1395c-0.40314,-0.44234 -0.65746,-0.9433 -0.99387,-1.44568c-0.63134,-0.94278 -1.34069,-1.82442 -1.69595,-2.97798c-0.24007,-0.77952 -0.24992,-1.62944 -0.24452,-2.42076c0.00145,-0.21344 -0.09129,-0.43385 -0.04962,-0.63987c0.00371,-0.01837 0.0077,-0.03664 0.01193,-0.05478l-0.00859,-0.00162l0.05777,-0.5482c0.01808,-0.21163 0.14503,-0.39313 0.32972,-0.44298c0.1847,-0.04986 0.3728,0.04661 0.47678,0.2253l0.27903,0.45731l-0.01123,0.00938l0.03394,0.03154c0.45866,1.11956 0.97832,2.09674 1.76197,2.94683c0.76024,0.67361 1.42521,1.37296 2.26941,1.91501c1.04088,0.66834 2.17147,1.04021 3.24728,1.60509c0.87481,0.45935 1.79058,0.88609 2.72436,1.20285z" fill="#ffffff" stroke="#000000" stroke-width="1"/><path d="M225.62896,180.87174c-0.05762,-0.08248 0.73232,-0.4869 0.73232,-0.4869c0.1458,0.04152 0.30902,0.03012 0.43742,0.12455c0.13744,0.10109 0.21726,0.28503 0.32051,0.43291c0.68034,0.9743 0.55741,2.37957 -0.45899,2.87114c-0.32892,0.15909 -0.47455,0.11401 -0.82435,0.19364c-0.97204,0.22126 -1.94821,0.30484 -2.94957,0.19676c-0.41673,-0.04498 -0.83022,-0.25508 -1.23882,-0.3648c-0.69928,-0.41594 -1.46161,-0.64299 -2.15793,-1.11746c-0.37049,-0.25245 -0.6379,-0.58143 -0.96731,-0.89401c-0.61818,-0.5866 -1.28575,-1.10982 -1.72826,-1.91641c-0.29901,-0.54506 -0.43551,-1.19298 -0.55164,-1.79936c-0.03132,-0.16356 -0.13458,-0.31238 -0.13453,-0.47881c0,-0.01485 0.00023,-0.02965 0.00065,-0.04443l-0.0067,0.0006l-0.03981,-0.43158c-0.01855,-0.16571 0.0494,-0.33155 0.18079,-0.40901c0.13139,-0.07746 0.28755,-0.04375 0.39292,0.07077l0.27938,0.29033l-0.00703,0.00957l0.03034,0.01691c0.51513,0.75858 1.0545,1.39526 1.77319,1.87853c0.67427,0.35328 1.28077,0.74654 1.99822,0.98132c0.88461,0.28948 1.79169,0.33312 2.68686,0.53603c0.72792,0.165 1.48172,0.29633 2.23235,0.33974z" fill="#ffffff" stroke="#000000" stroke-width="1"/><path d="M227.49253,182.34495c-0.07709,-0.05558 0.54194,-0.75686 0.54194,-0.75686c0.14739,-0.01872 0.29586,-0.09485 0.44215,-0.05618c0.15659,0.04138 0.28324,0.18478 0.4214,0.28443c0.9103,0.65654 1.19675,2.04497 0.39205,2.91986c-0.26041,0.28313 -0.40863,0.2984 -0.71112,0.51416c-0.84054,0.59954 -1.72416,1.0695 -2.68588,1.36688c-0.40023,0.12375 -0.84453,0.08883 -1.25567,0.14765c-0.76868,-0.11683 -1.54211,-0.02839 -2.32473,-0.20217c-0.4164,-0.09247 -0.75882,-0.29908 -1.15418,-0.46527c-0.74194,-0.31189 -1.51176,-0.54361 -2.15312,-1.13542c-0.43341,-0.39991 -0.74506,-0.96284 -1.02594,-1.49432c-0.07575,-0.14335 -0.21418,-0.24389 -0.2616,-0.40255c-0.00423,-0.01415 -0.00824,-0.02836 -0.01207,-0.04261l-0.00607,0.00324l-0.16007,-0.3954c-0.06449,-0.15052 -0.04863,-0.33574 0.05142,-0.4621c0.10005,-0.12635 0.25484,-0.15667 0.38545,-0.08965l0.34252,0.16499l-0.0038,0.01194l0.03301,0.00397c0.6952,0.517 1.37817,0.90814 2.1841,1.08135c0.72757,0.0671 1.40354,0.19939 2.13745,0.13627c0.9049,-0.07781 1.76058,-0.39891 2.65061,-0.56346c0.72376,-0.13379 1.46194,-0.31 2.17213,-0.56877z" fill="#ffffff" stroke="#000000" stroke-width="1"/><path d="M221.9036,176.81925c-0.00943,-0.13706 0.07655,-0.25336 0.19204,-0.25978c0.11549,-0.00642 0.21676,0.09949 0.22618,0.23655c0.00943,0.13706 -0.07655,0.25336 -0.19204,0.25978c-0.11549,0.00642 -0.21676,-0.09949 -0.22618,-0.23655z" fill="#000000" stroke="none" stroke-width="0.5"/><path d="M221.67639,180.38168c-0.11549,0.00642 -0.21675,-0.09949 -0.22618,-0.23655c-0.00943,-0.13706 0.07654,-0.25335 0.19204,-0.25977c0.11549,-0.00642 0.21675,0.09949 0.22618,0.23655c0.00943,0.13706 -0.07655,0.25337 -0.19204,0.25978z" fill="#000000" stroke="none" stroke-width="0.5"/><path d="M223.05697,183.66798c-0.11549,0.00642 -0.21676,-0.09949 -0.22619,-0.23655c-0.00943,-0.13706 0.07655,-0.25337 0.19204,-0.25978c0.11549,-0.00642 0.21675,0.09949 0.22618,0.23655c0.00943,0.13706 -0.07655,0.25336 -0.19204,0.25977z" fill="#000000" stroke="none" stroke-width="0.5"/><path d="M233.25244,176.60425c-0.06069,-0.14445 1.36271,0.20446 1.36271,0.20446c0.20368,0.12181 0.79346,0.37375 0.90219,0.63272c0.71637,1.70624 0.03582,3.59518 -1.6182,3.88446c-0.53527,0.09361 -0.73761,-0.03331 -1.28002,-0.06429c-1.50723,-0.0861 -2.97926,-0.37462 -4.43121,-0.95313c-0.60424,-0.24076 -1.15417,-0.72084 -1.72696,-1.05255c-0.91184,-0.90028 -1.9738,-1.55171 -2.86371,-2.53606c-0.47349,-0.52373 -0.77126,-1.11572 -1.16583,-1.70983c-0.74047,-1.11495 -1.57317,-2.1583 -1.98726,-3.52008c-0.27982,-0.92024 -0.28789,-1.92211 -0.27823,-2.85484c0.0026,-0.25158 -0.10583,-0.5119 -0.05586,-0.75451c0.00446,-0.02164 0.00923,-0.04313 0.01429,-0.0645l-0.01013,-0.00195l0.0704,-0.64585c0.02219,-0.24935 0.17262,-0.46254 0.3906,-0.52022c0.21798,-0.05768 0.43937,0.05711 0.56121,0.26835l0.3271,0.54066l-0.01328,0.011l0.0399,0.03738c0.53615,1.32233 1.14478,2.47717 2.06522,3.48376c0.89357,0.79843 1.6747,1.62663 2.66781,2.27048c1.22449,0.79384 2.55598,1.23877 3.82207,1.91087c1.02955,0.54653 2.10752,1.05486 3.20719,1.4337z" fill="#ffffff" stroke="#000000" stroke-width="1"/><path d="M231.85599,179.10803c-0.06846,-0.11075 0.97196,-0.55385 0.97196,-0.55385c0.18431,0.06662 0.39449,0.06728 0.55294,0.19989c0.16961,0.14196 0.25981,0.3844 0.38247,0.58294c0.80818,1.30814 0.55709,3.09206 -0.77967,3.62539c-0.4326,0.17261 -0.61644,0.10146 -1.07056,0.1706c-1.26188,0.19214 -2.5199,0.20798 -3.79753,-0.02339c-0.5317,-0.09628 -1.04826,-0.40324 -1.56523,-0.58148c-0.86956,-0.59656 -1.83261,-0.95763 -2.69449,-1.62868c-0.45858,-0.35704 -0.77984,-0.80226 -1.18172,-1.2323c-0.75418,-0.80703 -1.57596,-1.53767 -2.09012,-2.6094c-0.34744,-0.72423 -0.47952,-1.56474 -0.58824,-2.35027c-0.02933,-0.21187 -0.15192,-0.41161 -0.14079,-0.62427c0.00098,-0.01897 0.00226,-0.03786 0.00378,-0.0567l-0.00865,0.00012l-0.02238,-0.55509c-0.01279,-0.21344 0.0854,-0.41898 0.25913,-0.50571c0.17373,-0.08673 0.37186,-0.02911 0.49943,0.12702l0.33918,0.39696l-0.00965,0.01157l0.03779,0.02441c0.61053,1.01715 1.26028,1.88083 2.15029,2.56521c0.84167,0.51416 1.59371,1.07308 2.49864,1.43988c1.11577,0.45225 2.27669,0.59249 3.41177,0.93512c0.923,0.27862 1.88142,0.51664 2.84164,0.64203z" fill="#ffffff" stroke="#000000" stroke-width="1"/><path d="M230.38259,181.06773c-0.06832,-0.07012 0.64713,-0.63059 0.64713,-0.63059c0.14879,0.0117 0.307,-0.03256 0.44636,0.03512c0.14918,0.07244 0.25386,0.23866 0.37629,0.36438c0.80672,0.82837 0.88877,2.24621 -0.03592,2.93881c-0.29925,0.22414 -0.44836,0.20887 -0.77952,0.35846c-0.92018,0.41569 -1.86424,0.69574 -2.86058,0.79088c-0.41465,0.0396 -0.8499,-0.08515 -1.26591,-0.11137c-0.74482,-0.27106 -1.5242,-0.34212 -2.27456,-0.6718c-0.39924,-0.17541 -0.70855,-0.4475 -1.07622,-0.69081c-0.68999,-0.4566 -1.41922,-0.8404 -1.96883,-1.55058c-0.3714,-0.47991 -0.59843,-1.09461 -0.79953,-1.67224c-0.05425,-0.1558 -0.17681,-0.28247 -0.20074,-0.44746c-0.00213,-0.01471 -0.00405,-0.02944 -0.00577,-0.04418l-0.00648,0.00195l-0.10116,-0.41978c-0.04203,-0.16052 0.00062,-0.33864 0.11814,-0.44197c0.11754,-0.10333 0.27534,-0.10145 0.39504,-0.00921l0.31546,0.23136l-0.0055,0.01091l0.03214,0.01063c0.61382,0.64791 1.23383,1.17009 2.00737,1.50395c0.71131,0.214 1.362,0.48131 2.09853,0.56911c0.90813,0.10826 1.80283,-0.03172 2.70883,-0.01141c0.73674,0.01651 1.49393,-0.00555 2.2354,-0.11415z" fill="#ffffff" stroke="#000000" stroke-width="1"/><path d="M232.42009,182.15164c-0.0835,-0.03951 0.42177,-0.85973 0.42177,-0.85973c0.14165,-0.04834 0.27611,-0.15378 0.42496,-0.14501c0.15933,0.00939 0.30405,0.12596 0.45373,0.19683c0.98618,0.46693 1.46676,1.78538 0.80465,2.81519c-0.21427,0.33327 -0.35726,0.37834 -0.62243,0.65332c-0.73689,0.76409 -1.53463,1.40846 -2.43374,1.89751c-0.37418,0.20352 -0.81437,0.25867 -1.20858,0.40001c-0.7697,0.03947 -1.5145,0.28338 -2.30605,0.2692c-0.42116,-0.00754 -0.78631,-0.14319 -1.19748,-0.22807c-0.77163,-0.15929 -1.559,-0.23349 -2.27244,-0.69057c-0.48212,-0.30888 -0.86846,-0.80394 -1.22013,-1.27404c-0.09485,-0.12679 -0.24491,-0.1985 -0.31422,-0.34619c-0.00618,-0.01317 -0.01216,-0.02645 -0.01796,-0.0398l-0.00548,0.00444l-0.21374,-0.35961c-0.08485,-0.13617 -0.096,-0.32297 -0.01621,-0.46845c0.07979,-0.14547 0.22704,-0.20679 0.36461,-0.16674l0.35924,0.09437l-0.002,0.01259l0.0329,-0.00272c0.75538,0.37205 1.48067,0.62181 2.29499,0.63072c0.72227,-0.08047 1.4034,-0.08586 2.11313,-0.29668c0.87509,-0.25993 1.66692,-0.75108 2.51495,-1.09397c0.6896,-0.27883 1.38723,-0.60262 2.04554,-1.00259z" fill="#ffffff" stroke="#000000" stroke-width="1"/><path d="M226.30019,177.44819c0.47781,-0.93131 5.97602,-0.19093 6.95271,-0.44939c1.9633,-0.51954 3.966,0.95965 4.47316,3.30387c0.50716,2.34422 -0.67327,4.66575 -2.63658,5.18529c-1.12002,0.29638 -6.25039,-0.66669 -7.11109,-1.46078c-0.17261,-0.15925 -1.32845,-1.53753 -1.70541,-3.03373c-0.41386,-1.64269 -0.04025,-3.41378 0.0272,-3.54525z" fill="#ffffff" stroke="#000000" stroke-width="0"/><path d="M226.0735,177.84086c-0.02898,-0.13395 0.03847,-0.26662 0.15066,-0.2963c0.11219,-0.02969 0.22664,0.05484 0.25562,0.1888c0.02898,0.13395 -0.03847,0.26662 -0.15067,0.2963c-0.11219,0.02969 -0.22664,-0.05483 -0.25562,-0.18879z" fill="#000000" stroke="none" stroke-width="0.5"/><path d="M226.10858,181.22932c-0.02898,-0.13396 0.03847,-0.26662 0.15066,-0.2963c0.1122,-0.02969 0.22664,0.05483 0.25562,0.18879c0.02898,0.13396 -0.03848,0.26663 -0.15067,0.29631c-0.1122,0.02969 -0.22663,-0.05484 -0.25561,-0.1888z" fill="#000000" stroke="none" stroke-width="0.5"/><path d="M227.93422,184.20805c-0.02898,-0.13395 0.03847,-0.26661 0.15066,-0.2963c0.1122,-0.02969 0.22664,0.05483 0.25562,0.18879c0.02898,0.13395 -0.03848,0.26662 -0.15067,0.2963c-0.1122,0.02969 -0.22663,-0.05484 -0.25561,-0.1888z" fill="#000000" stroke="none" stroke-width="0.5"/></g><g stroke-linejoin="miter"><path d="M244.91053,185.48795c-1.96329,-0.51953 -3.14374,-2.84108 -2.63658,-5.18529c0.50716,-2.34421 2.50986,-3.82341 4.47316,-3.30388c1.96329,0.51953 3.14374,2.84108 2.63658,5.18529c-0.50716,2.34421 -2.50986,3.82341 -4.47316,3.30388z" fill="#ffffff" stroke="#000000" stroke-width="2"/><path d="M250.96701,177.07116c1.03551,-0.59318 2.03083,-1.30882 2.97266,-2.05209c1.15822,-0.91404 2.414,-1.61879 3.51344,-2.64365c0.8917,-0.83122 1.54668,-1.80019 2.31744,-2.76271c0.7674,-1.17183 1.20435,-2.42587 1.54531,-3.82932l0.03416,-0.04467l-0.01475,-0.00809l0.24635,-0.59562c0.09035,-0.2315 0.29326,-0.38866 0.51765,-0.37619c0.2244,0.01246 0.40422,0.19088 0.46215,0.43062l0.16282,0.61835l-0.00975,0.00395c0.00809,0.0199 0.01592,0.04001 0.02345,0.06029c0.08449,0.22753 0.01451,0.5044 0.05334,0.75028c0.14394,0.91161 0.28028,1.8945 0.13548,2.85235c-0.21428,1.41744 -0.88942,2.60754 -1.46279,3.84914c-0.30554,0.66161 -0.51542,1.30158 -0.90932,1.91019c-0.74034,1.14388 -1.6992,1.99643 -2.47337,3.06241c-0.52001,0.44059 -0.99597,1.0219 -1.56025,1.37976c-1.35593,0.85992 -2.77356,1.43986 -4.25523,1.82865c-0.53321,0.13992 -0.71551,0.30509 -1.25959,0.32153c-1.68126,0.05079 -2.62803,-1.66184 -2.16372,-3.47772c0.07047,-0.2756 0.61882,-0.64148 0.80317,-0.80194c0,0 1.3607,-0.62927 1.32136,-0.47553z" fill="#ffffff" stroke="#000000" stroke-width="1"/><path d="M252.71198,179.24136c0.93378,-0.31677 1.84955,-0.7435 2.72437,-1.20285c1.0758,-0.56489 2.2064,-0.93677 3.24728,-1.6051c0.8442,-0.54205 1.50915,-1.2414 2.2694,-1.91501c0.78365,-0.85009 1.30331,-1.82727 1.76197,-2.94683l0.03394,-0.03155l-0.01123,-0.00938l0.27903,-0.45731c0.10397,-0.17869 0.29207,-0.27515 0.47677,-0.22529c0.18471,0.04985 0.31165,0.23134 0.32972,0.44297l0.05777,0.5482l-0.00859,0.00161c0.00423,0.01815 0.00821,0.0364 0.01192,0.05477c0.04167,0.20603 -0.05108,0.42643 -0.04962,0.63987c0.0054,0.79133 -0.00444,1.64125 -0.24451,2.42077c-0.35526,1.15356 -1.06462,2.0352 -1.69596,2.97798c-0.33641,0.50238 -0.59073,1.00333 -0.99387,1.44567c-0.75769,0.83135 -1.66032,1.37955 -2.43635,2.1395c-0.48678,0.279 -0.95461,0.68399 -1.4678,0.88569c-1.23315,0.48469 -2.48247,0.72331 -3.76104,0.79003c-0.46012,0.02401 -0.63211,0.13083 -1.08579,0.04916c-1.40194,-0.25234 -1.90785,-1.94885 -1.29518,-3.39336c0.09298,-0.21925 0.14746,-0.47493 0.29516,-0.64822c0.13797,-0.1619 0.34621,-0.20498 0.51932,-0.30748c0,0 1.09517,0.22383 1.04328,0.34613z" fill="#ffffff" stroke="#000000" stroke-width="1"/><path d="M254.37104,180.87172c0.75063,-0.04341 1.50442,-0.17475 2.23235,-0.33975c0.89517,-0.20291 1.80224,-0.24654 2.68685,-0.53602c0.71745,-0.23478 1.32395,-0.62804 1.99822,-0.98132c0.7187,-0.48327 1.25806,-1.11996 1.77319,-1.87853l0.03033,-0.0169l-0.00703,-0.00956l0.27939,-0.29033c0.10536,-0.11452 0.26152,-0.14823 0.39291,-0.07077c0.13139,0.07746 0.19934,0.2433 0.18079,0.40901l-0.03981,0.43158l-0.00671,-0.0006c0.00042,0.01478 0.00065,0.02958 0.00065,0.04443c0.00005,0.16645 -0.1032,0.31527 -0.13452,0.47882c-0.11613,0.60638 -0.25262,1.2543 -0.55164,1.79936c-0.4425,0.80659 -1.11008,1.32981 -1.72826,1.91642c-0.32941,0.31257 -0.59683,0.64156 -0.96731,0.89401c-0.69632,0.47447 -1.45866,0.70151 -2.15793,1.11745c-0.40861,0.10971 -0.82209,0.31983 -1.23882,0.3648c-1.00136,0.10808 -1.97753,0.0245 -2.94957,-0.19676c-0.34981,-0.07963 -0.49543,-0.03456 -0.82436,-0.19364c-1.01641,-0.49157 -1.13933,-1.89684 -0.45899,-2.87114c0.10325,-0.14787 0.18307,-0.33182 0.32051,-0.4329c0.12839,-0.09444 0.29161,-0.08304 0.43741,-0.12456c0,0 0.78994,0.40443 0.73233,0.48691z" fill="#ffffff" stroke="#000000" stroke-width="1"/><path d="M252.50747,182.34496c0.71019,0.25877 1.44838,0.43498 2.17213,0.56877c0.89003,0.16454 1.74572,0.48564 2.65062,0.56345c0.73391,0.06312 1.40987,-0.06918 2.13745,-0.13628c0.80593,-0.17321 1.4889,-0.56435 2.1841,-1.08134l0.03301,-0.00398l-0.0038,-0.01193l0.34251,-0.165c0.13061,-0.06702 0.28539,-0.03671 0.38545,0.08965c0.10005,0.12636 0.11593,0.31158 0.05142,0.4621l-0.16007,0.3954l-0.00606,-0.00324c-0.00383,0.01425 -0.00784,0.02846 -0.01207,0.04261c-0.04742,0.15866 -0.18584,0.2592 -0.2616,0.40255c-0.28087,0.53147 -0.59253,1.09441 -1.02594,1.49432c-0.64136,0.5918 -1.41118,0.82353 -2.15312,1.13541c-0.39536,0.16619 -0.73777,0.3728 -1.15418,0.46527c-0.78261,0.17378 -1.55605,0.08534 -2.32473,0.20217c-0.41114,-0.05881 -0.85543,-0.0239 -1.25566,-0.14766c-0.96172,-0.29738 -1.84534,-0.76734 -2.68588,-1.36688c-0.30249,-0.21577 -0.45071,-0.23103 -0.71112,-0.51416c-0.8047,-0.87488 -0.51825,-2.26332 0.39205,-2.91986c0.13816,-0.09965 0.26483,-0.24305 0.4214,-0.28444c0.14629,-0.03867 0.29476,0.03746 0.44215,0.05618c0,0 0.61903,0.70129 0.54194,0.75686z" fill="#ffffff" stroke="#000000" stroke-width="1"/><path d="M257.87022,177.05579c-0.11549,-0.00642 -0.20147,-0.12272 -0.19204,-0.25978c0.00943,-0.13706 0.11069,-0.24296 0.22618,-0.23655c0.11549,0.00642 0.20147,0.12272 0.19204,0.25978c-0.00943,0.13706 -0.11069,0.24296 -0.22618,0.23655z" fill="#000000" stroke="none" stroke-width="0.5"/><path d="M258.32361,180.38168c-0.1155,-0.00642 -0.20146,-0.12271 -0.19203,-0.25977c0.00943,-0.13706 0.11068,-0.24296 0.22618,-0.23655c0.1155,0.00642 0.20146,0.12271 0.19203,0.25977c-0.00943,0.13706 -0.11069,0.24296 -0.22618,0.23655z" fill="#000000" stroke="none" stroke-width="0.5"/><path d="M256.94303,183.66796c-0.11549,-0.00642 -0.20146,-0.12273 -0.19203,-0.25978c0.00943,-0.13706 0.11069,-0.24295 0.22618,-0.23654c0.11549,0.00642 0.20146,0.12271 0.19204,0.25977c-0.00943,0.13706 -0.1107,0.24296 -0.22618,0.23655z" fill="#000000" stroke="none" stroke-width="0.5"/><path d="M246.74757,176.60425c1.09967,-0.37884 2.17764,-0.88717 3.20719,-1.4337c1.26609,-0.6721 2.59758,-1.11702 3.82207,-1.91086c0.99311,-0.64384 1.77424,-1.47204 2.66781,-2.27048c0.92044,-1.00659 1.52908,-2.16144 2.06523,-3.48376l0.0399,-0.03739l-0.01328,-0.011l0.32709,-0.54066c0.12184,-0.21124 0.34323,-0.32603 0.56121,-0.26835c0.21798,0.05768 0.36841,0.27087 0.3906,0.52022l0.0704,0.64584l-0.01013,0.00195c0.00506,0.02137 0.00983,0.04286 0.01429,0.0645c0.04998,0.24261 -0.05845,0.50294 -0.05586,0.75451c0.00966,0.93273 0.00159,1.93459 -0.27824,2.85484c-0.41408,1.36179 -1.24679,2.40512 -1.98726,3.52007c-0.39457,0.59411 -0.69234,1.1861 -1.16584,1.70983c-0.88991,0.98435 -1.95188,1.63578 -2.86372,2.53607c-0.57279,0.3317 -1.12271,0.81179 -1.72695,1.05255c-1.45194,0.57851 -2.92398,0.86703 -4.43121,0.95313c-0.54242,0.03098 -0.74475,0.1579 -1.28002,0.06428c-1.65402,-0.28928 -2.33458,-2.1782 -1.6182,-3.88446c0.10873,-0.25896 0.69851,-0.5109 0.90219,-0.63271c0,0 1.42339,-0.34892 1.36271,-0.20445z" fill="#ffffff" stroke="#000000" stroke-width="1"/><path d="M248.14402,179.10802c0.96023,-0.12538 1.91864,-0.36341 2.84164,-0.64203c1.13507,-0.34264 2.29599,-0.48288 3.41177,-0.93513c0.90494,-0.36679 1.65697,-0.92571 2.49865,-1.43987c0.89001,-0.68438 1.53976,-1.54806 2.15029,-2.5652l0.03779,-0.02442l-0.00965,-0.01156l0.33918,-0.39696c0.12757,-0.15613 0.32571,-0.21375 0.49943,-0.12703c0.17372,0.08673 0.27192,0.29228 0.25914,0.50572l-0.0224,0.55509l-0.00865,-0.00013c0.00153,0.01884 0.0028,0.03775 0.00378,0.05671c0.01112,0.21265 -0.11147,0.41239 -0.14079,0.62426c-0.10872,0.78553 -0.24079,1.62604 -0.58823,2.35027c-0.51416,1.07173 -1.33594,1.80238 -2.09012,2.60941c-0.40188,0.43004 -0.72314,0.87526 -1.18171,1.2323c-0.86188,0.67105 -1.82493,1.03213 -2.69449,1.62869c-0.51697,0.17824 -1.03354,0.48519 -1.56524,0.58147c-1.27763,0.23137 -2.53564,0.21553 -3.79753,0.02339c-0.45412,-0.06914 -0.63797,0.002 -1.07056,-0.17059c-1.33676,-0.53333 -1.58785,-2.31725 -0.77967,-3.62539c0.12266,-0.19854 0.21286,-0.44099 0.38247,-0.58294c0.15846,-0.13261 0.36863,-0.13327 0.55294,-0.19989c0,0 1.04041,0.44311 0.97196,0.55385z" fill="#ffffff" stroke="#000000" stroke-width="1"/><path d="M249.61741,181.06772c0.74146,0.10861 1.49866,0.13066 2.2354,0.11415c0.906,-0.02032 1.80071,0.11966 2.70883,0.01141c0.73653,-0.0878 1.38723,-0.35511 2.09852,-0.5691c0.77355,-0.33387 1.39355,-0.85605 2.00738,-1.50396l0.03213,-0.01063l-0.0055,-0.01091l0.31546,-0.23136c0.11969,-0.09224 0.27751,-0.09412 0.39504,0.00921c0.11753,0.10333 0.16018,0.28145 0.11814,0.44197l-0.10116,0.41978l-0.00648,-0.00195c-0.00171,0.01474 -0.00363,0.02946 -0.00576,0.04418c-0.02393,0.16501 -0.1465,0.29167 -0.20075,0.44747c-0.2011,0.57763 -0.42813,1.19233 -0.79953,1.67224c-0.5496,0.71017 -1.27884,1.09398 -1.96882,1.55058c-0.36766,0.24331 -0.67698,0.5154 -1.07622,0.6908c-0.75036,0.32968 -1.52974,0.40073 -2.27456,0.6718c-0.41601,0.02623 -0.85126,0.15097 -1.26591,0.11138c-0.99634,-0.09513 -1.9404,-0.37519 -2.86058,-0.79087c-0.33115,-0.1496 -0.48028,-0.13433 -0.77952,-0.35847c-0.92469,-0.6926 -0.84264,-2.11043 -0.03591,-2.93882c0.12243,-0.12572 0.22712,-0.29194 0.37629,-0.36438c0.13935,-0.06768 0.29757,-0.02341 0.44636,-0.03512c0,0 0.71544,0.56046 0.64712,0.63059z" fill="#ffffff" stroke="#000000" stroke-width="1"/><path d="M247.57991,182.15165c0.65831,0.39997 1.35593,0.72376 2.04554,1.00259c0.84804,0.34289 1.63986,0.83404 2.51496,1.09397c0.70973,0.21082 1.39086,0.21624 2.11313,0.29669c0.81431,-0.00891 1.5396,-0.25867 2.29498,-0.63073l0.0329,0.00272l-0.002,-0.0126l0.35924,-0.09436c0.13758,-0.04005 0.28482,0.02126 0.36461,0.16673c0.07979,0.14547 0.06865,0.33228 -0.01621,0.46845l-0.21375,0.35962l-0.00547,-0.00444c-0.00579,0.01335 -0.01178,0.02662 -0.01796,0.03979c-0.0693,0.14769 -0.21936,0.2194 -0.31422,0.3462c-0.35167,0.4701 -0.73801,0.96516 -1.22013,1.27404c-0.71344,0.45708 -1.50081,0.53128 -2.27244,0.69057c-0.41117,0.08488 -0.77632,0.22052 -1.19748,0.22806c-0.79156,0.01417 -1.53635,-0.22972 -2.30605,-0.2692c-0.39421,-0.14135 -0.8344,-0.19648 -1.20858,-0.40001c-0.8991,-0.48905 -1.69686,-1.13342 -2.43375,-1.89751c-0.26518,-0.27498 -0.40817,-0.32006 -0.62244,-0.65332c-0.66211,-1.02982 -0.18152,-2.34828 0.80465,-2.8152c0.14967,-0.07087 0.29439,-0.18742 0.45372,-0.19682c0.14885,-0.00878 0.28331,0.09667 0.42496,0.145c0,0 0.50526,0.82021 0.42176,0.85973z" fill="#ffffff" stroke="#000000" stroke-width="1"/><path d="M253.69981,177.44819c0.06745,0.13147 0.44107,1.90257 0.02721,3.54525c-0.37695,1.49619 -1.5328,2.87448 -1.70541,3.03373c-0.86069,0.79409 -5.99106,1.75716 -7.11108,1.46078c-1.96329,-0.51953 -3.14374,-2.84108 -2.63658,-5.18529c0.50716,-2.34421 2.50986,-3.8234 4.47316,-3.30387c0.97669,0.25846 6.4749,-0.48192 6.95271,0.44939z" fill="#ffffff" stroke="#000000" stroke-width="0"/><path d="M253.67089,178.02965c-0.11219,-0.02969 -0.17964,-0.16234 -0.15066,-0.2963c0.02898,-0.13395 0.14342,-0.21848 0.25561,-0.18879c0.11219,0.02969 0.17964,0.16234 0.15066,0.2963c-0.02898,0.13395 -0.14342,0.21848 -0.25561,0.18879z" fill="#000000" stroke="none" stroke-width="0.5"/><path d="M253.63581,181.4181c-0.11219,-0.02969 -0.17964,-0.16234 -0.15066,-0.29631c0.02898,-0.13395 0.14342,-0.21848 0.25561,-0.18879c0.11219,0.02969 0.17964,0.16234 0.15066,0.29631c-0.02898,0.13395 -0.14341,0.21848 -0.25561,0.18879z" fill="#000000" stroke="none" stroke-width="0.5"/><path d="M251.81017,184.39684c-0.11219,-0.02969 -0.17964,-0.16235 -0.15067,-0.2963c0.02898,-0.13395 0.14342,-0.21848 0.25561,-0.18879c0.11219,0.02969 0.17964,0.16235 0.15066,0.2963c-0.02898,0.13395 -0.14341,0.21848 -0.25561,0.18879z" fill="#000000" stroke="none" stroke-width="0.5"/></g><path d="M249,179.11001c0,6.89 -4,9.89 -9,9.89c-5,0 -9,-3 -9,-9.89c0,-6.11 6,-8.11 9,-6.11c3,-2 9,0 9,6.11z" fill="#00ffff" stroke="#000000" stroke-width="2" stroke-linejoin="round"/><path d="M241.5,168.00003c0,1.25 -1.5,5 -1.5,5" fill="none" stroke="#000000" stroke-width="2" stroke-linejoin="round"/><path d="M233,177.00003c0,-1.65685 1.34315,-3 3,-3c1.65685,0 3,1.34315 3,3c0,1.65685 -1.34315,3 -3,3c-1.65685,0 -3,-1.34315 -3,-3z" fill="#ffffff" stroke="none" stroke-width="1" stroke-linejoin="miter"/></g></g></svg>