<svg version="1.1" xmlns="http://www.w3.org/2000/svg" xmlns:xlink="http://www.w3.org/1999/xlink" width="32" height="64.00005" viewBox="0,0,32,64.00005"><g transform="translate(-209,-147)"><g data-paper-data="{&quot;isPaintingLayer&quot;:true}" fill-rule="nonzero" stroke-linecap="butt" stroke-miterlimit="10" stroke-dasharray="" stroke-dashoffset="0" style="mix-blend-mode: normal"><path d="M235.32258,183.00003l-20.64516,-26" fill="none" stroke="#000000" stroke-width="8" stroke-linejoin="round"/><path d="M235.32258,183.00003l-20.64516,-26" fill="none" stroke="#000000" stroke-width="8" stroke-linejoin="round"/><path d="M214.67742,183.00005l20.64516,-26" fill="none" stroke="#000000" stroke-width="8" stroke-linejoin="round"/><path d="M214.67742,183.00005l20.64516,-26" fill="none" stroke="#000000" stroke-width="8" stroke-linejoin="round"/><path d="M235.32258,183.00003l-20.64516,-26" fill="none" stroke="#b5b5b5" stroke-width="4" stroke-linejoin="round"/><path d="M235.32258,183.00003l-20.64516,-26" fill="none" stroke="#b5b5b5" stroke-width="4" stroke-linejoin="round"/><path d="M214.67742,183.00005l20.64516,-26" fill="none" stroke="#b5b5b5" stroke-width="4" stroke-linejoin="round"/><path d="M214.67742,183.00005l20.64516,-26" fill="none" stroke="#b5b5b5" stroke-width="4" stroke-linejoin="round"/><path d="M237.38709,178.00005h-24.77419" fill="none" stroke="#000000" stroke-width="2" stroke-linejoin="miter"/><path d="M237.38709,178.00005h-24.77419" fill="none" stroke="#000000" stroke-width="2" stroke-linejoin="miter"/><path d="M236.95871,162h-23.91742" fill="none" stroke="#000000" stroke-width="2" stroke-linejoin="miter"/><path d="M236.95871,162h-23.91742" fill="none" stroke="#000000" stroke-width="2" stroke-linejoin="miter"/><g><path d="M211.06452,161v-12h27.87097v12z" fill="none" stroke="#000000" stroke-width="4" stroke-linejoin="round"/><path d="M211.06452,161v-12h27.87097v12z" fill="#f59c18" stroke="none" stroke-width="1" stroke-linejoin="miter"/></g><g><path d="M211.06452,161v-12h27.87097v12z" fill="none" stroke="#000000" stroke-width="4" stroke-linejoin="round"/><path d="M211.06452,161v-12h27.87097v12z" fill="#f59c18" stroke="none" stroke-width="1" stroke-linejoin="miter"/></g><path d="M211.06452,161v-4h27.87097v4z" fill="#d68815" stroke="none" stroke-width="1" stroke-linejoin="miter"/><path d="M211.06452,161v-4h27.87097v4z" fill="#d68815" stroke="none" stroke-width="1" stroke-linejoin="miter"/><path d="M209,211.00005v-32h32v32z" fill="#39b54a" stroke="none" stroke-width="1" stroke-linejoin="miter"/><path d="M209,211.00005v-32h32v32z" fill="#39b54a" stroke="none" stroke-width="1" stroke-linejoin="miter"/><path d="M218,202.00005v-14h14v14z" fill="#3ac54d" stroke="none" stroke-width="1" stroke-linejoin="miter"/><path d="M218,202.00005v-14h14v14z" fill="#3ac54d" stroke="none" stroke-width="1" stroke-linejoin="miter"/></g></g></svg>