<svg version="1.1" xmlns="http://www.w3.org/2000/svg" xmlns:xlink="http://www.w3.org/1999/xlink" width="260.06" height="105.30241" viewBox="0,0,260.06,105.30241"><g transform="translate(-109.97,-123.98873)"><g data-paper-data="{&quot;isPaintingLayer&quot;:true}" fill-rule="nonzero" stroke-linecap="butt" stroke-linejoin="miter" stroke-miterlimit="10" stroke-dasharray="" stroke-dashoffset="0" style="mix-blend-mode: normal"><path d="M135.43,125.98873c4.56,0 9.29,1 11.85,2.33v14.86c-3.09379,-1.6066 -6.51479,-2.48238 -10,-2.56c-5.67,0 -8.73,2.72 -8.73,6.45c0,3.73 3.06,6.4 8.73,6.4c3.5817,-0.02883 7.10023,-0.94626 10.24,-2.67v14.19c-2.61,1.39 -7.45,2.5 -12.24,2.5c-13.46,0 -23.31,-8.79 -23.31,-20.75c0,-11.96 9.77,-20.75 23.46,-20.75z" fill="none" stroke="#ffffff" stroke-width="4"/><path d="M152.01,148.56873v-22h16.58v20.86c0,3.78 1.22,6.45 5.06,6.45c3.67,0 5,-2.33 5,-6.39v-20.89h14.87v21.74c0,6.18 -1.55,10.07 -3.67,12.63c-3.67,4.45 -10.35,6.51 -17.19,6.51c-7.06,0 -13.29,-2.23 -16.85,-6.4c-2.02,-2.32 -3.8,-5.94 -3.8,-12.51z" fill="none" stroke="#ffffff" stroke-width="4"/><path d="M198.52,150.51873c5.4,3.51 10.85,4.78 13.24,4.78c1.67,0 2.06,-0.66 2.06,-1.33c0,-0.67 -0.5,-1.11 -1.22,-1.28c-1.95,-0.5 -7.57,-1.11 -11.69,-4.73c-2.39017,-2.12168 -3.69774,-5.20696 -3.56,-8.4c0,-8.07 6.23,-13.57 16.41,-13.57c4.9589,0.01205 9.85688,1.09329 14.36,3.17v13.18c-3.78399,-1.99088 -7.92929,-3.20149 -12.19,-3.56c-1.61,0 -2.05,0.61 -2.05,1.23c0,0.83 0.61,1.16 1.27,1.39c1.67,0.5 7.24,1.17 11.19,4.28c2.65855,2.08157 4.16637,5.30517 4.06,8.68c0,7.73 -6.23,13.13 -16.8,13.13c-5.07,0 -11.13,-1.23 -15.08,-3.28z" fill="none" stroke="#ffffff" stroke-width="4"/><path d="M242.7,140.27873h-11.18v-13.68h39v13.68h-11.24v26.6h-16.58z" fill="none" stroke="#ffffff" stroke-width="4"/><path d="M295.34,125.98873c12.63,0 22.47,9.06 22.47,20.75c0,11.69 -9.84,20.75 -22.47,20.75c-12.63,0 -22.48,-9.07 -22.48,-20.75c0,-11.68 9.85,-20.75 22.48,-20.75zM295.34,153.24873c3.44074,0 6.23,-2.78927 6.23,-6.23c0,-3.44073 -2.78927,-6.23 -6.23,-6.23c-3.44074,0 -6.23,2.78927 -6.23,6.23c-0.00266,1.65312 0.65286,3.23928 1.82179,4.40821c1.16893,1.16893 2.75509,1.82445 4.40821,1.82179z" fill="none" stroke="#ffffff" stroke-width="4"/><path d="M321.83,126.59873h15.46l8,10.12l7.74,-10.12h15v40.28h-16.51v-19.64h-0.11l-7.18,9.46l-7.34,-9.46h-0.11v19.64h-14.95z" fill="none" stroke="#ffffff" stroke-width="4"/><path d="M151.31,186.99114h16.58v26h12.46v14.3h-29z" fill="none" stroke="#ffffff" stroke-width="4"/><path d="M184.69,186.99114h29v13.46h-12.42v2.17h10v9.57h-10v2.28h13.19v12.8h-29.77z" fill="none" stroke="#ffffff" stroke-width="4"/><path d="M216.47,186.99114h17.91l5.95,21.36h0.11l6.35,-21.36h16.19l-15.42,40.28h-15.68z" fill="none" stroke="#ffffff" stroke-width="4"/><path d="M265.79,186.99114h29v13.46h-12.45v2.17h10v9.57h-10v2.28h13.19v12.8h-29.74z" fill="none" stroke="#ffffff" stroke-width="4"/><path d="M299.65,186.99114h16.58v26h12.46v14.3h-29z" fill="none" stroke="#ffffff" stroke-width="4"/><path d="M135.43,125.98873c4.56,0 9.29,1 11.85,2.33v14.86c-3.09379,-1.6066 -6.51479,-2.48238 -10,-2.56c-5.67,0 -8.73,2.72 -8.73,6.45c0,3.73 3.06,6.4 8.73,6.4c3.5817,-0.02883 7.10023,-0.94626 10.24,-2.67v14.19c-2.61,1.39 -7.45,2.5 -12.24,2.5c-13.46,0 -23.31,-8.79 -23.31,-20.75c0,-11.96 9.77,-20.75 23.46,-20.75z" fill="#000000" stroke="none" stroke-width="1"/><path d="M152.01,148.56873v-22h16.58v20.86c0,3.78 1.22,6.45 5.06,6.45c3.67,0 5,-2.33 5,-6.39v-20.89h14.87v21.74c0,6.18 -1.55,10.07 -3.67,12.63c-3.67,4.45 -10.35,6.51 -17.19,6.51c-7.06,0 -13.29,-2.23 -16.85,-6.4c-2.02,-2.32 -3.8,-5.94 -3.8,-12.51z" fill="#000000" stroke="none" stroke-width="1"/><path d="M198.52,150.51873c5.4,3.51 10.85,4.78 13.24,4.78c1.67,0 2.06,-0.66 2.06,-1.33c0,-0.67 -0.5,-1.11 -1.22,-1.28c-1.95,-0.5 -7.57,-1.11 -11.69,-4.73c-2.39017,-2.12168 -3.69774,-5.20696 -3.56,-8.4c0,-8.07 6.23,-13.57 16.41,-13.57c4.9589,0.01205 9.85688,1.09329 14.36,3.17v13.18c-3.78399,-1.99088 -7.92929,-3.20149 -12.19,-3.56c-1.61,0 -2.05,0.61 -2.05,1.23c0,0.83 0.61,1.16 1.27,1.39c1.67,0.5 7.24,1.17 11.19,4.28c2.65855,2.08157 4.16637,5.30517 4.06,8.68c0,7.73 -6.23,13.13 -16.8,13.13c-5.07,0 -11.13,-1.23 -15.08,-3.28z" fill="#000000" stroke="none" stroke-width="1"/><path d="M242.7,140.27873h-11.18v-13.68h39v13.68h-11.24v26.6h-16.58z" fill="#000000" stroke="none" stroke-width="1"/><path d="M295.34,125.98873c12.63,0 22.47,9.06 22.47,20.75c0,11.69 -9.84,20.75 -22.47,20.75c-12.63,0 -22.48,-9.07 -22.48,-20.75c0,-11.68 9.85,-20.75 22.48,-20.75zM295.34,153.24873c3.44074,0 6.23,-2.78927 6.23,-6.23c0,-3.44073 -2.78927,-6.23 -6.23,-6.23c-3.44074,0 -6.23,2.78927 -6.23,6.23c-0.00266,1.65312 0.65286,3.23928 1.82179,4.40821c1.16893,1.16893 2.75509,1.82445 4.40821,1.82179z" fill="#000000" stroke="none" stroke-width="1"/><path d="M321.83,126.59873h15.46l8,10.12l7.74,-10.12h15v40.28h-16.51v-19.64h-0.11l-7.18,9.46l-7.34,-9.46h-0.11v19.64h-14.95z" fill="#000000" stroke="none" stroke-width="1"/><path d="M151.31,186.99114h16.58v26h12.46v14.3h-29z" fill="#000000" stroke="none" stroke-width="1"/><path d="M184.69,186.99114h29v13.46h-12.42v2.17h10v9.57h-10v2.28h13.19v12.8h-29.77z" fill="#000000" stroke="none" stroke-width="1"/><path d="M216.47,186.99114h17.91l5.95,21.36h0.11l6.35,-21.36h16.19l-15.42,40.28h-15.68z" fill="#000000" stroke="none" stroke-width="1"/><path d="M265.79,186.99114h29v13.46h-12.45v2.17h10v9.57h-10v2.28h13.19v12.8h-29.74z" fill="#000000" stroke="none" stroke-width="1"/><path d="M299.65,186.99114h16.58v26h12.46v14.3h-29z" fill="#000000" stroke="none" stroke-width="1"/></g></g></svg>