<svg version="1.1" xmlns="http://www.w3.org/2000/svg" xmlns:xlink="http://www.w3.org/1999/xlink" width="24.50512" height="44.97232" viewBox="0,0,24.50512,44.97232"><g transform="translate(-227.74744,-157.46042)"><g data-paper-data="{&quot;isPaintingLayer&quot;:true}" fill-rule="nonzero" stroke-miterlimit="10" stroke-dasharray="" stroke-dashoffset="0" style="mix-blend-mode: normal"><path d="M234.64382,190.69839l-1.1215,-10.60195l10.93897,-1.15715l1.1215,10.60195z" fill="#000000" stroke="none" stroke-width="1" stroke-linecap="butt" stroke-linejoin="miter"/><path d="M235.53842,200.00367l-0.55672,-10.64655l10.98499,-0.57442l0.55672,10.64655z" fill="#000000" stroke="none" stroke-width="1" stroke-linecap="butt" stroke-linejoin="miter"/><path d="M229.25931,192.79319l-0.1955,-4.71818l20.982,-0.86939l0.1955,4.71818z" fill="#818181" stroke="#000000" stroke-width="2" stroke-linecap="butt" stroke-linejoin="miter"/><path d="M251.25256,196.71052v4.72222h-21v-4.72222z" fill="#606060" stroke="#000000" stroke-width="2" stroke-linecap="butt" stroke-linejoin="miter"/><g><path d="M233.17069,170.14149l-0.90628,-7.9485l11.21482,-1.2787l0.90628,7.9485z" fill="#929292" stroke="#000000" stroke-width="2" stroke-linecap="butt" stroke-linejoin="miter"/><path d="M229.89422,165.14718l-0.53496,-4.69183l16.55938,-1.88808l0.53496,4.69183z" fill="#929292" stroke="#000000" stroke-width="2" stroke-linecap="butt" stroke-linejoin="miter"/><g stroke-linecap="butt"><path d="M234.06827,167.91756l8.94206,-1.01957c3.29238,-0.37539 6.26569,1.98929 6.64109,5.28166l0.90628,7.9485l-20.86481,2.37899l-0.90628,-7.9485c-0.37539,-3.29238 1.98929,-6.26569 5.28166,-6.64109z" fill="#929292" stroke="#000000" stroke-width="2" stroke-linejoin="miter"/><path d="M240.16893,177.28676l-0.56643,-4.96781l4.96781,-0.56643l0.56643,4.96781z" fill="#cacaca" stroke="#cacaca" stroke-width="2" stroke-linejoin="round"/><path d="M242.04277,176.06663l-0.33986,-2.98069l2.98069,-0.33986l0.33986,2.98069z" fill="#ff0000" stroke="none" stroke-width="1" stroke-linejoin="miter"/></g><path d="M234.70222,181.56933c0,0 -0.79832,-5.79603 -1.00212,-8.14065c-0.28715,-3.3036 1.01975,-4.94559 1.01975,-4.94559" fill="none" stroke="#000000" stroke-width="1" stroke-linecap="round" stroke-linejoin="miter"/><path d="M235.72122,171.08641c-0.03128,-0.27436 0.16578,-0.52214 0.44014,-0.55342c0.27436,-0.03128 0.52214,0.16578 0.55342,0.44014c0.03128,0.27436 -0.16578,0.52214 -0.44014,0.55342c-0.27436,0.03128 -0.52214,-0.16578 -0.55342,-0.44014z" fill="#000000" stroke="none" stroke-width="0.5" stroke-linecap="butt" stroke-linejoin="miter"/><path d="M236.02969,174.67457c-0.03128,-0.27436 0.16578,-0.52214 0.44014,-0.55342c0.27436,-0.03128 0.52214,0.16578 0.55342,0.44014c0.03128,0.27436 -0.16578,0.52214 -0.44014,0.55342c-0.27436,0.03128 -0.52214,-0.16578 -0.55342,-0.44014z" fill="#000000" stroke="none" stroke-width="0.5" stroke-linecap="butt" stroke-linejoin="miter"/></g></g></g></svg>