<svg version="1.1" xmlns="http://www.w3.org/2000/svg" xmlns:xlink="http://www.w3.org/1999/xlink" width="94.19443" height="96.22855" viewBox="0,0,94.19443,96.22855"><g transform="translate(-201.53905,-88.37305)"><g data-paper-data="{&quot;isPaintingLayer&quot;:true}" fill-rule="nonzero" stroke-linecap="butt" stroke-miterlimit="10" stroke-dasharray="" stroke-dashoffset="0" style="mix-blend-mode: normal"><g><path d="M267.30368,151.48431l-5.4308,9.47717l-4.86368,-2.78708l-3.80156,6.63402l3.89097,2.22966l-1.08616,1.89543l-3.89096,-2.22965l-1.62924,2.84315l4.86369,2.78708l-2.17232,3.79086l-6.80915,-3.90192l8.68927,-15.16347l-4.86367,-2.78708l5.43081,-9.47718zM255.72025,153.65902l3.89095,2.22966l2.17232,-3.79086l-3.89095,-2.22966z" fill="none" stroke="#000000" stroke-width="4" stroke-linejoin="round"/><path d="M267.30368,151.48431l-5.4308,9.47717l-4.86368,-2.78708l-3.80156,6.63402l3.89097,2.22966l-1.08616,1.89543l-3.89096,-2.22965l-1.62924,2.84315l4.86369,2.78708l-2.17232,3.79086l-6.80915,-3.90192l8.68927,-15.16347l-4.86367,-2.78708l5.43081,-9.47718zM255.72025,153.65902l3.89095,2.22966l2.17232,-3.79086l-3.89095,-2.22966z" fill="#64fa3c" stroke="none" stroke-width="1" stroke-linejoin="miter"/></g><g><path d="M234.39574,128.01223l4.09378,10.12676l-5.19703,2.10094l2.86567,7.08872l4.15765,-1.68076l0.81875,2.02535l-4.15765,1.68076l1.22815,3.03803l5.19704,-2.10093l1.63754,4.0507l-7.27587,2.94132l-6.55009,-16.2028l-5.19704,2.10093l-4.09381,-10.12674zM228.94613,138.46247l4.15765,-1.68076l-1.63752,-4.0507l-4.15764,1.68077z" fill="none" stroke="#000000" stroke-width="4" stroke-linejoin="round"/><path d="M234.39574,128.01223l4.09378,10.12676l-5.19703,2.10094l2.86567,7.08872l4.15765,-1.68076l0.81875,2.02535l-4.15765,1.68076l1.22815,3.03803l5.19704,-2.10093l1.63754,4.0507l-7.27587,2.94132l-6.55009,-16.2028l-5.19704,2.10093l-4.09381,-10.12674zM228.94613,138.46247l4.15765,-1.68076l-1.63752,-4.0507l-4.15764,1.68077z" fill="#64fa3c" stroke="none" stroke-width="1" stroke-linejoin="miter"/></g><g><path d="M254.94355,132.51119l-0.68552,10.9014l-5.59458,-0.3518l-0.47986,7.63098l4.47568,0.28145l-0.1371,2.18028l-4.47568,-0.28144l-0.20565,3.27043l5.59458,0.3518l-0.27419,4.36056l-7.83243,-0.49252l1.09681,-17.44224l-5.59457,-0.35181l0.68552,-10.90139zM245.51234,139.5793l4.47568,0.28145l0.2742,-4.36056l-4.47568,-0.28144z" fill="none" stroke="#000000" stroke-width="4" stroke-linejoin="round"/><path d="M254.94355,132.51119l-0.68552,10.9014l-5.59458,-0.3518l-0.47986,7.63098l4.47568,0.28145l-0.1371,2.18028l-4.47568,-0.28144l-0.20565,3.27043l5.59458,0.3518l-0.27419,4.36056l-7.83243,-0.49252l1.09681,-17.44224l-5.59457,-0.35181l0.68552,-10.90139zM245.51234,139.5793l4.47568,0.28145l0.2742,-4.36056l-4.47568,-0.28144z" fill="#64fa3c" stroke="none" stroke-width="1" stroke-linejoin="miter"/></g><g><path d="M233.8583,119.60031l-8.00116,7.43585l-3.81607,-4.10618l-5.6008,5.2051l3.05287,3.28495l-1.60023,1.48717l-3.05287,-3.28495l-2.40035,2.23076l3.81607,4.10619l-3.20045,2.97434l-5.34252,-5.74866l12.80183,-11.89737l-3.81607,-4.10618l8.00116,-7.43585zM222.15177,118.23552l3.05287,3.28496l3.20046,-2.97434l-3.05287,-3.28496z" fill="none" stroke="#000000" stroke-width="4" stroke-linejoin="round"/><path d="M233.8583,119.60031l-8.00116,7.43585l-3.81607,-4.10618l-5.6008,5.2051l3.05287,3.28495l-1.60023,1.48717l-3.05287,-3.28495l-2.40035,2.23076l3.81607,4.10619l-3.20045,2.97434l-5.34252,-5.74866l12.80183,-11.89737l-3.81607,-4.10618l8.00116,-7.43585zM222.15177,118.23552l3.05287,3.28496l3.20046,-2.97434l-3.05287,-3.28496z" fill="#64fa3c" stroke="none" stroke-width="1" stroke-linejoin="miter"/></g><g><path d="M234.66682,143.93433l-5.07272,9.67356l-4.96447,-2.6033l-3.55089,6.7715l3.97159,2.08265l-1.01454,1.93471l-3.97159,-2.08265l-1.52181,2.90208l4.96447,2.60331l-2.02907,3.86943l-6.95027,-3.64463l8.11632,-15.47772l-4.96447,-2.60331l5.07271,-9.67357zM223.17276,146.54055l3.97159,2.08265l2.02908,-3.86943l-3.97159,-2.08264z" fill="none" stroke="#000000" stroke-width="4" stroke-linejoin="round"/><path d="M234.66682,143.93433l-5.07272,9.67356l-4.96447,-2.6033l-3.55089,6.7715l3.97159,2.08265l-1.01454,1.93471l-3.97159,-2.08265l-1.52181,2.90208l4.96447,2.60331l-2.02907,3.86943l-6.95027,-3.64463l8.11632,-15.47772l-4.96447,-2.60331l5.07271,-9.67357zM223.17276,146.54055l3.97159,2.08265l2.02908,-3.86943l-3.97159,-2.08264z" fill="#64fa3c" stroke="none" stroke-width="1" stroke-linejoin="miter"/></g><g><path d="M217.65157,154.25795l-0.68552,10.9014l-5.59459,-0.3518l-0.47986,7.63098l4.47568,0.28145l-0.1371,2.18028l-4.47568,-0.28145l-0.20565,3.27043l5.59459,0.3518l-0.27419,4.36056l-7.83243,-0.49252l1.09681,-17.44223l-5.59458,-0.35181l0.68552,-10.90139zM208.22036,161.32607l4.47568,0.28145l0.2742,-4.36056l-4.47568,-0.28144z" fill="none" stroke="#000000" stroke-width="4" stroke-linejoin="round"/><path d="M217.65157,154.25795l-0.68552,10.9014l-5.59459,-0.3518l-0.47986,7.63098l4.47568,0.28145l-0.1371,2.18028l-4.47568,-0.28145l-0.20565,3.27043l5.59459,0.3518l-0.27419,4.36056l-7.83243,-0.49252l1.09681,-17.44223l-5.59458,-0.35181l0.68552,-10.90139zM208.22036,161.32607l4.47568,0.28145l0.2742,-4.36056l-4.47568,-0.28144z" fill="#64fa3c" stroke="none" stroke-width="1" stroke-linejoin="miter"/></g><path d="M238.8521,125.49966l-4.17659,-8.69551l51.53754,0.37036l-4.21315,8.32513z" fill="#b0ff00" stroke="#000000" stroke-width="2" stroke-linejoin="miter"/><path d="M234.69937,117.18507l-7.91839,-15.39427l33.57369,-12.35129l33.97316,12.68289l-7.90932,15.31741z" fill="#54ab00" stroke="#000000" stroke-width="2" stroke-linejoin="miter"/><path d="M271.34137,110.78551v-1.04003h10.27328v1.04003z" fill="#000000" stroke="#000000" stroke-width="2" stroke-linejoin="round"/></g></g></svg>