<svg version="1.1" xmlns="http://www.w3.org/2000/svg" xmlns:xlink="http://www.w3.org/1999/xlink" width="30.68681" height="35.11427" viewBox="0,0,30.68681,35.11427"><g transform="translate(-222.12365,-144.83335)"><g data-paper-data="{&quot;isPaintingLayer&quot;:true}" fill-rule="nonzero" stroke-linecap="butt" stroke-miterlimit="10" stroke-dasharray="" stroke-dashoffset="0" style="mix-blend-mode: normal"><g><path d="M249.16667,155.94335c0,6.89 -4,9.89 -9,9.89c-5,0 -9,-3 -9,-9.89c0,-6.11 6,-8.11 9,-6.11c3,-2 9,0 9,6.11z" fill="#ffff24" stroke="#000000" stroke-width="2" stroke-linejoin="round"/><path d="M241.66667,144.83335c0,1.25 -1.5,5 -1.5,5" fill="none" stroke="#000000" stroke-width="2" stroke-linejoin="round"/><path d="M233.16667,153.83335c0,-1.65685 1.34315,-3 3,-3c1.65685,0 3,1.34315 3,3c0,1.65685 -1.34315,3 -3,3c-1.65685,0 -3,-1.34315 -3,-3z" fill="#ffffff" stroke="none" stroke-width="1" stroke-linejoin="miter"/></g><g><path d="M231.28877,159.77847l-2.55403,5.12008l-4.61108,-5.49718z" fill="none" stroke="#000000" stroke-width="4" stroke-linejoin="round"/><path d="M231.28877,159.77847l-2.55403,5.12008l-4.61108,-5.49718z" fill="#b3b3b3" stroke="none" stroke-width="1" stroke-linejoin="miter"/></g><g><path d="M234.01302,158.07343l-5.00405,2.7745l-0.68865,-7.1419z" fill="none" stroke="#000000" stroke-width="4" stroke-linejoin="round"/><path d="M234.01302,158.07343l-5.00405,2.7745l-0.68865,-7.1419z" fill="#b3b3b3" stroke="none" stroke-width="1" stroke-linejoin="miter"/></g><g><path d="M249.54001,161.47845l-4.76037,-3.17446l6.03082,-3.88719z" fill="none" stroke="#000000" stroke-width="4" stroke-linejoin="round"/><path d="M249.54001,161.47845l-4.76037,-3.17446l6.03082,-3.88719z" fill="#b3b3b3" stroke="none" stroke-width="1" stroke-linejoin="miter"/></g><path d="M229.5,178.94762v-7h21v7z" fill="#828212" stroke="#000000" stroke-width="2" stroke-linejoin="miter"/><g><path d="M235.5,157.94762h9c3.31371,0 6,2.68629 6,6v8h-21v-8c0,-3.31371 2.68629,-6 6,-6z" fill="#ffff24" stroke="#000000" stroke-width="2" stroke-linejoin="miter"/><path d="M240.5,167.94762v-5h5v5z" fill="#ffffff" stroke="#ffffff" stroke-width="2" stroke-linejoin="round"/><path d="M242.5,166.94762v-3h3v3z" fill="#000000" stroke="none" stroke-width="1" stroke-linejoin="miter"/></g></g></g></svg>