<svg version="1.1" xmlns="http://www.w3.org/2000/svg" xmlns:xlink="http://www.w3.org/1999/xlink" width="162.23585" height="162.50943" viewBox="0,0,162.23585,162.50943"><g transform="translate(-158.84907,-98.55662)"><g data-paper-data="{&quot;isPaintingLayer&quot;:true}" fill-rule="nonzero" stroke-linecap="butt" stroke-miterlimit="10" stroke-dasharray="" stroke-dashoffset="0" style="mix-blend-mode: normal"><g data-paper-data="{&quot;index&quot;:null}"><path d="M283.00001,243.06605h16l-8,16z" fill="none" stroke="#000000" stroke-width="4" stroke-linejoin="round"/><path d="M283.00001,243.06605h16l-8,16z" fill="#b3b3b3" stroke="none" stroke-width="1" stroke-linejoin="miter"/></g><g data-paper-data="{&quot;index&quot;:null}"><path d="M241.16982,243.06605h16l-8,16z" fill="none" stroke="#000000" stroke-width="4" stroke-linejoin="round"/><path d="M241.16982,243.06605h16l-8,16z" fill="#b3b3b3" stroke="none" stroke-width="1" stroke-linejoin="miter"/></g><g data-paper-data="{&quot;index&quot;:null}"><path d="M262.00001,243.06605h16l-8,16z" fill="none" stroke="#000000" stroke-width="4" stroke-linejoin="round"/><path d="M262.00001,243.06605h16l-8,16z" fill="#b3b3b3" stroke="none" stroke-width="1" stroke-linejoin="miter"/></g><g data-paper-data="{&quot;index&quot;:null}"><path d="M176.84908,223.00003v16l-16,-8z" fill="none" stroke="#000000" stroke-width="4" stroke-linejoin="round"/><path d="M176.84908,223.00003v16l-16,-8z" fill="#b3b3b3" stroke="none" stroke-width="1" stroke-linejoin="miter"/></g><g data-paper-data="{&quot;index&quot;:null}"><path d="M176.84908,181.16983v16l-16,-8z" fill="none" stroke="#000000" stroke-width="4" stroke-linejoin="round"/><path d="M176.84908,181.16983v16l-16,-8z" fill="#b3b3b3" stroke="none" stroke-width="1" stroke-linejoin="miter"/></g><g data-paper-data="{&quot;index&quot;:null}"><path d="M176.84908,202.00003v16l-16,-8z" fill="none" stroke="#000000" stroke-width="4" stroke-linejoin="round"/><path d="M176.84908,202.00003v16l-16,-8z" fill="#b3b3b3" stroke="none" stroke-width="1" stroke-linejoin="miter"/></g><g data-paper-data="{&quot;index&quot;:null}"><path d="M197.00002,116.55662h-16l8,-16z" fill="none" stroke="#000000" stroke-width="4" stroke-linejoin="round"/><path d="M197.00002,116.55662h-16l8,-16z" fill="#b3b3b3" stroke="none" stroke-width="1" stroke-linejoin="miter"/></g><g data-paper-data="{&quot;index&quot;:null}"><path d="M238.8302,116.55662h-16l8,-16z" fill="none" stroke="#000000" stroke-width="4" stroke-linejoin="round"/><path d="M238.8302,116.55662h-16l8,-16z" fill="#b3b3b3" stroke="none" stroke-width="1" stroke-linejoin="miter"/></g><g data-paper-data="{&quot;index&quot;:null}"><path d="M218.00002,116.55662h-16l8,-16z" fill="none" stroke="#000000" stroke-width="4" stroke-linejoin="round"/><path d="M218.00002,116.55662h-16l8,-16z" fill="#b3b3b3" stroke="none" stroke-width="1" stroke-linejoin="miter"/></g><g data-paper-data="{&quot;index&quot;:null}"><path d="M319.08493,169.0755l-16,8v-16z" fill="none" stroke="#000000" stroke-width="4" stroke-linejoin="round"/><path d="M319.08493,169.0755l-16,8v-16z" fill="#b3b3b3" stroke="none" stroke-width="1" stroke-linejoin="miter"/></g><g data-paper-data="{&quot;index&quot;:null}"><path d="M319.08493,129.00001l-16,8v-16z" fill="none" stroke="#000000" stroke-width="4" stroke-linejoin="round"/><path d="M319.08493,129.00001l-16,8v-16z" fill="#b3b3b3" stroke="none" stroke-width="1" stroke-linejoin="miter"/></g><g data-paper-data="{&quot;index&quot;:null}"><path d="M319.08493,150l-16,8v-16z" fill="none" stroke="#000000" stroke-width="4" stroke-linejoin="round"/><path d="M319.08493,150l-16,8v-16z" fill="#b3b3b3" stroke="none" stroke-width="1" stroke-linejoin="miter"/></g><g data-paper-data="{&quot;index&quot;:null}"><path d="M178.93398,241.00002v-122h122v122z" fill="none" stroke="#000000" stroke-width="4" stroke-linejoin="round"/><path d="M178.93398,241.00002v-122h122v122z" fill="#39b54a" stroke="none" stroke-width="1" stroke-linejoin="miter"/></g><path d="M247.93398,232.00002v-14h44v14z" data-paper-data="{&quot;index&quot;:null}" fill="#3ac54d" stroke="none" stroke-width="1" stroke-linejoin="miter"/><path d="M187.93398,232.00002v-14h44v14z" data-paper-data="{&quot;index&quot;:null}" fill="#3ac54d" stroke="none" stroke-width="1" stroke-linejoin="miter"/><path d="M247.93398,142v-14h44v14z" data-paper-data="{&quot;index&quot;:null}" fill="#3ac54d" stroke="none" stroke-width="1" stroke-linejoin="miter"/><path d="M187.93398,142v-14h44v14z" data-paper-data="{&quot;index&quot;:null}" fill="#3ac54d" stroke="none" stroke-width="1" stroke-linejoin="miter"/><path d="M217.93398,202.00002v-44h44v44z" data-paper-data="{&quot;index&quot;:null}" fill="#ffffff" stroke="none" stroke-width="1" stroke-linejoin="miter"/><path d="M277.93399,202.00002v-14h14v14z" data-paper-data="{&quot;index&quot;:null}" fill="#3ac54d" stroke="none" stroke-width="1" stroke-linejoin="miter"/><path d="M187.93398,202.00002v-14h14v14z" data-paper-data="{&quot;index&quot;:null}" fill="#3ac54d" stroke="none" stroke-width="1" stroke-linejoin="miter"/><path d="M277.93399,172.00002v-14h14v14z" data-paper-data="{&quot;index&quot;:null}" fill="#3ac54d" stroke="none" stroke-width="1" stroke-linejoin="miter"/><path d="M232.93398,187.00002v-14h14v14z" data-paper-data="{&quot;index&quot;:null}" fill="#000000" stroke="none" stroke-width="1" stroke-linejoin="miter"/><path d="M187.93398,172.00002v-14h14v14z" data-paper-data="{&quot;index&quot;:null}" fill="#3ac54d" stroke="none" stroke-width="1" stroke-linejoin="miter"/></g></g></svg>