<svg version="1.1" xmlns="http://www.w3.org/2000/svg" xmlns:xlink="http://www.w3.org/1999/xlink" width="56.20848" height="50.93018" viewBox="0,0,56.20848,50.93018"><g transform="translate(-204.08596,-134.62679)"><g data-paper-data="{&quot;isPaintingLayer&quot;:true}" fill-rule="nonzero" stroke-linecap="butt" stroke-miterlimit="10" stroke-dasharray="" stroke-dashoffset="0" style="mix-blend-mode: normal"><g data-paper-data="{&quot;index&quot;:null}" stroke-linejoin="miter"><path d="M225.26596,167.10673c-0.07475,-3.97149 2.40113,-7.44294 5.53,-7.7537c3.12887,-0.31076 5.72592,2.65687 5.80066,6.62835c0.07475,3.9715 -2.40113,7.44293 -5.53,7.75369c-3.12887,0.31076 -5.72591,-2.65686 -5.80066,-6.62834z" fill="#ffffff" stroke="#000000" stroke-width="2"/><path d="M224.37986,158.3137c-0.01412,-0.26214 1.8616,1.13988 1.8616,1.13988c0.23187,0.3129 0.95453,1.06149 0.97975,1.53138c0.16618,3.09601 -1.77538,5.6361 -4.30807,5.09186c-0.81961,-0.17612 -1.04697,-0.49617 -1.81357,-0.87118c-2.13021,-1.04207 -4.1068,-2.37908 -5.90703,-4.15687c-0.74919,-0.73985 -1.29838,-1.82075 -1.95599,-2.68369c-0.85766,-1.95505 -2.05837,-3.61187 -2.8417,-5.685c-0.41679,-1.10304 -0.54544,-2.20684 -0.81263,-3.37225c-0.50142,-2.18708 -1.17227,-4.31789 -1.07748,-6.69393c0.06404,-1.60564 0.56154,-3.17508 1.04947,-4.62591c0.13161,-0.39132 0.10751,-0.86315 0.30289,-1.21195c0.01741,-0.0311 0.03523,-0.0618 0.05338,-0.09213l-0.0136,-0.00914l0.42974,-0.96622c0.15873,-0.37604 0.48404,-0.61839 0.82777,-0.57721c0.34373,0.04118 0.60471,0.35376 0.6731,0.75701l0.19703,1.0413l-0.02475,0.00918l0.03854,0.0824c0.10133,2.3879 0.39232,4.55793 1.20839,6.68416c0.88312,1.78499 1.58889,3.54877 2.69412,5.15227c1.36273,1.97708 3.05712,3.47371 4.54171,5.28573c1.20723,1.47348 2.50373,2.91647 3.89733,4.17028z" fill="#ffffff" stroke="#000000" stroke-width="1"/><path d="M221.09333,161.38287c-0.04244,-0.21417 1.68338,-0.27965 1.68338,-0.27965c0.23199,0.21505 0.53481,0.34261 0.69597,0.64514c0.17253,0.32383 0.1794,0.75677 0.25543,1.14069c0.5009,2.52958 -0.76783,5.16428 -2.96695,5.19222c-0.71167,0.00904 -0.94068,-0.21277 -1.63083,-0.37824c-1.91774,-0.45983 -3.74029,-1.19263 -5.46551,-2.32331c-0.71796,-0.47055 -1.30704,-1.26098 -1.96213,-1.85063c-0.95105,-1.45526 -2.15661,-2.59909 -3.05874,-4.16606c-0.48,-0.83373 -0.71711,-1.72248 -1.07822,-2.63607c-0.67767,-1.71446 -1.49168,-3.35038 -1.68863,-5.3337c-0.13309,-1.34024 0.10354,-2.73239 0.34592,-4.02459c0.06537,-0.34854 -0.00994,-0.73431 0.11417,-1.0597c0.01107,-0.02901 0.02251,-0.05777 0.03428,-0.08627l-0.01254,-0.005l0.24979,-0.88037c0.09002,-0.34102 0.33611,-0.6029 0.63075,-0.63372c0.29465,-0.03083 0.55114,0.17846 0.65582,0.49911l0.28748,0.82417l-0.01981,0.01225l0.0421,0.06088c0.3637,1.95611 0.86196,3.69618 1.79789,5.30089c0.95269,1.30979 1.75337,2.63552 2.87221,3.75326c1.37951,1.37815 2.98271,2.29626 4.44576,3.51486c1.18971,0.99094 2.45113,1.9398 3.7724,2.71383z" fill="#ffffff" stroke="#000000" stroke-width="1"/><path d="M218.09672,163.59308c-0.06291,-0.15064 1.25384,-0.59509 1.25384,-0.59509c0.20866,0.10787 0.45936,0.13403 0.62598,0.32363c0.17835,0.20297 0.24487,0.52558 0.35756,0.79564c0.74261,1.77945 0.14043,4.04308 -1.54527,4.56787c-0.54552,0.16984 -0.75285,0.0562 -1.3065,0.09042c-1.53848,0.09507 -3.04246,-0.03609 -4.5279,-0.4875c-0.61819,-0.18786 -1.18258,-0.64477 -1.76929,-0.93623c-0.93655,-0.87183 -2.02457,-1.45214 -2.93933,-2.41884c-0.48671,-0.51434 -0.79458,-1.12554 -1.20124,-1.72691c-0.76316,-1.12857 -1.61992,-2.16707 -2.05176,-3.60709c-0.2918,-0.97311 -0.30689,-2.06979 -0.3034,-3.09296c0.00095,-0.27597 -0.11148,-0.5476 -0.06215,-0.81968c0.00439,-0.02427 0.00912,-0.04842 0.01414,-0.07246l-0.01034,-0.00087l0.06741,-0.71647c0.02093,-0.27599 0.17299,-0.52848 0.39502,-0.61906c0.22203,-0.09059 0.44869,0.00736 0.57446,0.22349l0.33743,0.55129l-0.01348,0.01371l0.04097,0.03596c0.55609,1.38145 1.18501,2.57028 2.13106,3.55749c0.91721,0.76253 1.71989,1.57181 2.73761,2.15245c1.25484,0.71591 2.61647,1.03611 3.91292,1.6134c1.05424,0.46943 2.15762,0.89093 3.28226,1.16782z" fill="#ffffff" stroke="#000000" stroke-width="1"/><path d="M220.48469,166.51276c-0.10037,-0.112 1.04523,-1.08865 1.04523,-1.08865c0.22888,0.00983 0.47641,-0.07391 0.68664,0.02944c0.22503,0.11061 0.37453,0.3798 0.55439,0.5806c1.18512,1.32305 1.20828,3.67145 -0.27005,4.88098c-0.47841,0.39143 -0.70754,0.37573 -1.22978,0.64548c-1.45115,0.74955 -2.92926,1.27545 -4.47462,1.49778c-0.64312,0.09251 -1.30606,-0.08646 -1.94649,-0.10308c-1.13025,-0.40187 -2.32846,-0.46947 -3.46296,-0.96825c-0.60363,-0.2654 -1.06137,-0.6971 -1.6113,-1.07726c-1.03201,-0.71342 -2.12998,-1.30343 -2.92673,-2.44687c-0.53841,-0.77268 -0.84409,-1.77847 -1.11241,-2.72438c-0.07237,-0.25513 -0.25238,-0.45748 -0.27728,-0.72986c-0.00223,-0.02429 -0.00409,-0.04862 -0.00567,-0.07297l-0.01015,0.00364l-0.12555,-0.69031c-0.05319,-0.26377 0.02568,-0.56222 0.21469,-0.74134c0.18902,-0.17911 0.43255,-0.18622 0.61063,-0.04082l0.4702,0.36369l-0.0093,0.01847l0.04884,0.01556c0.90046,1.03591 1.81966,1.8627 2.98967,2.36697c1.08267,0.30929 2.06786,0.711 3.19868,0.80915c1.39428,0.12103 2.78598,-0.16916 4.1834,-0.194c1.13635,-0.02017 2.30712,-0.10575 3.4599,-0.33396z" fill="#ffffff" stroke="#000000" stroke-width="1"/><path d="M213.6508,155.94603c0.02627,-0.22665 0.19098,-0.39319 0.36789,-0.37201c0.17691,0.02119 0.29902,0.2221 0.27274,0.44876c-0.02627,0.22665 -0.19099,0.39319 -0.36789,0.37201c-0.17691,-0.02119 -0.29901,-0.2221 -0.27273,-0.44876z" fill="#000000" stroke="none" stroke-width="0.5"/><path d="M212.25217,161.70761c-0.17691,-0.02119 -0.29901,-0.2221 -0.27274,-0.44876c0.02627,-0.22664 0.19098,-0.39319 0.36789,-0.37199c0.17691,0.02119 0.29901,0.2221 0.27274,0.44876c-0.02627,0.22665 -0.19099,0.3932 -0.3679,0.37202z" fill="#000000" stroke="none" stroke-width="0.5"/><path d="M213.37164,167.45884c-0.17691,-0.02119 -0.29902,-0.22212 -0.27275,-0.44877c0.02627,-0.22665 0.19099,-0.39319 0.36789,-0.37201c0.17691,0.02119 0.299,0.2221 0.27273,0.44876c-0.02627,0.22664 -0.19098,0.39319 -0.36789,0.37201z" fill="#000000" stroke="none" stroke-width="0.5"/><path d="M230.91204,158.70789c-0.04921,-0.25281 2.00448,0.7081 2.00448,0.7081c0.27259,0.25502 1.09177,0.82868 1.17989,1.28186c0.58059,2.98593 -1.00975,5.88728 -3.6018,5.90645c-0.83883,0.0062 -1.1079,-0.2568 -1.92067,-0.45624c-2.25851,-0.55423 -4.40379,-1.42974 -6.43279,-2.77381c-0.8444,-0.55936 -1.53563,-1.49508 -2.30545,-2.19448c-1.11532,-1.72195 -2.53179,-3.07824 -3.589,-4.9316c-0.5625,-0.98611 -0.83854,-2.03558 -1.26062,-3.11509c-0.7921,-2.02587 -1.74516,-3.95998 -1.96963,-6.29984c-0.15168,-1.58119 0.13259,-3.22127 0.42328,-4.74346c0.0784,-0.41057 -0.00886,-0.86589 0.13867,-1.24882c0.01316,-0.03415 0.02674,-0.06798 0.04073,-0.10153l-0.01477,-0.00597l0.29783,-1.03653c0.10743,-0.40156 0.39846,-0.70881 0.74586,-0.7433c0.3474,-0.03449 0.64891,0.2139 0.77102,0.59266l0.33565,0.97361l-0.02338,0.01433l0.04939,0.07206c0.42111,2.30884 1.00162,4.36377 2.09852,6.26185c1.1178,1.55042 2.05636,3.11866 3.37073,4.44367c1.62061,1.6337 3.50662,2.72635 5.22629,4.17244c1.39839,1.17591 2.88146,2.30267 4.43574,3.22367z" fill="#ffffff" stroke="#000000" stroke-width="1"/><path d="M228.0549,162.41802c-0.07095,-0.19984 1.63678,-0.6388 1.63678,-0.6388c0.25958,0.15948 0.57788,0.21821 0.77875,0.47848c0.21501,0.27861 0.27993,0.6997 0.40705,1.05793c0.83753,2.36029 -0.07092,5.20777 -2.25444,5.71296c-0.70663,0.1635 -0.96416,-0.00326 -1.67278,-0.01479c-1.96907,-0.03206 -3.88011,-0.35129 -5.7477,-1.08002c-0.77723,-0.30328 -1.46915,-0.9468 -2.1998,-1.38c-1.14114,-1.21382 -2.49365,-2.0683 -3.60111,-3.40179c-0.58925,-0.7095 -0.9443,-1.52549 -1.42602,-2.33876c-0.90401,-1.52623 -1.93307,-2.94615 -2.39502,-4.83928c-0.31215,-1.2793 -0.26355,-2.68961 -0.19581,-4.00362c0.01827,-0.35441 -0.10838,-0.71458 -0.02859,-1.05918c0.00711,-0.03073 0.01462,-0.06128 0.02251,-0.09167l-0.01314,-0.00216l0.13036,-0.91361c0.04379,-0.35244 0.25342,-0.66154 0.54235,-0.75567c0.28893,-0.09412 0.57212,0.05443 0.71922,0.34468l0.39649,0.74199l-0.01805,0.01628l0.05004,0.05028c0.62414,1.83034 1.35314,3.42055 2.49928,4.78354c1.12326,1.07145 2.09745,2.19149 3.3602,3.03939c1.55695,1.04543 3.27468,1.59317 4.8933,2.46471c1.31623,0.70871 2.69813,1.36076 4.1161,1.82917z" fill="#ffffff" stroke="#000000" stroke-width="1"/><path d="M225.24218,165.21756c-0.08278,-0.13338 1.16726,-0.85337 1.16726,-0.85337c0.22201,0.05994 0.47485,0.031 0.666,0.17987c0.20461,0.15935 0.31405,0.45981 0.46238,0.69893c0.97732,1.57555 0.68203,3.91596 -0.92419,4.79457c-0.51979,0.28433 -0.74125,0.21846 -1.28734,0.37217c-1.51744,0.42714 -3.0309,0.62598 -4.56888,0.50818c-0.64006,-0.04901 -1.26271,-0.37236 -1.88535,-0.52934c-1.04845,-0.64747 -2.20847,-0.97745 -3.24796,-1.72226c-0.55308,-0.39629 -0.94128,-0.92596 -1.42642,-1.42459c-0.91044,-0.93575 -1.9019,-1.76324 -2.52457,-3.07502c-0.42077,-0.88645 -0.58288,-1.95365 -0.71667,-2.95314c-0.0361,-0.26958 -0.18434,-0.51028 -0.17177,-0.78659c0.00113,-0.02463 0.00257,-0.04924 0.00434,-0.07381l-0.0104,0.0014l-0.02907,-0.71401c-0.0162,-0.27394 0.10116,-0.55343 0.30984,-0.69012c0.20869,-0.13668 0.44727,-0.09033 0.60135,0.09331l0.40957,0.46478l-0.01156,0.01632l0.04556,0.02618c0.73841,1.22761 1.52341,2.25136 2.59679,3.00939c1.01456,0.54498 1.92148,1.16048 3.0116,1.50607c1.3441,0.42611 2.74133,0.44272 4.10824,0.72447c1.11153,0.22911 2.2655,0.40076 3.42123,0.42663z" fill="#ffffff" stroke="#000000" stroke-width="1"/><path d="M228.00894,167.54851c-0.11484,-0.0875 0.89356,-1.2898 0.89356,-1.2898c0.22896,-0.04015 0.46393,-0.17566 0.68689,-0.12047c0.23866,0.05906 0.42347,0.28932 0.62931,0.44624c1.35622,1.03388 1.69428,3.32116 0.38616,4.82307c-0.42333,0.48604 -0.65335,0.52051 -1.13657,0.89731c-1.34278,1.04701 -2.74237,1.88157 -4.24959,2.43442c-0.62724,0.23007 -1.31062,0.19947 -1.94982,0.3224c-1.17806,-0.14663 -2.37888,0.04779 -3.57417,-0.19253c-0.63598,-0.12787 -1.14916,-0.4498 -1.74712,-0.70136c-1.12214,-0.4721 -2.29334,-0.80939 -3.23918,-1.75236c-0.63917,-0.63721 -1.0781,-1.55254 -1.47187,-2.41754c-0.10621,-0.23331 -0.31239,-0.3917 -0.3737,-0.65216c-0.00547,-0.02322 -0.01061,-0.04657 -0.01544,-0.06999l-0.0096,0.00576l-0.21748,-0.64654c-0.08828,-0.24589 -0.04987,-0.55434 0.11409,-0.77028c0.16396,-0.21592 0.40524,-0.27577 0.60185,-0.17256l0.51646,0.25283l-0.00677,0.02004l0.05066,0.00457c1.03456,0.81546 2.05971,1.42274 3.29106,1.66071c1.11831,0.0666 2.15207,0.24462 3.28997,0.09467c1.40301,-0.18487 2.74829,-0.77059 4.13484,-1.09851c1.12751,-0.26666 2.2805,-0.6046 3.39645,-1.07789z" fill="#ffffff" stroke="#000000" stroke-width="1"/><path d="M220.12709,158.18035c0.99969,-1.39143 9.11234,1.32727 10.66887,1.17268c3.12887,-0.31076 5.72592,2.65687 5.80066,6.62835c0.07475,3.9715 -2.40113,7.44293 -5.53,7.75369c-1.78495,0.17728 -9.2743,-2.80459 -10.34354,-4.3389c-0.21444,-0.3077 -1.55804,-2.87803 -1.68646,-5.42744c-0.14098,-2.79904 0.94935,-5.59194 1.09047,-5.78838z" fill="#ffffff" stroke="#000000" stroke-width="0"/><path d="M219.66735,158.76011c-0.00427,-0.22694 0.13721,-0.42531 0.316,-0.44306c0.17879,-0.01775 0.32721,0.15183 0.33147,0.37877c0.00427,0.22694 -0.13721,0.42531 -0.31601,0.44306c-0.17879,0.01775 -0.3272,-0.15181 -0.33147,-0.37876z" fill="#000000" stroke="none" stroke-width="0.5"/><path d="M218.71768,164.30923c-0.00427,-0.22696 0.1372,-0.42532 0.316,-0.44307c0.1788,-0.01775 0.32721,0.15182 0.33147,0.37877c0.00427,0.22696 -0.1372,0.42532 -0.316,0.44307c-0.1788,0.01775 -0.3272,-0.15183 -0.33147,-0.37877z" fill="#000000" stroke="none" stroke-width="0.5"/><path d="M220.60261,169.67975c-0.00427,-0.22693 0.1372,-0.42531 0.316,-0.44306c0.1788,-0.01775 0.32721,0.15182 0.33147,0.37877c0.00427,0.22693 -0.1372,0.42531 -0.316,0.44306c-0.1788,0.01775 -0.32721,-0.15182 -0.33147,-0.37877z" fill="#000000" stroke="none" stroke-width="0.5"/></g><g><path d="M221.07562,161.91845c0,0 -0.12861,-0.9824 -0.16451,-1.4705c-0.73102,-9.94052 6.3161,-18.9173 16.33557,-20.42375c10.09838,-1.51832 19.54234,5.10421 21.6703,14.94734c0.08704,0.40262 0.22395,1.2237 0.22395,1.2237z" fill="#4effff" stroke="#000000" stroke-width="2" stroke-linejoin="miter"/><g><path d="M246.26229,155.85831l-1.01755,-6.76775l6.76775,-1.01755l1.01755,6.76775z" fill="#ffffff" stroke="#ffffff" stroke-width="2" stroke-linejoin="round"/><path d="M248.76587,154.09774l-0.61053,-4.06065l4.06065,-0.61053l0.61053,4.06065z" fill="#000000" stroke="none" stroke-width="1" stroke-linejoin="miter"/></g></g><path d="M220.60651,165.3104h38.49315c0,0 -0.01482,0.87807 -0.04398,1.31144c-0.6741,10.01796 -9.01376,17.93514 -19.20259,17.93514c-10.28032,0 -18.67812,-8.06001 -19.2189,-18.20552c-0.01837,-0.34469 -0.02768,-1.04105 -0.02768,-1.04105z" fill="#52b4ff" stroke="#000000" stroke-width="2" stroke-linejoin="miter"/><g data-paper-data="{&quot;index&quot;:null}" stroke-linejoin="miter"><path d="M226.35906,168.61452c-0.69552,-3.89465 0.92333,-7.75162 3.61578,-8.61478c2.69245,-0.86316 5.43894,1.59436 6.13445,5.48901c0.69552,3.89466 -0.92333,7.75162 -3.61578,8.61478c-2.69245,0.86316 -5.43893,-1.59436 -6.13444,-5.48901z" fill="#ffffff" stroke="#000000" stroke-width="2"/><path d="M224.18771,160.11998c-0.05395,-0.25543 1.81209,0.79003 1.81209,0.79003c0.25282,0.26659 1.00482,0.87447 1.10145,1.33235c0.63675,3.01689 -0.66162,5.86222 -2.96729,5.77785c-0.74615,-0.0273 -0.99615,-0.30173 -1.72739,-0.53418c-2.03196,-0.64593 -3.97608,-1.60945 -5.83559,-3.03811c-0.77385,-0.59456 -1.42658,-1.56034 -2.13971,-2.29233c-1.06169,-1.771 -2.37665,-3.18743 -3.39194,-5.08786c-0.5402,-1.01115 -0.82804,-2.07438 -1.24704,-3.17356c-0.78633,-2.06278 -1.7122,-4.04 -2.00606,-6.39492c-0.1986,-1.59136 -0.01161,-3.22433 0.1858,-4.73887c0.05325,-0.40851 -0.04272,-0.8685 0.07315,-1.24652c0.01032,-0.03371 0.02106,-0.06709 0.03216,-0.10017l-0.01336,-0.00657l0.22329,-1.02732c0.07943,-0.3983 0.32605,-0.69472 0.63379,-0.71543c0.30774,-0.02071 0.58601,0.24038 0.7099,0.625l0.33784,0.98955l-0.02023,0.01344l0.04684,0.07422c0.4676,2.33166 1.06682,4.41513 2.11921,6.36198c1.05701,1.59912 1.95526,3.20897 3.17812,4.58994c1.50776,1.70271 3.22992,2.87356 4.81828,4.39213c1.29161,1.23486 2.6566,2.42382 4.07667,3.40932z" fill="#ffffff" stroke="#000000" stroke-width="1"/><path d="M221.79469,163.72552c-0.07116,-0.20318 1.43074,-0.57505 1.43074,-0.57505c0.2374,0.17028 0.52299,0.24186 0.7122,0.51084c0.20255,0.28792 0.27725,0.71271 0.40478,1.07695c0.8402,2.39989 0.1464,5.21846 -1.77619,5.6377c-0.62218,0.13567 -0.85805,-0.0418 -1.48905,-0.08168c-1.7534,-0.11085 -3.4667,-0.50726 -5.15784,-1.31253c-0.70378,-0.33513 -1.34536,-1.00797 -2.01293,-1.4715c-1.06424,-1.26257 -2.30209,-2.17335 -3.34117,-3.55455c-0.55287,-0.73489 -0.90162,-1.56718 -1.36298,-2.40183c-0.8658,-1.56632 -1.83861,-3.03107 -2.32582,-4.94758c-0.32924,-1.29509 -0.34273,-2.70713 -0.33532,-4.02184c0.00199,-0.35461 -0.12519,-0.72079 -0.06806,-1.06308c0.0051,-0.03052 0.01056,-0.06086 0.01636,-0.091l-0.01178,-0.00268l0.07923,-0.91078c0.02479,-0.3516 0.19888,-0.65313 0.45218,-0.73595c0.2533,-0.08283 0.51125,0.07743 0.65384,0.3743l0.38265,0.75977l-0.01541,0.01559l0.04655,0.0524c0.62901,1.86003 1.34166,3.48351 2.41635,4.89584c1.04259,1.11913 1.95451,2.28102 3.11223,3.18158c1.42746,1.11037 2.97793,1.72819 4.45327,2.66668c1.1997,0.76316 2.45559,1.47213 3.73617,1.99841z" fill="#ffffff" stroke="#000000" stroke-width="1"/><path d="M219.51946,166.43419c-0.07902,-0.13703 1.0043,-0.80893 1.0043,-0.80893c0.19995,0.06897 0.42379,0.05005 0.59987,0.20694c0.18848,0.16795 0.29795,0.47355 0.43955,0.71922c0.93301,1.6187 0.76443,3.9534 -0.62946,4.77008c-0.45108,0.2643 -0.65078,0.18941 -1.1305,0.32171c-1.33304,0.36761 -2.67175,0.50646 -4.045,0.32689c-0.5715,-0.07473 -1.13855,-0.42379 -1.6989,-0.60607c-0.95898,-0.69105 -2.00444,-1.06826 -2.95936,-1.85654c-0.50808,-0.41942 -0.87482,-0.96599 -1.32656,-1.4853c-0.84777,-0.97457 -1.76327,-1.84384 -2.37011,-3.1839c-0.41007,-0.90556 -0.59726,-1.98202 -0.75652,-2.98945c-0.04295,-0.27173 -0.18455,-0.51898 -0.18448,-0.7955c0,-0.02467 0.00031,-0.04926 0.00089,-0.07382l-0.0092,0.00099l-0.05459,-0.71702c-0.02544,-0.27531 0.06775,-0.55084 0.24793,-0.67953c0.18018,-0.12869 0.39435,-0.07269 0.53885,0.11758l0.38314,0.48236l-0.00965,0.0159l0.04161,0.02808c0.70643,1.26029 1.44613,2.31807 2.43173,3.12097c0.92469,0.58694 1.75643,1.24029 2.74034,1.63035c1.21315,0.48093 2.4571,0.55344 3.68472,0.89055c0.99827,0.27412 2.032,0.49233 3.06142,0.56445z" fill="#ffffff" stroke="#000000" stroke-width="1"/><path d="M222.07514,168.88178c-0.10572,-0.09233 0.7432,-1.25744 0.7432,-1.25744c0.20212,-0.0311 0.40575,-0.15759 0.60636,-0.09334c0.21474,0.06876 0.38844,0.307 0.5779,0.47255c1.24838,1.09077 1.64121,3.39749 0.53766,4.85102c-0.35712,0.47039 -0.56039,0.49576 -0.97522,0.85422c-1.1527,0.99607 -2.3645,1.77687 -3.68339,2.27093c-0.54888,0.2056 -1.15819,0.14759 -1.72201,0.24531c-1.05416,-0.1941 -2.11483,-0.04717 -3.1881,-0.33588c-0.57104,-0.15362 -1.04063,-0.49688 -1.58282,-0.77299c-1.01749,-0.51817 -2.07321,-0.90315 -2.95277,-1.88637c-0.59437,-0.66441 -1.02177,-1.59966 -1.40696,-2.48264c-0.10389,-0.23816 -0.29372,-0.4052 -0.35876,-0.66879c-0.00581,-0.02351 -0.0113,-0.04711 -0.01655,-0.07079l-0.00832,0.00539l-0.21952,-0.65691c-0.08845,-0.25007 -0.06669,-0.5578 0.07053,-0.76773c0.13721,-0.20992 0.34949,-0.26029 0.5286,-0.14894l0.46972,0.27411l-0.00521,0.01983l0.04527,0.00661c0.95338,0.85893 1.89001,1.50876 2.99525,1.79654c0.99778,0.11148 1.92479,0.33126 2.93127,0.2264c1.24097,-0.12928 2.41445,-0.66275 3.63503,-0.93612c0.99255,-0.22228 2.00489,-0.51504 2.97884,-0.94495z" fill="#ffffff" stroke="#000000" stroke-width="1"/><path d="M214.41054,159.70144c-0.01293,-0.22771 0.10497,-0.42093 0.26335,-0.43159c0.15838,-0.01066 0.29726,0.16529 0.31018,0.393c0.01293,0.22771 -0.10498,0.42093 -0.26336,0.43159c-0.15838,0.01066 -0.29725,-0.16529 -0.31017,-0.393z" fill="#000000" stroke="none" stroke-width="0.5"/><path d="M214.09894,165.62002c-0.15838,0.01066 -0.29725,-0.16529 -0.31018,-0.393c-0.01293,-0.2277 0.10497,-0.42092 0.26336,-0.43158c0.15838,-0.01066 0.29725,0.16528 0.31019,0.39299c0.01293,0.22771 -0.10498,0.42094 -0.26336,0.4316z" fill="#000000" stroke="none" stroke-width="0.5"/><path d="M215.99225,171.07984c-0.15838,0.01066 -0.29726,-0.1653 -0.31019,-0.393c-0.01293,-0.22771 0.10498,-0.42093 0.26336,-0.43159c0.15838,-0.01066 0.29725,0.16528 0.31018,0.39299c0.01293,0.2277 -0.10497,0.42093 -0.26335,0.43159z" fill="#000000" stroke="none" stroke-width="0.5"/><path d="M229.97421,159.34424c-0.08322,-0.24 1.86881,0.33969 1.86881,0.33969c0.27933,0.20238 1.08814,0.62094 1.23726,1.05118c0.98242,2.83474 0.04912,5.97299 -2.21919,6.4536c-0.73406,0.15553 -1.01155,-0.05533 -1.7554,-0.1068c-2.06699,-0.14304 -4.08573,-0.62239 -6.07691,-1.58352c-0.82866,-0.39999 -1.5828,-1.19761 -2.36832,-1.74869c-1.25048,-1.49572 -2.70686,-2.578 -3.92727,-4.21339c-0.64934,-0.87013 -1.0577,-1.85365 -1.5988,-2.8407c-1.01548,-1.85236 -2.15743,-3.58576 -2.7253,-5.84821c-0.38375,-1.52888 -0.39482,-3.19337 -0.38157,-4.743c0.00357,-0.41797 -0.14513,-0.85047 -0.0766,-1.25355c0.00611,-0.03595 0.01265,-0.07166 0.01959,-0.10716l-0.01389,-0.00324l0.09655,-1.073c0.03044,-0.41427 0.23672,-0.76845 0.53566,-0.86428c0.29895,-0.09583 0.60255,0.09488 0.76963,0.44583l0.44858,0.89825l-0.01822,0.01826l0.05472,0.06211c0.73526,2.1969 1.56993,4.11554 2.83222,5.78787c1.22544,1.3265 2.29667,2.70247 3.65861,3.77214c1.67926,1.31888 3.50525,2.05808 5.24155,3.1747c1.41191,0.90799 2.89023,1.75254 4.3983,2.38193z" fill="#ffffff" stroke="#000000" stroke-width="1"/><path d="M228.05913,163.50399c-0.09388,-0.184 1.33293,-0.92016 1.33293,-0.92016c0.25277,0.11069 0.541,0.11178 0.75831,0.3321c0.23261,0.23585 0.3563,0.63864 0.52452,0.96849c1.10833,2.17334 0.76398,5.13711 -1.06924,6.02319c-0.59327,0.28676 -0.84538,0.16855 -1.46815,0.28343c-1.73052,0.31922 -3.45576,0.34553 -5.20789,-0.03886c-0.72917,-0.15997 -1.43756,-0.66994 -2.14654,-0.96606c-1.19251,-0.99112 -2.51323,-1.591 -3.6952,-2.70588c-0.62889,-0.59318 -1.06946,-1.33287 -1.62059,-2.04733c-1.03428,-1.34078 -2.16126,-2.55468 -2.86637,-4.33524c-0.47647,-1.20323 -0.65761,-2.59964 -0.8067,-3.9047c-0.04021,-0.352 -0.20834,-0.68385 -0.19308,-1.03715c0.00135,-0.03151 0.0031,-0.06291 0.00519,-0.09421l-0.01185,0.00021l-0.0307,-0.92222c-0.01753,-0.3546 0.11712,-0.6961 0.35537,-0.84019c0.23825,-0.14409 0.50997,-0.04836 0.68492,0.21104l0.46513,0.65949l-0.01323,0.01923l0.05182,0.04056c0.83728,1.68988 1.72834,3.12479 2.94888,4.26181c1.15425,0.85422 2.18559,1.7828 3.4266,2.39219c1.53016,0.75136 3.12223,0.98435 4.67885,1.55361c1.2658,0.4629 2.58016,0.85835 3.897,1.06667z" fill="#ffffff" stroke="#000000" stroke-width="1"/><path d="M226.03854,166.75981c-0.09369,-0.1165 0.88745,-1.04766 0.88745,-1.04766c0.20405,0.01944 0.42102,-0.05409 0.61213,0.05835c0.20458,0.12035 0.34814,0.39651 0.51605,0.60538c1.10633,1.37625 1.21885,3.73183 -0.04926,4.88251c-0.41038,0.37238 -0.61488,0.34701 -1.06902,0.59555c-1.26192,0.69062 -2.55659,1.15589 -3.92297,1.31395c-0.56864,0.06579 -1.16554,-0.14147 -1.73605,-0.18503c-1.02144,-0.45034 -2.09027,-0.5684 -3.11931,-1.11612c-0.54751,-0.29142 -0.97171,-0.74347 -1.47592,-1.14771c-0.94624,-0.7586 -1.94629,-1.39623 -2.70002,-2.57611c-0.50933,-0.79731 -0.82068,-1.81857 -1.09647,-2.77824c-0.0744,-0.25884 -0.24248,-0.46928 -0.27529,-0.74341c-0.00292,-0.02444 -0.00556,-0.04891 -0.00791,-0.0734l-0.00889,0.00323l-0.13873,-0.69741c-0.05765,-0.26668 0.00085,-0.5626 0.16202,-0.73428c0.16118,-0.17167 0.3776,-0.16856 0.54175,-0.01531l0.43263,0.38438l-0.00754,0.01812l0.04407,0.01765c0.84178,1.07643 1.69207,1.94397 2.75289,2.49866c0.97548,0.35553 1.86783,0.79963 2.87789,0.9455c1.2454,0.17986 2.47239,-0.05269 3.71487,-0.01895c1.01035,0.02744 2.04877,-0.00922 3.06561,-0.18965z" fill="#ffffff" stroke="#000000" stroke-width="1"/><path d="M228.83274,168.56061c-0.11452,-0.06565 0.5784,-1.42835 0.5784,-1.42835c0.19426,-0.0803 0.37865,-0.25549 0.58279,-0.24091c0.2185,0.0156 0.41698,0.20926 0.62224,0.327c1.35243,0.77575 2.0115,2.96622 1.10349,4.67713c-0.29385,0.55368 -0.48994,0.62857 -0.8536,1.08543c-1.01056,1.26946 -2.10458,2.34 -3.33761,3.1525c-0.51314,0.33813 -1.11681,0.42975 -1.65743,0.66458c-1.05555,0.06557 -2.07697,0.4708 -3.1625,0.44725c-0.57757,-0.01253 -1.07833,-0.2379 -1.64221,-0.37891c-1.0582,-0.26465 -2.13799,-0.38791 -3.11639,-1.14731c-0.66117,-0.51316 -1.191,-1.33566 -1.67327,-2.11668c-0.13008,-0.21066 -0.33588,-0.32979 -0.43092,-0.57516c-0.00848,-0.02188 -0.01668,-0.04394 -0.02463,-0.06612l-0.00751,0.00738l-0.29313,-0.59746c-0.11637,-0.22623 -0.13164,-0.53659 -0.02222,-0.77828c0.10942,-0.24168 0.31135,-0.34355 0.50002,-0.27701l0.49265,0.15678l-0.00275,0.02092l0.04512,-0.00453c1.03592,0.61812 2.03056,1.03307 3.14731,1.04788c0.99051,-0.13368 1.92461,-0.14266 2.89793,-0.49291c1.20009,-0.43184 2.286,-1.24783 3.44898,-1.81751c0.94571,-0.46325 1.90242,-1.00118 2.80523,-1.66569z" fill="#ffffff" stroke="#000000" stroke-width="1"/><path d="M220.43998,160.74635c0.65527,-1.54726 8.19544,-0.31721 9.53486,-0.74661c2.69245,-0.86316 5.43894,1.59436 6.13445,5.48901c0.69552,3.89466 -0.92333,7.75162 -3.61578,8.61478c-1.53599,0.49241 -8.57171,-1.10762 -9.75206,-2.42692c-0.23672,-0.26458 -1.82183,-2.55445 -2.33878,-5.04021c-0.56756,-2.72915 -0.05519,-5.67162 0.03731,-5.89005z" fill="#ffffff" stroke="#000000" stroke-width="0"/><path d="M220.12909,161.39873c-0.03974,-0.22255 0.05276,-0.44295 0.20662,-0.49227c0.15384,-0.04932 0.3108,0.09111 0.35054,0.31367c0.03974,0.22255 -0.05276,0.44295 -0.20663,0.49227c-0.15384,0.04932 -0.31079,-0.0911 -0.35054,-0.31366z" fill="#000000" stroke="none" stroke-width="0.5"/><path d="M220.1772,167.02827c-0.03975,-0.22257 0.05275,-0.44295 0.20662,-0.49227c0.15386,-0.04932 0.3108,0.0911 0.35054,0.31366c0.03975,0.22257 -0.05276,0.44296 -0.20661,0.49228c-0.15386,0.04932 -0.3108,-0.09111 -0.35054,-0.31367z" fill="#000000" stroke="none" stroke-width="0.5"/><path d="M222.68087,171.97711c-0.03974,-0.22254 0.05276,-0.44295 0.20661,-0.49227c0.15386,-0.04932 0.31081,0.0911 0.35055,0.31366c0.03974,0.22254 -0.05277,0.44295 -0.20662,0.49227c-0.15386,0.04932 -0.3108,-0.0911 -0.35054,-0.31366z" fill="#000000" stroke="none" stroke-width="0.5"/></g></g></g></svg>