<svg version="1.1" xmlns="http://www.w3.org/2000/svg" xmlns:xlink="http://www.w3.org/1999/xlink" width="45.09254" height="108.13707" viewBox="0,0,45.09254,108.13707"><g transform="translate(-217.45373,-179.25506)"><g data-paper-data="{&quot;isPaintingLayer&quot;:true}" fill-rule="nonzero" stroke-linecap="butt" stroke-miterlimit="10" stroke-dasharray="" stroke-dashoffset="0" style="mix-blend-mode: normal"><path d="M234.65308,263.28258v-84.02752h10.47049v84.02753z" fill="#000000" stroke="none" stroke-width="NaN" stroke-linejoin="miter"/><path d="M232.85346,255.57772v-8.70983h14.06973v8.70983z" fill="#000000" stroke="none" stroke-width="0" stroke-linejoin="miter"/><path d="M232.85346,242.17799v-8.70983h14.06973v8.70983z" fill="#000000" stroke="none" stroke-width="0" stroke-linejoin="miter"/><path d="M232.85346,225.42831v-8.70983h14.06973v8.70983z" fill="#000000" stroke="none" stroke-width="0" stroke-linejoin="miter"/><path d="M232.85346,212.02857v-8.70983h14.06973v8.70983z" fill="#000000" stroke="none" stroke-width="0" stroke-linejoin="miter"/><path d="M232.85346,195.2789v-8.70983h14.06973v8.70983z" fill="#000000" stroke="none" stroke-width="0" stroke-linejoin="miter"/><g><path d="M244.13969,277.02143h7.2749l-3.63745,8.3707z" fill="none" stroke="#000000" stroke-width="4" stroke-linejoin="round"/><path d="M244.13969,277.02143h7.2749l-3.63745,8.3707z" fill="#b3b3b3" stroke="none" stroke-width="1" stroke-linejoin="miter"/></g><g><path d="M236.52996,277.02143h7.2749l-3.63745,8.3707z" fill="none" stroke="#000000" stroke-width="4" stroke-linejoin="round"/><path d="M236.52996,277.02143h7.2749l-3.63745,8.3707z" fill="#b3b3b3" stroke="none" stroke-width="1" stroke-linejoin="miter"/></g><g><path d="M228.91262,277.02143h7.28251l-3.63745,8.3707z" fill="none" stroke="#000000" stroke-width="4" stroke-linejoin="round"/><path d="M228.91262,277.02143h7.28251l-3.63745,8.3707z" fill="#b3b3b3" stroke="none" stroke-width="1" stroke-linejoin="miter"/></g><g><path d="M235.8603,252.67031h-7.2749l3.63745,-8.3707z" fill="none" stroke="#000000" stroke-width="4" stroke-linejoin="round"/><path d="M235.8603,252.67031h-7.2749l3.63745,-8.3707z" fill="#b3b3b3" stroke="none" stroke-width="1" stroke-linejoin="miter"/></g><g><path d="M243.47004,252.67031h-7.2749l3.63745,-8.3707z" fill="none" stroke="#000000" stroke-width="4" stroke-linejoin="round"/><path d="M243.47004,252.67031h-7.2749l3.63745,-8.3707z" fill="#b3b3b3" stroke="none" stroke-width="1" stroke-linejoin="miter"/></g><g><path d="M251.07975,252.67031h-7.2749l3.63745,-8.3707z" fill="none" stroke="#000000" stroke-width="4" stroke-linejoin="round"/><path d="M251.07975,252.67031h-7.2749l3.63745,-8.3707z" fill="#b3b3b3" stroke="none" stroke-width="1" stroke-linejoin="miter"/></g><g><path d="M227.82443,268.98557v7.2749l-8.3707,-3.63745z" fill="none" stroke="#000000" stroke-width="4" stroke-linejoin="round"/><path d="M227.82443,268.98557v7.2749l-8.3707,-3.63745z" fill="#b3b3b3" stroke="none" stroke-width="1" stroke-linejoin="miter"/></g><g><path d="M227.82443,261.37582v7.2749l-8.3707,-3.63745z" fill="none" stroke="#000000" stroke-width="4" stroke-linejoin="round"/><path d="M227.82443,261.37582v7.2749l-8.3707,-3.63745z" fill="#b3b3b3" stroke="none" stroke-width="1" stroke-linejoin="miter"/></g><g><path d="M227.82443,253.75849v7.28251l-8.3707,-3.63745z" fill="none" stroke="#000000" stroke-width="4" stroke-linejoin="round"/><path d="M227.82443,253.75849v7.28251l-8.3707,-3.63745z" fill="#b3b3b3" stroke="none" stroke-width="1" stroke-linejoin="miter"/></g><g><path d="M252.17557,260.70619v-7.2749l8.3707,3.63745z" fill="none" stroke="#000000" stroke-width="4" stroke-linejoin="round"/><path d="M252.17557,260.70619v-7.2749l8.3707,3.63745z" fill="#b3b3b3" stroke="none" stroke-width="1" stroke-linejoin="miter"/></g><g><path d="M252.17557,268.3159v-7.2749l8.3707,3.63745z" fill="none" stroke="#000000" stroke-width="4" stroke-linejoin="round"/><path d="M252.17557,268.3159v-7.2749l8.3707,3.63745z" fill="#b3b3b3" stroke="none" stroke-width="1" stroke-linejoin="miter"/></g><g><path d="M252.17557,275.92564v-7.2749l8.3707,3.63745z" fill="none" stroke="#000000" stroke-width="4" stroke-linejoin="round"/><path d="M252.17557,275.92564v-7.2749l8.3707,3.63745z" fill="#b3b3b3" stroke="none" stroke-width="1" stroke-linejoin="miter"/></g><g><path d="M227.59606,277.02143v-24.35113h24.35113v24.35113z" fill="none" stroke="#000000" stroke-width="2" stroke-linejoin="round"/><path d="M227.82443,277.02143v-24.35113h24.35113v24.35113z" fill="#b78239" stroke="none" stroke-width="1" stroke-linejoin="miter"/></g><path d="M234.67319,270.17268v-10.65362h10.65362v10.65362z" fill="#ffb64f" stroke="none" stroke-width="1" stroke-linejoin="miter"/></g></g></svg>