<svg version="1.1" xmlns="http://www.w3.org/2000/svg" xmlns:xlink="http://www.w3.org/1999/xlink" width="58.46575" height="26.96388" viewBox="0,0,58.46575,26.96388"><g transform="translate(-211.80387,-153.09808)"><g data-paper-data="{&quot;isPaintingLayer&quot;:true}" fill-rule="nonzero" stroke-linecap="butt" stroke-miterlimit="10" stroke-dasharray="" stroke-dashoffset="0" style="mix-blend-mode: normal"><g stroke="#000000" stroke-width="2" stroke-linejoin="miter"><path d="M229.36747,179.03892c-0.28489,0.04952 -5.3323,-5.72103 -5.3323,-5.72103l5.98011,-2.48393c0,0 -0.39017,8.16018 -0.64781,8.20496z" fill="#d8d8d8"/><path d="M224.13428,173.41572l-10.6376,-10.50108l16.2562,-8.20281l0.21373,15.84508z" fill="#b3b3b3"/></g><g stroke="#000000" stroke-width="2" stroke-linejoin="miter"><path d="M229.5,178.94762c-0.3688,-0.37237 4.15921,-7.22273 4.15921,-7.22273l12.89749,0.33626l3.9433,6.88647c0,0 -20.92163,0.07914 -21,0z" fill="#d8d8d8"/><path d="M240.41114,157.54942l6.08,14.24246l-12.83823,-0.05365z" fill="#b3b3b3"/></g><g><path d="M251.51618,170.97854l5.57315,2.88829c0,0 -5.56763,5.2704 -5.84659,5.19431c-0.25229,-0.0688 0.12653,-8.22952 0.12653,-8.22952z" data-paper-data="{&quot;index&quot;:null}" fill="#d8d8d8" stroke="#000000" stroke-width="2" stroke-linejoin="miter"/><path d="M251.44377,170.56038l1.70262,-15.75479l15.41292,9.69495l-11.57784,9.45436z" data-paper-data="{&quot;index&quot;:null}" fill="#b3b3b3" stroke="#000000" stroke-width="2" stroke-linejoin="miter"/><g><path d="M252.36892,167.04339l2.6622,-4.23234l4.23234,2.6622l-2.6622,4.23234z" fill="#ffffff" stroke="#ffffff" stroke-width="2" stroke-linejoin="round"/><path d="M254.59429,167.26181l1.59732,-2.5394l2.5394,1.59732l-1.59732,2.5394z" fill="#000000" stroke="none" stroke-width="1" stroke-linejoin="miter"/></g></g></g></g></svg>