<svg version="1.1" xmlns="http://www.w3.org/2000/svg" xmlns:xlink="http://www.w3.org/1999/xlink" width="217.37499" height="132.2677" viewBox="0,0,217.37499,132.2677"><defs><radialGradient cx="164.37837" cy="180.18942" r="33.17092" gradientUnits="userSpaceOnUse" id="color-1"><stop offset="0" stop-color="#555555"/><stop offset="1" stop-color="#000000"/></radialGradient><radialGradient cx="164.37837" cy="180.18942" r="33.17092" gradientUnits="userSpaceOnUse" id="color-2"><stop offset="0" stop-color="#555555"/><stop offset="1" stop-color="#000000"/></radialGradient></defs><g transform="translate(-129.85001,-89.56434)"><g data-paper-data="{&quot;isPaintingLayer&quot;:true}" fill-rule="nonzero" stroke-linecap="butt" stroke-linejoin="miter" stroke-miterlimit="10" stroke-dasharray="" stroke-dashoffset="0" style="mix-blend-mode: normal"><path d="M197.15673,180.18942c0,18.31979 -14.67538,33.17092 -32.77836,33.17092c-18.10299,0 -32.77836,-14.85113 -32.77836,-33.17092c0,-18.31979 14.67538,-33.17092 32.77836,-33.17092c18.10299,0 32.77836,14.85113 32.77836,33.17092z" data-paper-data="{&quot;origPos&quot;:null}" fill="url(#color-1)" stroke="#000000" stroke-width="3.5"/><path d="M180.38901,210.78069v-60.78999c0,0 141.00958,0 154.93874,0c7.20669,0 11.89725,3.166 11.89725,12.02469c0,14.00683 0,21.88394 0,35.89077c0,8.86989 -3.60415,12.87453 -12.21771,12.87453c-14.30436,0 -154.61828,0 -154.61828,0z" data-paper-data="{&quot;origPos&quot;:null}" fill="#000000" stroke="none" stroke-width="0"/><path d="M197.15673,180.18942c0,18.31979 -14.67538,33.17092 -32.77836,33.17092c-18.10299,0 -32.77836,-14.85113 -32.77836,-33.17092c0,-18.31979 14.67538,-33.17092 32.77836,-33.17092c18.10299,0 32.77836,14.85113 32.77836,33.17092z" data-paper-data="{&quot;origPos&quot;:null}" fill="url(#color-2)" stroke="#000000" stroke-width="3.5"/><text transform="translate(199.90724,168.06035) scale(0.40867,0.40867)" font-size="40" xml:space="preserve" data-paper-data="{&quot;origPos&quot;:null}" fill="#ffffff" fill-rule="nonzero" stroke="none" stroke-width="1" stroke-linecap="butt" stroke-linejoin="miter" stroke-miterlimit="10" stroke-dasharray="" stroke-dashoffset="0" font-family="Sans Serif" font-weight="normal" text-anchor="start" style="mix-blend-mode: normal"><tspan x="0" dy="0">Farmer</tspan></text><text transform="translate(201.82997,181.38392) scale(0.24646,0.24646)" font-size="40" xml:space="preserve" data-paper-data="{&quot;origPos&quot;:null}" fill="#ffffff" fill-rule="nonzero" stroke="none" stroke-width="1" stroke-linecap="butt" stroke-linejoin="miter" stroke-miterlimit="10" stroke-dasharray="" stroke-dashoffset="0" font-family="Sans Serif" font-weight="normal" text-anchor="start" style="mix-blend-mode: normal"><tspan x="0" dy="0">Buy your first farm.</tspan></text><g data-paper-data="{&quot;origPos&quot;:null}"><path d="M198.01164,197.27545c37.96911,0 89.7537,0 97.68987,0c4.24032,0 6.37975,0.76819 6.37975,5.58228c0,1.37926 -0.17224,10.75061 -0.14088,12.1295c0.05113,2.24869 -1.07557,4.66689 -4.31946,4.76653c-6.86018,0.2107 -61.67399,1.68787 -100.60609,1.24637c-2.152,-0.02441 -4.38607,-2.73462 -4.18671,-5.78165c0.10667,-1.63043 0,-7.83833 0,-11.96202c0,-3.9291 1.16692,-5.98101 5.18354,-5.98101z" data-paper-data="{&quot;origPos&quot;:null,&quot;index&quot;:null}" fill="#000000" stroke="#ffffff" stroke-width="1.5"/><text transform="translate(197.21417,213.82292) scale(0.39874,0.39874)" font-size="40" xml:space="preserve" data-paper-data="{&quot;origPos&quot;:null}" fill="#ffffff" fill-rule="nonzero" stroke="none" stroke-width="3" stroke-linecap="butt" stroke-linejoin="miter" stroke-miterlimit="10" stroke-dasharray="" stroke-dashoffset="0" font-family="Sans Serif" font-weight="normal" text-anchor="start" style="mix-blend-mode: normal"><tspan x="0" dy="0">Achievement</tspan></text></g><path d="M191.45001,191.57692c0,4.01471 -11.35708,7.26927 -25.36674,7.26927c-14.00966,0 -25.36674,-3.25456 -25.36674,-7.26927c0,-4.01471 11.35708,-7.26928 25.36674,-7.26928c14.00966,0 25.36674,3.25457 25.36674,7.26928z" fill="#a2773f" stroke="#a2773f" stroke-width="2"/><path d="M154.63812,190.39659c0,0 0,-18.54608 0,-21.08102c0,-0.63629 0.31835,-1.06488 0.94952,-1.14545c1.22057,-0.1558 2.60204,-0.85857 4.81602,-1.29568c1.55503,-0.30701 3.94911,-0.41157 5.13821,-0.41157c1.57174,0 3.85798,0.12842 5.95549,0.55531c1.93775,0.39437 3.71443,1.08477 4.61791,1.19725c0.50827,0.06328 0.62478,0.5175 0.62478,1.0297c0,2.46633 0,21.15147 0,21.15147c0,0 -1.1321,0.59538 -3.31412,0.92668c-2.44342,0.37098 -6.06026,0.48238 -8.02497,0.48238c-1.76915,0 -5.12986,-0.04982 -7.32348,-0.39132c-2.32799,-0.36241 -3.43937,-1.01774 -3.43937,-1.01774z" fill="#d19a51" stroke="#a2773f" stroke-width="2"/><text transform="translate(165.96525,111.27684) scale(0.5,0.5)" font-size="40" xml:space="preserve" fill="none" fill-rule="nonzero" stroke="none" stroke-width="1" stroke-linecap="butt" stroke-linejoin="miter" stroke-miterlimit="10" stroke-dasharray="" stroke-dashoffset="0" font-family="Sans Serif" font-weight="normal" text-anchor="start" style="mix-blend-mode: normal"><tspan x="0" dy="0">£1</tspan></text><path d="M189.32389,188.58863c0,4.01471 -11.35708,7.26927 -25.36674,7.26927c-14.00966,0 -25.36674,-3.25456 -25.36674,-7.26927c0,-4.01471 11.35708,-7.26927 25.36674,-7.26927c14.00966,0 25.36674,3.25456 25.36674,7.26927z" fill="#fdde7c" stroke="#c19400" stroke-width="2"/><path d="M152.512,187.40831c0,0 0,-18.54608 0,-21.08102c0,-0.63629 0.31834,-1.06489 0.94951,-1.14545c1.22057,-0.1558 2.60205,-0.85856 4.81602,-1.29567c1.55503,-0.30701 3.94911,-0.41157 5.13821,-0.41157c1.57174,0 3.85798,0.12842 5.95549,0.55531c1.93775,0.39437 3.71443,1.08477 4.61791,1.19724c0.50827,0.06328 0.62478,0.5175 0.62478,1.0297c0,2.46633 0,21.15147 0,21.15147c0,0 -1.1321,0.59538 -3.31411,0.92668c-2.44342,0.37098 -6.06026,0.48239 -8.02497,0.48239c-1.76915,0 -5.12986,-0.04982 -7.32348,-0.39132c-2.32799,-0.36241 -3.43937,-1.01774 -3.43937,-1.01774z" fill="#fdde7c" stroke="#c19400" stroke-width="2"/></g></g></svg>