<svg version="1.1" xmlns="http://www.w3.org/2000/svg" xmlns:xlink="http://www.w3.org/1999/xlink" width="290.75" height="284.93594" viewBox="0,0,290.75,284.93594"><g transform="translate(-192.25,-79.30008)"><g data-paper-data="{&quot;isPaintingLayer&quot;:true}" fill-rule="nonzero" stroke-linecap="butt" stroke-linejoin="miter" stroke-miterlimit="10" stroke-dasharray="" stroke-dashoffset="0" style="mix-blend-mode: normal"><path d="M277,364.23602v-284.93594h206v284.93594z" data-paper-data="{&quot;origPos&quot;:null}" fill="#0c4f84" stroke="none" stroke-width="0"/><path d="M200,349.75c0,-6.43934 0,-10.06066 0,-16.5c0,-5.08473 2.72771,-8.25 7.75,-8.25c9.07361,0 70.25,0 70.25,0v33c0,0 -61.71909,0 -70.5,0c-4.92697,0 -7.5,-3.28033 -7.5,-8.25z" data-paper-data="{&quot;origPos&quot;:null}" fill="#0c4f84" stroke="#000000" stroke-width="2.5"/><text transform="translate(208.7375,349.3946) scale(0.55498,0.55498)" font-size="40" xml:space="preserve" data-paper-data="{&quot;origPos&quot;:null}" fill="#ffffff" fill-rule="nonzero" stroke="none" stroke-width="1" stroke-linecap="butt" stroke-linejoin="miter" stroke-miterlimit="10" stroke-dasharray="" stroke-dashoffset="0" font-family="Sans Serif" font-weight="normal" text-anchor="start" style="mix-blend-mode: normal"><tspan x="0" dy="0">SHOP</tspan></text><path d="M211,324c0,4.78647 -4.02944,8.66667 -9,8.66667c-4.97056,0 -9,-3.8802 -9,-8.66667c0,-4.78647 4.02944,-8.66667 9,-8.66667c4.97056,0 9,3.8802 9,8.66667z" data-paper-data="{&quot;origPos&quot;:null}" fill="#ff0000" stroke="#ffffff" stroke-width="1.5"/><text transform="translate(197.66667,329.08333) scale(0.34832,0.34832)" font-size="40" xml:space="preserve" data-paper-data="{&quot;origPos&quot;:null}" fill="#ffffff" fill-rule="nonzero" stroke="none" stroke-width="1" stroke-linecap="butt" stroke-linejoin="miter" stroke-miterlimit="10" stroke-dasharray="" stroke-dashoffset="0" font-family="Sans Serif" font-weight="normal" text-anchor="start" style="mix-blend-mode: normal"><tspan x="0" dy="0">1</tspan></text></g></g></svg>