<svg version="1.1" xmlns="http://www.w3.org/2000/svg" xmlns:xlink="http://www.w3.org/1999/xlink" width="483" height="364" viewBox="0,0,483,364"><g transform="translate(1.5,2)"><g data-paper-data="{&quot;isPaintingLayer&quot;:true}" fill="none" fill-rule="nonzero" stroke-linejoin="miter" stroke-miterlimit="10" stroke-dasharray="" stroke-dashoffset="0" style="mix-blend-mode: normal"><path d="M251.19852,168.71483c0,0 0.47832,-0.14992 0.48003,0.35757c0.0072,2.13701 0.0568,16.86905 0.072,21.38338c0.00197,0.58473 -0.49628,0.81132 -0.90975,0.39785c-1.23825,-1.23825 -6.99538,-6.99538 -6.99538,-6.99538c0,0 -6.08009,0 -7.23387,0c-0.56738,0 -0.71544,-0.54552 -0.71544,-1.1129c0,-1.84877 0,-5.42675 0,-6.20046c0,-0.38758 0.32786,-0.55645 0.71544,-0.55645c1.15379,0 7.23387,0 7.23387,0c0,0 5.97267,-5.97267 7.11462,-7.11462z" stroke="#000000" stroke-width="5" stroke-linecap="round"/><path d="M214.27401,205.32138v-51.51148h60.49419v51.51148z" stroke="none" stroke-width="5" stroke-linecap="butt"/><path d="M257.75728,174.63297c0,0 3.2463,2.0403 3.19858,5.8161c-0.0537,4.24939 -2.86453,6.00637 -2.86453,6.00637" stroke="#000000" stroke-width="5.5" stroke-linecap="round"/><path d="M261.69489,165.91454c0,0 4.49915,2.82771 6.53387,8.15862c0.61387,1.6083 1.00342,3.44445 0.97745,5.49951c-0.1261,9.97895 -6.72688,14.10495 -6.72688,14.10495" stroke="#000000" stroke-width="5.5" stroke-linecap="round"/><path d="M240.58619,193.55638l28.77648,-28.77648" stroke="#000000" stroke-width="5.5" stroke-linecap="round"/><path d="M-1.5,362v-364h483v364z" stroke="none" stroke-width="0" stroke-linecap="butt"/></g></g></svg>