<svg version="1.1" xmlns="http://www.w3.org/2000/svg" xmlns:xlink="http://www.w3.org/1999/xlink" width="217.37499" height="76.56354" viewBox="0,0,217.37499,76.56354"><defs><radialGradient cx="162.5961" cy="178.65968" r="33.17092" gradientUnits="userSpaceOnUse" id="color-1"><stop offset="0" stop-color="#979797"/><stop offset="1" stop-color="#666666"/></radialGradient><radialGradient cx="164.37837" cy="180.18945" r="33.17092" gradientUnits="userSpaceOnUse" id="color-2"><stop offset="0" stop-color="#555555"/><stop offset="1" stop-color="#000000"/></radialGradient></defs><g transform="translate(-129.85001,-145.26853)"><g data-paper-data="{&quot;isPaintingLayer&quot;:true}" fill-rule="nonzero" stroke-linejoin="miter" stroke-miterlimit="10" stroke-dasharray="" stroke-dashoffset="0" style="mix-blend-mode: normal"><path d="M180.38901,210.78072v-60.78999c0,0 141.00958,0 154.93874,0c7.20669,0 11.89725,3.166 11.89725,12.02469c0,14.00683 0,21.88394 0,35.89077c0,8.86989 -3.60415,12.87453 -12.21771,12.87453c-14.30436,0 -154.61828,0 -154.61828,0z" data-paper-data="{&quot;origPos&quot;:null}" fill="#000000" stroke="none" stroke-width="0" stroke-linecap="butt"/><path d="M197.15673,180.18945c0,18.31979 -14.67538,33.17092 -32.77836,33.17092c-18.10299,0 -32.77836,-14.85113 -32.77836,-33.17092c0,-18.31979 14.67538,-33.17092 32.77836,-33.17092c18.10299,0 32.77836,14.85113 32.77836,33.17092z" data-paper-data="{&quot;origPos&quot;:null}" fill="url(#color-1)" stroke="#000000" stroke-width="3.5" stroke-linecap="butt"/><text transform="translate(199.90724,168.06038) scale(0.40867,0.40867)" font-size="40" xml:space="preserve" data-paper-data="{&quot;origPos&quot;:null}" fill="#ffffff" fill-rule="nonzero" stroke="none" stroke-width="1" stroke-linecap="butt" stroke-linejoin="miter" stroke-miterlimit="10" stroke-dasharray="" stroke-dashoffset="0" font-family="Sans Serif" font-weight="normal" text-anchor="start" style="mix-blend-mode: normal"><tspan x="0" dy="0">Getting better?</tspan></text><text transform="translate(201.82997,181.38395) scale(0.24646,0.24646)" font-size="40" xml:space="preserve" data-paper-data="{&quot;origPos&quot;:null}" fill="#ffffff" fill-rule="nonzero" stroke="none" stroke-width="1" stroke-linecap="butt" stroke-linejoin="miter" stroke-miterlimit="10" stroke-dasharray="" stroke-dashoffset="0" font-family="Sans Serif" font-weight="normal" text-anchor="start" style="mix-blend-mode: normal"><tspan x="0" dy="0">Play for 30 minutes.</tspan></text><path d="M197.15673,180.18945c0,18.31979 -14.67538,33.17092 -32.77836,33.17092c-18.10299,0 -32.77836,-14.85113 -32.77836,-33.17092c0,-18.31979 14.67538,-33.17092 32.77836,-33.17092c18.10299,0 32.77836,14.85113 32.77836,33.17092z" data-paper-data="{&quot;origPos&quot;:null}" fill="url(#color-2)" stroke="#000000" stroke-width="3.5" stroke-linecap="butt"/><g data-paper-data="{&quot;origPos&quot;:null}" stroke-linecap="butt"><path d="M198.01164,197.27548c37.96911,0 89.7537,0 97.68987,0c4.24032,0 6.37975,0.76819 6.37975,5.58228c0,1.37926 -0.17224,10.75061 -0.14088,12.1295c0.05113,2.24869 -1.07557,4.66689 -4.31946,4.76653c-6.86018,0.2107 -61.67399,1.68787 -100.60609,1.24637c-2.152,-0.02441 -4.38607,-2.73462 -4.18671,-5.78165c0.10667,-1.63043 0,-7.83833 0,-11.96202c0,-3.9291 1.16692,-5.98101 5.18354,-5.98101z" data-paper-data="{&quot;origPos&quot;:null,&quot;index&quot;:null}" fill="#000000" stroke="#ffffff" stroke-width="1.5"/><text transform="translate(197.21417,213.82295) scale(0.39874,0.39874)" font-size="40" xml:space="preserve" data-paper-data="{&quot;origPos&quot;:null}" fill="#ffffff" fill-rule="nonzero" stroke="none" stroke-width="3" stroke-linecap="butt" stroke-linejoin="miter" stroke-miterlimit="10" stroke-dasharray="" stroke-dashoffset="0" font-family="Sans Serif" font-weight="normal" text-anchor="start" style="mix-blend-mode: normal"><tspan x="0" dy="0">Achievement</tspan></text></g><path d="M136.67244,179.72354c0,-14.81155 12.00714,-26.8187 26.8187,-26.8187c14.81155,0 26.81869,12.00714 26.81869,26.8187c0,14.81155 -12.00714,26.81869 -26.81869,26.81869c-14.81155,0 -26.8187,-12.00714 -26.8187,-26.81869z" fill="#ffffff" stroke="#9a6c0c" stroke-width="2.5" stroke-linecap="butt"/><g fill="none" stroke="#000000" stroke-width="2.5" stroke-linecap="round"><path d="M162.67575,160.43283v-4.48134"/><path d="M187.55896,178.4761h-3.89169"/><path d="M178.95008,163.26314l-3.1841,3.18411"/><path d="M169.75155,162.08384l1.06137,-4.12754"/><path d="M184.61071,169.51343l-3.18411,2.59446"/><path d="M163.38333,198.52418v3.89169"/><path d="M140.62287,178.82989h3.77375"/><path d="M142.62767,170.33894l3.65583,1.88688"/><path d="M147.22694,162.3197l3.41997,3.41997"/><path d="M154.30273,157.60251l2.12274,3.89169"/><path d="M146.87315,195.45801l3.24307,-3.24308"/><path d="M153.47722,200.52899l2.12274,-4.95305"/><path d="M146.28349,185.66982l-4.12755,1.88688"/><path d="M180.30627,193.98388l-2.65342,-2.65342"/><path d="M171.46153,196.22455l1.59205,3.71479"/><path d="M185.20036,187.20291l-3.65582,-2.00481"/></g><path d="M161.84039,181.14441c0,-0.61874 0.44879,-1.12033 1.0024,-1.12033c0.55361,0 1.0024,0.50159 1.0024,1.12033c0,0.61874 -0.44879,1.12033 -1.0024,1.12033c-0.55361,0 -1.0024,-0.50159 -1.0024,-1.12033z" fill="#000000" stroke="#000000" stroke-width="2.5" stroke-linecap="butt"/><path d="M165.52625,166.57502l-2.74242,14.15663" fill="none" stroke="#000000" stroke-width="2.5" stroke-linecap="round"/><path d="M163.00937,181.62625l0.15903,13.89809" fill="none" stroke="#000000" stroke-width="2.5" stroke-linecap="round"/></g></g></svg>