<svg version="1.1" xmlns="http://www.w3.org/2000/svg" xmlns:xlink="http://www.w3.org/1999/xlink" width="201.75002" height="81.0796" viewBox="0,0,201.75002,81.0796"><defs><linearGradient x1="152.03134" y1="178.96213" x2="348.2814" y2="178.96213" gradientUnits="userSpaceOnUse" id="color-1"><stop offset="0" stop-color="#bbbbbb"/><stop offset="1" stop-color="#a7a7a7"/></linearGradient></defs><g transform="translate(-149.28131,-145.08714)"><g data-paper-data="{&quot;isPaintingLayer&quot;:true}" fill-rule="nonzero" stroke-linecap="butt" stroke-linejoin="miter" stroke-miterlimit="10" stroke-dasharray="" stroke-dashoffset="0" style="mix-blend-mode: normal"><path d="M152.03134,205.73892c0,-11.93712 0,-46.38146 0,-53.34484c0,-2.76146 1.69557,-4.55694 4.45703,-4.55694c15.43271,0 162.38541,0 187.99577,0c2.16983,0 3.79719,1.01522 3.79719,3.18505c0,6.2139 0,43.43717 0,55.37975c0,2.09217 -0.8638,3.6852 -2.95597,3.6852c-23.089,0 -174.03563,0 -189.16082,0c-2.40301,0 -4.13321,-4.03242 -4.13321,-4.03242z" fill="url(#color-1)" stroke="#000000" stroke-width="5.5"/><path d="M208.01172,201.19214c37.96911,0 89.7537,0 97.68987,0c4.24032,0 6.37975,0.76819 6.37975,5.58228c0,1.37926 -0.17224,10.75061 -0.14088,12.1295c0.05113,2.24869 -1.07557,4.66689 -4.31946,4.76653c-6.86018,0.2107 -61.67399,1.68787 -100.60609,1.24637c-2.152,-0.02441 -4.38607,-2.73462 -4.18671,-5.78165c0.10667,-1.63043 0,-7.83833 0,-11.96202c0,-3.9291 1.16692,-5.98101 5.18354,-5.98101z" data-paper-data="{&quot;origPos&quot;:null,&quot;index&quot;:null}" fill="#b8b8b8" stroke="#000000" stroke-width="2.5"/><path d="M154.23422,205.68067c-0.03503,-0.04302 -0.05603,-0.09792 -0.05603,-0.15773c0,-0.11007 0.07113,-0.20352 0.16993,-0.2369c-0.00605,-0.00609 -0.01211,-0.01216 -0.01818,-0.01822c0,0 -0.17678,-0.17678 0,-0.35355c0.17678,-0.17678 0.35355,0 0.35355,0c0.7811,0.78337 1.39767,2.06402 2.56183,2.37074l0.12817,0.04247c0,0 0.23717,0.07906 0.15811,0.31623c-0.07906,0.23717 -0.31623,0.15811 -0.31623,0.15811l-0.10741,-0.03605c-0.01083,-0.00327 -0.02162,-0.0066 -0.03236,-0.00999c-0.00579,0.03238 -0.01951,0.06738 -0.04432,0.1046c-0.13868,0.20801 -0.34669,0.06934 -0.34669,0.06934c-0.11795,-0.07894 -0.22906,-0.15694 -0.33473,-0.23454c0.02212,0.03057 0.04257,0.05913 0.06116,0.0854l0.00007,-0.00007l0.27484,0.27484c0.04524,0.04524 0.07322,0.10774 0.07322,0.17678c0,0.13807 -0.11193,0.25 -0.25,0.25c-0.0598,0 -0.1147,-0.021 -0.15773,-0.05603l-0.19476,-0.15581l0.01221,-0.01526l-0.03939,-0.01076c0.00096,0.00891 0.00145,0.01796 0.00145,0.02712c0,0.13807 -0.11193,0.25 -0.25,0.25c-0.02585,0 -0.05078,-0.00392 -0.07423,-0.01121l-0.37227,-0.10636c-0.04557,0.04822 -0.11013,0.0783 -0.18172,0.0783c-0.09095,0 -0.17055,-0.04856 -0.21429,-0.12117l-0.19095,-0.30552c-0.08107,-0.11329 -0.15083,-0.19493 -0.20245,-0.27197c-0.07458,-0.08325 -0.15397,-0.17733 -0.24258,-0.28364l-0.19031,-0.19031c-0.04524,-0.04524 -0.07322,-0.10774 -0.07322,-0.17678c0,-0.13807 0.11193,-0.25 0.25,-0.25c0.00263,0 0.00525,0.00004 0.00787,0.00012l-0.17143,-0.15c-0.05294,-0.04584 -0.08644,-0.11355 -0.08644,-0.18908c0,-0.13807 0.11193,-0.25 0.25,-0.25c0.01057,0 0.02099,0.00066 0.03121,0.00193c-0.0021,-0.02838 -0.00377,-0.05457 -0.00504,-0.07824l-0.03747,-0.2623c-0.00205,-0.0129 -0.00312,-0.02613 -0.00312,-0.03961c0,-0.01805 0.00191,-0.03565 0.00555,-0.05261z" fill="#000000" stroke="none" stroke-width="0.5"/><text transform="translate(210.04614,169.13384) scale(0.40611,0.45484)" font-size="40" xml:space="preserve" fill="#ffffff" fill-rule="nonzero" stroke="none" stroke-width="1" stroke-linecap="butt" stroke-linejoin="miter" stroke-miterlimit="10" stroke-dasharray="" stroke-dashoffset="0" font-family="Sans Serif" font-weight="normal" text-anchor="start" style="mix-blend-mode: normal"><tspan x="0" dy="0">New upgrade??</tspan></text><text transform="translate(210.00002,182.8154) scale(0.22983,0.22983)" font-size="40" xml:space="preserve" data-paper-data="{&quot;origPos&quot;:null}" fill="#ffffff" fill-rule="nonzero" stroke="none" stroke-width="1" stroke-linecap="butt" stroke-linejoin="miter" stroke-miterlimit="10" stroke-dasharray="" stroke-dashoffset="0" font-family="Sans Serif" font-weight="normal" text-anchor="start" style="mix-blend-mode: normal"><tspan x="0" dy="0">????</tspan></text><text transform="translate(215.71417,217.44796) scale(0.34666,0.34666)" font-size="40" xml:space="preserve" data-paper-data="{&quot;origPos&quot;:null}" fill="#ffffff" fill-rule="nonzero" stroke="none" stroke-width="3" stroke-linecap="butt" stroke-linejoin="miter" stroke-miterlimit="10" stroke-dasharray="" stroke-dashoffset="0" font-family="Sans Serif" font-weight="normal" text-anchor="start" style="mix-blend-mode: normal"><tspan x="0" dy="0">Buy for ??QU</tspan></text></g></g></svg>