<svg version="1.1" xmlns="http://www.w3.org/2000/svg" xmlns:xlink="http://www.w3.org/1999/xlink" width="217.37499" height="76.56354" viewBox="0,0,217.37499,76.56354"><defs><radialGradient cx="162.5961" cy="178.65967" r="33.17092" gradientUnits="userSpaceOnUse" id="color-1"><stop offset="0" stop-color="#979797"/><stop offset="1" stop-color="#666666"/></radialGradient><radialGradient cx="164.37837" cy="180.18944" r="33.17092" gradientUnits="userSpaceOnUse" id="color-2"><stop offset="0" stop-color="#555555"/><stop offset="1" stop-color="#000000"/></radialGradient></defs><g transform="translate(-129.85001,-145.26851)"><g data-paper-data="{&quot;isPaintingLayer&quot;:true}" fill-rule="nonzero" stroke-linejoin="miter" stroke-miterlimit="10" stroke-dasharray="" stroke-dashoffset="0" style="mix-blend-mode: normal"><path d="M180.38901,210.78071v-60.78999c0,0 141.00958,0 154.93874,0c7.20669,0 11.89725,3.166 11.89725,12.02469c0,14.00683 0,21.88394 0,35.89077c0,8.86989 -3.60415,12.87453 -12.21771,12.87453c-14.30436,0 -154.61828,0 -154.61828,0z" data-paper-data="{&quot;origPos&quot;:null}" fill="#000000" stroke="none" stroke-width="0" stroke-linecap="butt"/><path d="M197.15673,180.18944c0,18.31979 -14.67538,33.17092 -32.77836,33.17092c-18.10299,0 -32.77836,-14.85113 -32.77836,-33.17092c0,-18.31979 14.67538,-33.17092 32.77836,-33.17092c18.10299,0 32.77836,14.85113 32.77836,33.17092z" data-paper-data="{&quot;origPos&quot;:null}" fill="url(#color-1)" stroke="#000000" stroke-width="3.5" stroke-linecap="butt"/><text transform="translate(199.90724,168.06037) scale(0.40867,0.40867)" font-size="40" xml:space="preserve" data-paper-data="{&quot;origPos&quot;:null}" fill="#ffffff" fill-rule="nonzero" stroke="none" stroke-width="1" stroke-linecap="butt" stroke-linejoin="miter" stroke-miterlimit="10" stroke-dasharray="" stroke-dashoffset="0" font-family="Sans Serif" font-weight="normal" text-anchor="start" style="mix-blend-mode: normal"><tspan x="0" dy="0">Getting there!</tspan></text><text transform="translate(201.82997,181.38394) scale(0.24646,0.24646)" font-size="40" xml:space="preserve" data-paper-data="{&quot;origPos&quot;:null}" fill="#ffffff" fill-rule="nonzero" stroke="none" stroke-width="1" stroke-linecap="butt" stroke-linejoin="miter" stroke-miterlimit="10" stroke-dasharray="" stroke-dashoffset="0" font-family="Sans Serif" font-weight="normal" text-anchor="start" style="mix-blend-mode: normal"><tspan x="0" dy="0">Play for 10 minutes.</tspan></text><path d="M197.15673,180.18944c0,18.31979 -14.67538,33.17092 -32.77836,33.17092c-18.10299,0 -32.77836,-14.85113 -32.77836,-33.17092c0,-18.31979 14.67538,-33.17092 32.77836,-33.17092c18.10299,0 32.77836,14.85113 32.77836,33.17092z" data-paper-data="{&quot;origPos&quot;:null}" fill="url(#color-2)" stroke="#000000" stroke-width="3.5" stroke-linecap="butt"/><g data-paper-data="{&quot;origPos&quot;:null}" stroke-linecap="butt"><path d="M198.01164,197.27547c37.96911,0 89.7537,0 97.68987,0c4.24032,0 6.37975,0.76819 6.37975,5.58228c0,1.37926 -0.17224,10.75061 -0.14088,12.1295c0.05113,2.24869 -1.07557,4.66689 -4.31946,4.76653c-6.86018,0.2107 -61.67399,1.68787 -100.60609,1.24637c-2.152,-0.02441 -4.38607,-2.73462 -4.18671,-5.78165c0.10667,-1.63043 0,-7.83833 0,-11.96202c0,-3.9291 1.16692,-5.98101 5.18354,-5.98101z" data-paper-data="{&quot;origPos&quot;:null,&quot;index&quot;:null}" fill="#000000" stroke="#ffffff" stroke-width="1.5"/><text transform="translate(197.21417,213.82294) scale(0.39874,0.39874)" font-size="40" xml:space="preserve" data-paper-data="{&quot;origPos&quot;:null}" fill="#ffffff" fill-rule="nonzero" stroke="none" stroke-width="3" stroke-linecap="butt" stroke-linejoin="miter" stroke-miterlimit="10" stroke-dasharray="" stroke-dashoffset="0" font-family="Sans Serif" font-weight="normal" text-anchor="start" style="mix-blend-mode: normal"><tspan x="0" dy="0">Achievement</tspan></text></g><path d="M136.67244,179.72353c0,-14.81155 12.00714,-26.8187 26.8187,-26.8187c14.81155,0 26.81869,12.00714 26.81869,26.8187c0,14.81155 -12.00714,26.81869 -26.81869,26.81869c-14.81155,0 -26.8187,-12.00714 -26.8187,-26.81869z" fill="#ffffff" stroke="#9a6c0c" stroke-width="2.5" stroke-linecap="butt"/><g fill="none" stroke="#000000" stroke-width="2.5" stroke-linecap="round"><path d="M162.67575,160.43282v-4.48134"/><path d="M183.66727,178.47609h3.89169"/><path d="M175.76598,166.44724l3.1841,-3.18411"/><path d="M170.81292,157.95629l-1.06137,4.12754"/><path d="M181.4266,172.10788l3.18411,-2.59446"/><path d="M163.38333,198.52417v3.89169"/><path d="M140.62287,178.82988h3.77375"/><path d="M146.2835,172.22581l-3.65583,-1.88688"/><path d="M147.22694,162.31969l3.41997,3.41997"/><path d="M156.42547,161.49419l-2.12274,-3.89169"/><path d="M150.11622,192.21492l-3.24307,3.24308"/><path d="M153.47722,200.52898l2.12274,-4.95305"/><path d="M146.28349,185.66981l-4.12755,1.88688"/><path d="M177.65285,191.33045l2.65342,2.65342"/><path d="M171.46153,196.22454l1.59205,3.71479"/><path d="M185.20036,187.2029l-3.65582,-2.00481"/></g><path d="M161.84039,181.1444c0,-0.61874 0.44879,-1.12033 1.0024,-1.12033c0.55361,0 1.0024,0.50159 1.0024,1.12033c0,0.61874 -0.44879,1.12033 -1.0024,1.12033c-0.55361,0 -1.0024,-0.50159 -1.0024,-1.12033z" fill="#000000" stroke="#000000" stroke-width="2.5" stroke-linecap="butt"/><path d="M162.78383,180.73164l-0.09091,-14.15663" fill="none" stroke="#000000" stroke-width="2.5" stroke-linecap="round"/><path d="M163.00937,181.62624l10.49236,-12.76858" fill="none" stroke="#000000" stroke-width="2.5" stroke-linecap="round"/></g></g></svg>